<?xml version="1.0" encoding="utf-8"?>
<svg xmlns="http://www.w3.org/2000/svg" xmlns:xlink="http://www.w3.org/1999/xlink" width="400" height="320" viewBox="0 0 1600 1280">
<defs>
  <clipPath id="clip380">
    <rect x="0" y="0" width="1600" height="1280"/>
  </clipPath>
</defs>
<path clip-path="url(#clip380)" d="
M0 1280 L1600 1280 L1600 0 L0 0  Z
  " fill="#ffffff" fill-rule="evenodd" fill-opacity="1"/>
<defs>
  <clipPath id="clip381">
    <rect x="320" y="0" width="1121" height="1121"/>
  </clipPath>
</defs>
<path clip-path="url(#clip380)" d="
M251.046 1048.49 L1199.95 1048.49 L1199.95 47.2441 L251.046 47.2441  Z
  " fill="#ffffff" fill-rule="evenodd" fill-opacity="1"/>
<defs>
  <clipPath id="clip382">
    <rect x="251" y="47" width="950" height="1002"/>
  </clipPath>
</defs>
<polyline clip-path="url(#clip382)" style="stroke:#000000; stroke-linecap:butt; stroke-linejoin:round; stroke-width:2; stroke-opacity:0.1; fill:none" points="
  380.343,1048.49 380.343,47.2441 
  "/>
<polyline clip-path="url(#clip382)" style="stroke:#000000; stroke-linecap:butt; stroke-linejoin:round; stroke-width:2; stroke-opacity:0.1; fill:none" points="
  656.465,1048.49 656.465,47.2441 
  "/>
<polyline clip-path="url(#clip382)" style="stroke:#000000; stroke-linecap:butt; stroke-linejoin:round; stroke-width:2; stroke-opacity:0.1; fill:none" points="
  1070.65,1048.49 1070.65,47.2441 
  "/>
<polyline clip-path="url(#clip380)" style="stroke:#000000; stroke-linecap:butt; stroke-linejoin:round; stroke-width:4; stroke-opacity:1; fill:none" points="
  251.046,1048.49 1199.95,1048.49 
  "/>
<polyline clip-path="url(#clip380)" style="stroke:#000000; stroke-linecap:butt; stroke-linejoin:round; stroke-width:4; stroke-opacity:1; fill:none" points="
  380.343,1048.49 380.343,1036.48 
  "/>
<polyline clip-path="url(#clip380)" style="stroke:#000000; stroke-linecap:butt; stroke-linejoin:round; stroke-width:4; stroke-opacity:1; fill:none" points="
  656.465,1048.49 656.465,1036.48 
  "/>
<polyline clip-path="url(#clip380)" style="stroke:#000000; stroke-linecap:butt; stroke-linejoin:round; stroke-width:4; stroke-opacity:1; fill:none" points="
  1070.65,1048.49 1070.65,1036.48 
  "/>
<path clip-path="url(#clip380)" d="M307.6 1089.82 Q307.6 1085.13 305.656 1082.46 Q303.735 1079.78 300.355 1079.78 Q296.975 1079.78 295.031 1082.46 Q293.11 1085.13 293.11 1089.82 Q293.11 1094.52 295.031 1097.21 Q296.975 1099.87 300.355 1099.87 Q303.735 1099.87 305.656 1097.21 Q307.6 1094.52 307.6 1089.82 M293.11 1080.77 Q294.452 1078.46 296.489 1077.35 Q298.55 1076.21 301.397 1076.21 Q306.119 1076.21 309.059 1079.96 Q312.022 1083.71 312.022 1089.82 Q312.022 1095.94 309.059 1099.69 Q306.119 1103.44 301.397 1103.44 Q298.55 1103.44 296.489 1102.32 Q294.452 1101.19 293.11 1098.87 L293.11 1102.76 L288.827 1102.76 L288.827 1066.75 L293.11 1066.75 L293.11 1080.77 Z" fill="#000000" fill-rule="evenodd" fill-opacity="1" /><path clip-path="url(#clip380)" d="M319.082 1076.84 L323.341 1076.84 L323.341 1102.76 L319.082 1102.76 L319.082 1076.84 M319.082 1066.75 L323.341 1066.75 L323.341 1072.14 L319.082 1072.14 L319.082 1066.75 Z" fill="#000000" fill-rule="evenodd" fill-opacity="1" /><path clip-path="url(#clip380)" d="M349.313 1089.5 Q349.313 1084.87 347.392 1082.32 Q345.494 1079.78 342.045 1079.78 Q338.619 1079.78 336.698 1082.32 Q334.799 1084.87 334.799 1089.5 Q334.799 1094.11 336.698 1096.65 Q338.619 1099.2 342.045 1099.2 Q345.494 1099.2 347.392 1096.65 Q349.313 1094.11 349.313 1089.5 M353.572 1099.55 Q353.572 1106.17 350.633 1109.38 Q347.693 1112.62 341.628 1112.62 Q339.383 1112.62 337.392 1112.28 Q335.401 1111.95 333.526 1111.26 L333.526 1107.12 Q335.401 1108.13 337.23 1108.62 Q339.059 1109.11 340.957 1109.11 Q345.147 1109.11 347.23 1106.91 Q349.313 1104.73 349.313 1100.31 L349.313 1098.2 Q347.994 1100.5 345.934 1101.63 Q343.873 1102.76 341.003 1102.76 Q336.235 1102.76 333.318 1099.13 Q330.401 1095.5 330.401 1089.5 Q330.401 1083.48 333.318 1079.85 Q336.235 1076.21 341.003 1076.21 Q343.873 1076.21 345.934 1077.35 Q347.994 1078.48 349.313 1080.77 L349.313 1076.84 L353.572 1076.84 L353.572 1099.55 Z" fill="#000000" fill-rule="evenodd" fill-opacity="1" /><path clip-path="url(#clip380)" d="M369.915 1068.2 L373.85 1068.2 L361.813 1107.16 L357.878 1107.16 L369.915 1068.2 Z" fill="#000000" fill-rule="evenodd" fill-opacity="1" /><path clip-path="url(#clip380)" d="M378.318 1066.75 L382.577 1066.75 L382.577 1102.76 L378.318 1102.76 L378.318 1066.75 Z" fill="#000000" fill-rule="evenodd" fill-opacity="1" /><path clip-path="url(#clip380)" d="M401.535 1079.82 Q398.109 1079.82 396.118 1082.51 Q394.128 1085.17 394.128 1089.82 Q394.128 1094.48 396.095 1097.16 Q398.086 1099.82 401.535 1099.82 Q404.938 1099.82 406.929 1097.14 Q408.919 1094.45 408.919 1089.82 Q408.919 1085.22 406.929 1082.53 Q404.938 1079.82 401.535 1079.82 M401.535 1076.21 Q407.091 1076.21 410.262 1079.82 Q413.433 1083.44 413.433 1089.82 Q413.433 1096.19 410.262 1099.82 Q407.091 1103.44 401.535 1103.44 Q395.956 1103.44 392.785 1099.82 Q389.637 1096.19 389.637 1089.82 Q389.637 1083.44 392.785 1079.82 Q395.956 1076.21 401.535 1076.21 Z" fill="#000000" fill-rule="evenodd" fill-opacity="1" /><path clip-path="url(#clip380)" d="M442.044 1087.12 L442.044 1102.76 L437.785 1102.76 L437.785 1087.25 Q437.785 1083.57 436.35 1081.75 Q434.915 1079.92 432.044 1079.92 Q428.595 1079.92 426.604 1082.12 Q424.614 1084.31 424.614 1088.11 L424.614 1102.76 L420.331 1102.76 L420.331 1076.84 L424.614 1076.84 L424.614 1080.87 Q426.141 1078.53 428.202 1077.37 Q430.285 1076.21 432.993 1076.21 Q437.461 1076.21 439.753 1078.99 Q442.044 1081.75 442.044 1087.12 Z" fill="#000000" fill-rule="evenodd" fill-opacity="1" /><path clip-path="url(#clip380)" d="M467.6 1089.5 Q467.6 1084.87 465.678 1082.32 Q463.78 1079.78 460.331 1079.78 Q456.905 1079.78 454.984 1082.32 Q453.086 1084.87 453.086 1089.5 Q453.086 1094.11 454.984 1096.65 Q456.905 1099.2 460.331 1099.2 Q463.78 1099.2 465.678 1096.65 Q467.6 1094.11 467.6 1089.5 M471.859 1099.55 Q471.859 1106.17 468.919 1109.38 Q465.979 1112.62 459.914 1112.62 Q457.669 1112.62 455.678 1112.28 Q453.688 1111.95 451.813 1111.26 L451.813 1107.12 Q453.688 1108.13 455.516 1108.62 Q457.345 1109.11 459.243 1109.11 Q463.433 1109.11 465.516 1106.91 Q467.6 1104.73 467.6 1100.31 L467.6 1098.2 Q466.28 1100.5 464.22 1101.63 Q462.16 1102.76 459.289 1102.76 Q454.521 1102.76 451.604 1099.13 Q448.688 1095.5 448.688 1089.5 Q448.688 1083.48 451.604 1079.85 Q454.521 1076.21 459.289 1076.21 Q462.16 1076.21 464.22 1077.35 Q466.28 1078.48 467.6 1080.77 L467.6 1076.84 L471.859 1076.84 L471.859 1099.55 Z" fill="#000000" fill-rule="evenodd" fill-opacity="1" /><path clip-path="url(#clip380)" d="M308.11 1141.66 Q308.11 1136.97 306.165 1134.3 Q304.244 1131.62 300.864 1131.62 Q297.485 1131.62 295.54 1134.3 Q293.619 1136.97 293.619 1141.66 Q293.619 1146.36 295.54 1149.05 Q297.485 1151.71 300.864 1151.71 Q304.244 1151.71 306.165 1149.05 Q308.11 1146.36 308.11 1141.66 M293.619 1132.61 Q294.962 1130.3 296.999 1129.19 Q299.059 1128.05 301.906 1128.05 Q306.628 1128.05 309.568 1131.8 Q312.531 1135.55 312.531 1141.66 Q312.531 1147.78 309.568 1151.53 Q306.628 1155.28 301.906 1155.28 Q299.059 1155.28 296.999 1154.16 Q294.962 1153.03 293.619 1150.71 L293.619 1154.6 L289.337 1154.6 L289.337 1118.59 L293.619 1118.59 L293.619 1132.61 Z" fill="#000000" fill-rule="evenodd" fill-opacity="1" /><path clip-path="url(#clip380)" d="M319.591 1128.68 L323.85 1128.68 L323.85 1154.6 L319.591 1154.6 L319.591 1128.68 M319.591 1118.59 L323.85 1118.59 L323.85 1123.98 L319.591 1123.98 L319.591 1118.59 Z" fill="#000000" fill-rule="evenodd" fill-opacity="1" /><path clip-path="url(#clip380)" d="M352.947 1133.65 Q354.545 1130.78 356.767 1129.42 Q358.989 1128.05 361.998 1128.05 Q366.049 1128.05 368.248 1130.9 Q370.447 1133.72 370.447 1138.96 L370.447 1154.6 L366.165 1154.6 L366.165 1139.09 Q366.165 1135.37 364.846 1133.56 Q363.526 1131.76 360.818 1131.76 Q357.508 1131.76 355.586 1133.96 Q353.665 1136.15 353.665 1139.95 L353.665 1154.6 L349.383 1154.6 L349.383 1139.09 Q349.383 1135.34 348.063 1133.56 Q346.744 1131.76 343.989 1131.76 Q340.725 1131.76 338.804 1133.98 Q336.883 1136.18 336.883 1139.95 L336.883 1154.6 L332.6 1154.6 L332.6 1128.68 L336.883 1128.68 L336.883 1132.71 Q338.341 1130.32 340.378 1129.19 Q342.415 1128.05 345.216 1128.05 Q348.04 1128.05 350.008 1129.49 Q351.998 1130.92 352.947 1133.65 Z" fill="#000000" fill-rule="evenodd" fill-opacity="1" /><path clip-path="url(#clip380)" d="M388.989 1131.66 Q385.563 1131.66 383.572 1134.35 Q381.582 1137.01 381.582 1141.66 Q381.582 1146.32 383.549 1149 Q385.54 1151.66 388.989 1151.66 Q392.392 1151.66 394.382 1148.98 Q396.373 1146.29 396.373 1141.66 Q396.373 1137.06 394.382 1134.37 Q392.392 1131.66 388.989 1131.66 M388.989 1128.05 Q394.544 1128.05 397.716 1131.66 Q400.887 1135.28 400.887 1141.66 Q400.887 1148.03 397.716 1151.66 Q394.544 1155.28 388.989 1155.28 Q383.41 1155.28 380.239 1151.66 Q377.091 1148.03 377.091 1141.66 Q377.091 1135.28 380.239 1131.66 Q383.41 1128.05 388.989 1128.05 Z" fill="#000000" fill-rule="evenodd" fill-opacity="1" /><path clip-path="url(#clip380)" d="M425.007 1132.61 L425.007 1118.59 L429.266 1118.59 L429.266 1154.6 L425.007 1154.6 L425.007 1150.71 Q423.665 1153.03 421.604 1154.16 Q419.567 1155.28 416.697 1155.28 Q411.998 1155.28 409.035 1151.53 Q406.095 1147.78 406.095 1141.66 Q406.095 1135.55 409.035 1131.8 Q411.998 1128.05 416.697 1128.05 Q419.567 1128.05 421.604 1129.19 Q423.665 1130.3 425.007 1132.61 M410.493 1141.66 Q410.493 1146.36 412.415 1149.05 Q414.359 1151.71 417.739 1151.71 Q421.118 1151.71 423.063 1149.05 Q425.007 1146.36 425.007 1141.66 Q425.007 1136.97 423.063 1134.3 Q421.118 1131.62 417.739 1131.62 Q414.359 1131.62 412.415 1134.3 Q410.493 1136.97 410.493 1141.66 Z" fill="#000000" fill-rule="evenodd" fill-opacity="1" /><path clip-path="url(#clip380)" d="M449.822 1141.57 Q444.66 1141.57 442.669 1142.75 Q440.678 1143.93 440.678 1146.78 Q440.678 1149.05 442.16 1150.39 Q443.665 1151.71 446.234 1151.71 Q449.776 1151.71 451.905 1149.21 Q454.058 1146.69 454.058 1142.52 L454.058 1141.57 L449.822 1141.57 M458.317 1139.81 L458.317 1154.6 L454.058 1154.6 L454.058 1150.67 Q452.6 1153.03 450.424 1154.16 Q448.248 1155.28 445.1 1155.28 Q441.118 1155.28 438.757 1153.05 Q436.419 1150.81 436.419 1147.06 Q436.419 1142.68 439.336 1140.46 Q442.276 1138.24 448.086 1138.24 L454.058 1138.24 L454.058 1137.82 Q454.058 1134.88 452.114 1133.28 Q450.192 1131.66 446.697 1131.66 Q444.475 1131.66 442.368 1132.2 Q440.262 1132.73 438.317 1133.79 L438.317 1129.86 Q440.655 1128.96 442.854 1128.52 Q445.053 1128.05 447.137 1128.05 Q452.762 1128.05 455.539 1130.97 Q458.317 1133.89 458.317 1139.81 Z" fill="#000000" fill-rule="evenodd" fill-opacity="1" /><path clip-path="url(#clip380)" d="M467.09 1118.59 L471.35 1118.59 L471.35 1154.6 L467.09 1154.6 L467.09 1118.59 Z" fill="#000000" fill-rule="evenodd" fill-opacity="1" /><path clip-path="url(#clip380)" d="M583.723 1089.82 Q583.723 1085.13 581.778 1082.46 Q579.857 1079.78 576.477 1079.78 Q573.098 1079.78 571.153 1082.46 Q569.232 1085.13 569.232 1089.82 Q569.232 1094.52 571.153 1097.21 Q573.098 1099.87 576.477 1099.87 Q579.857 1099.87 581.778 1097.21 Q583.723 1094.52 583.723 1089.82 M569.232 1080.77 Q570.575 1078.46 572.612 1077.35 Q574.672 1076.21 577.519 1076.21 Q582.241 1076.21 585.181 1079.96 Q588.144 1083.71 588.144 1089.82 Q588.144 1095.94 585.181 1099.69 Q582.241 1103.44 577.519 1103.44 Q574.672 1103.44 572.612 1102.32 Q570.575 1101.19 569.232 1098.87 L569.232 1102.76 L564.95 1102.76 L564.95 1066.75 L569.232 1066.75 L569.232 1080.77 Z" fill="#000000" fill-rule="evenodd" fill-opacity="1" /><path clip-path="url(#clip380)" d="M595.204 1076.84 L599.463 1076.84 L599.463 1102.76 L595.204 1102.76 L595.204 1076.84 M595.204 1066.75 L599.463 1066.75 L599.463 1072.14 L595.204 1072.14 L595.204 1066.75 Z" fill="#000000" fill-rule="evenodd" fill-opacity="1" /><path clip-path="url(#clip380)" d="M625.436 1089.5 Q625.436 1084.87 623.514 1082.32 Q621.616 1079.78 618.167 1079.78 Q614.741 1079.78 612.82 1082.32 Q610.922 1084.87 610.922 1089.5 Q610.922 1094.11 612.82 1096.65 Q614.741 1099.2 618.167 1099.2 Q621.616 1099.2 623.514 1096.65 Q625.436 1094.11 625.436 1089.5 M629.695 1099.55 Q629.695 1106.17 626.755 1109.38 Q623.815 1112.62 617.75 1112.62 Q615.505 1112.62 613.514 1112.28 Q611.524 1111.95 609.649 1111.26 L609.649 1107.12 Q611.524 1108.13 613.352 1108.62 Q615.181 1109.11 617.079 1109.11 Q621.269 1109.11 623.352 1106.91 Q625.436 1104.73 625.436 1100.31 L625.436 1098.2 Q624.116 1100.5 622.056 1101.63 Q619.996 1102.76 617.125 1102.76 Q612.357 1102.76 609.44 1099.13 Q606.524 1095.5 606.524 1089.5 Q606.524 1083.48 609.44 1079.85 Q612.357 1076.21 617.125 1076.21 Q619.996 1076.21 622.056 1077.35 Q624.116 1078.48 625.436 1080.77 L625.436 1076.84 L629.695 1076.84 L629.695 1099.55 Z" fill="#000000" fill-rule="evenodd" fill-opacity="1" /><path clip-path="url(#clip380)" d="M646.037 1068.2 L649.972 1068.2 L637.936 1107.16 L634 1107.16 L646.037 1068.2 Z" fill="#000000" fill-rule="evenodd" fill-opacity="1" /><path clip-path="url(#clip380)" d="M654.44 1066.75 L658.699 1066.75 L658.699 1102.76 L654.44 1102.76 L654.44 1066.75 Z" fill="#000000" fill-rule="evenodd" fill-opacity="1" /><path clip-path="url(#clip380)" d="M677.658 1079.82 Q674.232 1079.82 672.241 1082.51 Q670.25 1085.17 670.25 1089.82 Q670.25 1094.48 672.218 1097.16 Q674.208 1099.82 677.658 1099.82 Q681.06 1099.82 683.051 1097.14 Q685.042 1094.45 685.042 1089.82 Q685.042 1085.22 683.051 1082.53 Q681.06 1079.82 677.658 1079.82 M677.658 1076.21 Q683.213 1076.21 686.384 1079.82 Q689.556 1083.44 689.556 1089.82 Q689.556 1096.19 686.384 1099.82 Q683.213 1103.44 677.658 1103.44 Q672.079 1103.44 668.908 1099.82 Q665.759 1096.19 665.759 1089.82 Q665.759 1083.44 668.908 1079.82 Q672.079 1076.21 677.658 1076.21 Z" fill="#000000" fill-rule="evenodd" fill-opacity="1" /><path clip-path="url(#clip380)" d="M718.167 1087.12 L718.167 1102.76 L713.907 1102.76 L713.907 1087.25 Q713.907 1083.57 712.472 1081.75 Q711.037 1079.92 708.167 1079.92 Q704.718 1079.92 702.727 1082.12 Q700.736 1084.31 700.736 1088.11 L700.736 1102.76 L696.454 1102.76 L696.454 1076.84 L700.736 1076.84 L700.736 1080.87 Q702.264 1078.53 704.324 1077.37 Q706.407 1076.21 709.116 1076.21 Q713.583 1076.21 715.875 1078.99 Q718.167 1081.75 718.167 1087.12 Z" fill="#000000" fill-rule="evenodd" fill-opacity="1" /><path clip-path="url(#clip380)" d="M743.722 1089.5 Q743.722 1084.87 741.801 1082.32 Q739.903 1079.78 736.453 1079.78 Q733.028 1079.78 731.106 1082.32 Q729.208 1084.87 729.208 1089.5 Q729.208 1094.11 731.106 1096.65 Q733.028 1099.2 736.453 1099.2 Q739.903 1099.2 741.801 1096.65 Q743.722 1094.11 743.722 1089.5 M747.981 1099.55 Q747.981 1106.17 745.041 1109.38 Q742.102 1112.62 736.037 1112.62 Q733.791 1112.62 731.801 1112.28 Q729.81 1111.95 727.935 1111.26 L727.935 1107.12 Q729.81 1108.13 731.639 1108.62 Q733.467 1109.11 735.366 1109.11 Q739.555 1109.11 741.639 1106.91 Q743.722 1104.73 743.722 1100.31 L743.722 1098.2 Q742.403 1100.5 740.342 1101.63 Q738.282 1102.76 735.412 1102.76 Q730.643 1102.76 727.727 1099.13 Q724.81 1095.5 724.81 1089.5 Q724.81 1083.48 727.727 1079.85 Q730.643 1076.21 735.412 1076.21 Q738.282 1076.21 740.342 1077.35 Q742.403 1078.48 743.722 1080.77 L743.722 1076.84 L747.981 1076.84 L747.981 1099.55 Z" fill="#000000" fill-rule="evenodd" fill-opacity="1" /><path clip-path="url(#clip380)" d="M550.32 1144.37 L550.32 1128.68 L554.579 1128.68 L554.579 1144.21 Q554.579 1147.89 556.015 1149.74 Q557.45 1151.57 560.32 1151.57 Q563.769 1151.57 565.76 1149.37 Q567.774 1147.17 567.774 1143.38 L567.774 1128.68 L572.033 1128.68 L572.033 1154.6 L567.774 1154.6 L567.774 1150.62 Q566.223 1152.98 564.163 1154.14 Q562.126 1155.28 559.417 1155.28 Q554.95 1155.28 552.635 1152.5 Q550.32 1149.72 550.32 1144.37 M561.038 1128.05 L561.038 1128.05 Z" fill="#000000" fill-rule="evenodd" fill-opacity="1" /><path clip-path="url(#clip380)" d="M602.357 1138.96 L602.357 1154.6 L598.098 1154.6 L598.098 1139.09 Q598.098 1135.41 596.663 1133.59 Q595.227 1131.76 592.357 1131.76 Q588.908 1131.76 586.917 1133.96 Q584.927 1136.15 584.927 1139.95 L584.927 1154.6 L580.644 1154.6 L580.644 1128.68 L584.927 1128.68 L584.927 1132.71 Q586.454 1130.37 588.514 1129.21 Q590.598 1128.05 593.306 1128.05 Q597.774 1128.05 600.065 1130.83 Q602.357 1133.59 602.357 1138.96 Z" fill="#000000" fill-rule="evenodd" fill-opacity="1" /><path clip-path="url(#clip380)" d="M610.852 1128.68 L615.112 1128.68 L615.112 1154.6 L610.852 1154.6 L610.852 1128.68 M610.852 1118.59 L615.112 1118.59 L615.112 1123.98 L610.852 1123.98 L610.852 1118.59 Z" fill="#000000" fill-rule="evenodd" fill-opacity="1" /><path clip-path="url(#clip380)" d="M644.209 1133.65 Q645.806 1130.78 648.028 1129.42 Q650.25 1128.05 653.259 1128.05 Q657.31 1128.05 659.509 1130.9 Q661.709 1133.72 661.709 1138.96 L661.709 1154.6 L657.426 1154.6 L657.426 1139.09 Q657.426 1135.37 656.107 1133.56 Q654.787 1131.76 652.079 1131.76 Q648.769 1131.76 646.847 1133.96 Q644.926 1136.15 644.926 1139.95 L644.926 1154.6 L640.644 1154.6 L640.644 1139.09 Q640.644 1135.34 639.324 1133.56 Q638.005 1131.76 635.25 1131.76 Q631.986 1131.76 630.065 1133.98 Q628.144 1136.18 628.144 1139.95 L628.144 1154.6 L623.862 1154.6 L623.862 1128.68 L628.144 1128.68 L628.144 1132.71 Q629.602 1130.32 631.639 1129.19 Q633.676 1128.05 636.477 1128.05 Q639.301 1128.05 641.269 1129.49 Q643.26 1130.92 644.209 1133.65 Z" fill="#000000" fill-rule="evenodd" fill-opacity="1" /><path clip-path="url(#clip380)" d="M680.25 1131.66 Q676.824 1131.66 674.833 1134.35 Q672.843 1137.01 672.843 1141.66 Q672.843 1146.32 674.81 1149 Q676.801 1151.66 680.25 1151.66 Q683.653 1151.66 685.644 1148.98 Q687.634 1146.29 687.634 1141.66 Q687.634 1137.06 685.644 1134.37 Q683.653 1131.66 680.25 1131.66 M680.25 1128.05 Q685.806 1128.05 688.977 1131.66 Q692.148 1135.28 692.148 1141.66 Q692.148 1148.03 688.977 1151.66 Q685.806 1155.28 680.25 1155.28 Q674.671 1155.28 671.5 1151.66 Q668.352 1148.03 668.352 1141.66 Q668.352 1135.28 671.5 1131.66 Q674.671 1128.05 680.25 1128.05 Z" fill="#000000" fill-rule="evenodd" fill-opacity="1" /><path clip-path="url(#clip380)" d="M716.268 1132.61 L716.268 1118.59 L720.528 1118.59 L720.528 1154.6 L716.268 1154.6 L716.268 1150.71 Q714.926 1153.03 712.866 1154.16 Q710.829 1155.28 707.958 1155.28 Q703.259 1155.28 700.296 1151.53 Q697.356 1147.78 697.356 1141.66 Q697.356 1135.55 700.296 1131.8 Q703.259 1128.05 707.958 1128.05 Q710.829 1128.05 712.866 1129.19 Q714.926 1130.3 716.268 1132.61 M701.755 1141.66 Q701.755 1146.36 703.676 1149.05 Q705.62 1151.71 709 1151.71 Q712.38 1151.71 714.324 1149.05 Q716.268 1146.36 716.268 1141.66 Q716.268 1136.97 714.324 1134.3 Q712.38 1131.62 709 1131.62 Q705.62 1131.62 703.676 1134.3 Q701.755 1136.97 701.755 1141.66 Z" fill="#000000" fill-rule="evenodd" fill-opacity="1" /><path clip-path="url(#clip380)" d="M741.083 1141.57 Q735.921 1141.57 733.93 1142.75 Q731.94 1143.93 731.94 1146.78 Q731.94 1149.05 733.421 1150.39 Q734.926 1151.71 737.495 1151.71 Q741.037 1151.71 743.166 1149.21 Q745.319 1146.69 745.319 1142.52 L745.319 1141.57 L741.083 1141.57 M749.578 1139.81 L749.578 1154.6 L745.319 1154.6 L745.319 1150.67 Q743.861 1153.03 741.685 1154.16 Q739.509 1155.28 736.361 1155.28 Q732.379 1155.28 730.018 1153.05 Q727.68 1150.81 727.68 1147.06 Q727.68 1142.68 730.597 1140.46 Q733.537 1138.24 739.347 1138.24 L745.319 1138.24 L745.319 1137.82 Q745.319 1134.88 743.375 1133.28 Q741.453 1131.66 737.958 1131.66 Q735.736 1131.66 733.629 1132.2 Q731.523 1132.73 729.579 1133.79 L729.579 1129.86 Q731.916 1128.96 734.116 1128.52 Q736.315 1128.05 738.398 1128.05 Q744.023 1128.05 746.801 1130.97 Q749.578 1133.89 749.578 1139.81 Z" fill="#000000" fill-rule="evenodd" fill-opacity="1" /><path clip-path="url(#clip380)" d="M758.352 1118.59 L762.611 1118.59 L762.611 1154.6 L758.352 1154.6 L758.352 1118.59 Z" fill="#000000" fill-rule="evenodd" fill-opacity="1" /><path clip-path="url(#clip380)" d="M976.853 1088.74 L976.853 1090.82 L957.27 1090.82 Q957.548 1095.22 959.909 1097.53 Q962.293 1099.82 966.529 1099.82 Q968.983 1099.82 971.275 1099.22 Q973.589 1098.62 975.858 1097.42 L975.858 1101.44 Q973.566 1102.42 971.159 1102.93 Q968.751 1103.44 966.275 1103.44 Q960.071 1103.44 956.437 1099.82 Q952.826 1096.21 952.826 1090.06 Q952.826 1083.69 956.252 1079.96 Q959.701 1076.21 965.534 1076.21 Q970.765 1076.21 973.798 1079.59 Q976.853 1082.95 976.853 1088.74 M972.594 1087.49 Q972.548 1083.99 970.626 1081.91 Q968.728 1079.82 965.58 1079.82 Q962.015 1079.82 959.863 1081.84 Q957.733 1083.85 957.409 1087.51 L972.594 1087.49 Z" fill="#000000" fill-rule="evenodd" fill-opacity="1" /><path clip-path="url(#clip380)" d="M1004.56 1076.84 L995.187 1089.45 L1005.05 1102.76 L1000.02 1102.76 L992.478 1092.58 L984.932 1102.76 L979.909 1102.76 L989.978 1089.2 L980.765 1076.84 L985.788 1076.84 L992.663 1086.07 L999.538 1076.84 L1004.56 1076.84 Z" fill="#000000" fill-rule="evenodd" fill-opacity="1" /><path clip-path="url(#clip380)" d="M1015.19 1098.87 L1015.19 1112.62 L1010.9 1112.62 L1010.9 1076.84 L1015.19 1076.84 L1015.19 1080.77 Q1016.53 1078.46 1018.57 1077.35 Q1020.63 1076.21 1023.47 1076.21 Q1028.2 1076.21 1031.14 1079.96 Q1034.1 1083.71 1034.1 1089.82 Q1034.1 1095.94 1031.14 1099.69 Q1028.2 1103.44 1023.47 1103.44 Q1020.63 1103.44 1018.57 1102.32 Q1016.53 1101.19 1015.19 1098.87 M1029.68 1089.82 Q1029.68 1085.13 1027.73 1082.46 Q1025.81 1079.78 1022.43 1079.78 Q1019.05 1079.78 1017.11 1082.46 Q1015.19 1085.13 1015.19 1089.82 Q1015.19 1094.52 1017.11 1097.21 Q1019.05 1099.87 1022.43 1099.87 Q1025.81 1099.87 1027.73 1097.21 Q1029.68 1094.52 1029.68 1089.82 Z" fill="#000000" fill-rule="evenodd" fill-opacity="1" /><path clip-path="url(#clip380)" d="M1063.33 1088.74 L1063.33 1090.82 L1043.75 1090.82 Q1044.03 1095.22 1046.39 1097.53 Q1048.77 1099.82 1053.01 1099.82 Q1055.46 1099.82 1057.76 1099.22 Q1060.07 1098.62 1062.34 1097.42 L1062.34 1101.44 Q1060.05 1102.42 1057.64 1102.93 Q1055.23 1103.44 1052.76 1103.44 Q1046.55 1103.44 1042.92 1099.82 Q1039.31 1096.21 1039.31 1090.06 Q1039.31 1083.69 1042.73 1079.96 Q1046.18 1076.21 1052.01 1076.21 Q1057.25 1076.21 1060.28 1079.59 Q1063.33 1082.95 1063.33 1088.74 M1059.08 1087.49 Q1059.03 1083.99 1057.11 1081.91 Q1055.21 1079.82 1052.06 1079.82 Q1048.5 1079.82 1046.34 1081.84 Q1044.21 1083.85 1043.89 1087.51 L1059.08 1087.49 Z" fill="#000000" fill-rule="evenodd" fill-opacity="1" /><path clip-path="url(#clip380)" d="M1091.88 1087.12 L1091.88 1102.76 L1087.62 1102.76 L1087.62 1087.25 Q1087.62 1083.57 1086.18 1081.75 Q1084.75 1079.92 1081.88 1079.92 Q1078.43 1079.92 1076.44 1082.12 Q1074.45 1084.31 1074.45 1088.11 L1074.45 1102.76 L1070.16 1102.76 L1070.16 1076.84 L1074.45 1076.84 L1074.45 1080.87 Q1075.97 1078.53 1078.03 1077.37 Q1080.12 1076.21 1082.82 1076.21 Q1087.29 1076.21 1089.58 1078.99 Q1091.88 1081.75 1091.88 1087.12 Z" fill="#000000" fill-rule="evenodd" fill-opacity="1" /><path clip-path="url(#clip380)" d="M1116.9 1077.6 L1116.9 1081.63 Q1115.09 1080.7 1113.15 1080.24 Q1111.2 1079.78 1109.12 1079.78 Q1105.95 1079.78 1104.35 1080.75 Q1102.78 1081.72 1102.78 1083.67 Q1102.78 1085.15 1103.91 1086 Q1105.05 1086.84 1108.47 1087.6 L1109.93 1087.93 Q1114.47 1088.9 1116.37 1090.68 Q1118.29 1092.44 1118.29 1095.61 Q1118.29 1099.22 1115.42 1101.33 Q1112.57 1103.44 1107.57 1103.44 Q1105.49 1103.44 1103.22 1103.02 Q1100.97 1102.62 1098.47 1101.81 L1098.47 1097.42 Q1100.83 1098.64 1103.13 1099.27 Q1105.42 1099.87 1107.66 1099.87 Q1110.67 1099.87 1112.29 1098.85 Q1113.91 1097.81 1113.91 1095.94 Q1113.91 1094.2 1112.73 1093.27 Q1111.57 1092.35 1107.62 1091.49 L1106.13 1091.14 Q1102.18 1090.31 1100.42 1088.6 Q1098.66 1086.86 1098.66 1083.85 Q1098.66 1080.19 1101.25 1078.2 Q1103.84 1076.21 1108.61 1076.21 Q1110.97 1076.21 1113.06 1076.56 Q1115.14 1076.91 1116.9 1077.6 Z" fill="#000000" fill-rule="evenodd" fill-opacity="1" /><path clip-path="url(#clip380)" d="M1125.07 1076.84 L1129.33 1076.84 L1129.33 1102.76 L1125.07 1102.76 L1125.07 1076.84 M1125.07 1066.75 L1129.33 1066.75 L1129.33 1072.14 L1125.07 1072.14 L1125.07 1066.75 Z" fill="#000000" fill-rule="evenodd" fill-opacity="1" /><path clip-path="url(#clip380)" d="M1135.19 1076.84 L1139.7 1076.84 L1147.8 1098.6 L1155.9 1076.84 L1160.42 1076.84 L1150.69 1102.76 L1144.91 1102.76 L1135.19 1076.84 Z" fill="#000000" fill-rule="evenodd" fill-opacity="1" /><path clip-path="url(#clip380)" d="M1188.47 1088.74 L1188.47 1090.82 L1168.89 1090.82 Q1169.17 1095.22 1171.53 1097.53 Q1173.91 1099.82 1178.15 1099.82 Q1180.6 1099.82 1182.89 1099.22 Q1185.21 1098.62 1187.48 1097.42 L1187.48 1101.44 Q1185.19 1102.42 1182.78 1102.93 Q1180.37 1103.44 1177.89 1103.44 Q1171.69 1103.44 1168.06 1099.82 Q1164.44 1096.21 1164.44 1090.06 Q1164.44 1083.69 1167.87 1079.96 Q1171.32 1076.21 1177.15 1076.21 Q1182.38 1076.21 1185.42 1079.59 Q1188.47 1082.95 1188.47 1088.74 M1184.21 1087.49 Q1184.17 1083.99 1182.25 1081.91 Q1180.35 1079.82 1177.2 1079.82 Q1173.63 1079.82 1171.48 1081.84 Q1169.35 1083.85 1169.03 1087.51 L1184.21 1087.49 Z" fill="#000000" fill-rule="evenodd" fill-opacity="1" /><path clip-path="url(#clip380)" d="M401.068 1215.28 Q393.97 1215.28 391.233 1216.9 Q388.496 1218.52 388.496 1222.44 Q388.496 1225.56 390.533 1227.4 Q392.601 1229.22 396.134 1229.22 Q401.004 1229.22 403.932 1225.78 Q406.892 1222.31 406.892 1216.58 L406.892 1215.28 L401.068 1215.28 M412.749 1212.86 L412.749 1233.2 L406.892 1233.2 L406.892 1227.78 Q404.887 1231.03 401.895 1232.59 Q398.904 1234.12 394.575 1234.12 Q389.1 1234.12 385.854 1231.06 Q382.639 1227.98 382.639 1222.82 Q382.639 1216.8 386.65 1213.75 Q390.692 1210.69 398.681 1210.69 L406.892 1210.69 L406.892 1210.12 Q406.892 1206.08 404.219 1203.88 Q401.577 1201.65 396.771 1201.65 Q393.715 1201.65 390.819 1202.39 Q387.923 1203.12 385.249 1204.58 L385.249 1199.17 Q388.464 1197.93 391.487 1197.33 Q394.511 1196.69 397.376 1196.69 Q405.11 1196.69 408.93 1200.7 Q412.749 1204.71 412.749 1212.86 Z" fill="#000000" fill-rule="evenodd" fill-opacity="1" /><path clip-path="url(#clip380)" d="M448.27 1202.96 L448.27 1183.67 L454.126 1183.67 L454.126 1233.2 L448.27 1233.2 L448.27 1227.85 Q446.424 1231.03 443.591 1232.59 Q440.79 1234.12 436.843 1234.12 Q430.382 1234.12 426.308 1228.96 Q422.266 1223.81 422.266 1215.4 Q422.266 1207 426.308 1201.84 Q430.382 1196.69 436.843 1196.69 Q440.79 1196.69 443.591 1198.25 Q446.424 1199.78 448.27 1202.96 M428.313 1215.4 Q428.313 1221.86 430.955 1225.56 Q433.628 1229.22 438.275 1229.22 Q442.922 1229.22 445.596 1225.56 Q448.27 1221.86 448.27 1215.4 Q448.27 1208.94 445.596 1205.28 Q442.922 1201.59 438.275 1201.59 Q433.628 1201.59 430.955 1205.28 Q428.313 1208.94 428.313 1215.4 Z" fill="#000000" fill-rule="evenodd" fill-opacity="1" /><path clip-path="url(#clip380)" d="M466.189 1197.55 L472.045 1197.55 L472.045 1233.83 Q472.045 1240.64 469.436 1243.7 Q466.857 1246.75 461.096 1246.75 L458.868 1246.75 L458.868 1241.79 L460.428 1241.79 Q463.77 1241.79 464.98 1240.23 Q466.189 1238.7 466.189 1233.83 L466.189 1197.55 M466.189 1183.67 L472.045 1183.67 L472.045 1191.09 L466.189 1191.09 L466.189 1183.67 Z" fill="#000000" fill-rule="evenodd" fill-opacity="1" /><path clip-path="url(#clip380)" d="M514.791 1213.91 L514.791 1216.77 L487.864 1216.77 Q488.246 1222.82 491.493 1226 Q494.771 1229.15 500.596 1229.15 Q503.97 1229.15 507.121 1228.33 Q510.303 1227.5 513.423 1225.84 L513.423 1231.38 Q510.272 1232.72 506.961 1233.42 Q503.651 1234.12 500.246 1234.12 Q491.716 1234.12 486.718 1229.15 Q481.753 1224.19 481.753 1215.72 Q481.753 1206.97 486.464 1201.84 Q491.206 1196.69 499.227 1196.69 Q506.42 1196.69 510.59 1201.34 Q514.791 1205.95 514.791 1213.91 M508.935 1212.19 Q508.871 1207.38 506.229 1204.52 Q503.619 1201.65 499.291 1201.65 Q494.389 1201.65 491.429 1204.42 Q488.501 1207.19 488.055 1212.22 L508.935 1212.19 Z" fill="#000000" fill-rule="evenodd" fill-opacity="1" /><path clip-path="url(#clip380)" d="M550.057 1198.92 L550.057 1204.39 Q547.575 1203.02 545.06 1202.35 Q542.578 1201.65 540.031 1201.65 Q534.334 1201.65 531.183 1205.28 Q528.032 1208.88 528.032 1215.4 Q528.032 1221.93 531.183 1225.56 Q534.334 1229.15 540.031 1229.15 Q542.578 1229.15 545.06 1228.49 Q547.575 1227.78 550.057 1226.42 L550.057 1231.83 Q547.606 1232.97 544.965 1233.55 Q542.355 1234.12 539.395 1234.12 Q531.342 1234.12 526.6 1229.06 Q521.857 1224 521.857 1215.4 Q521.857 1206.68 526.631 1201.69 Q531.438 1196.69 539.777 1196.69 Q542.482 1196.69 545.06 1197.26 Q547.638 1197.8 550.057 1198.92 Z" fill="#000000" fill-rule="evenodd" fill-opacity="1" /><path clip-path="url(#clip380)" d="M566.035 1187.43 L566.035 1197.55 L578.098 1197.55 L578.098 1202.1 L566.035 1202.1 L566.035 1221.45 Q566.035 1225.81 567.213 1227.05 Q568.422 1228.29 572.083 1228.29 L578.098 1228.29 L578.098 1233.2 L572.083 1233.2 Q565.303 1233.2 562.725 1230.68 Q560.147 1228.14 560.147 1221.45 L560.147 1202.1 L555.85 1202.1 L555.85 1197.55 L560.147 1197.55 L560.147 1187.43 L566.035 1187.43 Z" fill="#000000" fill-rule="evenodd" fill-opacity="1" /><path clip-path="url(#clip380)" d="M585.801 1197.55 L591.657 1197.55 L591.657 1233.2 L585.801 1233.2 L585.801 1197.55 M585.801 1183.67 L591.657 1183.67 L591.657 1191.09 L585.801 1191.09 L585.801 1183.67 Z" fill="#000000" fill-rule="evenodd" fill-opacity="1" /><path clip-path="url(#clip380)" d="M599.71 1197.55 L605.916 1197.55 L617.056 1227.47 L628.196 1197.55 L634.403 1197.55 L621.035 1233.2 L613.078 1233.2 L599.71 1197.55 Z" fill="#000000" fill-rule="evenodd" fill-opacity="1" /><path clip-path="url(#clip380)" d="M672.979 1213.91 L672.979 1216.77 L646.052 1216.77 Q646.434 1222.82 649.681 1226 Q652.959 1229.15 658.783 1229.15 Q662.157 1229.15 665.308 1228.33 Q668.491 1227.5 671.61 1225.84 L671.61 1231.38 Q668.459 1232.72 665.149 1233.42 Q661.839 1234.12 658.433 1234.12 Q649.903 1234.12 644.906 1229.15 Q639.941 1224.19 639.941 1215.72 Q639.941 1206.97 644.652 1201.84 Q649.394 1196.69 657.415 1196.69 Q664.608 1196.69 668.778 1201.34 Q672.979 1205.95 672.979 1213.91 M667.123 1212.19 Q667.059 1207.38 664.417 1204.52 Q661.807 1201.65 657.479 1201.65 Q652.577 1201.65 649.617 1204.42 Q646.689 1207.19 646.243 1212.22 L667.123 1212.19 Z" fill="#000000" fill-rule="evenodd" fill-opacity="1" /><path clip-path="url(#clip380)" d="M727.151 1192.33 L727.151 1210.06 L744.88 1210.06 L744.88 1215.47 L727.151 1215.47 L727.151 1233.2 L721.804 1233.2 L721.804 1215.47 L704.075 1215.47 L704.075 1210.06 L721.804 1210.06 L721.804 1192.33 L727.151 1192.33 Z" fill="#000000" fill-rule="evenodd" fill-opacity="1" /><path clip-path="url(#clip380)" d="M804.304 1198.92 L804.304 1204.39 Q801.821 1203.02 799.306 1202.35 Q796.824 1201.65 794.278 1201.65 Q788.58 1201.65 785.429 1205.28 Q782.278 1208.88 782.278 1215.4 Q782.278 1221.93 785.429 1225.56 Q788.58 1229.15 794.278 1229.15 Q796.824 1229.15 799.306 1228.49 Q801.821 1227.78 804.304 1226.42 L804.304 1231.83 Q801.853 1232.97 799.211 1233.55 Q796.601 1234.12 793.641 1234.12 Q785.588 1234.12 780.846 1229.06 Q776.103 1224 776.103 1215.4 Q776.103 1206.68 780.878 1201.69 Q785.684 1196.69 794.023 1196.69 Q796.728 1196.69 799.306 1197.26 Q801.885 1197.8 804.304 1198.92 Z" fill="#000000" fill-rule="evenodd" fill-opacity="1" /><path clip-path="url(#clip380)" d="M828.302 1201.65 Q823.592 1201.65 820.854 1205.35 Q818.117 1209.01 818.117 1215.4 Q818.117 1221.8 820.823 1225.49 Q823.56 1229.15 828.302 1229.15 Q832.981 1229.15 835.718 1225.46 Q838.456 1221.77 838.456 1215.4 Q838.456 1209.07 835.718 1205.38 Q832.981 1201.65 828.302 1201.65 M828.302 1196.69 Q835.941 1196.69 840.302 1201.65 Q844.662 1206.62 844.662 1215.4 Q844.662 1224.16 840.302 1229.15 Q835.941 1234.12 828.302 1234.12 Q820.632 1234.12 816.271 1229.15 Q811.942 1224.16 811.942 1215.4 Q811.942 1206.62 816.271 1201.65 Q820.632 1196.69 828.302 1196.69 Z" fill="#000000" fill-rule="evenodd" fill-opacity="1" /><path clip-path="url(#clip380)" d="M884.002 1211.68 L884.002 1233.2 L878.146 1233.2 L878.146 1211.87 Q878.146 1206.81 876.172 1204.3 Q874.199 1201.78 870.252 1201.78 Q865.51 1201.78 862.773 1204.8 Q860.035 1207.83 860.035 1213.05 L860.035 1233.2 L854.147 1233.2 L854.147 1197.55 L860.035 1197.55 L860.035 1203.09 Q862.136 1199.87 864.969 1198.28 Q867.833 1196.69 871.557 1196.69 Q877.7 1196.69 880.851 1200.51 Q884.002 1204.3 884.002 1211.68 Z" fill="#000000" fill-rule="evenodd" fill-opacity="1" /><path clip-path="url(#clip380)" d="M919.141 1202.96 L919.141 1183.67 L924.997 1183.67 L924.997 1233.2 L919.141 1233.2 L919.141 1227.85 Q917.295 1231.03 914.462 1232.59 Q911.661 1234.12 907.714 1234.12 Q901.253 1234.12 897.179 1228.96 Q893.137 1223.81 893.137 1215.4 Q893.137 1207 897.179 1201.84 Q901.253 1196.69 907.714 1196.69 Q911.661 1196.69 914.462 1198.25 Q917.295 1199.78 919.141 1202.96 M899.184 1215.4 Q899.184 1221.86 901.826 1225.56 Q904.5 1229.22 909.147 1229.22 Q913.794 1229.22 916.467 1225.56 Q919.141 1221.86 919.141 1215.4 Q919.141 1208.94 916.467 1205.28 Q913.794 1201.59 909.147 1201.59 Q904.5 1201.59 901.826 1205.28 Q899.184 1208.94 899.184 1215.4 Z" fill="#000000" fill-rule="evenodd" fill-opacity="1" /><path clip-path="url(#clip380)" d="M937.06 1197.55 L942.917 1197.55 L942.917 1233.2 L937.06 1233.2 L937.06 1197.55 M937.06 1183.67 L942.917 1183.67 L942.917 1191.09 L937.06 1191.09 L937.06 1183.67 Z" fill="#000000" fill-rule="evenodd" fill-opacity="1" /><path clip-path="url(#clip380)" d="M960.964 1187.43 L960.964 1197.55 L973.027 1197.55 L973.027 1202.1 L960.964 1202.1 L960.964 1221.45 Q960.964 1225.81 962.141 1227.05 Q963.351 1228.29 967.011 1228.29 L973.027 1228.29 L973.027 1233.2 L967.011 1233.2 Q960.232 1233.2 957.653 1230.68 Q955.075 1228.14 955.075 1221.45 L955.075 1202.1 L950.778 1202.1 L950.778 1197.55 L955.075 1197.55 L955.075 1187.43 L960.964 1187.43 Z" fill="#000000" fill-rule="evenodd" fill-opacity="1" /><path clip-path="url(#clip380)" d="M980.729 1197.55 L986.586 1197.55 L986.586 1233.2 L980.729 1233.2 L980.729 1197.55 M980.729 1183.67 L986.586 1183.67 L986.586 1191.09 L980.729 1191.09 L980.729 1183.67 Z" fill="#000000" fill-rule="evenodd" fill-opacity="1" /><path clip-path="url(#clip380)" d="M1012.65 1201.65 Q1007.94 1201.65 1005.21 1205.35 Q1002.47 1209.01 1002.47 1215.4 Q1002.47 1221.8 1005.17 1225.49 Q1007.91 1229.15 1012.65 1229.15 Q1017.33 1229.15 1020.07 1225.46 Q1022.81 1221.77 1022.81 1215.4 Q1022.81 1209.07 1020.07 1205.38 Q1017.33 1201.65 1012.65 1201.65 M1012.65 1196.69 Q1020.29 1196.69 1024.65 1201.65 Q1029.01 1206.62 1029.01 1215.4 Q1029.01 1224.16 1024.65 1229.15 Q1020.29 1234.12 1012.65 1234.12 Q1004.98 1234.12 1000.62 1229.15 Q996.293 1224.16 996.293 1215.4 Q996.293 1206.62 1000.62 1201.65 Q1004.98 1196.69 1012.65 1196.69 Z" fill="#000000" fill-rule="evenodd" fill-opacity="1" /><path clip-path="url(#clip380)" d="M1068.35 1211.68 L1068.35 1233.2 L1062.5 1233.2 L1062.5 1211.87 Q1062.5 1206.81 1060.52 1204.3 Q1058.55 1201.78 1054.6 1201.78 Q1049.86 1201.78 1047.12 1204.8 Q1044.39 1207.83 1044.39 1213.05 L1044.39 1233.2 L1038.5 1233.2 L1038.5 1197.55 L1044.39 1197.55 L1044.39 1203.09 Q1046.49 1199.87 1049.32 1198.28 Q1052.18 1196.69 1055.91 1196.69 Q1062.05 1196.69 1065.2 1200.51 Q1068.35 1204.3 1068.35 1211.68 Z" fill="#000000" fill-rule="evenodd" fill-opacity="1" /><polyline clip-path="url(#clip382)" style="stroke:#000000; stroke-linecap:butt; stroke-linejoin:round; stroke-width:2; stroke-opacity:0.1; fill:none" points="
  251.046,1020.15 1199.95,1020.15 
  "/>
<polyline clip-path="url(#clip382)" style="stroke:#000000; stroke-linecap:butt; stroke-linejoin:round; stroke-width:2; stroke-opacity:0.1; fill:none" points="
  251.046,784.011 1199.95,784.011 
  "/>
<polyline clip-path="url(#clip382)" style="stroke:#000000; stroke-linecap:butt; stroke-linejoin:round; stroke-width:2; stroke-opacity:0.1; fill:none" points="
  251.046,547.868 1199.95,547.868 
  "/>
<polyline clip-path="url(#clip382)" style="stroke:#000000; stroke-linecap:butt; stroke-linejoin:round; stroke-width:2; stroke-opacity:0.1; fill:none" points="
  251.046,311.725 1199.95,311.725 
  "/>
<polyline clip-path="url(#clip382)" style="stroke:#000000; stroke-linecap:butt; stroke-linejoin:round; stroke-width:2; stroke-opacity:0.1; fill:none" points="
  251.046,75.5813 1199.95,75.5813 
  "/>
<polyline clip-path="url(#clip380)" style="stroke:#000000; stroke-linecap:butt; stroke-linejoin:round; stroke-width:4; stroke-opacity:1; fill:none" points="
  251.046,1048.49 251.046,47.2441 
  "/>
<polyline clip-path="url(#clip380)" style="stroke:#000000; stroke-linecap:butt; stroke-linejoin:round; stroke-width:4; stroke-opacity:1; fill:none" points="
  251.046,1020.15 262.433,1020.15 
  "/>
<polyline clip-path="url(#clip380)" style="stroke:#000000; stroke-linecap:butt; stroke-linejoin:round; stroke-width:4; stroke-opacity:1; fill:none" points="
  251.046,784.011 262.433,784.011 
  "/>
<polyline clip-path="url(#clip380)" style="stroke:#000000; stroke-linecap:butt; stroke-linejoin:round; stroke-width:4; stroke-opacity:1; fill:none" points="
  251.046,547.868 262.433,547.868 
  "/>
<polyline clip-path="url(#clip380)" style="stroke:#000000; stroke-linecap:butt; stroke-linejoin:round; stroke-width:4; stroke-opacity:1; fill:none" points="
  251.046,311.725 262.433,311.725 
  "/>
<polyline clip-path="url(#clip380)" style="stroke:#000000; stroke-linecap:butt; stroke-linejoin:round; stroke-width:4; stroke-opacity:1; fill:none" points="
  251.046,75.5813 262.433,75.5813 
  "/>
<path clip-path="url(#clip380)" d="M139.709 1005.95 Q136.097 1005.95 134.269 1009.52 Q132.463 1013.06 132.463 1020.19 Q132.463 1027.3 134.269 1030.86 Q136.097 1034.4 139.709 1034.4 Q143.343 1034.4 145.148 1030.86 Q146.977 1027.3 146.977 1020.19 Q146.977 1013.06 145.148 1009.52 Q143.343 1005.95 139.709 1005.95 M139.709 1002.25 Q145.519 1002.25 148.574 1006.86 Q151.653 1011.44 151.653 1020.19 Q151.653 1028.92 148.574 1033.52 Q145.519 1038.11 139.709 1038.11 Q133.898 1038.11 130.82 1033.52 Q127.764 1028.92 127.764 1020.19 Q127.764 1011.44 130.82 1006.86 Q133.898 1002.25 139.709 1002.25 Z" fill="#000000" fill-rule="evenodd" fill-opacity="1" /><path clip-path="url(#clip380)" d="M159.87 1031.56 L164.755 1031.56 L164.755 1037.43 L159.87 1037.43 L159.87 1031.56 Z" fill="#000000" fill-rule="evenodd" fill-opacity="1" /><path clip-path="url(#clip380)" d="M184.94 1005.95 Q181.329 1005.95 179.5 1009.52 Q177.694 1013.06 177.694 1020.19 Q177.694 1027.3 179.5 1030.86 Q181.329 1034.4 184.94 1034.4 Q188.574 1034.4 190.38 1030.86 Q192.208 1027.3 192.208 1020.19 Q192.208 1013.06 190.38 1009.52 Q188.574 1005.95 184.94 1005.95 M184.94 1002.25 Q190.75 1002.25 193.805 1006.86 Q196.884 1011.44 196.884 1020.19 Q196.884 1028.92 193.805 1033.52 Q190.75 1038.11 184.94 1038.11 Q179.13 1038.11 176.051 1033.52 Q172.995 1028.92 172.995 1020.19 Q172.995 1011.44 176.051 1006.86 Q179.13 1002.25 184.94 1002.25 Z" fill="#000000" fill-rule="evenodd" fill-opacity="1" /><path clip-path="url(#clip380)" d="M215.102 1005.95 Q211.491 1005.95 209.662 1009.52 Q207.856 1013.06 207.856 1020.19 Q207.856 1027.3 209.662 1030.86 Q211.491 1034.4 215.102 1034.4 Q218.736 1034.4 220.541 1030.86 Q222.37 1027.3 222.37 1020.19 Q222.37 1013.06 220.541 1009.52 Q218.736 1005.95 215.102 1005.95 M215.102 1002.25 Q220.912 1002.25 223.967 1006.86 Q227.046 1011.44 227.046 1020.19 Q227.046 1028.92 223.967 1033.52 Q220.912 1038.11 215.102 1038.11 Q209.291 1038.11 206.213 1033.52 Q203.157 1028.92 203.157 1020.19 Q203.157 1011.44 206.213 1006.86 Q209.291 1002.25 215.102 1002.25 Z" fill="#000000" fill-rule="evenodd" fill-opacity="1" /><path clip-path="url(#clip380)" d="M140.704 769.81 Q137.093 769.81 135.264 773.375 Q133.459 776.916 133.459 784.046 Q133.459 791.152 135.264 794.717 Q137.093 798.259 140.704 798.259 Q144.338 798.259 146.144 794.717 Q147.972 791.152 147.972 784.046 Q147.972 776.916 146.144 773.375 Q144.338 769.81 140.704 769.81 M140.704 766.106 Q146.514 766.106 149.57 770.713 Q152.648 775.296 152.648 784.046 Q152.648 792.773 149.57 797.379 Q146.514 801.963 140.704 801.963 Q134.894 801.963 131.815 797.379 Q128.76 792.773 128.76 784.046 Q128.76 775.296 131.815 770.713 Q134.894 766.106 140.704 766.106 Z" fill="#000000" fill-rule="evenodd" fill-opacity="1" /><path clip-path="url(#clip380)" d="M160.866 795.412 L165.75 795.412 L165.75 801.291 L160.866 801.291 L160.866 795.412 Z" fill="#000000" fill-rule="evenodd" fill-opacity="1" /><path clip-path="url(#clip380)" d="M179.963 797.356 L196.282 797.356 L196.282 801.291 L174.338 801.291 L174.338 797.356 Q177 794.602 181.583 789.972 Q186.19 785.319 187.37 783.977 Q189.616 781.453 190.495 779.717 Q191.398 777.958 191.398 776.268 Q191.398 773.514 189.454 771.778 Q187.532 770.041 184.431 770.041 Q182.231 770.041 179.778 770.805 Q177.347 771.569 174.569 773.12 L174.569 768.398 Q177.394 767.264 179.847 766.685 Q182.301 766.106 184.338 766.106 Q189.708 766.106 192.903 768.791 Q196.097 771.477 196.097 775.967 Q196.097 778.097 195.287 780.018 Q194.5 781.916 192.393 784.509 Q191.815 785.18 188.713 788.398 Q185.611 791.592 179.963 797.356 Z" fill="#000000" fill-rule="evenodd" fill-opacity="1" /><path clip-path="url(#clip380)" d="M206.143 766.731 L224.5 766.731 L224.5 770.666 L210.426 770.666 L210.426 779.139 Q211.444 778.791 212.463 778.629 Q213.481 778.444 214.5 778.444 Q220.287 778.444 223.666 781.615 Q227.046 784.787 227.046 790.203 Q227.046 795.782 223.574 798.884 Q220.102 801.963 213.782 801.963 Q211.606 801.963 209.338 801.592 Q207.092 801.222 204.685 800.481 L204.685 795.782 Q206.768 796.916 208.991 797.472 Q211.213 798.027 213.69 798.027 Q217.694 798.027 220.032 795.921 Q222.37 793.814 222.37 790.203 Q222.37 786.592 220.032 784.486 Q217.694 782.379 213.69 782.379 Q211.815 782.379 209.94 782.796 Q208.088 783.213 206.143 784.092 L206.143 766.731 Z" fill="#000000" fill-rule="evenodd" fill-opacity="1" /><path clip-path="url(#clip380)" d="M139.709 533.667 Q136.097 533.667 134.269 537.231 Q132.463 540.773 132.463 547.903 Q132.463 555.009 134.269 558.574 Q136.097 562.116 139.709 562.116 Q143.343 562.116 145.148 558.574 Q146.977 555.009 146.977 547.903 Q146.977 540.773 145.148 537.231 Q143.343 533.667 139.709 533.667 M139.709 529.963 Q145.519 529.963 148.574 534.569 Q151.653 539.153 151.653 547.903 Q151.653 556.629 148.574 561.236 Q145.519 565.819 139.709 565.819 Q133.898 565.819 130.82 561.236 Q127.764 556.629 127.764 547.903 Q127.764 539.153 130.82 534.569 Q133.898 529.963 139.709 529.963 Z" fill="#000000" fill-rule="evenodd" fill-opacity="1" /><path clip-path="url(#clip380)" d="M159.87 559.268 L164.755 559.268 L164.755 565.148 L159.87 565.148 L159.87 559.268 Z" fill="#000000" fill-rule="evenodd" fill-opacity="1" /><path clip-path="url(#clip380)" d="M174.986 530.588 L193.343 530.588 L193.343 534.523 L179.269 534.523 L179.269 542.995 Q180.287 542.648 181.306 542.486 Q182.324 542.301 183.343 542.301 Q189.13 542.301 192.509 545.472 Q195.889 548.643 195.889 554.06 Q195.889 559.639 192.417 562.741 Q188.944 565.819 182.625 565.819 Q180.449 565.819 178.181 565.449 Q175.935 565.079 173.528 564.338 L173.528 559.639 Q175.611 560.773 177.833 561.329 Q180.056 561.884 182.532 561.884 Q186.537 561.884 188.875 559.778 Q191.213 557.671 191.213 554.06 Q191.213 550.449 188.875 548.343 Q186.537 546.236 182.532 546.236 Q180.657 546.236 178.782 546.653 Q176.931 547.069 174.986 547.949 L174.986 530.588 Z" fill="#000000" fill-rule="evenodd" fill-opacity="1" /><path clip-path="url(#clip380)" d="M215.102 533.667 Q211.491 533.667 209.662 537.231 Q207.856 540.773 207.856 547.903 Q207.856 555.009 209.662 558.574 Q211.491 562.116 215.102 562.116 Q218.736 562.116 220.541 558.574 Q222.37 555.009 222.37 547.903 Q222.37 540.773 220.541 537.231 Q218.736 533.667 215.102 533.667 M215.102 529.963 Q220.912 529.963 223.967 534.569 Q227.046 539.153 227.046 547.903 Q227.046 556.629 223.967 561.236 Q220.912 565.819 215.102 565.819 Q209.291 565.819 206.213 561.236 Q203.157 556.629 203.157 547.903 Q203.157 539.153 206.213 534.569 Q209.291 529.963 215.102 529.963 Z" fill="#000000" fill-rule="evenodd" fill-opacity="1" /><path clip-path="url(#clip380)" d="M140.704 297.523 Q137.093 297.523 135.264 301.088 Q133.459 304.63 133.459 311.759 Q133.459 318.866 135.264 322.431 Q137.093 325.972 140.704 325.972 Q144.338 325.972 146.144 322.431 Q147.972 318.866 147.972 311.759 Q147.972 304.63 146.144 301.088 Q144.338 297.523 140.704 297.523 M140.704 293.82 Q146.514 293.82 149.57 298.426 Q152.648 303.009 152.648 311.759 Q152.648 320.486 149.57 325.093 Q146.514 329.676 140.704 329.676 Q134.894 329.676 131.815 325.093 Q128.76 320.486 128.76 311.759 Q128.76 303.009 131.815 298.426 Q134.894 293.82 140.704 293.82 Z" fill="#000000" fill-rule="evenodd" fill-opacity="1" /><path clip-path="url(#clip380)" d="M160.866 323.125 L165.75 323.125 L165.75 329.005 L160.866 329.005 L160.866 323.125 Z" fill="#000000" fill-rule="evenodd" fill-opacity="1" /><path clip-path="url(#clip380)" d="M174.755 294.445 L196.977 294.445 L196.977 296.435 L184.431 329.005 L179.546 329.005 L191.352 298.38 L174.755 298.38 L174.755 294.445 Z" fill="#000000" fill-rule="evenodd" fill-opacity="1" /><path clip-path="url(#clip380)" d="M206.143 294.445 L224.5 294.445 L224.5 298.38 L210.426 298.38 L210.426 306.852 Q211.444 306.505 212.463 306.343 Q213.481 306.158 214.5 306.158 Q220.287 306.158 223.666 309.329 Q227.046 312.5 227.046 317.917 Q227.046 323.495 223.574 326.597 Q220.102 329.676 213.782 329.676 Q211.606 329.676 209.338 329.306 Q207.092 328.935 204.685 328.194 L204.685 323.495 Q206.768 324.63 208.991 325.185 Q211.213 325.741 213.69 325.741 Q217.694 325.741 220.032 323.634 Q222.37 321.528 222.37 317.917 Q222.37 314.306 220.032 312.199 Q217.694 310.093 213.69 310.093 Q211.815 310.093 209.94 310.509 Q208.088 310.926 206.143 311.806 L206.143 294.445 Z" fill="#000000" fill-rule="evenodd" fill-opacity="1" /><path clip-path="url(#clip380)" d="M130.519 88.9261 L138.158 88.9261 L138.158 62.5605 L129.847 64.2272 L129.847 59.968 L138.111 58.3013 L142.787 58.3013 L142.787 88.9261 L150.426 88.9261 L150.426 92.8613 L130.519 92.8613 L130.519 88.9261 Z" fill="#000000" fill-rule="evenodd" fill-opacity="1" /><path clip-path="url(#clip380)" d="M159.87 86.9817 L164.755 86.9817 L164.755 92.8613 L159.87 92.8613 L159.87 86.9817 Z" fill="#000000" fill-rule="evenodd" fill-opacity="1" /><path clip-path="url(#clip380)" d="M184.94 61.38 Q181.329 61.38 179.5 64.9448 Q177.694 68.4864 177.694 75.616 Q177.694 82.7225 179.5 86.2873 Q181.329 89.8289 184.94 89.8289 Q188.574 89.8289 190.38 86.2873 Q192.208 82.7225 192.208 75.616 Q192.208 68.4864 190.38 64.9448 Q188.574 61.38 184.94 61.38 M184.94 57.6763 Q190.75 57.6763 193.805 62.2828 Q196.884 66.8661 196.884 75.616 Q196.884 84.3428 193.805 88.9493 Q190.75 93.5326 184.94 93.5326 Q179.13 93.5326 176.051 88.9493 Q172.995 84.3428 172.995 75.616 Q172.995 66.8661 176.051 62.2828 Q179.13 57.6763 184.94 57.6763 Z" fill="#000000" fill-rule="evenodd" fill-opacity="1" /><path clip-path="url(#clip380)" d="M215.102 61.38 Q211.491 61.38 209.662 64.9448 Q207.856 68.4864 207.856 75.616 Q207.856 82.7225 209.662 86.2873 Q211.491 89.8289 215.102 89.8289 Q218.736 89.8289 220.541 86.2873 Q222.37 82.7225 222.37 75.616 Q222.37 68.4864 220.541 64.9448 Q218.736 61.38 215.102 61.38 M215.102 57.6763 Q220.912 57.6763 223.967 62.2828 Q227.046 66.8661 227.046 75.616 Q227.046 84.3428 223.967 88.9493 Q220.912 93.5326 215.102 93.5326 Q209.291 93.5326 206.213 88.9493 Q203.157 84.3428 203.157 75.616 Q203.157 66.8661 206.213 62.2828 Q209.291 57.6763 215.102 57.6763 Z" fill="#000000" fill-rule="evenodd" fill-opacity="1" /><path clip-path="url(#clip380)" d="M39.983 865.183 L44.8527 865.183 L44.8527 870.784 Q44.8527 873.935 46.1259 875.177 Q47.399 876.386 50.7092 876.386 L53.8602 876.386 L53.8602 866.742 L58.4117 866.742 L58.4117 876.386 L89.5082 876.386 L89.5082 882.274 L58.4117 882.274 L58.4117 887.876 L53.8602 887.876 L53.8602 882.274 L51.3776 882.274 Q45.4256 882.274 42.7202 879.505 Q39.983 876.736 39.983 870.721 L39.983 865.183 Z" fill="#000000" fill-rule="evenodd" fill-opacity="1" /><path clip-path="url(#clip380)" d="M59.3347 839.624 Q58.7618 840.611 58.5072 841.789 Q58.2207 842.934 58.2207 844.335 Q58.2207 849.3 61.4672 851.974 Q64.6819 854.615 70.7293 854.615 L89.5082 854.615 L89.5082 860.504 L53.8602 860.504 L53.8602 854.615 L59.3984 854.615 Q56.1519 852.769 54.5923 849.809 Q53.0008 846.849 53.0008 842.616 Q53.0008 842.011 53.0963 841.279 Q53.16 840.547 53.3191 839.656 L59.3347 839.624 Z" fill="#000000" fill-rule="evenodd" fill-opacity="1" /><path clip-path="url(#clip380)" d="M71.5887 817.281 Q71.5887 824.378 73.2119 827.116 Q74.8352 829.853 78.7501 829.853 Q81.8693 829.853 83.7154 827.816 Q85.5296 825.747 85.5296 822.214 Q85.5296 817.344 82.0921 814.416 Q78.6228 811.456 72.8937 811.456 L71.5887 811.456 L71.5887 817.281 M69.1697 805.6 L89.5082 805.6 L89.5082 811.456 L84.0973 811.456 Q87.3438 813.461 88.9034 816.453 Q90.4312 819.445 90.4312 823.774 Q90.4312 829.248 87.3756 832.495 Q84.2883 835.709 79.1321 835.709 Q73.1165 835.709 70.0609 831.699 Q67.0054 827.657 67.0054 819.668 L67.0054 811.456 L66.4325 811.456 Q62.3902 811.456 60.1941 814.13 Q57.9661 816.771 57.9661 821.577 Q57.9661 824.633 58.6981 827.529 Q59.4302 830.426 60.8943 833.099 L55.4835 833.099 Q54.2421 829.885 53.6374 826.861 Q53.0008 823.837 53.0008 820.973 Q53.0008 813.238 57.0112 809.419 Q61.0216 805.6 69.1697 805.6 Z" fill="#000000" fill-rule="evenodd" fill-opacity="1" /><path clip-path="url(#clip380)" d="M55.2288 767.883 L60.7033 767.883 Q59.3347 770.365 58.6663 772.88 Q57.9661 775.362 57.9661 777.909 Q57.9661 783.606 61.5945 786.757 Q65.1912 789.908 71.716 789.908 Q78.2409 789.908 81.8693 786.757 Q85.4659 783.606 85.4659 777.909 Q85.4659 775.362 84.7975 772.88 Q84.0973 770.365 82.7287 767.883 L88.1395 767.883 Q89.2854 770.334 89.8583 772.975 Q90.4312 775.585 90.4312 778.545 Q90.4312 786.598 85.3704 791.34 Q80.3097 796.083 71.716 796.083 Q62.995 796.083 57.9979 791.309 Q53.0008 786.502 53.0008 778.163 Q53.0008 775.458 53.5737 772.88 Q54.1148 770.302 55.2288 767.883 Z" fill="#000000" fill-rule="evenodd" fill-opacity="1" /><path clip-path="url(#clip380)" d="M43.7387 751.905 L53.8602 751.905 L53.8602 739.842 L58.4117 739.842 L58.4117 751.905 L77.7634 751.905 Q82.1239 751.905 83.3653 750.727 Q84.6066 749.518 84.6066 745.857 L84.6066 739.842 L89.5082 739.842 L89.5082 745.857 Q89.5082 752.637 86.9937 755.215 Q84.4474 757.793 77.7634 757.793 L58.4117 757.793 L58.4117 762.09 L53.8602 762.09 L53.8602 757.793 L43.7387 757.793 L43.7387 751.905 Z" fill="#000000" fill-rule="evenodd" fill-opacity="1" /><path clip-path="url(#clip380)" d="M53.8602 732.139 L53.8602 726.283 L89.5082 726.283 L89.5082 732.139 L53.8602 732.139 M39.983 732.139 L39.983 726.283 L47.399 726.283 L47.399 732.139 L39.983 732.139 Z" fill="#000000" fill-rule="evenodd" fill-opacity="1" /><path clip-path="url(#clip380)" d="M57.9661 700.215 Q57.9661 704.926 61.6582 707.663 Q65.3185 710.4 71.716 710.4 Q78.1135 710.4 81.8057 707.695 Q85.4659 704.958 85.4659 700.215 Q85.4659 695.536 81.7738 692.799 Q78.0817 690.062 71.716 690.062 Q65.3821 690.062 61.69 692.799 Q57.9661 695.536 57.9661 700.215 M53.0008 700.215 Q53.0008 692.576 57.9661 688.216 Q62.9313 683.855 71.716 683.855 Q80.4689 683.855 85.4659 688.216 Q90.4312 692.576 90.4312 700.215 Q90.4312 707.886 85.4659 712.246 Q80.4689 716.575 71.716 716.575 Q62.9313 716.575 57.9661 712.246 Q53.0008 707.886 53.0008 700.215 Z" fill="#000000" fill-rule="evenodd" fill-opacity="1" /><path clip-path="url(#clip380)" d="M67.9921 644.515 L89.5082 644.515 L89.5082 650.372 L68.183 650.372 Q63.1223 650.372 60.6078 652.345 Q58.0934 654.318 58.0934 658.265 Q58.0934 663.008 61.1171 665.745 Q64.1408 668.482 69.3607 668.482 L89.5082 668.482 L89.5082 674.37 L53.8602 674.37 L53.8602 668.482 L59.3984 668.482 Q56.1837 666.382 54.5923 663.549 Q53.0008 660.684 53.0008 656.96 Q53.0008 650.817 56.8203 647.666 Q60.6078 644.515 67.9921 644.515 Z" fill="#000000" fill-rule="evenodd" fill-opacity="1" /><path clip-path="url(#clip380)" d="M57.9661 598.3 Q57.9661 603.011 61.6582 605.748 Q65.3185 608.485 71.716 608.485 Q78.1135 608.485 81.8057 605.78 Q85.4659 603.043 85.4659 598.3 Q85.4659 593.621 81.7738 590.884 Q78.0817 588.147 71.716 588.147 Q65.3821 588.147 61.69 590.884 Q57.9661 593.621 57.9661 598.3 M53.0008 598.3 Q53.0008 590.661 57.9661 586.301 Q62.9313 581.94 71.716 581.94 Q80.4689 581.94 85.4659 586.301 Q90.4312 590.661 90.4312 598.3 Q90.4312 605.971 85.4659 610.331 Q80.4689 614.66 71.716 614.66 Q62.9313 614.66 57.9661 610.331 Q53.0008 605.971 53.0008 598.3 Z" fill="#000000" fill-rule="evenodd" fill-opacity="1" /><path clip-path="url(#clip380)" d="M39.983 554.186 L44.8527 554.186 L44.8527 559.788 Q44.8527 562.939 46.1259 564.18 Q47.399 565.39 50.7092 565.39 L53.8602 565.39 L53.8602 555.746 L58.4117 555.746 L58.4117 565.39 L89.5082 565.39 L89.5082 571.278 L58.4117 571.278 L58.4117 576.88 L53.8602 576.88 L53.8602 571.278 L51.3776 571.278 Q45.4256 571.278 42.7202 568.509 Q39.983 565.74 39.983 559.724 L39.983 554.186 Z" fill="#000000" fill-rule="evenodd" fill-opacity="1" /><path clip-path="url(#clip380)" d="M59.3347 507.907 Q58.7618 508.894 58.5072 510.072 Q58.2207 511.217 58.2207 512.618 Q58.2207 517.583 61.4672 520.257 Q64.6819 522.898 70.7293 522.898 L89.5082 522.898 L89.5082 528.787 L53.8602 528.787 L53.8602 522.898 L59.3984 522.898 Q56.1519 521.052 54.5923 518.092 Q53.0008 515.132 53.0008 510.899 Q53.0008 510.294 53.0963 509.562 Q53.16 508.83 53.3191 507.939 L59.3347 507.907 Z" fill="#000000" fill-rule="evenodd" fill-opacity="1" /><path clip-path="url(#clip380)" d="M70.2201 472.705 L73.0846 472.705 L73.0846 499.632 Q79.1321 499.25 82.3149 496.003 Q85.4659 492.725 85.4659 486.9 Q85.4659 483.527 84.6384 480.376 Q83.8109 477.193 82.1558 474.074 L87.6939 474.074 Q89.0307 477.225 89.731 480.535 Q90.4312 483.845 90.4312 487.251 Q90.4312 495.781 85.4659 500.778 Q80.5007 505.743 72.0343 505.743 Q63.2814 505.743 58.1571 501.032 Q53.0008 496.29 53.0008 488.269 Q53.0008 481.076 57.6478 476.906 Q62.2629 472.705 70.2201 472.705 M68.5013 478.561 Q63.6952 478.625 60.8306 481.267 Q57.9661 483.877 57.9661 488.205 Q57.9661 493.107 60.7352 496.067 Q63.5042 498.995 68.5332 499.441 L68.5013 478.561 Z" fill="#000000" fill-rule="evenodd" fill-opacity="1" /><path clip-path="url(#clip380)" d="M54.9105 440.367 L60.4487 440.367 Q59.1756 442.85 58.539 445.523 Q57.9024 448.197 57.9024 451.061 Q57.9024 455.422 59.2392 457.618 Q60.576 459.783 63.2496 459.783 Q65.2866 459.783 66.4643 458.223 Q67.6101 456.663 68.6605 451.953 L69.1061 449.947 Q70.4429 443.709 72.8937 441.099 Q75.3126 438.457 79.6731 438.457 Q84.6384 438.457 87.5348 442.404 Q90.4312 446.319 90.4312 453.194 Q90.4312 456.059 89.8583 459.178 Q89.3172 462.265 88.2032 465.703 L82.1558 465.703 Q83.8427 462.456 84.702 459.305 Q85.5296 456.154 85.5296 453.067 Q85.5296 448.929 84.1291 446.701 Q82.6969 444.473 80.1187 444.473 Q77.7316 444.473 76.4585 446.096 Q75.1853 447.688 74.0077 453.13 L73.5302 455.167 Q72.3844 460.61 70.0291 463.029 Q67.642 465.448 63.5042 465.448 Q58.4753 465.448 55.7381 461.883 Q53.0008 458.318 53.0008 451.762 Q53.0008 448.515 53.4783 445.651 Q53.9557 442.786 54.9105 440.367 Z" fill="#000000" fill-rule="evenodd" fill-opacity="1" /><path clip-path="url(#clip380)" d="M84.161 423.466 L103.067 423.466 L103.067 429.354 L53.8602 429.354 L53.8602 423.466 L59.2711 423.466 Q56.0882 421.62 54.5604 418.819 Q53.0008 415.986 53.0008 412.072 Q53.0008 405.579 58.1571 401.536 Q63.3133 397.462 71.716 397.462 Q80.1187 397.462 85.275 401.536 Q90.4312 405.579 90.4312 412.072 Q90.4312 415.986 88.9034 418.819 Q87.3438 421.62 84.161 423.466 M71.716 403.541 Q65.2548 403.541 61.5945 406.215 Q57.9024 408.857 57.9024 413.504 Q57.9024 418.151 61.5945 420.824 Q65.2548 423.466 71.716 423.466 Q78.1772 423.466 81.8693 420.824 Q85.5296 418.151 85.5296 413.504 Q85.5296 408.857 81.8693 406.215 Q78.1772 403.541 71.716 403.541 Z" fill="#000000" fill-rule="evenodd" fill-opacity="1" /><path clip-path="url(#clip380)" d="M57.9661 373.941 Q57.9661 378.652 61.6582 381.389 Q65.3185 384.126 71.716 384.126 Q78.1135 384.126 81.8057 381.421 Q85.4659 378.683 85.4659 373.941 Q85.4659 369.262 81.7738 366.525 Q78.0817 363.788 71.716 363.788 Q65.3821 363.788 61.69 366.525 Q57.9661 369.262 57.9661 373.941 M53.0008 373.941 Q53.0008 366.302 57.9661 361.942 Q62.9313 357.581 71.716 357.581 Q80.4689 357.581 85.4659 361.942 Q90.4312 366.302 90.4312 373.941 Q90.4312 381.612 85.4659 385.972 Q80.4689 390.301 71.716 390.301 Q62.9313 390.301 57.9661 385.972 Q53.0008 381.612 53.0008 373.941 Z" fill="#000000" fill-rule="evenodd" fill-opacity="1" /><path clip-path="url(#clip380)" d="M67.9921 318.241 L89.5082 318.241 L89.5082 324.097 L68.183 324.097 Q63.1223 324.097 60.6078 326.071 Q58.0934 328.044 58.0934 331.991 Q58.0934 336.733 61.1171 339.471 Q64.1408 342.208 69.3607 342.208 L89.5082 342.208 L89.5082 348.096 L53.8602 348.096 L53.8602 342.208 L59.3984 342.208 Q56.1837 340.107 54.5923 337.274 Q53.0008 334.41 53.0008 330.686 Q53.0008 324.543 56.8203 321.392 Q60.6078 318.241 67.9921 318.241 Z" fill="#000000" fill-rule="evenodd" fill-opacity="1" /><path clip-path="url(#clip380)" d="M54.9105 283.834 L60.4487 283.834 Q59.1756 286.317 58.539 288.991 Q57.9024 291.664 57.9024 294.529 Q57.9024 298.889 59.2392 301.085 Q60.576 303.25 63.2496 303.25 Q65.2866 303.25 66.4643 301.69 Q67.6101 300.131 68.6605 295.42 L69.1061 293.415 Q70.4429 287.176 72.8937 284.566 Q75.3126 281.925 79.6731 281.925 Q84.6384 281.925 87.5348 285.871 Q90.4312 289.786 90.4312 296.661 Q90.4312 299.526 89.8583 302.645 Q89.3172 305.732 88.2032 309.17 L82.1558 309.17 Q83.8427 305.923 84.702 302.772 Q85.5296 299.621 85.5296 296.534 Q85.5296 292.396 84.1291 290.168 Q82.6969 287.94 80.1187 287.94 Q77.7316 287.94 76.4585 289.564 Q75.1853 291.155 74.0077 296.598 L73.5302 298.635 Q72.3844 304.077 70.0291 306.496 Q67.642 308.915 63.5042 308.915 Q58.4753 308.915 55.7381 305.35 Q53.0008 301.786 53.0008 295.229 Q53.0008 291.982 53.4783 289.118 Q53.9557 286.253 54.9105 283.834 Z" fill="#000000" fill-rule="evenodd" fill-opacity="1" /><path clip-path="url(#clip380)" d="M70.2201 242.107 L73.0846 242.107 L73.0846 269.034 Q79.1321 268.652 82.3149 265.406 Q85.4659 262.127 85.4659 256.303 Q85.4659 252.929 84.6384 249.778 Q83.8109 246.595 82.1558 243.476 L87.6939 243.476 Q89.0307 246.627 89.731 249.937 Q90.4312 253.247 90.4312 256.653 Q90.4312 265.183 85.4659 270.18 Q80.5007 275.145 72.0343 275.145 Q63.2814 275.145 58.1571 270.435 Q53.0008 265.692 53.0008 257.671 Q53.0008 250.478 57.6478 246.309 Q62.2629 242.107 70.2201 242.107 M68.5013 247.964 Q63.6952 248.027 60.8306 250.669 Q57.9661 253.279 57.9661 257.608 Q57.9661 262.509 60.7352 265.469 Q63.5042 268.398 68.5332 268.843 L68.5013 247.964 Z" fill="#000000" fill-rule="evenodd" fill-opacity="1" /><path clip-path="url(#clip380)" d="M54.9105 209.769 L60.4487 209.769 Q59.1756 212.252 58.539 214.926 Q57.9024 217.599 57.9024 220.464 Q57.9024 224.824 59.2392 227.02 Q60.576 229.185 63.2496 229.185 Q65.2866 229.185 66.4643 227.625 Q67.6101 226.066 68.6605 221.355 L69.1061 219.35 Q70.4429 213.111 72.8937 210.501 Q75.3126 207.86 79.6731 207.86 Q84.6384 207.86 87.5348 211.806 Q90.4312 215.721 90.4312 222.596 Q90.4312 225.461 89.8583 228.58 Q89.3172 231.667 88.2032 235.105 L82.1558 235.105 Q83.8427 231.858 84.702 228.707 Q85.5296 225.556 85.5296 222.469 Q85.5296 218.331 84.1291 216.103 Q82.6969 213.875 80.1187 213.875 Q77.7316 213.875 76.4585 215.499 Q75.1853 217.09 74.0077 222.533 L73.5302 224.57 Q72.3844 230.012 70.0291 232.431 Q67.642 234.85 63.5042 234.85 Q58.4753 234.85 55.7381 231.285 Q53.0008 227.721 53.0008 221.164 Q53.0008 217.917 53.4783 215.053 Q53.9557 212.188 54.9105 209.769 Z" fill="#000000" fill-rule="evenodd" fill-opacity="1" /><path clip-path="url(#clip382)" d="
M283.7 75.5813 L283.7 1020.15 L476.986 1020.15 L476.986 75.5813 L283.7 75.5813 L283.7 75.5813  Z
  " fill="#d55e00" fill-rule="evenodd" fill-opacity="1"/>
<polyline clip-path="url(#clip382)" style="stroke:#000000; stroke-linecap:butt; stroke-linejoin:round; stroke-width:4; stroke-opacity:1; fill:none" points="
  283.7,75.5813 283.7,1020.15 476.986,1020.15 476.986,75.5813 283.7,75.5813 
  "/>
<path clip-path="url(#clip382)" d="
M283.7 729.517 L283.7 1020.15 L476.986 1020.15 L476.986 729.517 L283.7 729.517 L283.7 729.517  Z
  " fill="#e59c00" fill-rule="evenodd" fill-opacity="1"/>
<polyline clip-path="url(#clip382)" style="stroke:#000000; stroke-linecap:butt; stroke-linejoin:round; stroke-width:4; stroke-opacity:1; fill:none" points="
  283.7,729.517 283.7,1020.15 476.986,1020.15 476.986,729.517 283.7,729.517 
  "/>
<path clip-path="url(#clip382)" d="
M283.7 983.825 L283.7 1020.15 L476.986 1020.15 L476.986 983.825 L283.7 983.825 L283.7 983.825  Z
  " fill="#e8b84d" fill-rule="evenodd" fill-opacity="1"/>
<polyline clip-path="url(#clip382)" style="stroke:#000000; stroke-linecap:butt; stroke-linejoin:round; stroke-width:4; stroke-opacity:1; fill:none" points="
  283.7,983.825 283.7,1020.15 476.986,1020.15 476.986,983.825 283.7,983.825 
  "/>
<path clip-path="url(#clip382)" d="
M283.7 1020.15 L283.7 1020.15 L476.986 1020.15 L476.986 1020.15 L283.7 1020.15 L283.7 1020.15  Z
  " fill="#ebd39d" fill-rule="evenodd" fill-opacity="1"/>
<polyline clip-path="url(#clip382)" style="stroke:#000000; stroke-linecap:butt; stroke-linejoin:round; stroke-width:4; stroke-opacity:1; fill:none" points="
  283.7,1020.15 283.7,1020.15 476.986,1020.15 283.7,1020.15 
  "/>
<path clip-path="url(#clip382)" d="
M283.7 1020.15 L283.7 1020.15 L476.986 1020.15 L476.986 1020.15 L283.7 1020.15 L283.7 1020.15  Z
  " fill="#eeeeee" fill-rule="evenodd" fill-opacity="1"/>
<polyline clip-path="url(#clip382)" style="stroke:#000000; stroke-linecap:butt; stroke-linejoin:round; stroke-width:4; stroke-opacity:1; fill:none" points="
  283.7,1020.15 283.7,1020.15 476.986,1020.15 283.7,1020.15 
  "/>
<path clip-path="url(#clip382)" d="
M559.823 75.5813 L559.823 1020.15 L753.108 1020.15 L753.108 75.5813 L559.823 75.5813 L559.823 75.5813  Z
  " fill="#0072b2" fill-rule="evenodd" fill-opacity="1"/>
<polyline clip-path="url(#clip382)" style="stroke:#000000; stroke-linecap:butt; stroke-linejoin:round; stroke-width:4; stroke-opacity:1; fill:none" points="
  559.823,75.5813 559.823,1020.15 753.108,1020.15 753.108,75.5813 559.823,75.5813 
  "/>
<path clip-path="url(#clip382)" d="
M559.823 493.373 L559.823 1020.15 L753.108 1020.15 L753.108 493.373 L559.823 493.373 L559.823 493.373  Z
  " fill="#52b1e6" fill-rule="evenodd" fill-opacity="1"/>
<polyline clip-path="url(#clip382)" style="stroke:#000000; stroke-linecap:butt; stroke-linejoin:round; stroke-width:4; stroke-opacity:1; fill:none" points="
  559.823,493.373 559.823,1020.15 753.108,1020.15 753.108,493.373 559.823,493.373 
  "/>
<path clip-path="url(#clip382)" d="
M559.823 929.33 L559.823 1020.15 L753.108 1020.15 L753.108 929.33 L559.823 929.33 L559.823 929.33  Z
  " fill="#87c6ea" fill-rule="evenodd" fill-opacity="1"/>
<polyline clip-path="url(#clip382)" style="stroke:#000000; stroke-linecap:butt; stroke-linejoin:round; stroke-width:4; stroke-opacity:1; fill:none" points="
  559.823,929.33 559.823,1020.15 753.108,1020.15 753.108,929.33 559.823,929.33 
  "/>
<path clip-path="url(#clip382)" d="
M559.823 1001.99 L559.823 1020.15 L753.108 1020.15 L753.108 1001.99 L559.823 1001.99 L559.823 1001.99  Z
  " fill="#badaec" fill-rule="evenodd" fill-opacity="1"/>
<polyline clip-path="url(#clip382)" style="stroke:#000000; stroke-linecap:butt; stroke-linejoin:round; stroke-width:4; stroke-opacity:1; fill:none" points="
  559.823,1001.99 559.823,1020.15 753.108,1020.15 753.108,1001.99 559.823,1001.99 
  "/>
<path clip-path="url(#clip382)" d="
M559.823 1020.15 L559.823 1020.15 L753.108 1020.15 L753.108 1020.15 L559.823 1020.15 L559.823 1020.15  Z
  " fill="#eeeeee" fill-rule="evenodd" fill-opacity="1"/>
<polyline clip-path="url(#clip382)" style="stroke:#000000; stroke-linecap:butt; stroke-linejoin:round; stroke-width:4; stroke-opacity:1; fill:none" points="
  559.823,1020.15 559.823,1020.15 753.108,1020.15 559.823,1020.15 
  "/>
<path clip-path="url(#clip382)" d="
M974.006 75.5813 L974.006 1020.15 L1167.29 1020.15 L1167.29 75.5813 L974.006 75.5813 L974.006 75.5813  Z
  " fill="#006d60" fill-rule="evenodd" fill-opacity="1"/>
<polyline clip-path="url(#clip382)" style="stroke:#000000; stroke-linecap:butt; stroke-linejoin:round; stroke-width:4; stroke-opacity:1; fill:none" points="
  974.006,75.5813 974.006,1020.15 1167.29,1020.15 1167.29,75.5813 974.006,75.5813 
  "/>
<path clip-path="url(#clip382)" d="
M974.006 593.28 L974.006 1020.15 L1167.29 1020.15 L1167.29 593.28 L974.006 593.28 L974.006 593.28  Z
  " fill="#009c72" fill-rule="evenodd" fill-opacity="1"/>
<polyline clip-path="url(#clip382)" style="stroke:#000000; stroke-linecap:butt; stroke-linejoin:round; stroke-width:4; stroke-opacity:1; fill:none" points="
  974.006,593.28 974.006,1020.15 1167.29,1020.15 1167.29,593.28 974.006,593.28 
  "/>
<path clip-path="url(#clip382)" d="
M974.006 974.742 L974.006 1020.15 L1167.29 1020.15 L1167.29 974.742 L974.006 974.742 L974.006 974.742  Z
  " fill="#4db79a" fill-rule="evenodd" fill-opacity="1"/>
<polyline clip-path="url(#clip382)" style="stroke:#000000; stroke-linecap:butt; stroke-linejoin:round; stroke-width:4; stroke-opacity:1; fill:none" points="
  974.006,974.742 974.006,1020.15 1167.29,1020.15 1167.29,974.742 974.006,974.742 
  "/>
<path clip-path="url(#clip382)" d="
M974.006 1011.07 L974.006 1020.15 L1167.29 1020.15 L1167.29 1011.07 L974.006 1011.07 L974.006 1011.07  Z
  " fill="#9dd2c4" fill-rule="evenodd" fill-opacity="1"/>
<polyline clip-path="url(#clip382)" style="stroke:#000000; stroke-linecap:butt; stroke-linejoin:round; stroke-width:4; stroke-opacity:1; fill:none" points="
  974.006,1011.07 974.006,1020.15 1167.29,1020.15 1167.29,1011.07 974.006,1011.07 
  "/>
<path clip-path="url(#clip382)" d="
M974.006 1020.15 L974.006 1020.15 L1167.29 1020.15 L1167.29 1020.15 L974.006 1020.15 L974.006 1020.15  Z
  " fill="#eeeeee" fill-rule="evenodd" fill-opacity="1"/>
<polyline clip-path="url(#clip382)" style="stroke:#000000; stroke-linecap:butt; stroke-linejoin:round; stroke-width:4; stroke-opacity:1; fill:none" points="
  974.006,1020.15 974.006,1020.15 1167.29,1020.15 974.006,1020.15 
  "/>
<path clip-path="url(#clip380)" d="
M1243.34 1031.71 L1552.76 1031.71 L1552.76 3.54797 L1243.34 3.54797  Z
  " fill="#ffffff" fill-rule="evenodd" fill-opacity="1"/>
<polyline clip-path="url(#clip380)" style="stroke:#000000; stroke-linecap:butt; stroke-linejoin:round; stroke-width:4; stroke-opacity:1; fill:none" points="
  1243.34,1031.71 1552.76,1031.71 1552.76,3.54797 1243.34,3.54797 1243.34,1031.71 
  "/>
<path clip-path="url(#clip380)" d="M1330.03 58.1976 Q1329.13 57.6767 1328.06 57.4452 Q1327.02 57.1848 1325.74 57.1848 Q1321.23 57.1848 1318.8 60.1362 Q1316.4 63.0586 1316.4 68.5563 L1316.4 85.628 L1311.04 85.628 L1311.04 53.2207 L1316.4 53.2207 L1316.4 58.2554 Q1318.08 55.3041 1320.77 53.8862 Q1323.46 52.4395 1327.31 52.4395 Q1327.86 52.4395 1328.52 52.5263 Q1329.19 52.5842 1330 52.7288 L1330.03 58.1976 Z" fill="#000000" fill-rule="evenodd" fill-opacity="1" /><path clip-path="url(#clip380)" d="M1350.34 69.3375 Q1343.89 69.3375 1341.4 70.8132 Q1338.91 72.2889 1338.91 75.8479 Q1338.91 78.6836 1340.76 80.3618 Q1342.64 82.0111 1345.85 82.0111 Q1350.28 82.0111 1352.94 78.8861 Q1355.63 75.7322 1355.63 70.5239 L1355.63 69.3375 L1350.34 69.3375 M1360.96 67.1385 L1360.96 85.628 L1355.63 85.628 L1355.63 80.709 Q1353.81 83.6604 1351.09 85.0782 Q1348.37 86.4671 1344.44 86.4671 Q1339.46 86.4671 1336.51 83.6893 Q1333.58 80.8826 1333.58 76.1951 Q1333.58 70.7264 1337.23 67.9487 Q1340.9 65.1709 1348.17 65.1709 L1355.63 65.1709 L1355.63 64.6501 Q1355.63 60.9753 1353.2 58.9788 Q1350.8 56.9534 1346.43 56.9534 Q1343.65 56.9534 1341.02 57.6189 Q1338.39 58.2844 1335.96 59.6154 L1335.96 54.6964 Q1338.88 53.568 1341.63 53.0182 Q1344.38 52.4395 1346.98 52.4395 Q1354.01 52.4395 1357.48 56.0853 Q1360.96 59.7311 1360.96 67.1385 Z" fill="#000000" fill-rule="evenodd" fill-opacity="1" /><path clip-path="url(#clip380)" d="M1377.19 44.0194 L1377.19 53.2207 L1388.16 53.2207 L1388.16 57.3584 L1377.19 57.3584 L1377.19 74.9509 Q1377.19 78.915 1378.26 80.0435 Q1379.36 81.172 1382.69 81.172 L1388.16 81.172 L1388.16 85.628 L1382.69 85.628 Q1376.52 85.628 1374.18 83.3421 Q1371.84 81.0273 1371.84 74.9509 L1371.84 57.3584 L1367.93 57.3584 L1367.93 53.2207 L1371.84 53.2207 L1371.84 44.0194 L1377.19 44.0194 Z" fill="#000000" fill-rule="evenodd" fill-opacity="1" /><path clip-path="url(#clip380)" d="M1395.16 53.2207 L1400.48 53.2207 L1400.48 85.628 L1395.16 85.628 L1395.16 53.2207 M1395.16 40.6051 L1400.48 40.6051 L1400.48 47.3469 L1395.16 47.3469 L1395.16 40.6051 Z" fill="#000000" fill-rule="evenodd" fill-opacity="1" /><path clip-path="url(#clip380)" d="M1438.56 66.0679 L1438.56 85.628 L1433.24 85.628 L1433.24 66.2415 Q1433.24 61.6408 1431.44 59.355 Q1429.65 57.0691 1426.06 57.0691 Q1421.75 57.0691 1419.26 59.8179 Q1416.77 62.5667 1416.77 67.3121 L1416.77 85.628 L1411.42 85.628 L1411.42 53.2207 L1416.77 53.2207 L1416.77 58.2554 Q1418.68 55.333 1421.26 53.8862 Q1423.86 52.4395 1427.25 52.4395 Q1432.83 52.4395 1435.7 55.9117 Q1438.56 59.355 1438.56 66.0679 Z" fill="#000000" fill-rule="evenodd" fill-opacity="1" /><path clip-path="url(#clip380)" d="M1470.5 69.0482 Q1470.5 63.2612 1468.1 60.0783 Q1465.73 56.8955 1461.42 56.8955 Q1457.14 56.8955 1454.74 60.0783 Q1452.36 63.2612 1452.36 69.0482 Q1452.36 74.8063 1454.74 77.9891 Q1457.14 81.172 1461.42 81.172 Q1465.73 81.172 1468.1 77.9891 Q1470.5 74.8063 1470.5 69.0482 M1475.83 81.606 Q1475.83 89.8814 1472.15 93.9034 Q1468.48 97.9543 1460.9 97.9543 Q1458.09 97.9543 1455.6 97.5203 Q1453.12 97.1152 1450.77 96.2471 L1450.77 91.0678 Q1453.12 92.3409 1455.4 92.9485 Q1457.69 93.5562 1460.06 93.5562 Q1465.3 93.5562 1467.9 90.8073 Q1470.5 88.0874 1470.5 82.5609 L1470.5 79.9278 Q1468.86 82.7923 1466.28 84.2102 Q1463.71 85.628 1460.12 85.628 Q1454.16 85.628 1450.51 81.0852 Q1446.87 76.5424 1446.87 69.0482 Q1446.87 61.5251 1450.51 56.9823 Q1454.16 52.4395 1460.12 52.4395 Q1463.71 52.4395 1466.28 53.8573 Q1468.86 55.2751 1470.5 58.1397 L1470.5 53.2207 L1475.83 53.2207 L1475.83 81.606 Z" fill="#000000" fill-rule="evenodd" fill-opacity="1" /><path clip-path="url(#clip380)" d="
M1257.8 148.7 L1344.58 148.7 L1344.58 100.316 L1257.8 100.316 L1257.8 148.7  Z
  " fill="#d55e00" fill-rule="evenodd" fill-opacity="1"/>
<polyline clip-path="url(#clip380)" style="stroke:#000000; stroke-linecap:butt; stroke-linejoin:round; stroke-width:4; stroke-opacity:1; fill:none" points="
  1257.8,148.7 1344.58,148.7 1344.58,100.316 1257.8,100.316 1257.8,148.7 
  "/>
<path clip-path="url(#clip380)" d="M1360.5 107.228 L1378.86 107.228 L1378.86 111.163 L1364.78 111.163 L1364.78 119.635 Q1365.8 119.288 1366.82 119.126 Q1367.84 118.941 1368.86 118.941 Q1374.65 118.941 1378.03 122.112 Q1381.41 125.283 1381.41 130.7 Q1381.41 136.279 1377.93 139.381 Q1374.46 142.459 1368.14 142.459 Q1365.97 142.459 1363.7 142.089 Q1361.45 141.719 1359.04 140.978 L1359.04 136.279 Q1361.13 137.413 1363.35 137.969 Q1365.57 138.524 1368.05 138.524 Q1372.05 138.524 1374.39 136.418 Q1376.73 134.311 1376.73 130.7 Q1376.73 127.089 1374.39 124.983 Q1372.05 122.876 1368.05 122.876 Q1366.17 122.876 1364.3 123.293 Q1362.45 123.709 1360.5 124.589 L1360.5 107.228 Z" fill="#000000" fill-rule="evenodd" fill-opacity="1" /><path clip-path="url(#clip380)" d="
M1257.8 209.18 L1344.58 209.18 L1344.58 160.796 L1257.8 160.796 L1257.8 209.18  Z
  " fill="#e59c00" fill-rule="evenodd" fill-opacity="1"/>
<polyline clip-path="url(#clip380)" style="stroke:#000000; stroke-linecap:butt; stroke-linejoin:round; stroke-width:4; stroke-opacity:1; fill:none" points="
  1257.8,209.18 1344.58,209.18 1344.58,160.796 1257.8,160.796 1257.8,209.18 
  "/>
<path clip-path="url(#clip380)" d="M1374.65 171.782 L1362.84 190.231 L1374.65 190.231 L1374.65 171.782 M1373.42 167.708 L1379.3 167.708 L1379.3 190.231 L1384.23 190.231 L1384.23 194.12 L1379.3 194.12 L1379.3 202.268 L1374.65 202.268 L1374.65 194.12 L1359.04 194.12 L1359.04 189.606 L1373.42 167.708 Z" fill="#000000" fill-rule="evenodd" fill-opacity="1" /><path clip-path="url(#clip380)" d="
M1257.8 269.66 L1344.58 269.66 L1344.58 221.276 L1257.8 221.276 L1257.8 269.66  Z
  " fill="#e8b84d" fill-rule="evenodd" fill-opacity="1"/>
<polyline clip-path="url(#clip380)" style="stroke:#000000; stroke-linecap:butt; stroke-linejoin:round; stroke-width:4; stroke-opacity:1; fill:none" points="
  1257.8,269.66 1344.58,269.66 1344.58,221.276 1257.8,221.276 1257.8,269.66 
  "/>
<path clip-path="url(#clip380)" d="M1374.67 244.114 Q1378.03 244.831 1379.9 247.1 Q1381.8 249.368 1381.8 252.702 Q1381.8 257.817 1378.28 260.618 Q1374.76 263.419 1368.28 263.419 Q1366.1 263.419 1363.79 262.979 Q1361.5 262.563 1359.04 261.706 L1359.04 257.192 Q1360.99 258.327 1363.3 258.905 Q1365.62 259.484 1368.14 259.484 Q1372.54 259.484 1374.83 257.748 Q1377.15 256.012 1377.15 252.702 Q1377.15 249.646 1374.99 247.933 Q1372.86 246.197 1369.04 246.197 L1365.02 246.197 L1365.02 242.355 L1369.23 242.355 Q1372.68 242.355 1374.51 240.989 Q1376.34 239.6 1376.34 237.007 Q1376.34 234.345 1374.44 232.933 Q1372.56 231.498 1369.04 231.498 Q1367.12 231.498 1364.92 231.915 Q1362.72 232.331 1360.09 233.211 L1360.09 229.044 Q1362.75 228.304 1365.06 227.933 Q1367.4 227.563 1369.46 227.563 Q1374.78 227.563 1377.89 229.994 Q1380.99 232.401 1380.99 236.521 Q1380.99 239.392 1379.34 241.382 Q1377.7 243.35 1374.67 244.114 Z" fill="#000000" fill-rule="evenodd" fill-opacity="1" /><path clip-path="url(#clip380)" d="
M1257.8 330.14 L1344.58 330.14 L1344.58 281.756 L1257.8 281.756 L1257.8 330.14  Z
  " fill="#ebd39d" fill-rule="evenodd" fill-opacity="1"/>
<polyline clip-path="url(#clip380)" style="stroke:#000000; stroke-linecap:butt; stroke-linejoin:round; stroke-width:4; stroke-opacity:1; fill:none" points="
  1257.8,330.14 1344.58,330.14 1344.58,281.756 1257.8,281.756 1257.8,330.14 
  "/>
<path clip-path="url(#clip380)" d="M1364.67 319.293 L1380.99 319.293 L1380.99 323.228 L1359.04 323.228 L1359.04 319.293 Q1361.71 316.538 1366.29 311.909 Q1370.9 307.256 1372.08 305.913 Q1374.32 303.39 1375.2 301.654 Q1376.1 299.895 1376.1 298.205 Q1376.1 295.45 1374.16 293.714 Q1372.24 291.978 1369.14 291.978 Q1366.94 291.978 1364.48 292.742 Q1362.05 293.506 1359.28 295.057 L1359.28 290.335 Q1362.1 289.2 1364.55 288.622 Q1367.01 288.043 1369.04 288.043 Q1374.41 288.043 1377.61 290.728 Q1380.8 293.413 1380.8 297.904 Q1380.8 300.034 1379.99 301.955 Q1379.21 303.853 1377.1 306.446 Q1376.52 307.117 1373.42 310.335 Q1370.32 313.529 1364.67 319.293 Z" fill="#000000" fill-rule="evenodd" fill-opacity="1" /><path clip-path="url(#clip380)" d="
M1257.8 390.62 L1344.58 390.62 L1344.58 342.236 L1257.8 342.236 L1257.8 390.62  Z
  " fill="#eeeeee" fill-rule="evenodd" fill-opacity="1"/>
<polyline clip-path="url(#clip380)" style="stroke:#000000; stroke-linecap:butt; stroke-linejoin:round; stroke-width:4; stroke-opacity:1; fill:none" points="
  1257.8,390.62 1344.58,390.62 1344.58,342.236 1257.8,342.236 1257.8,390.62 
  "/>
<path clip-path="url(#clip380)" d="M1359.72 379.773 L1367.35 379.773 L1367.35 353.407 L1359.04 355.074 L1359.04 350.815 L1367.31 349.148 L1371.98 349.148 L1371.98 379.773 L1379.62 379.773 L1379.62 383.708 L1359.72 383.708 L1359.72 379.773 Z" fill="#000000" fill-rule="evenodd" fill-opacity="1" /><path clip-path="url(#clip380)" d="
M1257.8 451.1 L1344.58 451.1 L1344.58 402.716 L1257.8 402.716 L1257.8 451.1  Z
  " fill="#0072b2" fill-rule="evenodd" fill-opacity="1"/>
<polyline clip-path="url(#clip380)" style="stroke:#000000; stroke-linecap:butt; stroke-linejoin:round; stroke-width:4; stroke-opacity:1; fill:none" points="
  1257.8,451.1 1344.58,451.1 1344.58,402.716 1257.8,402.716 1257.8,451.1 
  "/>
<path clip-path="url(#clip380)" d="M1360.5 409.628 L1378.86 409.628 L1378.86 413.563 L1364.78 413.563 L1364.78 422.035 Q1365.8 421.688 1366.82 421.526 Q1367.84 421.341 1368.86 421.341 Q1374.65 421.341 1378.03 424.512 Q1381.41 427.683 1381.41 433.1 Q1381.41 438.679 1377.93 441.781 Q1374.46 444.859 1368.14 444.859 Q1365.97 444.859 1363.7 444.489 Q1361.45 444.119 1359.04 443.378 L1359.04 438.679 Q1361.13 439.813 1363.35 440.369 Q1365.57 440.924 1368.05 440.924 Q1372.05 440.924 1374.39 438.818 Q1376.73 436.711 1376.73 433.1 Q1376.73 429.489 1374.39 427.383 Q1372.05 425.276 1368.05 425.276 Q1366.17 425.276 1364.3 425.693 Q1362.45 426.109 1360.5 426.989 L1360.5 409.628 Z" fill="#000000" fill-rule="evenodd" fill-opacity="1" /><path clip-path="url(#clip380)" d="
M1257.8 511.58 L1344.58 511.58 L1344.58 463.196 L1257.8 463.196 L1257.8 511.58  Z
  " fill="#52b1e6" fill-rule="evenodd" fill-opacity="1"/>
<polyline clip-path="url(#clip380)" style="stroke:#000000; stroke-linecap:butt; stroke-linejoin:round; stroke-width:4; stroke-opacity:1; fill:none" points="
  1257.8,511.58 1344.58,511.58 1344.58,463.196 1257.8,463.196 1257.8,511.58 
  "/>
<path clip-path="url(#clip380)" d="M1374.65 474.182 L1362.84 492.631 L1374.65 492.631 L1374.65 474.182 M1373.42 470.108 L1379.3 470.108 L1379.3 492.631 L1384.23 492.631 L1384.23 496.52 L1379.3 496.52 L1379.3 504.668 L1374.65 504.668 L1374.65 496.52 L1359.04 496.52 L1359.04 492.006 L1373.42 470.108 Z" fill="#000000" fill-rule="evenodd" fill-opacity="1" /><path clip-path="url(#clip380)" d="
M1257.8 572.06 L1344.58 572.06 L1344.58 523.676 L1257.8 523.676 L1257.8 572.06  Z
  " fill="#87c6ea" fill-rule="evenodd" fill-opacity="1"/>
<polyline clip-path="url(#clip380)" style="stroke:#000000; stroke-linecap:butt; stroke-linejoin:round; stroke-width:4; stroke-opacity:1; fill:none" points="
  1257.8,572.06 1344.58,572.06 1344.58,523.676 1257.8,523.676 1257.8,572.06 
  "/>
<path clip-path="url(#clip380)" d="M1374.67 546.514 Q1378.03 547.231 1379.9 549.5 Q1381.8 551.768 1381.8 555.102 Q1381.8 560.217 1378.28 563.018 Q1374.76 565.819 1368.28 565.819 Q1366.1 565.819 1363.79 565.379 Q1361.5 564.963 1359.04 564.106 L1359.04 559.592 Q1360.99 560.727 1363.3 561.305 Q1365.62 561.884 1368.14 561.884 Q1372.54 561.884 1374.83 560.148 Q1377.15 558.412 1377.15 555.102 Q1377.15 552.046 1374.99 550.333 Q1372.86 548.597 1369.04 548.597 L1365.02 548.597 L1365.02 544.755 L1369.23 544.755 Q1372.68 544.755 1374.51 543.389 Q1376.34 542 1376.34 539.407 Q1376.34 536.745 1374.44 535.333 Q1372.56 533.898 1369.04 533.898 Q1367.12 533.898 1364.92 534.315 Q1362.72 534.731 1360.09 535.611 L1360.09 531.444 Q1362.75 530.704 1365.06 530.333 Q1367.4 529.963 1369.46 529.963 Q1374.78 529.963 1377.89 532.394 Q1380.99 534.801 1380.99 538.921 Q1380.99 541.792 1379.34 543.782 Q1377.7 545.75 1374.67 546.514 Z" fill="#000000" fill-rule="evenodd" fill-opacity="1" /><path clip-path="url(#clip380)" d="
M1257.8 632.54 L1344.58 632.54 L1344.58 584.156 L1257.8 584.156 L1257.8 632.54  Z
  " fill="#badaec" fill-rule="evenodd" fill-opacity="1"/>
<polyline clip-path="url(#clip380)" style="stroke:#000000; stroke-linecap:butt; stroke-linejoin:round; stroke-width:4; stroke-opacity:1; fill:none" points="
  1257.8,632.54 1344.58,632.54 1344.58,584.156 1257.8,584.156 1257.8,632.54 
  "/>
<path clip-path="url(#clip380)" d="M1364.67 621.693 L1380.99 621.693 L1380.99 625.628 L1359.04 625.628 L1359.04 621.693 Q1361.71 618.938 1366.29 614.309 Q1370.9 609.656 1372.08 608.313 Q1374.32 605.79 1375.2 604.054 Q1376.1 602.295 1376.1 600.605 Q1376.1 597.85 1374.16 596.114 Q1372.24 594.378 1369.14 594.378 Q1366.94 594.378 1364.48 595.142 Q1362.05 595.906 1359.28 597.457 L1359.28 592.735 Q1362.1 591.6 1364.55 591.022 Q1367.01 590.443 1369.04 590.443 Q1374.41 590.443 1377.61 593.128 Q1380.8 595.813 1380.8 600.304 Q1380.8 602.434 1379.99 604.355 Q1379.21 606.253 1377.1 608.846 Q1376.52 609.517 1373.42 612.735 Q1370.32 615.929 1364.67 621.693 Z" fill="#000000" fill-rule="evenodd" fill-opacity="1" /><path clip-path="url(#clip380)" d="
M1257.8 693.02 L1344.58 693.02 L1344.58 644.636 L1257.8 644.636 L1257.8 693.02  Z
  " fill="#eeeeee" fill-rule="evenodd" fill-opacity="1"/>
<polyline clip-path="url(#clip380)" style="stroke:#000000; stroke-linecap:butt; stroke-linejoin:round; stroke-width:4; stroke-opacity:1; fill:none" points="
  1257.8,693.02 1344.58,693.02 1344.58,644.636 1257.8,644.636 1257.8,693.02 
  "/>
<path clip-path="url(#clip380)" d="M1359.72 682.173 L1367.35 682.173 L1367.35 655.807 L1359.04 657.474 L1359.04 653.215 L1367.31 651.548 L1371.98 651.548 L1371.98 682.173 L1379.62 682.173 L1379.62 686.108 L1359.72 686.108 L1359.72 682.173 Z" fill="#000000" fill-rule="evenodd" fill-opacity="1" /><path clip-path="url(#clip380)" d="
M1257.8 753.5 L1344.58 753.5 L1344.58 705.116 L1257.8 705.116 L1257.8 753.5  Z
  " fill="#006d60" fill-rule="evenodd" fill-opacity="1"/>
<polyline clip-path="url(#clip380)" style="stroke:#000000; stroke-linecap:butt; stroke-linejoin:round; stroke-width:4; stroke-opacity:1; fill:none" points="
  1257.8,753.5 1344.58,753.5 1344.58,705.116 1257.8,705.116 1257.8,753.5 
  "/>
<path clip-path="url(#clip380)" d="M1360.5 712.028 L1378.86 712.028 L1378.86 715.963 L1364.78 715.963 L1364.78 724.435 Q1365.8 724.088 1366.82 723.926 Q1367.84 723.741 1368.86 723.741 Q1374.65 723.741 1378.03 726.912 Q1381.41 730.083 1381.41 735.5 Q1381.41 741.079 1377.93 744.181 Q1374.46 747.259 1368.14 747.259 Q1365.97 747.259 1363.7 746.889 Q1361.45 746.519 1359.04 745.778 L1359.04 741.079 Q1361.13 742.213 1363.35 742.769 Q1365.57 743.324 1368.05 743.324 Q1372.05 743.324 1374.39 741.218 Q1376.73 739.111 1376.73 735.5 Q1376.73 731.889 1374.39 729.783 Q1372.05 727.676 1368.05 727.676 Q1366.17 727.676 1364.3 728.093 Q1362.45 728.509 1360.5 729.389 L1360.5 712.028 Z" fill="#000000" fill-rule="evenodd" fill-opacity="1" /><path clip-path="url(#clip380)" d="
M1257.8 813.98 L1344.58 813.98 L1344.58 765.596 L1257.8 765.596 L1257.8 813.98  Z
  " fill="#009c72" fill-rule="evenodd" fill-opacity="1"/>
<polyline clip-path="url(#clip380)" style="stroke:#000000; stroke-linecap:butt; stroke-linejoin:round; stroke-width:4; stroke-opacity:1; fill:none" points="
  1257.8,813.98 1344.58,813.98 1344.58,765.596 1257.8,765.596 1257.8,813.98 
  "/>
<path clip-path="url(#clip380)" d="M1374.65 776.582 L1362.84 795.031 L1374.65 795.031 L1374.65 776.582 M1373.42 772.508 L1379.3 772.508 L1379.3 795.031 L1384.23 795.031 L1384.23 798.92 L1379.3 798.92 L1379.3 807.068 L1374.65 807.068 L1374.65 798.92 L1359.04 798.92 L1359.04 794.406 L1373.42 772.508 Z" fill="#000000" fill-rule="evenodd" fill-opacity="1" /><path clip-path="url(#clip380)" d="
M1257.8 874.46 L1344.58 874.46 L1344.58 826.076 L1257.8 826.076 L1257.8 874.46  Z
  " fill="#4db79a" fill-rule="evenodd" fill-opacity="1"/>
<polyline clip-path="url(#clip380)" style="stroke:#000000; stroke-linecap:butt; stroke-linejoin:round; stroke-width:4; stroke-opacity:1; fill:none" points="
  1257.8,874.46 1344.58,874.46 1344.58,826.076 1257.8,826.076 1257.8,874.46 
  "/>
<path clip-path="url(#clip380)" d="M1374.67 848.914 Q1378.03 849.631 1379.9 851.9 Q1381.8 854.168 1381.8 857.502 Q1381.8 862.617 1378.28 865.418 Q1374.76 868.219 1368.28 868.219 Q1366.1 868.219 1363.79 867.779 Q1361.5 867.363 1359.04 866.506 L1359.04 861.992 Q1360.99 863.127 1363.3 863.705 Q1365.62 864.284 1368.14 864.284 Q1372.54 864.284 1374.83 862.548 Q1377.15 860.812 1377.15 857.502 Q1377.15 854.446 1374.99 852.733 Q1372.86 850.997 1369.04 850.997 L1365.02 850.997 L1365.02 847.155 L1369.23 847.155 Q1372.68 847.155 1374.51 845.789 Q1376.34 844.4 1376.34 841.807 Q1376.34 839.145 1374.44 837.733 Q1372.56 836.298 1369.04 836.298 Q1367.12 836.298 1364.92 836.715 Q1362.72 837.131 1360.09 838.011 L1360.09 833.844 Q1362.75 833.104 1365.06 832.733 Q1367.4 832.363 1369.46 832.363 Q1374.78 832.363 1377.89 834.794 Q1380.99 837.201 1380.99 841.321 Q1380.99 844.192 1379.34 846.182 Q1377.7 848.15 1374.67 848.914 Z" fill="#000000" fill-rule="evenodd" fill-opacity="1" /><path clip-path="url(#clip380)" d="
M1257.8 934.94 L1344.58 934.94 L1344.58 886.556 L1257.8 886.556 L1257.8 934.94  Z
  " fill="#9dd2c4" fill-rule="evenodd" fill-opacity="1"/>
<polyline clip-path="url(#clip380)" style="stroke:#000000; stroke-linecap:butt; stroke-linejoin:round; stroke-width:4; stroke-opacity:1; fill:none" points="
  1257.8,934.94 1344.58,934.94 1344.58,886.556 1257.8,886.556 1257.8,934.94 
  "/>
<path clip-path="url(#clip380)" d="M1364.67 924.093 L1380.99 924.093 L1380.99 928.028 L1359.04 928.028 L1359.04 924.093 Q1361.71 921.338 1366.29 916.709 Q1370.9 912.056 1372.08 910.713 Q1374.32 908.19 1375.2 906.454 Q1376.1 904.695 1376.1 903.005 Q1376.1 900.25 1374.16 898.514 Q1372.24 896.778 1369.14 896.778 Q1366.94 896.778 1364.48 897.542 Q1362.05 898.306 1359.28 899.857 L1359.28 895.135 Q1362.1 894 1364.55 893.422 Q1367.01 892.843 1369.04 892.843 Q1374.41 892.843 1377.61 895.528 Q1380.8 898.213 1380.8 902.704 Q1380.8 904.834 1379.99 906.755 Q1379.21 908.653 1377.1 911.246 Q1376.52 911.917 1373.42 915.135 Q1370.32 918.329 1364.67 924.093 Z" fill="#000000" fill-rule="evenodd" fill-opacity="1" /><path clip-path="url(#clip380)" d="
M1257.8 995.42 L1344.58 995.42 L1344.58 947.036 L1257.8 947.036 L1257.8 995.42  Z
  " fill="#eeeeee" fill-rule="evenodd" fill-opacity="1"/>
<polyline clip-path="url(#clip380)" style="stroke:#000000; stroke-linecap:butt; stroke-linejoin:round; stroke-width:4; stroke-opacity:1; fill:none" points="
  1257.8,995.42 1344.58,995.42 1344.58,947.036 1257.8,947.036 1257.8,995.42 
  "/>
<path clip-path="url(#clip380)" d="M1359.72 984.573 L1367.35 984.573 L1367.35 958.207 L1359.04 959.874 L1359.04 955.615 L1367.31 953.948 L1371.98 953.948 L1371.98 984.573 L1379.62 984.573 L1379.62 988.508 L1359.72 988.508 L1359.72 984.573 Z" fill="#000000" fill-rule="evenodd" fill-opacity="1" /></svg>
