<?xml version="1.0" encoding="utf-8"?>
<svg xmlns="http://www.w3.org/2000/svg" xmlns:xlink="http://www.w3.org/1999/xlink" width="320" height="320" viewBox="0 0 1280 1280">
<defs>
  <clipPath id="clip300">
    <rect x="0" y="0" width="1280" height="1280"/>
  </clipPath>
</defs>
<path clip-path="url(#clip300)" d="
M0 1280 L1280 1280 L1280 0 L0 0  Z
  " fill="#ffffff" fill-rule="evenodd" fill-opacity="1"/>
<defs>
  <clipPath id="clip301">
    <rect x="256" y="128" width="897" height="897"/>
  </clipPath>
</defs>
<path clip-path="url(#clip300)" d="
M262.102 1013.5 L1232.76 1013.5 L1232.76 47.2441 L262.102 47.2441  Z
  " fill="#ffffff" fill-rule="evenodd" fill-opacity="1"/>
<defs>
  <clipPath id="clip302">
    <rect x="262" y="47" width="972" height="967"/>
  </clipPath>
</defs>
<polyline clip-path="url(#clip302)" style="stroke:#000000; stroke-linecap:butt; stroke-linejoin:round; stroke-width:2; stroke-opacity:0.1; fill:none" points="
  423.878,1013.5 423.878,47.2441 
  "/>
<polyline clip-path="url(#clip302)" style="stroke:#000000; stroke-linecap:butt; stroke-linejoin:round; stroke-width:2; stroke-opacity:0.1; fill:none" points="
  747.429,1013.5 747.429,47.2441 
  "/>
<polyline clip-path="url(#clip302)" style="stroke:#000000; stroke-linecap:butt; stroke-linejoin:round; stroke-width:2; stroke-opacity:0.1; fill:none" points="
  1070.98,1013.5 1070.98,47.2441 
  "/>
<polyline clip-path="url(#clip300)" style="stroke:#000000; stroke-linecap:butt; stroke-linejoin:round; stroke-width:4; stroke-opacity:1; fill:none" points="
  262.102,1013.5 1232.76,1013.5 
  "/>
<polyline clip-path="url(#clip300)" style="stroke:#000000; stroke-linecap:butt; stroke-linejoin:round; stroke-width:4; stroke-opacity:1; fill:none" points="
  423.878,1013.5 423.878,1001.9 
  "/>
<polyline clip-path="url(#clip300)" style="stroke:#000000; stroke-linecap:butt; stroke-linejoin:round; stroke-width:4; stroke-opacity:1; fill:none" points="
  747.429,1013.5 747.429,1001.9 
  "/>
<polyline clip-path="url(#clip300)" style="stroke:#000000; stroke-linecap:butt; stroke-linejoin:round; stroke-width:4; stroke-opacity:1; fill:none" points="
  1070.98,1013.5 1070.98,1001.9 
  "/>
<path clip-path="url(#clip300)" d="M351.135 1052.27 Q351.135 1047.57 349.191 1044.91 Q347.269 1042.23 343.89 1042.23 Q340.51 1042.23 338.566 1044.91 Q336.644 1047.57 336.644 1052.27 Q336.644 1056.97 338.566 1059.66 Q340.51 1062.32 343.89 1062.32 Q347.269 1062.32 349.191 1059.66 Q351.135 1056.97 351.135 1052.27 M336.644 1043.22 Q337.987 1040.91 340.024 1039.8 Q342.084 1038.66 344.931 1038.66 Q349.654 1038.66 352.593 1042.41 Q355.556 1046.16 355.556 1052.27 Q355.556 1058.38 352.593 1062.13 Q349.654 1065.88 344.931 1065.88 Q342.084 1065.88 340.024 1064.77 Q337.987 1063.64 336.644 1061.32 L336.644 1065.21 L332.362 1065.21 L332.362 1029.19 L336.644 1029.19 L336.644 1043.22 Z" fill="#000000" fill-rule="evenodd" fill-opacity="1" /><path clip-path="url(#clip300)" d="M362.616 1039.29 L366.876 1039.29 L366.876 1065.21 L362.616 1065.21 L362.616 1039.29 M362.616 1029.19 L366.876 1029.19 L366.876 1034.59 L362.616 1034.59 L362.616 1029.19 Z" fill="#000000" fill-rule="evenodd" fill-opacity="1" /><path clip-path="url(#clip300)" d="M392.848 1051.95 Q392.848 1047.32 390.926 1044.77 Q389.028 1042.23 385.579 1042.23 Q382.153 1042.23 380.232 1044.77 Q378.334 1047.32 378.334 1051.95 Q378.334 1056.55 380.232 1059.1 Q382.153 1061.65 385.579 1061.65 Q389.028 1061.65 390.926 1059.1 Q392.848 1056.55 392.848 1051.95 M397.107 1061.99 Q397.107 1068.61 394.167 1071.83 Q391.227 1075.07 385.163 1075.07 Q382.917 1075.07 380.927 1074.73 Q378.936 1074.4 377.061 1073.71 L377.061 1069.56 Q378.936 1070.58 380.764 1071.07 Q382.593 1071.55 384.491 1071.55 Q388.681 1071.55 390.764 1069.36 Q392.848 1067.18 392.848 1062.76 L392.848 1060.65 Q391.528 1062.94 389.468 1064.08 Q387.408 1065.21 384.538 1065.21 Q379.769 1065.21 376.852 1061.58 Q373.936 1057.94 373.936 1051.95 Q373.936 1045.93 376.852 1042.3 Q379.769 1038.66 384.538 1038.66 Q387.408 1038.66 389.468 1039.8 Q391.528 1040.93 392.848 1043.22 L392.848 1039.29 L397.107 1039.29 L397.107 1061.99 Z" fill="#000000" fill-rule="evenodd" fill-opacity="1" /><path clip-path="url(#clip300)" d="M413.449 1030.65 L417.385 1030.65 L405.348 1069.61 L401.413 1069.61 L413.449 1030.65 Z" fill="#000000" fill-rule="evenodd" fill-opacity="1" /><path clip-path="url(#clip300)" d="M421.852 1029.19 L426.111 1029.19 L426.111 1065.21 L421.852 1065.21 L421.852 1029.19 Z" fill="#000000" fill-rule="evenodd" fill-opacity="1" /><path clip-path="url(#clip300)" d="M445.07 1042.27 Q441.644 1042.27 439.653 1044.96 Q437.662 1047.62 437.662 1052.27 Q437.662 1056.92 439.63 1059.61 Q441.621 1062.27 445.07 1062.27 Q448.472 1062.27 450.463 1059.59 Q452.454 1056.9 452.454 1052.27 Q452.454 1047.67 450.463 1044.98 Q448.472 1042.27 445.07 1042.27 M445.07 1038.66 Q450.625 1038.66 453.796 1042.27 Q456.968 1045.88 456.968 1052.27 Q456.968 1058.64 453.796 1062.27 Q450.625 1065.88 445.07 1065.88 Q439.491 1065.88 436.32 1062.27 Q433.172 1058.64 433.172 1052.27 Q433.172 1045.88 436.32 1042.27 Q439.491 1038.66 445.07 1038.66 Z" fill="#000000" fill-rule="evenodd" fill-opacity="1" /><path clip-path="url(#clip300)" d="M485.579 1049.56 L485.579 1065.21 L481.32 1065.21 L481.32 1049.7 Q481.32 1046.02 479.884 1044.19 Q478.449 1042.36 475.579 1042.36 Q472.13 1042.36 470.139 1044.56 Q468.148 1046.76 468.148 1050.56 L468.148 1065.21 L463.866 1065.21 L463.866 1039.29 L468.148 1039.29 L468.148 1043.31 Q469.676 1040.98 471.736 1039.82 Q473.82 1038.66 476.528 1038.66 Q480.995 1038.66 483.287 1041.44 Q485.579 1044.19 485.579 1049.56 Z" fill="#000000" fill-rule="evenodd" fill-opacity="1" /><path clip-path="url(#clip300)" d="M511.134 1051.95 Q511.134 1047.32 509.213 1044.77 Q507.315 1042.23 503.866 1042.23 Q500.44 1042.23 498.518 1044.77 Q496.62 1047.32 496.62 1051.95 Q496.62 1056.55 498.518 1059.1 Q500.44 1061.65 503.866 1061.65 Q507.315 1061.65 509.213 1059.1 Q511.134 1056.55 511.134 1051.95 M515.393 1061.99 Q515.393 1068.61 512.454 1071.83 Q509.514 1075.07 503.449 1075.07 Q501.204 1075.07 499.213 1074.73 Q497.222 1074.4 495.347 1073.71 L495.347 1069.56 Q497.222 1070.58 499.051 1071.07 Q500.88 1071.55 502.778 1071.55 Q506.968 1071.55 509.051 1069.36 Q511.134 1067.18 511.134 1062.76 L511.134 1060.65 Q509.815 1062.94 507.755 1064.08 Q505.694 1065.21 502.824 1065.21 Q498.056 1065.21 495.139 1061.58 Q492.222 1057.94 492.222 1051.95 Q492.222 1045.93 495.139 1042.3 Q498.056 1038.66 502.824 1038.66 Q505.694 1038.66 507.755 1039.8 Q509.815 1040.93 511.134 1043.22 L511.134 1039.29 L515.393 1039.29 L515.393 1061.99 Z" fill="#000000" fill-rule="evenodd" fill-opacity="1" /><path clip-path="url(#clip300)" d="M351.644 1104.11 Q351.644 1099.41 349.7 1096.75 Q347.779 1094.07 344.399 1094.07 Q341.019 1094.07 339.075 1096.75 Q337.154 1099.41 337.154 1104.11 Q337.154 1108.81 339.075 1111.5 Q341.019 1114.16 344.399 1114.16 Q347.779 1114.16 349.7 1111.5 Q351.644 1108.81 351.644 1104.11 M337.154 1095.06 Q338.496 1092.75 340.533 1091.64 Q342.593 1090.5 345.441 1090.5 Q350.163 1090.5 353.103 1094.25 Q356.066 1098 356.066 1104.11 Q356.066 1110.22 353.103 1113.97 Q350.163 1117.72 345.441 1117.72 Q342.593 1117.72 340.533 1116.61 Q338.496 1115.48 337.154 1113.16 L337.154 1117.05 L332.871 1117.05 L332.871 1081.03 L337.154 1081.03 L337.154 1095.06 Z" fill="#000000" fill-rule="evenodd" fill-opacity="1" /><path clip-path="url(#clip300)" d="M363.126 1091.13 L367.385 1091.13 L367.385 1117.05 L363.126 1117.05 L363.126 1091.13 M363.126 1081.03 L367.385 1081.03 L367.385 1086.43 L363.126 1086.43 L363.126 1081.03 Z" fill="#000000" fill-rule="evenodd" fill-opacity="1" /><path clip-path="url(#clip300)" d="M396.482 1096.1 Q398.079 1093.23 400.301 1091.87 Q402.524 1090.5 405.533 1090.5 Q409.584 1090.5 411.783 1093.35 Q413.982 1096.17 413.982 1101.4 L413.982 1117.05 L409.7 1117.05 L409.7 1101.54 Q409.7 1097.82 408.38 1096.01 Q407.061 1094.2 404.352 1094.2 Q401.042 1094.2 399.121 1096.4 Q397.2 1098.6 397.2 1102.4 L397.2 1117.05 L392.917 1117.05 L392.917 1101.54 Q392.917 1097.79 391.598 1096.01 Q390.278 1094.2 387.524 1094.2 Q384.26 1094.2 382.339 1096.43 Q380.417 1098.63 380.417 1102.4 L380.417 1117.05 L376.135 1117.05 L376.135 1091.13 L380.417 1091.13 L380.417 1095.15 Q381.876 1092.77 383.913 1091.64 Q385.95 1090.5 388.751 1090.5 Q391.575 1090.5 393.542 1091.94 Q395.533 1093.37 396.482 1096.1 Z" fill="#000000" fill-rule="evenodd" fill-opacity="1" /><path clip-path="url(#clip300)" d="M432.523 1094.11 Q429.098 1094.11 427.107 1096.8 Q425.116 1099.46 425.116 1104.11 Q425.116 1108.76 427.084 1111.45 Q429.074 1114.11 432.523 1114.11 Q435.926 1114.11 437.917 1111.43 Q439.908 1108.74 439.908 1104.11 Q439.908 1099.51 437.917 1096.82 Q435.926 1094.11 432.523 1094.11 M432.523 1090.5 Q438.079 1090.5 441.25 1094.11 Q444.422 1097.72 444.422 1104.11 Q444.422 1110.48 441.25 1114.11 Q438.079 1117.72 432.523 1117.72 Q426.945 1117.72 423.774 1114.11 Q420.625 1110.48 420.625 1104.11 Q420.625 1097.72 423.774 1094.11 Q426.945 1090.5 432.523 1090.5 Z" fill="#000000" fill-rule="evenodd" fill-opacity="1" /><path clip-path="url(#clip300)" d="M468.542 1095.06 L468.542 1081.03 L472.801 1081.03 L472.801 1117.05 L468.542 1117.05 L468.542 1113.16 Q467.199 1115.48 465.139 1116.61 Q463.102 1117.72 460.232 1117.72 Q455.533 1117.72 452.57 1113.97 Q449.63 1110.22 449.63 1104.11 Q449.63 1098 452.57 1094.25 Q455.533 1090.5 460.232 1090.5 Q463.102 1090.5 465.139 1091.64 Q467.199 1092.75 468.542 1095.06 M454.028 1104.11 Q454.028 1108.81 455.949 1111.5 Q457.894 1114.16 461.273 1114.16 Q464.653 1114.16 466.597 1111.5 Q468.542 1108.81 468.542 1104.11 Q468.542 1099.41 466.597 1096.75 Q464.653 1094.07 461.273 1094.07 Q457.894 1094.07 455.949 1096.75 Q454.028 1099.41 454.028 1104.11 Z" fill="#000000" fill-rule="evenodd" fill-opacity="1" /><path clip-path="url(#clip300)" d="M493.356 1104.02 Q488.194 1104.02 486.204 1105.2 Q484.213 1106.38 484.213 1109.23 Q484.213 1111.5 485.694 1112.84 Q487.199 1114.16 489.769 1114.16 Q493.31 1114.16 495.44 1111.66 Q497.593 1109.14 497.593 1104.97 L497.593 1104.02 L493.356 1104.02 M501.852 1102.26 L501.852 1117.05 L497.593 1117.05 L497.593 1113.12 Q496.134 1115.48 493.958 1116.61 Q491.782 1117.72 488.634 1117.72 Q484.653 1117.72 482.292 1115.5 Q479.954 1113.26 479.954 1109.51 Q479.954 1105.13 482.87 1102.91 Q485.81 1100.69 491.62 1100.69 L497.593 1100.69 L497.593 1100.27 Q497.593 1097.33 495.648 1095.73 Q493.727 1094.11 490.231 1094.11 Q488.009 1094.11 485.903 1094.64 Q483.796 1095.18 481.852 1096.24 L481.852 1092.31 Q484.19 1091.4 486.389 1090.96 Q488.588 1090.5 490.671 1090.5 Q496.296 1090.5 499.074 1093.42 Q501.852 1096.33 501.852 1102.26 Z" fill="#000000" fill-rule="evenodd" fill-opacity="1" /><path clip-path="url(#clip300)" d="M510.625 1081.03 L514.884 1081.03 L514.884 1117.05 L510.625 1117.05 L510.625 1081.03 Z" fill="#000000" fill-rule="evenodd" fill-opacity="1" /><path clip-path="url(#clip300)" d="M674.686 1052.27 Q674.686 1047.57 672.742 1044.91 Q670.821 1042.23 667.441 1042.23 Q664.061 1042.23 662.117 1044.91 Q660.196 1047.57 660.196 1052.27 Q660.196 1056.97 662.117 1059.66 Q664.061 1062.32 667.441 1062.32 Q670.821 1062.32 672.742 1059.66 Q674.686 1056.97 674.686 1052.27 M660.196 1043.22 Q661.538 1040.91 663.575 1039.8 Q665.635 1038.66 668.483 1038.66 Q673.205 1038.66 676.145 1042.41 Q679.108 1046.16 679.108 1052.27 Q679.108 1058.38 676.145 1062.13 Q673.205 1065.88 668.483 1065.88 Q665.635 1065.88 663.575 1064.77 Q661.538 1063.64 660.196 1061.32 L660.196 1065.21 L655.913 1065.21 L655.913 1029.19 L660.196 1029.19 L660.196 1043.22 Z" fill="#000000" fill-rule="evenodd" fill-opacity="1" /><path clip-path="url(#clip300)" d="M686.168 1039.29 L690.427 1039.29 L690.427 1065.21 L686.168 1065.21 L686.168 1039.29 M686.168 1029.19 L690.427 1029.19 L690.427 1034.59 L686.168 1034.59 L686.168 1029.19 Z" fill="#000000" fill-rule="evenodd" fill-opacity="1" /><path clip-path="url(#clip300)" d="M716.399 1051.95 Q716.399 1047.32 714.478 1044.77 Q712.58 1042.23 709.131 1042.23 Q705.705 1042.23 703.783 1044.77 Q701.885 1047.32 701.885 1051.95 Q701.885 1056.55 703.783 1059.1 Q705.705 1061.65 709.131 1061.65 Q712.58 1061.65 714.478 1059.1 Q716.399 1056.55 716.399 1051.95 M720.658 1061.99 Q720.658 1068.61 717.718 1071.83 Q714.779 1075.07 708.714 1075.07 Q706.469 1075.07 704.478 1074.73 Q702.487 1074.4 700.612 1073.71 L700.612 1069.56 Q702.487 1070.58 704.316 1071.07 Q706.144 1071.55 708.043 1071.55 Q712.232 1071.55 714.316 1069.36 Q716.399 1067.18 716.399 1062.76 L716.399 1060.65 Q715.08 1062.94 713.019 1064.08 Q710.959 1065.21 708.089 1065.21 Q703.32 1065.21 700.404 1061.58 Q697.487 1057.94 697.487 1051.95 Q697.487 1045.93 700.404 1042.3 Q703.32 1038.66 708.089 1038.66 Q710.959 1038.66 713.019 1039.8 Q715.08 1040.93 716.399 1043.22 L716.399 1039.29 L720.658 1039.29 L720.658 1061.99 Z" fill="#000000" fill-rule="evenodd" fill-opacity="1" /><path clip-path="url(#clip300)" d="M737.001 1030.65 L740.936 1030.65 L728.899 1069.61 L724.964 1069.61 L737.001 1030.65 Z" fill="#000000" fill-rule="evenodd" fill-opacity="1" /><path clip-path="url(#clip300)" d="M745.404 1029.19 L749.663 1029.19 L749.663 1065.21 L745.404 1065.21 L745.404 1029.19 Z" fill="#000000" fill-rule="evenodd" fill-opacity="1" /><path clip-path="url(#clip300)" d="M768.621 1042.27 Q765.195 1042.27 763.204 1044.96 Q761.214 1047.62 761.214 1052.27 Q761.214 1056.92 763.181 1059.61 Q765.172 1062.27 768.621 1062.27 Q772.024 1062.27 774.014 1059.59 Q776.005 1056.9 776.005 1052.27 Q776.005 1047.67 774.014 1044.98 Q772.024 1042.27 768.621 1042.27 M768.621 1038.66 Q774.177 1038.66 777.348 1042.27 Q780.519 1045.88 780.519 1052.27 Q780.519 1058.64 777.348 1062.27 Q774.177 1065.88 768.621 1065.88 Q763.042 1065.88 759.871 1062.27 Q756.723 1058.64 756.723 1052.27 Q756.723 1045.88 759.871 1042.27 Q763.042 1038.66 768.621 1038.66 Z" fill="#000000" fill-rule="evenodd" fill-opacity="1" /><path clip-path="url(#clip300)" d="M809.13 1049.56 L809.13 1065.21 L804.871 1065.21 L804.871 1049.7 Q804.871 1046.02 803.436 1044.19 Q802 1042.36 799.13 1042.36 Q795.681 1042.36 793.69 1044.56 Q791.7 1046.76 791.7 1050.56 L791.7 1065.21 L787.417 1065.21 L787.417 1039.29 L791.7 1039.29 L791.7 1043.31 Q793.227 1040.98 795.288 1039.82 Q797.371 1038.66 800.079 1038.66 Q804.547 1038.66 806.838 1041.44 Q809.13 1044.19 809.13 1049.56 Z" fill="#000000" fill-rule="evenodd" fill-opacity="1" /><path clip-path="url(#clip300)" d="M834.685 1051.95 Q834.685 1047.32 832.764 1044.77 Q830.866 1042.23 827.417 1042.23 Q823.991 1042.23 822.07 1044.77 Q820.172 1047.32 820.172 1051.95 Q820.172 1056.55 822.07 1059.1 Q823.991 1061.65 827.417 1061.65 Q830.866 1061.65 832.764 1059.1 Q834.685 1056.55 834.685 1051.95 M838.945 1061.99 Q838.945 1068.61 836.005 1071.83 Q833.065 1075.07 827 1075.07 Q824.755 1075.07 822.764 1074.73 Q820.773 1074.4 818.898 1073.71 L818.898 1069.56 Q820.773 1070.58 822.602 1071.07 Q824.431 1071.55 826.329 1071.55 Q830.519 1071.55 832.602 1069.36 Q834.685 1067.18 834.685 1062.76 L834.685 1060.65 Q833.366 1062.94 831.306 1064.08 Q829.246 1065.21 826.375 1065.21 Q821.607 1065.21 818.69 1061.58 Q815.774 1057.94 815.774 1051.95 Q815.774 1045.93 818.69 1042.3 Q821.607 1038.66 826.375 1038.66 Q829.246 1038.66 831.306 1039.8 Q833.366 1040.93 834.685 1043.22 L834.685 1039.29 L838.945 1039.29 L838.945 1061.99 Z" fill="#000000" fill-rule="evenodd" fill-opacity="1" /><path clip-path="url(#clip300)" d="M641.284 1106.82 L641.284 1091.13 L645.543 1091.13 L645.543 1106.66 Q645.543 1110.34 646.978 1112.19 Q648.413 1114.02 651.284 1114.02 Q654.733 1114.02 656.723 1111.82 Q658.737 1109.62 658.737 1105.83 L658.737 1091.13 L662.997 1091.13 L662.997 1117.05 L658.737 1117.05 L658.737 1113.07 Q657.186 1115.43 655.126 1116.59 Q653.089 1117.72 650.381 1117.72 Q645.913 1117.72 643.599 1114.95 Q641.284 1112.17 641.284 1106.82 M652.001 1090.5 L652.001 1090.5 Z" fill="#000000" fill-rule="evenodd" fill-opacity="1" /><path clip-path="url(#clip300)" d="M693.32 1101.4 L693.32 1117.05 L689.061 1117.05 L689.061 1101.54 Q689.061 1097.86 687.626 1096.03 Q686.191 1094.2 683.321 1094.2 Q679.871 1094.2 677.881 1096.4 Q675.89 1098.6 675.89 1102.4 L675.89 1117.05 L671.608 1117.05 L671.608 1091.13 L675.89 1091.13 L675.89 1095.15 Q677.418 1092.82 679.478 1091.66 Q681.561 1090.5 684.27 1090.5 Q688.737 1090.5 691.029 1093.28 Q693.32 1096.03 693.32 1101.4 Z" fill="#000000" fill-rule="evenodd" fill-opacity="1" /><path clip-path="url(#clip300)" d="M701.816 1091.13 L706.075 1091.13 L706.075 1117.05 L701.816 1117.05 L701.816 1091.13 M701.816 1081.03 L706.075 1081.03 L706.075 1086.43 L701.816 1086.43 L701.816 1081.03 Z" fill="#000000" fill-rule="evenodd" fill-opacity="1" /><path clip-path="url(#clip300)" d="M735.172 1096.1 Q736.769 1093.23 738.992 1091.87 Q741.214 1090.5 744.223 1090.5 Q748.274 1090.5 750.473 1093.35 Q752.672 1096.17 752.672 1101.4 L752.672 1117.05 L748.39 1117.05 L748.39 1101.54 Q748.39 1097.82 747.07 1096.01 Q745.751 1094.2 743.042 1094.2 Q739.732 1094.2 737.811 1096.4 Q735.89 1098.6 735.89 1102.4 L735.89 1117.05 L731.607 1117.05 L731.607 1101.54 Q731.607 1097.79 730.288 1096.01 Q728.968 1094.2 726.214 1094.2 Q722.95 1094.2 721.029 1096.43 Q719.107 1098.63 719.107 1102.4 L719.107 1117.05 L714.825 1117.05 L714.825 1091.13 L719.107 1091.13 L719.107 1095.15 Q720.566 1092.77 722.603 1091.64 Q724.64 1090.5 727.441 1090.5 Q730.265 1090.5 732.232 1091.94 Q734.223 1093.37 735.172 1096.1 Z" fill="#000000" fill-rule="evenodd" fill-opacity="1" /><path clip-path="url(#clip300)" d="M771.214 1094.11 Q767.788 1094.11 765.797 1096.8 Q763.806 1099.46 763.806 1104.11 Q763.806 1108.76 765.774 1111.45 Q767.765 1114.11 771.214 1114.11 Q774.616 1114.11 776.607 1111.43 Q778.598 1108.74 778.598 1104.11 Q778.598 1099.51 776.607 1096.82 Q774.616 1094.11 771.214 1094.11 M771.214 1090.5 Q776.769 1090.5 779.94 1094.11 Q783.112 1097.72 783.112 1104.11 Q783.112 1110.48 779.94 1114.11 Q776.769 1117.72 771.214 1117.72 Q765.635 1117.72 762.464 1114.11 Q759.315 1110.48 759.315 1104.11 Q759.315 1097.72 762.464 1094.11 Q765.635 1090.5 771.214 1090.5 Z" fill="#000000" fill-rule="evenodd" fill-opacity="1" /><path clip-path="url(#clip300)" d="M807.232 1095.06 L807.232 1081.03 L811.491 1081.03 L811.491 1117.05 L807.232 1117.05 L807.232 1113.16 Q805.889 1115.48 803.829 1116.61 Q801.792 1117.72 798.922 1117.72 Q794.223 1117.72 791.26 1113.97 Q788.32 1110.22 788.32 1104.11 Q788.32 1098 791.26 1094.25 Q794.223 1090.5 798.922 1090.5 Q801.792 1090.5 803.829 1091.64 Q805.889 1092.75 807.232 1095.06 M792.718 1104.11 Q792.718 1108.81 794.639 1111.5 Q796.584 1114.16 799.963 1114.16 Q803.343 1114.16 805.287 1111.5 Q807.232 1108.81 807.232 1104.11 Q807.232 1099.41 805.287 1096.75 Q803.343 1094.07 799.963 1094.07 Q796.584 1094.07 794.639 1096.75 Q792.718 1099.41 792.718 1104.11 Z" fill="#000000" fill-rule="evenodd" fill-opacity="1" /><path clip-path="url(#clip300)" d="M832.047 1104.02 Q826.885 1104.02 824.894 1105.2 Q822.903 1106.38 822.903 1109.23 Q822.903 1111.5 824.385 1112.84 Q825.889 1114.16 828.459 1114.16 Q832 1114.16 834.13 1111.66 Q836.283 1109.14 836.283 1104.97 L836.283 1104.02 L832.047 1104.02 M840.542 1102.26 L840.542 1117.05 L836.283 1117.05 L836.283 1113.12 Q834.824 1115.48 832.648 1116.61 Q830.473 1117.72 827.324 1117.72 Q823.343 1117.72 820.982 1115.5 Q818.644 1113.26 818.644 1109.51 Q818.644 1105.13 821.561 1102.91 Q824.5 1100.69 830.31 1100.69 L836.283 1100.69 L836.283 1100.27 Q836.283 1097.33 834.338 1095.73 Q832.417 1094.11 828.922 1094.11 Q826.699 1094.11 824.593 1094.64 Q822.486 1095.18 820.542 1096.24 L820.542 1092.31 Q822.88 1091.4 825.079 1090.96 Q827.278 1090.5 829.361 1090.5 Q834.986 1090.5 837.764 1093.42 Q840.542 1096.33 840.542 1102.26 Z" fill="#000000" fill-rule="evenodd" fill-opacity="1" /><path clip-path="url(#clip300)" d="M849.315 1081.03 L853.574 1081.03 L853.574 1117.05 L849.315 1117.05 L849.315 1081.03 Z" fill="#000000" fill-rule="evenodd" fill-opacity="1" /><path clip-path="url(#clip300)" d="M977.184 1051.18 L977.184 1053.27 L957.601 1053.27 Q957.879 1057.67 960.24 1059.98 Q962.624 1062.27 966.86 1062.27 Q969.314 1062.27 971.606 1061.67 Q973.921 1061.07 976.189 1059.86 L976.189 1063.89 Q973.897 1064.86 971.49 1065.37 Q969.083 1065.88 966.606 1065.88 Q960.402 1065.88 956.768 1062.27 Q953.157 1058.66 953.157 1052.5 Q953.157 1046.14 956.583 1042.41 Q960.032 1038.66 965.865 1038.66 Q971.097 1038.66 974.129 1042.04 Q977.184 1045.4 977.184 1051.18 M972.925 1049.93 Q972.879 1046.44 970.958 1044.36 Q969.06 1042.27 965.911 1042.27 Q962.347 1042.27 960.194 1044.29 Q958.064 1046.3 957.74 1049.96 L972.925 1049.93 Z" fill="#000000" fill-rule="evenodd" fill-opacity="1" /><path clip-path="url(#clip300)" d="M1004.89 1039.29 L995.518 1051.9 L1005.38 1065.21 L1000.36 1065.21 L992.809 1055.03 L985.263 1065.21 L980.24 1065.21 L990.309 1051.65 L981.096 1039.29 L986.12 1039.29 L992.995 1048.52 L999.87 1039.29 L1004.89 1039.29 Z" fill="#000000" fill-rule="evenodd" fill-opacity="1" /><path clip-path="url(#clip300)" d="M1015.52 1061.32 L1015.52 1075.07 L1011.24 1075.07 L1011.24 1039.29 L1015.52 1039.29 L1015.52 1043.22 Q1016.86 1040.91 1018.9 1039.8 Q1020.96 1038.66 1023.8 1038.66 Q1028.53 1038.66 1031.47 1042.41 Q1034.43 1046.16 1034.43 1052.27 Q1034.43 1058.38 1031.47 1062.13 Q1028.53 1065.88 1023.8 1065.88 Q1020.96 1065.88 1018.9 1064.77 Q1016.86 1063.64 1015.52 1061.32 M1030.01 1052.27 Q1030.01 1047.57 1028.06 1044.91 Q1026.14 1042.23 1022.76 1042.23 Q1019.38 1042.23 1017.44 1044.91 Q1015.52 1047.57 1015.52 1052.27 Q1015.52 1056.97 1017.44 1059.66 Q1019.38 1062.32 1022.76 1062.32 Q1026.14 1062.32 1028.06 1059.66 Q1030.01 1056.97 1030.01 1052.27 Z" fill="#000000" fill-rule="evenodd" fill-opacity="1" /><path clip-path="url(#clip300)" d="M1063.67 1051.18 L1063.67 1053.27 L1044.08 1053.27 Q1044.36 1057.67 1046.72 1059.98 Q1049.11 1062.27 1053.34 1062.27 Q1055.8 1062.27 1058.09 1061.67 Q1060.4 1061.07 1062.67 1059.86 L1062.67 1063.89 Q1060.38 1064.86 1057.97 1065.37 Q1055.56 1065.88 1053.09 1065.88 Q1046.88 1065.88 1043.25 1062.27 Q1039.64 1058.66 1039.64 1052.5 Q1039.64 1046.14 1043.06 1042.41 Q1046.51 1038.66 1052.35 1038.66 Q1057.58 1038.66 1060.61 1042.04 Q1063.67 1045.4 1063.67 1051.18 M1059.41 1049.93 Q1059.36 1046.44 1057.44 1044.36 Q1055.54 1042.27 1052.39 1042.27 Q1048.83 1042.27 1046.67 1044.29 Q1044.55 1046.3 1044.22 1049.96 L1059.41 1049.93 Z" fill="#000000" fill-rule="evenodd" fill-opacity="1" /><path clip-path="url(#clip300)" d="M1092.21 1049.56 L1092.21 1065.21 L1087.95 1065.21 L1087.95 1049.7 Q1087.95 1046.02 1086.51 1044.19 Q1085.08 1042.36 1082.21 1042.36 Q1078.76 1042.36 1076.77 1044.56 Q1074.78 1046.76 1074.78 1050.56 L1074.78 1065.21 L1070.49 1065.21 L1070.49 1039.29 L1074.78 1039.29 L1074.78 1043.31 Q1076.3 1040.98 1078.36 1039.82 Q1080.45 1038.66 1083.16 1038.66 Q1087.62 1038.66 1089.92 1041.44 Q1092.21 1044.19 1092.21 1049.56 Z" fill="#000000" fill-rule="evenodd" fill-opacity="1" /><path clip-path="url(#clip300)" d="M1117.23 1040.05 L1117.23 1044.08 Q1115.42 1043.15 1113.48 1042.69 Q1111.54 1042.23 1109.45 1042.23 Q1106.28 1042.23 1104.68 1043.2 Q1103.11 1044.17 1103.11 1046.11 Q1103.11 1047.6 1104.24 1048.45 Q1105.38 1049.29 1108.8 1050.05 L1110.26 1050.37 Q1114.8 1051.35 1116.7 1053.13 Q1118.62 1054.89 1118.62 1058.06 Q1118.62 1061.67 1115.75 1063.78 Q1112.9 1065.88 1107.9 1065.88 Q1105.82 1065.88 1103.55 1065.47 Q1101.3 1065.07 1098.8 1064.26 L1098.8 1059.86 Q1101.17 1061.09 1103.46 1061.72 Q1105.75 1062.32 1107.99 1062.32 Q1111 1062.32 1112.62 1061.3 Q1114.24 1060.26 1114.24 1058.38 Q1114.24 1056.65 1113.06 1055.72 Q1111.91 1054.8 1107.95 1053.94 L1106.47 1053.59 Q1102.51 1052.76 1100.75 1051.05 Q1098.99 1049.31 1098.99 1046.3 Q1098.99 1042.64 1101.58 1040.65 Q1104.17 1038.66 1108.94 1038.66 Q1111.3 1038.66 1113.39 1039.01 Q1115.47 1039.36 1117.23 1040.05 Z" fill="#000000" fill-rule="evenodd" fill-opacity="1" /><path clip-path="url(#clip300)" d="M1125.4 1039.29 L1129.66 1039.29 L1129.66 1065.21 L1125.4 1065.21 L1125.4 1039.29 M1125.4 1029.19 L1129.66 1029.19 L1129.66 1034.59 L1125.4 1034.59 L1125.4 1029.19 Z" fill="#000000" fill-rule="evenodd" fill-opacity="1" /><path clip-path="url(#clip300)" d="M1135.52 1039.29 L1140.03 1039.29 L1148.13 1061.05 L1156.23 1039.29 L1160.75 1039.29 L1151.03 1065.21 L1145.24 1065.21 L1135.52 1039.29 Z" fill="#000000" fill-rule="evenodd" fill-opacity="1" /><path clip-path="url(#clip300)" d="M1188.8 1051.18 L1188.8 1053.27 L1169.22 1053.27 Q1169.5 1057.67 1171.86 1059.98 Q1174.24 1062.27 1178.48 1062.27 Q1180.93 1062.27 1183.23 1061.67 Q1185.54 1061.07 1187.81 1059.86 L1187.81 1063.89 Q1185.52 1064.86 1183.11 1065.37 Q1180.7 1065.88 1178.23 1065.88 Q1172.02 1065.88 1168.39 1062.27 Q1164.78 1058.66 1164.78 1052.5 Q1164.78 1046.14 1168.2 1042.41 Q1171.65 1038.66 1177.48 1038.66 Q1182.72 1038.66 1185.75 1042.04 Q1188.8 1045.4 1188.8 1051.18 M1184.54 1049.93 Q1184.5 1046.44 1182.58 1044.36 Q1180.68 1042.27 1177.53 1042.27 Q1173.97 1042.27 1171.81 1044.29 Q1169.68 1046.3 1169.36 1049.96 L1184.54 1049.93 Z" fill="#000000" fill-rule="evenodd" fill-opacity="1" /><path clip-path="url(#clip300)" d="M423.001 1175.48 Q415.903 1175.48 413.166 1177.11 Q410.428 1178.73 410.428 1182.65 Q410.428 1185.76 412.465 1187.61 Q414.534 1189.43 418.067 1189.43 Q422.937 1189.43 425.865 1185.99 Q428.825 1182.52 428.825 1176.79 L428.825 1175.48 L423.001 1175.48 M434.682 1173.07 L434.682 1193.4 L428.825 1193.4 L428.825 1187.99 Q426.82 1191.24 423.828 1192.8 Q420.836 1194.33 416.508 1194.33 Q411.033 1194.33 407.787 1191.27 Q404.572 1188.18 404.572 1183.03 Q404.572 1177.01 408.582 1173.96 Q412.625 1170.9 420.614 1170.9 L428.825 1170.9 L428.825 1170.33 Q428.825 1166.29 426.152 1164.09 Q423.51 1161.86 418.704 1161.86 Q415.648 1161.86 412.752 1162.59 Q409.856 1163.33 407.182 1164.79 L407.182 1159.38 Q410.397 1158.14 413.42 1157.53 Q416.444 1156.9 419.309 1156.9 Q427.043 1156.9 430.862 1160.91 Q434.682 1164.92 434.682 1173.07 Z" fill="#000000" fill-rule="evenodd" fill-opacity="1" /><path clip-path="url(#clip300)" d="M470.202 1163.17 L470.202 1143.88 L476.059 1143.88 L476.059 1193.4 L470.202 1193.4 L470.202 1188.06 Q468.356 1191.24 465.524 1192.8 Q462.723 1194.33 458.776 1194.33 Q452.315 1194.33 448.241 1189.17 Q444.199 1184.01 444.199 1175.61 Q444.199 1167.21 448.241 1162.05 Q452.315 1156.9 458.776 1156.9 Q462.723 1156.9 465.524 1158.46 Q468.356 1159.98 470.202 1163.17 M450.246 1175.61 Q450.246 1182.07 452.888 1185.76 Q455.561 1189.43 460.208 1189.43 Q464.855 1189.43 467.529 1185.76 Q470.202 1182.07 470.202 1175.61 Q470.202 1169.15 467.529 1165.49 Q464.855 1161.8 460.208 1161.8 Q455.561 1161.8 452.888 1165.49 Q450.246 1169.15 450.246 1175.61 Z" fill="#000000" fill-rule="evenodd" fill-opacity="1" /><path clip-path="url(#clip300)" d="M488.122 1157.76 L493.978 1157.76 L493.978 1194.04 Q493.978 1200.85 491.368 1203.91 Q488.79 1206.96 483.029 1206.96 L480.801 1206.96 L480.801 1202 L482.361 1202 Q485.703 1202 486.912 1200.44 Q488.122 1198.91 488.122 1194.04 L488.122 1157.76 M488.122 1143.88 L493.978 1143.88 L493.978 1151.29 L488.122 1151.29 L488.122 1143.88 Z" fill="#000000" fill-rule="evenodd" fill-opacity="1" /><path clip-path="url(#clip300)" d="M536.724 1174.12 L536.724 1176.98 L509.797 1176.98 Q510.179 1183.03 513.426 1186.21 Q516.704 1189.36 522.529 1189.36 Q525.902 1189.36 529.053 1188.53 Q532.236 1187.71 535.355 1186.05 L535.355 1191.59 Q532.204 1192.93 528.894 1193.63 Q525.584 1194.33 522.178 1194.33 Q513.648 1194.33 508.651 1189.36 Q503.686 1184.4 503.686 1175.93 Q503.686 1167.18 508.397 1162.05 Q513.139 1156.9 521.16 1156.9 Q528.353 1156.9 532.523 1161.54 Q536.724 1166.16 536.724 1174.12 M530.868 1172.4 Q530.804 1167.59 528.162 1164.73 Q525.552 1161.86 521.224 1161.86 Q516.322 1161.86 513.362 1164.63 Q510.434 1167.4 509.988 1172.43 L530.868 1172.4 Z" fill="#000000" fill-rule="evenodd" fill-opacity="1" /><path clip-path="url(#clip300)" d="M571.99 1159.12 L571.99 1164.6 Q569.507 1163.23 566.993 1162.56 Q564.51 1161.86 561.964 1161.86 Q556.267 1161.86 553.116 1165.49 Q549.965 1169.09 549.965 1175.61 Q549.965 1182.14 553.116 1185.76 Q556.267 1189.36 561.964 1189.36 Q564.51 1189.36 566.993 1188.69 Q569.507 1187.99 571.99 1186.62 L571.99 1192.04 Q569.539 1193.18 566.898 1193.75 Q564.288 1194.33 561.328 1194.33 Q553.275 1194.33 548.532 1189.27 Q543.79 1184.21 543.79 1175.61 Q543.79 1166.89 548.564 1161.89 Q553.37 1156.9 561.709 1156.9 Q564.415 1156.9 566.993 1157.47 Q569.571 1158.01 571.99 1159.12 Z" fill="#000000" fill-rule="evenodd" fill-opacity="1" /><path clip-path="url(#clip300)" d="M587.968 1147.63 L587.968 1157.76 L600.031 1157.76 L600.031 1162.31 L587.968 1162.31 L587.968 1181.66 Q587.968 1186.02 589.146 1187.26 Q590.355 1188.5 594.015 1188.5 L600.031 1188.5 L600.031 1193.4 L594.015 1193.4 Q587.236 1193.4 584.658 1190.89 Q582.08 1188.34 582.08 1181.66 L582.08 1162.31 L577.783 1162.31 L577.783 1157.76 L582.08 1157.76 L582.08 1147.63 L587.968 1147.63 Z" fill="#000000" fill-rule="evenodd" fill-opacity="1" /><path clip-path="url(#clip300)" d="M607.734 1157.76 L613.59 1157.76 L613.59 1193.4 L607.734 1193.4 L607.734 1157.76 M607.734 1143.88 L613.59 1143.88 L613.59 1151.29 L607.734 1151.29 L607.734 1143.88 Z" fill="#000000" fill-rule="evenodd" fill-opacity="1" /><path clip-path="url(#clip300)" d="M621.643 1157.76 L627.849 1157.76 L638.989 1187.67 L650.129 1157.76 L656.336 1157.76 L642.968 1193.4 L635.011 1193.4 L621.643 1157.76 Z" fill="#000000" fill-rule="evenodd" fill-opacity="1" /><path clip-path="url(#clip300)" d="M694.912 1174.12 L694.912 1176.98 L667.985 1176.98 Q668.367 1183.03 671.613 1186.21 Q674.892 1189.36 680.716 1189.36 Q684.09 1189.36 687.241 1188.53 Q690.424 1187.71 693.543 1186.05 L693.543 1191.59 Q690.392 1192.93 687.082 1193.63 Q683.772 1194.33 680.366 1194.33 Q671.836 1194.33 666.839 1189.36 Q661.874 1184.4 661.874 1175.93 Q661.874 1167.18 666.584 1162.05 Q671.327 1156.9 679.348 1156.9 Q686.541 1156.9 690.711 1161.54 Q694.912 1166.16 694.912 1174.12 M689.055 1172.4 Q688.992 1167.59 686.35 1164.73 Q683.74 1161.86 679.411 1161.86 Q674.51 1161.86 671.55 1164.63 Q668.622 1167.4 668.176 1172.43 L689.055 1172.4 Z" fill="#000000" fill-rule="evenodd" fill-opacity="1" /><path clip-path="url(#clip300)" d="M749.084 1152.54 L749.084 1170.26 L766.813 1170.26 L766.813 1175.68 L749.084 1175.68 L749.084 1193.4 L743.737 1193.4 L743.737 1175.68 L726.008 1175.68 L726.008 1170.26 L743.737 1170.26 L743.737 1152.54 L749.084 1152.54 Z" fill="#000000" fill-rule="evenodd" fill-opacity="1" /><path clip-path="url(#clip300)" d="M826.236 1159.12 L826.236 1164.6 Q823.754 1163.23 821.239 1162.56 Q818.757 1161.86 816.21 1161.86 Q810.513 1161.86 807.362 1165.49 Q804.211 1169.09 804.211 1175.61 Q804.211 1182.14 807.362 1185.76 Q810.513 1189.36 816.21 1189.36 Q818.757 1189.36 821.239 1188.69 Q823.754 1187.99 826.236 1186.62 L826.236 1192.04 Q823.786 1193.18 821.144 1193.75 Q818.534 1194.33 815.574 1194.33 Q807.521 1194.33 802.779 1189.27 Q798.036 1184.21 798.036 1175.61 Q798.036 1166.89 802.811 1161.89 Q807.617 1156.9 815.956 1156.9 Q818.661 1156.9 821.239 1157.47 Q823.817 1158.01 826.236 1159.12 Z" fill="#000000" fill-rule="evenodd" fill-opacity="1" /><path clip-path="url(#clip300)" d="M850.235 1161.86 Q845.525 1161.86 842.787 1165.55 Q840.05 1169.21 840.05 1175.61 Q840.05 1182.01 842.755 1185.7 Q845.493 1189.36 850.235 1189.36 Q854.914 1189.36 857.651 1185.67 Q860.388 1181.98 860.388 1175.61 Q860.388 1169.28 857.651 1165.59 Q854.914 1161.86 850.235 1161.86 M850.235 1156.9 Q857.874 1156.9 862.234 1161.86 Q866.595 1166.83 866.595 1175.61 Q866.595 1184.36 862.234 1189.36 Q857.874 1194.33 850.235 1194.33 Q842.564 1194.33 838.204 1189.36 Q833.875 1184.36 833.875 1175.61 Q833.875 1166.83 838.204 1161.86 Q842.564 1156.9 850.235 1156.9 Z" fill="#000000" fill-rule="evenodd" fill-opacity="1" /><path clip-path="url(#clip300)" d="M905.935 1171.89 L905.935 1193.4 L900.079 1193.4 L900.079 1172.08 Q900.079 1167.02 898.105 1164.5 Q896.132 1161.99 892.185 1161.99 Q887.443 1161.99 884.705 1165.01 Q881.968 1168.04 881.968 1173.26 L881.968 1193.4 L876.08 1193.4 L876.08 1157.76 L881.968 1157.76 L881.968 1163.29 Q884.069 1160.08 886.902 1158.49 Q889.766 1156.9 893.49 1156.9 Q899.633 1156.9 902.784 1160.72 Q905.935 1164.5 905.935 1171.89 Z" fill="#000000" fill-rule="evenodd" fill-opacity="1" /><path clip-path="url(#clip300)" d="M941.074 1163.17 L941.074 1143.88 L946.93 1143.88 L946.93 1193.4 L941.074 1193.4 L941.074 1188.06 Q939.228 1191.24 936.395 1192.8 Q933.594 1194.33 929.647 1194.33 Q923.186 1194.33 919.112 1189.17 Q915.07 1184.01 915.07 1175.61 Q915.07 1167.21 919.112 1162.05 Q923.186 1156.9 929.647 1156.9 Q933.594 1156.9 936.395 1158.46 Q939.228 1159.98 941.074 1163.17 M921.117 1175.61 Q921.117 1182.07 923.759 1185.76 Q926.433 1189.43 931.08 1189.43 Q935.727 1189.43 938.4 1185.76 Q941.074 1182.07 941.074 1175.61 Q941.074 1169.15 938.4 1165.49 Q935.727 1161.8 931.08 1161.8 Q926.433 1161.8 923.759 1165.49 Q921.117 1169.15 921.117 1175.61 Z" fill="#000000" fill-rule="evenodd" fill-opacity="1" /><path clip-path="url(#clip300)" d="M958.993 1157.76 L964.85 1157.76 L964.85 1193.4 L958.993 1193.4 L958.993 1157.76 M958.993 1143.88 L964.85 1143.88 L964.85 1151.29 L958.993 1151.29 L958.993 1143.88 Z" fill="#000000" fill-rule="evenodd" fill-opacity="1" /><path clip-path="url(#clip300)" d="M982.896 1147.63 L982.896 1157.76 L994.959 1157.76 L994.959 1162.31 L982.896 1162.31 L982.896 1181.66 Q982.896 1186.02 984.074 1187.26 Q985.284 1188.5 988.944 1188.5 L994.959 1188.5 L994.959 1193.4 L988.944 1193.4 Q982.164 1193.4 979.586 1190.89 Q977.008 1188.34 977.008 1181.66 L977.008 1162.31 L972.711 1162.31 L972.711 1157.76 L977.008 1157.76 L977.008 1147.63 L982.896 1147.63 Z" fill="#000000" fill-rule="evenodd" fill-opacity="1" /><path clip-path="url(#clip300)" d="M1002.66 1157.76 L1008.52 1157.76 L1008.52 1193.4 L1002.66 1193.4 L1002.66 1157.76 M1002.66 1143.88 L1008.52 1143.88 L1008.52 1151.29 L1002.66 1151.29 L1002.66 1143.88 Z" fill="#000000" fill-rule="evenodd" fill-opacity="1" /><path clip-path="url(#clip300)" d="M1034.59 1161.86 Q1029.88 1161.86 1027.14 1165.55 Q1024.4 1169.21 1024.4 1175.61 Q1024.4 1182.01 1027.11 1185.7 Q1029.84 1189.36 1034.59 1189.36 Q1039.26 1189.36 1042 1185.67 Q1044.74 1181.98 1044.74 1175.61 Q1044.74 1169.28 1042 1165.59 Q1039.26 1161.86 1034.59 1161.86 M1034.59 1156.9 Q1042.22 1156.9 1046.59 1161.86 Q1050.95 1166.83 1050.95 1175.61 Q1050.95 1184.36 1046.59 1189.36 Q1042.22 1194.33 1034.59 1194.33 Q1026.92 1194.33 1022.55 1189.36 Q1018.23 1184.36 1018.23 1175.61 Q1018.23 1166.83 1022.55 1161.86 Q1026.92 1156.9 1034.59 1156.9 Z" fill="#000000" fill-rule="evenodd" fill-opacity="1" /><path clip-path="url(#clip300)" d="M1090.29 1171.89 L1090.29 1193.4 L1084.43 1193.4 L1084.43 1172.08 Q1084.43 1167.02 1082.46 1164.5 Q1080.48 1161.99 1076.54 1161.99 Q1071.79 1161.99 1069.06 1165.01 Q1066.32 1168.04 1066.32 1173.26 L1066.32 1193.4 L1060.43 1193.4 L1060.43 1157.76 L1066.32 1157.76 L1066.32 1163.29 Q1068.42 1160.08 1071.25 1158.49 Q1074.12 1156.9 1077.84 1156.9 Q1083.98 1156.9 1087.13 1160.72 Q1090.29 1164.5 1090.29 1171.89 Z" fill="#000000" fill-rule="evenodd" fill-opacity="1" /><polyline clip-path="url(#clip302)" style="stroke:#000000; stroke-linecap:butt; stroke-linejoin:round; stroke-width:2; stroke-opacity:0.1; fill:none" points="
  262.102,916.874 1232.76,916.874 
  "/>
<polyline clip-path="url(#clip302)" style="stroke:#000000; stroke-linecap:butt; stroke-linejoin:round; stroke-width:2; stroke-opacity:0.1; fill:none" points="
  262.102,675.31 1232.76,675.31 
  "/>
<polyline clip-path="url(#clip302)" style="stroke:#000000; stroke-linecap:butt; stroke-linejoin:round; stroke-width:2; stroke-opacity:0.1; fill:none" points="
  262.102,433.746 1232.76,433.746 
  "/>
<polyline clip-path="url(#clip302)" style="stroke:#000000; stroke-linecap:butt; stroke-linejoin:round; stroke-width:2; stroke-opacity:0.1; fill:none" points="
  262.102,192.182 1232.76,192.182 
  "/>
<polyline clip-path="url(#clip300)" style="stroke:#000000; stroke-linecap:butt; stroke-linejoin:round; stroke-width:4; stroke-opacity:1; fill:none" points="
  262.102,1013.5 262.102,47.2441 
  "/>
<polyline clip-path="url(#clip300)" style="stroke:#000000; stroke-linecap:butt; stroke-linejoin:round; stroke-width:4; stroke-opacity:1; fill:none" points="
  262.102,916.874 273.75,916.874 
  "/>
<polyline clip-path="url(#clip300)" style="stroke:#000000; stroke-linecap:butt; stroke-linejoin:round; stroke-width:4; stroke-opacity:1; fill:none" points="
  262.102,675.31 273.75,675.31 
  "/>
<polyline clip-path="url(#clip300)" style="stroke:#000000; stroke-linecap:butt; stroke-linejoin:round; stroke-width:4; stroke-opacity:1; fill:none" points="
  262.102,433.746 273.75,433.746 
  "/>
<polyline clip-path="url(#clip300)" style="stroke:#000000; stroke-linecap:butt; stroke-linejoin:round; stroke-width:4; stroke-opacity:1; fill:none" points="
  262.102,192.182 273.75,192.182 
  "/>
<path clip-path="url(#clip300)" d="M155.565 902.673 Q151.953 902.673 150.125 906.238 Q148.319 909.779 148.319 916.909 Q148.319 924.015 150.125 927.58 Q151.953 931.122 155.565 931.122 Q159.199 931.122 161.004 927.58 Q162.833 924.015 162.833 916.909 Q162.833 909.779 161.004 906.238 Q159.199 902.673 155.565 902.673 M155.565 898.969 Q161.375 898.969 164.43 903.576 Q167.509 908.159 167.509 916.909 Q167.509 925.636 164.43 930.242 Q161.375 934.826 155.565 934.826 Q149.754 934.826 146.676 930.242 Q143.62 925.636 143.62 916.909 Q143.62 908.159 146.676 903.576 Q149.754 898.969 155.565 898.969 Z" fill="#000000" fill-rule="evenodd" fill-opacity="1" /><path clip-path="url(#clip300)" d="M175.726 928.275 L180.611 928.275 L180.611 934.154 L175.726 934.154 L175.726 928.275 Z" fill="#000000" fill-rule="evenodd" fill-opacity="1" /><path clip-path="url(#clip300)" d="M191.606 930.219 L199.245 930.219 L199.245 903.854 L190.935 905.52 L190.935 901.261 L199.199 899.594 L203.874 899.594 L203.874 930.219 L211.513 930.219 L211.513 934.154 L191.606 934.154 L191.606 930.219 Z" fill="#000000" fill-rule="evenodd" fill-opacity="1" /><path clip-path="url(#clip300)" d="M230.958 902.673 Q227.347 902.673 225.518 906.238 Q223.712 909.779 223.712 916.909 Q223.712 924.015 225.518 927.58 Q227.347 931.122 230.958 931.122 Q234.592 931.122 236.397 927.58 Q238.226 924.015 238.226 916.909 Q238.226 909.779 236.397 906.238 Q234.592 902.673 230.958 902.673 M230.958 898.969 Q236.768 898.969 239.823 903.576 Q242.902 908.159 242.902 916.909 Q242.902 925.636 239.823 930.242 Q236.768 934.826 230.958 934.826 Q225.147 934.826 222.069 930.242 Q219.013 925.636 219.013 916.909 Q219.013 908.159 222.069 903.576 Q225.147 898.969 230.958 898.969 Z" fill="#000000" fill-rule="evenodd" fill-opacity="1" /><path clip-path="url(#clip300)" d="M156.56 661.109 Q152.949 661.109 151.12 664.674 Q149.315 668.215 149.315 675.345 Q149.315 682.451 151.12 686.016 Q152.949 689.558 156.56 689.558 Q160.194 689.558 162 686.016 Q163.828 682.451 163.828 675.345 Q163.828 668.215 162 664.674 Q160.194 661.109 156.56 661.109 M156.56 657.405 Q162.37 657.405 165.426 662.012 Q168.504 666.595 168.504 675.345 Q168.504 684.072 165.426 688.678 Q162.37 693.262 156.56 693.262 Q150.75 693.262 147.671 688.678 Q144.616 684.072 144.616 675.345 Q144.616 666.595 147.671 662.012 Q150.75 657.405 156.56 657.405 Z" fill="#000000" fill-rule="evenodd" fill-opacity="1" /><path clip-path="url(#clip300)" d="M176.722 686.711 L181.606 686.711 L181.606 692.59 L176.722 692.59 L176.722 686.711 Z" fill="#000000" fill-rule="evenodd" fill-opacity="1" /><path clip-path="url(#clip300)" d="M192.601 688.655 L200.24 688.655 L200.24 662.29 L191.93 663.956 L191.93 659.697 L200.194 658.03 L204.87 658.03 L204.87 688.655 L212.509 688.655 L212.509 692.59 L192.601 692.59 L192.601 688.655 Z" fill="#000000" fill-rule="evenodd" fill-opacity="1" /><path clip-path="url(#clip300)" d="M221.999 658.03 L240.356 658.03 L240.356 661.965 L226.282 661.965 L226.282 670.438 Q227.3 670.09 228.319 669.928 Q229.337 669.743 230.356 669.743 Q236.143 669.743 239.522 672.915 Q242.902 676.086 242.902 681.502 Q242.902 687.081 239.43 690.183 Q235.958 693.262 229.638 693.262 Q227.462 693.262 225.194 692.891 Q222.948 692.521 220.541 691.78 L220.541 687.081 Q222.624 688.215 224.847 688.771 Q227.069 689.326 229.546 689.326 Q233.55 689.326 235.888 687.22 Q238.226 685.114 238.226 681.502 Q238.226 677.891 235.888 675.785 Q233.55 673.678 229.546 673.678 Q227.671 673.678 225.796 674.095 Q223.944 674.512 221.999 675.391 L221.999 658.03 Z" fill="#000000" fill-rule="evenodd" fill-opacity="1" /><path clip-path="url(#clip300)" d="M155.565 419.545 Q151.953 419.545 150.125 423.11 Q148.319 426.652 148.319 433.781 Q148.319 440.888 150.125 444.452 Q151.953 447.994 155.565 447.994 Q159.199 447.994 161.004 444.452 Q162.833 440.888 162.833 433.781 Q162.833 426.652 161.004 423.11 Q159.199 419.545 155.565 419.545 M155.565 415.841 Q161.375 415.841 164.43 420.448 Q167.509 425.031 167.509 433.781 Q167.509 442.508 164.43 447.114 Q161.375 451.698 155.565 451.698 Q149.754 451.698 146.676 447.114 Q143.62 442.508 143.62 433.781 Q143.62 425.031 146.676 420.448 Q149.754 415.841 155.565 415.841 Z" fill="#000000" fill-rule="evenodd" fill-opacity="1" /><path clip-path="url(#clip300)" d="M175.726 445.147 L180.611 445.147 L180.611 451.026 L175.726 451.026 L175.726 445.147 Z" fill="#000000" fill-rule="evenodd" fill-opacity="1" /><path clip-path="url(#clip300)" d="M194.824 447.091 L211.143 447.091 L211.143 451.026 L189.199 451.026 L189.199 447.091 Q191.861 444.337 196.444 439.707 Q201.05 435.054 202.231 433.712 Q204.476 431.189 205.356 429.452 Q206.259 427.693 206.259 426.003 Q206.259 423.249 204.314 421.513 Q202.393 419.777 199.291 419.777 Q197.092 419.777 194.638 420.54 Q192.208 421.304 189.43 422.855 L189.43 418.133 Q192.254 416.999 194.708 416.42 Q197.162 415.841 199.199 415.841 Q204.569 415.841 207.763 418.527 Q210.958 421.212 210.958 425.702 Q210.958 427.832 210.148 429.753 Q209.361 431.651 207.254 434.244 Q206.675 434.915 203.574 438.133 Q200.472 441.327 194.824 447.091 Z" fill="#000000" fill-rule="evenodd" fill-opacity="1" /><path clip-path="url(#clip300)" d="M230.958 419.545 Q227.347 419.545 225.518 423.11 Q223.712 426.652 223.712 433.781 Q223.712 440.888 225.518 444.452 Q227.347 447.994 230.958 447.994 Q234.592 447.994 236.397 444.452 Q238.226 440.888 238.226 433.781 Q238.226 426.652 236.397 423.11 Q234.592 419.545 230.958 419.545 M230.958 415.841 Q236.768 415.841 239.823 420.448 Q242.902 425.031 242.902 433.781 Q242.902 442.508 239.823 447.114 Q236.768 451.698 230.958 451.698 Q225.147 451.698 222.069 447.114 Q219.013 442.508 219.013 433.781 Q219.013 425.031 222.069 420.448 Q225.147 415.841 230.958 415.841 Z" fill="#000000" fill-rule="evenodd" fill-opacity="1" /><path clip-path="url(#clip300)" d="M156.56 177.981 Q152.949 177.981 151.12 181.546 Q149.315 185.088 149.315 192.217 Q149.315 199.324 151.12 202.888 Q152.949 206.43 156.56 206.43 Q160.194 206.43 162 202.888 Q163.828 199.324 163.828 192.217 Q163.828 185.088 162 181.546 Q160.194 177.981 156.56 177.981 M156.56 174.277 Q162.37 174.277 165.426 178.884 Q168.504 183.467 168.504 192.217 Q168.504 200.944 165.426 205.55 Q162.37 210.134 156.56 210.134 Q150.75 210.134 147.671 205.55 Q144.616 200.944 144.616 192.217 Q144.616 183.467 147.671 178.884 Q150.75 174.277 156.56 174.277 Z" fill="#000000" fill-rule="evenodd" fill-opacity="1" /><path clip-path="url(#clip300)" d="M176.722 203.583 L181.606 203.583 L181.606 209.462 L176.722 209.462 L176.722 203.583 Z" fill="#000000" fill-rule="evenodd" fill-opacity="1" /><path clip-path="url(#clip300)" d="M195.819 205.527 L212.138 205.527 L212.138 209.462 L190.194 209.462 L190.194 205.527 Q192.856 202.773 197.439 198.143 Q202.046 193.49 203.226 192.148 Q205.472 189.625 206.351 187.888 Q207.254 186.129 207.254 184.439 Q207.254 181.685 205.31 179.949 Q203.388 178.213 200.287 178.213 Q198.087 178.213 195.634 178.977 Q193.203 179.74 190.425 181.291 L190.425 176.569 Q193.25 175.435 195.703 174.856 Q198.157 174.277 200.194 174.277 Q205.564 174.277 208.759 176.963 Q211.953 179.648 211.953 184.139 Q211.953 186.268 211.143 188.189 Q210.356 190.088 208.249 192.68 Q207.671 193.351 204.569 196.569 Q201.467 199.763 195.819 205.527 Z" fill="#000000" fill-rule="evenodd" fill-opacity="1" /><path clip-path="url(#clip300)" d="M221.999 174.902 L240.356 174.902 L240.356 178.838 L226.282 178.838 L226.282 187.31 Q227.3 186.963 228.319 186.801 Q229.337 186.615 230.356 186.615 Q236.143 186.615 239.522 189.787 Q242.902 192.958 242.902 198.375 Q242.902 203.953 239.43 207.055 Q235.958 210.134 229.638 210.134 Q227.462 210.134 225.194 209.763 Q222.948 209.393 220.541 208.652 L220.541 203.953 Q222.624 205.087 224.847 205.643 Q227.069 206.199 229.546 206.199 Q233.55 206.199 235.888 204.092 Q238.226 201.986 238.226 198.375 Q238.226 194.763 235.888 192.657 Q233.55 190.551 229.546 190.551 Q227.671 190.551 225.796 190.967 Q223.944 191.384 221.999 192.263 L221.999 174.902 Z" fill="#000000" fill-rule="evenodd" fill-opacity="1" /><path clip-path="url(#clip300)" d="M79.9271 880.263 L60.639 880.263 L60.639 874.407 L110.164 874.407 L110.164 880.263 L104.817 880.263 Q108 882.109 109.559 884.942 Q111.087 887.743 111.087 891.689 Q111.087 898.151 105.931 902.225 Q100.775 906.267 92.372 906.267 Q83.9693 906.267 78.8131 902.225 Q73.6568 898.151 73.6568 891.689 Q73.6568 887.743 75.2164 884.942 Q76.7442 882.109 79.9271 880.263 M92.372 900.22 Q98.8332 900.22 102.525 897.578 Q106.186 894.904 106.186 890.257 Q106.186 885.61 102.525 882.937 Q98.8332 880.263 92.372 880.263 Q85.9108 880.263 82.2505 882.937 Q78.5584 885.61 78.5584 890.257 Q78.5584 894.904 82.2505 897.578 Q85.9108 900.22 92.372 900.22 Z" fill="#000000" fill-rule="evenodd" fill-opacity="1" /><path clip-path="url(#clip300)" d="M74.5162 862.344 L74.5162 856.487 L110.164 856.487 L110.164 862.344 L74.5162 862.344 M60.639 862.344 L60.639 856.487 L68.055 856.487 L68.055 862.344 L60.639 862.344 Z" fill="#000000" fill-rule="evenodd" fill-opacity="1" /><path clip-path="url(#clip300)" d="M75.5665 821.508 L81.1047 821.508 Q79.8316 823.99 79.195 826.664 Q78.5584 829.337 78.5584 832.202 Q78.5584 836.562 79.8952 838.759 Q81.232 840.923 83.9056 840.923 Q85.9426 840.923 87.1203 839.363 Q88.2661 837.804 89.3165 833.093 L89.7621 831.088 Q91.0989 824.85 93.5497 822.24 Q95.9686 819.598 100.329 819.598 Q105.294 819.598 108.191 823.545 Q111.087 827.459 111.087 834.334 Q111.087 837.199 110.514 840.318 Q109.973 843.406 108.859 846.843 L102.812 846.843 Q104.499 843.597 105.358 840.446 Q106.186 837.295 106.186 834.207 Q106.186 830.069 104.785 827.841 Q103.353 825.613 100.775 825.613 Q98.3876 825.613 97.1145 827.237 Q95.8413 828.828 94.6637 834.271 L94.1862 836.308 Q93.0404 841.751 90.6851 844.169 Q88.298 846.588 84.1602 846.588 Q79.1313 846.588 76.3941 843.024 Q73.6568 839.459 73.6568 832.902 Q73.6568 829.656 74.1343 826.791 Q74.6117 823.927 75.5665 821.508 Z" fill="#000000" fill-rule="evenodd" fill-opacity="1" /><path clip-path="url(#clip300)" d="M92.2447 794.071 Q92.2447 801.169 93.8679 803.906 Q95.4912 806.644 99.4061 806.644 Q102.525 806.644 104.371 804.607 Q106.186 802.538 106.186 799.005 Q106.186 794.135 102.748 791.207 Q99.2788 788.247 93.5497 788.247 L92.2447 788.247 L92.2447 794.071 M89.8257 782.39 L110.164 782.39 L110.164 788.247 L104.753 788.247 Q108 790.252 109.559 793.244 Q111.087 796.236 111.087 800.564 Q111.087 806.039 108.032 809.285 Q104.944 812.5 99.7881 812.5 Q93.7725 812.5 90.7169 808.49 Q87.6614 804.447 87.6614 796.459 L87.6614 788.247 L87.0885 788.247 Q83.0462 788.247 80.8501 790.92 Q78.6221 793.562 78.6221 798.368 Q78.6221 801.424 79.3541 804.32 Q80.0862 807.217 81.5503 809.89 L76.1395 809.89 Q74.8981 806.675 74.2934 803.652 Q73.6568 800.628 73.6568 797.763 Q73.6568 790.029 77.6672 786.21 Q81.6776 782.39 89.8257 782.39 Z" fill="#000000" fill-rule="evenodd" fill-opacity="1" /><path clip-path="url(#clip300)" d="M91.9264 746.87 Q85.5607 746.87 82.0596 749.511 Q78.5584 752.121 78.5584 756.864 Q78.5584 761.574 82.0596 764.216 Q85.5607 766.826 91.9264 766.826 Q98.2603 766.826 101.761 764.216 Q105.263 761.574 105.263 756.864 Q105.263 752.121 101.761 749.511 Q98.2603 746.87 91.9264 746.87 M105.74 741.013 Q114.843 741.013 119.267 745.055 Q123.723 749.098 123.723 757.437 Q123.723 760.524 123.246 763.261 Q122.8 765.999 121.845 768.577 L116.148 768.577 Q117.548 765.999 118.217 763.484 Q118.885 760.97 118.885 758.36 Q118.885 752.599 115.861 749.734 Q112.87 746.87 106.79 746.87 L103.894 746.87 Q107.045 748.684 108.605 751.517 Q110.164 754.349 110.164 758.296 Q110.164 764.853 105.167 768.863 Q100.17 772.874 91.9264 772.874 Q83.651 772.874 78.6539 768.863 Q73.6568 764.853 73.6568 758.296 Q73.6568 754.349 75.2164 751.517 Q76.776 748.684 79.9271 746.87 L74.5162 746.87 L74.5162 741.013 L105.74 741.013 Z" fill="#000000" fill-rule="evenodd" fill-opacity="1" /><path clip-path="url(#clip300)" d="M79.9907 708.293 Q79.4178 709.28 79.1632 710.458 Q78.8767 711.604 78.8767 713.004 Q78.8767 717.969 82.1232 720.643 Q85.3379 723.285 91.3853 723.285 L110.164 723.285 L110.164 729.173 L74.5162 729.173 L74.5162 723.285 L80.0544 723.285 Q76.8079 721.439 75.2483 718.479 Q73.6568 715.519 73.6568 711.285 Q73.6568 710.681 73.7523 709.949 Q73.816 709.216 73.9751 708.325 L79.9907 708.293 Z" fill="#000000" fill-rule="evenodd" fill-opacity="1" /><path clip-path="url(#clip300)" d="M90.8761 673.091 L93.7406 673.091 L93.7406 700.018 Q99.7881 699.636 102.971 696.39 Q106.122 693.111 106.122 687.287 Q106.122 683.913 105.294 680.762 Q104.467 677.579 102.812 674.46 L108.35 674.46 Q109.687 677.611 110.387 680.921 Q111.087 684.231 111.087 687.637 Q111.087 696.167 106.122 701.164 Q101.157 706.129 92.6903 706.129 Q83.9374 706.129 78.8131 701.419 Q73.6568 696.676 73.6568 688.655 Q73.6568 681.462 78.3038 677.292 Q82.9189 673.091 90.8761 673.091 M89.1573 678.948 Q84.3512 679.011 81.4866 681.653 Q78.6221 684.263 78.6221 688.592 Q78.6221 693.493 81.3912 696.453 Q84.1602 699.381 89.1892 699.827 L89.1573 678.948 Z" fill="#000000" fill-rule="evenodd" fill-opacity="1" /><path clip-path="url(#clip300)" d="M90.8761 632.987 L93.7406 632.987 L93.7406 659.914 Q99.7881 659.532 102.971 656.286 Q106.122 653.007 106.122 647.183 Q106.122 643.809 105.294 640.658 Q104.467 637.475 102.812 634.356 L108.35 634.356 Q109.687 637.507 110.387 640.817 Q111.087 644.127 111.087 647.533 Q111.087 656.063 106.122 661.06 Q101.157 666.025 92.6903 666.025 Q83.9374 666.025 78.8131 661.315 Q73.6568 656.572 73.6568 648.551 Q73.6568 641.358 78.3038 637.189 Q82.9189 632.987 90.8761 632.987 M89.1573 638.844 Q84.3512 638.907 81.4866 641.549 Q78.6221 644.159 78.6221 648.488 Q78.6221 653.389 81.3912 656.349 Q84.1602 659.278 89.1892 659.723 L89.1573 638.844 Z" fill="#000000" fill-rule="evenodd" fill-opacity="1" /><path clip-path="url(#clip300)" d="M81.3593 595.62 Q77.4126 593.424 75.5347 590.369 Q73.6568 587.313 73.6568 583.176 Q73.6568 577.606 77.5717 574.582 Q81.4548 571.558 88.6481 571.558 L110.164 571.558 L110.164 577.446 L88.839 577.446 Q83.7146 577.446 81.232 579.261 Q78.7494 581.075 78.7494 584.799 Q78.7494 589.35 81.7731 591.992 Q84.7968 594.634 90.0167 594.634 L110.164 594.634 L110.164 600.522 L88.839 600.522 Q83.6828 600.522 81.232 602.336 Q78.7494 604.151 78.7494 607.938 Q78.7494 612.426 81.8049 615.068 Q84.8286 617.709 90.0167 617.709 L110.164 617.709 L110.164 623.598 L74.5162 623.598 L74.5162 617.709 L80.0544 617.709 Q76.776 615.704 75.2164 612.903 Q73.6568 610.102 73.6568 606.251 Q73.6568 602.368 75.6302 599.663 Q77.6036 596.925 81.3593 595.62 Z" fill="#000000" fill-rule="evenodd" fill-opacity="1" /><path clip-path="url(#clip300)" d="M90.8761 529.385 L93.7406 529.385 L93.7406 556.312 Q99.7881 555.93 102.971 552.684 Q106.122 549.405 106.122 543.581 Q106.122 540.207 105.294 537.056 Q104.467 533.873 102.812 530.754 L108.35 530.754 Q109.687 533.905 110.387 537.215 Q111.087 540.525 111.087 543.931 Q111.087 552.461 106.122 557.458 Q101.157 562.423 92.6903 562.423 Q83.9374 562.423 78.8131 557.713 Q73.6568 552.97 73.6568 544.949 Q73.6568 537.756 78.3038 533.587 Q82.9189 529.385 90.8761 529.385 M89.1573 535.242 Q84.3512 535.305 81.4866 537.947 Q78.6221 540.557 78.6221 544.886 Q78.6221 549.787 81.3912 552.747 Q84.1602 555.676 89.1892 556.121 L89.1573 535.242 Z" fill="#000000" fill-rule="evenodd" fill-opacity="1" /><path clip-path="url(#clip300)" d="M88.6481 490.141 L110.164 490.141 L110.164 495.997 L88.839 495.997 Q83.7783 495.997 81.2638 497.971 Q78.7494 499.944 78.7494 503.891 Q78.7494 508.633 81.7731 511.37 Q84.7968 514.108 90.0167 514.108 L110.164 514.108 L110.164 519.996 L74.5162 519.996 L74.5162 514.108 L80.0544 514.108 Q76.8397 512.007 75.2483 509.174 Q73.6568 506.31 73.6568 502.586 Q73.6568 496.443 77.4763 493.292 Q81.2638 490.141 88.6481 490.141 Z" fill="#000000" fill-rule="evenodd" fill-opacity="1" /><path clip-path="url(#clip300)" d="M64.3947 472.667 L74.5162 472.667 L74.5162 460.604 L79.0677 460.604 L79.0677 472.667 L98.4194 472.667 Q102.78 472.667 104.021 471.489 Q105.263 470.28 105.263 466.619 L105.263 460.604 L110.164 460.604 L110.164 466.619 Q110.164 473.399 107.65 475.977 Q105.103 478.555 98.4194 478.555 L79.0677 478.555 L79.0677 482.852 L74.5162 482.852 L74.5162 478.555 L64.3947 478.555 L64.3947 472.667 Z" fill="#000000" fill-rule="evenodd" fill-opacity="1" /><path clip-path="url(#clip300)" d="M104.817 426.515 L123.723 426.515 L123.723 432.404 L74.5162 432.404 L74.5162 426.515 L79.9271 426.515 Q76.7442 424.669 75.2164 421.868 Q73.6568 419.036 73.6568 415.121 Q73.6568 408.628 78.8131 404.586 Q83.9693 400.512 92.372 400.512 Q100.775 400.512 105.931 404.586 Q111.087 408.628 111.087 415.121 Q111.087 419.036 109.559 421.868 Q108 424.669 104.817 426.515 M92.372 406.591 Q85.9108 406.591 82.2505 409.264 Q78.5584 411.906 78.5584 416.553 Q78.5584 421.2 82.2505 423.874 Q85.9108 426.515 92.372 426.515 Q98.8332 426.515 102.525 423.874 Q106.186 421.2 106.186 416.553 Q106.186 411.906 102.525 409.264 Q98.8332 406.591 92.372 406.591 Z" fill="#000000" fill-rule="evenodd" fill-opacity="1" /><path clip-path="url(#clip300)" d="M78.6221 376.99 Q78.6221 381.701 82.3142 384.438 Q85.9745 387.175 92.372 387.175 Q98.7695 387.175 102.462 384.47 Q106.122 381.733 106.122 376.99 Q106.122 372.311 102.43 369.574 Q98.7377 366.837 92.372 366.837 Q86.0381 366.837 82.346 369.574 Q78.6221 372.311 78.6221 376.99 M73.6568 376.99 Q73.6568 369.351 78.6221 364.991 Q83.5873 360.63 92.372 360.63 Q101.125 360.63 106.122 364.991 Q111.087 369.351 111.087 376.99 Q111.087 384.661 106.122 389.021 Q101.125 393.35 92.372 393.35 Q83.5873 393.35 78.6221 389.021 Q73.6568 384.661 73.6568 376.99 Z" fill="#000000" fill-rule="evenodd" fill-opacity="1" /><path clip-path="url(#clip300)" d="M64.3947 345.13 L74.5162 345.13 L74.5162 333.067 L79.0677 333.067 L79.0677 345.13 L98.4194 345.13 Q102.78 345.13 104.021 343.952 Q105.263 342.743 105.263 339.082 L105.263 333.067 L110.164 333.067 L110.164 339.082 Q110.164 345.862 107.65 348.44 Q105.103 351.018 98.4194 351.018 L79.0677 351.018 L79.0677 355.315 L74.5162 355.315 L74.5162 351.018 L64.3947 351.018 L64.3947 345.13 Z" fill="#000000" fill-rule="evenodd" fill-opacity="1" /><path clip-path="url(#clip300)" d="M90.8761 294.873 L93.7406 294.873 L93.7406 321.8 Q99.7881 321.418 102.971 318.171 Q106.122 314.893 106.122 309.068 Q106.122 305.694 105.294 302.543 Q104.467 299.36 102.812 296.241 L108.35 296.241 Q109.687 299.392 110.387 302.702 Q111.087 306.013 111.087 309.418 Q111.087 317.948 106.122 322.945 Q101.157 327.911 92.6903 327.911 Q83.9374 327.911 78.8131 323.2 Q73.6568 318.458 73.6568 310.437 Q73.6568 303.244 78.3038 299.074 Q82.9189 294.873 90.8761 294.873 M89.1573 300.729 Q84.3512 300.793 81.4866 303.435 Q78.6221 306.044 78.6221 310.373 Q78.6221 315.275 81.3912 318.235 Q84.1602 321.163 89.1892 321.609 L89.1573 300.729 Z" fill="#000000" fill-rule="evenodd" fill-opacity="1" /><path clip-path="url(#clip300)" d="M88.6481 255.628 L110.164 255.628 L110.164 261.485 L88.839 261.485 Q83.7783 261.485 81.2638 263.458 Q78.7494 265.431 78.7494 269.378 Q78.7494 274.12 81.7731 276.858 Q84.7968 279.595 90.0167 279.595 L110.164 279.595 L110.164 285.483 L74.5162 285.483 L74.5162 279.595 L80.0544 279.595 Q76.8397 277.494 75.2483 274.662 Q73.6568 271.797 73.6568 268.073 Q73.6568 261.93 77.4763 258.779 Q81.2638 255.628 88.6481 255.628 Z" fill="#000000" fill-rule="evenodd" fill-opacity="1" /><path clip-path="url(#clip300)" d="M64.3947 238.154 L74.5162 238.154 L74.5162 226.091 L79.0677 226.091 L79.0677 238.154 L98.4194 238.154 Q102.78 238.154 104.021 236.977 Q105.263 235.767 105.263 232.107 L105.263 226.091 L110.164 226.091 L110.164 232.107 Q110.164 238.886 107.65 241.464 Q105.103 244.042 98.4194 244.042 L79.0677 244.042 L79.0677 248.339 L74.5162 248.339 L74.5162 244.042 L64.3947 244.042 L64.3947 238.154 Z" fill="#000000" fill-rule="evenodd" fill-opacity="1" /><path clip-path="url(#clip300)" d="M74.5162 218.389 L74.5162 212.532 L110.164 212.532 L110.164 218.389 L74.5162 218.389 M60.639 218.389 L60.639 212.532 L68.055 212.532 L68.055 218.389 L60.639 218.389 Z" fill="#000000" fill-rule="evenodd" fill-opacity="1" /><path clip-path="url(#clip300)" d="M92.2447 184.078 Q92.2447 191.175 93.8679 193.913 Q95.4912 196.65 99.4061 196.65 Q102.525 196.65 104.371 194.613 Q106.186 192.544 106.186 189.011 Q106.186 184.141 102.748 181.213 Q99.2788 178.253 93.5497 178.253 L92.2447 178.253 L92.2447 184.078 M89.8257 172.396 L110.164 172.396 L110.164 178.253 L104.753 178.253 Q108 180.258 109.559 183.25 Q111.087 186.242 111.087 190.571 Q111.087 196.045 108.032 199.292 Q104.944 202.506 99.7881 202.506 Q93.7725 202.506 90.7169 198.496 Q87.6614 194.454 87.6614 186.465 L87.6614 178.253 L87.0885 178.253 Q83.0462 178.253 80.8501 180.927 Q78.6221 183.568 78.6221 188.374 Q78.6221 191.43 79.3541 194.326 Q80.0862 197.223 81.5503 199.896 L76.1395 199.896 Q74.8981 196.682 74.2934 193.658 Q73.6568 190.634 73.6568 187.77 Q73.6568 180.035 77.6672 176.216 Q81.6776 172.396 89.8257 172.396 Z" fill="#000000" fill-rule="evenodd" fill-opacity="1" /><path clip-path="url(#clip300)" d="M60.639 160.333 L60.639 154.477 L110.164 154.477 L110.164 160.333 L60.639 160.333 Z" fill="#000000" fill-rule="evenodd" fill-opacity="1" /><circle clip-path="url(#clip302)" cx="423.878" cy="728.692" r="18" fill="#e69f00" fill-rule="evenodd" fill-opacity="1" stroke="#000000" stroke-opacity="1" stroke-width="2.56"/>
<circle clip-path="url(#clip302)" cx="747.429" cy="373.284" r="18" fill="#56b4e9" fill-rule="evenodd" fill-opacity="1" stroke="#000000" stroke-opacity="1" stroke-width="2.56"/>
<circle clip-path="url(#clip302)" cx="1070.98" cy="388.992" r="18" fill="#009e73" fill-rule="evenodd" fill-opacity="1" stroke="#000000" stroke-opacity="1" stroke-width="2.56"/>
<circle clip-path="url(#clip302)" cx="1070.98" cy="247.796" r="18" fill="#009e73" fill-rule="evenodd" fill-opacity="1" stroke="#000000" stroke-opacity="1" stroke-width="2.56"/>
<circle clip-path="url(#clip302)" cx="1070.98" cy="669.892" r="18" fill="#009e73" fill-rule="evenodd" fill-opacity="1" stroke="#000000" stroke-opacity="1" stroke-width="2.56"/>
<circle clip-path="url(#clip302)" cx="1070.98" cy="920.109" r="18" fill="#009e73" fill-rule="evenodd" fill-opacity="1" stroke="#000000" stroke-opacity="1" stroke-width="2.56"/>
<circle clip-path="url(#clip302)" cx="423.878" cy="795.379" r="18" fill="#e69f00" fill-rule="evenodd" fill-opacity="1" stroke="#000000" stroke-opacity="1" stroke-width="2.56"/>
<circle clip-path="url(#clip302)" cx="747.429" cy="181.398" r="18" fill="#56b4e9" fill-rule="evenodd" fill-opacity="1" stroke="#000000" stroke-opacity="1" stroke-width="2.56"/>
<circle clip-path="url(#clip302)" cx="747.429" cy="827.151" r="18" fill="#56b4e9" fill-rule="evenodd" fill-opacity="1" stroke="#000000" stroke-opacity="1" stroke-width="2.56"/>
<circle clip-path="url(#clip302)" cx="423.878" cy="565.648" r="18" fill="#e69f00" fill-rule="evenodd" fill-opacity="1" stroke="#000000" stroke-opacity="1" stroke-width="2.56"/>
<circle clip-path="url(#clip302)" cx="747.429" cy="185.281" r="18" fill="#56b4e9" fill-rule="evenodd" fill-opacity="1" stroke="#000000" stroke-opacity="1" stroke-width="2.56"/>
<circle clip-path="url(#clip302)" cx="423.878" cy="509.666" r="18" fill="#e69f00" fill-rule="evenodd" fill-opacity="1" stroke="#000000" stroke-opacity="1" stroke-width="2.56"/>
<circle clip-path="url(#clip302)" cx="1070.98" cy="495.863" r="18" fill="#009e73" fill-rule="evenodd" fill-opacity="1" stroke="#000000" stroke-opacity="1" stroke-width="2.56"/>
<circle clip-path="url(#clip302)" cx="1070.98" cy="731.292" r="18" fill="#009e73" fill-rule="evenodd" fill-opacity="1" stroke="#000000" stroke-opacity="1" stroke-width="2.56"/>
<circle clip-path="url(#clip302)" cx="1070.98" cy="633.133" r="18" fill="#009e73" fill-rule="evenodd" fill-opacity="1" stroke="#000000" stroke-opacity="1" stroke-width="2.56"/>
<circle clip-path="url(#clip302)" cx="1070.98" cy="702.918" r="18" fill="#009e73" fill-rule="evenodd" fill-opacity="1" stroke="#000000" stroke-opacity="1" stroke-width="2.56"/>
<polyline clip-path="url(#clip302)" style="stroke:#000000; stroke-linecap:butt; stroke-linejoin:round; stroke-width:4; stroke-opacity:1; fill:none" stroke-dasharray="16, 10" points="
  423.878,649.846 747.429,391.778 1070.98,598.749 
  "/>
</svg>
