<?xml version="1.0" encoding="utf-8"?>
<svg xmlns="http://www.w3.org/2000/svg" xmlns:xlink="http://www.w3.org/1999/xlink" width="650" height="290" viewBox="0 0 2600 1160">
<defs>
  <clipPath id="clip740">
    <rect x="0" y="0" width="2600" height="1160"/>
  </clipPath>
</defs>
<path clip-path="url(#clip740)" d="
M0 1160 L2600 1160 L2600 0 L0 0  Z
  " fill="#ffffff" fill-rule="evenodd" fill-opacity="1"/>
<defs>
  <clipPath id="clip741">
    <rect x="520" y="0" width="1821" height="1160"/>
  </clipPath>
</defs>
<path clip-path="url(#clip740)" d="
M241.889 872.117 L1871.49 872.117 L1871.49 189.856 L241.889 189.856  Z
  " fill="#ffffff" fill-rule="evenodd" fill-opacity="1"/>
<defs>
  <clipPath id="clip742">
    <rect x="241" y="189" width="1631" height="683"/>
  </clipPath>
</defs>
<polyline clip-path="url(#clip742)" style="stroke:#000000; stroke-linecap:butt; stroke-linejoin:round; stroke-width:2; stroke-opacity:0.1; fill:none" points="
  384.094,872.117 384.094,189.856 
  "/>
<polyline clip-path="url(#clip742)" style="stroke:#000000; stroke-linecap:butt; stroke-linejoin:round; stroke-width:2; stroke-opacity:0.1; fill:none" points="
  624.307,872.117 624.307,189.856 
  "/>
<polyline clip-path="url(#clip742)" style="stroke:#000000; stroke-linecap:butt; stroke-linejoin:round; stroke-width:2; stroke-opacity:0.1; fill:none" points="
  864.519,872.117 864.519,189.856 
  "/>
<polyline clip-path="url(#clip742)" style="stroke:#000000; stroke-linecap:butt; stroke-linejoin:round; stroke-width:2; stroke-opacity:0.1; fill:none" points="
  1104.73,872.117 1104.73,189.856 
  "/>
<polyline clip-path="url(#clip742)" style="stroke:#000000; stroke-linecap:butt; stroke-linejoin:round; stroke-width:2; stroke-opacity:0.1; fill:none" points="
  1344.94,872.117 1344.94,189.856 
  "/>
<polyline clip-path="url(#clip742)" style="stroke:#000000; stroke-linecap:butt; stroke-linejoin:round; stroke-width:2; stroke-opacity:0.1; fill:none" points="
  1585.16,872.117 1585.16,189.856 
  "/>
<polyline clip-path="url(#clip742)" style="stroke:#000000; stroke-linecap:butt; stroke-linejoin:round; stroke-width:2; stroke-opacity:0.1; fill:none" points="
  1825.37,872.117 1825.37,189.856 
  "/>
<polyline clip-path="url(#clip740)" style="stroke:#000000; stroke-linecap:butt; stroke-linejoin:round; stroke-width:4; stroke-opacity:1; fill:none" points="
  241.889,872.117 1871.49,872.117 
  "/>
<polyline clip-path="url(#clip740)" style="stroke:#000000; stroke-linecap:butt; stroke-linejoin:round; stroke-width:4; stroke-opacity:1; fill:none" points="
  384.094,872.117 384.094,863.93 
  "/>
<polyline clip-path="url(#clip740)" style="stroke:#000000; stroke-linecap:butt; stroke-linejoin:round; stroke-width:4; stroke-opacity:1; fill:none" points="
  624.307,872.117 624.307,863.93 
  "/>
<polyline clip-path="url(#clip740)" style="stroke:#000000; stroke-linecap:butt; stroke-linejoin:round; stroke-width:4; stroke-opacity:1; fill:none" points="
  864.519,872.117 864.519,863.93 
  "/>
<polyline clip-path="url(#clip740)" style="stroke:#000000; stroke-linecap:butt; stroke-linejoin:round; stroke-width:4; stroke-opacity:1; fill:none" points="
  1104.73,872.117 1104.73,863.93 
  "/>
<polyline clip-path="url(#clip740)" style="stroke:#000000; stroke-linecap:butt; stroke-linejoin:round; stroke-width:4; stroke-opacity:1; fill:none" points="
  1344.94,872.117 1344.94,863.93 
  "/>
<polyline clip-path="url(#clip740)" style="stroke:#000000; stroke-linecap:butt; stroke-linejoin:round; stroke-width:4; stroke-opacity:1; fill:none" points="
  1585.16,872.117 1585.16,863.93 
  "/>
<polyline clip-path="url(#clip740)" style="stroke:#000000; stroke-linecap:butt; stroke-linejoin:round; stroke-width:4; stroke-opacity:1; fill:none" points="
  1825.37,872.117 1825.37,863.93 
  "/>
<path clip-path="url(#clip740)" d="M316.039 917.561 L345.715 917.561 L345.715 921.496 L316.039 921.496 L316.039 917.561 Z" fill="#000000" fill-rule="evenodd" fill-opacity="1" /><path clip-path="url(#clip740)" d="M365.807 902.908 Q362.196 902.908 360.368 906.473 Q358.562 910.014 358.562 917.144 Q358.562 924.25 360.368 927.815 Q362.196 931.357 365.807 931.357 Q369.442 931.357 371.247 927.815 Q373.076 924.25 373.076 917.144 Q373.076 910.014 371.247 906.473 Q369.442 902.908 365.807 902.908 M365.807 899.204 Q371.618 899.204 374.673 903.811 Q377.752 908.394 377.752 917.144 Q377.752 925.871 374.673 930.477 Q371.618 935.06 365.807 935.06 Q359.997 935.06 356.919 930.477 Q353.863 925.871 353.863 917.144 Q353.863 908.394 356.919 903.811 Q359.997 899.204 365.807 899.204 Z" fill="#000000" fill-rule="evenodd" fill-opacity="1" /><path clip-path="url(#clip740)" d="M385.969 928.51 L390.854 928.51 L390.854 934.389 L385.969 934.389 L385.969 928.51 Z" fill="#000000" fill-rule="evenodd" fill-opacity="1" /><path clip-path="url(#clip740)" d="M411.039 902.908 Q407.428 902.908 405.599 906.473 Q403.793 910.014 403.793 917.144 Q403.793 924.25 405.599 927.815 Q407.428 931.357 411.039 931.357 Q414.673 931.357 416.478 927.815 Q418.307 924.25 418.307 917.144 Q418.307 910.014 416.478 906.473 Q414.673 902.908 411.039 902.908 M411.039 899.204 Q416.849 899.204 419.904 903.811 Q422.983 908.394 422.983 917.144 Q422.983 925.871 419.904 930.477 Q416.849 935.06 411.039 935.06 Q405.228 935.06 402.15 930.477 Q399.094 925.871 399.094 917.144 Q399.094 908.394 402.15 903.811 Q405.228 899.204 411.039 899.204 Z" fill="#000000" fill-rule="evenodd" fill-opacity="1" /><path clip-path="url(#clip740)" d="M431.247 899.829 L449.603 899.829 L449.603 903.764 L435.529 903.764 L435.529 912.237 Q436.548 911.889 437.566 911.727 Q438.585 911.542 439.603 911.542 Q445.39 911.542 448.77 914.713 Q452.15 917.885 452.15 923.301 Q452.15 928.88 448.677 931.982 Q445.205 935.06 438.886 935.06 Q436.71 935.06 434.441 934.69 Q432.196 934.32 429.789 933.579 L429.789 928.88 Q431.872 930.014 434.094 930.57 Q436.316 931.125 438.793 931.125 Q442.798 931.125 445.136 929.019 Q447.474 926.912 447.474 923.301 Q447.474 919.69 445.136 917.584 Q442.798 915.477 438.793 915.477 Q436.918 915.477 435.043 915.894 Q433.191 916.311 431.247 917.19 L431.247 899.829 Z" fill="#000000" fill-rule="evenodd" fill-opacity="1" /><path clip-path="url(#clip740)" d="M586.61 902.908 Q582.999 902.908 581.17 906.473 Q579.365 910.014 579.365 917.144 Q579.365 924.25 581.17 927.815 Q582.999 931.357 586.61 931.357 Q590.244 931.357 592.05 927.815 Q593.879 924.25 593.879 917.144 Q593.879 910.014 592.05 906.473 Q590.244 902.908 586.61 902.908 M586.61 899.204 Q592.42 899.204 595.476 903.811 Q598.554 908.394 598.554 917.144 Q598.554 925.871 595.476 930.477 Q592.42 935.06 586.61 935.06 Q580.8 935.06 577.721 930.477 Q574.666 925.871 574.666 917.144 Q574.666 908.394 577.721 903.811 Q580.8 899.204 586.61 899.204 Z" fill="#000000" fill-rule="evenodd" fill-opacity="1" /><path clip-path="url(#clip740)" d="M606.772 928.51 L611.656 928.51 L611.656 934.389 L606.772 934.389 L606.772 928.51 Z" fill="#000000" fill-rule="evenodd" fill-opacity="1" /><path clip-path="url(#clip740)" d="M631.841 902.908 Q628.23 902.908 626.402 906.473 Q624.596 910.014 624.596 917.144 Q624.596 924.25 626.402 927.815 Q628.23 931.357 631.841 931.357 Q635.476 931.357 637.281 927.815 Q639.11 924.25 639.11 917.144 Q639.11 910.014 637.281 906.473 Q635.476 902.908 631.841 902.908 M631.841 899.204 Q637.651 899.204 640.707 903.811 Q643.786 908.394 643.786 917.144 Q643.786 925.871 640.707 930.477 Q637.651 935.06 631.841 935.06 Q626.031 935.06 622.953 930.477 Q619.897 925.871 619.897 917.144 Q619.897 908.394 622.953 903.811 Q626.031 899.204 631.841 899.204 Z" fill="#000000" fill-rule="evenodd" fill-opacity="1" /><path clip-path="url(#clip740)" d="M662.003 902.908 Q658.392 902.908 656.563 906.473 Q654.758 910.014 654.758 917.144 Q654.758 924.25 656.563 927.815 Q658.392 931.357 662.003 931.357 Q665.637 931.357 667.443 927.815 Q669.272 924.25 669.272 917.144 Q669.272 910.014 667.443 906.473 Q665.637 902.908 662.003 902.908 M662.003 899.204 Q667.813 899.204 670.869 903.811 Q673.948 908.394 673.948 917.144 Q673.948 925.871 670.869 930.477 Q667.813 935.06 662.003 935.06 Q656.193 935.06 653.114 930.477 Q650.059 925.871 650.059 917.144 Q650.059 908.394 653.114 903.811 Q656.193 899.204 662.003 899.204 Z" fill="#000000" fill-rule="evenodd" fill-opacity="1" /><path clip-path="url(#clip740)" d="M827.32 902.908 Q823.709 902.908 821.88 906.473 Q820.075 910.014 820.075 917.144 Q820.075 924.25 821.88 927.815 Q823.709 931.357 827.32 931.357 Q830.954 931.357 832.76 927.815 Q834.589 924.25 834.589 917.144 Q834.589 910.014 832.76 906.473 Q830.954 902.908 827.32 902.908 M827.32 899.204 Q833.13 899.204 836.186 903.811 Q839.264 908.394 839.264 917.144 Q839.264 925.871 836.186 930.477 Q833.13 935.06 827.32 935.06 Q821.51 935.06 818.431 930.477 Q815.376 925.871 815.376 917.144 Q815.376 908.394 818.431 903.811 Q821.51 899.204 827.32 899.204 Z" fill="#000000" fill-rule="evenodd" fill-opacity="1" /><path clip-path="url(#clip740)" d="M847.482 928.51 L852.366 928.51 L852.366 934.389 L847.482 934.389 L847.482 928.51 Z" fill="#000000" fill-rule="evenodd" fill-opacity="1" /><path clip-path="url(#clip740)" d="M872.551 902.908 Q868.94 902.908 867.112 906.473 Q865.306 910.014 865.306 917.144 Q865.306 924.25 867.112 927.815 Q868.94 931.357 872.551 931.357 Q876.186 931.357 877.991 927.815 Q879.82 924.25 879.82 917.144 Q879.82 910.014 877.991 906.473 Q876.186 902.908 872.551 902.908 M872.551 899.204 Q878.361 899.204 881.417 903.811 Q884.496 908.394 884.496 917.144 Q884.496 925.871 881.417 930.477 Q878.361 935.06 872.551 935.06 Q866.741 935.06 863.662 930.477 Q860.607 925.871 860.607 917.144 Q860.607 908.394 863.662 903.811 Q866.741 899.204 872.551 899.204 Z" fill="#000000" fill-rule="evenodd" fill-opacity="1" /><path clip-path="url(#clip740)" d="M892.76 899.829 L911.116 899.829 L911.116 903.764 L897.042 903.764 L897.042 912.237 Q898.06 911.889 899.079 911.727 Q900.097 911.542 901.116 911.542 Q906.903 911.542 910.283 914.713 Q913.662 917.885 913.662 923.301 Q913.662 928.88 910.19 931.982 Q906.718 935.06 900.398 935.06 Q898.222 935.06 895.954 934.69 Q893.709 934.32 891.301 933.579 L891.301 928.88 Q893.385 930.014 895.607 930.57 Q897.829 931.125 900.306 931.125 Q904.31 931.125 906.648 929.019 Q908.986 926.912 908.986 923.301 Q908.986 919.69 906.648 917.584 Q904.31 915.477 900.306 915.477 Q898.431 915.477 896.556 915.894 Q894.704 916.311 892.76 917.19 L892.76 899.829 Z" fill="#000000" fill-rule="evenodd" fill-opacity="1" /><path clip-path="url(#clip740)" d="M1067.03 902.908 Q1063.42 902.908 1061.59 906.473 Q1059.79 910.014 1059.79 917.144 Q1059.79 924.25 1061.59 927.815 Q1063.42 931.357 1067.03 931.357 Q1070.67 931.357 1072.47 927.815 Q1074.3 924.25 1074.3 917.144 Q1074.3 910.014 1072.47 906.473 Q1070.67 902.908 1067.03 902.908 M1067.03 899.204 Q1072.84 899.204 1075.9 903.811 Q1078.98 908.394 1078.98 917.144 Q1078.98 925.871 1075.9 930.477 Q1072.84 935.06 1067.03 935.06 Q1061.22 935.06 1058.15 930.477 Q1055.09 925.871 1055.09 917.144 Q1055.09 908.394 1058.15 903.811 Q1061.22 899.204 1067.03 899.204 Z" fill="#000000" fill-rule="evenodd" fill-opacity="1" /><path clip-path="url(#clip740)" d="M1087.2 928.51 L1092.08 928.51 L1092.08 934.389 L1087.2 934.389 L1087.2 928.51 Z" fill="#000000" fill-rule="evenodd" fill-opacity="1" /><path clip-path="url(#clip740)" d="M1103.08 930.454 L1110.72 930.454 L1110.72 904.088 L1102.4 905.755 L1102.4 901.496 L1110.67 899.829 L1115.34 899.829 L1115.34 930.454 L1122.98 930.454 L1122.98 934.389 L1103.08 934.389 L1103.08 930.454 Z" fill="#000000" fill-rule="evenodd" fill-opacity="1" /><path clip-path="url(#clip740)" d="M1142.43 902.908 Q1138.82 902.908 1136.99 906.473 Q1135.18 910.014 1135.18 917.144 Q1135.18 924.25 1136.99 927.815 Q1138.82 931.357 1142.43 931.357 Q1146.06 931.357 1147.87 927.815 Q1149.7 924.25 1149.7 917.144 Q1149.7 910.014 1147.87 906.473 Q1146.06 902.908 1142.43 902.908 M1142.43 899.204 Q1148.24 899.204 1151.29 903.811 Q1154.37 908.394 1154.37 917.144 Q1154.37 925.871 1151.29 930.477 Q1148.24 935.06 1142.43 935.06 Q1136.62 935.06 1133.54 930.477 Q1130.48 925.871 1130.48 917.144 Q1130.48 908.394 1133.54 903.811 Q1136.62 899.204 1142.43 899.204 Z" fill="#000000" fill-rule="evenodd" fill-opacity="1" /><path clip-path="url(#clip740)" d="M1307.74 902.908 Q1304.13 902.908 1302.3 906.473 Q1300.5 910.014 1300.5 917.144 Q1300.5 924.25 1302.3 927.815 Q1304.13 931.357 1307.74 931.357 Q1311.38 931.357 1313.18 927.815 Q1315.01 924.25 1315.01 917.144 Q1315.01 910.014 1313.18 906.473 Q1311.38 902.908 1307.74 902.908 M1307.74 899.204 Q1313.55 899.204 1316.61 903.811 Q1319.69 908.394 1319.69 917.144 Q1319.69 925.871 1316.61 930.477 Q1313.55 935.06 1307.74 935.06 Q1301.93 935.06 1298.86 930.477 Q1295.8 925.871 1295.8 917.144 Q1295.8 908.394 1298.86 903.811 Q1301.93 899.204 1307.74 899.204 Z" fill="#000000" fill-rule="evenodd" fill-opacity="1" /><path clip-path="url(#clip740)" d="M1327.91 928.51 L1332.79 928.51 L1332.79 934.389 L1327.91 934.389 L1327.91 928.51 Z" fill="#000000" fill-rule="evenodd" fill-opacity="1" /><path clip-path="url(#clip740)" d="M1343.79 930.454 L1351.43 930.454 L1351.43 904.088 L1343.11 905.755 L1343.11 901.496 L1351.38 899.829 L1356.05 899.829 L1356.05 930.454 L1363.69 930.454 L1363.69 934.389 L1343.79 934.389 L1343.79 930.454 Z" fill="#000000" fill-rule="evenodd" fill-opacity="1" /><path clip-path="url(#clip740)" d="M1373.18 899.829 L1391.54 899.829 L1391.54 903.764 L1377.47 903.764 L1377.47 912.237 Q1378.49 911.889 1379.5 911.727 Q1380.52 911.542 1381.54 911.542 Q1387.33 911.542 1390.71 914.713 Q1394.09 917.885 1394.09 923.301 Q1394.09 928.88 1390.61 931.982 Q1387.14 935.06 1380.82 935.06 Q1378.65 935.06 1376.38 934.69 Q1374.13 934.32 1371.73 933.579 L1371.73 928.88 Q1373.81 930.014 1376.03 930.57 Q1378.25 931.125 1380.73 931.125 Q1384.74 931.125 1387.07 929.019 Q1389.41 926.912 1389.41 923.301 Q1389.41 919.69 1387.07 917.584 Q1384.74 915.477 1380.73 915.477 Q1378.86 915.477 1376.98 915.894 Q1375.13 916.311 1373.18 917.19 L1373.18 899.829 Z" fill="#000000" fill-rule="evenodd" fill-opacity="1" /><path clip-path="url(#clip740)" d="M1547.46 902.908 Q1543.85 902.908 1542.02 906.473 Q1540.21 910.014 1540.21 917.144 Q1540.21 924.25 1542.02 927.815 Q1543.85 931.357 1547.46 931.357 Q1551.09 931.357 1552.9 927.815 Q1554.73 924.25 1554.73 917.144 Q1554.73 910.014 1552.9 906.473 Q1551.09 902.908 1547.46 902.908 M1547.46 899.204 Q1553.27 899.204 1556.33 903.811 Q1559.4 908.394 1559.4 917.144 Q1559.4 925.871 1556.33 930.477 Q1553.27 935.06 1547.46 935.06 Q1541.65 935.06 1538.57 930.477 Q1535.51 925.871 1535.51 917.144 Q1535.51 908.394 1538.57 903.811 Q1541.65 899.204 1547.46 899.204 Z" fill="#000000" fill-rule="evenodd" fill-opacity="1" /><path clip-path="url(#clip740)" d="M1567.62 928.51 L1572.51 928.51 L1572.51 934.389 L1567.62 934.389 L1567.62 928.51 Z" fill="#000000" fill-rule="evenodd" fill-opacity="1" /><path clip-path="url(#clip740)" d="M1586.72 930.454 L1603.04 930.454 L1603.04 934.389 L1581.09 934.389 L1581.09 930.454 Q1583.76 927.699 1588.34 923.07 Q1592.95 918.417 1594.13 917.074 Q1596.37 914.551 1597.25 912.815 Q1598.15 911.056 1598.15 909.366 Q1598.15 906.612 1596.21 904.875 Q1594.29 903.139 1591.19 903.139 Q1588.99 903.139 1586.53 903.903 Q1584.1 904.667 1581.32 906.218 L1581.32 901.496 Q1584.15 900.362 1586.6 899.783 Q1589.06 899.204 1591.09 899.204 Q1596.46 899.204 1599.66 901.889 Q1602.85 904.575 1602.85 909.065 Q1602.85 911.195 1602.04 913.116 Q1601.26 915.014 1599.15 917.607 Q1598.57 918.278 1595.47 921.496 Q1592.37 924.69 1586.72 930.454 Z" fill="#000000" fill-rule="evenodd" fill-opacity="1" /><path clip-path="url(#clip740)" d="M1622.85 902.908 Q1619.24 902.908 1617.41 906.473 Q1615.61 910.014 1615.61 917.144 Q1615.61 924.25 1617.41 927.815 Q1619.24 931.357 1622.85 931.357 Q1626.49 931.357 1628.29 927.815 Q1630.12 924.25 1630.12 917.144 Q1630.12 910.014 1628.29 906.473 Q1626.49 902.908 1622.85 902.908 M1622.85 899.204 Q1628.66 899.204 1631.72 903.811 Q1634.8 908.394 1634.8 917.144 Q1634.8 925.871 1631.72 930.477 Q1628.66 935.06 1622.85 935.06 Q1617.04 935.06 1613.96 930.477 Q1610.91 925.871 1610.91 917.144 Q1610.91 908.394 1613.96 903.811 Q1617.04 899.204 1622.85 899.204 Z" fill="#000000" fill-rule="evenodd" fill-opacity="1" /><path clip-path="url(#clip740)" d="M1788.17 902.908 Q1784.56 902.908 1782.73 906.473 Q1780.92 910.014 1780.92 917.144 Q1780.92 924.25 1782.73 927.815 Q1784.56 931.357 1788.17 931.357 Q1791.8 931.357 1793.61 927.815 Q1795.44 924.25 1795.44 917.144 Q1795.44 910.014 1793.61 906.473 Q1791.8 902.908 1788.17 902.908 M1788.17 899.204 Q1793.98 899.204 1797.04 903.811 Q1800.11 908.394 1800.11 917.144 Q1800.11 925.871 1797.04 930.477 Q1793.98 935.06 1788.17 935.06 Q1782.36 935.06 1779.28 930.477 Q1776.22 925.871 1776.22 917.144 Q1776.22 908.394 1779.28 903.811 Q1782.36 899.204 1788.17 899.204 Z" fill="#000000" fill-rule="evenodd" fill-opacity="1" /><path clip-path="url(#clip740)" d="M1808.33 928.51 L1813.22 928.51 L1813.22 934.389 L1808.33 934.389 L1808.33 928.51 Z" fill="#000000" fill-rule="evenodd" fill-opacity="1" /><path clip-path="url(#clip740)" d="M1827.43 930.454 L1843.75 930.454 L1843.75 934.389 L1821.8 934.389 L1821.8 930.454 Q1824.47 927.699 1829.05 923.07 Q1833.66 918.417 1834.84 917.074 Q1837.08 914.551 1837.96 912.815 Q1838.86 911.056 1838.86 909.366 Q1838.86 906.612 1836.92 904.875 Q1835 903.139 1831.9 903.139 Q1829.7 903.139 1827.24 903.903 Q1824.81 904.667 1822.03 906.218 L1822.03 901.496 Q1824.86 900.362 1827.31 899.783 Q1829.77 899.204 1831.8 899.204 Q1837.17 899.204 1840.37 901.889 Q1843.56 904.575 1843.56 909.065 Q1843.56 911.195 1842.75 913.116 Q1841.97 915.014 1839.86 917.607 Q1839.28 918.278 1836.18 921.496 Q1833.08 924.69 1827.43 930.454 Z" fill="#000000" fill-rule="evenodd" fill-opacity="1" /><path clip-path="url(#clip740)" d="M1853.61 899.829 L1871.97 899.829 L1871.97 903.764 L1857.89 903.764 L1857.89 912.237 Q1858.91 911.889 1859.93 911.727 Q1860.95 911.542 1861.97 911.542 Q1867.75 911.542 1871.13 914.713 Q1874.51 917.885 1874.51 923.301 Q1874.51 928.88 1871.04 931.982 Q1867.57 935.06 1861.25 935.06 Q1859.07 935.06 1856.8 934.69 Q1854.56 934.32 1852.15 933.579 L1852.15 928.88 Q1854.23 930.014 1856.46 930.57 Q1858.68 931.125 1861.16 931.125 Q1865.16 931.125 1867.5 929.019 Q1869.84 926.912 1869.84 923.301 Q1869.84 919.69 1867.5 917.584 Q1865.16 915.477 1861.16 915.477 Q1859.28 915.477 1857.41 915.894 Q1855.55 916.311 1853.61 917.19 L1853.61 899.829 Z" fill="#000000" fill-rule="evenodd" fill-opacity="1" /><path clip-path="url(#clip740)" d="M609.18 989.808 Q608.193 989.235 607.015 988.98 Q605.869 988.694 604.469 988.694 Q599.504 988.694 596.83 991.94 Q594.188 995.155 594.188 1001.2 L594.188 1019.98 L588.3 1019.98 L588.3 984.333 L594.188 984.333 L594.188 989.871 Q596.034 986.625 598.995 985.065 Q601.955 983.474 606.188 983.474 Q606.793 983.474 607.525 983.569 Q608.257 983.633 609.148 983.792 L609.18 989.808 Z" fill="#000000" fill-rule="evenodd" fill-opacity="1" /><path clip-path="url(#clip740)" d="M644.382 1000.69 L644.382 1003.56 L617.455 1003.56 Q617.837 1009.61 621.084 1012.79 Q624.362 1015.94 630.186 1015.94 Q633.56 1015.94 636.711 1015.11 Q639.894 1014.28 643.013 1012.63 L643.013 1018.17 Q639.862 1019.5 636.552 1020.2 Q633.242 1020.9 629.836 1020.9 Q621.306 1020.9 616.309 1015.94 Q611.344 1010.97 611.344 1002.51 Q611.344 993.754 616.055 988.63 Q620.797 983.474 628.818 983.474 Q636.011 983.474 640.181 988.121 Q644.382 992.736 644.382 1000.69 M638.526 998.974 Q638.462 994.168 635.82 991.304 Q633.21 988.439 628.882 988.439 Q623.98 988.439 621.02 991.208 Q618.092 993.977 617.646 999.006 L638.526 998.974 Z" fill="#000000" fill-rule="evenodd" fill-opacity="1" /><path clip-path="url(#clip740)" d="M653.994 970.456 L659.851 970.456 L659.851 1019.98 L653.994 1019.98 L653.994 970.456 Z" fill="#000000" fill-rule="evenodd" fill-opacity="1" /><path clip-path="url(#clip740)" d="M688.305 1002.06 Q681.208 1002.06 678.47 1003.68 Q675.733 1005.31 675.733 1009.22 Q675.733 1012.34 677.77 1014.19 Q679.839 1016 683.372 1016 Q688.242 1016 691.17 1012.57 Q694.13 1009.1 694.13 1003.37 L694.13 1002.06 L688.305 1002.06 M699.986 999.643 L699.986 1019.98 L694.13 1019.98 L694.13 1014.57 Q692.125 1017.82 689.133 1019.38 Q686.141 1020.9 681.812 1020.9 Q676.338 1020.9 673.091 1017.85 Q669.877 1014.76 669.877 1009.61 Q669.877 1003.59 673.887 1000.53 Q677.929 997.478 685.918 997.478 L694.13 997.478 L694.13 996.905 Q694.13 992.863 691.456 990.667 Q688.815 988.439 684.009 988.439 Q680.953 988.439 678.057 989.171 Q675.16 989.903 672.487 991.367 L672.487 985.956 Q675.701 984.715 678.725 984.11 Q681.749 983.474 684.613 983.474 Q692.348 983.474 696.167 987.484 Q699.986 991.495 699.986 999.643 Z" fill="#000000" fill-rule="evenodd" fill-opacity="1" /><path clip-path="url(#clip740)" d="M717.842 974.212 L717.842 984.333 L729.905 984.333 L729.905 988.885 L717.842 988.885 L717.842 1008.24 Q717.842 1012.6 719.02 1013.84 Q720.229 1015.08 723.89 1015.08 L729.905 1015.08 L729.905 1019.98 L723.89 1019.98 Q717.11 1019.98 714.532 1017.47 Q711.954 1014.92 711.954 1008.24 L711.954 988.885 L707.657 988.885 L707.657 984.333 L711.954 984.333 L711.954 974.212 L717.842 974.212 Z" fill="#000000" fill-rule="evenodd" fill-opacity="1" /><path clip-path="url(#clip740)" d="M737.608 984.333 L743.464 984.333 L743.464 1019.98 L737.608 1019.98 L737.608 984.333 M737.608 970.456 L743.464 970.456 L743.464 977.872 L737.608 977.872 L737.608 970.456 Z" fill="#000000" fill-rule="evenodd" fill-opacity="1" /><path clip-path="url(#clip740)" d="M751.517 984.333 L757.723 984.333 L768.863 1014.25 L780.003 984.333 L786.21 984.333 L772.842 1019.98 L764.885 1019.98 L751.517 984.333 Z" fill="#000000" fill-rule="evenodd" fill-opacity="1" /><path clip-path="url(#clip740)" d="M824.786 1000.69 L824.786 1003.56 L797.859 1003.56 Q798.241 1009.61 801.488 1012.79 Q804.766 1015.94 810.591 1015.94 Q813.964 1015.94 817.115 1015.11 Q820.298 1014.28 823.418 1012.63 L823.418 1018.17 Q820.266 1019.5 816.956 1020.2 Q813.646 1020.9 810.24 1020.9 Q801.71 1020.9 796.713 1015.94 Q791.748 1010.97 791.748 1002.51 Q791.748 993.754 796.459 988.63 Q801.201 983.474 809.222 983.474 Q816.415 983.474 820.585 988.121 Q824.786 992.736 824.786 1000.69 M818.93 998.974 Q818.866 994.168 816.224 991.304 Q813.614 988.439 809.286 988.439 Q804.384 988.439 801.424 991.208 Q798.496 993.977 798.05 999.006 L818.93 998.974 Z" fill="#000000" fill-rule="evenodd" fill-opacity="1" /><path clip-path="url(#clip740)" d="M877.844 985.384 L877.844 990.922 Q875.362 989.649 872.688 989.012 Q870.014 988.375 867.15 988.375 Q862.789 988.375 860.593 989.712 Q858.429 991.049 858.429 993.723 Q858.429 995.76 859.988 996.937 Q861.548 998.083 866.259 999.133 L868.264 999.579 Q874.502 1000.92 877.112 1003.37 Q879.754 1005.79 879.754 1010.15 Q879.754 1015.11 875.807 1018.01 Q871.892 1020.9 865.017 1020.9 Q862.153 1020.9 859.034 1020.33 Q855.946 1019.79 852.509 1018.68 L852.509 1012.63 Q855.755 1014.32 858.906 1015.18 Q862.057 1016 865.145 1016 Q869.282 1016 871.51 1014.6 Q873.738 1013.17 873.738 1010.59 Q873.738 1008.2 872.115 1006.93 Q870.524 1005.66 865.081 1004.48 L863.044 1004 Q857.601 1002.86 855.182 1000.5 Q852.763 998.115 852.763 993.977 Q852.763 988.948 856.328 986.211 Q859.893 983.474 866.45 983.474 Q869.696 983.474 872.561 983.951 Q875.425 984.429 877.844 985.384 Z" fill="#000000" fill-rule="evenodd" fill-opacity="1" /><path clip-path="url(#clip740)" d="M888.475 1005.91 L888.475 984.333 L894.331 984.333 L894.331 1005.69 Q894.331 1010.75 896.305 1013.3 Q898.278 1015.81 902.225 1015.81 Q906.967 1015.81 909.705 1012.79 Q912.474 1009.76 912.474 1004.54 L912.474 984.333 L918.33 984.333 L918.33 1019.98 L912.474 1019.98 L912.474 1014.51 Q910.341 1017.75 907.508 1019.34 Q904.708 1020.9 900.984 1020.9 Q894.841 1020.9 891.658 1017.08 Q888.475 1013.27 888.475 1005.91 M903.212 983.474 L903.212 983.474 Z" fill="#000000" fill-rule="evenodd" fill-opacity="1" /><path clip-path="url(#clip740)" d="M955.983 1002.19 Q955.983 995.728 953.31 992.068 Q950.668 988.375 946.021 988.375 Q941.374 988.375 938.7 992.068 Q936.059 995.728 936.059 1002.19 Q936.059 1008.65 938.7 1012.34 Q941.374 1016 946.021 1016 Q950.668 1016 953.31 1012.34 Q955.983 1008.65 955.983 1002.19 M936.059 989.744 Q937.905 986.561 940.706 985.033 Q943.538 983.474 947.453 983.474 Q953.946 983.474 957.989 988.63 Q962.063 993.786 962.063 1002.19 Q962.063 1010.59 957.989 1015.75 Q953.946 1020.9 947.453 1020.9 Q943.538 1020.9 940.706 1019.38 Q937.905 1017.82 936.059 1014.63 L936.059 1019.98 L930.17 1019.98 L930.17 970.456 L936.059 970.456 L936.059 989.744 Z" fill="#000000" fill-rule="evenodd" fill-opacity="1" /><path clip-path="url(#clip740)" d="M971.77 984.333 L977.627 984.333 L977.627 1020.62 Q977.627 1027.43 975.017 1030.48 Q972.439 1033.54 966.678 1033.54 L964.45 1033.54 L964.45 1028.57 L966.009 1028.57 Q969.351 1028.57 970.561 1027.02 Q971.77 1025.49 971.77 1020.62 L971.77 984.333 M971.77 970.456 L977.627 970.456 L977.627 977.872 L971.77 977.872 L971.77 970.456 Z" fill="#000000" fill-rule="evenodd" fill-opacity="1" /><path clip-path="url(#clip740)" d="M1020.37 1000.69 L1020.37 1003.56 L993.446 1003.56 Q993.827 1009.61 997.074 1012.79 Q1000.35 1015.94 1006.18 1015.94 Q1009.55 1015.94 1012.7 1015.11 Q1015.88 1014.28 1019 1012.63 L1019 1018.17 Q1015.85 1019.5 1012.54 1020.2 Q1009.23 1020.9 1005.83 1020.9 Q997.297 1020.9 992.3 1015.94 Q987.334 1010.97 987.334 1002.51 Q987.334 993.754 992.045 988.63 Q996.788 983.474 1004.81 983.474 Q1012 983.474 1016.17 988.121 Q1020.37 992.736 1020.37 1000.69 M1014.52 998.974 Q1014.45 994.168 1011.81 991.304 Q1009.2 988.439 1004.87 988.439 Q999.97 988.439 997.01 991.208 Q994.082 993.977 993.636 999.006 L1014.52 998.974 Z" fill="#000000" fill-rule="evenodd" fill-opacity="1" /><path clip-path="url(#clip740)" d="M1055.64 985.702 L1055.64 991.176 Q1053.16 989.808 1050.64 989.139 Q1048.16 988.439 1045.61 988.439 Q1039.92 988.439 1036.76 992.068 Q1033.61 995.664 1033.61 1002.19 Q1033.61 1008.71 1036.76 1012.34 Q1039.92 1015.94 1045.61 1015.94 Q1048.16 1015.94 1050.64 1015.27 Q1053.16 1014.57 1055.64 1013.2 L1055.64 1018.61 Q1053.19 1019.76 1050.55 1020.33 Q1047.94 1020.9 1044.98 1020.9 Q1036.92 1020.9 1032.18 1015.84 Q1027.44 1010.78 1027.44 1002.19 Q1027.44 993.468 1032.21 988.471 Q1037.02 983.474 1045.36 983.474 Q1048.06 983.474 1050.64 984.047 Q1053.22 984.588 1055.64 985.702 Z" fill="#000000" fill-rule="evenodd" fill-opacity="1" /><path clip-path="url(#clip740)" d="M1071.62 974.212 L1071.62 984.333 L1083.68 984.333 L1083.68 988.885 L1071.62 988.885 L1071.62 1008.24 Q1071.62 1012.6 1072.79 1013.84 Q1074 1015.08 1077.66 1015.08 L1083.68 1015.08 L1083.68 1019.98 L1077.66 1019.98 Q1070.88 1019.98 1068.31 1017.47 Q1065.73 1014.92 1065.73 1008.24 L1065.73 988.885 L1061.43 988.885 L1061.43 984.333 L1065.73 984.333 L1065.73 974.212 L1071.62 974.212 Z" fill="#000000" fill-rule="evenodd" fill-opacity="1" /><path clip-path="url(#clip740)" d="M1091.38 984.333 L1097.24 984.333 L1097.24 1019.98 L1091.38 1019.98 L1091.38 984.333 M1091.38 970.456 L1097.24 970.456 L1097.24 977.872 L1091.38 977.872 L1091.38 970.456 Z" fill="#000000" fill-rule="evenodd" fill-opacity="1" /><path clip-path="url(#clip740)" d="M1105.29 984.333 L1111.5 984.333 L1122.64 1014.25 L1133.78 984.333 L1139.98 984.333 L1126.62 1019.98 L1118.66 1019.98 L1105.29 984.333 Z" fill="#000000" fill-rule="evenodd" fill-opacity="1" /><path clip-path="url(#clip740)" d="M1148.07 984.333 L1153.92 984.333 L1153.92 1019.98 L1148.07 1019.98 L1148.07 984.333 M1148.07 970.456 L1153.92 970.456 L1153.92 977.872 L1148.07 977.872 L1148.07 970.456 Z" fill="#000000" fill-rule="evenodd" fill-opacity="1" /><path clip-path="url(#clip740)" d="M1171.97 974.212 L1171.97 984.333 L1184.03 984.333 L1184.03 988.885 L1171.97 988.885 L1171.97 1008.24 Q1171.97 1012.6 1173.15 1013.84 Q1174.36 1015.08 1178.02 1015.08 L1184.03 1015.08 L1184.03 1019.98 L1178.02 1019.98 Q1171.24 1019.98 1168.66 1017.47 Q1166.08 1014.92 1166.08 1008.24 L1166.08 988.885 L1161.79 988.885 L1161.79 984.333 L1166.08 984.333 L1166.08 974.212 L1171.97 974.212 Z" fill="#000000" fill-rule="evenodd" fill-opacity="1" /><path clip-path="url(#clip740)" d="M1206.57 1023.29 Q1204.09 1029.66 1201.73 1031.6 Q1199.38 1033.54 1195.43 1033.54 L1190.75 1033.54 L1190.75 1028.64 L1194.19 1028.64 Q1196.61 1028.64 1197.94 1027.49 Q1199.28 1026.35 1200.9 1022.08 L1201.95 1019.41 L1187.54 984.333 L1193.74 984.333 L1204.88 1012.22 L1216.02 984.333 L1222.23 984.333 L1206.57 1023.29 Z" fill="#000000" fill-rule="evenodd" fill-opacity="1" /><path clip-path="url(#clip740)" d="M1264.85 988.439 Q1260.14 988.439 1257.4 992.131 Q1254.66 995.791 1254.66 1002.19 Q1254.66 1008.59 1257.37 1012.28 Q1260.1 1015.94 1264.85 1015.94 Q1269.53 1015.94 1272.26 1012.25 Q1275 1008.55 1275 1002.19 Q1275 995.855 1272.26 992.163 Q1269.53 988.439 1264.85 988.439 M1264.85 983.474 Q1272.49 983.474 1276.85 988.439 Q1281.21 993.404 1281.21 1002.19 Q1281.21 1010.94 1276.85 1015.94 Q1272.49 1020.9 1264.85 1020.9 Q1257.18 1020.9 1252.82 1015.94 Q1248.49 1010.94 1248.49 1002.19 Q1248.49 993.404 1252.82 988.439 Q1257.18 983.474 1264.85 983.474 Z" fill="#000000" fill-rule="evenodd" fill-opacity="1" /><path clip-path="url(#clip740)" d="M1308.96 970.456 L1308.96 975.326 L1303.36 975.326 Q1300.21 975.326 1298.97 976.599 Q1297.76 977.872 1297.76 981.182 L1297.76 984.333 L1307.4 984.333 L1307.4 988.885 L1297.76 988.885 L1297.76 1019.98 L1291.87 1019.98 L1291.87 988.885 L1286.27 988.885 L1286.27 984.333 L1291.87 984.333 L1291.87 981.851 Q1291.87 975.899 1294.64 973.193 Q1297.41 970.456 1303.42 970.456 L1308.96 970.456 Z" fill="#000000" fill-rule="evenodd" fill-opacity="1" /><path clip-path="url(#clip740)" d="M1340.38 974.212 L1340.38 984.333 L1352.44 984.333 L1352.44 988.885 L1340.38 988.885 L1340.38 1008.24 Q1340.38 1012.6 1341.55 1013.84 Q1342.76 1015.08 1346.42 1015.08 L1352.44 1015.08 L1352.44 1019.98 L1346.42 1019.98 Q1339.64 1019.98 1337.07 1017.47 Q1334.49 1014.92 1334.49 1008.24 L1334.49 988.885 L1330.19 988.885 L1330.19 984.333 L1334.49 984.333 L1334.49 974.212 L1340.38 974.212 Z" fill="#000000" fill-rule="evenodd" fill-opacity="1" /><path clip-path="url(#clip740)" d="M1376.34 1002.06 Q1369.25 1002.06 1366.51 1003.68 Q1363.77 1005.31 1363.77 1009.22 Q1363.77 1012.34 1365.81 1014.19 Q1367.88 1016 1371.41 1016 Q1376.28 1016 1379.21 1012.57 Q1382.17 1009.1 1382.17 1003.37 L1382.17 1002.06 L1376.34 1002.06 M1388.02 999.643 L1388.02 1019.98 L1382.17 1019.98 L1382.17 1014.57 Q1380.16 1017.82 1377.17 1019.38 Q1374.18 1020.9 1369.85 1020.9 Q1364.38 1020.9 1361.13 1017.85 Q1357.91 1014.76 1357.91 1009.61 Q1357.91 1003.59 1361.92 1000.53 Q1365.97 997.478 1373.96 997.478 L1382.17 997.478 L1382.17 996.905 Q1382.17 992.863 1379.49 990.667 Q1376.85 988.439 1372.05 988.439 Q1368.99 988.439 1366.09 989.171 Q1363.2 989.903 1360.52 991.367 L1360.52 985.956 Q1363.74 984.715 1366.76 984.11 Q1369.79 983.474 1372.65 983.474 Q1380.39 983.474 1384.2 987.484 Q1388.02 991.495 1388.02 999.643 Z" fill="#000000" fill-rule="evenodd" fill-opacity="1" /><path clip-path="url(#clip740)" d="M1420.74 989.808 Q1419.76 989.235 1418.58 988.98 Q1417.43 988.694 1416.03 988.694 Q1411.07 988.694 1408.39 991.94 Q1405.75 995.155 1405.75 1001.2 L1405.75 1019.98 L1399.86 1019.98 L1399.86 984.333 L1405.75 984.333 L1405.75 989.871 Q1407.6 986.625 1410.56 985.065 Q1413.52 983.474 1417.75 983.474 Q1418.36 983.474 1419.09 983.569 Q1419.82 983.633 1420.71 983.792 L1420.74 989.808 Z" fill="#000000" fill-rule="evenodd" fill-opacity="1" /><path clip-path="url(#clip740)" d="M1449.2 1001.74 Q1449.2 995.378 1446.56 991.877 Q1443.95 988.375 1439.2 988.375 Q1434.49 988.375 1431.85 991.877 Q1429.24 995.378 1429.24 1001.74 Q1429.24 1008.08 1431.85 1011.58 Q1434.49 1015.08 1439.2 1015.08 Q1443.95 1015.08 1446.56 1011.58 Q1449.2 1008.08 1449.2 1001.74 M1455.05 1015.56 Q1455.05 1024.66 1451.01 1029.08 Q1446.97 1033.54 1438.63 1033.54 Q1435.54 1033.54 1432.81 1033.06 Q1430.07 1032.62 1427.49 1031.66 L1427.49 1025.96 Q1430.07 1027.37 1432.58 1028.03 Q1435.1 1028.7 1437.71 1028.7 Q1443.47 1028.7 1446.33 1025.68 Q1449.2 1022.69 1449.2 1016.61 L1449.2 1013.71 Q1447.38 1016.86 1444.55 1018.42 Q1441.72 1019.98 1437.77 1019.98 Q1431.22 1019.98 1427.2 1014.98 Q1423.19 1009.99 1423.19 1001.74 Q1423.19 993.468 1427.2 988.471 Q1431.22 983.474 1437.77 983.474 Q1441.72 983.474 1444.55 985.033 Q1447.38 986.593 1449.2 989.744 L1449.2 984.333 L1455.05 984.333 L1455.05 1015.56 Z" fill="#000000" fill-rule="evenodd" fill-opacity="1" /><path clip-path="url(#clip740)" d="M1497.61 1000.69 L1497.61 1003.56 L1470.68 1003.56 Q1471.06 1009.61 1474.31 1012.79 Q1477.59 1015.94 1483.41 1015.94 Q1486.79 1015.94 1489.94 1015.11 Q1493.12 1014.28 1496.24 1012.63 L1496.24 1018.17 Q1493.09 1019.5 1489.78 1020.2 Q1486.47 1020.9 1483.06 1020.9 Q1474.53 1020.9 1469.54 1015.94 Q1464.57 1010.97 1464.57 1002.51 Q1464.57 993.754 1469.28 988.63 Q1474.02 983.474 1482.05 983.474 Q1489.24 983.474 1493.41 988.121 Q1497.61 992.736 1497.61 1000.69 M1491.75 998.974 Q1491.69 994.168 1489.05 991.304 Q1486.44 988.439 1482.11 988.439 Q1477.21 988.439 1474.25 991.208 Q1471.32 993.977 1470.87 999.006 L1491.75 998.974 Z" fill="#000000" fill-rule="evenodd" fill-opacity="1" /><path clip-path="url(#clip740)" d="M1513.01 974.212 L1513.01 984.333 L1525.08 984.333 L1525.08 988.885 L1513.01 988.885 L1513.01 1008.24 Q1513.01 1012.6 1514.19 1013.84 Q1515.4 1015.08 1519.06 1015.08 L1525.08 1015.08 L1525.08 1019.98 L1519.06 1019.98 Q1512.28 1019.98 1509.7 1017.47 Q1507.13 1014.92 1507.13 1008.24 L1507.13 988.885 L1502.83 988.885 L1502.83 984.333 L1507.13 984.333 L1507.13 974.212 L1513.01 974.212 Z" fill="#000000" fill-rule="evenodd" fill-opacity="1" /><polyline clip-path="url(#clip742)" style="stroke:#000000; stroke-linecap:butt; stroke-linejoin:round; stroke-width:2; stroke-opacity:0.1; fill:none" points="
  241.889,843.263 1871.49,843.263 
  "/>
<polyline clip-path="url(#clip742)" style="stroke:#000000; stroke-linecap:butt; stroke-linejoin:round; stroke-width:2; stroke-opacity:0.1; fill:none" points="
  241.889,687.125 1871.49,687.125 
  "/>
<polyline clip-path="url(#clip742)" style="stroke:#000000; stroke-linecap:butt; stroke-linejoin:round; stroke-width:2; stroke-opacity:0.1; fill:none" points="
  241.889,530.987 1871.49,530.987 
  "/>
<polyline clip-path="url(#clip742)" style="stroke:#000000; stroke-linecap:butt; stroke-linejoin:round; stroke-width:2; stroke-opacity:0.1; fill:none" points="
  241.889,374.849 1871.49,374.849 
  "/>
<polyline clip-path="url(#clip742)" style="stroke:#000000; stroke-linecap:butt; stroke-linejoin:round; stroke-width:2; stroke-opacity:0.1; fill:none" points="
  241.889,218.711 1871.49,218.711 
  "/>
<polyline clip-path="url(#clip740)" style="stroke:#000000; stroke-linecap:butt; stroke-linejoin:round; stroke-width:4; stroke-opacity:1; fill:none" points="
  241.889,872.117 241.889,189.856 
  "/>
<polyline clip-path="url(#clip740)" style="stroke:#000000; stroke-linecap:butt; stroke-linejoin:round; stroke-width:4; stroke-opacity:1; fill:none" points="
  241.889,843.263 261.444,843.263 
  "/>
<polyline clip-path="url(#clip740)" style="stroke:#000000; stroke-linecap:butt; stroke-linejoin:round; stroke-width:4; stroke-opacity:1; fill:none" points="
  241.889,687.125 261.444,687.125 
  "/>
<polyline clip-path="url(#clip740)" style="stroke:#000000; stroke-linecap:butt; stroke-linejoin:round; stroke-width:4; stroke-opacity:1; fill:none" points="
  241.889,530.987 261.444,530.987 
  "/>
<polyline clip-path="url(#clip740)" style="stroke:#000000; stroke-linecap:butt; stroke-linejoin:round; stroke-width:4; stroke-opacity:1; fill:none" points="
  241.889,374.849 261.444,374.849 
  "/>
<polyline clip-path="url(#clip740)" style="stroke:#000000; stroke-linecap:butt; stroke-linejoin:round; stroke-width:4; stroke-opacity:1; fill:none" points="
  241.889,218.711 261.444,218.711 
  "/>
<path clip-path="url(#clip740)" d="M115.551 829.061 Q111.94 829.061 110.111 832.626 Q108.306 836.168 108.306 843.297 Q108.306 850.404 110.111 853.969 Q111.94 857.51 115.551 857.51 Q119.185 857.51 120.991 853.969 Q122.82 850.404 122.82 843.297 Q122.82 836.168 120.991 832.626 Q119.185 829.061 115.551 829.061 M115.551 825.358 Q121.361 825.358 124.417 829.964 Q127.496 834.548 127.496 843.297 Q127.496 852.024 124.417 856.631 Q121.361 861.214 115.551 861.214 Q109.741 861.214 106.662 856.631 Q103.607 852.024 103.607 843.297 Q103.607 834.548 106.662 829.964 Q109.741 825.358 115.551 825.358 Z" fill="#000000" fill-rule="evenodd" fill-opacity="1" /><path clip-path="url(#clip740)" d="M135.713 854.663 L140.597 854.663 L140.597 860.543 L135.713 860.543 L135.713 854.663 Z" fill="#000000" fill-rule="evenodd" fill-opacity="1" /><path clip-path="url(#clip740)" d="M160.782 829.061 Q157.171 829.061 155.343 832.626 Q153.537 836.168 153.537 843.297 Q153.537 850.404 155.343 853.969 Q157.171 857.51 160.782 857.51 Q164.417 857.51 166.222 853.969 Q168.051 850.404 168.051 843.297 Q168.051 836.168 166.222 832.626 Q164.417 829.061 160.782 829.061 M160.782 825.358 Q166.593 825.358 169.648 829.964 Q172.727 834.548 172.727 843.297 Q172.727 852.024 169.648 856.631 Q166.593 861.214 160.782 861.214 Q154.972 861.214 151.894 856.631 Q148.838 852.024 148.838 843.297 Q148.838 834.548 151.894 829.964 Q154.972 825.358 160.782 825.358 Z" fill="#000000" fill-rule="evenodd" fill-opacity="1" /><path clip-path="url(#clip740)" d="M190.944 829.061 Q187.333 829.061 185.504 832.626 Q183.699 836.168 183.699 843.297 Q183.699 850.404 185.504 853.969 Q187.333 857.51 190.944 857.51 Q194.579 857.51 196.384 853.969 Q198.213 850.404 198.213 843.297 Q198.213 836.168 196.384 832.626 Q194.579 829.061 190.944 829.061 M190.944 825.358 Q196.754 825.358 199.81 829.964 Q202.889 834.548 202.889 843.297 Q202.889 852.024 199.81 856.631 Q196.754 861.214 190.944 861.214 Q185.134 861.214 182.055 856.631 Q179 852.024 179 843.297 Q179 834.548 182.055 829.964 Q185.134 825.358 190.944 825.358 Z" fill="#000000" fill-rule="evenodd" fill-opacity="1" /><path clip-path="url(#clip740)" d="M116.547 672.923 Q112.935 672.923 111.107 676.488 Q109.301 680.03 109.301 687.159 Q109.301 694.266 111.107 697.831 Q112.935 701.372 116.547 701.372 Q120.181 701.372 121.986 697.831 Q123.815 694.266 123.815 687.159 Q123.815 680.03 121.986 676.488 Q120.181 672.923 116.547 672.923 M116.547 669.22 Q122.357 669.22 125.412 673.826 Q128.491 678.41 128.491 687.159 Q128.491 695.886 125.412 700.493 Q122.357 705.076 116.547 705.076 Q110.736 705.076 107.658 700.493 Q104.602 695.886 104.602 687.159 Q104.602 678.41 107.658 673.826 Q110.736 669.22 116.547 669.22 Z" fill="#000000" fill-rule="evenodd" fill-opacity="1" /><path clip-path="url(#clip740)" d="M136.708 698.525 L141.593 698.525 L141.593 704.405 L136.708 704.405 L136.708 698.525 Z" fill="#000000" fill-rule="evenodd" fill-opacity="1" /><path clip-path="url(#clip740)" d="M155.806 700.47 L172.125 700.47 L172.125 704.405 L150.181 704.405 L150.181 700.47 Q152.843 697.715 157.426 693.085 Q162.032 688.433 163.213 687.09 Q165.458 684.567 166.338 682.831 Q167.241 681.072 167.241 679.382 Q167.241 676.627 165.296 674.891 Q163.375 673.155 160.273 673.155 Q158.074 673.155 155.62 673.919 Q153.19 674.683 150.412 676.234 L150.412 671.511 Q153.236 670.377 155.69 669.798 Q158.144 669.22 160.181 669.22 Q165.551 669.22 168.745 671.905 Q171.94 674.59 171.94 679.081 Q171.94 681.21 171.13 683.132 Q170.343 685.03 168.236 687.622 Q167.657 688.294 164.556 691.511 Q161.454 694.706 155.806 700.47 Z" fill="#000000" fill-rule="evenodd" fill-opacity="1" /><path clip-path="url(#clip740)" d="M181.986 669.845 L200.342 669.845 L200.342 673.78 L186.268 673.78 L186.268 682.252 Q187.287 681.905 188.305 681.743 Q189.324 681.558 190.342 681.558 Q196.129 681.558 199.509 684.729 Q202.889 687.9 202.889 693.317 Q202.889 698.896 199.416 701.997 Q195.944 705.076 189.625 705.076 Q187.449 705.076 185.18 704.706 Q182.935 704.335 180.528 703.595 L180.528 698.896 Q182.611 700.03 184.833 700.585 Q187.055 701.141 189.532 701.141 Q193.537 701.141 195.875 699.034 Q198.213 696.928 198.213 693.317 Q198.213 689.706 195.875 687.599 Q193.537 685.493 189.532 685.493 Q187.657 685.493 185.782 685.909 Q183.93 686.326 181.986 687.206 L181.986 669.845 Z" fill="#000000" fill-rule="evenodd" fill-opacity="1" /><path clip-path="url(#clip740)" d="M115.551 516.785 Q111.94 516.785 110.111 520.35 Q108.306 523.892 108.306 531.021 Q108.306 538.128 110.111 541.693 Q111.94 545.234 115.551 545.234 Q119.185 545.234 120.991 541.693 Q122.82 538.128 122.82 531.021 Q122.82 523.892 120.991 520.35 Q119.185 516.785 115.551 516.785 M115.551 513.082 Q121.361 513.082 124.417 517.688 Q127.496 522.272 127.496 531.021 Q127.496 539.748 124.417 544.355 Q121.361 548.938 115.551 548.938 Q109.741 548.938 106.662 544.355 Q103.607 539.748 103.607 531.021 Q103.607 522.272 106.662 517.688 Q109.741 513.082 115.551 513.082 Z" fill="#000000" fill-rule="evenodd" fill-opacity="1" /><path clip-path="url(#clip740)" d="M135.713 542.387 L140.597 542.387 L140.597 548.267 L135.713 548.267 L135.713 542.387 Z" fill="#000000" fill-rule="evenodd" fill-opacity="1" /><path clip-path="url(#clip740)" d="M150.829 513.707 L169.185 513.707 L169.185 517.642 L155.111 517.642 L155.111 526.114 Q156.13 525.767 157.148 525.605 Q158.167 525.42 159.185 525.42 Q164.972 525.42 168.352 528.591 Q171.731 531.762 171.731 537.179 Q171.731 542.758 168.259 545.859 Q164.787 548.938 158.468 548.938 Q156.292 548.938 154.023 548.568 Q151.778 548.197 149.37 547.457 L149.37 542.758 Q151.454 543.892 153.676 544.447 Q155.898 545.003 158.375 545.003 Q162.38 545.003 164.718 542.896 Q167.056 540.79 167.056 537.179 Q167.056 533.568 164.718 531.461 Q162.38 529.355 158.375 529.355 Q156.5 529.355 154.625 529.771 Q152.773 530.188 150.829 531.068 L150.829 513.707 Z" fill="#000000" fill-rule="evenodd" fill-opacity="1" /><path clip-path="url(#clip740)" d="M190.944 516.785 Q187.333 516.785 185.504 520.35 Q183.699 523.892 183.699 531.021 Q183.699 538.128 185.504 541.693 Q187.333 545.234 190.944 545.234 Q194.579 545.234 196.384 541.693 Q198.213 538.128 198.213 531.021 Q198.213 523.892 196.384 520.35 Q194.579 516.785 190.944 516.785 M190.944 513.082 Q196.754 513.082 199.81 517.688 Q202.889 522.272 202.889 531.021 Q202.889 539.748 199.81 544.355 Q196.754 548.938 190.944 548.938 Q185.134 548.938 182.055 544.355 Q179 539.748 179 531.021 Q179 522.272 182.055 517.688 Q185.134 513.082 190.944 513.082 Z" fill="#000000" fill-rule="evenodd" fill-opacity="1" /><path clip-path="url(#clip740)" d="M116.547 360.647 Q112.935 360.647 111.107 364.212 Q109.301 367.754 109.301 374.883 Q109.301 381.99 111.107 385.555 Q112.935 389.096 116.547 389.096 Q120.181 389.096 121.986 385.555 Q123.815 381.99 123.815 374.883 Q123.815 367.754 121.986 364.212 Q120.181 360.647 116.547 360.647 M116.547 356.944 Q122.357 356.944 125.412 361.55 Q128.491 366.134 128.491 374.883 Q128.491 383.61 125.412 388.217 Q122.357 392.8 116.547 392.8 Q110.736 392.8 107.658 388.217 Q104.602 383.61 104.602 374.883 Q104.602 366.134 107.658 361.55 Q110.736 356.944 116.547 356.944 Z" fill="#000000" fill-rule="evenodd" fill-opacity="1" /><path clip-path="url(#clip740)" d="M136.708 386.249 L141.593 386.249 L141.593 392.129 L136.708 392.129 L136.708 386.249 Z" fill="#000000" fill-rule="evenodd" fill-opacity="1" /><path clip-path="url(#clip740)" d="M150.597 357.569 L172.819 357.569 L172.819 359.559 L160.273 392.129 L155.389 392.129 L167.194 361.504 L150.597 361.504 L150.597 357.569 Z" fill="#000000" fill-rule="evenodd" fill-opacity="1" /><path clip-path="url(#clip740)" d="M181.986 357.569 L200.342 357.569 L200.342 361.504 L186.268 361.504 L186.268 369.976 Q187.287 369.629 188.305 369.467 Q189.324 369.282 190.342 369.282 Q196.129 369.282 199.509 372.453 Q202.889 375.624 202.889 381.041 Q202.889 386.62 199.416 389.721 Q195.944 392.8 189.625 392.8 Q187.449 392.8 185.18 392.43 Q182.935 392.059 180.528 391.319 L180.528 386.62 Q182.611 387.754 184.833 388.309 Q187.055 388.865 189.532 388.865 Q193.537 388.865 195.875 386.758 Q198.213 384.652 198.213 381.041 Q198.213 377.43 195.875 375.323 Q193.537 373.217 189.532 373.217 Q187.657 373.217 185.782 373.633 Q183.93 374.05 181.986 374.93 L181.986 357.569 Z" fill="#000000" fill-rule="evenodd" fill-opacity="1" /><path clip-path="url(#clip740)" d="M106.361 232.056 L114 232.056 L114 205.69 L105.69 207.357 L105.69 203.097 L113.954 201.431 L118.63 201.431 L118.63 232.056 L126.269 232.056 L126.269 235.991 L106.361 235.991 L106.361 232.056 Z" fill="#000000" fill-rule="evenodd" fill-opacity="1" /><path clip-path="url(#clip740)" d="M135.713 230.111 L140.597 230.111 L140.597 235.991 L135.713 235.991 L135.713 230.111 Z" fill="#000000" fill-rule="evenodd" fill-opacity="1" /><path clip-path="url(#clip740)" d="M160.782 204.509 Q157.171 204.509 155.343 208.074 Q153.537 211.616 153.537 218.745 Q153.537 225.852 155.343 229.417 Q157.171 232.958 160.782 232.958 Q164.417 232.958 166.222 229.417 Q168.051 225.852 168.051 218.745 Q168.051 211.616 166.222 208.074 Q164.417 204.509 160.782 204.509 M160.782 200.806 Q166.593 200.806 169.648 205.412 Q172.727 209.996 172.727 218.745 Q172.727 227.472 169.648 232.079 Q166.593 236.662 160.782 236.662 Q154.972 236.662 151.894 232.079 Q148.838 227.472 148.838 218.745 Q148.838 209.996 151.894 205.412 Q154.972 200.806 160.782 200.806 Z" fill="#000000" fill-rule="evenodd" fill-opacity="1" /><path clip-path="url(#clip740)" d="M190.944 204.509 Q187.333 204.509 185.504 208.074 Q183.699 211.616 183.699 218.745 Q183.699 225.852 185.504 229.417 Q187.333 232.958 190.944 232.958 Q194.579 232.958 196.384 229.417 Q198.213 225.852 198.213 218.745 Q198.213 211.616 196.384 208.074 Q194.579 204.509 190.944 204.509 M190.944 200.806 Q196.754 200.806 199.81 205.412 Q202.889 209.996 202.889 218.745 Q202.889 227.472 199.81 232.079 Q196.754 236.662 190.944 236.662 Q185.134 236.662 182.055 232.079 Q179 227.472 179 218.745 Q179 209.996 182.055 205.412 Q185.134 200.806 190.944 200.806 Z" fill="#000000" fill-rule="evenodd" fill-opacity="1" /><path clip-path="url(#clip740)" d="M20.1773 797.853 Q19.6044 798.84 19.3498 800.017 Q19.0633 801.163 19.0633 802.564 Q19.0633 807.529 22.3098 810.203 Q25.5245 812.844 31.572 812.844 L50.3508 812.844 L50.3508 818.733 L14.7028 818.733 L14.7028 812.844 L20.241 812.844 Q16.9945 810.998 15.4349 808.038 Q13.8435 805.078 13.8435 800.845 Q13.8435 800.24 13.9389 799.508 Q14.0026 798.776 14.1617 797.885 L20.1773 797.853 Z" fill="#000000" fill-rule="evenodd" fill-opacity="1" /><path clip-path="url(#clip740)" d="M32.4313 775.509 Q32.4313 782.607 34.0546 785.344 Q35.6778 788.082 39.5927 788.082 Q42.7119 788.082 44.558 786.045 Q46.3722 783.976 46.3722 780.443 Q46.3722 775.573 42.9347 772.645 Q39.4654 769.685 33.7363 769.685 L32.4313 769.685 L32.4313 775.509 M30.0124 763.828 L50.3508 763.828 L50.3508 769.685 L44.9399 769.685 Q48.1864 771.69 49.746 774.682 Q51.2738 777.674 51.2738 782.002 Q51.2738 787.477 48.2183 790.723 Q45.1309 793.938 39.9747 793.938 Q33.9591 793.938 30.9036 789.928 Q27.848 785.886 27.848 777.897 L27.848 769.685 L27.2751 769.685 Q23.2329 769.685 21.0367 772.358 Q18.8087 775 18.8087 779.806 Q18.8087 782.862 19.5408 785.758 Q20.2728 788.655 21.7369 791.328 L16.3261 791.328 Q15.0848 788.114 14.48 785.09 Q13.8435 782.066 13.8435 779.202 Q13.8435 771.467 17.8539 767.648 Q21.8642 763.828 30.0124 763.828 Z" fill="#000000" fill-rule="evenodd" fill-opacity="1" /><path clip-path="url(#clip740)" d="M4.58136 745.973 L14.7028 745.973 L14.7028 733.91 L19.2543 733.91 L19.2543 745.973 L38.6061 745.973 Q42.9666 745.973 44.2079 744.795 Q45.4492 743.585 45.4492 739.925 L45.4492 733.91 L50.3508 733.91 L50.3508 739.925 Q50.3508 746.705 47.8363 749.283 Q45.29 751.861 38.6061 751.861 L19.2543 751.861 L19.2543 756.158 L14.7028 756.158 L14.7028 751.861 L4.58136 751.861 L4.58136 745.973 Z" fill="#000000" fill-rule="evenodd" fill-opacity="1" /><path clip-path="url(#clip740)" d="M14.7028 726.207 L14.7028 720.351 L50.3508 720.351 L50.3508 726.207 L14.7028 726.207 M0.825588 726.207 L0.825588 720.351 L8.24164 720.351 L8.24164 726.207 L0.825588 726.207 Z" fill="#000000" fill-rule="evenodd" fill-opacity="1" /><path clip-path="url(#clip740)" d="M18.8087 694.283 Q18.8087 698.994 22.5008 701.731 Q26.1611 704.468 32.5586 704.468 Q38.9562 704.468 42.6483 701.763 Q46.3086 699.025 46.3086 694.283 Q46.3086 689.604 42.6165 686.867 Q38.9243 684.13 32.5586 684.13 Q26.2248 684.13 22.5326 686.867 Q18.8087 689.604 18.8087 694.283 M13.8435 694.283 Q13.8435 686.644 18.8087 682.284 Q23.774 677.923 32.5586 677.923 Q41.3115 677.923 46.3086 682.284 Q51.2738 686.644 51.2738 694.283 Q51.2738 701.954 46.3086 706.314 Q41.3115 710.643 32.5586 710.643 Q23.774 710.643 18.8087 706.314 Q13.8435 701.954 13.8435 694.283 Z" fill="#000000" fill-rule="evenodd" fill-opacity="1" /><path clip-path="url(#clip740)" d="M18.8087 633.681 Q18.8087 638.392 22.5008 641.129 Q26.1611 643.867 32.5586 643.867 Q38.9562 643.867 42.6483 641.161 Q46.3086 638.424 46.3086 633.681 Q46.3086 629.003 42.6165 626.265 Q38.9243 623.528 32.5586 623.528 Q26.2248 623.528 22.5326 626.265 Q18.8087 629.003 18.8087 633.681 M13.8435 633.681 Q13.8435 626.043 18.8087 621.682 Q23.774 617.322 32.5586 617.322 Q41.3115 617.322 46.3086 621.682 Q51.2738 626.043 51.2738 633.681 Q51.2738 641.352 46.3086 645.713 Q41.3115 650.041 32.5586 650.041 Q23.774 650.041 18.8087 645.713 Q13.8435 641.352 13.8435 633.681 Z" fill="#000000" fill-rule="evenodd" fill-opacity="1" /><path clip-path="url(#clip740)" d="M0.825588 589.567 L5.69535 589.567 L5.69535 595.169 Q5.69535 598.32 6.9685 599.561 Q8.24164 600.771 11.5518 600.771 L14.7028 600.771 L14.7028 591.127 L19.2543 591.127 L19.2543 600.771 L50.3508 600.771 L50.3508 606.659 L19.2543 606.659 L19.2543 612.261 L14.7028 612.261 L14.7028 606.659 L12.2202 606.659 Q6.26827 606.659 3.56284 603.89 Q0.825588 601.121 0.825588 595.105 L0.825588 589.567 Z" fill="#000000" fill-rule="evenodd" fill-opacity="1" /><path clip-path="url(#clip740)" d="M20.1773 543.288 Q19.6044 544.275 19.3498 545.453 Q19.0633 546.599 19.0633 547.999 Q19.0633 552.964 22.3098 555.638 Q25.5245 558.28 31.572 558.28 L50.3508 558.28 L50.3508 564.168 L14.7028 564.168 L14.7028 558.28 L20.241 558.28 Q16.9945 556.434 15.4349 553.474 Q13.8435 550.514 13.8435 546.28 Q13.8435 545.676 13.9389 544.944 Q14.0026 544.211 14.1617 543.32 L20.1773 543.288 Z" fill="#000000" fill-rule="evenodd" fill-opacity="1" /><path clip-path="url(#clip740)" d="M31.0627 508.086 L33.9273 508.086 L33.9273 535.013 Q39.9747 534.631 43.1575 531.385 Q46.3086 528.106 46.3086 522.282 Q46.3086 518.908 45.481 515.757 Q44.6535 512.574 42.9984 509.455 L48.5366 509.455 Q49.8734 512.606 50.5736 515.916 Q51.2738 519.226 51.2738 522.632 Q51.2738 531.162 46.3086 536.159 Q41.3433 541.124 32.8769 541.124 Q24.1241 541.124 18.9997 536.414 Q13.8435 531.671 13.8435 523.65 Q13.8435 516.457 18.4904 512.287 Q23.1056 508.086 31.0627 508.086 M29.344 513.943 Q24.5378 514.006 21.6733 516.648 Q18.8087 519.258 18.8087 523.587 Q18.8087 528.488 21.5778 531.448 Q24.3469 534.376 29.3758 534.822 L29.344 513.943 Z" fill="#000000" fill-rule="evenodd" fill-opacity="1" /><path clip-path="url(#clip740)" d="M15.7532 475.748 L21.2913 475.748 Q20.0182 478.231 19.3816 480.905 Q18.7451 483.578 18.7451 486.443 Q18.7451 490.803 20.0819 492.999 Q21.4186 495.164 24.0922 495.164 Q26.1293 495.164 27.3069 493.604 Q28.4528 492.045 29.5031 487.334 L29.9487 485.329 Q31.2855 479.09 33.7363 476.48 Q36.1553 473.839 40.5158 473.839 Q45.481 473.839 48.3774 477.785 Q51.2738 481.7 51.2738 488.575 Q51.2738 491.44 50.7009 494.559 Q50.1598 497.646 49.0458 501.084 L42.9984 501.084 Q44.6853 497.837 45.5447 494.686 Q46.3722 491.535 46.3722 488.448 Q46.3722 484.31 44.9718 482.082 Q43.5395 479.854 40.9614 479.854 Q38.5742 479.854 37.3011 481.477 Q36.0279 483.069 34.8503 488.512 L34.3729 490.549 Q33.227 495.991 30.8717 498.41 Q28.4846 500.829 24.3469 500.829 Q19.318 500.829 16.5807 497.264 Q13.8435 493.7 13.8435 487.143 Q13.8435 483.896 14.3209 481.032 Q14.7983 478.167 15.7532 475.748 Z" fill="#000000" fill-rule="evenodd" fill-opacity="1" /><path clip-path="url(#clip740)" d="M45.0036 458.847 L63.9097 458.847 L63.9097 464.736 L14.7028 464.736 L14.7028 458.847 L20.1137 458.847 Q16.9308 457.001 15.4031 454.2 Q13.8435 451.368 13.8435 447.453 Q13.8435 440.96 18.9997 436.918 Q24.1559 432.843 32.5586 432.843 Q40.9614 432.843 46.1176 436.918 Q51.2738 440.96 51.2738 447.453 Q51.2738 451.368 49.746 454.2 Q48.1864 457.001 45.0036 458.847 M32.5586 438.923 Q26.0974 438.923 22.4372 441.596 Q18.7451 444.238 18.7451 448.885 Q18.7451 453.532 22.4372 456.206 Q26.0974 458.847 32.5586 458.847 Q39.0198 458.847 42.7119 456.206 Q46.3722 453.532 46.3722 448.885 Q46.3722 444.238 42.7119 441.596 Q39.0198 438.923 32.5586 438.923 Z" fill="#000000" fill-rule="evenodd" fill-opacity="1" /><path clip-path="url(#clip740)" d="M18.8087 409.322 Q18.8087 414.033 22.5008 416.77 Q26.1611 419.507 32.5586 419.507 Q38.9562 419.507 42.6483 416.802 Q46.3086 414.065 46.3086 409.322 Q46.3086 404.643 42.6165 401.906 Q38.9243 399.169 32.5586 399.169 Q26.2248 399.169 22.5326 401.906 Q18.8087 404.643 18.8087 409.322 M13.8435 409.322 Q13.8435 401.683 18.8087 397.323 Q23.774 392.962 32.5586 392.962 Q41.3115 392.962 46.3086 397.323 Q51.2738 401.683 51.2738 409.322 Q51.2738 416.993 46.3086 421.353 Q41.3115 425.682 32.5586 425.682 Q23.774 425.682 18.8087 421.353 Q13.8435 416.993 13.8435 409.322 Z" fill="#000000" fill-rule="evenodd" fill-opacity="1" /><path clip-path="url(#clip740)" d="M28.8347 353.622 L50.3508 353.622 L50.3508 359.479 L29.0257 359.479 Q23.9649 359.479 21.4505 361.452 Q18.936 363.425 18.936 367.372 Q18.936 372.115 21.9597 374.852 Q24.9834 377.589 30.2033 377.589 L50.3508 377.589 L50.3508 383.477 L14.7028 383.477 L14.7028 377.589 L20.241 377.589 Q17.0263 375.488 15.4349 372.656 Q13.8435 369.791 13.8435 366.067 Q13.8435 359.924 17.6629 356.773 Q21.4505 353.622 28.8347 353.622 Z" fill="#000000" fill-rule="evenodd" fill-opacity="1" /><path clip-path="url(#clip740)" d="M15.7532 319.216 L21.2913 319.216 Q20.0182 321.698 19.3816 324.372 Q18.7451 327.045 18.7451 329.91 Q18.7451 334.27 20.0819 336.467 Q21.4186 338.631 24.0922 338.631 Q26.1293 338.631 27.3069 337.071 Q28.4528 335.512 29.5031 330.801 L29.9487 328.796 Q31.2855 322.558 33.7363 319.948 Q36.1553 317.306 40.5158 317.306 Q45.481 317.306 48.3774 321.253 Q51.2738 325.168 51.2738 332.042 Q51.2738 334.907 50.7009 338.026 Q50.1598 341.114 49.0458 344.551 L42.9984 344.551 Q44.6853 341.305 45.5447 338.154 Q46.3722 335.003 46.3722 331.915 Q46.3722 327.777 44.9718 325.549 Q43.5395 323.321 40.9614 323.321 Q38.5742 323.321 37.3011 324.945 Q36.0279 326.536 34.8503 331.979 L34.3729 334.016 Q33.227 339.459 30.8717 341.878 Q28.4846 344.296 24.3469 344.296 Q19.318 344.296 16.5807 340.732 Q13.8435 337.167 13.8435 330.61 Q13.8435 327.364 14.3209 324.499 Q14.7983 321.635 15.7532 319.216 Z" fill="#000000" fill-rule="evenodd" fill-opacity="1" /><path clip-path="url(#clip740)" d="M31.0627 277.488 L33.9273 277.488 L33.9273 304.415 Q39.9747 304.033 43.1575 300.787 Q46.3086 297.509 46.3086 291.684 Q46.3086 288.31 45.481 285.159 Q44.6535 281.976 42.9984 278.857 L48.5366 278.857 Q49.8734 282.008 50.5736 285.318 Q51.2738 288.628 51.2738 292.034 Q51.2738 300.564 46.3086 305.561 Q41.3433 310.526 32.8769 310.526 Q24.1241 310.526 18.9997 305.816 Q13.8435 301.073 13.8435 293.053 Q13.8435 285.859 18.4904 281.69 Q23.1056 277.488 31.0627 277.488 M29.344 283.345 Q24.5378 283.408 21.6733 286.05 Q18.8087 288.66 18.8087 292.989 Q18.8087 297.89 21.5778 300.851 Q24.3469 303.779 29.3758 304.224 L29.344 283.345 Z" fill="#000000" fill-rule="evenodd" fill-opacity="1" /><path clip-path="url(#clip740)" d="M15.7532 245.151 L21.2913 245.151 Q20.0182 247.633 19.3816 250.307 Q18.7451 252.98 18.7451 255.845 Q18.7451 260.205 20.0819 262.402 Q21.4186 264.566 24.0922 264.566 Q26.1293 264.566 27.3069 263.006 Q28.4528 261.447 29.5031 256.736 L29.9487 254.731 Q31.2855 248.493 33.7363 245.883 Q36.1553 243.241 40.5158 243.241 Q45.481 243.241 48.3774 247.188 Q51.2738 251.103 51.2738 257.977 Q51.2738 260.842 50.7009 263.961 Q50.1598 267.049 49.0458 270.486 L42.9984 270.486 Q44.6853 267.24 45.5447 264.089 Q46.3722 260.938 46.3722 257.85 Q46.3722 253.712 44.9718 251.484 Q43.5395 249.256 40.9614 249.256 Q38.5742 249.256 37.3011 250.88 Q36.0279 252.471 34.8503 257.914 L34.3729 259.951 Q33.227 265.394 30.8717 267.813 Q28.4846 270.231 24.3469 270.231 Q19.318 270.231 16.5807 266.667 Q13.8435 263.102 13.8435 256.545 Q13.8435 253.299 14.3209 250.434 Q14.7983 247.57 15.7532 245.151 Z" fill="#000000" fill-rule="evenodd" fill-opacity="1" /><path clip-path="url(#clip742)" d="
M288.009 218.711 L480.179 218.711 L768.434 218.711 L816.477 218.711 L1056.69 218.711 L1200.82 218.711 L1248.86 218.711 L1296.9 218.711 L1344.94 218.711 L1441.03 218.711 
  L1489.07 218.711 L1633.2 218.711 L1825.37 218.711 L1825.37 843.263 L1633.2 843.263 L1489.07 843.263 L1441.03 843.263 L1344.94 843.263 L1296.9 843.263 L1248.86 843.263 
  L1200.82 843.263 L1056.69 843.263 L816.477 843.263 L768.434 843.263 L480.179 843.263 L288.009 843.263  Z
  " fill="#006d60" fill-rule="evenodd" fill-opacity="1"/>
<polyline clip-path="url(#clip742)" style="stroke:#000000; stroke-linecap:butt; stroke-linejoin:round; stroke-width:4; stroke-opacity:1; fill:none" points="
  288.009,218.711 480.179,218.711 768.434,218.711 816.477,218.711 1056.69,218.711 1200.82,218.711 1248.86,218.711 1296.9,218.711 1344.94,218.711 1441.03,218.711 
  1489.07,218.711 1633.2,218.711 1825.37,218.711 
  "/>
<path clip-path="url(#clip742)" d="
M288.009 242.732 L480.179 218.711 L768.434 260.348 L816.477 218.711 L1056.69 218.711 L1200.82 249.938 L1248.86 218.711 L1296.9 218.711 L1344.94 218.711 L1441.03 322.803 
  L1489.07 343.621 L1633.2 218.711 L1825.37 279.151 L1825.37 843.263 L1633.2 843.263 L1489.07 843.263 L1441.03 843.263 L1344.94 843.263 L1296.9 843.263 L1248.86 843.263 
  L1200.82 843.263 L1056.69 843.263 L816.477 843.263 L768.434 843.263 L480.179 843.263 L288.009 843.263  Z
  " fill="#008569" fill-rule="evenodd" fill-opacity="1"/>
<polyline clip-path="url(#clip742)" style="stroke:#000000; stroke-linecap:butt; stroke-linejoin:round; stroke-width:4; stroke-opacity:1; fill:none" points="
  288.009,242.732 480.179,218.711 768.434,260.348 816.477,218.711 1056.69,218.711 1200.82,249.938 1248.86,218.711 1296.9,218.711 1344.94,218.711 1441.03,322.803 
  1489.07,343.621 1633.2,218.711 1825.37,279.151 
  "/>
<path clip-path="url(#clip742)" d="
M288.009 290.774 L480.179 303.877 L768.434 343.621 L816.477 218.711 L1056.69 260.348 L1200.82 312.394 L1248.86 332.266 L1296.9 257.745 L1344.94 218.711 L1441.03 406.076 
  L1489.07 406.076 L1633.2 275.488 L1825.37 389.959 L1825.37 843.263 L1633.2 843.263 L1489.07 843.263 L1441.03 843.263 L1344.94 843.263 L1296.9 843.263 L1248.86 843.263 
  L1200.82 843.263 L1056.69 843.263 L816.477 843.263 L768.434 843.263 L480.179 843.263 L288.009 843.263  Z
  " fill="#009e73" fill-rule="evenodd" fill-opacity="1"/>
<polyline clip-path="url(#clip742)" style="stroke:#000000; stroke-linecap:butt; stroke-linejoin:round; stroke-width:4; stroke-opacity:1; fill:none" points="
  288.009,290.774 480.179,303.877 768.434,343.621 816.477,218.711 1056.69,260.348 1200.82,312.394 1248.86,332.266 1296.9,257.745 1344.94,218.711 1441.03,406.076 
  1489.07,406.076 1633.2,275.488 1825.37,389.959 
  "/>
<path clip-path="url(#clip742)" d="
M288.009 314.796 L480.179 303.877 L768.434 468.532 L816.477 343.621 L1056.69 343.621 L1200.82 437.304 L1248.86 445.821 L1296.9 316.297 L1344.94 218.711 L1441.03 572.624 
  L1489.07 468.532 L1633.2 303.877 L1825.37 450.399 L1825.37 843.263 L1633.2 843.263 L1489.07 843.263 L1441.03 843.263 L1344.94 843.263 L1296.9 843.263 L1248.86 843.263 
  L1200.82 843.263 L1056.69 843.263 L816.477 843.263 L768.434 843.263 L480.179 843.263 L288.009 843.263  Z
  " fill="#77c6b0" fill-rule="evenodd" fill-opacity="1"/>
<polyline clip-path="url(#clip742)" style="stroke:#000000; stroke-linecap:butt; stroke-linejoin:round; stroke-width:4; stroke-opacity:1; fill:none" points="
  288.009,314.796 480.179,303.877 768.434,468.532 816.477,343.621 1056.69,343.621 1200.82,437.304 1248.86,445.821 1296.9,316.297 1344.94,218.711 1441.03,572.624 
  1489.07,468.532 1633.2,303.877 1825.37,450.399 
  "/>
<path clip-path="url(#clip742)" d="
M288.009 506.966 L480.179 445.821 L768.434 593.442 L816.477 468.532 L1056.69 426.895 L1200.82 687.125 L1248.86 587.764 L1296.9 491.952 L1344.94 374.849 L1441.03 655.897 
  L1489.07 530.987 L1633.2 417.432 L1825.37 510.84 L1825.37 843.263 L1633.2 843.263 L1489.07 843.263 L1441.03 843.263 L1344.94 843.263 L1296.9 843.263 L1248.86 843.263 
  L1200.82 843.263 L1056.69 843.263 L816.477 843.263 L768.434 843.263 L480.179 843.263 L288.009 843.263  Z
  " fill="#eeeeee" fill-rule="evenodd" fill-opacity="1"/>
<polyline clip-path="url(#clip742)" style="stroke:#000000; stroke-linecap:butt; stroke-linejoin:round; stroke-width:4; stroke-opacity:1; fill:none" points="
  288.009,506.966 480.179,445.821 768.434,593.442 816.477,468.532 1056.69,426.895 1200.82,687.125 1248.86,587.764 1296.9,491.952 1344.94,374.849 1441.03,655.897 
  1489.07,530.987 1633.2,417.432 1825.37,510.84 
  "/>
<path clip-path="url(#clip742)" d="
M288.009 795.22 L480.179 758.097 L768.434 759.989 L816.477 718.352 L1056.69 718.352 L1200.82 812.035 L1248.86 701.319 L1296.9 804.228 L1344.94 687.125 L1441.03 843.263 
  L1489.07 624.67 L1633.2 729.708 L1825.37 732.455 L1825.37 843.263 L1633.2 843.263 L1489.07 843.263 L1441.03 843.263 L1344.94 843.263 L1296.9 843.263 L1248.86 843.263 
  L1200.82 843.263 L1056.69 843.263 L816.477 843.263 L768.434 843.263 L480.179 843.263 L288.009 843.263  Z
  " fill="#ddb3ca" fill-rule="evenodd" fill-opacity="1"/>
<polyline clip-path="url(#clip742)" style="stroke:#000000; stroke-linecap:butt; stroke-linejoin:round; stroke-width:4; stroke-opacity:1; fill:none" points="
  288.009,795.22 480.179,758.097 768.434,759.989 816.477,718.352 1056.69,718.352 1200.82,812.035 1248.86,701.319 1296.9,804.228 1344.94,687.125 1441.03,843.263 
  1489.07,624.67 1633.2,729.708 1825.37,732.455 
  "/>
<path clip-path="url(#clip742)" d="
M288.009 843.263 L480.179 814.874 L768.434 843.263 L816.477 780.808 L1056.69 843.263 L1200.82 843.263 L1248.86 786.485 L1296.9 843.263 L1344.94 765.194 L1441.03 843.263 
  L1489.07 687.125 L1633.2 786.485 L1825.37 792.896 L1825.37 843.263 L1633.2 843.263 L1489.07 843.263 L1441.03 843.263 L1344.94 843.263 L1296.9 843.263 L1248.86 843.263 
  L1200.82 843.263 L1056.69 843.263 L816.477 843.263 L768.434 843.263 L480.179 843.263 L288.009 843.263  Z
  " fill="#cc79a7" fill-rule="evenodd" fill-opacity="1"/>
<polyline clip-path="url(#clip742)" style="stroke:#000000; stroke-linecap:butt; stroke-linejoin:round; stroke-width:4; stroke-opacity:1; fill:none" points="
  288.009,843.263 480.179,814.874 768.434,843.263 816.477,780.808 1056.69,843.263 1200.82,843.263 1248.86,786.485 1296.9,843.263 1344.94,765.194 1441.03,843.263 
  1489.07,687.125 1633.2,786.485 1825.37,792.896 
  "/>
<path clip-path="url(#clip742)" d="
M288.009 843.263 L480.179 843.263 L768.434 843.263 L816.477 843.263 L1056.69 843.263 L1200.82 843.263 L1248.86 843.263 L1296.9 843.263 L1344.94 804.228 L1441.03 843.263 
  L1489.07 749.58 L1633.2 843.263 L1825.37 813.042 L1825.37 843.263 L1633.2 843.263 L1489.07 843.263 L1441.03 843.263 L1344.94 843.263 L1296.9 843.263 L1248.86 843.263 
  L1200.82 843.263 L1056.69 843.263 L816.477 843.263 L768.434 843.263 L480.179 843.263 L288.009 843.263  Z
  " fill="#b55585" fill-rule="evenodd" fill-opacity="1"/>
<polyline clip-path="url(#clip742)" style="stroke:#000000; stroke-linecap:butt; stroke-linejoin:round; stroke-width:4; stroke-opacity:1; fill:none" points="
  288.009,843.263 480.179,843.263 768.434,843.263 816.477,843.263 1056.69,843.263 1200.82,843.263 1248.86,843.263 1296.9,843.263 1344.94,804.228 1441.03,843.263 
  1489.07,749.58 1633.2,843.263 1825.37,813.042 
  "/>
<path clip-path="url(#clip742)" d="
M288.009 843.263 L480.179 843.263 L768.434 843.263 L816.477 843.263 L1056.69 843.263 L1200.82 843.263 L1248.86 843.263 L1296.9 843.263 L1344.94 804.228 L1441.03 843.263 
  L1489.07 812.035 L1633.2 843.263 L1825.37 843.263 L1825.37 843.263 L1633.2 843.263 L1489.07 843.263 L1441.03 843.263 L1344.94 843.263 L1296.9 843.263 L1248.86 843.263 
  L1200.82 843.263 L1056.69 843.263 L816.477 843.263 L768.434 843.263 L480.179 843.263 L288.009 843.263  Z
  " fill="#9e3264" fill-rule="evenodd" fill-opacity="1"/>
<polyline clip-path="url(#clip742)" style="stroke:#000000; stroke-linecap:butt; stroke-linejoin:round; stroke-width:4; stroke-opacity:1; fill:none" points="
  288.009,843.263 480.179,843.263 768.434,843.263 816.477,843.263 1056.69,843.263 1200.82,843.263 1248.86,843.263 1296.9,843.263 1344.94,804.228 1441.03,843.263 
  1489.07,812.035 1633.2,843.263 1825.37,843.263 
  "/>
<path clip-path="url(#clip740)" d="
M1948.52 833.387 L2552.76 833.387 L2552.76 168.107 L1948.52 168.107  Z
  " fill="#ffffff" fill-rule="evenodd" fill-opacity="1"/>
<polyline clip-path="url(#clip740)" style="stroke:#000000; stroke-linecap:butt; stroke-linejoin:round; stroke-width:4; stroke-opacity:1; fill:none" points="
  1948.52,833.387 2552.76,833.387 2552.76,168.107 1948.52,168.107 1948.52,833.387 
  "/>
<path clip-path="url(#clip740)" d="M2080.21 216.058 L2080.21 229.808 L2075.93 229.808 L2075.93 194.021 L2080.21 194.021 L2080.21 197.956 Q2081.55 195.641 2083.59 194.53 Q2085.65 193.396 2088.5 193.396 Q2093.22 193.396 2096.16 197.146 Q2099.12 200.896 2099.12 207.007 Q2099.12 213.118 2096.16 216.868 Q2093.22 220.618 2088.5 220.618 Q2085.65 220.618 2083.59 219.507 Q2081.55 218.373 2080.21 216.058 M2094.7 207.007 Q2094.7 202.308 2092.76 199.646 Q2090.84 196.961 2087.46 196.961 Q2084.08 196.961 2082.13 199.646 Q2080.21 202.308 2080.21 207.007 Q2080.21 211.706 2082.13 214.391 Q2084.08 217.053 2087.46 217.053 Q2090.84 217.053 2092.76 214.391 Q2094.7 211.706 2094.7 207.007 Z" fill="#000000" fill-rule="evenodd" fill-opacity="1" /><path clip-path="url(#clip740)" d="M2121.21 198.002 Q2120.49 197.586 2119.63 197.401 Q2118.8 197.192 2117.78 197.192 Q2114.17 197.192 2112.22 199.553 Q2110.3 201.891 2110.3 206.289 L2110.3 219.947 L2106.02 219.947 L2106.02 194.021 L2110.3 194.021 L2110.3 198.049 Q2111.65 195.688 2113.8 194.553 Q2115.95 193.396 2119.03 193.396 Q2119.47 193.396 2120 193.465 Q2120.53 193.512 2121.18 193.627 L2121.21 198.002 Z" fill="#000000" fill-rule="evenodd" fill-opacity="1" /><path clip-path="url(#clip740)" d="M2146.81 205.919 L2146.81 208.002 L2127.22 208.002 Q2127.5 212.4 2129.86 214.715 Q2132.25 217.007 2136.48 217.007 Q2138.94 217.007 2141.23 216.405 Q2143.54 215.803 2145.81 214.6 L2145.81 218.627 Q2143.52 219.6 2141.11 220.109 Q2138.71 220.618 2136.23 220.618 Q2130.03 220.618 2126.39 217.007 Q2122.78 213.396 2122.78 207.238 Q2122.78 200.873 2126.21 197.146 Q2129.65 193.396 2135.49 193.396 Q2140.72 193.396 2143.75 196.776 Q2146.81 200.132 2146.81 205.919 M2142.55 204.669 Q2142.5 201.174 2140.58 199.09 Q2138.68 197.007 2135.53 197.007 Q2131.97 197.007 2129.82 199.021 Q2127.69 201.035 2127.36 204.692 L2142.55 204.669 Z" fill="#000000" fill-rule="evenodd" fill-opacity="1" /><path clip-path="url(#clip740)" d="M2166.92 183.928 L2166.92 187.47 L2162.85 187.47 Q2160.56 187.47 2159.65 188.396 Q2158.78 189.322 2158.78 191.729 L2158.78 194.021 L2165.79 194.021 L2165.79 197.331 L2158.78 197.331 L2158.78 219.947 L2154.49 219.947 L2154.49 197.331 L2150.42 197.331 L2150.42 194.021 L2154.49 194.021 L2154.49 192.215 Q2154.49 187.887 2156.51 185.919 Q2158.52 183.928 2162.9 183.928 L2166.92 183.928 Z" fill="#000000" fill-rule="evenodd" fill-opacity="1" /><path clip-path="url(#clip740)" d="M2192.66 205.919 L2192.66 208.002 L2173.08 208.002 Q2173.36 212.4 2175.72 214.715 Q2178.1 217.007 2182.34 217.007 Q2184.79 217.007 2187.09 216.405 Q2189.4 215.803 2191.67 214.6 L2191.67 218.627 Q2189.38 219.6 2186.97 220.109 Q2184.56 220.618 2182.09 220.618 Q2175.88 220.618 2172.25 217.007 Q2168.64 213.396 2168.64 207.238 Q2168.64 200.873 2172.06 197.146 Q2175.51 193.396 2181.34 193.396 Q2186.58 193.396 2189.61 196.776 Q2192.66 200.132 2192.66 205.919 M2188.4 204.669 Q2188.36 201.174 2186.44 199.09 Q2184.54 197.007 2181.39 197.007 Q2177.83 197.007 2175.67 199.021 Q2173.54 201.035 2173.22 204.692 L2188.4 204.669 Z" fill="#000000" fill-rule="evenodd" fill-opacity="1" /><path clip-path="url(#clip740)" d="M2214.68 198.002 Q2213.96 197.586 2213.1 197.401 Q2212.27 197.192 2211.25 197.192 Q2207.64 197.192 2205.7 199.553 Q2203.77 201.891 2203.77 206.289 L2203.77 219.947 L2199.49 219.947 L2199.49 194.021 L2203.77 194.021 L2203.77 198.049 Q2205.12 195.688 2207.27 194.553 Q2209.42 193.396 2212.5 193.396 Q2212.94 193.396 2213.47 193.465 Q2214.01 193.512 2214.65 193.627 L2214.68 198.002 Z" fill="#000000" fill-rule="evenodd" fill-opacity="1" /><path clip-path="url(#clip740)" d="M2240.28 205.919 L2240.28 208.002 L2220.7 208.002 Q2220.97 212.4 2223.33 214.715 Q2225.72 217.007 2229.96 217.007 Q2232.41 217.007 2234.7 216.405 Q2237.02 215.803 2239.28 214.6 L2239.28 218.627 Q2236.99 219.6 2234.58 220.109 Q2232.18 220.618 2229.7 220.618 Q2223.5 220.618 2219.86 217.007 Q2216.25 213.396 2216.25 207.238 Q2216.25 200.873 2219.68 197.146 Q2223.13 193.396 2228.96 193.396 Q2234.19 193.396 2237.22 196.776 Q2240.28 200.132 2240.28 205.919 M2236.02 204.669 Q2235.97 201.174 2234.05 199.09 Q2232.15 197.007 2229.01 197.007 Q2225.44 197.007 2223.29 199.021 Q2221.16 201.035 2220.83 204.692 L2236.02 204.669 Z" fill="#000000" fill-rule="evenodd" fill-opacity="1" /><path clip-path="url(#clip740)" d="M2268.82 204.299 L2268.82 219.947 L2264.56 219.947 L2264.56 204.438 Q2264.56 200.757 2263.13 198.928 Q2261.69 197.1 2258.82 197.1 Q2255.37 197.1 2253.38 199.299 Q2251.39 201.498 2251.39 205.294 L2251.39 219.947 L2247.11 219.947 L2247.11 194.021 L2251.39 194.021 L2251.39 198.049 Q2252.92 195.711 2254.98 194.553 Q2257.06 193.396 2259.77 193.396 Q2264.24 193.396 2266.53 196.174 Q2268.82 198.928 2268.82 204.299 Z" fill="#000000" fill-rule="evenodd" fill-opacity="1" /><path clip-path="url(#clip740)" d="M2295.97 195.016 L2295.97 198.998 Q2294.17 198.002 2292.34 197.516 Q2290.53 197.007 2288.68 197.007 Q2284.54 197.007 2282.25 199.646 Q2279.95 202.262 2279.95 207.007 Q2279.95 211.752 2282.25 214.391 Q2284.54 217.007 2288.68 217.007 Q2290.53 217.007 2292.34 216.521 Q2294.17 216.012 2295.97 215.016 L2295.97 218.951 Q2294.19 219.785 2292.27 220.201 Q2290.37 220.618 2288.22 220.618 Q2282.36 220.618 2278.91 216.937 Q2275.46 213.257 2275.46 207.007 Q2275.46 200.664 2278.94 197.03 Q2282.43 193.396 2288.5 193.396 Q2290.46 193.396 2292.34 193.813 Q2294.21 194.206 2295.97 195.016 Z" fill="#000000" fill-rule="evenodd" fill-opacity="1" /><path clip-path="url(#clip740)" d="M2325.56 205.919 L2325.56 208.002 L2305.97 208.002 Q2306.25 212.4 2308.61 214.715 Q2311 217.007 2315.23 217.007 Q2317.69 217.007 2319.98 216.405 Q2322.29 215.803 2324.56 214.6 L2324.56 218.627 Q2322.27 219.6 2319.86 220.109 Q2317.45 220.618 2314.98 220.618 Q2308.77 220.618 2305.14 217.007 Q2301.53 213.396 2301.53 207.238 Q2301.53 200.873 2304.95 197.146 Q2308.4 193.396 2314.24 193.396 Q2319.47 193.396 2322.5 196.776 Q2325.56 200.132 2325.56 205.919 M2321.3 204.669 Q2321.25 201.174 2319.33 199.09 Q2317.43 197.007 2314.28 197.007 Q2310.72 197.007 2308.57 199.021 Q2306.44 201.035 2306.11 204.692 L2321.3 204.669 Z" fill="#000000" fill-rule="evenodd" fill-opacity="1" /><path clip-path="url(#clip740)" d="M2360.74 183.928 L2360.74 187.47 L2356.67 187.47 Q2354.38 187.47 2353.47 188.396 Q2352.59 189.322 2352.59 191.729 L2352.59 194.021 L2359.61 194.021 L2359.61 197.331 L2352.59 197.331 L2352.59 219.947 L2348.31 219.947 L2348.31 197.331 L2344.24 197.331 L2344.24 194.021 L2348.31 194.021 L2348.31 192.215 Q2348.31 187.887 2350.32 185.919 Q2352.34 183.928 2356.71 183.928 L2360.74 183.928 Z" fill="#000000" fill-rule="evenodd" fill-opacity="1" /><path clip-path="url(#clip740)" d="M2374.35 197.007 Q2370.93 197.007 2368.94 199.692 Q2366.95 202.354 2366.95 207.007 Q2366.95 211.66 2368.91 214.345 Q2370.9 217.007 2374.35 217.007 Q2377.76 217.007 2379.75 214.322 Q2381.74 211.637 2381.74 207.007 Q2381.74 202.401 2379.75 199.715 Q2377.76 197.007 2374.35 197.007 M2374.35 193.396 Q2379.91 193.396 2383.08 197.007 Q2386.25 200.618 2386.25 207.007 Q2386.25 213.373 2383.08 217.007 Q2379.91 220.618 2374.35 220.618 Q2368.77 220.618 2365.6 217.007 Q2362.45 213.373 2362.45 207.007 Q2362.45 200.618 2365.6 197.007 Q2368.77 193.396 2374.35 193.396 Z" fill="#000000" fill-rule="evenodd" fill-opacity="1" /><path clip-path="url(#clip740)" d="M2408.33 198.002 Q2407.62 197.586 2406.76 197.401 Q2405.93 197.192 2404.91 197.192 Q2401.3 197.192 2399.35 199.553 Q2397.43 201.891 2397.43 206.289 L2397.43 219.947 L2393.15 219.947 L2393.15 194.021 L2397.43 194.021 L2397.43 198.049 Q2398.77 195.688 2400.93 194.553 Q2403.08 193.396 2406.16 193.396 Q2406.6 193.396 2407.13 193.465 Q2407.66 193.512 2408.31 193.627 L2408.33 198.002 Z" fill="#000000" fill-rule="evenodd" fill-opacity="1" /><path clip-path="url(#clip740)" d="M2140.52 238.5 L2140.52 245.861 L2149.3 245.861 L2149.3 249.171 L2140.52 249.171 L2140.52 263.245 Q2140.52 266.416 2141.38 267.319 Q2142.26 268.222 2144.92 268.222 L2149.3 268.222 L2149.3 271.787 L2144.92 271.787 Q2139.99 271.787 2138.12 269.958 Q2136.24 268.106 2136.24 263.245 L2136.24 249.171 L2133.12 249.171 L2133.12 245.861 L2136.24 245.861 L2136.24 238.5 L2140.52 238.5 Z" fill="#000000" fill-rule="evenodd" fill-opacity="1" /><path clip-path="url(#clip740)" d="M2166.68 258.754 Q2161.52 258.754 2159.53 259.935 Q2157.54 261.115 2157.54 263.963 Q2157.54 266.231 2159.02 267.574 Q2160.52 268.893 2163.09 268.893 Q2166.63 268.893 2168.76 266.393 Q2170.92 263.87 2170.92 259.703 L2170.92 258.754 L2166.68 258.754 M2175.18 256.995 L2175.18 271.787 L2170.92 271.787 L2170.92 267.852 Q2169.46 270.213 2167.28 271.347 Q2165.11 272.458 2161.96 272.458 Q2157.98 272.458 2155.62 270.236 Q2153.28 267.99 2153.28 264.24 Q2153.28 259.866 2156.19 257.643 Q2159.13 255.421 2164.94 255.421 L2170.92 255.421 L2170.92 255.004 Q2170.92 252.065 2168.97 250.467 Q2167.05 248.847 2163.56 248.847 Q2161.33 248.847 2159.23 249.379 Q2157.12 249.912 2155.18 250.977 L2155.18 247.041 Q2157.51 246.139 2159.71 245.699 Q2161.91 245.236 2163.99 245.236 Q2169.62 245.236 2172.4 248.153 Q2175.18 251.069 2175.18 256.995 Z" fill="#000000" fill-rule="evenodd" fill-opacity="1" /><path clip-path="url(#clip740)" d="M2198.97 249.842 Q2198.25 249.426 2197.4 249.241 Q2196.56 249.032 2195.55 249.032 Q2191.93 249.032 2189.99 251.393 Q2188.07 253.731 2188.07 258.129 L2188.07 271.787 L2183.79 271.787 L2183.79 245.861 L2188.07 245.861 L2188.07 249.889 Q2189.41 247.528 2191.56 246.393 Q2193.72 245.236 2196.8 245.236 Q2197.24 245.236 2197.77 245.305 Q2198.3 245.352 2198.95 245.467 L2198.97 249.842 Z" fill="#000000" fill-rule="evenodd" fill-opacity="1" /><path clip-path="url(#clip740)" d="M2219.67 258.523 Q2219.67 253.893 2217.74 251.347 Q2215.85 248.801 2212.4 248.801 Q2208.97 248.801 2207.05 251.347 Q2205.15 253.893 2205.15 258.523 Q2205.15 263.129 2207.05 265.676 Q2208.97 268.222 2212.4 268.222 Q2215.85 268.222 2217.74 265.676 Q2219.67 263.129 2219.67 258.523 M2223.93 268.569 Q2223.93 275.189 2220.99 278.407 Q2218.05 281.648 2211.98 281.648 Q2209.74 281.648 2207.74 281.301 Q2205.75 280.977 2203.88 280.282 L2203.88 276.139 Q2205.75 277.157 2207.58 277.643 Q2209.41 278.129 2211.31 278.129 Q2215.5 278.129 2217.58 275.93 Q2219.67 273.754 2219.67 269.333 L2219.67 267.227 Q2218.35 269.518 2216.29 270.652 Q2214.23 271.787 2211.36 271.787 Q2206.59 271.787 2203.67 268.152 Q2200.75 264.518 2200.75 258.523 Q2200.75 252.504 2203.67 248.87 Q2206.59 245.236 2211.36 245.236 Q2214.23 245.236 2216.29 246.37 Q2218.35 247.504 2219.67 249.796 L2219.67 245.861 L2223.93 245.861 L2223.93 268.569 Z" fill="#000000" fill-rule="evenodd" fill-opacity="1" /><path clip-path="url(#clip740)" d="M2254.87 257.759 L2254.87 259.842 L2235.29 259.842 Q2235.57 264.24 2237.93 266.555 Q2240.31 268.847 2244.55 268.847 Q2247 268.847 2249.3 268.245 Q2251.61 267.643 2253.88 266.44 L2253.88 270.467 Q2251.59 271.44 2249.18 271.949 Q2246.77 272.458 2244.3 272.458 Q2238.09 272.458 2234.46 268.847 Q2230.85 265.236 2230.85 259.078 Q2230.85 252.713 2234.27 248.986 Q2237.72 245.236 2243.55 245.236 Q2248.79 245.236 2251.82 248.616 Q2254.87 251.972 2254.87 257.759 M2250.61 256.509 Q2250.57 253.014 2248.65 250.93 Q2246.75 248.847 2243.6 248.847 Q2240.04 248.847 2237.88 250.861 Q2235.75 252.875 2235.43 256.532 L2250.61 256.509 Z" fill="#000000" fill-rule="evenodd" fill-opacity="1" /><path clip-path="url(#clip740)" d="M2266.08 238.5 L2266.08 245.861 L2274.85 245.861 L2274.85 249.171 L2266.08 249.171 L2266.08 263.245 Q2266.08 266.416 2266.93 267.319 Q2267.81 268.222 2270.48 268.222 L2274.85 268.222 L2274.85 271.787 L2270.48 271.787 Q2265.55 271.787 2263.67 269.958 Q2261.8 268.106 2261.8 263.245 L2261.8 249.171 L2258.67 249.171 L2258.67 245.861 L2261.8 245.861 L2261.8 238.5 L2266.08 238.5 Z" fill="#000000" fill-rule="evenodd" fill-opacity="1" /><path clip-path="url(#clip740)" d="M2308.65 235.768 L2308.65 239.31 L2304.57 239.31 Q2302.28 239.31 2301.38 240.236 Q2300.5 241.162 2300.5 243.569 L2300.5 245.861 L2307.51 245.861 L2307.51 249.171 L2300.5 249.171 L2300.5 271.787 L2296.22 271.787 L2296.22 249.171 L2292.14 249.171 L2292.14 245.861 L2296.22 245.861 L2296.22 244.055 Q2296.22 239.727 2298.23 237.759 Q2300.24 235.768 2304.62 235.768 L2308.65 235.768 Z" fill="#000000" fill-rule="evenodd" fill-opacity="1" /><path clip-path="url(#clip740)" d="M2312.21 245.861 L2316.47 245.861 L2316.47 271.787 L2312.21 271.787 L2312.21 245.861 M2312.21 235.768 L2316.47 235.768 L2316.47 241.162 L2312.21 241.162 L2312.21 235.768 Z" fill="#000000" fill-rule="evenodd" fill-opacity="1" /><path clip-path="url(#clip740)" d="M2340.41 249.842 Q2339.69 249.426 2338.83 249.241 Q2338 249.032 2336.98 249.032 Q2333.37 249.032 2331.42 251.393 Q2329.5 253.731 2329.5 258.129 L2329.5 271.787 L2325.22 271.787 L2325.22 245.861 L2329.5 245.861 L2329.5 249.889 Q2330.85 247.528 2333 246.393 Q2335.15 245.236 2338.23 245.236 Q2338.67 245.236 2339.2 245.305 Q2339.73 245.352 2340.38 245.467 L2340.41 249.842 Z" fill="#000000" fill-rule="evenodd" fill-opacity="1" /><path clip-path="url(#clip740)" d="M2361.4 246.625 L2361.4 250.653 Q2359.6 249.727 2357.65 249.264 Q2355.71 248.801 2353.62 248.801 Q2350.45 248.801 2348.86 249.773 Q2347.28 250.745 2347.28 252.69 Q2347.28 254.171 2348.42 255.028 Q2349.55 255.861 2352.98 256.625 L2354.43 256.949 Q2358.97 257.921 2360.87 259.703 Q2362.79 261.463 2362.79 264.634 Q2362.79 268.245 2359.92 270.352 Q2357.07 272.458 2352.07 272.458 Q2349.99 272.458 2347.72 272.041 Q2345.48 271.648 2342.98 270.838 L2342.98 266.44 Q2345.34 267.666 2347.63 268.291 Q2349.92 268.893 2352.17 268.893 Q2355.17 268.893 2356.79 267.875 Q2358.42 266.833 2358.42 264.958 Q2358.42 263.222 2357.23 262.296 Q2356.08 261.37 2352.12 260.514 L2350.64 260.166 Q2346.68 259.333 2344.92 257.62 Q2343.16 255.884 2343.16 252.875 Q2343.16 249.217 2345.75 247.227 Q2348.35 245.236 2353.11 245.236 Q2355.48 245.236 2357.56 245.583 Q2359.64 245.93 2361.4 246.625 Z" fill="#000000" fill-rule="evenodd" fill-opacity="1" /><path clip-path="url(#clip740)" d="M2373.79 238.5 L2373.79 245.861 L2382.56 245.861 L2382.56 249.171 L2373.79 249.171 L2373.79 263.245 Q2373.79 266.416 2374.64 267.319 Q2375.52 268.222 2378.18 268.222 L2382.56 268.222 L2382.56 271.787 L2378.18 271.787 Q2373.25 271.787 2371.38 269.958 Q2369.5 268.106 2369.5 263.245 L2369.5 249.171 L2366.38 249.171 L2366.38 245.861 L2369.5 245.861 L2369.5 238.5 L2373.79 238.5 Z" fill="#000000" fill-rule="evenodd" fill-opacity="1" /><path clip-path="url(#clip740)" d="
M1974.19 313.259 L2128.25 313.259 L2128.25 264.875 L1974.19 264.875 L1974.19 313.259  Z
  " fill="#006d60" fill-rule="evenodd" fill-opacity="1"/>
<polyline clip-path="url(#clip740)" style="stroke:#000000; stroke-linecap:butt; stroke-linejoin:round; stroke-width:4; stroke-opacity:1; fill:none" points="
  1974.19,264.875 2128.25,264.875 
  "/>
<path clip-path="url(#clip740)" d="M2169.53 275.861 L2157.72 294.31 L2169.53 294.31 L2169.53 275.861 M2168.3 271.787 L2174.18 271.787 L2174.18 294.31 L2179.11 294.31 L2179.11 298.199 L2174.18 298.199 L2174.18 306.347 L2169.53 306.347 L2169.53 298.199 L2153.93 298.199 L2153.93 293.685 L2168.3 271.787 Z" fill="#000000" fill-rule="evenodd" fill-opacity="1" /><path clip-path="url(#clip740)" d="
M1974.19 373.739 L2128.25 373.739 L2128.25 325.355 L1974.19 325.355 L1974.19 373.739  Z
  " fill="#008569" fill-rule="evenodd" fill-opacity="1"/>
<polyline clip-path="url(#clip740)" style="stroke:#000000; stroke-linecap:butt; stroke-linejoin:round; stroke-width:4; stroke-opacity:1; fill:none" points="
  1974.19,325.355 2128.25,325.355 
  "/>
<path clip-path="url(#clip740)" d="M2169.55 348.193 Q2172.91 348.91 2174.78 351.179 Q2176.68 353.447 2176.68 356.78 Q2176.68 361.896 2173.16 364.697 Q2169.65 367.498 2163.16 367.498 Q2160.99 367.498 2158.67 367.058 Q2156.38 366.642 2153.93 365.785 L2153.93 361.271 Q2155.87 362.405 2158.19 362.984 Q2160.5 363.563 2163.03 363.563 Q2167.42 363.563 2169.72 361.827 Q2172.03 360.091 2172.03 356.78 Q2172.03 353.725 2169.88 352.012 Q2167.75 350.276 2163.93 350.276 L2159.9 350.276 L2159.9 346.433 L2164.11 346.433 Q2167.56 346.433 2169.39 345.068 Q2171.22 343.679 2171.22 341.086 Q2171.22 338.424 2169.32 337.012 Q2167.45 335.577 2163.93 335.577 Q2162.01 335.577 2159.81 335.994 Q2157.61 336.41 2154.97 337.29 L2154.97 333.123 Q2157.63 332.382 2159.95 332.012 Q2162.28 331.642 2164.34 331.642 Q2169.67 331.642 2172.77 334.072 Q2175.87 336.48 2175.87 340.6 Q2175.87 343.47 2174.23 345.461 Q2172.59 347.429 2169.55 348.193 Z" fill="#000000" fill-rule="evenodd" fill-opacity="1" /><path clip-path="url(#clip740)" d="
M1974.19 434.219 L2128.25 434.219 L2128.25 385.835 L1974.19 385.835 L1974.19 434.219  Z
  " fill="#009e73" fill-rule="evenodd" fill-opacity="1"/>
<polyline clip-path="url(#clip740)" style="stroke:#000000; stroke-linecap:butt; stroke-linejoin:round; stroke-width:4; stroke-opacity:1; fill:none" points="
  1974.19,385.835 2128.25,385.835 
  "/>
<path clip-path="url(#clip740)" d="M2159.55 423.372 L2175.87 423.372 L2175.87 427.307 L2153.93 427.307 L2153.93 423.372 Q2156.59 420.617 2161.17 415.987 Q2165.78 411.335 2166.96 409.992 Q2169.21 407.469 2170.09 405.733 Q2170.99 403.974 2170.99 402.284 Q2170.99 399.529 2169.04 397.793 Q2167.12 396.057 2164.02 396.057 Q2161.82 396.057 2159.37 396.821 Q2156.94 397.585 2154.16 399.136 L2154.16 394.413 Q2156.98 393.279 2159.44 392.7 Q2161.89 392.122 2163.93 392.122 Q2169.3 392.122 2172.49 394.807 Q2175.69 397.492 2175.69 401.983 Q2175.69 404.112 2174.88 406.034 Q2174.09 407.932 2171.98 410.524 Q2171.41 411.196 2168.3 414.413 Q2165.2 417.608 2159.55 423.372 Z" fill="#000000" fill-rule="evenodd" fill-opacity="1" /><path clip-path="url(#clip740)" d="
M1974.19 494.699 L2128.25 494.699 L2128.25 446.315 L1974.19 446.315 L1974.19 494.699  Z
  " fill="#77c6b0" fill-rule="evenodd" fill-opacity="1"/>
<polyline clip-path="url(#clip740)" style="stroke:#000000; stroke-linecap:butt; stroke-linejoin:round; stroke-width:4; stroke-opacity:1; fill:none" points="
  1974.19,446.315 2128.25,446.315 
  "/>
<path clip-path="url(#clip740)" d="M2154.6 483.852 L2162.24 483.852 L2162.24 457.486 L2153.93 459.153 L2153.93 454.893 L2162.19 453.227 L2166.87 453.227 L2166.87 483.852 L2174.51 483.852 L2174.51 487.787 L2154.6 487.787 L2154.6 483.852 Z" fill="#000000" fill-rule="evenodd" fill-opacity="1" /><path clip-path="url(#clip740)" d="
M1974.19 555.179 L2128.25 555.179 L2128.25 506.795 L1974.19 506.795 L1974.19 555.179  Z
  " fill="#eeeeee" fill-rule="evenodd" fill-opacity="1"/>
<polyline clip-path="url(#clip740)" style="stroke:#000000; stroke-linecap:butt; stroke-linejoin:round; stroke-width:4; stroke-opacity:1; fill:none" points="
  1974.19,506.795 2128.25,506.795 
  "/>
<path clip-path="url(#clip740)" d="M2165.87 516.785 Q2162.26 516.785 2160.43 520.35 Q2158.63 523.892 2158.63 531.021 Q2158.63 538.128 2160.43 541.693 Q2162.26 545.234 2165.87 545.234 Q2169.51 545.234 2171.31 541.693 Q2173.14 538.128 2173.14 531.021 Q2173.14 523.892 2171.31 520.35 Q2169.51 516.785 2165.87 516.785 M2165.87 513.082 Q2171.68 513.082 2174.74 517.688 Q2177.82 522.272 2177.82 531.021 Q2177.82 539.748 2174.74 544.355 Q2171.68 548.938 2165.87 548.938 Q2160.06 548.938 2156.98 544.355 Q2153.93 539.748 2153.93 531.021 Q2153.93 522.272 2156.98 517.688 Q2160.06 513.082 2165.87 513.082 Z" fill="#000000" fill-rule="evenodd" fill-opacity="1" /><path clip-path="url(#clip740)" d="
M1974.19 615.659 L2128.25 615.659 L2128.25 567.275 L1974.19 567.275 L1974.19 615.659  Z
  " fill="#ddb3ca" fill-rule="evenodd" fill-opacity="1"/>
<polyline clip-path="url(#clip740)" style="stroke:#000000; stroke-linecap:butt; stroke-linejoin:round; stroke-width:4; stroke-opacity:1; fill:none" points="
  1974.19,567.275 2128.25,567.275 
  "/>
<path clip-path="url(#clip740)" d="M2153.93 593.863 L2166.41 593.863 L2166.41 597.659 L2153.93 597.659 L2153.93 593.863 Z" fill="#000000" fill-rule="evenodd" fill-opacity="1" /><path clip-path="url(#clip740)" d="M2174.6 604.812 L2182.24 604.812 L2182.24 578.446 L2173.93 580.113 L2173.93 575.853 L2182.19 574.187 L2186.87 574.187 L2186.87 604.812 L2194.51 604.812 L2194.51 608.747 L2174.6 608.747 L2174.6 604.812 Z" fill="#000000" fill-rule="evenodd" fill-opacity="1" /><path clip-path="url(#clip740)" d="
M1974.19 676.139 L2128.25 676.139 L2128.25 627.755 L1974.19 627.755 L1974.19 676.139  Z
  " fill="#cc79a7" fill-rule="evenodd" fill-opacity="1"/>
<polyline clip-path="url(#clip740)" style="stroke:#000000; stroke-linecap:butt; stroke-linejoin:round; stroke-width:4; stroke-opacity:1; fill:none" points="
  1974.19,627.755 2128.25,627.755 
  "/>
<path clip-path="url(#clip740)" d="M2153.93 654.343 L2166.41 654.343 L2166.41 658.139 L2153.93 658.139 L2153.93 654.343 Z" fill="#000000" fill-rule="evenodd" fill-opacity="1" /><path clip-path="url(#clip740)" d="M2177.82 665.292 L2194.14 665.292 L2194.14 669.227 L2172.19 669.227 L2172.19 665.292 Q2174.85 662.537 2179.44 657.907 Q2184.04 653.255 2185.22 651.912 Q2187.47 649.389 2188.35 647.653 Q2189.25 645.894 2189.25 644.204 Q2189.25 641.449 2187.31 639.713 Q2185.39 637.977 2182.28 637.977 Q2180.09 637.977 2177.63 638.741 Q2175.2 639.505 2172.42 641.056 L2172.42 636.333 Q2175.25 635.199 2177.7 634.62 Q2180.16 634.042 2182.19 634.042 Q2187.56 634.042 2190.76 636.727 Q2193.95 639.412 2193.95 643.903 Q2193.95 646.032 2193.14 647.954 Q2192.35 649.852 2190.25 652.444 Q2189.67 653.116 2186.57 656.333 Q2183.47 659.528 2177.82 665.292 Z" fill="#000000" fill-rule="evenodd" fill-opacity="1" /><path clip-path="url(#clip740)" d="
M1974.19 736.619 L2128.25 736.619 L2128.25 688.235 L1974.19 688.235 L1974.19 736.619  Z
  " fill="#b55585" fill-rule="evenodd" fill-opacity="1"/>
<polyline clip-path="url(#clip740)" style="stroke:#000000; stroke-linecap:butt; stroke-linejoin:round; stroke-width:4; stroke-opacity:1; fill:none" points="
  1974.19,688.235 2128.25,688.235 
  "/>
<path clip-path="url(#clip740)" d="M2153.93 714.823 L2166.41 714.823 L2166.41 718.619 L2153.93 718.619 L2153.93 714.823 Z" fill="#000000" fill-rule="evenodd" fill-opacity="1" /><path clip-path="url(#clip740)" d="M2187.96 711.073 Q2191.31 711.79 2193.19 714.059 Q2195.09 716.327 2195.09 719.66 Q2195.09 724.776 2191.57 727.577 Q2188.05 730.378 2181.57 730.378 Q2179.39 730.378 2177.08 729.938 Q2174.78 729.522 2172.33 728.665 L2172.33 724.151 Q2174.28 725.285 2176.59 725.864 Q2178.91 726.443 2181.43 726.443 Q2185.83 726.443 2188.12 724.707 Q2190.43 722.971 2190.43 719.66 Q2190.43 716.605 2188.28 714.892 Q2186.15 713.156 2182.33 713.156 L2178.3 713.156 L2178.3 709.313 L2182.52 709.313 Q2185.97 709.313 2187.79 707.948 Q2189.62 706.559 2189.62 703.966 Q2189.62 701.304 2187.72 699.892 Q2185.85 698.457 2182.33 698.457 Q2180.41 698.457 2178.21 698.874 Q2176.01 699.29 2173.37 700.17 L2173.37 696.003 Q2176.03 695.262 2178.35 694.892 Q2180.69 694.522 2182.75 694.522 Q2188.07 694.522 2191.17 696.952 Q2194.28 699.36 2194.28 703.48 Q2194.28 706.35 2192.63 708.341 Q2190.99 710.309 2187.96 711.073 Z" fill="#000000" fill-rule="evenodd" fill-opacity="1" /><path clip-path="url(#clip740)" d="
M1974.19 797.099 L2128.25 797.099 L2128.25 748.715 L1974.19 748.715 L1974.19 797.099  Z
  " fill="#9e3264" fill-rule="evenodd" fill-opacity="1"/>
<polyline clip-path="url(#clip740)" style="stroke:#000000; stroke-linecap:butt; stroke-linejoin:round; stroke-width:4; stroke-opacity:1; fill:none" points="
  1974.19,748.715 2128.25,748.715 
  "/>
<path clip-path="url(#clip740)" d="M2153.93 775.303 L2166.41 775.303 L2166.41 779.099 L2153.93 779.099 L2153.93 775.303 Z" fill="#000000" fill-rule="evenodd" fill-opacity="1" /><path clip-path="url(#clip740)" d="M2186.64 759.701 L2174.83 778.15 L2186.64 778.15 L2186.64 759.701 M2185.41 755.627 L2191.29 755.627 L2191.29 778.15 L2196.22 778.15 L2196.22 782.039 L2191.29 782.039 L2191.29 790.187 L2186.64 790.187 L2186.64 782.039 L2171.03 782.039 L2171.03 777.525 L2185.41 755.627 Z" fill="#000000" fill-rule="evenodd" fill-opacity="1" /></svg>
