<?xml version="1.0" encoding="utf-8"?>
<svg xmlns="http://www.w3.org/2000/svg" xmlns:xlink="http://www.w3.org/1999/xlink" width="650" height="320" viewBox="0 0 2600 1280">
<defs>
  <clipPath id="clip990">
    <rect x="0" y="0" width="2600" height="1280"/>
  </clipPath>
</defs>
<path clip-path="url(#clip990)" d="
M0 1280 L2600 1280 L2600 0 L0 0  Z
  " fill="#ffffff" fill-rule="evenodd" fill-opacity="1"/>
<defs>
  <clipPath id="clip991">
    <rect x="520" y="0" width="1821" height="1280"/>
  </clipPath>
</defs>
<path clip-path="url(#clip990)" d="
M239.114 968.658 L1871.09 968.658 L1871.09 206.433 L239.114 206.433  Z
  " fill="#ffffff" fill-rule="evenodd" fill-opacity="1"/>
<defs>
  <clipPath id="clip992">
    <rect x="239" y="206" width="1633" height="763"/>
  </clipPath>
</defs>
<polyline clip-path="url(#clip992)" style="stroke:#000000; stroke-linecap:butt; stroke-linejoin:round; stroke-width:2; stroke-opacity:0.1; fill:none" points="
  285.302,968.658 285.302,206.433 
  "/>
<polyline clip-path="url(#clip992)" style="stroke:#000000; stroke-linecap:butt; stroke-linejoin:round; stroke-width:2; stroke-opacity:0.1; fill:none" points="
  522.163,968.658 522.163,206.433 
  "/>
<polyline clip-path="url(#clip992)" style="stroke:#000000; stroke-linecap:butt; stroke-linejoin:round; stroke-width:2; stroke-opacity:0.1; fill:none" points="
  759.024,968.658 759.024,206.433 
  "/>
<polyline clip-path="url(#clip992)" style="stroke:#000000; stroke-linecap:butt; stroke-linejoin:round; stroke-width:2; stroke-opacity:0.1; fill:none" points="
  995.886,968.658 995.886,206.433 
  "/>
<polyline clip-path="url(#clip992)" style="stroke:#000000; stroke-linecap:butt; stroke-linejoin:round; stroke-width:2; stroke-opacity:0.1; fill:none" points="
  1232.75,968.658 1232.75,206.433 
  "/>
<polyline clip-path="url(#clip992)" style="stroke:#000000; stroke-linecap:butt; stroke-linejoin:round; stroke-width:2; stroke-opacity:0.1; fill:none" points="
  1469.61,968.658 1469.61,206.433 
  "/>
<polyline clip-path="url(#clip992)" style="stroke:#000000; stroke-linecap:butt; stroke-linejoin:round; stroke-width:2; stroke-opacity:0.1; fill:none" points="
  1706.47,968.658 1706.47,206.433 
  "/>
<polyline clip-path="url(#clip990)" style="stroke:#000000; stroke-linecap:butt; stroke-linejoin:round; stroke-width:4; stroke-opacity:1; fill:none" points="
  239.114,968.658 1871.09,968.658 
  "/>
<polyline clip-path="url(#clip990)" style="stroke:#000000; stroke-linecap:butt; stroke-linejoin:round; stroke-width:4; stroke-opacity:1; fill:none" points="
  285.302,968.658 285.302,959.511 
  "/>
<polyline clip-path="url(#clip990)" style="stroke:#000000; stroke-linecap:butt; stroke-linejoin:round; stroke-width:4; stroke-opacity:1; fill:none" points="
  522.163,968.658 522.163,959.511 
  "/>
<polyline clip-path="url(#clip990)" style="stroke:#000000; stroke-linecap:butt; stroke-linejoin:round; stroke-width:4; stroke-opacity:1; fill:none" points="
  759.024,968.658 759.024,959.511 
  "/>
<polyline clip-path="url(#clip990)" style="stroke:#000000; stroke-linecap:butt; stroke-linejoin:round; stroke-width:4; stroke-opacity:1; fill:none" points="
  995.886,968.658 995.886,959.511 
  "/>
<polyline clip-path="url(#clip990)" style="stroke:#000000; stroke-linecap:butt; stroke-linejoin:round; stroke-width:4; stroke-opacity:1; fill:none" points="
  1232.75,968.658 1232.75,959.511 
  "/>
<polyline clip-path="url(#clip990)" style="stroke:#000000; stroke-linecap:butt; stroke-linejoin:round; stroke-width:4; stroke-opacity:1; fill:none" points="
  1469.61,968.658 1469.61,959.511 
  "/>
<polyline clip-path="url(#clip990)" style="stroke:#000000; stroke-linecap:butt; stroke-linejoin:round; stroke-width:4; stroke-opacity:1; fill:none" points="
  1706.47,968.658 1706.47,959.511 
  "/>
<path clip-path="url(#clip990)" d="M248.404 999.449 Q244.793 999.449 242.964 1003.01 Q241.158 1006.56 241.158 1013.68 Q241.158 1020.79 242.964 1024.36 Q244.793 1027.9 248.404 1027.9 Q252.038 1027.9 253.844 1024.36 Q255.672 1020.79 255.672 1013.68 Q255.672 1006.56 253.844 1003.01 Q252.038 999.449 248.404 999.449 M248.404 995.745 Q254.214 995.745 257.269 1000.35 Q260.348 1004.93 260.348 1013.68 Q260.348 1022.41 257.269 1027.02 Q254.214 1031.6 248.404 1031.6 Q242.594 1031.6 239.515 1027.02 Q236.459 1022.41 236.459 1013.68 Q236.459 1004.93 239.515 1000.35 Q242.594 995.745 248.404 995.745 Z" fill="#000000" fill-rule="evenodd" fill-opacity="1" /><path clip-path="url(#clip990)" d="M268.566 1025.05 L273.45 1025.05 L273.45 1030.93 L268.566 1030.93 L268.566 1025.05 Z" fill="#000000" fill-rule="evenodd" fill-opacity="1" /><path clip-path="url(#clip990)" d="M284.445 1026.99 L292.084 1026.99 L292.084 1000.63 L283.774 1002.3 L283.774 998.037 L292.038 996.37 L296.714 996.37 L296.714 1026.99 L304.353 1026.99 L304.353 1030.93 L284.445 1030.93 L284.445 1026.99 Z" fill="#000000" fill-rule="evenodd" fill-opacity="1" /><path clip-path="url(#clip990)" d="M317.825 1026.99 L334.144 1026.99 L334.144 1030.93 L312.2 1030.93 L312.2 1026.99 Q314.862 1024.24 319.445 1019.61 Q324.051 1014.96 325.232 1013.62 Q327.477 1011.09 328.357 1009.36 Q329.26 1007.6 329.26 1005.91 Q329.26 1003.15 327.315 1001.42 Q325.394 999.68 322.292 999.68 Q320.093 999.68 317.639 1000.44 Q315.209 1001.21 312.431 1002.76 L312.431 998.037 Q315.255 996.902 317.709 996.324 Q320.163 995.745 322.2 995.745 Q327.57 995.745 330.764 998.43 Q333.959 1001.12 333.959 1005.61 Q333.959 1007.74 333.149 1009.66 Q332.362 1011.56 330.255 1014.15 Q329.676 1014.82 326.575 1018.04 Q323.473 1021.23 317.825 1026.99 Z" fill="#000000" fill-rule="evenodd" fill-opacity="1" /><path clip-path="url(#clip990)" d="M484.223 999.449 Q480.612 999.449 478.784 1003.01 Q476.978 1006.56 476.978 1013.68 Q476.978 1020.79 478.784 1024.36 Q480.612 1027.9 484.223 1027.9 Q487.858 1027.9 489.663 1024.36 Q491.492 1020.79 491.492 1013.68 Q491.492 1006.56 489.663 1003.01 Q487.858 999.449 484.223 999.449 M484.223 995.745 Q490.034 995.745 493.089 1000.35 Q496.168 1004.93 496.168 1013.68 Q496.168 1022.41 493.089 1027.02 Q490.034 1031.6 484.223 1031.6 Q478.413 1031.6 475.335 1027.02 Q472.279 1022.41 472.279 1013.68 Q472.279 1004.93 475.335 1000.35 Q478.413 995.745 484.223 995.745 Z" fill="#000000" fill-rule="evenodd" fill-opacity="1" /><path clip-path="url(#clip990)" d="M504.385 1025.05 L509.27 1025.05 L509.27 1030.93 L504.385 1030.93 L504.385 1025.05 Z" fill="#000000" fill-rule="evenodd" fill-opacity="1" /><path clip-path="url(#clip990)" d="M520.265 1026.99 L527.904 1026.99 L527.904 1000.63 L519.594 1002.3 L519.594 998.037 L527.857 996.37 L532.533 996.37 L532.533 1026.99 L540.172 1026.99 L540.172 1030.93 L520.265 1030.93 L520.265 1026.99 Z" fill="#000000" fill-rule="evenodd" fill-opacity="1" /><path clip-path="url(#clip990)" d="M562.464 1000.44 L550.658 1018.89 L562.464 1018.89 L562.464 1000.44 M561.237 996.37 L567.116 996.37 L567.116 1018.89 L572.047 1018.89 L572.047 1022.78 L567.116 1022.78 L567.116 1030.93 L562.464 1030.93 L562.464 1022.78 L546.862 1022.78 L546.862 1018.27 L561.237 996.37 Z" fill="#000000" fill-rule="evenodd" fill-opacity="1" /><path clip-path="url(#clip990)" d="M721.247 999.449 Q717.636 999.449 715.807 1003.01 Q714.001 1006.56 714.001 1013.68 Q714.001 1020.79 715.807 1024.36 Q717.636 1027.9 721.247 1027.9 Q724.881 1027.9 726.687 1024.36 Q728.515 1020.79 728.515 1013.68 Q728.515 1006.56 726.687 1003.01 Q724.881 999.449 721.247 999.449 M721.247 995.745 Q727.057 995.745 730.112 1000.35 Q733.191 1004.93 733.191 1013.68 Q733.191 1022.41 730.112 1027.02 Q727.057 1031.6 721.247 1031.6 Q715.437 1031.6 712.358 1027.02 Q709.302 1022.41 709.302 1013.68 Q709.302 1004.93 712.358 1000.35 Q715.437 995.745 721.247 995.745 Z" fill="#000000" fill-rule="evenodd" fill-opacity="1" /><path clip-path="url(#clip990)" d="M741.409 1025.05 L746.293 1025.05 L746.293 1030.93 L741.409 1030.93 L741.409 1025.05 Z" fill="#000000" fill-rule="evenodd" fill-opacity="1" /><path clip-path="url(#clip990)" d="M757.288 1026.99 L764.927 1026.99 L764.927 1000.63 L756.617 1002.3 L756.617 998.037 L764.881 996.37 L769.557 996.37 L769.557 1026.99 L777.196 1026.99 L777.196 1030.93 L757.288 1030.93 L757.288 1026.99 Z" fill="#000000" fill-rule="evenodd" fill-opacity="1" /><path clip-path="url(#clip990)" d="M797.219 1011.79 Q794.07 1011.79 792.219 1013.94 Q790.39 1016.09 790.39 1019.84 Q790.39 1023.57 792.219 1025.74 Q794.07 1027.9 797.219 1027.9 Q800.367 1027.9 802.195 1025.74 Q804.047 1023.57 804.047 1019.84 Q804.047 1016.09 802.195 1013.94 Q800.367 1011.79 797.219 1011.79 M806.501 997.134 L806.501 1001.39 Q804.742 1000.56 802.936 1000.12 Q801.154 999.68 799.394 999.68 Q794.765 999.68 792.311 1002.81 Q789.881 1005.93 789.533 1012.25 Q790.899 1010.24 792.959 1009.17 Q795.019 1008.08 797.496 1008.08 Q802.705 1008.08 805.714 1011.25 Q808.746 1014.4 808.746 1019.84 Q808.746 1025.17 805.598 1028.38 Q802.45 1031.6 797.219 1031.6 Q791.223 1031.6 788.052 1027.02 Q784.881 1022.41 784.881 1013.68 Q784.881 1005.49 788.77 1000.63 Q792.658 995.745 799.209 995.745 Q800.969 995.745 802.751 996.092 Q804.556 996.44 806.501 997.134 Z" fill="#000000" fill-rule="evenodd" fill-opacity="1" /><path clip-path="url(#clip990)" d="M958.235 999.449 Q954.624 999.449 952.796 1003.01 Q950.99 1006.56 950.99 1013.68 Q950.99 1020.79 952.796 1024.36 Q954.624 1027.9 958.235 1027.9 Q961.87 1027.9 963.675 1024.36 Q965.504 1020.79 965.504 1013.68 Q965.504 1006.56 963.675 1003.01 Q961.87 999.449 958.235 999.449 M958.235 995.745 Q964.046 995.745 967.101 1000.35 Q970.18 1004.93 970.18 1013.68 Q970.18 1022.41 967.101 1027.02 Q964.046 1031.6 958.235 1031.6 Q952.425 1031.6 949.347 1027.02 Q946.291 1022.41 946.291 1013.68 Q946.291 1004.93 949.347 1000.35 Q952.425 995.745 958.235 995.745 Z" fill="#000000" fill-rule="evenodd" fill-opacity="1" /><path clip-path="url(#clip990)" d="M978.397 1025.05 L983.282 1025.05 L983.282 1030.93 L978.397 1030.93 L978.397 1025.05 Z" fill="#000000" fill-rule="evenodd" fill-opacity="1" /><path clip-path="url(#clip990)" d="M994.277 1026.99 L1001.92 1026.99 L1001.92 1000.63 L993.606 1002.3 L993.606 998.037 L1001.87 996.37 L1006.55 996.37 L1006.55 1026.99 L1014.18 1026.99 L1014.18 1030.93 L994.277 1030.93 L994.277 1026.99 Z" fill="#000000" fill-rule="evenodd" fill-opacity="1" /><path clip-path="url(#clip990)" d="M1033.63 1014.52 Q1030.3 1014.52 1028.37 1016.3 Q1026.48 1018.08 1026.48 1021.21 Q1026.48 1024.33 1028.37 1026.12 Q1030.3 1027.9 1033.63 1027.9 Q1036.96 1027.9 1038.88 1026.12 Q1040.8 1024.31 1040.8 1021.21 Q1040.8 1018.08 1038.88 1016.3 Q1036.98 1014.52 1033.63 1014.52 M1028.95 1012.53 Q1025.94 1011.79 1024.25 1009.73 Q1022.59 1007.67 1022.59 1004.7 Q1022.59 1000.56 1025.53 998.152 Q1028.49 995.745 1033.63 995.745 Q1038.79 995.745 1041.73 998.152 Q1044.67 1000.56 1044.67 1004.7 Q1044.67 1007.67 1042.98 1009.73 Q1041.31 1011.79 1038.33 1012.53 Q1041.71 1013.31 1043.58 1015.61 Q1045.48 1017.9 1045.48 1021.21 Q1045.48 1026.23 1042.4 1028.92 Q1039.35 1031.6 1033.63 1031.6 Q1027.91 1031.6 1024.83 1028.92 Q1021.78 1026.23 1021.78 1021.21 Q1021.78 1017.9 1023.67 1015.61 Q1025.57 1013.31 1028.95 1012.53 M1027.24 1005.14 Q1027.24 1007.83 1028.91 1009.33 Q1030.6 1010.84 1033.63 1010.84 Q1036.64 1010.84 1038.33 1009.33 Q1040.04 1007.83 1040.04 1005.14 Q1040.04 1002.46 1038.33 1000.95 Q1036.64 999.449 1033.63 999.449 Q1030.6 999.449 1028.91 1000.95 Q1027.24 1002.46 1027.24 1005.14 Z" fill="#000000" fill-rule="evenodd" fill-opacity="1" /><path clip-path="url(#clip990)" d="M1195.05 999.449 Q1191.44 999.449 1189.61 1003.01 Q1187.81 1006.56 1187.81 1013.68 Q1187.81 1020.79 1189.61 1024.36 Q1191.44 1027.9 1195.05 1027.9 Q1198.68 1027.9 1200.49 1024.36 Q1202.32 1020.79 1202.32 1013.68 Q1202.32 1006.56 1200.49 1003.01 Q1198.68 999.449 1195.05 999.449 M1195.05 995.745 Q1200.86 995.745 1203.92 1000.35 Q1206.99 1004.93 1206.99 1013.68 Q1206.99 1022.41 1203.92 1027.02 Q1200.86 1031.6 1195.05 1031.6 Q1189.24 1031.6 1186.16 1027.02 Q1183.11 1022.41 1183.11 1013.68 Q1183.11 1004.93 1186.16 1000.35 Q1189.24 995.745 1195.05 995.745 Z" fill="#000000" fill-rule="evenodd" fill-opacity="1" /><path clip-path="url(#clip990)" d="M1215.21 1025.05 L1220.1 1025.05 L1220.1 1030.93 L1215.21 1030.93 L1215.21 1025.05 Z" fill="#000000" fill-rule="evenodd" fill-opacity="1" /><path clip-path="url(#clip990)" d="M1234.31 1026.99 L1250.63 1026.99 L1250.63 1030.93 L1228.68 1030.93 L1228.68 1026.99 Q1231.35 1024.24 1235.93 1019.61 Q1240.54 1014.96 1241.72 1013.62 Q1243.96 1011.09 1244.84 1009.36 Q1245.74 1007.6 1245.74 1005.91 Q1245.74 1003.15 1243.8 1001.42 Q1241.88 999.68 1238.78 999.68 Q1236.58 999.68 1234.12 1000.44 Q1231.69 1001.21 1228.92 1002.76 L1228.92 998.037 Q1231.74 996.902 1234.19 996.324 Q1236.65 995.745 1238.68 995.745 Q1244.05 995.745 1247.25 998.43 Q1250.44 1001.12 1250.44 1005.61 Q1250.44 1007.74 1249.63 1009.66 Q1248.85 1011.56 1246.74 1014.15 Q1246.16 1014.82 1243.06 1018.04 Q1239.96 1021.23 1234.31 1026.99 Z" fill="#000000" fill-rule="evenodd" fill-opacity="1" /><path clip-path="url(#clip990)" d="M1270.44 999.449 Q1266.83 999.449 1265 1003.01 Q1263.2 1006.56 1263.2 1013.68 Q1263.2 1020.79 1265 1024.36 Q1266.83 1027.9 1270.44 1027.9 Q1274.08 1027.9 1275.88 1024.36 Q1277.71 1020.79 1277.71 1013.68 Q1277.71 1006.56 1275.88 1003.01 Q1274.08 999.449 1270.44 999.449 M1270.44 995.745 Q1276.25 995.745 1279.31 1000.35 Q1282.39 1004.93 1282.39 1013.68 Q1282.39 1022.41 1279.31 1027.02 Q1276.25 1031.6 1270.44 1031.6 Q1264.63 1031.6 1261.55 1027.02 Q1258.5 1022.41 1258.5 1013.68 Q1258.5 1004.93 1261.55 1000.35 Q1264.63 995.745 1270.44 995.745 Z" fill="#000000" fill-rule="evenodd" fill-opacity="1" /><path clip-path="url(#clip990)" d="M1432.71 999.449 Q1429.1 999.449 1427.27 1003.01 Q1425.46 1006.56 1425.46 1013.68 Q1425.46 1020.79 1427.27 1024.36 Q1429.1 1027.9 1432.71 1027.9 Q1436.34 1027.9 1438.15 1024.36 Q1439.98 1020.79 1439.98 1013.68 Q1439.98 1006.56 1438.15 1003.01 Q1436.34 999.449 1432.71 999.449 M1432.71 995.745 Q1438.52 995.745 1441.58 1000.35 Q1444.65 1004.93 1444.65 1013.68 Q1444.65 1022.41 1441.58 1027.02 Q1438.52 1031.6 1432.71 1031.6 Q1426.9 1031.6 1423.82 1027.02 Q1420.77 1022.41 1420.77 1013.68 Q1420.77 1004.93 1423.82 1000.35 Q1426.9 995.745 1432.71 995.745 Z" fill="#000000" fill-rule="evenodd" fill-opacity="1" /><path clip-path="url(#clip990)" d="M1452.87 1025.05 L1457.76 1025.05 L1457.76 1030.93 L1452.87 1030.93 L1452.87 1025.05 Z" fill="#000000" fill-rule="evenodd" fill-opacity="1" /><path clip-path="url(#clip990)" d="M1471.97 1026.99 L1488.29 1026.99 L1488.29 1030.93 L1466.34 1030.93 L1466.34 1026.99 Q1469.01 1024.24 1473.59 1019.61 Q1478.2 1014.96 1479.38 1013.62 Q1481.62 1011.09 1482.5 1009.36 Q1483.4 1007.6 1483.4 1005.91 Q1483.4 1003.15 1481.46 1001.42 Q1479.54 999.68 1476.44 999.68 Q1474.24 999.68 1471.78 1000.44 Q1469.35 1001.21 1466.58 1002.76 L1466.58 998.037 Q1469.4 996.902 1471.85 996.324 Q1474.31 995.745 1476.34 995.745 Q1481.71 995.745 1484.91 998.43 Q1488.1 1001.12 1488.1 1005.61 Q1488.1 1007.74 1487.29 1009.66 Q1486.51 1011.56 1484.4 1014.15 Q1483.82 1014.82 1480.72 1018.04 Q1477.62 1021.23 1471.97 1026.99 Z" fill="#000000" fill-rule="evenodd" fill-opacity="1" /><path clip-path="url(#clip990)" d="M1502.13 1026.99 L1518.45 1026.99 L1518.45 1030.93 L1496.51 1030.93 L1496.51 1026.99 Q1499.17 1024.24 1503.75 1019.61 Q1508.36 1014.96 1509.54 1013.62 Q1511.78 1011.09 1512.66 1009.36 Q1513.57 1007.6 1513.57 1005.91 Q1513.57 1003.15 1511.62 1001.42 Q1509.7 999.68 1506.6 999.68 Q1504.4 999.68 1501.95 1000.44 Q1499.52 1001.21 1496.74 1002.76 L1496.74 998.037 Q1499.56 996.902 1502.02 996.324 Q1504.47 995.745 1506.51 995.745 Q1511.88 995.745 1515.07 998.43 Q1518.27 1001.12 1518.27 1005.61 Q1518.27 1007.74 1517.46 1009.66 Q1516.67 1011.56 1514.56 1014.15 Q1513.98 1014.82 1510.88 1018.04 Q1507.78 1021.23 1502.13 1026.99 Z" fill="#000000" fill-rule="evenodd" fill-opacity="1" /><path clip-path="url(#clip990)" d="M1668.53 999.449 Q1664.92 999.449 1663.09 1003.01 Q1661.28 1006.56 1661.28 1013.68 Q1661.28 1020.79 1663.09 1024.36 Q1664.92 1027.9 1668.53 1027.9 Q1672.16 1027.9 1673.97 1024.36 Q1675.8 1020.79 1675.8 1013.68 Q1675.8 1006.56 1673.97 1003.01 Q1672.16 999.449 1668.53 999.449 M1668.53 995.745 Q1674.34 995.745 1677.4 1000.35 Q1680.47 1004.93 1680.47 1013.68 Q1680.47 1022.41 1677.4 1027.02 Q1674.34 1031.6 1668.53 1031.6 Q1662.72 1031.6 1659.64 1027.02 Q1656.59 1022.41 1656.59 1013.68 Q1656.59 1004.93 1659.64 1000.35 Q1662.72 995.745 1668.53 995.745 Z" fill="#000000" fill-rule="evenodd" fill-opacity="1" /><path clip-path="url(#clip990)" d="M1688.69 1025.05 L1693.58 1025.05 L1693.58 1030.93 L1688.69 1030.93 L1688.69 1025.05 Z" fill="#000000" fill-rule="evenodd" fill-opacity="1" /><path clip-path="url(#clip990)" d="M1707.79 1026.99 L1724.11 1026.99 L1724.11 1030.93 L1702.16 1030.93 L1702.16 1026.99 Q1704.83 1024.24 1709.41 1019.61 Q1714.02 1014.96 1715.2 1013.62 Q1717.44 1011.09 1718.32 1009.36 Q1719.22 1007.6 1719.22 1005.91 Q1719.22 1003.15 1717.28 1001.42 Q1715.36 999.68 1712.26 999.68 Q1710.06 999.68 1707.6 1000.44 Q1705.17 1001.21 1702.4 1002.76 L1702.4 998.037 Q1705.22 996.902 1707.67 996.324 Q1710.13 995.745 1712.16 995.745 Q1717.53 995.745 1720.73 998.43 Q1723.92 1001.12 1723.92 1005.61 Q1723.92 1007.74 1723.11 1009.66 Q1722.33 1011.56 1720.22 1014.15 Q1719.64 1014.82 1716.54 1018.04 Q1713.44 1021.23 1707.79 1026.99 Z" fill="#000000" fill-rule="evenodd" fill-opacity="1" /><path clip-path="url(#clip990)" d="M1746.77 1000.44 L1734.96 1018.89 L1746.77 1018.89 L1746.77 1000.44 M1745.54 996.37 L1751.42 996.37 L1751.42 1018.89 L1756.35 1018.89 L1756.35 1022.78 L1751.42 1022.78 L1751.42 1030.93 L1746.77 1030.93 L1746.77 1022.78 L1731.17 1022.78 L1731.17 1018.27 L1745.54 996.37 Z" fill="#000000" fill-rule="evenodd" fill-opacity="1" /><path clip-path="url(#clip990)" d="M539.59 1086.28 L539.59 1067 L545.447 1067 L545.447 1116.52 L539.59 1116.52 L539.59 1111.17 Q537.744 1114.36 534.911 1115.92 Q532.11 1117.45 528.164 1117.45 Q521.702 1117.45 517.628 1112.29 Q513.586 1107.13 513.586 1098.73 Q513.586 1090.33 517.628 1085.17 Q521.702 1080.01 528.164 1080.01 Q532.11 1080.01 534.911 1081.57 Q537.744 1083.1 539.59 1086.28 M519.634 1098.73 Q519.634 1105.19 522.275 1108.88 Q524.949 1112.54 529.596 1112.54 Q534.243 1112.54 536.917 1108.88 Q539.59 1105.19 539.59 1098.73 Q539.59 1092.27 536.917 1088.61 Q534.243 1084.92 529.596 1084.92 Q524.949 1084.92 522.275 1088.61 Q519.634 1092.27 519.634 1098.73 Z" fill="#000000" fill-rule="evenodd" fill-opacity="1" /><path clip-path="url(#clip990)" d="M557.51 1080.87 L563.366 1080.87 L563.366 1116.52 L557.51 1116.52 L557.51 1080.87 M557.51 1067 L563.366 1067 L563.366 1074.41 L557.51 1074.41 L557.51 1067 Z" fill="#000000" fill-rule="evenodd" fill-opacity="1" /><path clip-path="url(#clip990)" d="M598.346 1081.92 L598.346 1087.46 Q595.863 1086.19 593.189 1085.55 Q590.516 1084.92 587.651 1084.92 Q583.291 1084.92 581.095 1086.25 Q578.93 1087.59 578.93 1090.26 Q578.93 1092.3 580.49 1093.48 Q582.049 1094.62 586.76 1095.67 L588.765 1096.12 Q595.004 1097.46 597.614 1099.91 Q600.255 1102.33 600.255 1106.69 Q600.255 1111.65 596.309 1114.55 Q592.394 1117.45 585.519 1117.45 Q582.654 1117.45 579.535 1116.87 Q576.448 1116.33 573.01 1115.22 L573.01 1109.17 Q576.257 1110.86 579.408 1111.72 Q582.559 1112.54 585.646 1112.54 Q589.784 1112.54 592.012 1111.14 Q594.24 1109.71 594.24 1107.13 Q594.24 1104.75 592.616 1103.47 Q591.025 1102.2 585.582 1101.02 L583.545 1100.54 Q578.103 1099.4 575.684 1097.04 Q573.265 1094.66 573.265 1090.52 Q573.265 1085.49 576.829 1082.75 Q580.394 1080.01 586.951 1080.01 Q590.197 1080.01 593.062 1080.49 Q595.927 1080.97 598.346 1081.92 Z" fill="#000000" fill-rule="evenodd" fill-opacity="1" /><path clip-path="url(#clip990)" d="M625.782 1098.6 Q618.684 1098.6 615.947 1100.23 Q613.21 1101.85 613.21 1105.76 Q613.21 1108.88 615.247 1110.73 Q617.315 1112.54 620.848 1112.54 Q625.718 1112.54 628.646 1109.11 Q631.606 1105.64 631.606 1099.91 L631.606 1098.6 L625.782 1098.6 M637.463 1096.18 L637.463 1116.52 L631.606 1116.52 L631.606 1111.11 Q629.601 1114.36 626.609 1115.92 Q623.617 1117.45 619.289 1117.45 Q613.814 1117.45 610.568 1114.39 Q607.353 1111.3 607.353 1106.15 Q607.353 1100.13 611.363 1097.07 Q615.406 1094.02 623.395 1094.02 L631.606 1094.02 L631.606 1093.45 Q631.606 1089.4 628.933 1087.21 Q626.291 1084.98 621.485 1084.98 Q618.429 1084.98 615.533 1085.71 Q612.637 1086.44 609.963 1087.91 L609.963 1082.5 Q613.178 1081.26 616.201 1080.65 Q619.225 1080.01 622.09 1080.01 Q629.824 1080.01 633.643 1084.03 Q637.463 1088.04 637.463 1096.18 Z" fill="#000000" fill-rule="evenodd" fill-opacity="1" /><path clip-path="url(#clip990)" d="M672.983 1098.28 Q672.983 1091.92 670.342 1088.42 Q667.732 1084.92 662.989 1084.92 Q658.279 1084.92 655.637 1088.42 Q653.027 1091.92 653.027 1098.28 Q653.027 1104.62 655.637 1108.12 Q658.279 1111.62 662.989 1111.62 Q667.732 1111.62 670.342 1108.12 Q672.983 1104.62 672.983 1098.28 M678.84 1112.1 Q678.84 1121.2 674.798 1125.63 Q670.755 1130.08 662.416 1130.08 Q659.329 1130.08 656.592 1129.6 Q653.855 1129.16 651.276 1128.2 L651.276 1122.51 Q653.855 1123.91 656.369 1124.57 Q658.883 1125.24 661.493 1125.24 Q667.254 1125.24 670.119 1122.22 Q672.983 1119.23 672.983 1113.15 L672.983 1110.25 Q671.169 1113.4 668.337 1114.96 Q665.504 1116.52 661.557 1116.52 Q655 1116.52 650.99 1111.52 Q646.98 1106.53 646.98 1098.28 Q646.98 1090.01 650.99 1085.01 Q655 1080.01 661.557 1080.01 Q665.504 1080.01 668.337 1081.57 Q671.169 1083.13 672.983 1086.28 L672.983 1080.87 L678.84 1080.87 L678.84 1112.1 Z" fill="#000000" fill-rule="evenodd" fill-opacity="1" /><path clip-path="url(#clip990)" d="M711.56 1086.35 Q710.573 1085.78 709.395 1085.52 Q708.25 1085.23 706.849 1085.23 Q701.884 1085.23 699.21 1088.48 Q696.568 1091.7 696.568 1097.74 L696.568 1116.52 L690.68 1116.52 L690.68 1080.87 L696.568 1080.87 L696.568 1086.41 Q698.414 1083.17 701.375 1081.61 Q704.335 1080.01 708.568 1080.01 Q709.173 1080.01 709.905 1080.11 Q710.637 1080.17 711.528 1080.33 L711.56 1086.35 Z" fill="#000000" fill-rule="evenodd" fill-opacity="1" /><path clip-path="url(#clip990)" d="M746.762 1097.23 L746.762 1100.1 L719.835 1100.1 Q720.217 1106.15 723.464 1109.33 Q726.742 1112.48 732.566 1112.48 Q735.94 1112.48 739.091 1111.65 Q742.274 1110.82 745.393 1109.17 L745.393 1114.71 Q742.242 1116.04 738.932 1116.74 Q735.622 1117.45 732.216 1117.45 Q723.686 1117.45 718.689 1112.48 Q713.724 1107.51 713.724 1099.05 Q713.724 1090.3 718.435 1085.17 Q723.177 1080.01 731.198 1080.01 Q738.391 1080.01 742.561 1084.66 Q746.762 1089.28 746.762 1097.23 M740.906 1095.52 Q740.842 1090.71 738.2 1087.84 Q735.59 1084.98 731.262 1084.98 Q726.36 1084.98 723.4 1087.75 Q720.472 1090.52 720.026 1095.55 L740.906 1095.52 Z" fill="#000000" fill-rule="evenodd" fill-opacity="1" /><path clip-path="url(#clip990)" d="M786.866 1097.23 L786.866 1100.1 L759.939 1100.1 Q760.321 1106.15 763.567 1109.33 Q766.846 1112.48 772.67 1112.48 Q776.044 1112.48 779.195 1111.65 Q782.378 1110.82 785.497 1109.17 L785.497 1114.71 Q782.346 1116.04 779.036 1116.74 Q775.726 1117.45 772.32 1117.45 Q763.79 1117.45 758.793 1112.48 Q753.828 1107.51 753.828 1099.05 Q753.828 1090.3 758.539 1085.17 Q763.281 1080.01 771.302 1080.01 Q778.495 1080.01 782.665 1084.66 Q786.866 1089.28 786.866 1097.23 M781.01 1095.52 Q780.946 1090.71 778.304 1087.84 Q775.694 1084.98 771.365 1084.98 Q766.464 1084.98 763.504 1087.75 Q760.576 1090.52 760.13 1095.55 L781.01 1095.52 Z" fill="#000000" fill-rule="evenodd" fill-opacity="1" /><path clip-path="url(#clip990)" d="M824.233 1087.72 Q826.429 1083.77 829.484 1081.89 Q832.54 1080.01 836.678 1080.01 Q842.248 1080.01 845.271 1083.93 Q848.295 1087.81 848.295 1095.01 L848.295 1116.52 L842.407 1116.52 L842.407 1095.2 Q842.407 1090.07 840.593 1087.59 Q838.778 1085.11 835.054 1085.11 Q830.503 1085.11 827.861 1088.13 Q825.219 1091.15 825.219 1096.37 L825.219 1116.52 L819.331 1116.52 L819.331 1095.2 Q819.331 1090.04 817.517 1087.59 Q815.703 1085.11 811.915 1085.11 Q807.427 1085.11 804.785 1088.16 Q802.144 1091.19 802.144 1096.37 L802.144 1116.52 L796.255 1116.52 L796.255 1080.87 L802.144 1080.87 L802.144 1086.41 Q804.149 1083.13 806.95 1081.57 Q809.751 1080.01 813.602 1080.01 Q817.485 1080.01 820.19 1081.99 Q822.928 1083.96 824.233 1087.72 Z" fill="#000000" fill-rule="evenodd" fill-opacity="1" /><path clip-path="url(#clip990)" d="M890.468 1097.23 L890.468 1100.1 L863.541 1100.1 Q863.923 1106.15 867.169 1109.33 Q870.448 1112.48 876.272 1112.48 Q879.646 1112.48 882.797 1111.65 Q885.98 1110.82 889.099 1109.17 L889.099 1114.71 Q885.948 1116.04 882.638 1116.74 Q879.328 1117.45 875.922 1117.45 Q867.392 1117.45 862.395 1112.48 Q857.43 1107.51 857.43 1099.05 Q857.43 1090.3 862.14 1085.17 Q866.883 1080.01 874.904 1080.01 Q882.097 1080.01 886.266 1084.66 Q890.468 1089.28 890.468 1097.23 M884.611 1095.52 Q884.548 1090.71 881.906 1087.84 Q879.296 1084.98 874.967 1084.98 Q870.066 1084.98 867.106 1087.75 Q864.177 1090.52 863.732 1095.55 L884.611 1095.52 Z" fill="#000000" fill-rule="evenodd" fill-opacity="1" /><path clip-path="url(#clip990)" d="M929.712 1095.01 L929.712 1116.52 L923.856 1116.52 L923.856 1095.2 Q923.856 1090.14 921.883 1087.62 Q919.909 1085.11 915.963 1085.11 Q911.22 1085.11 908.483 1088.13 Q905.746 1091.15 905.746 1096.37 L905.746 1116.52 L899.857 1116.52 L899.857 1080.87 L905.746 1080.87 L905.746 1086.41 Q907.846 1083.2 910.679 1081.61 Q913.544 1080.01 917.267 1080.01 Q923.41 1080.01 926.561 1083.83 Q929.712 1087.62 929.712 1095.01 Z" fill="#000000" fill-rule="evenodd" fill-opacity="1" /><path clip-path="url(#clip990)" d="M947.186 1070.75 L947.186 1080.87 L959.249 1080.87 L959.249 1085.43 L947.186 1085.43 L947.186 1104.78 Q947.186 1109.14 948.364 1110.38 Q949.573 1111.62 953.234 1111.62 L959.249 1111.62 L959.249 1116.52 L953.234 1116.52 Q946.454 1116.52 943.876 1114.01 Q941.298 1111.46 941.298 1104.78 L941.298 1085.43 L937.001 1085.43 L937.001 1080.87 L941.298 1080.87 L941.298 1070.75 L947.186 1070.75 Z" fill="#000000" fill-rule="evenodd" fill-opacity="1" /><path clip-path="url(#clip990)" d="M1001.49 1084.98 Q996.775 1084.98 994.038 1088.67 Q991.301 1092.33 991.301 1098.73 Q991.301 1105.13 994.006 1108.82 Q996.743 1112.48 1001.49 1112.48 Q1006.16 1112.48 1008.9 1108.79 Q1011.64 1105.1 1011.64 1098.73 Q1011.64 1092.4 1008.9 1088.7 Q1006.16 1084.98 1001.49 1084.98 M1001.49 1080.01 Q1009.12 1080.01 1013.49 1084.98 Q1017.85 1089.95 1017.85 1098.73 Q1017.85 1107.48 1013.49 1112.48 Q1009.12 1117.45 1001.49 1117.45 Q993.815 1117.45 989.455 1112.48 Q985.126 1107.48 985.126 1098.73 Q985.126 1089.95 989.455 1084.98 Q993.815 1080.01 1001.49 1080.01 Z" fill="#000000" fill-rule="evenodd" fill-opacity="1" /><path clip-path="url(#clip990)" d="M1057.19 1095.01 L1057.19 1116.52 L1051.33 1116.52 L1051.33 1095.2 Q1051.33 1090.14 1049.36 1087.62 Q1047.38 1085.11 1043.44 1085.11 Q1038.69 1085.11 1035.96 1088.13 Q1033.22 1091.15 1033.22 1096.37 L1033.22 1116.52 L1027.33 1116.52 L1027.33 1080.87 L1033.22 1080.87 L1033.22 1086.41 Q1035.32 1083.2 1038.15 1081.61 Q1041.02 1080.01 1044.74 1080.01 Q1050.88 1080.01 1054.03 1083.83 Q1057.19 1087.62 1057.19 1095.01 Z" fill="#000000" fill-rule="evenodd" fill-opacity="1" /><path clip-path="url(#clip990)" d="M1095.38 1070.75 L1095.38 1080.87 L1107.44 1080.87 L1107.44 1085.43 L1095.38 1085.43 L1095.38 1104.78 Q1095.38 1109.14 1096.56 1110.38 Q1097.77 1111.62 1101.43 1111.62 L1107.44 1111.62 L1107.44 1116.52 L1101.43 1116.52 Q1094.65 1116.52 1092.07 1114.01 Q1089.49 1111.46 1089.49 1104.78 L1089.49 1085.43 L1085.19 1085.43 L1085.19 1080.87 L1089.49 1080.87 L1089.49 1070.75 L1095.38 1070.75 Z" fill="#000000" fill-rule="evenodd" fill-opacity="1" /><path clip-path="url(#clip990)" d="M1131.35 1098.6 Q1124.25 1098.6 1121.51 1100.23 Q1118.77 1101.85 1118.77 1105.76 Q1118.77 1108.88 1120.81 1110.73 Q1122.88 1112.54 1126.41 1112.54 Q1131.28 1112.54 1134.21 1109.11 Q1137.17 1105.64 1137.17 1099.91 L1137.17 1098.6 L1131.35 1098.6 M1143.03 1096.18 L1143.03 1116.52 L1137.17 1116.52 L1137.17 1111.11 Q1135.17 1114.36 1132.17 1115.92 Q1129.18 1117.45 1124.85 1117.45 Q1119.38 1117.45 1116.13 1114.39 Q1112.92 1111.3 1112.92 1106.15 Q1112.92 1100.13 1116.93 1097.07 Q1120.97 1094.02 1128.96 1094.02 L1137.17 1094.02 L1137.17 1093.45 Q1137.17 1089.4 1134.5 1087.21 Q1131.86 1084.98 1127.05 1084.98 Q1123.99 1084.98 1121.1 1085.71 Q1118.2 1086.44 1115.53 1087.91 L1115.53 1082.5 Q1118.74 1081.26 1121.77 1080.65 Q1124.79 1080.01 1127.65 1080.01 Q1135.39 1080.01 1139.21 1084.03 Q1143.03 1088.04 1143.03 1096.18 Z" fill="#000000" fill-rule="evenodd" fill-opacity="1" /><path clip-path="url(#clip990)" d="M1175.75 1086.35 Q1174.76 1085.78 1173.58 1085.52 Q1172.44 1085.23 1171.04 1085.23 Q1166.07 1085.23 1163.4 1088.48 Q1160.76 1091.7 1160.76 1097.74 L1160.76 1116.52 L1154.87 1116.52 L1154.87 1080.87 L1160.76 1080.87 L1160.76 1086.41 Q1162.6 1083.17 1165.56 1081.61 Q1168.52 1080.01 1172.76 1080.01 Q1173.36 1080.01 1174.09 1080.11 Q1174.82 1080.17 1175.72 1080.33 L1175.75 1086.35 Z" fill="#000000" fill-rule="evenodd" fill-opacity="1" /><path clip-path="url(#clip990)" d="M1204.2 1098.28 Q1204.2 1091.92 1201.56 1088.42 Q1198.95 1084.92 1194.21 1084.92 Q1189.5 1084.92 1186.86 1088.42 Q1184.25 1091.92 1184.25 1098.28 Q1184.25 1104.62 1186.86 1108.12 Q1189.5 1111.62 1194.21 1111.62 Q1198.95 1111.62 1201.56 1108.12 Q1204.2 1104.62 1204.2 1098.28 M1210.06 1112.1 Q1210.06 1121.2 1206.02 1125.63 Q1201.97 1130.08 1193.63 1130.08 Q1190.55 1130.08 1187.81 1129.6 Q1185.07 1129.16 1182.49 1128.2 L1182.49 1122.51 Q1185.07 1123.91 1187.59 1124.57 Q1190.1 1125.24 1192.71 1125.24 Q1198.47 1125.24 1201.34 1122.22 Q1204.2 1119.23 1204.2 1113.15 L1204.2 1110.25 Q1202.39 1113.4 1199.55 1114.96 Q1196.72 1116.52 1192.78 1116.52 Q1186.22 1116.52 1182.21 1111.52 Q1178.2 1106.53 1178.2 1098.28 Q1178.2 1090.01 1182.21 1085.01 Q1186.22 1080.01 1192.78 1080.01 Q1196.72 1080.01 1199.55 1081.57 Q1202.39 1083.13 1204.2 1086.28 L1204.2 1080.87 L1210.06 1080.87 L1210.06 1112.1 Z" fill="#000000" fill-rule="evenodd" fill-opacity="1" /><path clip-path="url(#clip990)" d="M1252.61 1097.23 L1252.61 1100.1 L1225.69 1100.1 Q1226.07 1106.15 1229.31 1109.33 Q1232.59 1112.48 1238.42 1112.48 Q1241.79 1112.48 1244.94 1111.65 Q1248.13 1110.82 1251.24 1109.17 L1251.24 1114.71 Q1248.09 1116.04 1244.78 1116.74 Q1241.47 1117.45 1238.07 1117.45 Q1229.54 1117.45 1224.54 1112.48 Q1219.57 1107.51 1219.57 1099.05 Q1219.57 1090.3 1224.29 1085.17 Q1229.03 1080.01 1237.05 1080.01 Q1244.24 1080.01 1248.41 1084.66 Q1252.61 1089.28 1252.61 1097.23 M1246.76 1095.52 Q1246.69 1090.71 1244.05 1087.84 Q1241.44 1084.98 1237.11 1084.98 Q1232.21 1084.98 1229.25 1087.75 Q1226.32 1090.52 1225.88 1095.55 L1246.76 1095.52 Z" fill="#000000" fill-rule="evenodd" fill-opacity="1" /><path clip-path="url(#clip990)" d="M1268.02 1070.75 L1268.02 1080.87 L1280.08 1080.87 L1280.08 1085.43 L1268.02 1085.43 L1268.02 1104.78 Q1268.02 1109.14 1269.2 1110.38 Q1270.41 1111.62 1274.07 1111.62 L1280.08 1111.62 L1280.08 1116.52 L1274.07 1116.52 Q1267.29 1116.52 1264.71 1114.01 Q1262.13 1111.46 1262.13 1104.78 L1262.13 1085.43 L1257.83 1085.43 L1257.83 1080.87 L1262.13 1080.87 L1262.13 1070.75 L1268.02 1070.75 Z" fill="#000000" fill-rule="evenodd" fill-opacity="1" /><path clip-path="url(#clip990)" d="M1324.7 1098.6 Q1317.61 1098.6 1314.87 1100.23 Q1312.13 1101.85 1312.13 1105.76 Q1312.13 1108.88 1314.17 1110.73 Q1316.24 1112.54 1319.77 1112.54 Q1324.64 1112.54 1327.57 1109.11 Q1330.53 1105.64 1330.53 1099.91 L1330.53 1098.6 L1324.7 1098.6 M1336.39 1096.18 L1336.39 1116.52 L1330.53 1116.52 L1330.53 1111.11 Q1328.52 1114.36 1325.53 1115.92 Q1322.54 1117.45 1318.21 1117.45 Q1312.74 1117.45 1309.49 1114.39 Q1306.28 1111.3 1306.28 1106.15 Q1306.28 1100.13 1310.29 1097.07 Q1314.33 1094.02 1322.32 1094.02 L1330.53 1094.02 L1330.53 1093.45 Q1330.53 1089.4 1327.86 1087.21 Q1325.21 1084.98 1320.41 1084.98 Q1317.35 1084.98 1314.46 1085.71 Q1311.56 1086.44 1308.89 1087.91 L1308.89 1082.5 Q1312.1 1081.26 1315.12 1080.65 Q1318.15 1080.01 1321.01 1080.01 Q1328.75 1080.01 1332.57 1084.03 Q1336.39 1088.04 1336.39 1096.18 Z" fill="#000000" fill-rule="evenodd" fill-opacity="1" /><path clip-path="url(#clip990)" d="M1371.91 1086.28 L1371.91 1067 L1377.76 1067 L1377.76 1116.52 L1371.91 1116.52 L1371.91 1111.17 Q1370.06 1114.36 1367.23 1115.92 Q1364.43 1117.45 1360.48 1117.45 Q1354.02 1117.45 1349.94 1112.29 Q1345.9 1107.13 1345.9 1098.73 Q1345.9 1090.33 1349.94 1085.17 Q1354.02 1080.01 1360.48 1080.01 Q1364.43 1080.01 1367.23 1081.57 Q1370.06 1083.1 1371.91 1086.28 M1351.95 1098.73 Q1351.95 1105.19 1354.59 1108.88 Q1357.27 1112.54 1361.91 1112.54 Q1366.56 1112.54 1369.23 1108.88 Q1371.91 1105.19 1371.91 1098.73 Q1371.91 1092.27 1369.23 1088.61 Q1366.56 1084.92 1361.91 1084.92 Q1357.27 1084.92 1354.59 1088.61 Q1351.95 1092.27 1351.95 1098.73 Z" fill="#000000" fill-rule="evenodd" fill-opacity="1" /><path clip-path="url(#clip990)" d="M1389.83 1080.87 L1395.68 1080.87 L1395.68 1117.16 Q1395.68 1123.97 1393.07 1127.03 Q1390.49 1130.08 1384.73 1130.08 L1382.51 1130.08 L1382.51 1125.12 L1384.06 1125.12 Q1387.41 1125.12 1388.62 1123.56 Q1389.83 1122.03 1389.83 1117.16 L1389.83 1080.87 M1389.83 1067 L1395.68 1067 L1395.68 1074.41 L1389.83 1074.41 L1389.83 1067 Z" fill="#000000" fill-rule="evenodd" fill-opacity="1" /><path clip-path="url(#clip990)" d="M1438.43 1097.23 L1438.43 1100.1 L1411.5 1100.1 Q1411.88 1106.15 1415.13 1109.33 Q1418.41 1112.48 1424.23 1112.48 Q1427.61 1112.48 1430.76 1111.65 Q1433.94 1110.82 1437.06 1109.17 L1437.06 1114.71 Q1433.91 1116.04 1430.6 1116.74 Q1427.29 1117.45 1423.88 1117.45 Q1415.35 1117.45 1410.36 1112.48 Q1405.39 1107.51 1405.39 1099.05 Q1405.39 1090.3 1410.1 1085.17 Q1414.84 1080.01 1422.86 1080.01 Q1430.06 1080.01 1434.23 1084.66 Q1438.43 1089.28 1438.43 1097.23 M1432.57 1095.52 Q1432.51 1090.71 1429.87 1087.84 Q1427.26 1084.98 1422.93 1084.98 Q1418.03 1084.98 1415.07 1087.75 Q1412.14 1090.52 1411.69 1095.55 L1432.57 1095.52 Z" fill="#000000" fill-rule="evenodd" fill-opacity="1" /><path clip-path="url(#clip990)" d="M1473.69 1082.24 L1473.69 1087.72 Q1471.21 1086.35 1468.7 1085.68 Q1466.21 1084.98 1463.67 1084.98 Q1457.97 1084.98 1454.82 1088.61 Q1451.67 1092.21 1451.67 1098.73 Q1451.67 1105.25 1454.82 1108.88 Q1457.97 1112.48 1463.67 1112.48 Q1466.21 1112.48 1468.7 1111.81 Q1471.21 1111.11 1473.69 1109.74 L1473.69 1115.15 Q1471.24 1116.3 1468.6 1116.87 Q1465.99 1117.45 1463.03 1117.45 Q1454.98 1117.45 1450.24 1112.38 Q1445.49 1107.32 1445.49 1098.73 Q1445.49 1090.01 1450.27 1085.01 Q1455.07 1080.01 1463.41 1080.01 Q1466.12 1080.01 1468.7 1080.59 Q1471.27 1081.13 1473.69 1082.24 Z" fill="#000000" fill-rule="evenodd" fill-opacity="1" /><path clip-path="url(#clip990)" d="M1489.67 1070.75 L1489.67 1080.87 L1501.73 1080.87 L1501.73 1085.43 L1489.67 1085.43 L1489.67 1104.78 Q1489.67 1109.14 1490.85 1110.38 Q1492.06 1111.62 1495.72 1111.62 L1501.73 1111.62 L1501.73 1116.52 L1495.72 1116.52 Q1488.94 1116.52 1486.36 1114.01 Q1483.78 1111.46 1483.78 1104.78 L1483.78 1085.43 L1479.49 1085.43 L1479.49 1080.87 L1483.78 1080.87 L1483.78 1070.75 L1489.67 1070.75 Z" fill="#000000" fill-rule="evenodd" fill-opacity="1" /><path clip-path="url(#clip990)" d="M1509.44 1080.87 L1515.29 1080.87 L1515.29 1116.52 L1509.44 1116.52 L1509.44 1080.87 M1509.44 1067 L1515.29 1067 L1515.29 1074.41 L1509.44 1074.41 L1509.44 1067 Z" fill="#000000" fill-rule="evenodd" fill-opacity="1" /><path clip-path="url(#clip990)" d="M1523.35 1080.87 L1529.55 1080.87 L1540.69 1110.79 L1551.83 1080.87 L1558.04 1080.87 L1544.67 1116.52 L1536.71 1116.52 L1523.35 1080.87 Z" fill="#000000" fill-rule="evenodd" fill-opacity="1" /><path clip-path="url(#clip990)" d="M1596.62 1097.23 L1596.62 1100.1 L1569.69 1100.1 Q1570.07 1106.15 1573.32 1109.33 Q1576.6 1112.48 1582.42 1112.48 Q1585.79 1112.48 1588.95 1111.65 Q1592.13 1110.82 1595.25 1109.17 L1595.25 1114.71 Q1592.1 1116.04 1588.79 1116.74 Q1585.48 1117.45 1582.07 1117.45 Q1573.54 1117.45 1568.54 1112.48 Q1563.58 1107.51 1563.58 1099.05 Q1563.58 1090.3 1568.29 1085.17 Q1573.03 1080.01 1581.05 1080.01 Q1588.24 1080.01 1592.41 1084.66 Q1596.62 1089.28 1596.62 1097.23 M1590.76 1095.52 Q1590.7 1090.71 1588.05 1087.84 Q1585.44 1084.98 1581.12 1084.98 Q1576.21 1084.98 1573.25 1087.75 Q1570.33 1090.52 1569.88 1095.55 L1590.76 1095.52 Z" fill="#000000" fill-rule="evenodd" fill-opacity="1" /><polyline clip-path="url(#clip992)" style="stroke:#000000; stroke-linecap:butt; stroke-linejoin:round; stroke-width:2; stroke-opacity:0.1; fill:none" points="
  239.114,942.837 1871.09,942.837 
  "/>
<polyline clip-path="url(#clip992)" style="stroke:#000000; stroke-linecap:butt; stroke-linejoin:round; stroke-width:2; stroke-opacity:0.1; fill:none" points="
  239.114,765.191 1871.09,765.191 
  "/>
<polyline clip-path="url(#clip992)" style="stroke:#000000; stroke-linecap:butt; stroke-linejoin:round; stroke-width:2; stroke-opacity:0.1; fill:none" points="
  239.114,587.546 1871.09,587.546 
  "/>
<polyline clip-path="url(#clip992)" style="stroke:#000000; stroke-linecap:butt; stroke-linejoin:round; stroke-width:2; stroke-opacity:0.1; fill:none" points="
  239.114,409.9 1871.09,409.9 
  "/>
<polyline clip-path="url(#clip992)" style="stroke:#000000; stroke-linecap:butt; stroke-linejoin:round; stroke-width:2; stroke-opacity:0.1; fill:none" points="
  239.114,232.254 1871.09,232.254 
  "/>
<polyline clip-path="url(#clip990)" style="stroke:#000000; stroke-linecap:butt; stroke-linejoin:round; stroke-width:4; stroke-opacity:1; fill:none" points="
  239.114,968.658 239.114,206.433 
  "/>
<polyline clip-path="url(#clip990)" style="stroke:#000000; stroke-linecap:butt; stroke-linejoin:round; stroke-width:4; stroke-opacity:1; fill:none" points="
  239.114,942.837 258.697,942.837 
  "/>
<polyline clip-path="url(#clip990)" style="stroke:#000000; stroke-linecap:butt; stroke-linejoin:round; stroke-width:4; stroke-opacity:1; fill:none" points="
  239.114,765.191 258.697,765.191 
  "/>
<polyline clip-path="url(#clip990)" style="stroke:#000000; stroke-linecap:butt; stroke-linejoin:round; stroke-width:4; stroke-opacity:1; fill:none" points="
  239.114,587.546 258.697,587.546 
  "/>
<polyline clip-path="url(#clip990)" style="stroke:#000000; stroke-linecap:butt; stroke-linejoin:round; stroke-width:4; stroke-opacity:1; fill:none" points="
  239.114,409.9 258.697,409.9 
  "/>
<polyline clip-path="url(#clip990)" style="stroke:#000000; stroke-linecap:butt; stroke-linejoin:round; stroke-width:4; stroke-opacity:1; fill:none" points="
  239.114,232.254 258.697,232.254 
  "/>
<path clip-path="url(#clip990)" d="M112.776 928.636 Q109.165 928.636 107.336 932.201 Q105.531 935.743 105.531 942.872 Q105.531 949.979 107.336 953.543 Q109.165 957.085 112.776 957.085 Q116.41 957.085 118.216 953.543 Q120.045 949.979 120.045 942.872 Q120.045 935.743 118.216 932.201 Q116.41 928.636 112.776 928.636 M112.776 924.932 Q118.586 924.932 121.642 929.539 Q124.721 934.122 124.721 942.872 Q124.721 951.599 121.642 956.205 Q118.586 960.789 112.776 960.789 Q106.966 960.789 103.887 956.205 Q100.832 951.599 100.832 942.872 Q100.832 934.122 103.887 929.539 Q106.966 924.932 112.776 924.932 Z" fill="#000000" fill-rule="evenodd" fill-opacity="1" /><path clip-path="url(#clip990)" d="M132.938 954.238 L137.822 954.238 L137.822 960.117 L132.938 960.117 L132.938 954.238 Z" fill="#000000" fill-rule="evenodd" fill-opacity="1" /><path clip-path="url(#clip990)" d="M158.007 928.636 Q154.396 928.636 152.568 932.201 Q150.762 935.743 150.762 942.872 Q150.762 949.979 152.568 953.543 Q154.396 957.085 158.007 957.085 Q161.642 957.085 163.447 953.543 Q165.276 949.979 165.276 942.872 Q165.276 935.743 163.447 932.201 Q161.642 928.636 158.007 928.636 M158.007 924.932 Q163.818 924.932 166.873 929.539 Q169.952 934.122 169.952 942.872 Q169.952 951.599 166.873 956.205 Q163.818 960.789 158.007 960.789 Q152.197 960.789 149.119 956.205 Q146.063 951.599 146.063 942.872 Q146.063 934.122 149.119 929.539 Q152.197 924.932 158.007 924.932 Z" fill="#000000" fill-rule="evenodd" fill-opacity="1" /><path clip-path="url(#clip990)" d="M188.169 928.636 Q184.558 928.636 182.73 932.201 Q180.924 935.743 180.924 942.872 Q180.924 949.979 182.73 953.543 Q184.558 957.085 188.169 957.085 Q191.804 957.085 193.609 953.543 Q195.438 949.979 195.438 942.872 Q195.438 935.743 193.609 932.201 Q191.804 928.636 188.169 928.636 M188.169 924.932 Q193.979 924.932 197.035 929.539 Q200.114 934.122 200.114 942.872 Q200.114 951.599 197.035 956.205 Q193.979 960.789 188.169 960.789 Q182.359 960.789 179.281 956.205 Q176.225 951.599 176.225 942.872 Q176.225 934.122 179.281 929.539 Q182.359 924.932 188.169 924.932 Z" fill="#000000" fill-rule="evenodd" fill-opacity="1" /><path clip-path="url(#clip990)" d="M113.772 750.99 Q110.161 750.99 108.332 754.555 Q106.526 758.097 106.526 765.226 Q106.526 772.333 108.332 775.897 Q110.161 779.439 113.772 779.439 Q117.406 779.439 119.211 775.897 Q121.04 772.333 121.04 765.226 Q121.04 758.097 119.211 754.555 Q117.406 750.99 113.772 750.99 M113.772 747.286 Q119.582 747.286 122.637 751.893 Q125.716 756.476 125.716 765.226 Q125.716 773.953 122.637 778.559 Q119.582 783.143 113.772 783.143 Q107.961 783.143 104.883 778.559 Q101.827 773.953 101.827 765.226 Q101.827 756.476 104.883 751.893 Q107.961 747.286 113.772 747.286 Z" fill="#000000" fill-rule="evenodd" fill-opacity="1" /><path clip-path="url(#clip990)" d="M133.934 776.592 L138.818 776.592 L138.818 782.471 L133.934 782.471 L133.934 776.592 Z" fill="#000000" fill-rule="evenodd" fill-opacity="1" /><path clip-path="url(#clip990)" d="M153.031 778.536 L169.35 778.536 L169.35 782.471 L147.406 782.471 L147.406 778.536 Q150.068 775.782 154.651 771.152 Q159.257 766.499 160.438 765.157 Q162.683 762.634 163.563 760.898 Q164.466 759.138 164.466 757.448 Q164.466 754.694 162.521 752.958 Q160.6 751.222 157.498 751.222 Q155.299 751.222 152.845 751.986 Q150.415 752.749 147.637 754.3 L147.637 749.578 Q150.461 748.444 152.915 747.865 Q155.369 747.286 157.406 747.286 Q162.776 747.286 165.97 749.972 Q169.165 752.657 169.165 757.148 Q169.165 759.277 168.355 761.198 Q167.568 763.097 165.461 765.689 Q164.882 766.36 161.781 769.578 Q158.679 772.772 153.031 778.536 Z" fill="#000000" fill-rule="evenodd" fill-opacity="1" /><path clip-path="url(#clip990)" d="M179.211 747.911 L197.567 747.911 L197.567 751.847 L183.493 751.847 L183.493 760.319 Q184.512 759.972 185.53 759.81 Q186.549 759.624 187.567 759.624 Q193.355 759.624 196.734 762.796 Q200.114 765.967 200.114 771.384 Q200.114 776.962 196.642 780.064 Q193.169 783.143 186.85 783.143 Q184.674 783.143 182.405 782.772 Q180.16 782.402 177.753 781.661 L177.753 776.962 Q179.836 778.097 182.058 778.652 Q184.28 779.208 186.757 779.208 Q190.762 779.208 193.1 777.101 Q195.438 774.995 195.438 771.384 Q195.438 767.772 193.1 765.666 Q190.762 763.56 186.757 763.56 Q184.882 763.56 183.007 763.976 Q181.155 764.393 179.211 765.273 L179.211 747.911 Z" fill="#000000" fill-rule="evenodd" fill-opacity="1" /><path clip-path="url(#clip990)" d="M112.776 573.344 Q109.165 573.344 107.336 576.909 Q105.531 580.451 105.531 587.58 Q105.531 594.687 107.336 598.251 Q109.165 601.793 112.776 601.793 Q116.41 601.793 118.216 598.251 Q120.045 594.687 120.045 587.58 Q120.045 580.451 118.216 576.909 Q116.41 573.344 112.776 573.344 M112.776 569.641 Q118.586 569.641 121.642 574.247 Q124.721 578.83 124.721 587.58 Q124.721 596.307 121.642 600.913 Q118.586 605.497 112.776 605.497 Q106.966 605.497 103.887 600.913 Q100.832 596.307 100.832 587.58 Q100.832 578.83 103.887 574.247 Q106.966 569.641 112.776 569.641 Z" fill="#000000" fill-rule="evenodd" fill-opacity="1" /><path clip-path="url(#clip990)" d="M132.938 598.946 L137.822 598.946 L137.822 604.826 L132.938 604.826 L132.938 598.946 Z" fill="#000000" fill-rule="evenodd" fill-opacity="1" /><path clip-path="url(#clip990)" d="M148.054 570.266 L166.41 570.266 L166.41 574.201 L152.336 574.201 L152.336 582.673 Q153.355 582.326 154.373 582.164 Q155.392 581.978 156.41 581.978 Q162.197 581.978 165.577 585.15 Q168.956 588.321 168.956 593.738 Q168.956 599.316 165.484 602.418 Q162.012 605.497 155.693 605.497 Q153.517 605.497 151.248 605.126 Q149.003 604.756 146.595 604.015 L146.595 599.316 Q148.679 600.451 150.901 601.006 Q153.123 601.562 155.6 601.562 Q159.605 601.562 161.943 599.455 Q164.281 597.349 164.281 593.738 Q164.281 590.127 161.943 588.02 Q159.605 585.914 155.6 585.914 Q153.725 585.914 151.85 586.33 Q149.998 586.747 148.054 587.627 L148.054 570.266 Z" fill="#000000" fill-rule="evenodd" fill-opacity="1" /><path clip-path="url(#clip990)" d="M188.169 573.344 Q184.558 573.344 182.73 576.909 Q180.924 580.451 180.924 587.58 Q180.924 594.687 182.73 598.251 Q184.558 601.793 188.169 601.793 Q191.804 601.793 193.609 598.251 Q195.438 594.687 195.438 587.58 Q195.438 580.451 193.609 576.909 Q191.804 573.344 188.169 573.344 M188.169 569.641 Q193.979 569.641 197.035 574.247 Q200.114 578.83 200.114 587.58 Q200.114 596.307 197.035 600.913 Q193.979 605.497 188.169 605.497 Q182.359 605.497 179.281 600.913 Q176.225 596.307 176.225 587.58 Q176.225 578.83 179.281 574.247 Q182.359 569.641 188.169 569.641 Z" fill="#000000" fill-rule="evenodd" fill-opacity="1" /><path clip-path="url(#clip990)" d="M113.772 395.698 Q110.161 395.698 108.332 399.263 Q106.526 402.805 106.526 409.934 Q106.526 417.041 108.332 420.605 Q110.161 424.147 113.772 424.147 Q117.406 424.147 119.211 420.605 Q121.04 417.041 121.04 409.934 Q121.04 402.805 119.211 399.263 Q117.406 395.698 113.772 395.698 M113.772 391.995 Q119.582 391.995 122.637 396.601 Q125.716 401.184 125.716 409.934 Q125.716 418.661 122.637 423.268 Q119.582 427.851 113.772 427.851 Q107.961 427.851 104.883 423.268 Q101.827 418.661 101.827 409.934 Q101.827 401.184 104.883 396.601 Q107.961 391.995 113.772 391.995 Z" fill="#000000" fill-rule="evenodd" fill-opacity="1" /><path clip-path="url(#clip990)" d="M133.934 421.3 L138.818 421.3 L138.818 427.18 L133.934 427.18 L133.934 421.3 Z" fill="#000000" fill-rule="evenodd" fill-opacity="1" /><path clip-path="url(#clip990)" d="M147.822 392.62 L170.044 392.62 L170.044 394.61 L157.498 427.18 L152.614 427.18 L164.419 396.555 L147.822 396.555 L147.822 392.62 Z" fill="#000000" fill-rule="evenodd" fill-opacity="1" /><path clip-path="url(#clip990)" d="M179.211 392.62 L197.567 392.62 L197.567 396.555 L183.493 396.555 L183.493 405.027 Q184.512 404.68 185.53 404.518 Q186.549 404.332 187.567 404.332 Q193.355 404.332 196.734 407.504 Q200.114 410.675 200.114 416.092 Q200.114 421.67 196.642 424.772 Q193.169 427.851 186.85 427.851 Q184.674 427.851 182.405 427.48 Q180.16 427.11 177.753 426.369 L177.753 421.67 Q179.836 422.805 182.058 423.36 Q184.28 423.916 186.757 423.916 Q190.762 423.916 193.1 421.809 Q195.438 419.703 195.438 416.092 Q195.438 412.481 193.1 410.374 Q190.762 408.268 186.757 408.268 Q184.882 408.268 183.007 408.684 Q181.155 409.101 179.211 409.981 L179.211 392.62 Z" fill="#000000" fill-rule="evenodd" fill-opacity="1" /><path clip-path="url(#clip990)" d="M103.586 245.598 L111.225 245.598 L111.225 219.233 L102.915 220.899 L102.915 216.64 L111.179 214.974 L115.855 214.974 L115.855 245.598 L123.494 245.598 L123.494 249.534 L103.586 249.534 L103.586 245.598 Z" fill="#000000" fill-rule="evenodd" fill-opacity="1" /><path clip-path="url(#clip990)" d="M132.938 243.654 L137.822 243.654 L137.822 249.534 L132.938 249.534 L132.938 243.654 Z" fill="#000000" fill-rule="evenodd" fill-opacity="1" /><path clip-path="url(#clip990)" d="M158.007 218.052 Q154.396 218.052 152.568 221.617 Q150.762 225.159 150.762 232.288 Q150.762 239.395 152.568 242.96 Q154.396 246.501 158.007 246.501 Q161.642 246.501 163.447 242.96 Q165.276 239.395 165.276 232.288 Q165.276 225.159 163.447 221.617 Q161.642 218.052 158.007 218.052 M158.007 214.349 Q163.818 214.349 166.873 218.955 Q169.952 223.538 169.952 232.288 Q169.952 241.015 166.873 245.622 Q163.818 250.205 158.007 250.205 Q152.197 250.205 149.119 245.622 Q146.063 241.015 146.063 232.288 Q146.063 223.538 149.119 218.955 Q152.197 214.349 158.007 214.349 Z" fill="#000000" fill-rule="evenodd" fill-opacity="1" /><path clip-path="url(#clip990)" d="M188.169 218.052 Q184.558 218.052 182.73 221.617 Q180.924 225.159 180.924 232.288 Q180.924 239.395 182.73 242.96 Q184.558 246.501 188.169 246.501 Q191.804 246.501 193.609 242.96 Q195.438 239.395 195.438 232.288 Q195.438 225.159 193.609 221.617 Q191.804 218.052 188.169 218.052 M188.169 214.349 Q193.979 214.349 197.035 218.955 Q200.114 223.538 200.114 232.288 Q200.114 241.015 197.035 245.622 Q193.979 250.205 188.169 250.205 Q182.359 250.205 179.281 245.622 Q176.225 241.015 176.225 232.288 Q176.225 223.538 179.281 218.955 Q182.359 214.349 188.169 214.349 Z" fill="#000000" fill-rule="evenodd" fill-opacity="1" /><path clip-path="url(#clip990)" d="M17.4024 854.412 Q16.8295 855.399 16.5749 856.576 Q16.2884 857.722 16.2884 859.122 Q16.2884 864.088 19.5349 866.761 Q22.7496 869.403 28.797 869.403 L47.5758 869.403 L47.5758 875.291 L11.9279 875.291 L11.9279 869.403 L17.4661 869.403 Q14.2195 867.557 12.6599 864.597 Q11.0685 861.637 11.0685 857.404 Q11.0685 856.799 11.164 856.067 Q11.2277 855.335 11.3868 854.444 L17.4024 854.412 Z" fill="#000000" fill-rule="evenodd" fill-opacity="1" /><path clip-path="url(#clip990)" d="M29.6564 832.068 Q29.6564 839.166 31.2796 841.903 Q32.9029 844.64 36.8178 844.64 Q39.937 844.64 41.7831 842.603 Q43.5973 840.535 43.5973 837.002 Q43.5973 832.132 40.1598 829.204 Q36.6905 826.244 30.9614 826.244 L29.6564 826.244 L29.6564 832.068 M27.2374 820.387 L47.5758 820.387 L47.5758 826.244 L42.165 826.244 Q45.4115 828.249 46.9711 831.241 Q48.4989 834.233 48.4989 838.561 Q48.4989 844.036 45.4433 847.282 Q42.356 850.497 37.1997 850.497 Q31.1842 850.497 28.1286 846.487 Q25.0731 842.444 25.0731 834.455 L25.0731 826.244 L24.5002 826.244 Q20.4579 826.244 18.2618 828.917 Q16.0338 831.559 16.0338 836.365 Q16.0338 839.421 16.7658 842.317 Q17.4979 845.213 18.962 847.887 L13.5511 847.887 Q12.3098 844.672 11.7051 841.649 Q11.0685 838.625 11.0685 835.76 Q11.0685 828.026 15.0789 824.207 Q19.0893 820.387 27.2374 820.387 Z" fill="#000000" fill-rule="evenodd" fill-opacity="1" /><path clip-path="url(#clip990)" d="M1.80642 802.531 L11.9279 802.531 L11.9279 790.468 L16.4794 790.468 L16.4794 802.531 L35.8311 802.531 Q40.1916 802.531 41.4329 801.354 Q42.6743 800.144 42.6743 796.484 L42.6743 790.468 L47.5758 790.468 L47.5758 796.484 Q47.5758 803.263 45.0614 805.842 Q42.5151 808.42 35.8311 808.42 L16.4794 808.42 L16.4794 812.716 L11.9279 812.716 L11.9279 808.42 L1.80642 808.42 L1.80642 802.531 Z" fill="#000000" fill-rule="evenodd" fill-opacity="1" /><path clip-path="url(#clip990)" d="M11.9279 782.766 L11.9279 776.909 L47.5758 776.909 L47.5758 782.766 L11.9279 782.766 M-1.94935 782.766 L-1.94935 776.909 L5.4667 776.909 L5.4667 782.766 L-1.94935 782.766 Z" fill="#000000" fill-rule="evenodd" fill-opacity="1" /><path clip-path="url(#clip990)" d="M16.0338 750.842 Q16.0338 755.552 19.7259 758.29 Q23.3862 761.027 29.7837 761.027 Q36.1812 761.027 39.8733 758.322 Q43.5336 755.584 43.5336 750.842 Q43.5336 746.163 39.8415 743.426 Q36.1494 740.688 29.7837 740.688 Q23.4498 740.688 19.7577 743.426 Q16.0338 746.163 16.0338 750.842 M11.0685 750.842 Q11.0685 743.203 16.0338 738.842 Q20.999 734.482 29.7837 734.482 Q38.5365 734.482 43.5336 738.842 Q48.4989 743.203 48.4989 750.842 Q48.4989 758.512 43.5336 762.873 Q38.5365 767.202 29.7837 767.202 Q20.999 767.202 16.0338 762.873 Q11.0685 758.512 11.0685 750.842 Z" fill="#000000" fill-rule="evenodd" fill-opacity="1" /><path clip-path="url(#clip990)" d="M16.0338 690.24 Q16.0338 694.951 19.7259 697.688 Q23.3862 700.425 29.7837 700.425 Q36.1812 700.425 39.8733 697.72 Q43.5336 694.983 43.5336 690.24 Q43.5336 685.561 39.8415 682.824 Q36.1494 680.087 29.7837 680.087 Q23.4498 680.087 19.7577 682.824 Q16.0338 685.561 16.0338 690.24 M11.0685 690.24 Q11.0685 682.601 16.0338 678.241 Q20.999 673.88 29.7837 673.88 Q38.5365 673.88 43.5336 678.241 Q48.4989 682.601 48.4989 690.24 Q48.4989 697.911 43.5336 702.271 Q38.5365 706.6 29.7837 706.6 Q20.999 706.6 16.0338 702.271 Q11.0685 697.911 11.0685 690.24 Z" fill="#000000" fill-rule="evenodd" fill-opacity="1" /><path clip-path="url(#clip990)" d="M-1.94935 646.126 L2.92042 646.126 L2.92042 651.728 Q2.92042 654.879 4.19356 656.12 Q5.4667 657.33 8.77687 657.33 L11.9279 657.33 L11.9279 647.686 L16.4794 647.686 L16.4794 657.33 L47.5758 657.33 L47.5758 663.218 L16.4794 663.218 L16.4794 668.82 L11.9279 668.82 L11.9279 663.218 L9.44527 663.218 Q3.49333 663.218 0.787906 660.449 Q-1.94935 657.68 -1.94935 651.664 L-1.94935 646.126 Z" fill="#000000" fill-rule="evenodd" fill-opacity="1" /><path clip-path="url(#clip990)" d="M17.4024 599.847 Q16.8295 600.834 16.5749 602.012 Q16.2884 603.157 16.2884 604.558 Q16.2884 609.523 19.5349 612.197 Q22.7496 614.838 28.797 614.838 L47.5758 614.838 L47.5758 620.727 L11.9279 620.727 L11.9279 614.838 L17.4661 614.838 Q14.2195 612.992 12.6599 610.032 Q11.0685 607.072 11.0685 602.839 Q11.0685 602.234 11.164 601.502 Q11.2277 600.77 11.3868 599.879 L17.4024 599.847 Z" fill="#000000" fill-rule="evenodd" fill-opacity="1" /><path clip-path="url(#clip990)" d="M28.2878 564.645 L31.1523 564.645 L31.1523 591.572 Q37.1997 591.19 40.3826 587.943 Q43.5336 584.665 43.5336 578.84 Q43.5336 575.467 42.7061 572.316 Q41.8785 569.133 40.2235 566.014 L45.7616 566.014 Q47.0984 569.165 47.7986 572.475 Q48.4989 575.785 48.4989 579.191 Q48.4989 587.721 43.5336 592.718 Q38.5684 597.683 30.102 597.683 Q21.3491 597.683 16.2247 592.972 Q11.0685 588.23 11.0685 580.209 Q11.0685 573.016 15.7155 568.846 Q20.3306 564.645 28.2878 564.645 M26.569 570.501 Q21.7629 570.565 18.8983 573.207 Q16.0338 575.817 16.0338 580.145 Q16.0338 585.047 18.8029 588.007 Q21.5719 590.935 26.6008 591.381 L26.569 570.501 Z" fill="#000000" fill-rule="evenodd" fill-opacity="1" /><path clip-path="url(#clip990)" d="M12.9782 532.307 L18.5164 532.307 Q17.2433 534.79 16.6067 537.463 Q15.9701 540.137 15.9701 543.001 Q15.9701 547.362 17.3069 549.558 Q18.6437 551.722 21.3173 551.722 Q23.3543 551.722 24.532 550.163 Q25.6778 548.603 26.7282 543.893 L27.1738 541.887 Q28.5106 535.649 30.9614 533.039 Q33.3803 530.397 37.7408 530.397 Q42.7061 530.397 45.6025 534.344 Q48.4989 538.259 48.4989 545.134 Q48.4989 547.999 47.926 551.118 Q47.3849 554.205 46.2709 557.643 L40.2235 557.643 Q41.9104 554.396 42.7697 551.245 Q43.5973 548.094 43.5973 545.007 Q43.5973 540.869 42.1968 538.641 Q40.7645 536.413 38.1864 536.413 Q35.7993 536.413 34.5262 538.036 Q33.253 539.628 32.0754 545.07 L31.5979 547.107 Q30.4521 552.55 28.0968 554.969 Q25.7096 557.388 21.5719 557.388 Q16.543 557.388 13.8058 553.823 Q11.0685 550.258 11.0685 543.702 Q11.0685 540.455 11.546 537.591 Q12.0234 534.726 12.9782 532.307 Z" fill="#000000" fill-rule="evenodd" fill-opacity="1" /><path clip-path="url(#clip990)" d="M42.2287 515.406 L61.1348 515.406 L61.1348 521.294 L11.9279 521.294 L11.9279 515.406 L17.3387 515.406 Q14.1559 513.56 12.6281 510.759 Q11.0685 507.926 11.0685 504.012 Q11.0685 497.519 16.2247 493.476 Q21.381 489.402 29.7837 489.402 Q38.1864 489.402 43.3427 493.476 Q48.4989 497.519 48.4989 504.012 Q48.4989 507.926 46.9711 510.759 Q45.4115 513.56 42.2287 515.406 M29.7837 495.481 Q23.3225 495.481 19.6622 498.155 Q15.9701 500.797 15.9701 505.444 Q15.9701 510.091 19.6622 512.764 Q23.3225 515.406 29.7837 515.406 Q36.2449 515.406 39.937 512.764 Q43.5973 510.091 43.5973 505.444 Q43.5973 500.797 39.937 498.155 Q36.2449 495.481 29.7837 495.481 Z" fill="#000000" fill-rule="evenodd" fill-opacity="1" /><path clip-path="url(#clip990)" d="M16.0338 465.881 Q16.0338 470.592 19.7259 473.329 Q23.3862 476.066 29.7837 476.066 Q36.1812 476.066 39.8733 473.361 Q43.5336 470.623 43.5336 465.881 Q43.5336 461.202 39.8415 458.465 Q36.1494 455.728 29.7837 455.728 Q23.4498 455.728 19.7577 458.465 Q16.0338 461.202 16.0338 465.881 M11.0685 465.881 Q11.0685 458.242 16.0338 453.882 Q20.999 449.521 29.7837 449.521 Q38.5365 449.521 43.5336 453.882 Q48.4989 458.242 48.4989 465.881 Q48.4989 473.552 43.5336 477.912 Q38.5365 482.241 29.7837 482.241 Q20.999 482.241 16.0338 477.912 Q11.0685 473.552 11.0685 465.881 Z" fill="#000000" fill-rule="evenodd" fill-opacity="1" /><path clip-path="url(#clip990)" d="M26.0598 410.181 L47.5758 410.181 L47.5758 416.037 L26.2507 416.037 Q21.19 416.037 18.6755 418.011 Q16.1611 419.984 16.1611 423.931 Q16.1611 428.673 19.1848 431.411 Q22.2085 434.148 27.4284 434.148 L47.5758 434.148 L47.5758 440.036 L11.9279 440.036 L11.9279 434.148 L17.4661 434.148 Q14.2514 432.047 12.6599 429.214 Q11.0685 426.35 11.0685 422.626 Q11.0685 416.483 14.8879 413.332 Q18.6755 410.181 26.0598 410.181 Z" fill="#000000" fill-rule="evenodd" fill-opacity="1" /><path clip-path="url(#clip990)" d="M12.9782 375.774 L18.5164 375.774 Q17.2433 378.257 16.6067 380.931 Q15.9701 383.604 15.9701 386.469 Q15.9701 390.829 17.3069 393.025 Q18.6437 395.19 21.3173 395.19 Q23.3543 395.19 24.532 393.63 Q25.6778 392.071 26.7282 387.36 L27.1738 385.355 Q28.5106 379.116 30.9614 376.506 Q33.3803 373.865 37.7408 373.865 Q42.7061 373.865 45.6025 377.811 Q48.4989 381.726 48.4989 388.601 Q48.4989 391.466 47.926 394.585 Q47.3849 397.672 46.2709 401.11 L40.2235 401.11 Q41.9104 397.863 42.7697 394.712 Q43.5973 391.561 43.5973 388.474 Q43.5973 384.336 42.1968 382.108 Q40.7645 379.88 38.1864 379.88 Q35.7993 379.88 34.5262 381.503 Q33.253 383.095 32.0754 388.538 L31.5979 390.575 Q30.4521 396.017 28.0968 398.436 Q25.7096 400.855 21.5719 400.855 Q16.543 400.855 13.8058 397.29 Q11.0685 393.726 11.0685 387.169 Q11.0685 383.922 11.546 381.058 Q12.0234 378.193 12.9782 375.774 Z" fill="#000000" fill-rule="evenodd" fill-opacity="1" /><path clip-path="url(#clip990)" d="M28.2878 334.047 L31.1523 334.047 L31.1523 360.974 Q37.1997 360.592 40.3826 357.346 Q43.5336 354.067 43.5336 348.243 Q43.5336 344.869 42.7061 341.718 Q41.8785 338.535 40.2235 335.416 L45.7616 335.416 Q47.0984 338.567 47.7986 341.877 Q48.4989 345.187 48.4989 348.593 Q48.4989 357.123 43.5336 362.12 Q38.5684 367.085 30.102 367.085 Q21.3491 367.085 16.2247 362.375 Q11.0685 357.632 11.0685 349.611 Q11.0685 342.418 15.7155 338.249 Q20.3306 334.047 28.2878 334.047 M26.569 339.904 Q21.7629 339.967 18.8983 342.609 Q16.0338 345.219 16.0338 349.548 Q16.0338 354.449 18.8029 357.409 Q21.5719 360.338 26.6008 360.783 L26.569 339.904 Z" fill="#000000" fill-rule="evenodd" fill-opacity="1" /><path clip-path="url(#clip990)" d="M12.9782 301.709 L18.5164 301.709 Q17.2433 304.192 16.6067 306.866 Q15.9701 309.539 15.9701 312.404 Q15.9701 316.764 17.3069 318.96 Q18.6437 321.125 21.3173 321.125 Q23.3543 321.125 24.532 319.565 Q25.6778 318.006 26.7282 313.295 L27.1738 311.29 Q28.5106 305.051 30.9614 302.441 Q33.3803 299.8 37.7408 299.8 Q42.7061 299.8 45.6025 303.746 Q48.4989 307.661 48.4989 314.536 Q48.4989 317.401 47.926 320.52 Q47.3849 323.607 46.2709 327.045 L40.2235 327.045 Q41.9104 323.798 42.7697 320.647 Q43.5973 317.496 43.5973 314.409 Q43.5973 310.271 42.1968 308.043 Q40.7645 305.815 38.1864 305.815 Q35.7993 305.815 34.5262 307.439 Q33.253 309.03 32.0754 314.473 L31.5979 316.51 Q30.4521 321.952 28.0968 324.371 Q25.7096 326.79 21.5719 326.79 Q16.543 326.79 13.8058 323.225 Q11.0685 319.661 11.0685 313.104 Q11.0685 309.857 11.546 306.993 Q12.0234 304.128 12.9782 301.709 Z" fill="#000000" fill-rule="evenodd" fill-opacity="1" /><path clip-path="url(#clip992)" d="
M285.302 232.254 L403.732 232.254 L522.163 232.254 L877.455 232.254 L995.886 232.254 L1351.18 232.254 L1824.9 232.254 L1824.9 232.254 L1824.9 942.837 L1824.9 942.837 
  L1351.18 942.837 L995.886 942.837 L877.455 942.837 L522.163 942.837 L403.732 942.837 L285.302 942.837  Z
  " fill="#006d60" fill-rule="evenodd" fill-opacity="1"/>
<polyline clip-path="url(#clip992)" style="stroke:#000000; stroke-linecap:butt; stroke-linejoin:round; stroke-width:4; stroke-opacity:1; fill:none" points="
  285.302,232.254 403.732,232.254 522.163,232.254 877.455,232.254 995.886,232.254 1351.18,232.254 1824.9,232.254 
  "/>
<path clip-path="url(#clip992)" d="
M285.302 250.018 L403.732 232.254 L522.163 254.459 L877.455 315.155 L995.886 303.312 L1351.18 248.403 L1824.9 266.637 L1824.9 266.637 L1824.9 942.837 L1824.9 942.837 
  L1351.18 942.837 L995.886 942.837 L877.455 942.837 L522.163 942.837 L403.732 942.837 L285.302 942.837  Z
  " fill="#008569" fill-rule="evenodd" fill-opacity="1"/>
<polyline clip-path="url(#clip992)" style="stroke:#000000; stroke-linecap:butt; stroke-linejoin:round; stroke-width:4; stroke-opacity:1; fill:none" points="
  285.302,250.018 403.732,232.254 522.163,254.459 877.455,315.155 995.886,303.312 1351.18,248.403 1824.9,266.637 
  "/>
<path clip-path="url(#clip992)" d="
M285.302 303.312 L403.732 313.002 L522.163 287.768 L877.455 409.9 L995.886 356.606 L1351.18 329.151 L1824.9 335.403 L1824.9 335.403 L1824.9 942.837 L1824.9 942.837 
  L1351.18 942.837 L995.886 942.837 L877.455 942.837 L522.163 942.837 L403.732 942.837 L285.302 942.837  Z
  " fill="#009e73" fill-rule="evenodd" fill-opacity="1"/>
<polyline clip-path="url(#clip992)" style="stroke:#000000; stroke-linecap:butt; stroke-linejoin:round; stroke-width:4; stroke-opacity:1; fill:none" points="
  285.302,303.312 403.732,313.002 522.163,287.768 877.455,409.9 995.886,356.606 1351.18,329.151 1824.9,335.403 
  "/>
<path clip-path="url(#clip992)" d="
M285.302 445.429 L403.732 409.9 L522.163 332.179 L877.455 587.546 L995.886 427.664 L1351.18 393.75 L1824.9 392.708 L1824.9 392.708 L1824.9 942.837 L1824.9 942.837 
  L1351.18 942.837 L995.886 942.837 L877.455 942.837 L522.163 942.837 L403.732 942.837 L285.302 942.837  Z
  " fill="#77c6b0" fill-rule="evenodd" fill-opacity="1"/>
<polyline clip-path="url(#clip992)" style="stroke:#000000; stroke-linecap:butt; stroke-linejoin:round; stroke-width:4; stroke-opacity:1; fill:none" points="
  285.302,445.429 403.732,409.9 522.163,332.179 877.455,587.546 995.886,427.664 1351.18,393.75 1824.9,392.708 
  "/>
<path clip-path="url(#clip992)" d="
M285.302 658.604 L403.732 539.097 L522.163 576.443 L877.455 670.447 L995.886 516.487 L1351.18 539.097 L1824.9 490.127 L1824.9 490.127 L1824.9 942.837 L1824.9 942.837 
  L1351.18 942.837 L995.886 942.837 L877.455 942.837 L522.163 942.837 L403.732 942.837 L285.302 942.837  Z
  " fill="#eeeeee" fill-rule="evenodd" fill-opacity="1"/>
<polyline clip-path="url(#clip992)" style="stroke:#000000; stroke-linecap:butt; stroke-linejoin:round; stroke-width:4; stroke-opacity:1; fill:none" points="
  285.302,658.604 403.732,539.097 522.163,576.443 877.455,670.447 995.886,516.487 1351.18,539.097 1824.9,490.127 
  "/>
<path clip-path="url(#clip992)" d="
M285.302 907.308 L403.732 749.042 L522.163 887.323 L877.455 895.465 L995.886 765.191 L1351.18 862.089 L1824.9 788.114 L1824.9 788.114 L1824.9 942.837 L1824.9 942.837 
  L1351.18 942.837 L995.886 942.837 L877.455 942.837 L522.163 942.837 L403.732 942.837 L285.302 942.837  Z
  " fill="#ddb3ca" fill-rule="evenodd" fill-opacity="1"/>
<polyline clip-path="url(#clip992)" style="stroke:#000000; stroke-linecap:butt; stroke-linejoin:round; stroke-width:4; stroke-opacity:1; fill:none" points="
  285.302,907.308 403.732,749.042 522.163,887.323 877.455,895.465 995.886,765.191 1351.18,862.089 1824.9,788.114 
  "/>
<path clip-path="url(#clip992)" d="
M285.302 942.837 L403.732 878.239 L522.163 942.837 L877.455 942.837 L995.886 836.25 L1351.18 910.538 L1824.9 885.532 L1824.9 885.532 L1824.9 942.837 L1824.9 942.837 
  L1351.18 942.837 L995.886 942.837 L877.455 942.837 L522.163 942.837 L403.732 942.837 L285.302 942.837  Z
  " fill="#cc79a7" fill-rule="evenodd" fill-opacity="1"/>
<polyline clip-path="url(#clip992)" style="stroke:#000000; stroke-linecap:butt; stroke-linejoin:round; stroke-width:4; stroke-opacity:1; fill:none" points="
  285.302,942.837 403.732,878.239 522.163,942.837 877.455,942.837 995.886,836.25 1351.18,910.538 1824.9,885.532 
  "/>
<path clip-path="url(#clip992)" d="
M285.302 942.837 L403.732 942.837 L522.163 942.837 L877.455 942.837 L995.886 889.544 L1351.18 942.837 L1824.9 919.915 L1824.9 919.915 L1824.9 942.837 L1824.9 942.837 
  L1351.18 942.837 L995.886 942.837 L877.455 942.837 L522.163 942.837 L403.732 942.837 L285.302 942.837  Z
  " fill="#b55585" fill-rule="evenodd" fill-opacity="1"/>
<polyline clip-path="url(#clip992)" style="stroke:#000000; stroke-linecap:butt; stroke-linejoin:round; stroke-width:4; stroke-opacity:1; fill:none" points="
  285.302,942.837 403.732,942.837 522.163,942.837 877.455,942.837 995.886,889.544 1351.18,942.837 1824.9,919.915 
  "/>
<path clip-path="url(#clip992)" d="
M285.302 942.837 L403.732 942.837 L522.163 942.837 L877.455 942.837 L995.886 925.073 L1351.18 942.837 L1824.9 937.107 L1824.9 937.107 L1824.9 942.837 L1824.9 942.837 
  L1351.18 942.837 L995.886 942.837 L877.455 942.837 L522.163 942.837 L403.732 942.837 L285.302 942.837  Z
  " fill="#9e3264" fill-rule="evenodd" fill-opacity="1"/>
<polyline clip-path="url(#clip992)" style="stroke:#000000; stroke-linecap:butt; stroke-linejoin:round; stroke-width:4; stroke-opacity:1; fill:none" points="
  285.302,942.837 403.732,942.837 522.163,942.837 877.455,942.837 995.886,925.073 1351.18,942.837 1824.9,937.107 
  "/>
<path clip-path="url(#clip990)" d="
M1948.21 889.946 L2552.76 889.946 L2552.76 224.666 L1948.21 224.666  Z
  " fill="#ffffff" fill-rule="evenodd" fill-opacity="1"/>
<polyline clip-path="url(#clip990)" style="stroke:#000000; stroke-linecap:butt; stroke-linejoin:round; stroke-width:4; stroke-opacity:1; fill:none" points="
  1948.21,889.946 2552.76,889.946 2552.76,224.666 1948.21,224.666 1948.21,889.946 
  "/>
<path clip-path="url(#clip990)" d="M2080.15 272.617 L2080.15 286.367 L2075.87 286.367 L2075.87 250.58 L2080.15 250.58 L2080.15 254.515 Q2081.49 252.2 2083.53 251.089 Q2085.59 249.955 2088.44 249.955 Q2093.16 249.955 2096.1 253.705 Q2099.06 257.455 2099.06 263.566 Q2099.06 269.677 2096.1 273.427 Q2093.16 277.177 2088.44 277.177 Q2085.59 277.177 2083.53 276.066 Q2081.49 274.931 2080.15 272.617 M2094.64 263.566 Q2094.64 258.867 2092.7 256.205 Q2090.77 253.52 2087.39 253.52 Q2084.01 253.52 2082.07 256.205 Q2080.15 258.867 2080.15 263.566 Q2080.15 268.265 2082.07 270.95 Q2084.01 273.612 2087.39 273.612 Q2090.77 273.612 2092.7 270.95 Q2094.64 268.265 2094.64 263.566 Z" fill="#000000" fill-rule="evenodd" fill-opacity="1" /><path clip-path="url(#clip990)" d="M2121.14 254.561 Q2120.43 254.145 2119.57 253.959 Q2118.74 253.751 2117.72 253.751 Q2114.11 253.751 2112.16 256.112 Q2110.24 258.45 2110.24 262.848 L2110.24 276.506 L2105.96 276.506 L2105.96 250.58 L2110.24 250.58 L2110.24 254.607 Q2111.58 252.246 2113.74 251.112 Q2115.89 249.955 2118.97 249.955 Q2119.41 249.955 2119.94 250.024 Q2120.47 250.07 2121.12 250.186 L2121.14 254.561 Z" fill="#000000" fill-rule="evenodd" fill-opacity="1" /><path clip-path="url(#clip990)" d="M2146.75 262.478 L2146.75 264.561 L2127.16 264.561 Q2127.44 268.959 2129.8 271.274 Q2132.19 273.566 2136.42 273.566 Q2138.88 273.566 2141.17 272.964 Q2143.48 272.362 2145.75 271.158 L2145.75 275.186 Q2143.46 276.158 2141.05 276.668 Q2138.64 277.177 2136.17 277.177 Q2129.96 277.177 2126.33 273.566 Q2122.72 269.955 2122.72 263.797 Q2122.72 257.432 2126.14 253.705 Q2129.59 249.955 2135.43 249.955 Q2140.66 249.955 2143.69 253.334 Q2146.75 256.691 2146.75 262.478 M2142.49 261.228 Q2142.44 257.732 2140.52 255.649 Q2138.62 253.566 2135.47 253.566 Q2131.91 253.566 2129.76 255.58 Q2127.63 257.594 2127.3 261.251 L2142.49 261.228 Z" fill="#000000" fill-rule="evenodd" fill-opacity="1" /><path clip-path="url(#clip990)" d="M2166.86 240.487 L2166.86 244.029 L2162.79 244.029 Q2160.5 244.029 2159.59 244.955 Q2158.71 245.881 2158.71 248.288 L2158.71 250.58 L2165.73 250.58 L2165.73 253.89 L2158.71 253.89 L2158.71 276.506 L2154.43 276.506 L2154.43 253.89 L2150.36 253.89 L2150.36 250.58 L2154.43 250.58 L2154.43 248.774 Q2154.43 244.445 2156.44 242.478 Q2158.46 240.487 2162.83 240.487 L2166.86 240.487 Z" fill="#000000" fill-rule="evenodd" fill-opacity="1" /><path clip-path="url(#clip990)" d="M2192.6 262.478 L2192.6 264.561 L2173.02 264.561 Q2173.3 268.959 2175.66 271.274 Q2178.04 273.566 2182.28 273.566 Q2184.73 273.566 2187.02 272.964 Q2189.34 272.362 2191.61 271.158 L2191.61 275.186 Q2189.32 276.158 2186.91 276.668 Q2184.5 277.177 2182.02 277.177 Q2175.82 277.177 2172.19 273.566 Q2168.57 269.955 2168.57 263.797 Q2168.57 257.432 2172 253.705 Q2175.45 249.955 2181.28 249.955 Q2186.51 249.955 2189.55 253.334 Q2192.6 256.691 2192.6 262.478 M2188.34 261.228 Q2188.3 257.732 2186.38 255.649 Q2184.48 253.566 2181.33 253.566 Q2177.76 253.566 2175.61 255.58 Q2173.48 257.594 2173.16 261.251 L2188.34 261.228 Z" fill="#000000" fill-rule="evenodd" fill-opacity="1" /><path clip-path="url(#clip990)" d="M2214.62 254.561 Q2213.9 254.145 2213.04 253.959 Q2212.21 253.751 2211.19 253.751 Q2207.58 253.751 2205.63 256.112 Q2203.71 258.45 2203.71 262.848 L2203.71 276.506 L2199.43 276.506 L2199.43 250.58 L2203.71 250.58 L2203.71 254.607 Q2205.06 252.246 2207.21 251.112 Q2209.36 249.955 2212.44 249.955 Q2212.88 249.955 2213.41 250.024 Q2213.94 250.07 2214.59 250.186 L2214.62 254.561 Z" fill="#000000" fill-rule="evenodd" fill-opacity="1" /><path clip-path="url(#clip990)" d="M2240.22 262.478 L2240.22 264.561 L2220.63 264.561 Q2220.91 268.959 2223.27 271.274 Q2225.66 273.566 2229.89 273.566 Q2232.35 273.566 2234.64 272.964 Q2236.95 272.362 2239.22 271.158 L2239.22 275.186 Q2236.93 276.158 2234.52 276.668 Q2232.12 277.177 2229.64 277.177 Q2223.44 277.177 2219.8 273.566 Q2216.19 269.955 2216.19 263.797 Q2216.19 257.432 2219.62 253.705 Q2223.06 249.955 2228.9 249.955 Q2234.13 249.955 2237.16 253.334 Q2240.22 256.691 2240.22 262.478 M2235.96 261.228 Q2235.91 257.732 2233.99 255.649 Q2232.09 253.566 2228.94 253.566 Q2225.38 253.566 2223.23 255.58 Q2221.1 257.594 2220.77 261.251 L2235.96 261.228 Z" fill="#000000" fill-rule="evenodd" fill-opacity="1" /><path clip-path="url(#clip990)" d="M2268.76 260.857 L2268.76 276.506 L2264.5 276.506 L2264.5 260.996 Q2264.5 257.316 2263.06 255.487 Q2261.63 253.658 2258.76 253.658 Q2255.31 253.658 2253.32 255.857 Q2251.33 258.057 2251.33 261.853 L2251.33 276.506 L2247.05 276.506 L2247.05 250.58 L2251.33 250.58 L2251.33 254.607 Q2252.86 252.27 2254.92 251.112 Q2257 249.955 2259.71 249.955 Q2264.18 249.955 2266.47 252.732 Q2268.76 255.487 2268.76 260.857 Z" fill="#000000" fill-rule="evenodd" fill-opacity="1" /><path clip-path="url(#clip990)" d="M2295.91 251.575 L2295.91 255.557 Q2294.11 254.561 2292.28 254.075 Q2290.47 253.566 2288.62 253.566 Q2284.48 253.566 2282.18 256.205 Q2279.89 258.82 2279.89 263.566 Q2279.89 268.311 2282.18 270.95 Q2284.48 273.566 2288.62 273.566 Q2290.47 273.566 2292.28 273.08 Q2294.11 272.57 2295.91 271.575 L2295.91 275.51 Q2294.13 276.343 2292.21 276.76 Q2290.31 277.177 2288.16 277.177 Q2282.3 277.177 2278.85 273.496 Q2275.4 269.816 2275.4 263.566 Q2275.4 257.223 2278.87 253.589 Q2282.37 249.955 2288.43 249.955 Q2290.4 249.955 2292.28 250.371 Q2294.15 250.765 2295.91 251.575 Z" fill="#000000" fill-rule="evenodd" fill-opacity="1" /><path clip-path="url(#clip990)" d="M2325.49 262.478 L2325.49 264.561 L2305.91 264.561 Q2306.19 268.959 2308.55 271.274 Q2310.93 273.566 2315.17 273.566 Q2317.62 273.566 2319.92 272.964 Q2322.23 272.362 2324.5 271.158 L2324.5 275.186 Q2322.21 276.158 2319.8 276.668 Q2317.39 277.177 2314.92 277.177 Q2308.71 277.177 2305.08 273.566 Q2301.47 269.955 2301.47 263.797 Q2301.47 257.432 2304.89 253.705 Q2308.34 249.955 2314.18 249.955 Q2319.41 249.955 2322.44 253.334 Q2325.49 256.691 2325.49 262.478 M2321.24 261.228 Q2321.19 257.732 2319.27 255.649 Q2317.37 253.566 2314.22 253.566 Q2310.66 253.566 2308.5 255.58 Q2306.37 257.594 2306.05 261.251 L2321.24 261.228 Z" fill="#000000" fill-rule="evenodd" fill-opacity="1" /><path clip-path="url(#clip990)" d="M2360.68 240.487 L2360.68 244.029 L2356.61 244.029 Q2354.31 244.029 2353.41 244.955 Q2352.53 245.881 2352.53 248.288 L2352.53 250.58 L2359.55 250.58 L2359.55 253.89 L2352.53 253.89 L2352.53 276.506 L2348.25 276.506 L2348.25 253.89 L2344.18 253.89 L2344.18 250.58 L2348.25 250.58 L2348.25 248.774 Q2348.25 244.445 2350.26 242.478 Q2352.28 240.487 2356.65 240.487 L2360.68 240.487 Z" fill="#000000" fill-rule="evenodd" fill-opacity="1" /><path clip-path="url(#clip990)" d="M2374.29 253.566 Q2370.87 253.566 2368.87 256.251 Q2366.88 258.913 2366.88 263.566 Q2366.88 268.219 2368.85 270.904 Q2370.84 273.566 2374.29 273.566 Q2377.69 273.566 2379.68 270.881 Q2381.68 268.195 2381.68 263.566 Q2381.68 258.959 2379.68 256.274 Q2377.69 253.566 2374.29 253.566 M2374.29 249.955 Q2379.85 249.955 2383.02 253.566 Q2386.19 257.177 2386.19 263.566 Q2386.19 269.931 2383.02 273.566 Q2379.85 277.177 2374.29 277.177 Q2368.71 277.177 2365.54 273.566 Q2362.39 269.931 2362.39 263.566 Q2362.39 257.177 2365.54 253.566 Q2368.71 249.955 2374.29 249.955 Z" fill="#000000" fill-rule="evenodd" fill-opacity="1" /><path clip-path="url(#clip990)" d="M2408.27 254.561 Q2407.55 254.145 2406.7 253.959 Q2405.86 253.751 2404.85 253.751 Q2401.24 253.751 2399.29 256.112 Q2397.37 258.45 2397.37 262.848 L2397.37 276.506 L2393.09 276.506 L2393.09 250.58 L2397.37 250.58 L2397.37 254.607 Q2398.71 252.246 2400.86 251.112 Q2403.02 249.955 2406.1 249.955 Q2406.54 249.955 2407.07 250.024 Q2407.6 250.07 2408.25 250.186 L2408.27 254.561 Z" fill="#000000" fill-rule="evenodd" fill-opacity="1" /><path clip-path="url(#clip990)" d="M2140.46 295.059 L2140.46 302.42 L2149.23 302.42 L2149.23 305.73 L2140.46 305.73 L2140.46 319.804 Q2140.46 322.975 2141.32 323.878 Q2142.2 324.781 2144.86 324.781 L2149.23 324.781 L2149.23 328.346 L2144.86 328.346 Q2139.93 328.346 2138.05 326.517 Q2136.18 324.665 2136.18 319.804 L2136.18 305.73 L2133.05 305.73 L2133.05 302.42 L2136.18 302.42 L2136.18 295.059 L2140.46 295.059 Z" fill="#000000" fill-rule="evenodd" fill-opacity="1" /><path clip-path="url(#clip990)" d="M2166.62 315.313 Q2161.46 315.313 2159.47 316.494 Q2157.48 317.674 2157.48 320.521 Q2157.48 322.79 2158.96 324.133 Q2160.46 325.452 2163.03 325.452 Q2166.57 325.452 2168.7 322.952 Q2170.85 320.429 2170.85 316.262 L2170.85 315.313 L2166.62 315.313 M2175.11 313.554 L2175.11 328.346 L2170.85 328.346 L2170.85 324.41 Q2169.4 326.771 2167.22 327.906 Q2165.04 329.017 2161.9 329.017 Q2157.91 329.017 2155.55 326.795 Q2153.22 324.549 2153.22 320.799 Q2153.22 316.424 2156.13 314.202 Q2159.07 311.98 2164.88 311.98 L2170.85 311.98 L2170.85 311.563 Q2170.85 308.623 2168.91 307.026 Q2166.99 305.406 2163.49 305.406 Q2161.27 305.406 2159.16 305.938 Q2157.06 306.471 2155.11 307.535 L2155.11 303.6 Q2157.45 302.697 2159.65 302.258 Q2161.85 301.795 2163.93 301.795 Q2169.56 301.795 2172.34 304.711 Q2175.11 307.628 2175.11 313.554 Z" fill="#000000" fill-rule="evenodd" fill-opacity="1" /><path clip-path="url(#clip990)" d="M2198.91 306.401 Q2198.19 305.985 2197.34 305.799 Q2196.5 305.591 2195.48 305.591 Q2191.87 305.591 2189.93 307.952 Q2188.01 310.29 2188.01 314.688 L2188.01 328.346 L2183.72 328.346 L2183.72 302.42 L2188.01 302.42 L2188.01 306.447 Q2189.35 304.086 2191.5 302.952 Q2193.66 301.795 2196.73 301.795 Q2197.17 301.795 2197.71 301.864 Q2198.24 301.91 2198.89 302.026 L2198.91 306.401 Z" fill="#000000" fill-rule="evenodd" fill-opacity="1" /><path clip-path="url(#clip990)" d="M2219.6 315.082 Q2219.6 310.452 2217.68 307.906 Q2215.78 305.36 2212.34 305.36 Q2208.91 305.36 2206.99 307.906 Q2205.09 310.452 2205.09 315.082 Q2205.09 319.688 2206.99 322.234 Q2208.91 324.781 2212.34 324.781 Q2215.78 324.781 2217.68 322.234 Q2219.6 319.688 2219.6 315.082 M2223.86 325.128 Q2223.86 331.748 2220.92 334.966 Q2217.98 338.207 2211.92 338.207 Q2209.67 338.207 2207.68 337.859 Q2205.69 337.535 2203.82 336.841 L2203.82 332.697 Q2205.69 333.716 2207.52 334.202 Q2209.35 334.688 2211.25 334.688 Q2215.44 334.688 2217.52 332.489 Q2219.6 330.313 2219.6 325.892 L2219.6 323.785 Q2218.28 326.077 2216.22 327.211 Q2214.16 328.346 2211.29 328.346 Q2206.53 328.346 2203.61 324.711 Q2200.69 321.077 2200.69 315.082 Q2200.69 309.063 2203.61 305.429 Q2206.53 301.795 2211.29 301.795 Q2214.16 301.795 2216.22 302.929 Q2218.28 304.063 2219.6 306.355 L2219.6 302.42 L2223.86 302.42 L2223.86 325.128 Z" fill="#000000" fill-rule="evenodd" fill-opacity="1" /><path clip-path="url(#clip990)" d="M2254.81 314.318 L2254.81 316.401 L2235.23 316.401 Q2235.51 320.799 2237.87 323.114 Q2240.25 325.406 2244.49 325.406 Q2246.94 325.406 2249.23 324.804 Q2251.55 324.202 2253.82 322.998 L2253.82 327.026 Q2251.53 327.998 2249.12 328.508 Q2246.71 329.017 2244.23 329.017 Q2238.03 329.017 2234.4 325.406 Q2230.78 321.795 2230.78 315.637 Q2230.78 309.272 2234.21 305.545 Q2237.66 301.795 2243.49 301.795 Q2248.72 301.795 2251.76 305.174 Q2254.81 308.531 2254.81 314.318 M2250.55 313.068 Q2250.51 309.572 2248.59 307.489 Q2246.69 305.406 2243.54 305.406 Q2239.97 305.406 2237.82 307.42 Q2235.69 309.434 2235.37 313.091 L2250.55 313.068 Z" fill="#000000" fill-rule="evenodd" fill-opacity="1" /><path clip-path="url(#clip990)" d="M2266.02 295.059 L2266.02 302.42 L2274.79 302.42 L2274.79 305.73 L2266.02 305.73 L2266.02 319.804 Q2266.02 322.975 2266.87 323.878 Q2267.75 324.781 2270.41 324.781 L2274.79 324.781 L2274.79 328.346 L2270.41 328.346 Q2265.48 328.346 2263.61 326.517 Q2261.73 324.665 2261.73 319.804 L2261.73 305.73 L2258.61 305.73 L2258.61 302.42 L2261.73 302.42 L2261.73 295.059 L2266.02 295.059 Z" fill="#000000" fill-rule="evenodd" fill-opacity="1" /><path clip-path="url(#clip990)" d="M2308.59 292.327 L2308.59 295.869 L2304.51 295.869 Q2302.22 295.869 2301.32 296.795 Q2300.44 297.721 2300.44 300.128 L2300.44 302.42 L2307.45 302.42 L2307.45 305.73 L2300.44 305.73 L2300.44 328.346 L2296.15 328.346 L2296.15 305.73 L2292.08 305.73 L2292.08 302.42 L2296.15 302.42 L2296.15 300.614 Q2296.15 296.285 2298.17 294.318 Q2300.18 292.327 2304.56 292.327 L2308.59 292.327 Z" fill="#000000" fill-rule="evenodd" fill-opacity="1" /><path clip-path="url(#clip990)" d="M2312.15 302.42 L2316.41 302.42 L2316.41 328.346 L2312.15 328.346 L2312.15 302.42 M2312.15 292.327 L2316.41 292.327 L2316.41 297.721 L2312.15 297.721 L2312.15 292.327 Z" fill="#000000" fill-rule="evenodd" fill-opacity="1" /><path clip-path="url(#clip990)" d="M2340.34 306.401 Q2339.63 305.985 2338.77 305.799 Q2337.94 305.591 2336.92 305.591 Q2333.31 305.591 2331.36 307.952 Q2329.44 310.29 2329.44 314.688 L2329.44 328.346 L2325.16 328.346 L2325.16 302.42 L2329.44 302.42 L2329.44 306.447 Q2330.78 304.086 2332.94 302.952 Q2335.09 301.795 2338.17 301.795 Q2338.61 301.795 2339.14 301.864 Q2339.67 301.91 2340.32 302.026 L2340.34 306.401 Z" fill="#000000" fill-rule="evenodd" fill-opacity="1" /><path clip-path="url(#clip990)" d="M2361.34 303.184 L2361.34 307.211 Q2359.53 306.285 2357.59 305.822 Q2355.65 305.36 2353.56 305.36 Q2350.39 305.36 2348.79 306.332 Q2347.22 307.304 2347.22 309.248 Q2347.22 310.73 2348.35 311.586 Q2349.49 312.42 2352.91 313.184 L2354.37 313.508 Q2358.91 314.48 2360.81 316.262 Q2362.73 318.021 2362.73 321.193 Q2362.73 324.804 2359.86 326.91 Q2357.01 329.017 2352.01 329.017 Q2349.93 329.017 2347.66 328.6 Q2345.41 328.207 2342.91 327.396 L2342.91 322.998 Q2345.27 324.225 2347.57 324.85 Q2349.86 325.452 2352.1 325.452 Q2355.11 325.452 2356.73 324.433 Q2358.35 323.392 2358.35 321.517 Q2358.35 319.781 2357.17 318.855 Q2356.02 317.929 2352.06 317.072 L2350.58 316.725 Q2346.62 315.892 2344.86 314.179 Q2343.1 312.443 2343.1 309.434 Q2343.1 305.776 2345.69 303.785 Q2348.28 301.795 2353.05 301.795 Q2355.41 301.795 2357.5 302.142 Q2359.58 302.489 2361.34 303.184 Z" fill="#000000" fill-rule="evenodd" fill-opacity="1" /><path clip-path="url(#clip990)" d="M2373.72 295.059 L2373.72 302.42 L2382.5 302.42 L2382.5 305.73 L2373.72 305.73 L2373.72 319.804 Q2373.72 322.975 2374.58 323.878 Q2375.46 324.781 2378.12 324.781 L2382.5 324.781 L2382.5 328.346 L2378.12 328.346 Q2373.19 328.346 2371.32 326.517 Q2369.44 324.665 2369.44 319.804 L2369.44 305.73 L2366.32 305.73 L2366.32 302.42 L2369.44 302.42 L2369.44 295.059 L2373.72 295.059 Z" fill="#000000" fill-rule="evenodd" fill-opacity="1" /><path clip-path="url(#clip990)" d="
M1973.92 369.818 L2128.16 369.818 L2128.16 321.434 L1973.92 321.434 L1973.92 369.818  Z
  " fill="#006d60" fill-rule="evenodd" fill-opacity="1"/>
<polyline clip-path="url(#clip990)" style="stroke:#000000; stroke-linecap:butt; stroke-linejoin:round; stroke-width:4; stroke-opacity:1; fill:none" points="
  1973.92,321.434 2128.16,321.434 
  "/>
<path clip-path="url(#clip990)" d="M2169.47 332.42 L2157.66 350.869 L2169.47 350.869 L2169.47 332.42 M2168.24 328.346 L2174.12 328.346 L2174.12 350.869 L2179.05 350.869 L2179.05 354.757 L2174.12 354.757 L2174.12 362.906 L2169.47 362.906 L2169.47 354.757 L2153.87 354.757 L2153.87 350.244 L2168.24 328.346 Z" fill="#000000" fill-rule="evenodd" fill-opacity="1" /><path clip-path="url(#clip990)" d="
M1973.92 430.298 L2128.16 430.298 L2128.16 381.914 L1973.92 381.914 L1973.92 430.298  Z
  " fill="#008569" fill-rule="evenodd" fill-opacity="1"/>
<polyline clip-path="url(#clip990)" style="stroke:#000000; stroke-linecap:butt; stroke-linejoin:round; stroke-width:4; stroke-opacity:1; fill:none" points="
  1973.92,381.914 2128.16,381.914 
  "/>
<path clip-path="url(#clip990)" d="M2169.49 404.751 Q2172.85 405.469 2174.72 407.737 Q2176.62 410.006 2176.62 413.339 Q2176.62 418.455 2173.1 421.256 Q2169.58 424.057 2163.1 424.057 Q2160.93 424.057 2158.61 423.617 Q2156.32 423.2 2153.87 422.344 L2153.87 417.83 Q2155.81 418.964 2158.13 419.543 Q2160.44 420.122 2162.96 420.122 Q2167.36 420.122 2169.65 418.386 Q2171.97 416.649 2171.97 413.339 Q2171.97 410.284 2169.82 408.571 Q2167.69 406.835 2163.87 406.835 L2159.84 406.835 L2159.84 402.992 L2164.05 402.992 Q2167.5 402.992 2169.33 401.626 Q2171.16 400.237 2171.16 397.645 Q2171.16 394.983 2169.26 393.571 Q2167.39 392.136 2163.87 392.136 Q2161.95 392.136 2159.75 392.552 Q2157.55 392.969 2154.91 393.849 L2154.91 389.682 Q2157.57 388.941 2159.89 388.571 Q2162.22 388.201 2164.28 388.201 Q2169.61 388.201 2172.71 390.631 Q2175.81 393.038 2175.81 397.159 Q2175.81 400.029 2174.17 402.02 Q2172.52 403.987 2169.49 404.751 Z" fill="#000000" fill-rule="evenodd" fill-opacity="1" /><path clip-path="url(#clip990)" d="
M1973.92 490.778 L2128.16 490.778 L2128.16 442.394 L1973.92 442.394 L1973.92 490.778  Z
  " fill="#009e73" fill-rule="evenodd" fill-opacity="1"/>
<polyline clip-path="url(#clip990)" style="stroke:#000000; stroke-linecap:butt; stroke-linejoin:round; stroke-width:4; stroke-opacity:1; fill:none" points="
  1973.92,442.394 2128.16,442.394 
  "/>
<path clip-path="url(#clip990)" d="M2159.49 479.93 L2175.81 479.93 L2175.81 483.866 L2153.87 483.866 L2153.87 479.93 Q2156.53 477.176 2161.11 472.546 Q2165.72 467.893 2166.9 466.551 Q2169.14 464.028 2170.02 462.292 Q2170.93 460.532 2170.93 458.842 Q2170.93 456.088 2168.98 454.352 Q2167.06 452.616 2163.96 452.616 Q2161.76 452.616 2159.31 453.38 Q2156.88 454.143 2154.1 455.694 L2154.1 450.972 Q2156.92 449.838 2159.38 449.259 Q2161.83 448.681 2163.87 448.681 Q2169.24 448.681 2172.43 451.366 Q2175.63 454.051 2175.63 458.542 Q2175.63 460.671 2174.82 462.592 Q2174.03 464.491 2171.92 467.083 Q2171.34 467.754 2168.24 470.972 Q2165.14 474.166 2159.49 479.93 Z" fill="#000000" fill-rule="evenodd" fill-opacity="1" /><path clip-path="url(#clip990)" d="
M1973.92 551.258 L2128.16 551.258 L2128.16 502.874 L1973.92 502.874 L1973.92 551.258  Z
  " fill="#77c6b0" fill-rule="evenodd" fill-opacity="1"/>
<polyline clip-path="url(#clip990)" style="stroke:#000000; stroke-linecap:butt; stroke-linejoin:round; stroke-width:4; stroke-opacity:1; fill:none" points="
  1973.92,502.874 2128.16,502.874 
  "/>
<path clip-path="url(#clip990)" d="M2154.54 540.41 L2162.18 540.41 L2162.18 514.045 L2153.87 515.711 L2153.87 511.452 L2162.13 509.786 L2166.81 509.786 L2166.81 540.41 L2174.45 540.41 L2174.45 544.346 L2154.54 544.346 L2154.54 540.41 Z" fill="#000000" fill-rule="evenodd" fill-opacity="1" /><path clip-path="url(#clip990)" d="
M1973.92 611.738 L2128.16 611.738 L2128.16 563.354 L1973.92 563.354 L1973.92 611.738  Z
  " fill="#eeeeee" fill-rule="evenodd" fill-opacity="1"/>
<polyline clip-path="url(#clip990)" style="stroke:#000000; stroke-linecap:butt; stroke-linejoin:round; stroke-width:4; stroke-opacity:1; fill:none" points="
  1973.92,563.354 2128.16,563.354 
  "/>
<path clip-path="url(#clip990)" d="M2165.81 573.344 Q2162.2 573.344 2160.37 576.909 Q2158.57 580.451 2158.57 587.58 Q2158.57 594.687 2160.37 598.251 Q2162.2 601.793 2165.81 601.793 Q2169.45 601.793 2171.25 598.251 Q2173.08 594.687 2173.08 587.58 Q2173.08 580.451 2171.25 576.909 Q2169.45 573.344 2165.81 573.344 M2165.81 569.641 Q2171.62 569.641 2174.68 574.247 Q2177.76 578.83 2177.76 587.58 Q2177.76 596.307 2174.68 600.913 Q2171.62 605.497 2165.81 605.497 Q2160 605.497 2156.92 600.913 Q2153.87 596.307 2153.87 587.58 Q2153.87 578.83 2156.92 574.247 Q2160 569.641 2165.81 569.641 Z" fill="#000000" fill-rule="evenodd" fill-opacity="1" /><path clip-path="url(#clip990)" d="
M1973.92 672.218 L2128.16 672.218 L2128.16 623.834 L1973.92 623.834 L1973.92 672.218  Z
  " fill="#ddb3ca" fill-rule="evenodd" fill-opacity="1"/>
<polyline clip-path="url(#clip990)" style="stroke:#000000; stroke-linecap:butt; stroke-linejoin:round; stroke-width:4; stroke-opacity:1; fill:none" points="
  1973.92,623.834 2128.16,623.834 
  "/>
<path clip-path="url(#clip990)" d="M2153.87 650.421 L2166.34 650.421 L2166.34 654.218 L2153.87 654.218 L2153.87 650.421 Z" fill="#000000" fill-rule="evenodd" fill-opacity="1" /><path clip-path="url(#clip990)" d="M2174.54 661.37 L2182.18 661.37 L2182.18 635.005 L2173.87 636.671 L2173.87 632.412 L2182.13 630.746 L2186.81 630.746 L2186.81 661.37 L2194.45 661.37 L2194.45 665.306 L2174.54 665.306 L2174.54 661.37 Z" fill="#000000" fill-rule="evenodd" fill-opacity="1" /><path clip-path="url(#clip990)" d="
M1973.92 732.698 L2128.16 732.698 L2128.16 684.314 L1973.92 684.314 L1973.92 732.698  Z
  " fill="#cc79a7" fill-rule="evenodd" fill-opacity="1"/>
<polyline clip-path="url(#clip990)" style="stroke:#000000; stroke-linecap:butt; stroke-linejoin:round; stroke-width:4; stroke-opacity:1; fill:none" points="
  1973.92,684.314 2128.16,684.314 
  "/>
<path clip-path="url(#clip990)" d="M2153.87 710.901 L2166.34 710.901 L2166.34 714.698 L2153.87 714.698 L2153.87 710.901 Z" fill="#000000" fill-rule="evenodd" fill-opacity="1" /><path clip-path="url(#clip990)" d="M2177.76 721.85 L2194.07 721.85 L2194.07 725.786 L2172.13 725.786 L2172.13 721.85 Q2174.79 719.096 2179.38 714.466 Q2183.98 709.813 2185.16 708.471 Q2187.41 705.948 2188.29 704.212 Q2189.19 702.452 2189.19 700.762 Q2189.19 698.008 2187.25 696.272 Q2185.32 694.536 2182.22 694.536 Q2180.02 694.536 2177.57 695.3 Q2175.14 696.063 2172.36 697.614 L2172.36 692.892 Q2175.19 691.758 2177.64 691.179 Q2180.09 690.601 2182.13 690.601 Q2187.5 690.601 2190.7 693.286 Q2193.89 695.971 2193.89 700.462 Q2193.89 702.591 2193.08 704.512 Q2192.29 706.411 2190.19 709.003 Q2189.61 709.674 2186.51 712.892 Q2183.4 716.086 2177.76 721.85 Z" fill="#000000" fill-rule="evenodd" fill-opacity="1" /><path clip-path="url(#clip990)" d="
M1973.92 793.178 L2128.16 793.178 L2128.16 744.794 L1973.92 744.794 L1973.92 793.178  Z
  " fill="#b55585" fill-rule="evenodd" fill-opacity="1"/>
<polyline clip-path="url(#clip990)" style="stroke:#000000; stroke-linecap:butt; stroke-linejoin:round; stroke-width:4; stroke-opacity:1; fill:none" points="
  1973.92,744.794 2128.16,744.794 
  "/>
<path clip-path="url(#clip990)" d="M2153.87 771.381 L2166.34 771.381 L2166.34 775.178 L2153.87 775.178 L2153.87 771.381 Z" fill="#000000" fill-rule="evenodd" fill-opacity="1" /><path clip-path="url(#clip990)" d="M2187.89 767.631 Q2191.25 768.349 2193.13 770.617 Q2195.02 772.886 2195.02 776.219 Q2195.02 781.335 2191.51 784.136 Q2187.99 786.937 2181.51 786.937 Q2179.33 786.937 2177.01 786.497 Q2174.72 786.08 2172.27 785.224 L2172.27 780.71 Q2174.21 781.844 2176.53 782.423 Q2178.84 783.002 2181.37 783.002 Q2185.76 783.002 2188.06 781.266 Q2190.37 779.529 2190.37 776.219 Q2190.37 773.164 2188.22 771.451 Q2186.09 769.715 2182.27 769.715 L2178.24 769.715 L2178.24 765.872 L2182.45 765.872 Q2185.9 765.872 2187.73 764.506 Q2189.56 763.117 2189.56 760.525 Q2189.56 757.863 2187.66 756.451 Q2185.79 755.016 2182.27 755.016 Q2180.35 755.016 2178.15 755.432 Q2175.95 755.849 2173.31 756.729 L2173.31 752.562 Q2175.97 751.821 2178.29 751.451 Q2180.63 751.081 2182.69 751.081 Q2188.01 751.081 2191.11 753.511 Q2194.21 755.918 2194.21 760.039 Q2194.21 762.909 2192.57 764.9 Q2190.93 766.867 2187.89 767.631 Z" fill="#000000" fill-rule="evenodd" fill-opacity="1" /><path clip-path="url(#clip990)" d="
M1973.92 853.658 L2128.16 853.658 L2128.16 805.274 L1973.92 805.274 L1973.92 853.658  Z
  " fill="#9e3264" fill-rule="evenodd" fill-opacity="1"/>
<polyline clip-path="url(#clip990)" style="stroke:#000000; stroke-linecap:butt; stroke-linejoin:round; stroke-width:4; stroke-opacity:1; fill:none" points="
  1973.92,805.274 2128.16,805.274 
  "/>
<path clip-path="url(#clip990)" d="M2153.87 831.861 L2166.34 831.861 L2166.34 835.658 L2153.87 835.658 L2153.87 831.861 Z" fill="#000000" fill-rule="evenodd" fill-opacity="1" /><path clip-path="url(#clip990)" d="M2186.57 816.26 L2174.77 834.709 L2186.57 834.709 L2186.57 816.26 M2185.35 812.186 L2191.23 812.186 L2191.23 834.709 L2196.16 834.709 L2196.16 838.597 L2191.23 838.597 L2191.23 846.746 L2186.57 846.746 L2186.57 838.597 L2170.97 838.597 L2170.97 834.084 L2185.35 812.186 Z" fill="#000000" fill-rule="evenodd" fill-opacity="1" /></svg>
