<?xml version="1.0" encoding="utf-8"?>
<svg xmlns="http://www.w3.org/2000/svg" xmlns:xlink="http://www.w3.org/1999/xlink" width="400" height="320" viewBox="0 0 1600 1280">
<defs>
  <clipPath id="clip540">
    <rect x="0" y="0" width="1600" height="1280"/>
  </clipPath>
</defs>
<path clip-path="url(#clip540)" d="
M0 1280 L1600 1280 L1600 0 L0 0  Z
  " fill="#ffffff" fill-rule="evenodd" fill-opacity="1"/>
<defs>
  <clipPath id="clip541">
    <rect x="320" y="0" width="1121" height="1121"/>
  </clipPath>
</defs>
<path clip-path="url(#clip540)" d="
M251.046 1089.96 L1017.26 1089.96 L1017.26 47.2441 L251.046 47.2441  Z
  " fill="#ffffff" fill-rule="evenodd" fill-opacity="1"/>
<defs>
  <clipPath id="clip542">
    <rect x="251" y="47" width="767" height="1044"/>
  </clipPath>
</defs>
<polyline clip-path="url(#clip542)" style="stroke:#000000; stroke-linecap:butt; stroke-linejoin:round; stroke-width:2; stroke-opacity:0.1; fill:none" points="
  444.728,1089.96 444.728,47.2441 
  "/>
<polyline clip-path="url(#clip542)" style="stroke:#000000; stroke-linecap:butt; stroke-linejoin:round; stroke-width:2; stroke-opacity:0.1; fill:none" points="
  823.575,1089.96 823.575,47.2441 
  "/>
<polyline clip-path="url(#clip540)" style="stroke:#000000; stroke-linecap:butt; stroke-linejoin:round; stroke-width:4; stroke-opacity:1; fill:none" points="
  251.046,1089.96 1017.26,1089.96 
  "/>
<polyline clip-path="url(#clip540)" style="stroke:#000000; stroke-linecap:butt; stroke-linejoin:round; stroke-width:4; stroke-opacity:1; fill:none" points="
  444.728,1089.96 444.728,1077.45 
  "/>
<polyline clip-path="url(#clip540)" style="stroke:#000000; stroke-linecap:butt; stroke-linejoin:round; stroke-width:4; stroke-opacity:1; fill:none" points="
  823.575,1089.96 823.575,1077.45 
  "/>
<path clip-path="url(#clip540)" d="M358.906 1131.2 Q353.744 1131.2 351.754 1132.38 Q349.763 1133.56 349.763 1136.41 Q349.763 1138.68 351.244 1140.02 Q352.749 1141.34 355.318 1141.34 Q358.86 1141.34 360.99 1138.84 Q363.142 1136.32 363.142 1132.15 L363.142 1131.2 L358.906 1131.2 M367.402 1129.44 L367.402 1144.24 L363.142 1144.24 L363.142 1140.3 Q361.684 1142.66 359.508 1143.8 Q357.332 1144.91 354.184 1144.91 Q350.203 1144.91 347.842 1142.68 Q345.504 1140.44 345.504 1136.69 Q345.504 1132.31 348.42 1130.09 Q351.36 1127.87 357.17 1127.87 L363.142 1127.87 L363.142 1127.45 Q363.142 1124.51 361.198 1122.92 Q359.277 1121.3 355.781 1121.3 Q353.559 1121.3 351.453 1121.83 Q349.346 1122.36 347.402 1123.43 L347.402 1119.49 Q349.74 1118.59 351.939 1118.15 Q354.138 1117.69 356.221 1117.69 Q361.846 1117.69 364.624 1120.6 Q367.402 1123.52 367.402 1129.44 Z" fill="#000000" fill-rule="evenodd" fill-opacity="1" /><path clip-path="url(#clip540)" d="M394.786 1131.3 Q394.786 1126.6 392.841 1123.94 Q390.92 1121.25 387.54 1121.25 Q384.161 1121.25 382.216 1123.94 Q380.295 1126.6 380.295 1131.3 Q380.295 1136 382.216 1138.68 Q384.161 1141.34 387.54 1141.34 Q390.92 1141.34 392.841 1138.68 Q394.786 1136 394.786 1131.3 M380.295 1122.25 Q381.638 1119.93 383.675 1118.82 Q385.735 1117.69 388.582 1117.69 Q393.304 1117.69 396.244 1121.44 Q399.207 1125.19 399.207 1131.3 Q399.207 1137.41 396.244 1141.16 Q393.304 1144.91 388.582 1144.91 Q385.735 1144.91 383.675 1143.8 Q381.638 1142.66 380.295 1140.35 L380.295 1144.24 L376.013 1144.24 L376.013 1108.22 L380.295 1108.22 L380.295 1122.25 Z" fill="#000000" fill-rule="evenodd" fill-opacity="1" /><path clip-path="url(#clip540)" d="M422.795 1119.07 L422.795 1123.1 Q420.989 1122.18 419.045 1121.71 Q417.101 1121.25 415.017 1121.25 Q411.846 1121.25 410.249 1122.22 Q408.675 1123.19 408.675 1125.14 Q408.675 1126.62 409.809 1127.48 Q410.943 1128.31 414.369 1129.07 L415.827 1129.4 Q420.364 1130.37 422.263 1132.15 Q424.184 1133.91 424.184 1137.08 Q424.184 1140.69 421.313 1142.8 Q418.466 1144.91 413.466 1144.91 Q411.383 1144.91 409.114 1144.49 Q406.869 1144.1 404.369 1143.29 L404.369 1138.89 Q406.73 1140.12 409.022 1140.74 Q411.314 1141.34 413.559 1141.34 Q416.568 1141.34 418.188 1140.32 Q419.809 1139.28 419.809 1137.41 Q419.809 1135.67 418.628 1134.75 Q417.471 1133.82 413.513 1132.96 L412.031 1132.62 Q408.073 1131.78 406.314 1130.07 Q404.554 1128.33 404.554 1125.32 Q404.554 1121.67 407.147 1119.68 Q409.739 1117.69 414.508 1117.69 Q416.869 1117.69 418.952 1118.03 Q421.036 1118.38 422.795 1119.07 Z" fill="#000000" fill-rule="evenodd" fill-opacity="1" /><path clip-path="url(#clip540)" d="M441.012 1121.3 Q437.587 1121.3 435.596 1123.98 Q433.605 1126.64 433.605 1131.3 Q433.605 1135.95 435.573 1138.63 Q437.563 1141.3 441.012 1141.3 Q444.415 1141.3 446.406 1138.61 Q448.397 1135.93 448.397 1131.3 Q448.397 1126.69 446.406 1124 Q444.415 1121.3 441.012 1121.3 M441.012 1117.69 Q446.568 1117.69 449.739 1121.3 Q452.911 1124.91 452.911 1131.3 Q452.911 1137.66 449.739 1141.3 Q446.568 1144.91 441.012 1144.91 Q435.434 1144.91 432.262 1141.3 Q429.114 1137.66 429.114 1131.3 Q429.114 1124.91 432.262 1121.3 Q435.434 1117.69 441.012 1117.69 Z" fill="#000000" fill-rule="evenodd" fill-opacity="1" /><path clip-path="url(#clip540)" d="M459.971 1108.22 L464.23 1108.22 L464.23 1144.24 L459.971 1144.24 L459.971 1108.22 Z" fill="#000000" fill-rule="evenodd" fill-opacity="1" /><path clip-path="url(#clip540)" d="M472.702 1134 L472.702 1118.31 L476.961 1118.31 L476.961 1133.84 Q476.961 1137.52 478.396 1139.37 Q479.832 1141.2 482.702 1141.2 Q486.151 1141.2 488.142 1139 Q490.156 1136.81 490.156 1133.01 L490.156 1118.31 L494.415 1118.31 L494.415 1144.24 L490.156 1144.24 L490.156 1140.25 Q488.605 1142.62 486.545 1143.77 Q484.508 1144.91 481.799 1144.91 Q477.332 1144.91 475.017 1142.13 Q472.702 1139.35 472.702 1134 M483.42 1117.69 L483.42 1117.69 Z" fill="#000000" fill-rule="evenodd" fill-opacity="1" /><path clip-path="url(#clip540)" d="M507.401 1110.95 L507.401 1118.31 L516.174 1118.31 L516.174 1121.62 L507.401 1121.62 L507.401 1135.69 Q507.401 1138.87 508.257 1139.77 Q509.137 1140.67 511.799 1140.67 L516.174 1140.67 L516.174 1144.24 L511.799 1144.24 Q506.869 1144.24 504.994 1142.41 Q503.119 1140.56 503.119 1135.69 L503.119 1121.62 L499.994 1121.62 L499.994 1118.31 L503.119 1118.31 L503.119 1110.95 L507.401 1110.95 Z" fill="#000000" fill-rule="evenodd" fill-opacity="1" /><path clip-path="url(#clip540)" d="M543.952 1130.21 L543.952 1132.29 L524.368 1132.29 Q524.646 1136.69 527.007 1139 Q529.392 1141.3 533.628 1141.3 Q536.081 1141.3 538.373 1140.69 Q540.688 1140.09 542.956 1138.89 L542.956 1142.92 Q540.665 1143.89 538.257 1144.4 Q535.85 1144.91 533.373 1144.91 Q527.169 1144.91 523.535 1141.3 Q519.924 1137.68 519.924 1131.53 Q519.924 1125.16 523.35 1121.44 Q526.799 1117.69 532.632 1117.69 Q537.864 1117.69 540.896 1121.06 Q543.952 1124.42 543.952 1130.21 M539.692 1128.96 Q539.646 1125.46 537.725 1123.38 Q535.827 1121.3 532.679 1121.3 Q529.114 1121.3 526.961 1123.31 Q524.831 1125.32 524.507 1128.98 L539.692 1128.96 Z" fill="#000000" fill-rule="evenodd" fill-opacity="1" /><path clip-path="url(#clip540)" d="M772.522 1119.07 L772.522 1123.1 Q770.716 1122.18 768.772 1121.71 Q766.827 1121.25 764.744 1121.25 Q761.573 1121.25 759.975 1122.22 Q758.401 1123.19 758.401 1125.14 Q758.401 1126.62 759.535 1127.48 Q760.67 1128.31 764.096 1129.07 L765.554 1129.4 Q770.091 1130.37 771.989 1132.15 Q773.91 1133.91 773.91 1137.08 Q773.91 1140.69 771.04 1142.8 Q768.193 1144.91 763.193 1144.91 Q761.11 1144.91 758.841 1144.49 Q756.596 1144.1 754.096 1143.29 L754.096 1138.89 Q756.457 1140.12 758.748 1140.74 Q761.04 1141.34 763.285 1141.34 Q766.295 1141.34 767.915 1140.32 Q769.535 1139.28 769.535 1137.41 Q769.535 1135.67 768.355 1134.75 Q767.197 1133.82 763.239 1132.96 L761.758 1132.62 Q757.799 1131.78 756.04 1130.07 Q754.281 1128.33 754.281 1125.32 Q754.281 1121.67 756.873 1119.68 Q759.466 1117.69 764.235 1117.69 Q766.596 1117.69 768.679 1118.03 Q770.762 1118.38 772.522 1119.07 Z" fill="#000000" fill-rule="evenodd" fill-opacity="1" /><path clip-path="url(#clip540)" d="M799.35 1119.31 L799.35 1123.29 Q797.545 1122.29 795.716 1121.81 Q793.91 1121.3 792.058 1121.3 Q787.915 1121.3 785.623 1123.94 Q783.332 1126.55 783.332 1131.3 Q783.332 1136.04 785.623 1138.68 Q787.915 1141.3 792.058 1141.3 Q793.91 1141.3 795.716 1140.81 Q797.545 1140.3 799.35 1139.31 L799.35 1143.24 Q797.568 1144.07 795.646 1144.49 Q793.748 1144.91 791.596 1144.91 Q785.739 1144.91 782.29 1141.23 Q778.841 1137.55 778.841 1131.3 Q778.841 1124.95 782.313 1121.32 Q785.809 1117.69 791.873 1117.69 Q793.841 1117.69 795.716 1118.1 Q797.591 1118.5 799.35 1119.31 Z" fill="#000000" fill-rule="evenodd" fill-opacity="1" /><path clip-path="url(#clip540)" d="M818.54 1131.2 Q813.378 1131.2 811.387 1132.38 Q809.396 1133.56 809.396 1136.41 Q809.396 1138.68 810.878 1140.02 Q812.382 1141.34 814.952 1141.34 Q818.494 1141.34 820.623 1138.84 Q822.776 1136.32 822.776 1132.15 L822.776 1131.2 L818.54 1131.2 M827.035 1129.44 L827.035 1144.24 L822.776 1144.24 L822.776 1140.3 Q821.318 1142.66 819.142 1143.8 Q816.966 1144.91 813.818 1144.91 Q809.836 1144.91 807.475 1142.68 Q805.137 1140.44 805.137 1136.69 Q805.137 1132.31 808.054 1130.09 Q810.994 1127.87 816.804 1127.87 L822.776 1127.87 L822.776 1127.45 Q822.776 1124.51 820.831 1122.92 Q818.91 1121.3 815.415 1121.3 Q813.193 1121.3 811.086 1121.83 Q808.98 1122.36 807.035 1123.43 L807.035 1119.49 Q809.373 1118.59 811.572 1118.15 Q813.771 1117.69 815.855 1117.69 Q821.48 1117.69 824.257 1120.6 Q827.035 1123.52 827.035 1129.44 Z" fill="#000000" fill-rule="evenodd" fill-opacity="1" /><path clip-path="url(#clip540)" d="M835.808 1108.22 L840.067 1108.22 L840.067 1144.24 L835.808 1144.24 L835.808 1108.22 Z" fill="#000000" fill-rule="evenodd" fill-opacity="1" /><path clip-path="url(#clip540)" d="M860.762 1131.2 Q855.6 1131.2 853.609 1132.38 Q851.618 1133.56 851.618 1136.41 Q851.618 1138.68 853.1 1140.02 Q854.604 1141.34 857.174 1141.34 Q860.716 1141.34 862.845 1138.84 Q864.998 1136.32 864.998 1132.15 L864.998 1131.2 L860.762 1131.2 M869.257 1129.44 L869.257 1144.24 L864.998 1144.24 L864.998 1140.3 Q863.54 1142.66 861.364 1143.8 Q859.188 1144.91 856.04 1144.91 Q852.058 1144.91 849.697 1142.68 Q847.359 1140.44 847.359 1136.69 Q847.359 1132.31 850.276 1130.09 Q853.216 1127.87 859.026 1127.87 L864.998 1127.87 L864.998 1127.45 Q864.998 1124.51 863.053 1122.92 Q861.132 1121.3 857.637 1121.3 Q855.415 1121.3 853.308 1121.83 Q851.202 1122.36 849.257 1123.43 L849.257 1119.49 Q851.595 1118.59 853.794 1118.15 Q855.993 1117.69 858.077 1117.69 Q863.702 1117.69 866.479 1120.6 Q869.257 1123.52 869.257 1129.44 Z" fill="#000000" fill-rule="evenodd" fill-opacity="1" /><path clip-path="url(#clip540)" d="M893.053 1122.29 Q892.336 1121.87 891.479 1121.69 Q890.646 1121.48 889.627 1121.48 Q886.016 1121.48 884.072 1123.84 Q882.151 1126.18 882.151 1130.58 L882.151 1144.24 L877.868 1144.24 L877.868 1118.31 L882.151 1118.31 L882.151 1122.34 Q883.493 1119.98 885.646 1118.84 Q887.799 1117.69 890.877 1117.69 Q891.317 1117.69 891.85 1117.75 Q892.382 1117.8 893.03 1117.92 L893.053 1122.29 Z" fill="#000000" fill-rule="evenodd" fill-opacity="1" /><path clip-path="url(#clip540)" d="M251.699 1188.23 L251.699 1193.77 Q249.217 1192.5 246.543 1191.86 Q243.87 1191.22 241.005 1191.22 Q236.645 1191.22 234.448 1192.56 Q232.284 1193.9 232.284 1196.57 Q232.284 1198.61 233.844 1199.78 Q235.403 1200.93 240.114 1201.98 L242.119 1202.43 Q248.357 1203.76 250.967 1206.21 Q253.609 1208.63 253.609 1212.99 Q253.609 1217.96 249.662 1220.85 Q245.748 1223.75 238.873 1223.75 Q236.008 1223.75 232.889 1223.18 Q229.801 1222.64 226.364 1221.52 L226.364 1215.48 Q229.61 1217.16 232.761 1218.02 Q235.912 1218.85 239 1218.85 Q243.138 1218.85 245.366 1217.45 Q247.594 1216.02 247.594 1213.44 Q247.594 1211.05 245.97 1209.78 Q244.379 1208.51 238.936 1207.33 L236.899 1206.85 Q231.456 1205.7 229.038 1203.35 Q226.619 1200.96 226.619 1196.82 Q226.619 1191.8 230.183 1189.06 Q233.748 1186.32 240.305 1186.32 Q243.551 1186.32 246.416 1186.8 Q249.28 1187.28 251.699 1188.23 Z" fill="#000000" fill-rule="evenodd" fill-opacity="1" /><path clip-path="url(#clip540)" d="M293.427 1203.54 L293.427 1206.4 L266.5 1206.4 Q266.882 1212.45 270.128 1215.63 Q273.406 1218.79 279.231 1218.79 Q282.605 1218.79 285.756 1217.96 Q288.939 1217.13 292.058 1215.48 L292.058 1221.01 Q288.907 1222.35 285.597 1223.05 Q282.287 1223.75 278.881 1223.75 Q270.351 1223.75 265.354 1218.79 Q260.389 1213.82 260.389 1205.35 Q260.389 1196.6 265.099 1191.48 Q269.842 1186.32 277.862 1186.32 Q285.056 1186.32 289.225 1190.97 Q293.427 1195.58 293.427 1203.54 M287.57 1201.82 Q287.507 1197.01 284.865 1194.15 Q282.255 1191.29 277.926 1191.29 Q273.025 1191.29 270.065 1194.05 Q267.136 1196.82 266.691 1201.85 L287.57 1201.82 Z" fill="#000000" fill-rule="evenodd" fill-opacity="1" /><path clip-path="url(#clip540)" d="M328.693 1188.55 L328.693 1194.02 Q326.21 1192.65 323.696 1191.99 Q321.213 1191.29 318.667 1191.29 Q312.969 1191.29 309.818 1194.91 Q306.667 1198.51 306.667 1205.04 Q306.667 1211.56 309.818 1215.19 Q312.969 1218.79 318.667 1218.79 Q321.213 1218.79 323.696 1218.12 Q326.21 1217.42 328.693 1216.05 L328.693 1221.46 Q326.242 1222.61 323.6 1223.18 Q320.99 1223.75 318.03 1223.75 Q309.977 1223.75 305.235 1218.69 Q300.493 1213.63 300.493 1205.04 Q300.493 1196.31 305.267 1191.32 Q310.073 1186.32 318.412 1186.32 Q321.117 1186.32 323.696 1186.89 Q326.274 1187.43 328.693 1188.55 Z" fill="#000000" fill-rule="evenodd" fill-opacity="1" /><path clip-path="url(#clip540)" d="M352.691 1191.29 Q347.981 1191.29 345.243 1194.98 Q342.506 1198.64 342.506 1205.04 Q342.506 1211.43 345.212 1215.13 Q347.949 1218.79 352.691 1218.79 Q357.37 1218.79 360.107 1215.09 Q362.845 1211.4 362.845 1205.04 Q362.845 1198.7 360.107 1195.01 Q357.37 1191.29 352.691 1191.29 M352.691 1186.32 Q360.33 1186.32 364.691 1191.29 Q369.051 1196.25 369.051 1205.04 Q369.051 1213.79 364.691 1218.79 Q360.33 1223.75 352.691 1223.75 Q345.021 1223.75 340.66 1218.79 Q336.332 1213.79 336.332 1205.04 Q336.332 1196.25 340.66 1191.29 Q345.021 1186.32 352.691 1186.32 Z" fill="#000000" fill-rule="evenodd" fill-opacity="1" /><path clip-path="url(#clip540)" d="M408.391 1201.31 L408.391 1222.83 L402.535 1222.83 L402.535 1201.5 Q402.535 1196.44 400.561 1193.93 Q398.588 1191.41 394.641 1191.41 Q389.899 1191.41 387.162 1194.44 Q384.424 1197.46 384.424 1202.68 L384.424 1222.83 L378.536 1222.83 L378.536 1187.18 L384.424 1187.18 L384.424 1192.72 Q386.525 1189.5 389.358 1187.91 Q392.222 1186.32 395.946 1186.32 Q402.089 1186.32 405.24 1190.14 Q408.391 1193.93 408.391 1201.31 Z" fill="#000000" fill-rule="evenodd" fill-opacity="1" /><path clip-path="url(#clip540)" d="M443.53 1192.59 L443.53 1173.3 L449.386 1173.3 L449.386 1222.83 L443.53 1222.83 L443.53 1217.48 Q441.684 1220.66 438.851 1222.22 Q436.05 1223.75 432.104 1223.75 Q425.642 1223.75 421.568 1218.59 Q417.526 1213.44 417.526 1205.04 Q417.526 1196.63 421.568 1191.48 Q425.642 1186.32 432.104 1186.32 Q436.05 1186.32 438.851 1187.88 Q441.684 1189.41 443.53 1192.59 M423.574 1205.04 Q423.574 1211.5 426.215 1215.19 Q428.889 1218.85 433.536 1218.85 Q438.183 1218.85 440.856 1215.19 Q443.53 1211.5 443.53 1205.04 Q443.53 1198.57 440.856 1194.91 Q438.183 1191.22 433.536 1191.22 Q428.889 1191.22 426.215 1194.91 Q423.574 1198.57 423.574 1205.04 Z" fill="#000000" fill-rule="evenodd" fill-opacity="1" /><path clip-path="url(#clip540)" d="M477.65 1204.91 Q470.552 1204.91 467.815 1206.53 Q465.078 1208.15 465.078 1212.07 Q465.078 1215.19 467.115 1217.04 Q469.184 1218.85 472.717 1218.85 Q477.587 1218.85 480.515 1215.41 Q483.475 1211.94 483.475 1206.21 L483.475 1204.91 L477.65 1204.91 M489.331 1202.49 L489.331 1222.83 L483.475 1222.83 L483.475 1217.42 Q481.47 1220.66 478.478 1222.22 Q475.486 1223.75 471.157 1223.75 Q465.683 1223.75 462.436 1220.7 Q459.221 1217.61 459.221 1212.45 Q459.221 1206.44 463.232 1203.38 Q467.274 1200.33 475.263 1200.33 L483.475 1200.33 L483.475 1199.75 Q483.475 1195.71 480.801 1193.51 Q478.159 1191.29 473.353 1191.29 Q470.298 1191.29 467.401 1192.02 Q464.505 1192.75 461.831 1194.21 L461.831 1188.8 Q465.046 1187.56 468.07 1186.96 Q471.094 1186.32 473.958 1186.32 Q481.692 1186.32 485.512 1190.33 Q489.331 1194.34 489.331 1202.49 Z" fill="#000000" fill-rule="evenodd" fill-opacity="1" /><path clip-path="url(#clip540)" d="M522.051 1192.65 Q521.064 1192.08 519.887 1191.83 Q518.741 1191.54 517.34 1191.54 Q512.375 1191.54 509.702 1194.79 Q507.06 1198 507.06 1204.05 L507.06 1222.83 L501.171 1222.83 L501.171 1187.18 L507.06 1187.18 L507.06 1192.72 Q508.906 1189.47 511.866 1187.91 Q514.826 1186.32 519.059 1186.32 Q519.664 1186.32 520.396 1186.42 Q521.128 1186.48 522.019 1186.64 L522.051 1192.65 Z" fill="#000000" fill-rule="evenodd" fill-opacity="1" /><path clip-path="url(#clip540)" d="M543.026 1226.14 Q540.543 1232.5 538.188 1234.45 Q535.833 1236.39 531.886 1236.39 L527.207 1236.39 L527.207 1231.49 L530.645 1231.49 Q533.064 1231.49 534.4 1230.34 Q535.737 1229.19 537.361 1224.93 L538.411 1222.25 L523.993 1187.18 L530.199 1187.18 L541.339 1215.06 L552.479 1187.18 L558.686 1187.18 L543.026 1226.14 Z" fill="#000000" fill-rule="evenodd" fill-opacity="1" /><path clip-path="url(#clip540)" d="M603.691 1204.91 Q596.593 1204.91 593.856 1206.53 Q591.119 1208.15 591.119 1212.07 Q591.119 1215.19 593.156 1217.04 Q595.225 1218.85 598.758 1218.85 Q603.628 1218.85 606.556 1215.41 Q609.516 1211.94 609.516 1206.21 L609.516 1204.91 L603.691 1204.91 M615.372 1202.49 L615.372 1222.83 L609.516 1222.83 L609.516 1217.42 Q607.511 1220.66 604.519 1222.22 Q601.527 1223.75 597.198 1223.75 Q591.724 1223.75 588.477 1220.7 Q585.262 1217.61 585.262 1212.45 Q585.262 1206.44 589.273 1203.38 Q593.315 1200.33 601.304 1200.33 L609.516 1200.33 L609.516 1199.75 Q609.516 1195.71 606.842 1193.51 Q604.2 1191.29 599.394 1191.29 Q596.339 1191.29 593.442 1192.02 Q590.546 1192.75 587.872 1194.21 L587.872 1188.8 Q591.087 1187.56 594.111 1186.96 Q597.135 1186.32 599.999 1186.32 Q607.733 1186.32 611.553 1190.33 Q615.372 1194.34 615.372 1202.49 Z" fill="#000000" fill-rule="evenodd" fill-opacity="1" /><path clip-path="url(#clip540)" d="M650.893 1192.59 L650.893 1173.3 L656.749 1173.3 L656.749 1222.83 L650.893 1222.83 L650.893 1217.48 Q649.047 1220.66 646.214 1222.22 Q643.413 1223.75 639.466 1223.75 Q633.005 1223.75 628.931 1218.59 Q624.889 1213.44 624.889 1205.04 Q624.889 1196.63 628.931 1191.48 Q633.005 1186.32 639.466 1186.32 Q643.413 1186.32 646.214 1187.88 Q649.047 1189.41 650.893 1192.59 M630.936 1205.04 Q630.936 1211.5 633.578 1215.19 Q636.252 1218.85 640.899 1218.85 Q645.546 1218.85 648.219 1215.19 Q650.893 1211.5 650.893 1205.04 Q650.893 1198.57 648.219 1194.91 Q645.546 1191.22 640.899 1191.22 Q636.252 1191.22 633.578 1194.91 Q630.936 1198.57 630.936 1205.04 Z" fill="#000000" fill-rule="evenodd" fill-opacity="1" /><path clip-path="url(#clip540)" d="M668.812 1187.18 L674.669 1187.18 L674.669 1223.46 Q674.669 1230.28 672.059 1233.33 Q669.481 1236.39 663.72 1236.39 L661.492 1236.39 L661.492 1231.42 L663.051 1231.42 Q666.393 1231.42 667.603 1229.86 Q668.812 1228.33 668.812 1223.46 L668.812 1187.18 M668.812 1173.3 L674.669 1173.3 L674.669 1180.72 L668.812 1180.72 L668.812 1173.3 Z" fill="#000000" fill-rule="evenodd" fill-opacity="1" /><path clip-path="url(#clip540)" d="M717.415 1203.54 L717.415 1206.4 L690.488 1206.4 Q690.87 1212.45 694.116 1215.63 Q697.394 1218.79 703.219 1218.79 Q706.593 1218.79 709.744 1217.96 Q712.927 1217.13 716.046 1215.48 L716.046 1221.01 Q712.895 1222.35 709.585 1223.05 Q706.275 1223.75 702.869 1223.75 Q694.339 1223.75 689.342 1218.79 Q684.377 1213.82 684.377 1205.35 Q684.377 1196.6 689.087 1191.48 Q693.83 1186.32 701.85 1186.32 Q709.044 1186.32 713.213 1190.97 Q717.415 1195.58 717.415 1203.54 M711.558 1201.82 Q711.494 1197.01 708.853 1194.15 Q706.243 1191.29 701.914 1191.29 Q697.012 1191.29 694.052 1194.05 Q691.124 1196.82 690.679 1201.85 L711.558 1201.82 Z" fill="#000000" fill-rule="evenodd" fill-opacity="1" /><path clip-path="url(#clip540)" d="M752.681 1188.55 L752.681 1194.02 Q750.198 1192.65 747.683 1191.99 Q745.201 1191.29 742.655 1191.29 Q736.957 1191.29 733.806 1194.91 Q730.655 1198.51 730.655 1205.04 Q730.655 1211.56 733.806 1215.19 Q736.957 1218.79 742.655 1218.79 Q745.201 1218.79 747.683 1218.12 Q750.198 1217.42 752.681 1216.05 L752.681 1221.46 Q750.23 1222.61 747.588 1223.18 Q744.978 1223.75 742.018 1223.75 Q733.965 1223.75 729.223 1218.69 Q724.48 1213.63 724.48 1205.04 Q724.48 1196.31 729.255 1191.32 Q734.061 1186.32 742.4 1186.32 Q745.105 1186.32 747.683 1186.89 Q750.262 1187.43 752.681 1188.55 Z" fill="#000000" fill-rule="evenodd" fill-opacity="1" /><path clip-path="url(#clip540)" d="M768.658 1177.06 L768.658 1187.18 L780.721 1187.18 L780.721 1191.73 L768.658 1191.73 L768.658 1211.08 Q768.658 1215.44 769.836 1216.68 Q771.046 1217.93 774.706 1217.93 L780.721 1217.93 L780.721 1222.83 L774.706 1222.83 Q767.926 1222.83 765.348 1220.31 Q762.77 1217.77 762.77 1211.08 L762.77 1191.73 L758.473 1191.73 L758.473 1187.18 L762.77 1187.18 L762.77 1177.06 L768.658 1177.06 Z" fill="#000000" fill-rule="evenodd" fill-opacity="1" /><path clip-path="url(#clip540)" d="M788.424 1187.18 L794.28 1187.18 L794.28 1222.83 L788.424 1222.83 L788.424 1187.18 M788.424 1173.3 L794.28 1173.3 L794.28 1180.72 L788.424 1180.72 L788.424 1173.3 Z" fill="#000000" fill-rule="evenodd" fill-opacity="1" /><path clip-path="url(#clip540)" d="M802.333 1187.18 L808.54 1187.18 L819.68 1217.1 L830.82 1187.18 L837.026 1187.18 L823.658 1222.83 L815.701 1222.83 L802.333 1187.18 Z" fill="#000000" fill-rule="evenodd" fill-opacity="1" /><path clip-path="url(#clip540)" d="M875.602 1203.54 L875.602 1206.4 L848.675 1206.4 Q849.057 1212.45 852.304 1215.63 Q855.582 1218.79 861.407 1218.79 Q864.781 1218.79 867.932 1217.96 Q871.115 1217.13 874.234 1215.48 L874.234 1221.01 Q871.083 1222.35 867.773 1223.05 Q864.462 1223.75 861.057 1223.75 Q852.527 1223.75 847.53 1218.79 Q842.564 1213.82 842.564 1205.35 Q842.564 1196.6 847.275 1191.48 Q852.017 1186.32 860.038 1186.32 Q867.231 1186.32 871.401 1190.97 Q875.602 1195.58 875.602 1203.54 M869.746 1201.82 Q869.682 1197.01 867.04 1194.15 Q864.431 1191.29 860.102 1191.29 Q855.2 1191.29 852.24 1194.05 Q849.312 1196.82 848.866 1201.85 L869.746 1201.82 Z" fill="#000000" fill-rule="evenodd" fill-opacity="1" /><path clip-path="url(#clip540)" d="M911.728 1177.06 L911.728 1187.18 L923.791 1187.18 L923.791 1191.73 L911.728 1191.73 L911.728 1211.08 Q911.728 1215.44 912.905 1216.68 Q914.115 1217.93 917.775 1217.93 L923.791 1217.93 L923.791 1222.83 L917.775 1222.83 Q910.996 1222.83 908.418 1220.31 Q905.839 1217.77 905.839 1211.08 L905.839 1191.73 L901.543 1191.73 L901.543 1187.18 L905.839 1187.18 L905.839 1177.06 L911.728 1177.06 Z" fill="#000000" fill-rule="evenodd" fill-opacity="1" /><path clip-path="url(#clip540)" d="M946.325 1226.14 Q943.843 1232.5 941.487 1234.45 Q939.132 1236.39 935.185 1236.39 L930.507 1236.39 L930.507 1231.49 L933.944 1231.49 Q936.363 1231.49 937.7 1230.34 Q939.037 1229.19 940.66 1224.93 L941.71 1222.25 L927.292 1187.18 L933.498 1187.18 L944.638 1215.06 L955.778 1187.18 L961.985 1187.18 L946.325 1226.14 Z" fill="#000000" fill-rule="evenodd" fill-opacity="1" /><path clip-path="url(#clip540)" d="M975.735 1217.48 L975.735 1236.39 L969.847 1236.39 L969.847 1187.18 L975.735 1187.18 L975.735 1192.59 Q977.581 1189.41 980.382 1187.88 Q983.215 1186.32 987.13 1186.32 Q993.623 1186.32 997.665 1191.48 Q1001.74 1196.63 1001.74 1205.04 Q1001.74 1213.44 997.665 1218.59 Q993.623 1223.75 987.13 1223.75 Q983.215 1223.75 980.382 1222.22 Q977.581 1220.66 975.735 1217.48 M995.66 1205.04 Q995.66 1198.57 992.986 1194.91 Q990.344 1191.22 985.697 1191.22 Q981.05 1191.22 978.377 1194.91 Q975.735 1198.57 975.735 1205.04 Q975.735 1211.5 978.377 1215.19 Q981.05 1218.85 985.697 1218.85 Q990.344 1218.85 992.986 1215.19 Q995.66 1211.5 995.66 1205.04 Z" fill="#000000" fill-rule="evenodd" fill-opacity="1" /><path clip-path="url(#clip540)" d="M1041.94 1203.54 L1041.94 1206.4 L1015.01 1206.4 Q1015.39 1212.45 1018.64 1215.63 Q1021.92 1218.79 1027.74 1218.79 Q1031.12 1218.79 1034.27 1217.96 Q1037.45 1217.13 1040.57 1215.48 L1040.57 1221.01 Q1037.42 1222.35 1034.11 1223.05 Q1030.8 1223.75 1027.39 1223.75 Q1018.86 1223.75 1013.87 1218.79 Q1008.9 1213.82 1008.9 1205.35 Q1008.9 1196.6 1013.61 1191.48 Q1018.35 1186.32 1026.37 1186.32 Q1033.57 1186.32 1037.74 1190.97 Q1041.94 1195.58 1041.94 1203.54 M1036.08 1201.82 Q1036.02 1197.01 1033.38 1194.15 Q1030.77 1191.29 1026.44 1191.29 Q1021.54 1191.29 1018.58 1194.05 Q1015.65 1196.82 1015.2 1201.85 L1036.08 1201.82 Z" fill="#000000" fill-rule="evenodd" fill-opacity="1" /><polyline clip-path="url(#clip542)" style="stroke:#000000; stroke-linecap:butt; stroke-linejoin:round; stroke-width:2; stroke-opacity:0.1; fill:none" points="
  251.046,1060.45 1017.26,1060.45 
  "/>
<polyline clip-path="url(#clip542)" style="stroke:#000000; stroke-linecap:butt; stroke-linejoin:round; stroke-width:2; stroke-opacity:0.1; fill:none" points="
  251.046,814.528 1017.26,814.528 
  "/>
<polyline clip-path="url(#clip542)" style="stroke:#000000; stroke-linecap:butt; stroke-linejoin:round; stroke-width:2; stroke-opacity:0.1; fill:none" points="
  251.046,568.604 1017.26,568.604 
  "/>
<polyline clip-path="url(#clip542)" style="stroke:#000000; stroke-linecap:butt; stroke-linejoin:round; stroke-width:2; stroke-opacity:0.1; fill:none" points="
  251.046,322.679 1017.26,322.679 
  "/>
<polyline clip-path="url(#clip542)" style="stroke:#000000; stroke-linecap:butt; stroke-linejoin:round; stroke-width:2; stroke-opacity:0.1; fill:none" points="
  251.046,76.755 1017.26,76.755 
  "/>
<polyline clip-path="url(#clip540)" style="stroke:#000000; stroke-linecap:butt; stroke-linejoin:round; stroke-width:4; stroke-opacity:1; fill:none" points="
  251.046,1089.96 251.046,47.2441 
  "/>
<polyline clip-path="url(#clip540)" style="stroke:#000000; stroke-linecap:butt; stroke-linejoin:round; stroke-width:4; stroke-opacity:1; fill:none" points="
  251.046,1060.45 260.241,1060.45 
  "/>
<polyline clip-path="url(#clip540)" style="stroke:#000000; stroke-linecap:butt; stroke-linejoin:round; stroke-width:4; stroke-opacity:1; fill:none" points="
  251.046,814.528 260.241,814.528 
  "/>
<polyline clip-path="url(#clip540)" style="stroke:#000000; stroke-linecap:butt; stroke-linejoin:round; stroke-width:4; stroke-opacity:1; fill:none" points="
  251.046,568.604 260.241,568.604 
  "/>
<polyline clip-path="url(#clip540)" style="stroke:#000000; stroke-linecap:butt; stroke-linejoin:round; stroke-width:4; stroke-opacity:1; fill:none" points="
  251.046,322.679 260.241,322.679 
  "/>
<polyline clip-path="url(#clip540)" style="stroke:#000000; stroke-linecap:butt; stroke-linejoin:round; stroke-width:4; stroke-opacity:1; fill:none" points="
  251.046,76.755 260.241,76.755 
  "/>
<path clip-path="url(#clip540)" d="M139.709 1046.25 Q136.097 1046.25 134.269 1049.82 Q132.463 1053.36 132.463 1060.49 Q132.463 1067.59 134.269 1071.16 Q136.097 1074.7 139.709 1074.7 Q143.343 1074.7 145.148 1071.16 Q146.977 1067.59 146.977 1060.49 Q146.977 1053.36 145.148 1049.82 Q143.343 1046.25 139.709 1046.25 M139.709 1042.55 Q145.519 1042.55 148.574 1047.15 Q151.653 1051.74 151.653 1060.49 Q151.653 1069.21 148.574 1073.82 Q145.519 1078.4 139.709 1078.4 Q133.898 1078.4 130.82 1073.82 Q127.764 1069.21 127.764 1060.49 Q127.764 1051.74 130.82 1047.15 Q133.898 1042.55 139.709 1042.55 Z" fill="#000000" fill-rule="evenodd" fill-opacity="1" /><path clip-path="url(#clip540)" d="M159.87 1071.85 L164.755 1071.85 L164.755 1077.73 L159.87 1077.73 L159.87 1071.85 Z" fill="#000000" fill-rule="evenodd" fill-opacity="1" /><path clip-path="url(#clip540)" d="M184.94 1046.25 Q181.329 1046.25 179.5 1049.82 Q177.694 1053.36 177.694 1060.49 Q177.694 1067.59 179.5 1071.16 Q181.329 1074.7 184.94 1074.7 Q188.574 1074.7 190.38 1071.16 Q192.208 1067.59 192.208 1060.49 Q192.208 1053.36 190.38 1049.82 Q188.574 1046.25 184.94 1046.25 M184.94 1042.55 Q190.75 1042.55 193.805 1047.15 Q196.884 1051.74 196.884 1060.49 Q196.884 1069.21 193.805 1073.82 Q190.75 1078.4 184.94 1078.4 Q179.13 1078.4 176.051 1073.82 Q172.995 1069.21 172.995 1060.49 Q172.995 1051.74 176.051 1047.15 Q179.13 1042.55 184.94 1042.55 Z" fill="#000000" fill-rule="evenodd" fill-opacity="1" /><path clip-path="url(#clip540)" d="M215.102 1046.25 Q211.491 1046.25 209.662 1049.82 Q207.856 1053.36 207.856 1060.49 Q207.856 1067.59 209.662 1071.16 Q211.491 1074.7 215.102 1074.7 Q218.736 1074.7 220.541 1071.16 Q222.37 1067.59 222.37 1060.49 Q222.37 1053.36 220.541 1049.82 Q218.736 1046.25 215.102 1046.25 M215.102 1042.55 Q220.912 1042.55 223.967 1047.15 Q227.046 1051.74 227.046 1060.49 Q227.046 1069.21 223.967 1073.82 Q220.912 1078.4 215.102 1078.4 Q209.291 1078.4 206.213 1073.82 Q203.157 1069.21 203.157 1060.49 Q203.157 1051.74 206.213 1047.15 Q209.291 1042.55 215.102 1042.55 Z" fill="#000000" fill-rule="evenodd" fill-opacity="1" /><path clip-path="url(#clip540)" d="M140.704 800.327 Q137.093 800.327 135.264 803.892 Q133.459 807.434 133.459 814.563 Q133.459 821.67 135.264 825.234 Q137.093 828.776 140.704 828.776 Q144.338 828.776 146.144 825.234 Q147.972 821.67 147.972 814.563 Q147.972 807.434 146.144 803.892 Q144.338 800.327 140.704 800.327 M140.704 796.623 Q146.514 796.623 149.57 801.23 Q152.648 805.813 152.648 814.563 Q152.648 823.29 149.57 827.896 Q146.514 832.48 140.704 832.48 Q134.894 832.48 131.815 827.896 Q128.76 823.29 128.76 814.563 Q128.76 805.813 131.815 801.23 Q134.894 796.623 140.704 796.623 Z" fill="#000000" fill-rule="evenodd" fill-opacity="1" /><path clip-path="url(#clip540)" d="M160.866 825.929 L165.75 825.929 L165.75 831.808 L160.866 831.808 L160.866 825.929 Z" fill="#000000" fill-rule="evenodd" fill-opacity="1" /><path clip-path="url(#clip540)" d="M179.963 827.873 L196.282 827.873 L196.282 831.808 L174.338 831.808 L174.338 827.873 Q177 825.119 181.583 820.489 Q186.19 815.836 187.37 814.494 Q189.616 811.971 190.495 810.234 Q191.398 808.475 191.398 806.785 Q191.398 804.031 189.454 802.295 Q187.532 800.559 184.431 800.559 Q182.231 800.559 179.778 801.322 Q177.347 802.086 174.569 803.637 L174.569 798.915 Q177.394 797.781 179.847 797.202 Q182.301 796.623 184.338 796.623 Q189.708 796.623 192.903 799.309 Q196.097 801.994 196.097 806.484 Q196.097 808.614 195.287 810.535 Q194.5 812.434 192.393 815.026 Q191.815 815.697 188.713 818.915 Q185.611 822.109 179.963 827.873 Z" fill="#000000" fill-rule="evenodd" fill-opacity="1" /><path clip-path="url(#clip540)" d="M206.143 797.248 L224.5 797.248 L224.5 801.184 L210.426 801.184 L210.426 809.656 Q211.444 809.309 212.463 809.147 Q213.481 808.961 214.5 808.961 Q220.287 808.961 223.666 812.133 Q227.046 815.304 227.046 820.721 Q227.046 826.299 223.574 829.401 Q220.102 832.48 213.782 832.48 Q211.606 832.48 209.338 832.109 Q207.092 831.739 204.685 830.998 L204.685 826.299 Q206.768 827.433 208.991 827.989 Q211.213 828.545 213.69 828.545 Q217.694 828.545 220.032 826.438 Q222.37 824.332 222.37 820.721 Q222.37 817.109 220.032 815.003 Q217.694 812.897 213.69 812.897 Q211.815 812.897 209.94 813.313 Q208.088 813.73 206.143 814.609 L206.143 797.248 Z" fill="#000000" fill-rule="evenodd" fill-opacity="1" /><path clip-path="url(#clip540)" d="M139.709 554.403 Q136.097 554.403 134.269 557.967 Q132.463 561.509 132.463 568.639 Q132.463 575.745 134.269 579.31 Q136.097 582.852 139.709 582.852 Q143.343 582.852 145.148 579.31 Q146.977 575.745 146.977 568.639 Q146.977 561.509 145.148 557.967 Q143.343 554.403 139.709 554.403 M139.709 550.699 Q145.519 550.699 148.574 555.305 Q151.653 559.889 151.653 568.639 Q151.653 577.365 148.574 581.972 Q145.519 586.555 139.709 586.555 Q133.898 586.555 130.82 581.972 Q127.764 577.365 127.764 568.639 Q127.764 559.889 130.82 555.305 Q133.898 550.699 139.709 550.699 Z" fill="#000000" fill-rule="evenodd" fill-opacity="1" /><path clip-path="url(#clip540)" d="M159.87 580.004 L164.755 580.004 L164.755 585.884 L159.87 585.884 L159.87 580.004 Z" fill="#000000" fill-rule="evenodd" fill-opacity="1" /><path clip-path="url(#clip540)" d="M174.986 551.324 L193.343 551.324 L193.343 555.259 L179.269 555.259 L179.269 563.731 Q180.287 563.384 181.306 563.222 Q182.324 563.037 183.343 563.037 Q189.13 563.037 192.509 566.208 Q195.889 569.379 195.889 574.796 Q195.889 580.375 192.417 583.477 Q188.944 586.555 182.625 586.555 Q180.449 586.555 178.181 586.185 Q175.935 585.815 173.528 585.074 L173.528 580.375 Q175.611 581.509 177.833 582.065 Q180.056 582.62 182.532 582.62 Q186.537 582.62 188.875 580.514 Q191.213 578.407 191.213 574.796 Q191.213 571.185 188.875 569.079 Q186.537 566.972 182.532 566.972 Q180.657 566.972 178.782 567.389 Q176.931 567.805 174.986 568.685 L174.986 551.324 Z" fill="#000000" fill-rule="evenodd" fill-opacity="1" /><path clip-path="url(#clip540)" d="M215.102 554.403 Q211.491 554.403 209.662 557.967 Q207.856 561.509 207.856 568.639 Q207.856 575.745 209.662 579.31 Q211.491 582.852 215.102 582.852 Q218.736 582.852 220.541 579.31 Q222.37 575.745 222.37 568.639 Q222.37 561.509 220.541 557.967 Q218.736 554.403 215.102 554.403 M215.102 550.699 Q220.912 550.699 223.967 555.305 Q227.046 559.889 227.046 568.639 Q227.046 577.365 223.967 581.972 Q220.912 586.555 215.102 586.555 Q209.291 586.555 206.213 581.972 Q203.157 577.365 203.157 568.639 Q203.157 559.889 206.213 555.305 Q209.291 550.699 215.102 550.699 Z" fill="#000000" fill-rule="evenodd" fill-opacity="1" /><path clip-path="url(#clip540)" d="M140.704 308.478 Q137.093 308.478 135.264 312.043 Q133.459 315.585 133.459 322.714 Q133.459 329.821 135.264 333.385 Q137.093 336.927 140.704 336.927 Q144.338 336.927 146.144 333.385 Q147.972 329.821 147.972 322.714 Q147.972 315.585 146.144 312.043 Q144.338 308.478 140.704 308.478 M140.704 304.775 Q146.514 304.775 149.57 309.381 Q152.648 313.964 152.648 322.714 Q152.648 331.441 149.57 336.047 Q146.514 340.631 140.704 340.631 Q134.894 340.631 131.815 336.047 Q128.76 331.441 128.76 322.714 Q128.76 313.964 131.815 309.381 Q134.894 304.775 140.704 304.775 Z" fill="#000000" fill-rule="evenodd" fill-opacity="1" /><path clip-path="url(#clip540)" d="M160.866 334.08 L165.75 334.08 L165.75 339.959 L160.866 339.959 L160.866 334.08 Z" fill="#000000" fill-rule="evenodd" fill-opacity="1" /><path clip-path="url(#clip540)" d="M174.755 305.399 L196.977 305.399 L196.977 307.39 L184.431 339.959 L179.546 339.959 L191.352 309.335 L174.755 309.335 L174.755 305.399 Z" fill="#000000" fill-rule="evenodd" fill-opacity="1" /><path clip-path="url(#clip540)" d="M206.143 305.399 L224.5 305.399 L224.5 309.335 L210.426 309.335 L210.426 317.807 Q211.444 317.46 212.463 317.298 Q213.481 317.112 214.5 317.112 Q220.287 317.112 223.666 320.284 Q227.046 323.455 227.046 328.872 Q227.046 334.45 223.574 337.552 Q220.102 340.631 213.782 340.631 Q211.606 340.631 209.338 340.26 Q207.092 339.89 204.685 339.149 L204.685 334.45 Q206.768 335.585 208.991 336.14 Q211.213 336.696 213.69 336.696 Q217.694 336.696 220.032 334.589 Q222.37 332.483 222.37 328.872 Q222.37 325.261 220.032 323.154 Q217.694 321.048 213.69 321.048 Q211.815 321.048 209.94 321.464 Q208.088 321.881 206.143 322.761 L206.143 305.399 Z" fill="#000000" fill-rule="evenodd" fill-opacity="1" /><path clip-path="url(#clip540)" d="M130.519 90.0999 L138.158 90.0999 L138.158 63.7343 L129.847 65.4009 L129.847 61.1417 L138.111 59.475 L142.787 59.475 L142.787 90.0999 L150.426 90.0999 L150.426 94.035 L130.519 94.035 L130.519 90.0999 Z" fill="#000000" fill-rule="evenodd" fill-opacity="1" /><path clip-path="url(#clip540)" d="M159.87 88.1554 L164.755 88.1554 L164.755 94.035 L159.87 94.035 L159.87 88.1554 Z" fill="#000000" fill-rule="evenodd" fill-opacity="1" /><path clip-path="url(#clip540)" d="M184.94 62.5537 Q181.329 62.5537 179.5 66.1185 Q177.694 69.6602 177.694 76.7898 Q177.694 83.8962 179.5 87.461 Q181.329 91.0026 184.94 91.0026 Q188.574 91.0026 190.38 87.461 Q192.208 83.8962 192.208 76.7898 Q192.208 69.6602 190.38 66.1185 Q188.574 62.5537 184.94 62.5537 M184.94 58.85 Q190.75 58.85 193.805 63.4565 Q196.884 68.0398 196.884 76.7898 Q196.884 85.5166 193.805 90.123 Q190.75 94.7063 184.94 94.7063 Q179.13 94.7063 176.051 90.123 Q172.995 85.5166 172.995 76.7898 Q172.995 68.0398 176.051 63.4565 Q179.13 58.85 184.94 58.85 Z" fill="#000000" fill-rule="evenodd" fill-opacity="1" /><path clip-path="url(#clip540)" d="M215.102 62.5537 Q211.491 62.5537 209.662 66.1185 Q207.856 69.6602 207.856 76.7898 Q207.856 83.8962 209.662 87.461 Q211.491 91.0026 215.102 91.0026 Q218.736 91.0026 220.541 87.461 Q222.37 83.8962 222.37 76.7898 Q222.37 69.6602 220.541 66.1185 Q218.736 62.5537 215.102 62.5537 M215.102 58.85 Q220.912 58.85 223.967 63.4565 Q227.046 68.0398 227.046 76.7898 Q227.046 85.5166 223.967 90.123 Q220.912 94.7063 215.102 94.7063 Q209.291 94.7063 206.213 90.123 Q203.157 85.5166 203.157 76.7898 Q203.157 68.0398 206.213 63.4565 Q209.291 58.85 215.102 58.85 Z" fill="#000000" fill-rule="evenodd" fill-opacity="1" /><path clip-path="url(#clip540)" d="M59.3347 835.47 Q58.7618 836.457 58.5072 837.635 Q58.2207 838.78 58.2207 840.181 Q58.2207 845.146 61.4672 847.82 Q64.6819 850.462 70.7293 850.462 L89.5082 850.462 L89.5082 856.35 L53.8602 856.35 L53.8602 850.462 L59.3984 850.462 Q56.1519 848.615 54.5923 845.655 Q53.0008 842.695 53.0008 838.462 Q53.0008 837.857 53.0963 837.125 Q53.16 836.393 53.3191 835.502 L59.3347 835.47 Z" fill="#000000" fill-rule="evenodd" fill-opacity="1" /><path clip-path="url(#clip540)" d="M71.5887 813.127 Q71.5887 820.224 73.2119 822.962 Q74.8352 825.699 78.7501 825.699 Q81.8693 825.699 83.7154 823.662 Q85.5296 821.593 85.5296 818.06 Q85.5296 813.19 82.0921 810.262 Q78.6228 807.302 72.8937 807.302 L71.5887 807.302 L71.5887 813.127 M69.1697 801.446 L89.5082 801.446 L89.5082 807.302 L84.0973 807.302 Q87.3438 809.307 88.9034 812.299 Q90.4312 815.291 90.4312 819.62 Q90.4312 825.094 87.3756 828.341 Q84.2883 831.555 79.1321 831.555 Q73.1165 831.555 70.0609 827.545 Q67.0054 823.503 67.0054 815.514 L67.0054 807.302 L66.4325 807.302 Q62.3902 807.302 60.1941 809.976 Q57.9661 812.617 57.9661 817.424 Q57.9661 820.479 58.6981 823.375 Q59.4302 826.272 60.8943 828.945 L55.4835 828.945 Q54.2421 825.731 53.6374 822.707 Q53.0008 819.683 53.0008 816.819 Q53.0008 809.084 57.0112 805.265 Q61.0216 801.446 69.1697 801.446 Z" fill="#000000" fill-rule="evenodd" fill-opacity="1" /><path clip-path="url(#clip540)" d="M43.7387 783.59 L53.8602 783.59 L53.8602 771.527 L58.4117 771.527 L58.4117 783.59 L77.7634 783.59 Q82.1239 783.59 83.3653 782.412 Q84.6066 781.203 84.6066 777.542 L84.6066 771.527 L89.5082 771.527 L89.5082 777.542 Q89.5082 784.322 86.9937 786.9 Q84.4474 789.478 77.7634 789.478 L58.4117 789.478 L58.4117 793.775 L53.8602 793.775 L53.8602 789.478 L43.7387 789.478 L43.7387 783.59 Z" fill="#000000" fill-rule="evenodd" fill-opacity="1" /><path clip-path="url(#clip540)" d="M53.8602 763.824 L53.8602 757.968 L89.5082 757.968 L89.5082 763.824 L53.8602 763.824 M39.983 763.824 L39.983 757.968 L47.399 757.968 L47.399 763.824 L39.983 763.824 Z" fill="#000000" fill-rule="evenodd" fill-opacity="1" /><path clip-path="url(#clip540)" d="M57.9661 731.9 Q57.9661 736.611 61.6582 739.348 Q65.3185 742.085 71.716 742.085 Q78.1135 742.085 81.8057 739.38 Q85.4659 736.643 85.4659 731.9 Q85.4659 727.221 81.7738 724.484 Q78.0817 721.747 71.716 721.747 Q65.3821 721.747 61.69 724.484 Q57.9661 727.221 57.9661 731.9 M53.0008 731.9 Q53.0008 724.261 57.9661 719.901 Q62.9313 715.54 71.716 715.54 Q80.4689 715.54 85.4659 719.901 Q90.4312 724.261 90.4312 731.9 Q90.4312 739.571 85.4659 743.931 Q80.4689 748.26 71.716 748.26 Q62.9313 748.26 57.9661 743.931 Q53.0008 739.571 53.0008 731.9 Z" fill="#000000" fill-rule="evenodd" fill-opacity="1" /><path clip-path="url(#clip540)" d="M57.9661 671.299 Q57.9661 676.009 61.6582 678.747 Q65.3185 681.484 71.716 681.484 Q78.1135 681.484 81.8057 678.778 Q85.4659 676.041 85.4659 671.299 Q85.4659 666.62 81.7738 663.883 Q78.0817 661.145 71.716 661.145 Q65.3821 661.145 61.69 663.883 Q57.9661 666.62 57.9661 671.299 M53.0008 671.299 Q53.0008 663.66 57.9661 659.299 Q62.9313 654.939 71.716 654.939 Q80.4689 654.939 85.4659 659.299 Q90.4312 663.66 90.4312 671.299 Q90.4312 678.969 85.4659 683.33 Q80.4689 687.659 71.716 687.659 Q62.9313 687.659 57.9661 683.33 Q53.0008 678.969 53.0008 671.299 Z" fill="#000000" fill-rule="evenodd" fill-opacity="1" /><path clip-path="url(#clip540)" d="M39.983 627.184 L44.8527 627.184 L44.8527 632.786 Q44.8527 635.937 46.1259 637.179 Q47.399 638.388 50.7092 638.388 L53.8602 638.388 L53.8602 628.744 L58.4117 628.744 L58.4117 638.388 L89.5082 638.388 L89.5082 644.276 L58.4117 644.276 L58.4117 649.878 L53.8602 649.878 L53.8602 644.276 L51.3776 644.276 Q45.4256 644.276 42.7202 641.507 Q39.983 638.738 39.983 632.723 L39.983 627.184 Z" fill="#000000" fill-rule="evenodd" fill-opacity="1" /><path clip-path="url(#clip540)" d="M59.3347 580.906 Q58.7618 581.892 58.5072 583.07 Q58.2207 584.216 58.2207 585.616 Q58.2207 590.582 61.4672 593.255 Q64.6819 595.897 70.7293 595.897 L89.5082 595.897 L89.5082 601.785 L53.8602 601.785 L53.8602 595.897 L59.3984 595.897 Q56.1519 594.051 54.5923 591.091 Q53.0008 588.131 53.0008 583.898 Q53.0008 583.293 53.0963 582.561 Q53.16 581.829 53.3191 580.938 L59.3347 580.906 Z" fill="#000000" fill-rule="evenodd" fill-opacity="1" /><path clip-path="url(#clip540)" d="M70.2201 545.703 L73.0846 545.703 L73.0846 572.63 Q79.1321 572.248 82.3149 569.002 Q85.4659 565.723 85.4659 559.899 Q85.4659 556.525 84.6384 553.374 Q83.8109 550.191 82.1558 547.072 L87.6939 547.072 Q89.0307 550.223 89.731 553.533 Q90.4312 556.843 90.4312 560.249 Q90.4312 568.779 85.4659 573.776 Q80.5007 578.741 72.0343 578.741 Q63.2814 578.741 58.1571 574.031 Q53.0008 569.288 53.0008 561.267 Q53.0008 554.074 57.6478 549.905 Q62.2629 545.703 70.2201 545.703 M68.5013 551.56 Q63.6952 551.623 60.8306 554.265 Q57.9661 556.875 57.9661 561.204 Q57.9661 566.105 60.7352 569.065 Q63.5042 571.994 68.5332 572.439 L68.5013 551.56 Z" fill="#000000" fill-rule="evenodd" fill-opacity="1" /><path clip-path="url(#clip540)" d="M54.9105 513.366 L60.4487 513.366 Q59.1756 515.848 58.539 518.522 Q57.9024 521.195 57.9024 524.06 Q57.9024 528.42 59.2392 530.617 Q60.576 532.781 63.2496 532.781 Q65.2866 532.781 66.4643 531.221 Q67.6101 529.662 68.6605 524.951 L69.1061 522.946 Q70.4429 516.708 72.8937 514.098 Q75.3126 511.456 79.6731 511.456 Q84.6384 511.456 87.5348 515.403 Q90.4312 519.317 90.4312 526.192 Q90.4312 529.057 89.8583 532.176 Q89.3172 535.264 88.2032 538.701 L82.1558 538.701 Q83.8427 535.455 84.702 532.304 Q85.5296 529.153 85.5296 526.065 Q85.5296 521.927 84.1291 519.699 Q82.6969 517.471 80.1187 517.471 Q77.7316 517.471 76.4585 519.095 Q75.1853 520.686 74.0077 526.129 L73.5302 528.166 Q72.3844 533.608 70.0291 536.027 Q67.642 538.446 63.5042 538.446 Q58.4753 538.446 55.7381 534.882 Q53.0008 531.317 53.0008 524.76 Q53.0008 521.514 53.4783 518.649 Q53.9557 515.785 54.9105 513.366 Z" fill="#000000" fill-rule="evenodd" fill-opacity="1" /><path clip-path="url(#clip540)" d="M84.161 496.465 L103.067 496.465 L103.067 502.353 L53.8602 502.353 L53.8602 496.465 L59.2711 496.465 Q56.0882 494.619 54.5604 491.818 Q53.0008 488.985 53.0008 485.07 Q53.0008 478.577 58.1571 474.535 Q63.3133 470.461 71.716 470.461 Q80.1187 470.461 85.275 474.535 Q90.4312 478.577 90.4312 485.07 Q90.4312 488.985 88.9034 491.818 Q87.3438 494.619 84.161 496.465 M71.716 476.54 Q65.2548 476.54 61.5945 479.214 Q57.9024 481.855 57.9024 486.502 Q57.9024 491.149 61.5945 493.823 Q65.2548 496.465 71.716 496.465 Q78.1772 496.465 81.8693 493.823 Q85.5296 491.149 85.5296 486.502 Q85.5296 481.855 81.8693 479.214 Q78.1772 476.54 71.716 476.54 Z" fill="#000000" fill-rule="evenodd" fill-opacity="1" /><path clip-path="url(#clip540)" d="M57.9661 446.939 Q57.9661 451.65 61.6582 454.387 Q65.3185 457.125 71.716 457.125 Q78.1135 457.125 81.8057 454.419 Q85.4659 451.682 85.4659 446.939 Q85.4659 442.261 81.7738 439.523 Q78.0817 436.786 71.716 436.786 Q65.3821 436.786 61.69 439.523 Q57.9661 442.261 57.9661 446.939 M53.0008 446.939 Q53.0008 439.301 57.9661 434.94 Q62.9313 430.58 71.716 430.58 Q80.4689 430.58 85.4659 434.94 Q90.4312 439.301 90.4312 446.939 Q90.4312 454.61 85.4659 458.971 Q80.4689 463.299 71.716 463.299 Q62.9313 463.299 57.9661 458.971 Q53.0008 454.61 53.0008 446.939 Z" fill="#000000" fill-rule="evenodd" fill-opacity="1" /><path clip-path="url(#clip540)" d="M67.9921 391.239 L89.5082 391.239 L89.5082 397.096 L68.183 397.096 Q63.1223 397.096 60.6078 399.069 Q58.0934 401.043 58.0934 404.989 Q58.0934 409.732 61.1171 412.469 Q64.1408 415.206 69.3607 415.206 L89.5082 415.206 L89.5082 421.095 L53.8602 421.095 L53.8602 415.206 L59.3984 415.206 Q56.1837 413.106 54.5923 410.273 Q53.0008 407.408 53.0008 403.684 Q53.0008 397.542 56.8203 394.39 Q60.6078 391.239 67.9921 391.239 Z" fill="#000000" fill-rule="evenodd" fill-opacity="1" /><path clip-path="url(#clip540)" d="M54.9105 356.833 L60.4487 356.833 Q59.1756 359.315 58.539 361.989 Q57.9024 364.663 57.9024 367.527 Q57.9024 371.888 59.2392 374.084 Q60.576 376.248 63.2496 376.248 Q65.2866 376.248 66.4643 374.689 Q67.6101 373.129 68.6605 368.418 L69.1061 366.413 Q70.4429 360.175 72.8937 357.565 Q75.3126 354.923 79.6731 354.923 Q84.6384 354.923 87.5348 358.87 Q90.4312 362.785 90.4312 369.66 Q90.4312 372.524 89.8583 375.643 Q89.3172 378.731 88.2032 382.168 L82.1558 382.168 Q83.8427 378.922 84.702 375.771 Q85.5296 372.62 85.5296 369.532 Q85.5296 365.395 84.1291 363.167 Q82.6969 360.939 80.1187 360.939 Q77.7316 360.939 76.4585 362.562 Q75.1853 364.153 74.0077 369.596 L73.5302 371.633 Q72.3844 377.076 70.0291 379.495 Q67.642 381.914 63.5042 381.914 Q58.4753 381.914 55.7381 378.349 Q53.0008 374.784 53.0008 368.227 Q53.0008 364.981 53.4783 362.116 Q53.9557 359.252 54.9105 356.833 Z" fill="#000000" fill-rule="evenodd" fill-opacity="1" /><path clip-path="url(#clip540)" d="M70.2201 315.106 L73.0846 315.106 L73.0846 342.033 Q79.1321 341.651 82.3149 338.404 Q85.4659 335.126 85.4659 329.301 Q85.4659 325.927 84.6384 322.776 Q83.8109 319.593 82.1558 316.474 L87.6939 316.474 Q89.0307 319.625 89.731 322.935 Q90.4312 326.246 90.4312 329.651 Q90.4312 338.181 85.4659 343.178 Q80.5007 348.144 72.0343 348.144 Q63.2814 348.144 58.1571 343.433 Q53.0008 338.691 53.0008 330.67 Q53.0008 323.477 57.6478 319.307 Q62.2629 315.106 70.2201 315.106 M68.5013 320.962 Q63.6952 321.026 60.8306 323.667 Q57.9661 326.277 57.9661 330.606 Q57.9661 335.508 60.7352 338.468 Q63.5042 341.396 68.5332 341.842 L68.5013 320.962 Z" fill="#000000" fill-rule="evenodd" fill-opacity="1" /><path clip-path="url(#clip540)" d="M54.9105 282.768 L60.4487 282.768 Q59.1756 285.25 58.539 287.924 Q57.9024 290.598 57.9024 293.462 Q57.9024 297.823 59.2392 300.019 Q60.576 302.183 63.2496 302.183 Q65.2866 302.183 66.4643 300.624 Q67.6101 299.064 68.6605 294.353 L69.1061 292.348 Q70.4429 286.11 72.8937 283.5 Q75.3126 280.858 79.6731 280.858 Q84.6384 280.858 87.5348 284.805 Q90.4312 288.72 90.4312 295.595 Q90.4312 298.459 89.8583 301.578 Q89.3172 304.666 88.2032 308.103 L82.1558 308.103 Q83.8427 304.857 84.702 301.706 Q85.5296 298.555 85.5296 295.467 Q85.5296 291.33 84.1291 289.102 Q82.6969 286.874 80.1187 286.874 Q77.7316 286.874 76.4585 288.497 Q75.1853 290.088 74.0077 295.531 L73.5302 297.568 Q72.3844 303.011 70.0291 305.43 Q67.642 307.849 63.5042 307.849 Q58.4753 307.849 55.7381 304.284 Q53.0008 300.719 53.0008 294.162 Q53.0008 290.916 53.4783 288.051 Q53.9557 285.187 54.9105 282.768 Z" fill="#000000" fill-rule="evenodd" fill-opacity="1" /><path clip-path="url(#clip542)" d="
M293.189 76.755 L293.189 1060.45 L596.266 1060.45 L596.266 76.755 L293.189 76.755 L293.189 76.755  Z
  " fill="#006d60" fill-rule="evenodd" fill-opacity="1"/>
<polyline clip-path="url(#clip542)" style="stroke:#000000; stroke-linecap:butt; stroke-linejoin:round; stroke-width:4; stroke-opacity:1; fill:none" points="
  293.189,76.755 293.189,1060.45 596.266,1060.45 596.266,76.755 293.189,76.755 
  "/>
<path clip-path="url(#clip542)" d="
M672.036 76.755 L672.036 1060.45 L975.113 1060.45 L975.113 76.755 L672.036 76.755 L672.036 76.755  Z
  " fill="#006d60" fill-rule="evenodd" fill-opacity="1"/>
<polyline clip-path="url(#clip542)" style="stroke:#000000; stroke-linecap:butt; stroke-linejoin:round; stroke-width:4; stroke-opacity:1; fill:none" points="
  672.036,76.755 672.036,1060.45 975.113,1060.45 975.113,76.755 672.036,76.755 
  "/>
<path clip-path="url(#clip542)" d="
M293.189 142.127 L293.189 1060.45 L596.266 1060.45 L596.266 142.127 L293.189 142.127 L293.189 142.127  Z
  " fill="#008569" fill-rule="evenodd" fill-opacity="1"/>
<polyline clip-path="url(#clip542)" style="stroke:#000000; stroke-linecap:butt; stroke-linejoin:round; stroke-width:4; stroke-opacity:1; fill:none" points="
  293.189,142.127 293.189,1060.45 596.266,1060.45 596.266,142.127 293.189,142.127 
  "/>
<path clip-path="url(#clip542)" d="
M672.036 92.3199 L672.036 1060.45 L975.113 1060.45 L975.113 92.3199 L672.036 92.3199 L672.036 92.3199  Z
  " fill="#008569" fill-rule="evenodd" fill-opacity="1"/>
<polyline clip-path="url(#clip542)" style="stroke:#000000; stroke-linecap:butt; stroke-linejoin:round; stroke-width:4; stroke-opacity:1; fill:none" points="
  672.036,92.3199 672.036,1060.45 975.113,1060.45 975.113,92.3199 672.036,92.3199 
  "/>
<path clip-path="url(#clip542)" d="
M293.189 254.194 L293.189 1060.45 L596.266 1060.45 L596.266 254.194 L293.189 254.194 L293.189 254.194  Z
  " fill="#009e73" fill-rule="evenodd" fill-opacity="1"/>
<polyline clip-path="url(#clip542)" style="stroke:#000000; stroke-linecap:butt; stroke-linejoin:round; stroke-width:4; stroke-opacity:1; fill:none" points="
  293.189,254.194 293.189,1060.45 596.266,1060.45 596.266,254.194 293.189,254.194 
  "/>
<path clip-path="url(#clip542)" d="
M672.036 139.014 L672.036 1060.45 L975.113 1060.45 L975.113 139.014 L672.036 139.014 L672.036 139.014  Z
  " fill="#009e73" fill-rule="evenodd" fill-opacity="1"/>
<polyline clip-path="url(#clip542)" style="stroke:#000000; stroke-linecap:butt; stroke-linejoin:round; stroke-width:4; stroke-opacity:1; fill:none" points="
  672.036,139.014 672.036,1060.45 975.113,1060.45 975.113,139.014 672.036,139.014 
  "/>
<path clip-path="url(#clip542)" d="
M293.189 360.035 L293.189 1060.45 L596.266 1060.45 L596.266 360.035 L293.189 360.035 L293.189 360.035  Z
  " fill="#77c6b0" fill-rule="evenodd" fill-opacity="1"/>
<polyline clip-path="url(#clip542)" style="stroke:#000000; stroke-linecap:butt; stroke-linejoin:round; stroke-width:4; stroke-opacity:1; fill:none" points="
  293.189,360.035 293.189,1060.45 596.266,1060.45 596.266,360.035 293.189,360.035 
  "/>
<path clip-path="url(#clip542)" d="
M672.036 238.629 L672.036 1060.45 L975.113 1060.45 L975.113 238.629 L672.036 238.629 L672.036 238.629  Z
  " fill="#77c6b0" fill-rule="evenodd" fill-opacity="1"/>
<polyline clip-path="url(#clip542)" style="stroke:#000000; stroke-linecap:butt; stroke-linejoin:round; stroke-width:4; stroke-opacity:1; fill:none" points="
  672.036,238.629 672.036,1060.45 975.113,1060.45 975.113,238.629 672.036,238.629 
  "/>
<path clip-path="url(#clip542)" d="
M293.189 559.265 L293.189 1060.45 L596.266 1060.45 L596.266 559.265 L293.189 559.265 L293.189 559.265  Z
  " fill="#eeeeee" fill-rule="evenodd" fill-opacity="1"/>
<polyline clip-path="url(#clip542)" style="stroke:#000000; stroke-linecap:butt; stroke-linejoin:round; stroke-width:4; stroke-opacity:1; fill:none" points="
  293.189,559.265 293.189,1060.45 596.266,1060.45 596.266,559.265 293.189,559.265 
  "/>
<path clip-path="url(#clip542)" d="
M672.036 406.73 L672.036 1060.45 L975.113 1060.45 L975.113 406.73 L672.036 406.73 L672.036 406.73  Z
  " fill="#eeeeee" fill-rule="evenodd" fill-opacity="1"/>
<polyline clip-path="url(#clip542)" style="stroke:#000000; stroke-linecap:butt; stroke-linejoin:round; stroke-width:4; stroke-opacity:1; fill:none" points="
  672.036,406.73 672.036,1060.45 975.113,1060.45 975.113,406.73 672.036,406.73 
  "/>
<path clip-path="url(#clip542)" d="
M293.189 923.482 L293.189 1060.45 L596.266 1060.45 L596.266 923.482 L293.189 923.482 L293.189 923.482  Z
  " fill="#ddb3ca" fill-rule="evenodd" fill-opacity="1"/>
<polyline clip-path="url(#clip542)" style="stroke:#000000; stroke-linecap:butt; stroke-linejoin:round; stroke-width:4; stroke-opacity:1; fill:none" points="
  293.189,923.482 293.189,1060.45 596.266,1060.45 596.266,923.482 293.189,923.482 
  "/>
<path clip-path="url(#clip542)" d="
M672.036 867.449 L672.036 1060.45 L975.113 1060.45 L975.113 867.449 L672.036 867.449 L672.036 867.449  Z
  " fill="#ddb3ca" fill-rule="evenodd" fill-opacity="1"/>
<polyline clip-path="url(#clip542)" style="stroke:#000000; stroke-linecap:butt; stroke-linejoin:round; stroke-width:4; stroke-opacity:1; fill:none" points="
  672.036,867.449 672.036,1060.45 975.113,1060.45 975.113,867.449 672.036,867.449 
  "/>
<path clip-path="url(#clip542)" d="
M293.189 988.855 L293.189 1060.45 L596.266 1060.45 L596.266 988.855 L293.189 988.855 L293.189 988.855  Z
  " fill="#cc79a7" fill-rule="evenodd" fill-opacity="1"/>
<polyline clip-path="url(#clip542)" style="stroke:#000000; stroke-linecap:butt; stroke-linejoin:round; stroke-width:4; stroke-opacity:1; fill:none" points="
  293.189,988.855 293.189,1060.45 596.266,1060.45 596.266,988.855 293.189,988.855 
  "/>
<path clip-path="url(#clip542)" d="
M672.036 1010.65 L672.036 1060.45 L975.113 1060.45 L975.113 1010.65 L672.036 1010.65 L672.036 1010.65  Z
  " fill="#cc79a7" fill-rule="evenodd" fill-opacity="1"/>
<polyline clip-path="url(#clip542)" style="stroke:#000000; stroke-linecap:butt; stroke-linejoin:round; stroke-width:4; stroke-opacity:1; fill:none" points="
  672.036,1010.65 672.036,1060.45 975.113,1060.45 975.113,1010.65 672.036,1010.65 
  "/>
<path clip-path="url(#clip542)" d="
M293.189 1029.32 L293.189 1060.45 L596.266 1060.45 L596.266 1029.32 L293.189 1029.32 L293.189 1029.32  Z
  " fill="#b55585" fill-rule="evenodd" fill-opacity="1"/>
<polyline clip-path="url(#clip542)" style="stroke:#000000; stroke-linecap:butt; stroke-linejoin:round; stroke-width:4; stroke-opacity:1; fill:none" points="
  293.189,1029.32 293.189,1060.45 596.266,1060.45 596.266,1029.32 293.189,1029.32 
  "/>
<path clip-path="url(#clip542)" d="
M672.036 1051.11 L672.036 1060.45 L975.113 1060.45 L975.113 1051.11 L672.036 1051.11 L672.036 1051.11  Z
  " fill="#b55585" fill-rule="evenodd" fill-opacity="1"/>
<polyline clip-path="url(#clip542)" style="stroke:#000000; stroke-linecap:butt; stroke-linejoin:round; stroke-width:4; stroke-opacity:1; fill:none" points="
  672.036,1051.11 672.036,1060.45 975.113,1060.45 975.113,1051.11 672.036,1051.11 
  "/>
<path clip-path="url(#clip542)" d="
M293.189 1054.23 L293.189 1060.45 L596.266 1060.45 L596.266 1054.23 L293.189 1054.23 L293.189 1054.23  Z
  " fill="#9e3264" fill-rule="evenodd" fill-opacity="1"/>
<polyline clip-path="url(#clip542)" style="stroke:#000000; stroke-linecap:butt; stroke-linejoin:round; stroke-width:4; stroke-opacity:1; fill:none" points="
  293.189,1054.23 293.189,1060.45 596.266,1060.45 596.266,1054.23 293.189,1054.23 
  "/>
<path clip-path="url(#clip542)" d="
M672.036 1057.34 L672.036 1060.45 L975.113 1060.45 L975.113 1057.34 L672.036 1057.34 L672.036 1057.34  Z
  " fill="#9e3264" fill-rule="evenodd" fill-opacity="1"/>
<polyline clip-path="url(#clip542)" style="stroke:#000000; stroke-linecap:butt; stroke-linejoin:round; stroke-width:4; stroke-opacity:1; fill:none" points="
  672.036,1057.34 672.036,1060.45 975.113,1060.45 975.113,1057.34 672.036,1057.34 
  "/>
<path clip-path="url(#clip540)" d="
M1060.65 871.004 L1552.76 871.004 L1552.76 205.724 L1060.65 205.724  Z
  " fill="#ffffff" fill-rule="evenodd" fill-opacity="1"/>
<polyline clip-path="url(#clip540)" style="stroke:#000000; stroke-linecap:butt; stroke-linejoin:round; stroke-width:4; stroke-opacity:1; fill:none" points="
  1060.65,871.004 1552.76,871.004 1552.76,205.724 1060.65,205.724 1060.65,871.004 
  "/>
<path clip-path="url(#clip540)" d="M1132.64 253.675 L1132.64 267.425 L1128.35 267.425 L1128.35 231.638 L1132.64 231.638 L1132.64 235.573 Q1133.98 233.259 1136.02 232.147 Q1138.08 231.013 1140.92 231.013 Q1145.65 231.013 1148.59 234.763 Q1151.55 238.513 1151.55 244.624 Q1151.55 250.735 1148.59 254.485 Q1145.65 258.235 1140.92 258.235 Q1138.08 258.235 1136.02 257.124 Q1133.98 255.99 1132.64 253.675 M1147.13 244.624 Q1147.13 239.925 1145.18 237.263 Q1143.26 234.578 1139.88 234.578 Q1136.5 234.578 1134.56 237.263 Q1132.64 239.925 1132.64 244.624 Q1132.64 249.323 1134.56 252.008 Q1136.5 254.67 1139.88 254.67 Q1143.26 254.67 1145.18 252.008 Q1147.13 249.323 1147.13 244.624 Z" fill="#000000" fill-rule="evenodd" fill-opacity="1" /><path clip-path="url(#clip540)" d="M1173.63 235.62 Q1172.91 235.203 1172.06 235.018 Q1171.22 234.809 1170.21 234.809 Q1166.59 234.809 1164.65 237.171 Q1162.73 239.509 1162.73 243.907 L1162.73 257.564 L1158.45 257.564 L1158.45 231.638 L1162.73 231.638 L1162.73 235.666 Q1164.07 233.305 1166.22 232.171 Q1168.38 231.013 1171.46 231.013 Q1171.9 231.013 1172.43 231.083 Q1172.96 231.129 1173.61 231.245 L1173.63 235.62 Z" fill="#000000" fill-rule="evenodd" fill-opacity="1" /><path clip-path="url(#clip540)" d="M1199.23 243.536 L1199.23 245.62 L1179.65 245.62 Q1179.93 250.018 1182.29 252.333 Q1184.67 254.624 1188.91 254.624 Q1191.36 254.624 1193.65 254.022 Q1195.97 253.42 1198.24 252.217 L1198.24 256.245 Q1195.95 257.217 1193.54 257.726 Q1191.13 258.235 1188.65 258.235 Q1182.45 258.235 1178.82 254.624 Q1175.21 251.013 1175.21 244.856 Q1175.21 238.49 1178.63 234.763 Q1182.08 231.013 1187.91 231.013 Q1193.15 231.013 1196.18 234.393 Q1199.23 237.749 1199.23 243.536 M1194.97 242.286 Q1194.93 238.791 1193.01 236.708 Q1191.11 234.624 1187.96 234.624 Q1184.4 234.624 1182.24 236.638 Q1180.11 238.652 1179.79 242.309 L1194.97 242.286 Z" fill="#000000" fill-rule="evenodd" fill-opacity="1" /><path clip-path="url(#clip540)" d="M1219.35 221.546 L1219.35 225.087 L1215.27 225.087 Q1212.98 225.087 1212.08 226.013 Q1211.2 226.939 1211.2 229.347 L1211.2 231.638 L1218.21 231.638 L1218.21 234.948 L1211.2 234.948 L1211.2 257.564 L1206.92 257.564 L1206.92 234.948 L1202.84 234.948 L1202.84 231.638 L1206.92 231.638 L1206.92 229.833 Q1206.92 225.504 1208.93 223.536 Q1210.95 221.546 1215.32 221.546 L1219.35 221.546 Z" fill="#000000" fill-rule="evenodd" fill-opacity="1" /><path clip-path="url(#clip540)" d="M1245.09 243.536 L1245.09 245.62 L1225.51 245.62 Q1225.78 250.018 1228.15 252.333 Q1230.53 254.624 1234.77 254.624 Q1237.22 254.624 1239.51 254.022 Q1241.83 253.42 1244.09 252.217 L1244.09 256.245 Q1241.8 257.217 1239.4 257.726 Q1236.99 258.235 1234.51 258.235 Q1228.31 258.235 1224.67 254.624 Q1221.06 251.013 1221.06 244.856 Q1221.06 238.49 1224.49 234.763 Q1227.94 231.013 1233.77 231.013 Q1239 231.013 1242.03 234.393 Q1245.09 237.749 1245.09 243.536 M1240.83 242.286 Q1240.78 238.791 1238.86 236.708 Q1236.96 234.624 1233.82 234.624 Q1230.25 234.624 1228.1 236.638 Q1225.97 238.652 1225.65 242.309 L1240.83 242.286 Z" fill="#000000" fill-rule="evenodd" fill-opacity="1" /><path clip-path="url(#clip540)" d="M1267.1 235.62 Q1266.39 235.203 1265.53 235.018 Q1264.7 234.809 1263.68 234.809 Q1260.07 234.809 1258.12 237.171 Q1256.2 239.509 1256.2 243.907 L1256.2 257.564 L1251.92 257.564 L1251.92 231.638 L1256.2 231.638 L1256.2 235.666 Q1257.54 233.305 1259.7 232.171 Q1261.85 231.013 1264.93 231.013 Q1265.37 231.013 1265.9 231.083 Q1266.43 231.129 1267.08 231.245 L1267.1 235.62 Z" fill="#000000" fill-rule="evenodd" fill-opacity="1" /><path clip-path="url(#clip540)" d="M1292.71 243.536 L1292.71 245.62 L1273.12 245.62 Q1273.4 250.018 1275.76 252.333 Q1278.14 254.624 1282.38 254.624 Q1284.83 254.624 1287.13 254.022 Q1289.44 253.42 1291.71 252.217 L1291.71 256.245 Q1289.42 257.217 1287.01 257.726 Q1284.6 258.235 1282.13 258.235 Q1275.92 258.235 1272.29 254.624 Q1268.68 251.013 1268.68 244.856 Q1268.68 238.49 1272.1 234.763 Q1275.55 231.013 1281.39 231.013 Q1286.62 231.013 1289.65 234.393 Q1292.71 237.749 1292.71 243.536 M1288.45 242.286 Q1288.4 238.791 1286.48 236.708 Q1284.58 234.624 1281.43 234.624 Q1277.87 234.624 1275.71 236.638 Q1273.58 238.652 1273.26 242.309 L1288.45 242.286 Z" fill="#000000" fill-rule="evenodd" fill-opacity="1" /><path clip-path="url(#clip540)" d="M1321.25 241.916 L1321.25 257.564 L1316.99 257.564 L1316.99 242.055 Q1316.99 238.374 1315.55 236.546 Q1314.12 234.717 1311.25 234.717 Q1307.8 234.717 1305.81 236.916 Q1303.82 239.115 1303.82 242.911 L1303.82 257.564 L1299.53 257.564 L1299.53 231.638 L1303.82 231.638 L1303.82 235.666 Q1305.34 233.328 1307.4 232.171 Q1309.49 231.013 1312.2 231.013 Q1316.66 231.013 1318.95 233.791 Q1321.25 236.546 1321.25 241.916 Z" fill="#000000" fill-rule="evenodd" fill-opacity="1" /><path clip-path="url(#clip540)" d="M1348.4 232.634 L1348.4 236.615 Q1346.59 235.62 1344.76 235.134 Q1342.96 234.624 1341.11 234.624 Q1336.96 234.624 1334.67 237.263 Q1332.38 239.879 1332.38 244.624 Q1332.38 249.37 1334.67 252.008 Q1336.96 254.624 1341.11 254.624 Q1342.96 254.624 1344.76 254.138 Q1346.59 253.629 1348.4 252.633 L1348.4 256.569 Q1346.62 257.402 1344.7 257.819 Q1342.8 258.235 1340.64 258.235 Q1334.79 258.235 1331.34 254.555 Q1327.89 250.874 1327.89 244.624 Q1327.89 238.282 1331.36 234.647 Q1334.86 231.013 1340.92 231.013 Q1342.89 231.013 1344.76 231.43 Q1346.64 231.823 1348.4 232.634 Z" fill="#000000" fill-rule="evenodd" fill-opacity="1" /><path clip-path="url(#clip540)" d="M1377.98 243.536 L1377.98 245.62 L1358.4 245.62 Q1358.68 250.018 1361.04 252.333 Q1363.42 254.624 1367.66 254.624 Q1370.11 254.624 1372.4 254.022 Q1374.72 253.42 1376.99 252.217 L1376.99 256.245 Q1374.7 257.217 1372.29 257.726 Q1369.88 258.235 1367.4 258.235 Q1361.2 258.235 1357.57 254.624 Q1353.95 251.013 1353.95 244.856 Q1353.95 238.49 1357.38 234.763 Q1360.83 231.013 1366.66 231.013 Q1371.89 231.013 1374.93 234.393 Q1377.98 237.749 1377.98 243.536 M1373.72 242.286 Q1373.68 238.791 1371.76 236.708 Q1369.86 234.624 1366.71 234.624 Q1363.14 234.624 1360.99 236.638 Q1358.86 238.652 1358.54 242.309 L1373.72 242.286 Z" fill="#000000" fill-rule="evenodd" fill-opacity="1" /><path clip-path="url(#clip540)" d="M1413.17 221.546 L1413.17 225.087 L1409.09 225.087 Q1406.8 225.087 1405.9 226.013 Q1405.02 226.939 1405.02 229.347 L1405.02 231.638 L1412.03 231.638 L1412.03 234.948 L1405.02 234.948 L1405.02 257.564 L1400.74 257.564 L1400.74 234.948 L1396.66 234.948 L1396.66 231.638 L1400.74 231.638 L1400.74 229.833 Q1400.74 225.504 1402.75 223.536 Q1404.76 221.546 1409.14 221.546 L1413.17 221.546 Z" fill="#000000" fill-rule="evenodd" fill-opacity="1" /><path clip-path="url(#clip540)" d="M1426.78 234.624 Q1423.35 234.624 1421.36 237.309 Q1419.37 239.971 1419.37 244.624 Q1419.37 249.277 1421.34 251.962 Q1423.33 254.624 1426.78 254.624 Q1430.18 254.624 1432.17 251.939 Q1434.16 249.254 1434.16 244.624 Q1434.16 240.018 1432.17 237.333 Q1430.18 234.624 1426.78 234.624 M1426.78 231.013 Q1432.33 231.013 1435.51 234.624 Q1438.68 238.235 1438.68 244.624 Q1438.68 250.99 1435.51 254.624 Q1432.33 258.235 1426.78 258.235 Q1421.2 258.235 1418.03 254.624 Q1414.88 250.99 1414.88 244.624 Q1414.88 238.235 1418.03 234.624 Q1421.2 231.013 1426.78 231.013 Z" fill="#000000" fill-rule="evenodd" fill-opacity="1" /><path clip-path="url(#clip540)" d="M1460.76 235.62 Q1460.04 235.203 1459.19 235.018 Q1458.35 234.809 1457.33 234.809 Q1453.72 234.809 1451.78 237.171 Q1449.86 239.509 1449.86 243.907 L1449.86 257.564 L1445.57 257.564 L1445.57 231.638 L1449.86 231.638 L1449.86 235.666 Q1451.2 233.305 1453.35 232.171 Q1455.51 231.013 1458.58 231.013 Q1459.02 231.013 1459.56 231.083 Q1460.09 231.129 1460.74 231.245 L1460.76 235.62 Z" fill="#000000" fill-rule="evenodd" fill-opacity="1" /><path clip-path="url(#clip540)" d="M1192.95 276.117 L1192.95 283.478 L1201.72 283.478 L1201.72 286.788 L1192.95 286.788 L1192.95 300.862 Q1192.95 304.034 1193.81 304.936 Q1194.68 305.839 1197.35 305.839 L1201.72 305.839 L1201.72 309.404 L1197.35 309.404 Q1192.42 309.404 1190.54 307.575 Q1188.67 305.723 1188.67 300.862 L1188.67 286.788 L1185.54 286.788 L1185.54 283.478 L1188.67 283.478 L1188.67 276.117 L1192.95 276.117 Z" fill="#000000" fill-rule="evenodd" fill-opacity="1" /><path clip-path="url(#clip540)" d="M1219.11 296.372 Q1213.94 296.372 1211.95 297.552 Q1209.96 298.733 1209.96 301.58 Q1209.96 303.848 1211.44 305.191 Q1212.95 306.51 1215.52 306.51 Q1219.06 306.51 1221.19 304.01 Q1223.34 301.487 1223.34 297.321 L1223.34 296.372 L1219.11 296.372 M1227.6 294.612 L1227.6 309.404 L1223.34 309.404 L1223.34 305.469 Q1221.88 307.83 1219.71 308.964 Q1217.53 310.075 1214.38 310.075 Q1210.4 310.075 1208.04 307.853 Q1205.7 305.608 1205.7 301.858 Q1205.7 297.483 1208.62 295.261 Q1211.56 293.038 1217.37 293.038 L1223.34 293.038 L1223.34 292.622 Q1223.34 289.682 1221.4 288.085 Q1219.48 286.464 1215.98 286.464 Q1213.76 286.464 1211.65 286.997 Q1209.55 287.529 1207.6 288.594 L1207.6 284.659 Q1209.94 283.756 1212.14 283.316 Q1214.34 282.853 1216.42 282.853 Q1222.05 282.853 1224.82 285.77 Q1227.6 288.686 1227.6 294.612 Z" fill="#000000" fill-rule="evenodd" fill-opacity="1" /><path clip-path="url(#clip540)" d="M1251.4 287.46 Q1250.68 287.043 1249.82 286.858 Q1248.99 286.649 1247.97 286.649 Q1244.36 286.649 1242.42 289.011 Q1240.49 291.349 1240.49 295.747 L1240.49 309.404 L1236.21 309.404 L1236.21 283.478 L1240.49 283.478 L1240.49 287.506 Q1241.84 285.145 1243.99 284.011 Q1246.14 282.853 1249.22 282.853 Q1249.66 282.853 1250.19 282.923 Q1250.73 282.969 1251.37 283.085 L1251.4 287.46 Z" fill="#000000" fill-rule="evenodd" fill-opacity="1" /><path clip-path="url(#clip540)" d="M1272.09 296.14 Q1272.09 291.511 1270.17 288.964 Q1268.27 286.418 1264.82 286.418 Q1261.4 286.418 1259.48 288.964 Q1257.58 291.511 1257.58 296.14 Q1257.58 300.747 1259.48 303.293 Q1261.4 305.839 1264.82 305.839 Q1268.27 305.839 1270.17 303.293 Q1272.09 300.747 1272.09 296.14 M1276.35 306.186 Q1276.35 312.807 1273.41 316.024 Q1270.47 319.265 1264.41 319.265 Q1262.16 319.265 1260.17 318.918 Q1258.18 318.594 1256.3 317.899 L1256.3 313.756 Q1258.18 314.774 1260.01 315.26 Q1261.84 315.747 1263.74 315.747 Q1267.93 315.747 1270.01 313.547 Q1272.09 311.372 1272.09 306.95 L1272.09 304.844 Q1270.77 307.135 1268.71 308.27 Q1266.65 309.404 1263.78 309.404 Q1259.01 309.404 1256.1 305.77 Q1253.18 302.135 1253.18 296.14 Q1253.18 290.122 1256.1 286.487 Q1259.01 282.853 1263.78 282.853 Q1266.65 282.853 1268.71 283.987 Q1270.77 285.122 1272.09 287.413 L1272.09 283.478 L1276.35 283.478 L1276.35 306.186 Z" fill="#000000" fill-rule="evenodd" fill-opacity="1" /><path clip-path="url(#clip540)" d="M1307.3 295.376 L1307.3 297.46 L1287.72 297.46 Q1287.99 301.858 1290.36 304.173 Q1292.74 306.464 1296.98 306.464 Q1299.43 306.464 1301.72 305.862 Q1304.04 305.26 1306.3 304.057 L1306.3 308.085 Q1304.01 309.057 1301.61 309.566 Q1299.2 310.075 1296.72 310.075 Q1290.52 310.075 1286.88 306.464 Q1283.27 302.853 1283.27 296.696 Q1283.27 290.33 1286.7 286.603 Q1290.15 282.853 1295.98 282.853 Q1301.21 282.853 1304.24 286.233 Q1307.3 289.589 1307.3 295.376 M1303.04 294.126 Q1302.99 290.631 1301.07 288.548 Q1299.17 286.464 1296.03 286.464 Q1292.46 286.464 1290.31 288.478 Q1288.18 290.492 1287.86 294.149 L1303.04 294.126 Z" fill="#000000" fill-rule="evenodd" fill-opacity="1" /><path clip-path="url(#clip540)" d="M1318.5 276.117 L1318.5 283.478 L1327.28 283.478 L1327.28 286.788 L1318.5 286.788 L1318.5 300.862 Q1318.5 304.034 1319.36 304.936 Q1320.24 305.839 1322.9 305.839 L1327.28 305.839 L1327.28 309.404 L1322.9 309.404 Q1317.97 309.404 1316.1 307.575 Q1314.22 305.723 1314.22 300.862 L1314.22 286.788 L1311.1 286.788 L1311.1 283.478 L1314.22 283.478 L1314.22 276.117 L1318.5 276.117 Z" fill="#000000" fill-rule="evenodd" fill-opacity="1" /><path clip-path="url(#clip540)" d="M1361.07 273.386 L1361.07 276.927 L1357 276.927 Q1354.71 276.927 1353.8 277.853 Q1352.92 278.779 1352.92 281.187 L1352.92 283.478 L1359.94 283.478 L1359.94 286.788 L1352.92 286.788 L1352.92 309.404 L1348.64 309.404 L1348.64 286.788 L1344.57 286.788 L1344.57 283.478 L1348.64 283.478 L1348.64 281.673 Q1348.64 277.344 1350.66 275.376 Q1352.67 273.386 1357.04 273.386 L1361.07 273.386 Z" fill="#000000" fill-rule="evenodd" fill-opacity="1" /><path clip-path="url(#clip540)" d="M1364.64 283.478 L1368.9 283.478 L1368.9 309.404 L1364.64 309.404 L1364.64 283.478 M1364.64 273.386 L1368.9 273.386 L1368.9 278.779 L1364.64 278.779 L1364.64 273.386 Z" fill="#000000" fill-rule="evenodd" fill-opacity="1" /><path clip-path="url(#clip540)" d="M1392.83 287.46 Q1392.11 287.043 1391.26 286.858 Q1390.42 286.649 1389.41 286.649 Q1385.79 286.649 1383.85 289.011 Q1381.93 291.349 1381.93 295.747 L1381.93 309.404 L1377.65 309.404 L1377.65 283.478 L1381.93 283.478 L1381.93 287.506 Q1383.27 285.145 1385.42 284.011 Q1387.58 282.853 1390.66 282.853 Q1391.1 282.853 1391.63 282.923 Q1392.16 282.969 1392.81 283.085 L1392.83 287.46 Z" fill="#000000" fill-rule="evenodd" fill-opacity="1" /><path clip-path="url(#clip540)" d="M1413.83 284.242 L1413.83 288.27 Q1412.02 287.344 1410.08 286.881 Q1408.13 286.418 1406.05 286.418 Q1402.88 286.418 1401.28 287.39 Q1399.71 288.362 1399.71 290.307 Q1399.71 291.788 1400.84 292.645 Q1401.98 293.478 1405.4 294.242 L1406.86 294.566 Q1411.4 295.538 1413.29 297.321 Q1415.22 299.08 1415.22 302.251 Q1415.22 305.862 1412.35 307.969 Q1409.5 310.075 1404.5 310.075 Q1402.42 310.075 1400.15 309.659 Q1397.9 309.265 1395.4 308.455 L1395.4 304.057 Q1397.76 305.284 1400.05 305.909 Q1402.35 306.51 1404.59 306.51 Q1407.6 306.51 1409.22 305.492 Q1410.84 304.45 1410.84 302.575 Q1410.84 300.839 1409.66 299.913 Q1408.5 298.987 1404.54 298.131 L1403.06 297.784 Q1399.1 296.95 1397.35 295.237 Q1395.59 293.501 1395.59 290.492 Q1395.59 286.835 1398.18 284.844 Q1400.77 282.853 1405.54 282.853 Q1407.9 282.853 1409.98 283.2 Q1412.07 283.548 1413.83 284.242 Z" fill="#000000" fill-rule="evenodd" fill-opacity="1" /><path clip-path="url(#clip540)" d="M1426.21 276.117 L1426.21 283.478 L1434.98 283.478 L1434.98 286.788 L1426.21 286.788 L1426.21 300.862 Q1426.21 304.034 1427.07 304.936 Q1427.95 305.839 1430.61 305.839 L1434.98 305.839 L1434.98 309.404 L1430.61 309.404 Q1425.68 309.404 1423.8 307.575 Q1421.93 305.723 1421.93 300.862 L1421.93 286.788 L1418.8 286.788 L1418.8 283.478 L1421.93 283.478 L1421.93 276.117 L1426.21 276.117 Z" fill="#000000" fill-rule="evenodd" fill-opacity="1" /><path clip-path="url(#clip540)" d="
M1075.11 350.876 L1161.89 350.876 L1161.89 302.492 L1075.11 302.492 L1075.11 350.876  Z
  " fill="#006d60" fill-rule="evenodd" fill-opacity="1"/>
<polyline clip-path="url(#clip540)" style="stroke:#000000; stroke-linecap:butt; stroke-linejoin:round; stroke-width:4; stroke-opacity:1; fill:none" points="
  1075.11,350.876 1161.89,350.876 1161.89,302.492 1075.11,302.492 1075.11,350.876 
  "/>
<path clip-path="url(#clip540)" d="M1191.96 313.478 L1180.15 331.927 L1191.96 331.927 L1191.96 313.478 M1190.73 309.404 L1196.61 309.404 L1196.61 331.927 L1201.54 331.927 L1201.54 335.816 L1196.61 335.816 L1196.61 343.964 L1191.96 343.964 L1191.96 335.816 L1176.35 335.816 L1176.35 331.302 L1190.73 309.404 Z" fill="#000000" fill-rule="evenodd" fill-opacity="1" /><path clip-path="url(#clip540)" d="
M1075.11 411.356 L1161.89 411.356 L1161.89 362.972 L1075.11 362.972 L1075.11 411.356  Z
  " fill="#008569" fill-rule="evenodd" fill-opacity="1"/>
<polyline clip-path="url(#clip540)" style="stroke:#000000; stroke-linecap:butt; stroke-linejoin:round; stroke-width:4; stroke-opacity:1; fill:none" points="
  1075.11,411.356 1161.89,411.356 1161.89,362.972 1075.11,362.972 1075.11,411.356 
  "/>
<path clip-path="url(#clip540)" d="M1191.98 385.81 Q1195.34 386.527 1197.21 388.796 Q1199.11 391.064 1199.11 394.398 Q1199.11 399.513 1195.59 402.314 Q1192.07 405.115 1185.59 405.115 Q1183.41 405.115 1181.1 404.675 Q1178.81 404.259 1176.35 403.402 L1176.35 398.888 Q1178.3 400.023 1180.61 400.601 Q1182.93 401.18 1185.45 401.18 Q1189.85 401.18 1192.14 399.444 Q1194.46 397.708 1194.46 394.398 Q1194.46 391.342 1192.3 389.629 Q1190.17 387.893 1186.35 387.893 L1182.33 387.893 L1182.33 384.051 L1186.54 384.051 Q1189.99 384.051 1191.82 382.685 Q1193.65 381.296 1193.65 378.703 Q1193.65 376.041 1191.75 374.629 Q1189.87 373.194 1186.35 373.194 Q1184.43 373.194 1182.23 373.611 Q1180.03 374.027 1177.4 374.907 L1177.4 370.74 Q1180.06 370 1182.37 369.629 Q1184.71 369.259 1186.77 369.259 Q1192.09 369.259 1195.2 371.69 Q1198.3 374.097 1198.3 378.217 Q1198.3 381.088 1196.65 383.078 Q1195.01 385.046 1191.98 385.81 Z" fill="#000000" fill-rule="evenodd" fill-opacity="1" /><path clip-path="url(#clip540)" d="
M1075.11 471.836 L1161.89 471.836 L1161.89 423.452 L1075.11 423.452 L1075.11 471.836  Z
  " fill="#009e73" fill-rule="evenodd" fill-opacity="1"/>
<polyline clip-path="url(#clip540)" style="stroke:#000000; stroke-linecap:butt; stroke-linejoin:round; stroke-width:4; stroke-opacity:1; fill:none" points="
  1075.11,471.836 1161.89,471.836 1161.89,423.452 1075.11,423.452 1075.11,471.836 
  "/>
<path clip-path="url(#clip540)" d="M1181.98 460.989 L1198.3 460.989 L1198.3 464.924 L1176.35 464.924 L1176.35 460.989 Q1179.02 458.234 1183.6 453.605 Q1188.21 448.952 1189.39 447.609 Q1191.63 445.086 1192.51 443.35 Q1193.41 441.591 1193.41 439.901 Q1193.41 437.146 1191.47 435.41 Q1189.55 433.674 1186.45 433.674 Q1184.25 433.674 1181.79 434.438 Q1179.36 435.202 1176.59 436.753 L1176.59 432.031 Q1179.41 430.896 1181.86 430.318 Q1184.32 429.739 1186.35 429.739 Q1191.72 429.739 1194.92 432.424 Q1198.11 435.109 1198.11 439.6 Q1198.11 441.73 1197.3 443.651 Q1196.52 445.549 1194.41 448.142 Q1193.83 448.813 1190.73 452.031 Q1187.63 455.225 1181.98 460.989 Z" fill="#000000" fill-rule="evenodd" fill-opacity="1" /><path clip-path="url(#clip540)" d="
M1075.11 532.316 L1161.89 532.316 L1161.89 483.932 L1075.11 483.932 L1075.11 532.316  Z
  " fill="#77c6b0" fill-rule="evenodd" fill-opacity="1"/>
<polyline clip-path="url(#clip540)" style="stroke:#000000; stroke-linecap:butt; stroke-linejoin:round; stroke-width:4; stroke-opacity:1; fill:none" points="
  1075.11,532.316 1161.89,532.316 1161.89,483.932 1075.11,483.932 1075.11,532.316 
  "/>
<path clip-path="url(#clip540)" d="M1177.03 521.469 L1184.66 521.469 L1184.66 495.103 L1176.35 496.77 L1176.35 492.511 L1184.62 490.844 L1189.29 490.844 L1189.29 521.469 L1196.93 521.469 L1196.93 525.404 L1177.03 525.404 L1177.03 521.469 Z" fill="#000000" fill-rule="evenodd" fill-opacity="1" /><path clip-path="url(#clip540)" d="
M1075.11 592.796 L1161.89 592.796 L1161.89 544.412 L1075.11 544.412 L1075.11 592.796  Z
  " fill="#eeeeee" fill-rule="evenodd" fill-opacity="1"/>
<polyline clip-path="url(#clip540)" style="stroke:#000000; stroke-linecap:butt; stroke-linejoin:round; stroke-width:4; stroke-opacity:1; fill:none" points="
  1075.11,592.796 1161.89,592.796 1161.89,544.412 1075.11,544.412 1075.11,592.796 
  "/>
<path clip-path="url(#clip540)" d="M1188.3 554.403 Q1184.69 554.403 1182.86 557.967 Q1181.05 561.509 1181.05 568.639 Q1181.05 575.745 1182.86 579.31 Q1184.69 582.852 1188.3 582.852 Q1191.93 582.852 1193.74 579.31 Q1195.57 575.745 1195.57 568.639 Q1195.57 561.509 1193.74 557.967 Q1191.93 554.403 1188.3 554.403 M1188.3 550.699 Q1194.11 550.699 1197.16 555.305 Q1200.24 559.889 1200.24 568.639 Q1200.24 577.365 1197.16 581.972 Q1194.11 586.555 1188.3 586.555 Q1182.49 586.555 1179.41 581.972 Q1176.35 577.365 1176.35 568.639 Q1176.35 559.889 1179.41 555.305 Q1182.49 550.699 1188.3 550.699 Z" fill="#000000" fill-rule="evenodd" fill-opacity="1" /><path clip-path="url(#clip540)" d="
M1075.11 653.276 L1161.89 653.276 L1161.89 604.892 L1075.11 604.892 L1075.11 653.276  Z
  " fill="#ddb3ca" fill-rule="evenodd" fill-opacity="1"/>
<polyline clip-path="url(#clip540)" style="stroke:#000000; stroke-linecap:butt; stroke-linejoin:round; stroke-width:4; stroke-opacity:1; fill:none" points="
  1075.11,653.276 1161.89,653.276 1161.89,604.892 1075.11,604.892 1075.11,653.276 
  "/>
<path clip-path="url(#clip540)" d="M1176.35 631.48 L1188.83 631.48 L1188.83 635.276 L1176.35 635.276 L1176.35 631.48 Z" fill="#000000" fill-rule="evenodd" fill-opacity="1" /><path clip-path="url(#clip540)" d="M1197.03 642.429 L1204.66 642.429 L1204.66 616.063 L1196.35 617.73 L1196.35 613.471 L1204.62 611.804 L1209.29 611.804 L1209.29 642.429 L1216.93 642.429 L1216.93 646.364 L1197.03 646.364 L1197.03 642.429 Z" fill="#000000" fill-rule="evenodd" fill-opacity="1" /><path clip-path="url(#clip540)" d="
M1075.11 713.756 L1161.89 713.756 L1161.89 665.372 L1075.11 665.372 L1075.11 713.756  Z
  " fill="#cc79a7" fill-rule="evenodd" fill-opacity="1"/>
<polyline clip-path="url(#clip540)" style="stroke:#000000; stroke-linecap:butt; stroke-linejoin:round; stroke-width:4; stroke-opacity:1; fill:none" points="
  1075.11,713.756 1161.89,713.756 1161.89,665.372 1075.11,665.372 1075.11,713.756 
  "/>
<path clip-path="url(#clip540)" d="M1176.35 691.96 L1188.83 691.96 L1188.83 695.756 L1176.35 695.756 L1176.35 691.96 Z" fill="#000000" fill-rule="evenodd" fill-opacity="1" /><path clip-path="url(#clip540)" d="M1200.24 702.909 L1216.56 702.909 L1216.56 706.844 L1194.62 706.844 L1194.62 702.909 Q1197.28 700.154 1201.86 695.525 Q1206.47 690.872 1207.65 689.529 Q1209.9 687.006 1210.78 685.27 Q1211.68 683.511 1211.68 681.821 Q1211.68 679.066 1209.73 677.33 Q1207.81 675.594 1204.71 675.594 Q1202.51 675.594 1200.06 676.358 Q1197.63 677.122 1194.85 678.673 L1194.85 673.951 Q1197.67 672.816 1200.13 672.238 Q1202.58 671.659 1204.62 671.659 Q1209.99 671.659 1213.18 674.344 Q1216.38 677.029 1216.38 681.52 Q1216.38 683.65 1215.57 685.571 Q1214.78 687.469 1212.67 690.062 Q1212.09 690.733 1208.99 693.951 Q1205.89 697.145 1200.24 702.909 Z" fill="#000000" fill-rule="evenodd" fill-opacity="1" /><path clip-path="url(#clip540)" d="
M1075.11 774.236 L1161.89 774.236 L1161.89 725.852 L1075.11 725.852 L1075.11 774.236  Z
  " fill="#b55585" fill-rule="evenodd" fill-opacity="1"/>
<polyline clip-path="url(#clip540)" style="stroke:#000000; stroke-linecap:butt; stroke-linejoin:round; stroke-width:4; stroke-opacity:1; fill:none" points="
  1075.11,774.236 1161.89,774.236 1161.89,725.852 1075.11,725.852 1075.11,774.236 
  "/>
<path clip-path="url(#clip540)" d="M1176.35 752.44 L1188.83 752.44 L1188.83 756.236 L1176.35 756.236 L1176.35 752.44 Z" fill="#000000" fill-rule="evenodd" fill-opacity="1" /><path clip-path="url(#clip540)" d="M1210.38 748.69 Q1213.74 749.407 1215.61 751.676 Q1217.51 753.944 1217.51 757.278 Q1217.51 762.393 1213.99 765.194 Q1210.47 767.995 1203.99 767.995 Q1201.82 767.995 1199.5 767.555 Q1197.21 767.139 1194.76 766.282 L1194.76 761.768 Q1196.7 762.903 1199.02 763.481 Q1201.33 764.06 1203.85 764.06 Q1208.25 764.06 1210.54 762.324 Q1212.86 760.588 1212.86 757.278 Q1212.86 754.222 1210.71 752.509 Q1208.58 750.773 1204.76 750.773 L1200.73 750.773 L1200.73 746.931 L1204.94 746.931 Q1208.39 746.931 1210.22 745.565 Q1212.05 744.176 1212.05 741.583 Q1212.05 738.921 1210.15 737.509 Q1208.28 736.074 1204.76 736.074 Q1202.84 736.074 1200.64 736.491 Q1198.44 736.907 1195.8 737.787 L1195.8 733.62 Q1198.46 732.88 1200.78 732.509 Q1203.11 732.139 1205.17 732.139 Q1210.5 732.139 1213.6 734.57 Q1216.7 736.977 1216.7 741.097 Q1216.7 743.968 1215.06 745.958 Q1213.41 747.926 1210.38 748.69 Z" fill="#000000" fill-rule="evenodd" fill-opacity="1" /><path clip-path="url(#clip540)" d="
M1075.11 834.716 L1161.89 834.716 L1161.89 786.332 L1075.11 786.332 L1075.11 834.716  Z
  " fill="#9e3264" fill-rule="evenodd" fill-opacity="1"/>
<polyline clip-path="url(#clip540)" style="stroke:#000000; stroke-linecap:butt; stroke-linejoin:round; stroke-width:4; stroke-opacity:1; fill:none" points="
  1075.11,834.716 1161.89,834.716 1161.89,786.332 1075.11,786.332 1075.11,834.716 
  "/>
<path clip-path="url(#clip540)" d="M1176.35 812.92 L1188.83 812.92 L1188.83 816.716 L1176.35 816.716 L1176.35 812.92 Z" fill="#000000" fill-rule="evenodd" fill-opacity="1" /><path clip-path="url(#clip540)" d="M1209.06 797.318 L1197.26 815.767 L1209.06 815.767 L1209.06 797.318 M1207.84 793.244 L1213.71 793.244 L1213.71 815.767 L1218.65 815.767 L1218.65 819.656 L1213.71 819.656 L1213.71 827.804 L1209.06 827.804 L1209.06 819.656 L1193.46 819.656 L1193.46 815.142 L1207.84 793.244 Z" fill="#000000" fill-rule="evenodd" fill-opacity="1" /></svg>
