<?xml version="1.0" encoding="utf-8"?>
<svg xmlns="http://www.w3.org/2000/svg" xmlns:xlink="http://www.w3.org/1999/xlink" width="400" height="320" viewBox="0 0 1600 1280">
<defs>
  <clipPath id="clip980">
    <rect x="0" y="0" width="1600" height="1280"/>
  </clipPath>
</defs>
<path clip-path="url(#clip980)" d="
M0 1280 L1600 1280 L1600 0 L0 0  Z
  " fill="#ffffff" fill-rule="evenodd" fill-opacity="1"/>
<defs>
  <clipPath id="clip981">
    <rect x="320" y="0" width="1121" height="1121"/>
  </clipPath>
</defs>
<path clip-path="url(#clip980)" d="
M251.046 1089.96 L1017.26 1089.96 L1017.26 47.2441 L251.046 47.2441  Z
  " fill="#ffffff" fill-rule="evenodd" fill-opacity="1"/>
<defs>
  <clipPath id="clip982">
    <rect x="251" y="47" width="767" height="1044"/>
  </clipPath>
</defs>
<polyline clip-path="url(#clip982)" style="stroke:#000000; stroke-linecap:butt; stroke-linejoin:round; stroke-width:2; stroke-opacity:0.1; fill:none" points="
  444.728,1089.96 444.728,47.2441 
  "/>
<polyline clip-path="url(#clip982)" style="stroke:#000000; stroke-linecap:butt; stroke-linejoin:round; stroke-width:2; stroke-opacity:0.1; fill:none" points="
  823.575,1089.96 823.575,47.2441 
  "/>
<polyline clip-path="url(#clip980)" style="stroke:#000000; stroke-linecap:butt; stroke-linejoin:round; stroke-width:4; stroke-opacity:1; fill:none" points="
  251.046,1089.96 1017.26,1089.96 
  "/>
<polyline clip-path="url(#clip980)" style="stroke:#000000; stroke-linecap:butt; stroke-linejoin:round; stroke-width:4; stroke-opacity:1; fill:none" points="
  444.728,1089.96 444.728,1077.45 
  "/>
<polyline clip-path="url(#clip980)" style="stroke:#000000; stroke-linecap:butt; stroke-linejoin:round; stroke-width:4; stroke-opacity:1; fill:none" points="
  823.575,1089.96 823.575,1077.45 
  "/>
<path clip-path="url(#clip980)" d="M372.494 1131.3 Q372.494 1126.6 370.55 1123.94 Q368.629 1121.25 365.249 1121.25 Q361.869 1121.25 359.925 1123.94 Q358.004 1126.6 358.004 1131.3 Q358.004 1136 359.925 1138.68 Q361.869 1141.34 365.249 1141.34 Q368.629 1141.34 370.55 1138.68 Q372.494 1136 372.494 1131.3 M358.004 1122.25 Q359.346 1119.93 361.383 1118.82 Q363.443 1117.69 366.291 1117.69 Q371.013 1117.69 373.953 1121.44 Q376.916 1125.19 376.916 1131.3 Q376.916 1137.41 373.953 1141.16 Q371.013 1144.91 366.291 1144.91 Q363.443 1144.91 361.383 1143.8 Q359.346 1142.66 358.004 1140.35 L358.004 1144.24 L353.721 1144.24 L353.721 1108.22 L358.004 1108.22 L358.004 1122.25 Z" fill="#000000" fill-rule="evenodd" fill-opacity="1" /><path clip-path="url(#clip980)" d="M383.976 1118.31 L388.235 1118.31 L388.235 1144.24 L383.976 1144.24 L383.976 1118.31 M383.976 1108.22 L388.235 1108.22 L388.235 1113.61 L383.976 1113.61 L383.976 1108.22 Z" fill="#000000" fill-rule="evenodd" fill-opacity="1" /><path clip-path="url(#clip980)" d="M417.332 1123.29 Q418.929 1120.42 421.151 1119.05 Q423.374 1117.69 426.383 1117.69 Q430.434 1117.69 432.633 1120.53 Q434.832 1123.36 434.832 1128.59 L434.832 1144.24 L430.55 1144.24 L430.55 1128.73 Q430.55 1125 429.23 1123.19 Q427.911 1121.39 425.202 1121.39 Q421.892 1121.39 419.971 1123.59 Q418.05 1125.79 418.05 1129.58 L418.05 1144.24 L413.767 1144.24 L413.767 1128.73 Q413.767 1124.98 412.448 1123.19 Q411.128 1121.39 408.374 1121.39 Q405.11 1121.39 403.189 1123.61 Q401.267 1125.81 401.267 1129.58 L401.267 1144.24 L396.985 1144.24 L396.985 1118.31 L401.267 1118.31 L401.267 1122.34 Q402.726 1119.95 404.763 1118.82 Q406.8 1117.69 409.601 1117.69 Q412.425 1117.69 414.392 1119.12 Q416.383 1120.56 417.332 1123.29 Z" fill="#000000" fill-rule="evenodd" fill-opacity="1" /><path clip-path="url(#clip980)" d="M453.373 1121.3 Q449.948 1121.3 447.957 1123.98 Q445.966 1126.64 445.966 1131.3 Q445.966 1135.95 447.934 1138.63 Q449.924 1141.3 453.373 1141.3 Q456.776 1141.3 458.767 1138.61 Q460.758 1135.93 460.758 1131.3 Q460.758 1126.69 458.767 1124 Q456.776 1121.3 453.373 1121.3 M453.373 1117.69 Q458.929 1117.69 462.1 1121.3 Q465.272 1124.91 465.272 1131.3 Q465.272 1137.66 462.1 1141.3 Q458.929 1144.91 453.373 1144.91 Q447.795 1144.91 444.624 1141.3 Q441.475 1137.66 441.475 1131.3 Q441.475 1124.91 444.624 1121.3 Q447.795 1117.69 453.373 1117.69 Z" fill="#000000" fill-rule="evenodd" fill-opacity="1" /><path clip-path="url(#clip980)" d="M489.392 1122.25 L489.392 1108.22 L493.651 1108.22 L493.651 1144.24 L489.392 1144.24 L489.392 1140.35 Q488.049 1142.66 485.989 1143.8 Q483.952 1144.91 481.082 1144.91 Q476.383 1144.91 473.42 1141.16 Q470.48 1137.41 470.48 1131.3 Q470.48 1125.19 473.42 1121.44 Q476.383 1117.69 481.082 1117.69 Q483.952 1117.69 485.989 1118.82 Q488.049 1119.93 489.392 1122.25 M474.878 1131.3 Q474.878 1136 476.799 1138.68 Q478.744 1141.34 482.123 1141.34 Q485.503 1141.34 487.447 1138.68 Q489.392 1136 489.392 1131.3 Q489.392 1126.6 487.447 1123.94 Q485.503 1121.25 482.123 1121.25 Q478.744 1121.25 476.799 1123.94 Q474.878 1126.6 474.878 1131.3 Z" fill="#000000" fill-rule="evenodd" fill-opacity="1" /><path clip-path="url(#clip980)" d="M514.206 1131.2 Q509.044 1131.2 507.054 1132.38 Q505.063 1133.56 505.063 1136.41 Q505.063 1138.68 506.544 1140.02 Q508.049 1141.34 510.619 1141.34 Q514.16 1141.34 516.29 1138.84 Q518.443 1136.32 518.443 1132.15 L518.443 1131.2 L514.206 1131.2 M522.702 1129.44 L522.702 1144.24 L518.443 1144.24 L518.443 1140.3 Q516.984 1142.66 514.808 1143.8 Q512.632 1144.91 509.484 1144.91 Q505.503 1144.91 503.142 1142.68 Q500.804 1140.44 500.804 1136.69 Q500.804 1132.31 503.72 1130.09 Q506.66 1127.87 512.47 1127.87 L518.443 1127.87 L518.443 1127.45 Q518.443 1124.51 516.498 1122.92 Q514.577 1121.3 511.081 1121.3 Q508.859 1121.3 506.753 1121.83 Q504.646 1122.36 502.702 1123.43 L502.702 1119.49 Q505.04 1118.59 507.239 1118.15 Q509.438 1117.69 511.521 1117.69 Q517.146 1117.69 519.924 1120.6 Q522.702 1123.52 522.702 1129.44 Z" fill="#000000" fill-rule="evenodd" fill-opacity="1" /><path clip-path="url(#clip980)" d="M531.475 1108.22 L535.734 1108.22 L535.734 1144.24 L531.475 1144.24 L531.475 1108.22 Z" fill="#000000" fill-rule="evenodd" fill-opacity="1" /><path clip-path="url(#clip980)" d="M717.429 1134 L717.429 1118.31 L721.688 1118.31 L721.688 1133.84 Q721.688 1137.52 723.124 1139.37 Q724.559 1141.2 727.429 1141.2 Q730.878 1141.2 732.869 1139 Q734.883 1136.81 734.883 1133.01 L734.883 1118.31 L739.142 1118.31 L739.142 1144.24 L734.883 1144.24 L734.883 1140.25 Q733.332 1142.62 731.272 1143.77 Q729.235 1144.91 726.526 1144.91 Q722.059 1144.91 719.744 1142.13 Q717.429 1139.35 717.429 1134 M728.147 1117.69 L728.147 1117.69 Z" fill="#000000" fill-rule="evenodd" fill-opacity="1" /><path clip-path="url(#clip980)" d="M769.466 1128.59 L769.466 1144.24 L765.207 1144.24 L765.207 1128.73 Q765.207 1125.05 763.772 1123.22 Q762.336 1121.39 759.466 1121.39 Q756.017 1121.39 754.026 1123.59 Q752.036 1125.79 752.036 1129.58 L752.036 1144.24 L747.753 1144.24 L747.753 1118.31 L752.036 1118.31 L752.036 1122.34 Q753.563 1120 755.623 1118.84 Q757.707 1117.69 760.415 1117.69 Q764.883 1117.69 767.174 1120.46 Q769.466 1123.22 769.466 1128.59 Z" fill="#000000" fill-rule="evenodd" fill-opacity="1" /><path clip-path="url(#clip980)" d="M777.961 1118.31 L782.221 1118.31 L782.221 1144.24 L777.961 1144.24 L777.961 1118.31 M777.961 1108.22 L782.221 1108.22 L782.221 1113.61 L777.961 1113.61 L777.961 1108.22 Z" fill="#000000" fill-rule="evenodd" fill-opacity="1" /><path clip-path="url(#clip980)" d="M811.318 1123.29 Q812.915 1120.42 815.137 1119.05 Q817.359 1117.69 820.369 1117.69 Q824.419 1117.69 826.618 1120.53 Q828.818 1123.36 828.818 1128.59 L828.818 1144.24 L824.535 1144.24 L824.535 1128.73 Q824.535 1125 823.216 1123.19 Q821.896 1121.39 819.188 1121.39 Q815.878 1121.39 813.957 1123.59 Q812.035 1125.79 812.035 1129.58 L812.035 1144.24 L807.753 1144.24 L807.753 1128.73 Q807.753 1124.98 806.433 1123.19 Q805.114 1121.39 802.359 1121.39 Q799.095 1121.39 797.174 1123.61 Q795.253 1125.81 795.253 1129.58 L795.253 1144.24 L790.971 1144.24 L790.971 1118.31 L795.253 1118.31 L795.253 1122.34 Q796.711 1119.95 798.748 1118.82 Q800.785 1117.69 803.586 1117.69 Q806.41 1117.69 808.378 1119.12 Q810.369 1120.56 811.318 1123.29 Z" fill="#000000" fill-rule="evenodd" fill-opacity="1" /><path clip-path="url(#clip980)" d="M847.359 1121.3 Q843.933 1121.3 841.942 1123.98 Q839.952 1126.64 839.952 1131.3 Q839.952 1135.95 841.919 1138.63 Q843.91 1141.3 847.359 1141.3 Q850.762 1141.3 852.753 1138.61 Q854.743 1135.93 854.743 1131.3 Q854.743 1126.69 852.753 1124 Q850.762 1121.3 847.359 1121.3 M847.359 1117.69 Q852.915 1117.69 856.086 1121.3 Q859.257 1124.91 859.257 1131.3 Q859.257 1137.66 856.086 1141.3 Q852.915 1144.91 847.359 1144.91 Q841.78 1144.91 838.609 1141.3 Q835.461 1137.66 835.461 1131.3 Q835.461 1124.91 838.609 1121.3 Q841.78 1117.69 847.359 1117.69 Z" fill="#000000" fill-rule="evenodd" fill-opacity="1" /><path clip-path="url(#clip980)" d="M883.377 1122.25 L883.377 1108.22 L887.637 1108.22 L887.637 1144.24 L883.377 1144.24 L883.377 1140.35 Q882.035 1142.66 879.975 1143.8 Q877.938 1144.91 875.067 1144.91 Q870.368 1144.91 867.405 1141.16 Q864.465 1137.41 864.465 1131.3 Q864.465 1125.19 867.405 1121.44 Q870.368 1117.69 875.067 1117.69 Q877.938 1117.69 879.975 1118.82 Q882.035 1119.93 883.377 1122.25 M868.864 1131.3 Q868.864 1136 870.785 1138.68 Q872.729 1141.34 876.109 1141.34 Q879.489 1141.34 881.433 1138.68 Q883.377 1136 883.377 1131.3 Q883.377 1126.6 881.433 1123.94 Q879.489 1121.25 876.109 1121.25 Q872.729 1121.25 870.785 1123.94 Q868.864 1126.6 868.864 1131.3 Z" fill="#000000" fill-rule="evenodd" fill-opacity="1" /><path clip-path="url(#clip980)" d="M908.192 1131.2 Q903.03 1131.2 901.039 1132.38 Q899.049 1133.56 899.049 1136.41 Q899.049 1138.68 900.53 1140.02 Q902.035 1141.34 904.604 1141.34 Q908.146 1141.34 910.275 1138.84 Q912.428 1136.32 912.428 1132.15 L912.428 1131.2 L908.192 1131.2 M916.687 1129.44 L916.687 1144.24 L912.428 1144.24 L912.428 1140.3 Q910.97 1142.66 908.794 1143.8 Q906.618 1144.91 903.47 1144.91 Q899.488 1144.91 897.127 1142.68 Q894.789 1140.44 894.789 1136.69 Q894.789 1132.31 897.706 1130.09 Q900.646 1127.87 906.456 1127.87 L912.428 1127.87 L912.428 1127.45 Q912.428 1124.51 910.484 1122.92 Q908.562 1121.3 905.067 1121.3 Q902.845 1121.3 900.738 1121.83 Q898.632 1122.36 896.688 1123.43 L896.688 1119.49 Q899.025 1118.59 901.225 1118.15 Q903.424 1117.69 905.507 1117.69 Q911.132 1117.69 913.91 1120.6 Q916.687 1123.52 916.687 1129.44 Z" fill="#000000" fill-rule="evenodd" fill-opacity="1" /><path clip-path="url(#clip980)" d="M925.461 1108.22 L929.72 1108.22 L929.72 1144.24 L925.461 1144.24 L925.461 1108.22 Z" fill="#000000" fill-rule="evenodd" fill-opacity="1" /><path clip-path="url(#clip980)" d="M516.226 1188.55 L516.226 1194.02 Q513.744 1192.65 511.229 1191.99 Q508.747 1191.29 506.2 1191.29 Q500.503 1191.29 497.352 1194.91 Q494.201 1198.51 494.201 1205.04 Q494.201 1211.56 497.352 1215.19 Q500.503 1218.79 506.2 1218.79 Q508.747 1218.79 511.229 1218.12 Q513.744 1217.42 516.226 1216.05 L516.226 1221.46 Q513.776 1222.61 511.134 1223.18 Q508.524 1223.75 505.564 1223.75 Q497.511 1223.75 492.769 1218.69 Q488.026 1213.63 488.026 1205.04 Q488.026 1196.31 492.801 1191.32 Q497.607 1186.32 505.946 1186.32 Q508.651 1186.32 511.229 1186.89 Q513.807 1187.43 516.226 1188.55 Z" fill="#000000" fill-rule="evenodd" fill-opacity="1" /><path clip-path="url(#clip980)" d="M540.225 1191.29 Q535.514 1191.29 532.777 1194.98 Q530.04 1198.64 530.04 1205.04 Q530.04 1211.43 532.745 1215.13 Q535.483 1218.79 540.225 1218.79 Q544.904 1218.79 547.641 1215.09 Q550.378 1211.4 550.378 1205.04 Q550.378 1198.7 547.641 1195.01 Q544.904 1191.29 540.225 1191.29 M540.225 1186.32 Q547.864 1186.32 552.224 1191.29 Q556.585 1196.25 556.585 1205.04 Q556.585 1213.79 552.224 1218.79 Q547.864 1223.75 540.225 1223.75 Q532.554 1223.75 528.194 1218.79 Q523.865 1213.79 523.865 1205.04 Q523.865 1196.25 528.194 1191.29 Q532.554 1186.32 540.225 1186.32 Z" fill="#000000" fill-rule="evenodd" fill-opacity="1" /><path clip-path="url(#clip980)" d="M595.925 1201.31 L595.925 1222.83 L590.069 1222.83 L590.069 1201.5 Q590.069 1196.44 588.095 1193.93 Q586.122 1191.41 582.175 1191.41 Q577.433 1191.41 574.695 1194.44 Q571.958 1197.46 571.958 1202.68 L571.958 1222.83 L566.07 1222.83 L566.07 1187.18 L571.958 1187.18 L571.958 1192.72 Q574.059 1189.5 576.892 1187.91 Q579.756 1186.32 583.48 1186.32 Q589.623 1186.32 592.774 1190.14 Q595.925 1193.93 595.925 1201.31 Z" fill="#000000" fill-rule="evenodd" fill-opacity="1" /><path clip-path="url(#clip980)" d="M631.064 1192.59 L631.064 1173.3 L636.92 1173.3 L636.92 1222.83 L631.064 1222.83 L631.064 1217.48 Q629.218 1220.66 626.385 1222.22 Q623.584 1223.75 619.637 1223.75 Q613.176 1223.75 609.102 1218.59 Q605.06 1213.44 605.06 1205.04 Q605.06 1196.63 609.102 1191.48 Q613.176 1186.32 619.637 1186.32 Q623.584 1186.32 626.385 1187.88 Q629.218 1189.41 631.064 1192.59 M611.107 1205.04 Q611.107 1211.5 613.749 1215.19 Q616.423 1218.85 621.07 1218.85 Q625.717 1218.85 628.39 1215.19 Q631.064 1211.5 631.064 1205.04 Q631.064 1198.57 628.39 1194.91 Q625.717 1191.22 621.07 1191.22 Q616.423 1191.22 613.749 1194.91 Q611.107 1198.57 611.107 1205.04 Z" fill="#000000" fill-rule="evenodd" fill-opacity="1" /><path clip-path="url(#clip980)" d="M648.983 1187.18 L654.84 1187.18 L654.84 1222.83 L648.983 1222.83 L648.983 1187.18 M648.983 1173.3 L654.84 1173.3 L654.84 1180.72 L648.983 1180.72 L648.983 1173.3 Z" fill="#000000" fill-rule="evenodd" fill-opacity="1" /><path clip-path="url(#clip980)" d="M672.886 1177.06 L672.886 1187.18 L684.949 1187.18 L684.949 1191.73 L672.886 1191.73 L672.886 1211.08 Q672.886 1215.44 674.064 1216.68 Q675.274 1217.93 678.934 1217.93 L684.949 1217.93 L684.949 1222.83 L678.934 1222.83 Q672.154 1222.83 669.576 1220.31 Q666.998 1217.77 666.998 1211.08 L666.998 1191.73 L662.701 1191.73 L662.701 1187.18 L666.998 1187.18 L666.998 1177.06 L672.886 1177.06 Z" fill="#000000" fill-rule="evenodd" fill-opacity="1" /><path clip-path="url(#clip980)" d="M692.652 1187.18 L698.508 1187.18 L698.508 1222.83 L692.652 1222.83 L692.652 1187.18 M692.652 1173.3 L698.508 1173.3 L698.508 1180.72 L692.652 1180.72 L692.652 1173.3 Z" fill="#000000" fill-rule="evenodd" fill-opacity="1" /><path clip-path="url(#clip980)" d="M724.576 1191.29 Q719.865 1191.29 717.128 1194.98 Q714.391 1198.64 714.391 1205.04 Q714.391 1211.43 717.096 1215.13 Q719.834 1218.79 724.576 1218.79 Q729.255 1218.79 731.992 1215.09 Q734.729 1211.4 734.729 1205.04 Q734.729 1198.7 731.992 1195.01 Q729.255 1191.29 724.576 1191.29 M724.576 1186.32 Q732.215 1186.32 736.575 1191.29 Q740.936 1196.25 740.936 1205.04 Q740.936 1213.79 736.575 1218.79 Q732.215 1223.75 724.576 1223.75 Q716.905 1223.75 712.545 1218.79 Q708.216 1213.79 708.216 1205.04 Q708.216 1196.25 712.545 1191.29 Q716.905 1186.32 724.576 1186.32 Z" fill="#000000" fill-rule="evenodd" fill-opacity="1" /><path clip-path="url(#clip980)" d="M780.276 1201.31 L780.276 1222.83 L774.419 1222.83 L774.419 1201.5 Q774.419 1196.44 772.446 1193.93 Q770.473 1191.41 766.526 1191.41 Q761.784 1191.41 759.046 1194.44 Q756.309 1197.46 756.309 1202.68 L756.309 1222.83 L750.421 1222.83 L750.421 1187.18 L756.309 1187.18 L756.309 1192.72 Q758.41 1189.5 761.242 1187.91 Q764.107 1186.32 767.831 1186.32 Q773.974 1186.32 777.125 1190.14 Q780.276 1193.93 780.276 1201.31 Z" fill="#000000" fill-rule="evenodd" fill-opacity="1" /><polyline clip-path="url(#clip982)" style="stroke:#000000; stroke-linecap:butt; stroke-linejoin:round; stroke-width:2; stroke-opacity:0.1; fill:none" points="
  251.046,1060.45 1017.26,1060.45 
  "/>
<polyline clip-path="url(#clip982)" style="stroke:#000000; stroke-linecap:butt; stroke-linejoin:round; stroke-width:2; stroke-opacity:0.1; fill:none" points="
  251.046,814.528 1017.26,814.528 
  "/>
<polyline clip-path="url(#clip982)" style="stroke:#000000; stroke-linecap:butt; stroke-linejoin:round; stroke-width:2; stroke-opacity:0.1; fill:none" points="
  251.046,568.604 1017.26,568.604 
  "/>
<polyline clip-path="url(#clip982)" style="stroke:#000000; stroke-linecap:butt; stroke-linejoin:round; stroke-width:2; stroke-opacity:0.1; fill:none" points="
  251.046,322.679 1017.26,322.679 
  "/>
<polyline clip-path="url(#clip982)" style="stroke:#000000; stroke-linecap:butt; stroke-linejoin:round; stroke-width:2; stroke-opacity:0.1; fill:none" points="
  251.046,76.755 1017.26,76.755 
  "/>
<polyline clip-path="url(#clip980)" style="stroke:#000000; stroke-linecap:butt; stroke-linejoin:round; stroke-width:4; stroke-opacity:1; fill:none" points="
  251.046,1089.96 251.046,47.2441 
  "/>
<polyline clip-path="url(#clip980)" style="stroke:#000000; stroke-linecap:butt; stroke-linejoin:round; stroke-width:4; stroke-opacity:1; fill:none" points="
  251.046,1060.45 260.241,1060.45 
  "/>
<polyline clip-path="url(#clip980)" style="stroke:#000000; stroke-linecap:butt; stroke-linejoin:round; stroke-width:4; stroke-opacity:1; fill:none" points="
  251.046,814.528 260.241,814.528 
  "/>
<polyline clip-path="url(#clip980)" style="stroke:#000000; stroke-linecap:butt; stroke-linejoin:round; stroke-width:4; stroke-opacity:1; fill:none" points="
  251.046,568.604 260.241,568.604 
  "/>
<polyline clip-path="url(#clip980)" style="stroke:#000000; stroke-linecap:butt; stroke-linejoin:round; stroke-width:4; stroke-opacity:1; fill:none" points="
  251.046,322.679 260.241,322.679 
  "/>
<polyline clip-path="url(#clip980)" style="stroke:#000000; stroke-linecap:butt; stroke-linejoin:round; stroke-width:4; stroke-opacity:1; fill:none" points="
  251.046,76.755 260.241,76.755 
  "/>
<path clip-path="url(#clip980)" d="M139.709 1046.25 Q136.097 1046.25 134.269 1049.82 Q132.463 1053.36 132.463 1060.49 Q132.463 1067.59 134.269 1071.16 Q136.097 1074.7 139.709 1074.7 Q143.343 1074.7 145.148 1071.16 Q146.977 1067.59 146.977 1060.49 Q146.977 1053.36 145.148 1049.82 Q143.343 1046.25 139.709 1046.25 M139.709 1042.55 Q145.519 1042.55 148.574 1047.15 Q151.653 1051.74 151.653 1060.49 Q151.653 1069.21 148.574 1073.82 Q145.519 1078.4 139.709 1078.4 Q133.898 1078.4 130.82 1073.82 Q127.764 1069.21 127.764 1060.49 Q127.764 1051.74 130.82 1047.15 Q133.898 1042.55 139.709 1042.55 Z" fill="#000000" fill-rule="evenodd" fill-opacity="1" /><path clip-path="url(#clip980)" d="M159.87 1071.85 L164.755 1071.85 L164.755 1077.73 L159.87 1077.73 L159.87 1071.85 Z" fill="#000000" fill-rule="evenodd" fill-opacity="1" /><path clip-path="url(#clip980)" d="M184.94 1046.25 Q181.329 1046.25 179.5 1049.82 Q177.694 1053.36 177.694 1060.49 Q177.694 1067.59 179.5 1071.16 Q181.329 1074.7 184.94 1074.7 Q188.574 1074.7 190.38 1071.16 Q192.208 1067.59 192.208 1060.49 Q192.208 1053.36 190.38 1049.82 Q188.574 1046.25 184.94 1046.25 M184.94 1042.55 Q190.75 1042.55 193.805 1047.15 Q196.884 1051.74 196.884 1060.49 Q196.884 1069.21 193.805 1073.82 Q190.75 1078.4 184.94 1078.4 Q179.13 1078.4 176.051 1073.82 Q172.995 1069.21 172.995 1060.49 Q172.995 1051.74 176.051 1047.15 Q179.13 1042.55 184.94 1042.55 Z" fill="#000000" fill-rule="evenodd" fill-opacity="1" /><path clip-path="url(#clip980)" d="M215.102 1046.25 Q211.491 1046.25 209.662 1049.82 Q207.856 1053.36 207.856 1060.49 Q207.856 1067.59 209.662 1071.16 Q211.491 1074.7 215.102 1074.7 Q218.736 1074.7 220.541 1071.16 Q222.37 1067.59 222.37 1060.49 Q222.37 1053.36 220.541 1049.82 Q218.736 1046.25 215.102 1046.25 M215.102 1042.55 Q220.912 1042.55 223.967 1047.15 Q227.046 1051.74 227.046 1060.49 Q227.046 1069.21 223.967 1073.82 Q220.912 1078.4 215.102 1078.4 Q209.291 1078.4 206.213 1073.82 Q203.157 1069.21 203.157 1060.49 Q203.157 1051.74 206.213 1047.15 Q209.291 1042.55 215.102 1042.55 Z" fill="#000000" fill-rule="evenodd" fill-opacity="1" /><path clip-path="url(#clip980)" d="M140.704 800.327 Q137.093 800.327 135.264 803.892 Q133.459 807.434 133.459 814.563 Q133.459 821.67 135.264 825.234 Q137.093 828.776 140.704 828.776 Q144.338 828.776 146.144 825.234 Q147.972 821.67 147.972 814.563 Q147.972 807.434 146.144 803.892 Q144.338 800.327 140.704 800.327 M140.704 796.623 Q146.514 796.623 149.57 801.23 Q152.648 805.813 152.648 814.563 Q152.648 823.29 149.57 827.896 Q146.514 832.48 140.704 832.48 Q134.894 832.48 131.815 827.896 Q128.76 823.29 128.76 814.563 Q128.76 805.813 131.815 801.23 Q134.894 796.623 140.704 796.623 Z" fill="#000000" fill-rule="evenodd" fill-opacity="1" /><path clip-path="url(#clip980)" d="M160.866 825.929 L165.75 825.929 L165.75 831.808 L160.866 831.808 L160.866 825.929 Z" fill="#000000" fill-rule="evenodd" fill-opacity="1" /><path clip-path="url(#clip980)" d="M179.963 827.873 L196.282 827.873 L196.282 831.808 L174.338 831.808 L174.338 827.873 Q177 825.119 181.583 820.489 Q186.19 815.836 187.37 814.494 Q189.616 811.971 190.495 810.234 Q191.398 808.475 191.398 806.785 Q191.398 804.031 189.454 802.295 Q187.532 800.559 184.431 800.559 Q182.231 800.559 179.778 801.322 Q177.347 802.086 174.569 803.637 L174.569 798.915 Q177.394 797.781 179.847 797.202 Q182.301 796.623 184.338 796.623 Q189.708 796.623 192.903 799.309 Q196.097 801.994 196.097 806.484 Q196.097 808.614 195.287 810.535 Q194.5 812.434 192.393 815.026 Q191.815 815.697 188.713 818.915 Q185.611 822.109 179.963 827.873 Z" fill="#000000" fill-rule="evenodd" fill-opacity="1" /><path clip-path="url(#clip980)" d="M206.143 797.248 L224.5 797.248 L224.5 801.184 L210.426 801.184 L210.426 809.656 Q211.444 809.309 212.463 809.147 Q213.481 808.961 214.5 808.961 Q220.287 808.961 223.666 812.133 Q227.046 815.304 227.046 820.721 Q227.046 826.299 223.574 829.401 Q220.102 832.48 213.782 832.48 Q211.606 832.48 209.338 832.109 Q207.092 831.739 204.685 830.998 L204.685 826.299 Q206.768 827.433 208.991 827.989 Q211.213 828.545 213.69 828.545 Q217.694 828.545 220.032 826.438 Q222.37 824.332 222.37 820.721 Q222.37 817.109 220.032 815.003 Q217.694 812.897 213.69 812.897 Q211.815 812.897 209.94 813.313 Q208.088 813.73 206.143 814.609 L206.143 797.248 Z" fill="#000000" fill-rule="evenodd" fill-opacity="1" /><path clip-path="url(#clip980)" d="M139.709 554.403 Q136.097 554.403 134.269 557.967 Q132.463 561.509 132.463 568.639 Q132.463 575.745 134.269 579.31 Q136.097 582.852 139.709 582.852 Q143.343 582.852 145.148 579.31 Q146.977 575.745 146.977 568.639 Q146.977 561.509 145.148 557.967 Q143.343 554.403 139.709 554.403 M139.709 550.699 Q145.519 550.699 148.574 555.305 Q151.653 559.889 151.653 568.639 Q151.653 577.365 148.574 581.972 Q145.519 586.555 139.709 586.555 Q133.898 586.555 130.82 581.972 Q127.764 577.365 127.764 568.639 Q127.764 559.889 130.82 555.305 Q133.898 550.699 139.709 550.699 Z" fill="#000000" fill-rule="evenodd" fill-opacity="1" /><path clip-path="url(#clip980)" d="M159.87 580.004 L164.755 580.004 L164.755 585.884 L159.87 585.884 L159.87 580.004 Z" fill="#000000" fill-rule="evenodd" fill-opacity="1" /><path clip-path="url(#clip980)" d="M174.986 551.324 L193.343 551.324 L193.343 555.259 L179.269 555.259 L179.269 563.731 Q180.287 563.384 181.306 563.222 Q182.324 563.037 183.343 563.037 Q189.13 563.037 192.509 566.208 Q195.889 569.379 195.889 574.796 Q195.889 580.375 192.417 583.477 Q188.944 586.555 182.625 586.555 Q180.449 586.555 178.181 586.185 Q175.935 585.815 173.528 585.074 L173.528 580.375 Q175.611 581.509 177.833 582.065 Q180.056 582.62 182.532 582.62 Q186.537 582.62 188.875 580.514 Q191.213 578.407 191.213 574.796 Q191.213 571.185 188.875 569.079 Q186.537 566.972 182.532 566.972 Q180.657 566.972 178.782 567.389 Q176.931 567.805 174.986 568.685 L174.986 551.324 Z" fill="#000000" fill-rule="evenodd" fill-opacity="1" /><path clip-path="url(#clip980)" d="M215.102 554.403 Q211.491 554.403 209.662 557.967 Q207.856 561.509 207.856 568.639 Q207.856 575.745 209.662 579.31 Q211.491 582.852 215.102 582.852 Q218.736 582.852 220.541 579.31 Q222.37 575.745 222.37 568.639 Q222.37 561.509 220.541 557.967 Q218.736 554.403 215.102 554.403 M215.102 550.699 Q220.912 550.699 223.967 555.305 Q227.046 559.889 227.046 568.639 Q227.046 577.365 223.967 581.972 Q220.912 586.555 215.102 586.555 Q209.291 586.555 206.213 581.972 Q203.157 577.365 203.157 568.639 Q203.157 559.889 206.213 555.305 Q209.291 550.699 215.102 550.699 Z" fill="#000000" fill-rule="evenodd" fill-opacity="1" /><path clip-path="url(#clip980)" d="M140.704 308.478 Q137.093 308.478 135.264 312.043 Q133.459 315.585 133.459 322.714 Q133.459 329.821 135.264 333.385 Q137.093 336.927 140.704 336.927 Q144.338 336.927 146.144 333.385 Q147.972 329.821 147.972 322.714 Q147.972 315.585 146.144 312.043 Q144.338 308.478 140.704 308.478 M140.704 304.775 Q146.514 304.775 149.57 309.381 Q152.648 313.964 152.648 322.714 Q152.648 331.441 149.57 336.047 Q146.514 340.631 140.704 340.631 Q134.894 340.631 131.815 336.047 Q128.76 331.441 128.76 322.714 Q128.76 313.964 131.815 309.381 Q134.894 304.775 140.704 304.775 Z" fill="#000000" fill-rule="evenodd" fill-opacity="1" /><path clip-path="url(#clip980)" d="M160.866 334.08 L165.75 334.08 L165.75 339.959 L160.866 339.959 L160.866 334.08 Z" fill="#000000" fill-rule="evenodd" fill-opacity="1" /><path clip-path="url(#clip980)" d="M174.755 305.399 L196.977 305.399 L196.977 307.39 L184.431 339.959 L179.546 339.959 L191.352 309.335 L174.755 309.335 L174.755 305.399 Z" fill="#000000" fill-rule="evenodd" fill-opacity="1" /><path clip-path="url(#clip980)" d="M206.143 305.399 L224.5 305.399 L224.5 309.335 L210.426 309.335 L210.426 317.807 Q211.444 317.46 212.463 317.298 Q213.481 317.112 214.5 317.112 Q220.287 317.112 223.666 320.284 Q227.046 323.455 227.046 328.872 Q227.046 334.45 223.574 337.552 Q220.102 340.631 213.782 340.631 Q211.606 340.631 209.338 340.26 Q207.092 339.89 204.685 339.149 L204.685 334.45 Q206.768 335.585 208.991 336.14 Q211.213 336.696 213.69 336.696 Q217.694 336.696 220.032 334.589 Q222.37 332.483 222.37 328.872 Q222.37 325.261 220.032 323.154 Q217.694 321.048 213.69 321.048 Q211.815 321.048 209.94 321.464 Q208.088 321.881 206.143 322.761 L206.143 305.399 Z" fill="#000000" fill-rule="evenodd" fill-opacity="1" /><path clip-path="url(#clip980)" d="M130.519 90.0999 L138.158 90.0999 L138.158 63.7343 L129.847 65.4009 L129.847 61.1417 L138.111 59.475 L142.787 59.475 L142.787 90.0999 L150.426 90.0999 L150.426 94.035 L130.519 94.035 L130.519 90.0999 Z" fill="#000000" fill-rule="evenodd" fill-opacity="1" /><path clip-path="url(#clip980)" d="M159.87 88.1554 L164.755 88.1554 L164.755 94.035 L159.87 94.035 L159.87 88.1554 Z" fill="#000000" fill-rule="evenodd" fill-opacity="1" /><path clip-path="url(#clip980)" d="M184.94 62.5537 Q181.329 62.5537 179.5 66.1185 Q177.694 69.6602 177.694 76.7898 Q177.694 83.8962 179.5 87.461 Q181.329 91.0026 184.94 91.0026 Q188.574 91.0026 190.38 87.461 Q192.208 83.8962 192.208 76.7898 Q192.208 69.6602 190.38 66.1185 Q188.574 62.5537 184.94 62.5537 M184.94 58.85 Q190.75 58.85 193.805 63.4565 Q196.884 68.0398 196.884 76.7898 Q196.884 85.5166 193.805 90.123 Q190.75 94.7063 184.94 94.7063 Q179.13 94.7063 176.051 90.123 Q172.995 85.5166 172.995 76.7898 Q172.995 68.0398 176.051 63.4565 Q179.13 58.85 184.94 58.85 Z" fill="#000000" fill-rule="evenodd" fill-opacity="1" /><path clip-path="url(#clip980)" d="M215.102 62.5537 Q211.491 62.5537 209.662 66.1185 Q207.856 69.6602 207.856 76.7898 Q207.856 83.8962 209.662 87.461 Q211.491 91.0026 215.102 91.0026 Q218.736 91.0026 220.541 87.461 Q222.37 83.8962 222.37 76.7898 Q222.37 69.6602 220.541 66.1185 Q218.736 62.5537 215.102 62.5537 M215.102 58.85 Q220.912 58.85 223.967 63.4565 Q227.046 68.0398 227.046 76.7898 Q227.046 85.5166 223.967 90.123 Q220.912 94.7063 215.102 94.7063 Q209.291 94.7063 206.213 90.123 Q203.157 85.5166 203.157 76.7898 Q203.157 68.0398 206.213 63.4565 Q209.291 58.85 215.102 58.85 Z" fill="#000000" fill-rule="evenodd" fill-opacity="1" /><path clip-path="url(#clip980)" d="M59.3347 835.47 Q58.7618 836.457 58.5072 837.635 Q58.2207 838.78 58.2207 840.181 Q58.2207 845.146 61.4672 847.82 Q64.6819 850.462 70.7293 850.462 L89.5082 850.462 L89.5082 856.35 L53.8602 856.35 L53.8602 850.462 L59.3984 850.462 Q56.1519 848.615 54.5923 845.655 Q53.0008 842.695 53.0008 838.462 Q53.0008 837.857 53.0963 837.125 Q53.16 836.393 53.3191 835.502 L59.3347 835.47 Z" fill="#000000" fill-rule="evenodd" fill-opacity="1" /><path clip-path="url(#clip980)" d="M71.5887 813.127 Q71.5887 820.224 73.2119 822.962 Q74.8352 825.699 78.7501 825.699 Q81.8693 825.699 83.7154 823.662 Q85.5296 821.593 85.5296 818.06 Q85.5296 813.19 82.0921 810.262 Q78.6228 807.302 72.8937 807.302 L71.5887 807.302 L71.5887 813.127 M69.1697 801.446 L89.5082 801.446 L89.5082 807.302 L84.0973 807.302 Q87.3438 809.307 88.9034 812.299 Q90.4312 815.291 90.4312 819.62 Q90.4312 825.094 87.3756 828.341 Q84.2883 831.555 79.1321 831.555 Q73.1165 831.555 70.0609 827.545 Q67.0054 823.503 67.0054 815.514 L67.0054 807.302 L66.4325 807.302 Q62.3902 807.302 60.1941 809.976 Q57.9661 812.617 57.9661 817.424 Q57.9661 820.479 58.6981 823.375 Q59.4302 826.272 60.8943 828.945 L55.4835 828.945 Q54.2421 825.731 53.6374 822.707 Q53.0008 819.683 53.0008 816.819 Q53.0008 809.084 57.0112 805.265 Q61.0216 801.446 69.1697 801.446 Z" fill="#000000" fill-rule="evenodd" fill-opacity="1" /><path clip-path="url(#clip980)" d="M43.7387 783.59 L53.8602 783.59 L53.8602 771.527 L58.4117 771.527 L58.4117 783.59 L77.7634 783.59 Q82.1239 783.59 83.3653 782.412 Q84.6066 781.203 84.6066 777.542 L84.6066 771.527 L89.5082 771.527 L89.5082 777.542 Q89.5082 784.322 86.9937 786.9 Q84.4474 789.478 77.7634 789.478 L58.4117 789.478 L58.4117 793.775 L53.8602 793.775 L53.8602 789.478 L43.7387 789.478 L43.7387 783.59 Z" fill="#000000" fill-rule="evenodd" fill-opacity="1" /><path clip-path="url(#clip980)" d="M53.8602 763.824 L53.8602 757.968 L89.5082 757.968 L89.5082 763.824 L53.8602 763.824 M39.983 763.824 L39.983 757.968 L47.399 757.968 L47.399 763.824 L39.983 763.824 Z" fill="#000000" fill-rule="evenodd" fill-opacity="1" /><path clip-path="url(#clip980)" d="M57.9661 731.9 Q57.9661 736.611 61.6582 739.348 Q65.3185 742.085 71.716 742.085 Q78.1135 742.085 81.8057 739.38 Q85.4659 736.643 85.4659 731.9 Q85.4659 727.221 81.7738 724.484 Q78.0817 721.747 71.716 721.747 Q65.3821 721.747 61.69 724.484 Q57.9661 727.221 57.9661 731.9 M53.0008 731.9 Q53.0008 724.261 57.9661 719.901 Q62.9313 715.54 71.716 715.54 Q80.4689 715.54 85.4659 719.901 Q90.4312 724.261 90.4312 731.9 Q90.4312 739.571 85.4659 743.931 Q80.4689 748.26 71.716 748.26 Q62.9313 748.26 57.9661 743.931 Q53.0008 739.571 53.0008 731.9 Z" fill="#000000" fill-rule="evenodd" fill-opacity="1" /><path clip-path="url(#clip980)" d="M57.9661 671.299 Q57.9661 676.009 61.6582 678.747 Q65.3185 681.484 71.716 681.484 Q78.1135 681.484 81.8057 678.778 Q85.4659 676.041 85.4659 671.299 Q85.4659 666.62 81.7738 663.883 Q78.0817 661.145 71.716 661.145 Q65.3821 661.145 61.69 663.883 Q57.9661 666.62 57.9661 671.299 M53.0008 671.299 Q53.0008 663.66 57.9661 659.299 Q62.9313 654.939 71.716 654.939 Q80.4689 654.939 85.4659 659.299 Q90.4312 663.66 90.4312 671.299 Q90.4312 678.969 85.4659 683.33 Q80.4689 687.659 71.716 687.659 Q62.9313 687.659 57.9661 683.33 Q53.0008 678.969 53.0008 671.299 Z" fill="#000000" fill-rule="evenodd" fill-opacity="1" /><path clip-path="url(#clip980)" d="M39.983 627.184 L44.8527 627.184 L44.8527 632.786 Q44.8527 635.937 46.1259 637.179 Q47.399 638.388 50.7092 638.388 L53.8602 638.388 L53.8602 628.744 L58.4117 628.744 L58.4117 638.388 L89.5082 638.388 L89.5082 644.276 L58.4117 644.276 L58.4117 649.878 L53.8602 649.878 L53.8602 644.276 L51.3776 644.276 Q45.4256 644.276 42.7202 641.507 Q39.983 638.738 39.983 632.723 L39.983 627.184 Z" fill="#000000" fill-rule="evenodd" fill-opacity="1" /><path clip-path="url(#clip980)" d="M59.3347 580.906 Q58.7618 581.892 58.5072 583.07 Q58.2207 584.216 58.2207 585.616 Q58.2207 590.582 61.4672 593.255 Q64.6819 595.897 70.7293 595.897 L89.5082 595.897 L89.5082 601.785 L53.8602 601.785 L53.8602 595.897 L59.3984 595.897 Q56.1519 594.051 54.5923 591.091 Q53.0008 588.131 53.0008 583.898 Q53.0008 583.293 53.0963 582.561 Q53.16 581.829 53.3191 580.938 L59.3347 580.906 Z" fill="#000000" fill-rule="evenodd" fill-opacity="1" /><path clip-path="url(#clip980)" d="M70.2201 545.703 L73.0846 545.703 L73.0846 572.63 Q79.1321 572.248 82.3149 569.002 Q85.4659 565.723 85.4659 559.899 Q85.4659 556.525 84.6384 553.374 Q83.8109 550.191 82.1558 547.072 L87.6939 547.072 Q89.0307 550.223 89.731 553.533 Q90.4312 556.843 90.4312 560.249 Q90.4312 568.779 85.4659 573.776 Q80.5007 578.741 72.0343 578.741 Q63.2814 578.741 58.1571 574.031 Q53.0008 569.288 53.0008 561.267 Q53.0008 554.074 57.6478 549.905 Q62.2629 545.703 70.2201 545.703 M68.5013 551.56 Q63.6952 551.623 60.8306 554.265 Q57.9661 556.875 57.9661 561.204 Q57.9661 566.105 60.7352 569.065 Q63.5042 571.994 68.5332 572.439 L68.5013 551.56 Z" fill="#000000" fill-rule="evenodd" fill-opacity="1" /><path clip-path="url(#clip980)" d="M54.9105 513.366 L60.4487 513.366 Q59.1756 515.848 58.539 518.522 Q57.9024 521.195 57.9024 524.06 Q57.9024 528.42 59.2392 530.617 Q60.576 532.781 63.2496 532.781 Q65.2866 532.781 66.4643 531.221 Q67.6101 529.662 68.6605 524.951 L69.1061 522.946 Q70.4429 516.708 72.8937 514.098 Q75.3126 511.456 79.6731 511.456 Q84.6384 511.456 87.5348 515.403 Q90.4312 519.317 90.4312 526.192 Q90.4312 529.057 89.8583 532.176 Q89.3172 535.264 88.2032 538.701 L82.1558 538.701 Q83.8427 535.455 84.702 532.304 Q85.5296 529.153 85.5296 526.065 Q85.5296 521.927 84.1291 519.699 Q82.6969 517.471 80.1187 517.471 Q77.7316 517.471 76.4585 519.095 Q75.1853 520.686 74.0077 526.129 L73.5302 528.166 Q72.3844 533.608 70.0291 536.027 Q67.642 538.446 63.5042 538.446 Q58.4753 538.446 55.7381 534.882 Q53.0008 531.317 53.0008 524.76 Q53.0008 521.514 53.4783 518.649 Q53.9557 515.785 54.9105 513.366 Z" fill="#000000" fill-rule="evenodd" fill-opacity="1" /><path clip-path="url(#clip980)" d="M84.161 496.465 L103.067 496.465 L103.067 502.353 L53.8602 502.353 L53.8602 496.465 L59.2711 496.465 Q56.0882 494.619 54.5604 491.818 Q53.0008 488.985 53.0008 485.07 Q53.0008 478.577 58.1571 474.535 Q63.3133 470.461 71.716 470.461 Q80.1187 470.461 85.275 474.535 Q90.4312 478.577 90.4312 485.07 Q90.4312 488.985 88.9034 491.818 Q87.3438 494.619 84.161 496.465 M71.716 476.54 Q65.2548 476.54 61.5945 479.214 Q57.9024 481.855 57.9024 486.502 Q57.9024 491.149 61.5945 493.823 Q65.2548 496.465 71.716 496.465 Q78.1772 496.465 81.8693 493.823 Q85.5296 491.149 85.5296 486.502 Q85.5296 481.855 81.8693 479.214 Q78.1772 476.54 71.716 476.54 Z" fill="#000000" fill-rule="evenodd" fill-opacity="1" /><path clip-path="url(#clip980)" d="M57.9661 446.939 Q57.9661 451.65 61.6582 454.387 Q65.3185 457.125 71.716 457.125 Q78.1135 457.125 81.8057 454.419 Q85.4659 451.682 85.4659 446.939 Q85.4659 442.261 81.7738 439.523 Q78.0817 436.786 71.716 436.786 Q65.3821 436.786 61.69 439.523 Q57.9661 442.261 57.9661 446.939 M53.0008 446.939 Q53.0008 439.301 57.9661 434.94 Q62.9313 430.58 71.716 430.58 Q80.4689 430.58 85.4659 434.94 Q90.4312 439.301 90.4312 446.939 Q90.4312 454.61 85.4659 458.971 Q80.4689 463.299 71.716 463.299 Q62.9313 463.299 57.9661 458.971 Q53.0008 454.61 53.0008 446.939 Z" fill="#000000" fill-rule="evenodd" fill-opacity="1" /><path clip-path="url(#clip980)" d="M67.9921 391.239 L89.5082 391.239 L89.5082 397.096 L68.183 397.096 Q63.1223 397.096 60.6078 399.069 Q58.0934 401.043 58.0934 404.989 Q58.0934 409.732 61.1171 412.469 Q64.1408 415.206 69.3607 415.206 L89.5082 415.206 L89.5082 421.095 L53.8602 421.095 L53.8602 415.206 L59.3984 415.206 Q56.1837 413.106 54.5923 410.273 Q53.0008 407.408 53.0008 403.684 Q53.0008 397.542 56.8203 394.39 Q60.6078 391.239 67.9921 391.239 Z" fill="#000000" fill-rule="evenodd" fill-opacity="1" /><path clip-path="url(#clip980)" d="M54.9105 356.833 L60.4487 356.833 Q59.1756 359.315 58.539 361.989 Q57.9024 364.663 57.9024 367.527 Q57.9024 371.888 59.2392 374.084 Q60.576 376.248 63.2496 376.248 Q65.2866 376.248 66.4643 374.689 Q67.6101 373.129 68.6605 368.418 L69.1061 366.413 Q70.4429 360.175 72.8937 357.565 Q75.3126 354.923 79.6731 354.923 Q84.6384 354.923 87.5348 358.87 Q90.4312 362.785 90.4312 369.66 Q90.4312 372.524 89.8583 375.643 Q89.3172 378.731 88.2032 382.168 L82.1558 382.168 Q83.8427 378.922 84.702 375.771 Q85.5296 372.62 85.5296 369.532 Q85.5296 365.395 84.1291 363.167 Q82.6969 360.939 80.1187 360.939 Q77.7316 360.939 76.4585 362.562 Q75.1853 364.153 74.0077 369.596 L73.5302 371.633 Q72.3844 377.076 70.0291 379.495 Q67.642 381.914 63.5042 381.914 Q58.4753 381.914 55.7381 378.349 Q53.0008 374.784 53.0008 368.227 Q53.0008 364.981 53.4783 362.116 Q53.9557 359.252 54.9105 356.833 Z" fill="#000000" fill-rule="evenodd" fill-opacity="1" /><path clip-path="url(#clip980)" d="M70.2201 315.106 L73.0846 315.106 L73.0846 342.033 Q79.1321 341.651 82.3149 338.404 Q85.4659 335.126 85.4659 329.301 Q85.4659 325.927 84.6384 322.776 Q83.8109 319.593 82.1558 316.474 L87.6939 316.474 Q89.0307 319.625 89.731 322.935 Q90.4312 326.246 90.4312 329.651 Q90.4312 338.181 85.4659 343.178 Q80.5007 348.144 72.0343 348.144 Q63.2814 348.144 58.1571 343.433 Q53.0008 338.691 53.0008 330.67 Q53.0008 323.477 57.6478 319.307 Q62.2629 315.106 70.2201 315.106 M68.5013 320.962 Q63.6952 321.026 60.8306 323.667 Q57.9661 326.277 57.9661 330.606 Q57.9661 335.508 60.7352 338.468 Q63.5042 341.396 68.5332 341.842 L68.5013 320.962 Z" fill="#000000" fill-rule="evenodd" fill-opacity="1" /><path clip-path="url(#clip980)" d="M54.9105 282.768 L60.4487 282.768 Q59.1756 285.25 58.539 287.924 Q57.9024 290.598 57.9024 293.462 Q57.9024 297.823 59.2392 300.019 Q60.576 302.183 63.2496 302.183 Q65.2866 302.183 66.4643 300.624 Q67.6101 299.064 68.6605 294.353 L69.1061 292.348 Q70.4429 286.11 72.8937 283.5 Q75.3126 280.858 79.6731 280.858 Q84.6384 280.858 87.5348 284.805 Q90.4312 288.72 90.4312 295.595 Q90.4312 298.459 89.8583 301.578 Q89.3172 304.666 88.2032 308.103 L82.1558 308.103 Q83.8427 304.857 84.702 301.706 Q85.5296 298.555 85.5296 295.467 Q85.5296 291.33 84.1291 289.102 Q82.6969 286.874 80.1187 286.874 Q77.7316 286.874 76.4585 288.497 Q75.1853 290.088 74.0077 295.531 L73.5302 297.568 Q72.3844 303.011 70.0291 305.43 Q67.642 307.849 63.5042 307.849 Q58.4753 307.849 55.7381 304.284 Q53.0008 300.719 53.0008 294.162 Q53.0008 290.916 53.4783 288.051 Q53.9557 285.187 54.9105 282.768 Z" fill="#000000" fill-rule="evenodd" fill-opacity="1" /><path clip-path="url(#clip982)" d="
M293.189 76.755 L293.189 1060.45 L596.266 1060.45 L596.266 76.755 L293.189 76.755 L293.189 76.755  Z
  " fill="#006d60" fill-rule="evenodd" fill-opacity="1"/>
<polyline clip-path="url(#clip982)" style="stroke:#000000; stroke-linecap:butt; stroke-linejoin:round; stroke-width:4; stroke-opacity:1; fill:none" points="
  293.189,76.755 293.189,1060.45 596.266,1060.45 596.266,76.755 293.189,76.755 
  "/>
<path clip-path="url(#clip982)" d="
M672.036 76.755 L672.036 1060.45 L975.113 1060.45 L975.113 76.755 L672.036 76.755 L672.036 76.755  Z
  " fill="#006d60" fill-rule="evenodd" fill-opacity="1"/>
<polyline clip-path="url(#clip982)" style="stroke:#000000; stroke-linecap:butt; stroke-linejoin:round; stroke-width:4; stroke-opacity:1; fill:none" points="
  672.036,76.755 672.036,1060.45 975.113,1060.45 975.113,76.755 672.036,76.755 
  "/>
<path clip-path="url(#clip982)" d="
M293.189 126.563 L293.189 1060.45 L596.266 1060.45 L596.266 126.563 L293.189 126.563 L293.189 126.563  Z
  " fill="#008569" fill-rule="evenodd" fill-opacity="1"/>
<polyline clip-path="url(#clip982)" style="stroke:#000000; stroke-linecap:butt; stroke-linejoin:round; stroke-width:4; stroke-opacity:1; fill:none" points="
  293.189,126.563 293.189,1060.45 596.266,1060.45 596.266,126.563 293.189,126.563 
  "/>
<path clip-path="url(#clip982)" d="
M672.036 107.885 L672.036 1060.45 L975.113 1060.45 L975.113 107.885 L672.036 107.885 L672.036 107.885  Z
  " fill="#008569" fill-rule="evenodd" fill-opacity="1"/>
<polyline clip-path="url(#clip982)" style="stroke:#000000; stroke-linecap:butt; stroke-linejoin:round; stroke-width:4; stroke-opacity:1; fill:none" points="
  672.036,107.885 672.036,1060.45 975.113,1060.45 975.113,107.885 672.036,107.885 
  "/>
<path clip-path="url(#clip982)" d="
M293.189 204.387 L293.189 1060.45 L596.266 1060.45 L596.266 204.387 L293.189 204.387 L293.189 204.387  Z
  " fill="#009e73" fill-rule="evenodd" fill-opacity="1"/>
<polyline clip-path="url(#clip982)" style="stroke:#000000; stroke-linecap:butt; stroke-linejoin:round; stroke-width:4; stroke-opacity:1; fill:none" points="
  293.189,204.387 293.189,1060.45 596.266,1060.45 596.266,204.387 293.189,204.387 
  "/>
<path clip-path="url(#clip982)" d="
M672.036 188.822 L672.036 1060.45 L975.113 1060.45 L975.113 188.822 L672.036 188.822 L672.036 188.822  Z
  " fill="#009e73" fill-rule="evenodd" fill-opacity="1"/>
<polyline clip-path="url(#clip982)" style="stroke:#000000; stroke-linecap:butt; stroke-linejoin:round; stroke-width:4; stroke-opacity:1; fill:none" points="
  672.036,188.822 672.036,1060.45 975.113,1060.45 975.113,188.822 672.036,188.822 
  "/>
<path clip-path="url(#clip982)" d="
M293.189 322.679 L293.189 1060.45 L596.266 1060.45 L596.266 322.679 L293.189 322.679 L293.189 322.679  Z
  " fill="#77c6b0" fill-rule="evenodd" fill-opacity="1"/>
<polyline clip-path="url(#clip982)" style="stroke:#000000; stroke-linecap:butt; stroke-linejoin:round; stroke-width:4; stroke-opacity:1; fill:none" points="
  293.189,322.679 293.189,1060.45 596.266,1060.45 596.266,322.679 293.189,322.679 
  "/>
<path clip-path="url(#clip982)" d="
M672.036 275.985 L672.036 1060.45 L975.113 1060.45 L975.113 275.985 L672.036 275.985 L672.036 275.985  Z
  " fill="#77c6b0" fill-rule="evenodd" fill-opacity="1"/>
<polyline clip-path="url(#clip982)" style="stroke:#000000; stroke-linecap:butt; stroke-linejoin:round; stroke-width:4; stroke-opacity:1; fill:none" points="
  672.036,275.985 672.036,1060.45 975.113,1060.45 975.113,275.985 672.036,275.985 
  "/>
<path clip-path="url(#clip982)" d="
M293.189 506.345 L293.189 1060.45 L596.266 1060.45 L596.266 506.345 L293.189 506.345 L293.189 506.345  Z
  " fill="#eeeeee" fill-rule="evenodd" fill-opacity="1"/>
<polyline clip-path="url(#clip982)" style="stroke:#000000; stroke-linecap:butt; stroke-linejoin:round; stroke-width:4; stroke-opacity:1; fill:none" points="
  293.189,506.345 293.189,1060.45 596.266,1060.45 596.266,506.345 293.189,506.345 
  "/>
<path clip-path="url(#clip982)" d="
M672.036 459.65 L672.036 1060.45 L975.113 1060.45 L975.113 459.65 L672.036 459.65 L672.036 459.65  Z
  " fill="#eeeeee" fill-rule="evenodd" fill-opacity="1"/>
<polyline clip-path="url(#clip982)" style="stroke:#000000; stroke-linecap:butt; stroke-linejoin:round; stroke-width:4; stroke-opacity:1; fill:none" points="
  672.036,459.65 672.036,1060.45 975.113,1060.45 975.113,459.65 672.036,459.65 
  "/>
<path clip-path="url(#clip982)" d="
M293.189 898.579 L293.189 1060.45 L596.266 1060.45 L596.266 898.579 L293.189 898.579 L293.189 898.579  Z
  " fill="#ddb3ca" fill-rule="evenodd" fill-opacity="1"/>
<polyline clip-path="url(#clip982)" style="stroke:#000000; stroke-linecap:butt; stroke-linejoin:round; stroke-width:4; stroke-opacity:1; fill:none" points="
  293.189,898.579 293.189,1060.45 596.266,1060.45 596.266,898.579 293.189,898.579 
  "/>
<path clip-path="url(#clip982)" d="
M672.036 892.353 L672.036 1060.45 L975.113 1060.45 L975.113 892.353 L672.036 892.353 L672.036 892.353  Z
  " fill="#ddb3ca" fill-rule="evenodd" fill-opacity="1"/>
<polyline clip-path="url(#clip982)" style="stroke:#000000; stroke-linecap:butt; stroke-linejoin:round; stroke-width:4; stroke-opacity:1; fill:none" points="
  672.036,892.353 672.036,1060.45 975.113,1060.45 975.113,892.353 672.036,892.353 
  "/>
<path clip-path="url(#clip982)" d="
M293.189 995.081 L293.189 1060.45 L596.266 1060.45 L596.266 995.081 L293.189 995.081 L293.189 995.081  Z
  " fill="#cc79a7" fill-rule="evenodd" fill-opacity="1"/>
<polyline clip-path="url(#clip982)" style="stroke:#000000; stroke-linecap:butt; stroke-linejoin:round; stroke-width:4; stroke-opacity:1; fill:none" points="
  293.189,995.081 293.189,1060.45 596.266,1060.45 596.266,995.081 293.189,995.081 
  "/>
<path clip-path="url(#clip982)" d="
M672.036 1004.42 L672.036 1060.45 L975.113 1060.45 L975.113 1004.42 L672.036 1004.42 L672.036 1004.42  Z
  " fill="#cc79a7" fill-rule="evenodd" fill-opacity="1"/>
<polyline clip-path="url(#clip982)" style="stroke:#000000; stroke-linecap:butt; stroke-linejoin:round; stroke-width:4; stroke-opacity:1; fill:none" points="
  672.036,1004.42 672.036,1060.45 975.113,1060.45 975.113,1004.42 672.036,1004.42 
  "/>
<path clip-path="url(#clip982)" d="
M293.189 1041.78 L293.189 1060.45 L596.266 1060.45 L596.266 1041.78 L293.189 1041.78 L293.189 1041.78  Z
  " fill="#b55585" fill-rule="evenodd" fill-opacity="1"/>
<polyline clip-path="url(#clip982)" style="stroke:#000000; stroke-linecap:butt; stroke-linejoin:round; stroke-width:4; stroke-opacity:1; fill:none" points="
  293.189,1041.78 293.189,1060.45 596.266,1060.45 596.266,1041.78 293.189,1041.78 
  "/>
<path clip-path="url(#clip982)" d="
M672.036 1038.66 L672.036 1060.45 L975.113 1060.45 L975.113 1038.66 L672.036 1038.66 L672.036 1038.66  Z
  " fill="#b55585" fill-rule="evenodd" fill-opacity="1"/>
<polyline clip-path="url(#clip982)" style="stroke:#000000; stroke-linecap:butt; stroke-linejoin:round; stroke-width:4; stroke-opacity:1; fill:none" points="
  672.036,1038.66 672.036,1060.45 975.113,1060.45 975.113,1038.66 672.036,1038.66 
  "/>
<path clip-path="url(#clip982)" d="
M293.189 1057.34 L293.189 1060.45 L596.266 1060.45 L596.266 1057.34 L293.189 1057.34 L293.189 1057.34  Z
  " fill="#9e3264" fill-rule="evenodd" fill-opacity="1"/>
<polyline clip-path="url(#clip982)" style="stroke:#000000; stroke-linecap:butt; stroke-linejoin:round; stroke-width:4; stroke-opacity:1; fill:none" points="
  293.189,1057.34 293.189,1060.45 596.266,1060.45 596.266,1057.34 293.189,1057.34 
  "/>
<path clip-path="url(#clip982)" d="
M672.036 1054.23 L672.036 1060.45 L975.113 1060.45 L975.113 1054.23 L672.036 1054.23 L672.036 1054.23  Z
  " fill="#9e3264" fill-rule="evenodd" fill-opacity="1"/>
<polyline clip-path="url(#clip982)" style="stroke:#000000; stroke-linecap:butt; stroke-linejoin:round; stroke-width:4; stroke-opacity:1; fill:none" points="
  672.036,1054.23 672.036,1060.45 975.113,1060.45 975.113,1054.23 672.036,1054.23 
  "/>
<path clip-path="url(#clip980)" d="
M1060.65 871.004 L1552.76 871.004 L1552.76 205.724 L1060.65 205.724  Z
  " fill="#ffffff" fill-rule="evenodd" fill-opacity="1"/>
<polyline clip-path="url(#clip980)" style="stroke:#000000; stroke-linecap:butt; stroke-linejoin:round; stroke-width:4; stroke-opacity:1; fill:none" points="
  1060.65,871.004 1552.76,871.004 1552.76,205.724 1060.65,205.724 1060.65,871.004 
  "/>
<path clip-path="url(#clip980)" d="M1132.64 253.675 L1132.64 267.425 L1128.35 267.425 L1128.35 231.638 L1132.64 231.638 L1132.64 235.573 Q1133.98 233.259 1136.02 232.147 Q1138.08 231.013 1140.92 231.013 Q1145.65 231.013 1148.59 234.763 Q1151.55 238.513 1151.55 244.624 Q1151.55 250.735 1148.59 254.485 Q1145.65 258.235 1140.92 258.235 Q1138.08 258.235 1136.02 257.124 Q1133.98 255.99 1132.64 253.675 M1147.13 244.624 Q1147.13 239.925 1145.18 237.263 Q1143.26 234.578 1139.88 234.578 Q1136.5 234.578 1134.56 237.263 Q1132.64 239.925 1132.64 244.624 Q1132.64 249.323 1134.56 252.008 Q1136.5 254.67 1139.88 254.67 Q1143.26 254.67 1145.18 252.008 Q1147.13 249.323 1147.13 244.624 Z" fill="#000000" fill-rule="evenodd" fill-opacity="1" /><path clip-path="url(#clip980)" d="M1173.63 235.62 Q1172.91 235.203 1172.06 235.018 Q1171.22 234.809 1170.21 234.809 Q1166.59 234.809 1164.65 237.171 Q1162.73 239.509 1162.73 243.907 L1162.73 257.564 L1158.45 257.564 L1158.45 231.638 L1162.73 231.638 L1162.73 235.666 Q1164.07 233.305 1166.22 232.171 Q1168.38 231.013 1171.46 231.013 Q1171.9 231.013 1172.43 231.083 Q1172.96 231.129 1173.61 231.245 L1173.63 235.62 Z" fill="#000000" fill-rule="evenodd" fill-opacity="1" /><path clip-path="url(#clip980)" d="M1199.23 243.536 L1199.23 245.62 L1179.65 245.62 Q1179.93 250.018 1182.29 252.333 Q1184.67 254.624 1188.91 254.624 Q1191.36 254.624 1193.65 254.022 Q1195.97 253.42 1198.24 252.217 L1198.24 256.245 Q1195.95 257.217 1193.54 257.726 Q1191.13 258.235 1188.65 258.235 Q1182.45 258.235 1178.82 254.624 Q1175.21 251.013 1175.21 244.856 Q1175.21 238.49 1178.63 234.763 Q1182.08 231.013 1187.91 231.013 Q1193.15 231.013 1196.18 234.393 Q1199.23 237.749 1199.23 243.536 M1194.97 242.286 Q1194.93 238.791 1193.01 236.708 Q1191.11 234.624 1187.96 234.624 Q1184.4 234.624 1182.24 236.638 Q1180.11 238.652 1179.79 242.309 L1194.97 242.286 Z" fill="#000000" fill-rule="evenodd" fill-opacity="1" /><path clip-path="url(#clip980)" d="M1219.35 221.546 L1219.35 225.087 L1215.27 225.087 Q1212.98 225.087 1212.08 226.013 Q1211.2 226.939 1211.2 229.347 L1211.2 231.638 L1218.21 231.638 L1218.21 234.948 L1211.2 234.948 L1211.2 257.564 L1206.92 257.564 L1206.92 234.948 L1202.84 234.948 L1202.84 231.638 L1206.92 231.638 L1206.92 229.833 Q1206.92 225.504 1208.93 223.536 Q1210.95 221.546 1215.32 221.546 L1219.35 221.546 Z" fill="#000000" fill-rule="evenodd" fill-opacity="1" /><path clip-path="url(#clip980)" d="M1245.09 243.536 L1245.09 245.62 L1225.51 245.62 Q1225.78 250.018 1228.15 252.333 Q1230.53 254.624 1234.77 254.624 Q1237.22 254.624 1239.51 254.022 Q1241.83 253.42 1244.09 252.217 L1244.09 256.245 Q1241.8 257.217 1239.4 257.726 Q1236.99 258.235 1234.51 258.235 Q1228.31 258.235 1224.67 254.624 Q1221.06 251.013 1221.06 244.856 Q1221.06 238.49 1224.49 234.763 Q1227.94 231.013 1233.77 231.013 Q1239 231.013 1242.03 234.393 Q1245.09 237.749 1245.09 243.536 M1240.83 242.286 Q1240.78 238.791 1238.86 236.708 Q1236.96 234.624 1233.82 234.624 Q1230.25 234.624 1228.1 236.638 Q1225.97 238.652 1225.65 242.309 L1240.83 242.286 Z" fill="#000000" fill-rule="evenodd" fill-opacity="1" /><path clip-path="url(#clip980)" d="M1267.1 235.62 Q1266.39 235.203 1265.53 235.018 Q1264.7 234.809 1263.68 234.809 Q1260.07 234.809 1258.12 237.171 Q1256.2 239.509 1256.2 243.907 L1256.2 257.564 L1251.92 257.564 L1251.92 231.638 L1256.2 231.638 L1256.2 235.666 Q1257.54 233.305 1259.7 232.171 Q1261.85 231.013 1264.93 231.013 Q1265.37 231.013 1265.9 231.083 Q1266.43 231.129 1267.08 231.245 L1267.1 235.62 Z" fill="#000000" fill-rule="evenodd" fill-opacity="1" /><path clip-path="url(#clip980)" d="M1292.71 243.536 L1292.71 245.62 L1273.12 245.62 Q1273.4 250.018 1275.76 252.333 Q1278.14 254.624 1282.38 254.624 Q1284.83 254.624 1287.13 254.022 Q1289.44 253.42 1291.71 252.217 L1291.71 256.245 Q1289.42 257.217 1287.01 257.726 Q1284.6 258.235 1282.13 258.235 Q1275.92 258.235 1272.29 254.624 Q1268.68 251.013 1268.68 244.856 Q1268.68 238.49 1272.1 234.763 Q1275.55 231.013 1281.39 231.013 Q1286.62 231.013 1289.65 234.393 Q1292.71 237.749 1292.71 243.536 M1288.45 242.286 Q1288.4 238.791 1286.48 236.708 Q1284.58 234.624 1281.43 234.624 Q1277.87 234.624 1275.71 236.638 Q1273.58 238.652 1273.26 242.309 L1288.45 242.286 Z" fill="#000000" fill-rule="evenodd" fill-opacity="1" /><path clip-path="url(#clip980)" d="M1321.25 241.916 L1321.25 257.564 L1316.99 257.564 L1316.99 242.055 Q1316.99 238.374 1315.55 236.546 Q1314.12 234.717 1311.25 234.717 Q1307.8 234.717 1305.81 236.916 Q1303.82 239.115 1303.82 242.911 L1303.82 257.564 L1299.53 257.564 L1299.53 231.638 L1303.82 231.638 L1303.82 235.666 Q1305.34 233.328 1307.4 232.171 Q1309.49 231.013 1312.2 231.013 Q1316.66 231.013 1318.95 233.791 Q1321.25 236.546 1321.25 241.916 Z" fill="#000000" fill-rule="evenodd" fill-opacity="1" /><path clip-path="url(#clip980)" d="M1348.4 232.634 L1348.4 236.615 Q1346.59 235.62 1344.76 235.134 Q1342.96 234.624 1341.11 234.624 Q1336.96 234.624 1334.67 237.263 Q1332.38 239.879 1332.38 244.624 Q1332.38 249.37 1334.67 252.008 Q1336.96 254.624 1341.11 254.624 Q1342.96 254.624 1344.76 254.138 Q1346.59 253.629 1348.4 252.633 L1348.4 256.569 Q1346.62 257.402 1344.7 257.819 Q1342.8 258.235 1340.64 258.235 Q1334.79 258.235 1331.34 254.555 Q1327.89 250.874 1327.89 244.624 Q1327.89 238.282 1331.36 234.647 Q1334.86 231.013 1340.92 231.013 Q1342.89 231.013 1344.76 231.43 Q1346.64 231.823 1348.4 232.634 Z" fill="#000000" fill-rule="evenodd" fill-opacity="1" /><path clip-path="url(#clip980)" d="M1377.98 243.536 L1377.98 245.62 L1358.4 245.62 Q1358.68 250.018 1361.04 252.333 Q1363.42 254.624 1367.66 254.624 Q1370.11 254.624 1372.4 254.022 Q1374.72 253.42 1376.99 252.217 L1376.99 256.245 Q1374.7 257.217 1372.29 257.726 Q1369.88 258.235 1367.4 258.235 Q1361.2 258.235 1357.57 254.624 Q1353.95 251.013 1353.95 244.856 Q1353.95 238.49 1357.38 234.763 Q1360.83 231.013 1366.66 231.013 Q1371.89 231.013 1374.93 234.393 Q1377.98 237.749 1377.98 243.536 M1373.72 242.286 Q1373.68 238.791 1371.76 236.708 Q1369.86 234.624 1366.71 234.624 Q1363.14 234.624 1360.99 236.638 Q1358.86 238.652 1358.54 242.309 L1373.72 242.286 Z" fill="#000000" fill-rule="evenodd" fill-opacity="1" /><path clip-path="url(#clip980)" d="M1413.17 221.546 L1413.17 225.087 L1409.09 225.087 Q1406.8 225.087 1405.9 226.013 Q1405.02 226.939 1405.02 229.347 L1405.02 231.638 L1412.03 231.638 L1412.03 234.948 L1405.02 234.948 L1405.02 257.564 L1400.74 257.564 L1400.74 234.948 L1396.66 234.948 L1396.66 231.638 L1400.74 231.638 L1400.74 229.833 Q1400.74 225.504 1402.75 223.536 Q1404.76 221.546 1409.14 221.546 L1413.17 221.546 Z" fill="#000000" fill-rule="evenodd" fill-opacity="1" /><path clip-path="url(#clip980)" d="M1426.78 234.624 Q1423.35 234.624 1421.36 237.309 Q1419.37 239.971 1419.37 244.624 Q1419.37 249.277 1421.34 251.962 Q1423.33 254.624 1426.78 254.624 Q1430.18 254.624 1432.17 251.939 Q1434.16 249.254 1434.16 244.624 Q1434.16 240.018 1432.17 237.333 Q1430.18 234.624 1426.78 234.624 M1426.78 231.013 Q1432.33 231.013 1435.51 234.624 Q1438.68 238.235 1438.68 244.624 Q1438.68 250.99 1435.51 254.624 Q1432.33 258.235 1426.78 258.235 Q1421.2 258.235 1418.03 254.624 Q1414.88 250.99 1414.88 244.624 Q1414.88 238.235 1418.03 234.624 Q1421.2 231.013 1426.78 231.013 Z" fill="#000000" fill-rule="evenodd" fill-opacity="1" /><path clip-path="url(#clip980)" d="M1460.76 235.62 Q1460.04 235.203 1459.19 235.018 Q1458.35 234.809 1457.33 234.809 Q1453.72 234.809 1451.78 237.171 Q1449.86 239.509 1449.86 243.907 L1449.86 257.564 L1445.57 257.564 L1445.57 231.638 L1449.86 231.638 L1449.86 235.666 Q1451.2 233.305 1453.35 232.171 Q1455.51 231.013 1458.58 231.013 Q1459.02 231.013 1459.56 231.083 Q1460.09 231.129 1460.74 231.245 L1460.76 235.62 Z" fill="#000000" fill-rule="evenodd" fill-opacity="1" /><path clip-path="url(#clip980)" d="M1192.95 276.117 L1192.95 283.478 L1201.72 283.478 L1201.72 286.788 L1192.95 286.788 L1192.95 300.862 Q1192.95 304.034 1193.81 304.936 Q1194.68 305.839 1197.35 305.839 L1201.72 305.839 L1201.72 309.404 L1197.35 309.404 Q1192.42 309.404 1190.54 307.575 Q1188.67 305.723 1188.67 300.862 L1188.67 286.788 L1185.54 286.788 L1185.54 283.478 L1188.67 283.478 L1188.67 276.117 L1192.95 276.117 Z" fill="#000000" fill-rule="evenodd" fill-opacity="1" /><path clip-path="url(#clip980)" d="M1219.11 296.372 Q1213.94 296.372 1211.95 297.552 Q1209.96 298.733 1209.96 301.58 Q1209.96 303.848 1211.44 305.191 Q1212.95 306.51 1215.52 306.51 Q1219.06 306.51 1221.19 304.01 Q1223.34 301.487 1223.34 297.321 L1223.34 296.372 L1219.11 296.372 M1227.6 294.612 L1227.6 309.404 L1223.34 309.404 L1223.34 305.469 Q1221.88 307.83 1219.71 308.964 Q1217.53 310.075 1214.38 310.075 Q1210.4 310.075 1208.04 307.853 Q1205.7 305.608 1205.7 301.858 Q1205.7 297.483 1208.62 295.261 Q1211.56 293.038 1217.37 293.038 L1223.34 293.038 L1223.34 292.622 Q1223.34 289.682 1221.4 288.085 Q1219.48 286.464 1215.98 286.464 Q1213.76 286.464 1211.65 286.997 Q1209.55 287.529 1207.6 288.594 L1207.6 284.659 Q1209.94 283.756 1212.14 283.316 Q1214.34 282.853 1216.42 282.853 Q1222.05 282.853 1224.82 285.77 Q1227.6 288.686 1227.6 294.612 Z" fill="#000000" fill-rule="evenodd" fill-opacity="1" /><path clip-path="url(#clip980)" d="M1251.4 287.46 Q1250.68 287.043 1249.82 286.858 Q1248.99 286.649 1247.97 286.649 Q1244.36 286.649 1242.42 289.011 Q1240.49 291.349 1240.49 295.747 L1240.49 309.404 L1236.21 309.404 L1236.21 283.478 L1240.49 283.478 L1240.49 287.506 Q1241.84 285.145 1243.99 284.011 Q1246.14 282.853 1249.22 282.853 Q1249.66 282.853 1250.19 282.923 Q1250.73 282.969 1251.37 283.085 L1251.4 287.46 Z" fill="#000000" fill-rule="evenodd" fill-opacity="1" /><path clip-path="url(#clip980)" d="M1272.09 296.14 Q1272.09 291.511 1270.17 288.964 Q1268.27 286.418 1264.82 286.418 Q1261.4 286.418 1259.48 288.964 Q1257.58 291.511 1257.58 296.14 Q1257.58 300.747 1259.48 303.293 Q1261.4 305.839 1264.82 305.839 Q1268.27 305.839 1270.17 303.293 Q1272.09 300.747 1272.09 296.14 M1276.35 306.186 Q1276.35 312.807 1273.41 316.024 Q1270.47 319.265 1264.41 319.265 Q1262.16 319.265 1260.17 318.918 Q1258.18 318.594 1256.3 317.899 L1256.3 313.756 Q1258.18 314.774 1260.01 315.26 Q1261.84 315.747 1263.74 315.747 Q1267.93 315.747 1270.01 313.547 Q1272.09 311.372 1272.09 306.95 L1272.09 304.844 Q1270.77 307.135 1268.71 308.27 Q1266.65 309.404 1263.78 309.404 Q1259.01 309.404 1256.1 305.77 Q1253.18 302.135 1253.18 296.14 Q1253.18 290.122 1256.1 286.487 Q1259.01 282.853 1263.78 282.853 Q1266.65 282.853 1268.71 283.987 Q1270.77 285.122 1272.09 287.413 L1272.09 283.478 L1276.35 283.478 L1276.35 306.186 Z" fill="#000000" fill-rule="evenodd" fill-opacity="1" /><path clip-path="url(#clip980)" d="M1307.3 295.376 L1307.3 297.46 L1287.72 297.46 Q1287.99 301.858 1290.36 304.173 Q1292.74 306.464 1296.98 306.464 Q1299.43 306.464 1301.72 305.862 Q1304.04 305.26 1306.3 304.057 L1306.3 308.085 Q1304.01 309.057 1301.61 309.566 Q1299.2 310.075 1296.72 310.075 Q1290.52 310.075 1286.88 306.464 Q1283.27 302.853 1283.27 296.696 Q1283.27 290.33 1286.7 286.603 Q1290.15 282.853 1295.98 282.853 Q1301.21 282.853 1304.24 286.233 Q1307.3 289.589 1307.3 295.376 M1303.04 294.126 Q1302.99 290.631 1301.07 288.548 Q1299.17 286.464 1296.03 286.464 Q1292.46 286.464 1290.31 288.478 Q1288.18 290.492 1287.86 294.149 L1303.04 294.126 Z" fill="#000000" fill-rule="evenodd" fill-opacity="1" /><path clip-path="url(#clip980)" d="M1318.5 276.117 L1318.5 283.478 L1327.28 283.478 L1327.28 286.788 L1318.5 286.788 L1318.5 300.862 Q1318.5 304.034 1319.36 304.936 Q1320.24 305.839 1322.9 305.839 L1327.28 305.839 L1327.28 309.404 L1322.9 309.404 Q1317.97 309.404 1316.1 307.575 Q1314.22 305.723 1314.22 300.862 L1314.22 286.788 L1311.1 286.788 L1311.1 283.478 L1314.22 283.478 L1314.22 276.117 L1318.5 276.117 Z" fill="#000000" fill-rule="evenodd" fill-opacity="1" /><path clip-path="url(#clip980)" d="M1361.07 273.386 L1361.07 276.927 L1357 276.927 Q1354.71 276.927 1353.8 277.853 Q1352.92 278.779 1352.92 281.187 L1352.92 283.478 L1359.94 283.478 L1359.94 286.788 L1352.92 286.788 L1352.92 309.404 L1348.64 309.404 L1348.64 286.788 L1344.57 286.788 L1344.57 283.478 L1348.64 283.478 L1348.64 281.673 Q1348.64 277.344 1350.66 275.376 Q1352.67 273.386 1357.04 273.386 L1361.07 273.386 Z" fill="#000000" fill-rule="evenodd" fill-opacity="1" /><path clip-path="url(#clip980)" d="M1364.64 283.478 L1368.9 283.478 L1368.9 309.404 L1364.64 309.404 L1364.64 283.478 M1364.64 273.386 L1368.9 273.386 L1368.9 278.779 L1364.64 278.779 L1364.64 273.386 Z" fill="#000000" fill-rule="evenodd" fill-opacity="1" /><path clip-path="url(#clip980)" d="M1392.83 287.46 Q1392.11 287.043 1391.26 286.858 Q1390.42 286.649 1389.41 286.649 Q1385.79 286.649 1383.85 289.011 Q1381.93 291.349 1381.93 295.747 L1381.93 309.404 L1377.65 309.404 L1377.65 283.478 L1381.93 283.478 L1381.93 287.506 Q1383.27 285.145 1385.42 284.011 Q1387.58 282.853 1390.66 282.853 Q1391.1 282.853 1391.63 282.923 Q1392.16 282.969 1392.81 283.085 L1392.83 287.46 Z" fill="#000000" fill-rule="evenodd" fill-opacity="1" /><path clip-path="url(#clip980)" d="M1413.83 284.242 L1413.83 288.27 Q1412.02 287.344 1410.08 286.881 Q1408.13 286.418 1406.05 286.418 Q1402.88 286.418 1401.28 287.39 Q1399.71 288.362 1399.71 290.307 Q1399.71 291.788 1400.84 292.645 Q1401.98 293.478 1405.4 294.242 L1406.86 294.566 Q1411.4 295.538 1413.29 297.321 Q1415.22 299.08 1415.22 302.251 Q1415.22 305.862 1412.35 307.969 Q1409.5 310.075 1404.5 310.075 Q1402.42 310.075 1400.15 309.659 Q1397.9 309.265 1395.4 308.455 L1395.4 304.057 Q1397.76 305.284 1400.05 305.909 Q1402.35 306.51 1404.59 306.51 Q1407.6 306.51 1409.22 305.492 Q1410.84 304.45 1410.84 302.575 Q1410.84 300.839 1409.66 299.913 Q1408.5 298.987 1404.54 298.131 L1403.06 297.784 Q1399.1 296.95 1397.35 295.237 Q1395.59 293.501 1395.59 290.492 Q1395.59 286.835 1398.18 284.844 Q1400.77 282.853 1405.54 282.853 Q1407.9 282.853 1409.98 283.2 Q1412.07 283.548 1413.83 284.242 Z" fill="#000000" fill-rule="evenodd" fill-opacity="1" /><path clip-path="url(#clip980)" d="M1426.21 276.117 L1426.21 283.478 L1434.98 283.478 L1434.98 286.788 L1426.21 286.788 L1426.21 300.862 Q1426.21 304.034 1427.07 304.936 Q1427.95 305.839 1430.61 305.839 L1434.98 305.839 L1434.98 309.404 L1430.61 309.404 Q1425.68 309.404 1423.8 307.575 Q1421.93 305.723 1421.93 300.862 L1421.93 286.788 L1418.8 286.788 L1418.8 283.478 L1421.93 283.478 L1421.93 276.117 L1426.21 276.117 Z" fill="#000000" fill-rule="evenodd" fill-opacity="1" /><path clip-path="url(#clip980)" d="
M1075.11 350.876 L1161.89 350.876 L1161.89 302.492 L1075.11 302.492 L1075.11 350.876  Z
  " fill="#006d60" fill-rule="evenodd" fill-opacity="1"/>
<polyline clip-path="url(#clip980)" style="stroke:#000000; stroke-linecap:butt; stroke-linejoin:round; stroke-width:4; stroke-opacity:1; fill:none" points="
  1075.11,350.876 1161.89,350.876 1161.89,302.492 1075.11,302.492 1075.11,350.876 
  "/>
<path clip-path="url(#clip980)" d="M1191.96 313.478 L1180.15 331.927 L1191.96 331.927 L1191.96 313.478 M1190.73 309.404 L1196.61 309.404 L1196.61 331.927 L1201.54 331.927 L1201.54 335.816 L1196.61 335.816 L1196.61 343.964 L1191.96 343.964 L1191.96 335.816 L1176.35 335.816 L1176.35 331.302 L1190.73 309.404 Z" fill="#000000" fill-rule="evenodd" fill-opacity="1" /><path clip-path="url(#clip980)" d="
M1075.11 411.356 L1161.89 411.356 L1161.89 362.972 L1075.11 362.972 L1075.11 411.356  Z
  " fill="#008569" fill-rule="evenodd" fill-opacity="1"/>
<polyline clip-path="url(#clip980)" style="stroke:#000000; stroke-linecap:butt; stroke-linejoin:round; stroke-width:4; stroke-opacity:1; fill:none" points="
  1075.11,411.356 1161.89,411.356 1161.89,362.972 1075.11,362.972 1075.11,411.356 
  "/>
<path clip-path="url(#clip980)" d="M1191.98 385.81 Q1195.34 386.527 1197.21 388.796 Q1199.11 391.064 1199.11 394.398 Q1199.11 399.513 1195.59 402.314 Q1192.07 405.115 1185.59 405.115 Q1183.41 405.115 1181.1 404.675 Q1178.81 404.259 1176.35 403.402 L1176.35 398.888 Q1178.3 400.023 1180.61 400.601 Q1182.93 401.18 1185.45 401.18 Q1189.85 401.18 1192.14 399.444 Q1194.46 397.708 1194.46 394.398 Q1194.46 391.342 1192.3 389.629 Q1190.17 387.893 1186.35 387.893 L1182.33 387.893 L1182.33 384.051 L1186.54 384.051 Q1189.99 384.051 1191.82 382.685 Q1193.65 381.296 1193.65 378.703 Q1193.65 376.041 1191.75 374.629 Q1189.87 373.194 1186.35 373.194 Q1184.43 373.194 1182.23 373.611 Q1180.03 374.027 1177.4 374.907 L1177.4 370.74 Q1180.06 370 1182.37 369.629 Q1184.71 369.259 1186.77 369.259 Q1192.09 369.259 1195.2 371.69 Q1198.3 374.097 1198.3 378.217 Q1198.3 381.088 1196.65 383.078 Q1195.01 385.046 1191.98 385.81 Z" fill="#000000" fill-rule="evenodd" fill-opacity="1" /><path clip-path="url(#clip980)" d="
M1075.11 471.836 L1161.89 471.836 L1161.89 423.452 L1075.11 423.452 L1075.11 471.836  Z
  " fill="#009e73" fill-rule="evenodd" fill-opacity="1"/>
<polyline clip-path="url(#clip980)" style="stroke:#000000; stroke-linecap:butt; stroke-linejoin:round; stroke-width:4; stroke-opacity:1; fill:none" points="
  1075.11,471.836 1161.89,471.836 1161.89,423.452 1075.11,423.452 1075.11,471.836 
  "/>
<path clip-path="url(#clip980)" d="M1181.98 460.989 L1198.3 460.989 L1198.3 464.924 L1176.35 464.924 L1176.35 460.989 Q1179.02 458.234 1183.6 453.605 Q1188.21 448.952 1189.39 447.609 Q1191.63 445.086 1192.51 443.35 Q1193.41 441.591 1193.41 439.901 Q1193.41 437.146 1191.47 435.41 Q1189.55 433.674 1186.45 433.674 Q1184.25 433.674 1181.79 434.438 Q1179.36 435.202 1176.59 436.753 L1176.59 432.031 Q1179.41 430.896 1181.86 430.318 Q1184.32 429.739 1186.35 429.739 Q1191.72 429.739 1194.92 432.424 Q1198.11 435.109 1198.11 439.6 Q1198.11 441.73 1197.3 443.651 Q1196.52 445.549 1194.41 448.142 Q1193.83 448.813 1190.73 452.031 Q1187.63 455.225 1181.98 460.989 Z" fill="#000000" fill-rule="evenodd" fill-opacity="1" /><path clip-path="url(#clip980)" d="
M1075.11 532.316 L1161.89 532.316 L1161.89 483.932 L1075.11 483.932 L1075.11 532.316  Z
  " fill="#77c6b0" fill-rule="evenodd" fill-opacity="1"/>
<polyline clip-path="url(#clip980)" style="stroke:#000000; stroke-linecap:butt; stroke-linejoin:round; stroke-width:4; stroke-opacity:1; fill:none" points="
  1075.11,532.316 1161.89,532.316 1161.89,483.932 1075.11,483.932 1075.11,532.316 
  "/>
<path clip-path="url(#clip980)" d="M1177.03 521.469 L1184.66 521.469 L1184.66 495.103 L1176.35 496.77 L1176.35 492.511 L1184.62 490.844 L1189.29 490.844 L1189.29 521.469 L1196.93 521.469 L1196.93 525.404 L1177.03 525.404 L1177.03 521.469 Z" fill="#000000" fill-rule="evenodd" fill-opacity="1" /><path clip-path="url(#clip980)" d="
M1075.11 592.796 L1161.89 592.796 L1161.89 544.412 L1075.11 544.412 L1075.11 592.796  Z
  " fill="#eeeeee" fill-rule="evenodd" fill-opacity="1"/>
<polyline clip-path="url(#clip980)" style="stroke:#000000; stroke-linecap:butt; stroke-linejoin:round; stroke-width:4; stroke-opacity:1; fill:none" points="
  1075.11,592.796 1161.89,592.796 1161.89,544.412 1075.11,544.412 1075.11,592.796 
  "/>
<path clip-path="url(#clip980)" d="M1188.3 554.403 Q1184.69 554.403 1182.86 557.967 Q1181.05 561.509 1181.05 568.639 Q1181.05 575.745 1182.86 579.31 Q1184.69 582.852 1188.3 582.852 Q1191.93 582.852 1193.74 579.31 Q1195.57 575.745 1195.57 568.639 Q1195.57 561.509 1193.74 557.967 Q1191.93 554.403 1188.3 554.403 M1188.3 550.699 Q1194.11 550.699 1197.16 555.305 Q1200.24 559.889 1200.24 568.639 Q1200.24 577.365 1197.16 581.972 Q1194.11 586.555 1188.3 586.555 Q1182.49 586.555 1179.41 581.972 Q1176.35 577.365 1176.35 568.639 Q1176.35 559.889 1179.41 555.305 Q1182.49 550.699 1188.3 550.699 Z" fill="#000000" fill-rule="evenodd" fill-opacity="1" /><path clip-path="url(#clip980)" d="
M1075.11 653.276 L1161.89 653.276 L1161.89 604.892 L1075.11 604.892 L1075.11 653.276  Z
  " fill="#ddb3ca" fill-rule="evenodd" fill-opacity="1"/>
<polyline clip-path="url(#clip980)" style="stroke:#000000; stroke-linecap:butt; stroke-linejoin:round; stroke-width:4; stroke-opacity:1; fill:none" points="
  1075.11,653.276 1161.89,653.276 1161.89,604.892 1075.11,604.892 1075.11,653.276 
  "/>
<path clip-path="url(#clip980)" d="M1176.35 631.48 L1188.83 631.48 L1188.83 635.276 L1176.35 635.276 L1176.35 631.48 Z" fill="#000000" fill-rule="evenodd" fill-opacity="1" /><path clip-path="url(#clip980)" d="M1197.03 642.429 L1204.66 642.429 L1204.66 616.063 L1196.35 617.73 L1196.35 613.471 L1204.62 611.804 L1209.29 611.804 L1209.29 642.429 L1216.93 642.429 L1216.93 646.364 L1197.03 646.364 L1197.03 642.429 Z" fill="#000000" fill-rule="evenodd" fill-opacity="1" /><path clip-path="url(#clip980)" d="
M1075.11 713.756 L1161.89 713.756 L1161.89 665.372 L1075.11 665.372 L1075.11 713.756  Z
  " fill="#cc79a7" fill-rule="evenodd" fill-opacity="1"/>
<polyline clip-path="url(#clip980)" style="stroke:#000000; stroke-linecap:butt; stroke-linejoin:round; stroke-width:4; stroke-opacity:1; fill:none" points="
  1075.11,713.756 1161.89,713.756 1161.89,665.372 1075.11,665.372 1075.11,713.756 
  "/>
<path clip-path="url(#clip980)" d="M1176.35 691.96 L1188.83 691.96 L1188.83 695.756 L1176.35 695.756 L1176.35 691.96 Z" fill="#000000" fill-rule="evenodd" fill-opacity="1" /><path clip-path="url(#clip980)" d="M1200.24 702.909 L1216.56 702.909 L1216.56 706.844 L1194.62 706.844 L1194.62 702.909 Q1197.28 700.154 1201.86 695.525 Q1206.47 690.872 1207.65 689.529 Q1209.9 687.006 1210.78 685.27 Q1211.68 683.511 1211.68 681.821 Q1211.68 679.066 1209.73 677.33 Q1207.81 675.594 1204.71 675.594 Q1202.51 675.594 1200.06 676.358 Q1197.63 677.122 1194.85 678.673 L1194.85 673.951 Q1197.67 672.816 1200.13 672.238 Q1202.58 671.659 1204.62 671.659 Q1209.99 671.659 1213.18 674.344 Q1216.38 677.029 1216.38 681.52 Q1216.38 683.65 1215.57 685.571 Q1214.78 687.469 1212.67 690.062 Q1212.09 690.733 1208.99 693.951 Q1205.89 697.145 1200.24 702.909 Z" fill="#000000" fill-rule="evenodd" fill-opacity="1" /><path clip-path="url(#clip980)" d="
M1075.11 774.236 L1161.89 774.236 L1161.89 725.852 L1075.11 725.852 L1075.11 774.236  Z
  " fill="#b55585" fill-rule="evenodd" fill-opacity="1"/>
<polyline clip-path="url(#clip980)" style="stroke:#000000; stroke-linecap:butt; stroke-linejoin:round; stroke-width:4; stroke-opacity:1; fill:none" points="
  1075.11,774.236 1161.89,774.236 1161.89,725.852 1075.11,725.852 1075.11,774.236 
  "/>
<path clip-path="url(#clip980)" d="M1176.35 752.44 L1188.83 752.44 L1188.83 756.236 L1176.35 756.236 L1176.35 752.44 Z" fill="#000000" fill-rule="evenodd" fill-opacity="1" /><path clip-path="url(#clip980)" d="M1210.38 748.69 Q1213.74 749.407 1215.61 751.676 Q1217.51 753.944 1217.51 757.278 Q1217.51 762.393 1213.99 765.194 Q1210.47 767.995 1203.99 767.995 Q1201.82 767.995 1199.5 767.555 Q1197.21 767.139 1194.76 766.282 L1194.76 761.768 Q1196.7 762.903 1199.02 763.481 Q1201.33 764.06 1203.85 764.06 Q1208.25 764.06 1210.54 762.324 Q1212.86 760.588 1212.86 757.278 Q1212.86 754.222 1210.71 752.509 Q1208.58 750.773 1204.76 750.773 L1200.73 750.773 L1200.73 746.931 L1204.94 746.931 Q1208.39 746.931 1210.22 745.565 Q1212.05 744.176 1212.05 741.583 Q1212.05 738.921 1210.15 737.509 Q1208.28 736.074 1204.76 736.074 Q1202.84 736.074 1200.64 736.491 Q1198.44 736.907 1195.8 737.787 L1195.8 733.62 Q1198.46 732.88 1200.78 732.509 Q1203.11 732.139 1205.17 732.139 Q1210.5 732.139 1213.6 734.57 Q1216.7 736.977 1216.7 741.097 Q1216.7 743.968 1215.06 745.958 Q1213.41 747.926 1210.38 748.69 Z" fill="#000000" fill-rule="evenodd" fill-opacity="1" /><path clip-path="url(#clip980)" d="
M1075.11 834.716 L1161.89 834.716 L1161.89 786.332 L1075.11 786.332 L1075.11 834.716  Z
  " fill="#9e3264" fill-rule="evenodd" fill-opacity="1"/>
<polyline clip-path="url(#clip980)" style="stroke:#000000; stroke-linecap:butt; stroke-linejoin:round; stroke-width:4; stroke-opacity:1; fill:none" points="
  1075.11,834.716 1161.89,834.716 1161.89,786.332 1075.11,786.332 1075.11,834.716 
  "/>
<path clip-path="url(#clip980)" d="M1176.35 812.92 L1188.83 812.92 L1188.83 816.716 L1176.35 816.716 L1176.35 812.92 Z" fill="#000000" fill-rule="evenodd" fill-opacity="1" /><path clip-path="url(#clip980)" d="M1209.06 797.318 L1197.26 815.767 L1209.06 815.767 L1209.06 797.318 M1207.84 793.244 L1213.71 793.244 L1213.71 815.767 L1218.65 815.767 L1218.65 819.656 L1213.71 819.656 L1213.71 827.804 L1209.06 827.804 L1209.06 819.656 L1193.46 819.656 L1193.46 815.142 L1207.84 793.244 Z" fill="#000000" fill-rule="evenodd" fill-opacity="1" /></svg>
