<?xml version="1.0" encoding="utf-8"?>
<svg xmlns="http://www.w3.org/2000/svg" xmlns:xlink="http://www.w3.org/1999/xlink" width="650" height="290" viewBox="0 0 2600 1160">
<defs>
  <clipPath id="clip930">
    <rect x="0" y="0" width="2600" height="1160"/>
  </clipPath>
</defs>
<path clip-path="url(#clip930)" d="
M0 1160 L2600 1160 L2600 0 L0 0  Z
  " fill="#ffffff" fill-rule="evenodd" fill-opacity="1"/>
<defs>
  <clipPath id="clip931">
    <rect x="520" y="0" width="1821" height="1160"/>
  </clipPath>
</defs>
<path clip-path="url(#clip930)" d="
M241.889 872.117 L1871.49 872.117 L1871.49 189.856 L241.889 189.856  Z
  " fill="#ffffff" fill-rule="evenodd" fill-opacity="1"/>
<defs>
  <clipPath id="clip932">
    <rect x="241" y="189" width="1631" height="683"/>
  </clipPath>
</defs>
<polyline clip-path="url(#clip932)" style="stroke:#000000; stroke-linecap:butt; stroke-linejoin:round; stroke-width:2; stroke-opacity:0.1; fill:none" points="
  384.094,872.117 384.094,189.856 
  "/>
<polyline clip-path="url(#clip932)" style="stroke:#000000; stroke-linecap:butt; stroke-linejoin:round; stroke-width:2; stroke-opacity:0.1; fill:none" points="
  864.519,872.117 864.519,189.856 
  "/>
<polyline clip-path="url(#clip932)" style="stroke:#000000; stroke-linecap:butt; stroke-linejoin:round; stroke-width:2; stroke-opacity:0.1; fill:none" points="
  1344.94,872.117 1344.94,189.856 
  "/>
<polyline clip-path="url(#clip932)" style="stroke:#000000; stroke-linecap:butt; stroke-linejoin:round; stroke-width:2; stroke-opacity:0.1; fill:none" points="
  1825.37,872.117 1825.37,189.856 
  "/>
<polyline clip-path="url(#clip930)" style="stroke:#000000; stroke-linecap:butt; stroke-linejoin:round; stroke-width:4; stroke-opacity:1; fill:none" points="
  241.889,872.117 1871.49,872.117 
  "/>
<polyline clip-path="url(#clip930)" style="stroke:#000000; stroke-linecap:butt; stroke-linejoin:round; stroke-width:4; stroke-opacity:1; fill:none" points="
  384.094,872.117 384.094,863.93 
  "/>
<polyline clip-path="url(#clip930)" style="stroke:#000000; stroke-linecap:butt; stroke-linejoin:round; stroke-width:4; stroke-opacity:1; fill:none" points="
  864.519,872.117 864.519,863.93 
  "/>
<polyline clip-path="url(#clip930)" style="stroke:#000000; stroke-linecap:butt; stroke-linejoin:round; stroke-width:4; stroke-opacity:1; fill:none" points="
  1344.94,872.117 1344.94,863.93 
  "/>
<polyline clip-path="url(#clip930)" style="stroke:#000000; stroke-linecap:butt; stroke-linejoin:round; stroke-width:4; stroke-opacity:1; fill:none" points="
  1825.37,872.117 1825.37,863.93 
  "/>
<path clip-path="url(#clip930)" d="M331.12 917.561 L360.796 917.561 L360.796 921.496 L331.12 921.496 L331.12 917.561 Z" fill="#000000" fill-rule="evenodd" fill-opacity="1" /><path clip-path="url(#clip930)" d="M380.888 902.908 Q377.277 902.908 375.449 906.473 Q373.643 910.014 373.643 917.144 Q373.643 924.25 375.449 927.815 Q377.277 931.357 380.888 931.357 Q384.523 931.357 386.328 927.815 Q388.157 924.25 388.157 917.144 Q388.157 910.014 386.328 906.473 Q384.523 902.908 380.888 902.908 M380.888 899.204 Q386.699 899.204 389.754 903.811 Q392.833 908.394 392.833 917.144 Q392.833 925.871 389.754 930.477 Q386.699 935.06 380.888 935.06 Q375.078 935.06 372 930.477 Q368.944 925.871 368.944 917.144 Q368.944 908.394 372 903.811 Q375.078 899.204 380.888 899.204 Z" fill="#000000" fill-rule="evenodd" fill-opacity="1" /><path clip-path="url(#clip930)" d="M401.05 928.51 L405.935 928.51 L405.935 934.389 L401.05 934.389 L401.05 928.51 Z" fill="#000000" fill-rule="evenodd" fill-opacity="1" /><path clip-path="url(#clip930)" d="M416.166 899.829 L434.522 899.829 L434.522 903.764 L420.448 903.764 L420.448 912.237 Q421.467 911.889 422.485 911.727 Q423.504 911.542 424.522 911.542 Q430.309 911.542 433.689 914.713 Q437.069 917.885 437.069 923.301 Q437.069 928.88 433.596 931.982 Q430.124 935.06 423.805 935.06 Q421.629 935.06 419.36 934.69 Q417.115 934.32 414.708 933.579 L414.708 928.88 Q416.791 930.014 419.013 930.57 Q421.235 931.125 423.712 931.125 Q427.717 931.125 430.055 929.019 Q432.393 926.912 432.393 923.301 Q432.393 919.69 430.055 917.584 Q427.717 915.477 423.712 915.477 Q421.837 915.477 419.962 915.894 Q418.11 916.311 416.166 917.19 L416.166 899.829 Z" fill="#000000" fill-rule="evenodd" fill-opacity="1" /><path clip-path="url(#clip930)" d="M841.903 902.908 Q838.292 902.908 836.464 906.473 Q834.658 910.014 834.658 917.144 Q834.658 924.25 836.464 927.815 Q838.292 931.357 841.903 931.357 Q845.538 931.357 847.343 927.815 Q849.172 924.25 849.172 917.144 Q849.172 910.014 847.343 906.473 Q845.538 902.908 841.903 902.908 M841.903 899.204 Q847.714 899.204 850.769 903.811 Q853.848 908.394 853.848 917.144 Q853.848 925.871 850.769 930.477 Q847.714 935.06 841.903 935.06 Q836.093 935.06 833.015 930.477 Q829.959 925.871 829.959 917.144 Q829.959 908.394 833.015 903.811 Q836.093 899.204 841.903 899.204 Z" fill="#000000" fill-rule="evenodd" fill-opacity="1" /><path clip-path="url(#clip930)" d="M862.065 928.51 L866.95 928.51 L866.95 934.389 L862.065 934.389 L862.065 928.51 Z" fill="#000000" fill-rule="evenodd" fill-opacity="1" /><path clip-path="url(#clip930)" d="M887.135 902.908 Q883.523 902.908 881.695 906.473 Q879.889 910.014 879.889 917.144 Q879.889 924.25 881.695 927.815 Q883.523 931.357 887.135 931.357 Q890.769 931.357 892.574 927.815 Q894.403 924.25 894.403 917.144 Q894.403 910.014 892.574 906.473 Q890.769 902.908 887.135 902.908 M887.135 899.204 Q892.945 899.204 896 903.811 Q899.079 908.394 899.079 917.144 Q899.079 925.871 896 930.477 Q892.945 935.06 887.135 935.06 Q881.324 935.06 878.246 930.477 Q875.19 925.871 875.19 917.144 Q875.19 908.394 878.246 903.811 Q881.324 899.204 887.135 899.204 Z" fill="#000000" fill-rule="evenodd" fill-opacity="1" /><path clip-path="url(#clip930)" d="M1322.83 902.908 Q1319.21 902.908 1317.39 906.473 Q1315.58 910.014 1315.58 917.144 Q1315.58 924.25 1317.39 927.815 Q1319.21 931.357 1322.83 931.357 Q1326.46 931.357 1328.27 927.815 Q1330.09 924.25 1330.09 917.144 Q1330.09 910.014 1328.27 906.473 Q1326.46 902.908 1322.83 902.908 M1322.83 899.204 Q1328.64 899.204 1331.69 903.811 Q1334.77 908.394 1334.77 917.144 Q1334.77 925.871 1331.69 930.477 Q1328.64 935.06 1322.83 935.06 Q1317.02 935.06 1313.94 930.477 Q1310.88 925.871 1310.88 917.144 Q1310.88 908.394 1313.94 903.811 Q1317.02 899.204 1322.83 899.204 Z" fill="#000000" fill-rule="evenodd" fill-opacity="1" /><path clip-path="url(#clip930)" d="M1342.99 928.51 L1347.87 928.51 L1347.87 934.389 L1342.99 934.389 L1342.99 928.51 Z" fill="#000000" fill-rule="evenodd" fill-opacity="1" /><path clip-path="url(#clip930)" d="M1358.1 899.829 L1376.46 899.829 L1376.46 903.764 L1362.39 903.764 L1362.39 912.237 Q1363.4 911.889 1364.42 911.727 Q1365.44 911.542 1366.46 911.542 Q1372.25 911.542 1375.63 914.713 Q1379.01 917.885 1379.01 923.301 Q1379.01 928.88 1375.53 931.982 Q1372.06 935.06 1365.74 935.06 Q1363.57 935.06 1361.3 934.69 Q1359.05 934.32 1356.64 933.579 L1356.64 928.88 Q1358.73 930.014 1360.95 930.57 Q1363.17 931.125 1365.65 931.125 Q1369.65 931.125 1371.99 929.019 Q1374.33 926.912 1374.33 923.301 Q1374.33 919.69 1371.99 917.584 Q1369.65 915.477 1365.65 915.477 Q1363.77 915.477 1361.9 915.894 Q1360.05 916.311 1358.1 917.19 L1358.1 899.829 Z" fill="#000000" fill-rule="evenodd" fill-opacity="1" /><path clip-path="url(#clip930)" d="M1792.52 930.454 L1800.16 930.454 L1800.16 904.088 L1791.85 905.755 L1791.85 901.496 L1800.11 899.829 L1804.79 899.829 L1804.79 930.454 L1812.43 930.454 L1812.43 934.389 L1792.52 934.389 L1792.52 930.454 Z" fill="#000000" fill-rule="evenodd" fill-opacity="1" /><path clip-path="url(#clip930)" d="M1821.87 928.51 L1826.76 928.51 L1826.76 934.389 L1821.87 934.389 L1821.87 928.51 Z" fill="#000000" fill-rule="evenodd" fill-opacity="1" /><path clip-path="url(#clip930)" d="M1846.94 902.908 Q1843.33 902.908 1841.5 906.473 Q1839.7 910.014 1839.7 917.144 Q1839.7 924.25 1841.5 927.815 Q1843.33 931.357 1846.94 931.357 Q1850.58 931.357 1852.38 927.815 Q1854.21 924.25 1854.21 917.144 Q1854.21 910.014 1852.38 906.473 Q1850.58 902.908 1846.94 902.908 M1846.94 899.204 Q1852.75 899.204 1855.81 903.811 Q1858.89 908.394 1858.89 917.144 Q1858.89 925.871 1855.81 930.477 Q1852.75 935.06 1846.94 935.06 Q1841.13 935.06 1838.05 930.477 Q1835 925.871 1835 917.144 Q1835 908.394 1838.05 903.811 Q1841.13 899.204 1846.94 899.204 Z" fill="#000000" fill-rule="evenodd" fill-opacity="1" /><path clip-path="url(#clip930)" d="M559.257 989.808 Q558.27 989.235 557.092 988.98 Q555.946 988.694 554.546 988.694 Q549.581 988.694 546.907 991.94 Q544.265 995.155 544.265 1001.2 L544.265 1019.98 L538.377 1019.98 L538.377 984.333 L544.265 984.333 L544.265 989.871 Q546.111 986.625 549.071 985.065 Q552.032 983.474 556.265 983.474 Q556.869 983.474 557.602 983.569 Q558.334 983.633 559.225 983.792 L559.257 989.808 Z" fill="#000000" fill-rule="evenodd" fill-opacity="1" /><path clip-path="url(#clip930)" d="M594.459 1000.69 L594.459 1003.56 L567.532 1003.56 Q567.914 1009.61 571.16 1012.79 Q574.439 1015.94 580.263 1015.94 Q583.637 1015.94 586.788 1015.11 Q589.971 1014.28 593.09 1012.63 L593.09 1018.17 Q589.939 1019.5 586.629 1020.2 Q583.319 1020.9 579.913 1020.9 Q571.383 1020.9 566.386 1015.94 Q561.421 1010.97 561.421 1002.51 Q561.421 993.754 566.132 988.63 Q570.874 983.474 578.895 983.474 Q586.088 983.474 590.258 988.121 Q594.459 992.736 594.459 1000.69 M588.602 998.974 Q588.539 994.168 585.897 991.304 Q583.287 988.439 578.958 988.439 Q574.057 988.439 571.097 991.208 Q568.169 993.977 567.723 999.006 L588.602 998.974 Z" fill="#000000" fill-rule="evenodd" fill-opacity="1" /><path clip-path="url(#clip930)" d="M604.071 970.456 L609.928 970.456 L609.928 1019.98 L604.071 1019.98 L604.071 970.456 Z" fill="#000000" fill-rule="evenodd" fill-opacity="1" /><path clip-path="url(#clip930)" d="M638.382 1002.06 Q631.285 1002.06 628.547 1003.68 Q625.81 1005.31 625.81 1009.22 Q625.81 1012.34 627.847 1014.19 Q629.916 1016 633.449 1016 Q638.319 1016 641.247 1012.57 Q644.207 1009.1 644.207 1003.37 L644.207 1002.06 L638.382 1002.06 M650.063 999.643 L650.063 1019.98 L644.207 1019.98 L644.207 1014.57 Q642.202 1017.82 639.21 1019.38 Q636.218 1020.9 631.889 1020.9 Q626.415 1020.9 623.168 1017.85 Q619.954 1014.76 619.954 1009.61 Q619.954 1003.59 623.964 1000.53 Q628.006 997.478 635.995 997.478 L644.207 997.478 L644.207 996.905 Q644.207 992.863 641.533 990.667 Q638.892 988.439 634.085 988.439 Q631.03 988.439 628.134 989.171 Q625.237 989.903 622.564 991.367 L622.564 985.956 Q625.778 984.715 628.802 984.11 Q631.826 983.474 634.69 983.474 Q642.425 983.474 646.244 987.484 Q650.063 991.495 650.063 999.643 Z" fill="#000000" fill-rule="evenodd" fill-opacity="1" /><path clip-path="url(#clip930)" d="M667.919 974.212 L667.919 984.333 L679.982 984.333 L679.982 988.885 L667.919 988.885 L667.919 1008.24 Q667.919 1012.6 669.097 1013.84 Q670.306 1015.08 673.967 1015.08 L679.982 1015.08 L679.982 1019.98 L673.967 1019.98 Q667.187 1019.98 664.609 1017.47 Q662.031 1014.92 662.031 1008.24 L662.031 988.885 L657.734 988.885 L657.734 984.333 L662.031 984.333 L662.031 974.212 L667.919 974.212 Z" fill="#000000" fill-rule="evenodd" fill-opacity="1" /><path clip-path="url(#clip930)" d="M687.685 984.333 L693.541 984.333 L693.541 1019.98 L687.685 1019.98 L687.685 984.333 M687.685 970.456 L693.541 970.456 L693.541 977.872 L687.685 977.872 L687.685 970.456 Z" fill="#000000" fill-rule="evenodd" fill-opacity="1" /><path clip-path="url(#clip930)" d="M701.594 984.333 L707.8 984.333 L718.94 1014.25 L730.08 984.333 L736.287 984.333 L722.919 1019.98 L714.962 1019.98 L701.594 984.333 Z" fill="#000000" fill-rule="evenodd" fill-opacity="1" /><path clip-path="url(#clip930)" d="M774.863 1000.69 L774.863 1003.56 L747.936 1003.56 Q748.318 1009.61 751.565 1012.79 Q754.843 1015.94 760.668 1015.94 Q764.041 1015.94 767.192 1015.11 Q770.375 1014.28 773.494 1012.63 L773.494 1018.17 Q770.343 1019.5 767.033 1020.2 Q763.723 1020.9 760.317 1020.9 Q751.787 1020.9 746.79 1015.94 Q741.825 1010.97 741.825 1002.51 Q741.825 993.754 746.536 988.63 Q751.278 983.474 759.299 983.474 Q766.492 983.474 770.662 988.121 Q774.863 992.736 774.863 1000.69 M769.007 998.974 Q768.943 994.168 766.301 991.304 Q763.691 988.439 759.363 988.439 Q754.461 988.439 751.501 991.208 Q748.573 993.977 748.127 999.006 L769.007 998.974 Z" fill="#000000" fill-rule="evenodd" fill-opacity="1" /><path clip-path="url(#clip930)" d="M823.242 970.456 L823.242 975.326 L817.641 975.326 Q814.49 975.326 813.248 976.599 Q812.039 977.872 812.039 981.182 L812.039 984.333 L821.683 984.333 L821.683 988.885 L812.039 988.885 L812.039 1019.98 L806.151 1019.98 L806.151 988.885 L800.549 988.885 L800.549 984.333 L806.151 984.333 L806.151 981.851 Q806.151 975.899 808.92 973.193 Q811.689 970.456 817.704 970.456 L823.242 970.456 Z" fill="#000000" fill-rule="evenodd" fill-opacity="1" /><path clip-path="url(#clip930)" d="M848.801 989.808 Q847.814 989.235 846.636 988.98 Q845.491 988.694 844.09 988.694 Q839.125 988.694 836.451 991.94 Q833.81 995.155 833.81 1001.2 L833.81 1019.98 L827.921 1019.98 L827.921 984.333 L833.81 984.333 L833.81 989.871 Q835.656 986.625 838.616 985.065 Q841.576 983.474 845.809 983.474 Q846.414 983.474 847.146 983.569 Q847.878 983.633 848.769 983.792 L848.801 989.808 Z" fill="#000000" fill-rule="evenodd" fill-opacity="1" /><path clip-path="url(#clip930)" d="M884.003 1000.69 L884.003 1003.56 L857.076 1003.56 Q857.458 1009.61 860.705 1012.79 Q863.983 1015.94 869.808 1015.94 Q873.181 1015.94 876.332 1015.11 Q879.515 1014.28 882.634 1012.63 L882.634 1018.17 Q879.483 1019.5 876.173 1020.2 Q872.863 1020.9 869.457 1020.9 Q860.927 1020.9 855.93 1015.94 Q850.965 1010.97 850.965 1002.51 Q850.965 993.754 855.676 988.63 Q860.418 983.474 868.439 983.474 Q875.632 983.474 879.802 988.121 Q884.003 992.736 884.003 1000.69 M878.147 998.974 Q878.083 994.168 875.441 991.304 Q872.831 988.439 868.503 988.439 Q863.601 988.439 860.641 991.208 Q857.713 993.977 857.267 999.006 L878.147 998.974 Z" fill="#000000" fill-rule="evenodd" fill-opacity="1" /><path clip-path="url(#clip930)" d="M897.116 1002.19 Q897.116 1008.65 899.758 1012.34 Q902.432 1016 907.079 1016 Q911.726 1016 914.399 1012.34 Q917.073 1008.65 917.073 1002.19 Q917.073 995.728 914.399 992.068 Q911.726 988.375 907.079 988.375 Q902.432 988.375 899.758 992.068 Q897.116 995.728 897.116 1002.19 M917.073 1014.63 Q915.227 1017.82 912.394 1019.38 Q909.593 1020.9 905.647 1020.9 Q899.185 1020.9 895.111 1015.75 Q891.069 1010.59 891.069 1002.19 Q891.069 993.786 895.111 988.63 Q899.185 983.474 905.647 983.474 Q909.593 983.474 912.394 985.033 Q915.227 986.561 917.073 989.744 L917.073 984.333 L922.929 984.333 L922.929 1033.54 L917.073 1033.54 L917.073 1014.63 Z" fill="#000000" fill-rule="evenodd" fill-opacity="1" /><path clip-path="url(#clip930)" d="M934.388 1005.91 L934.388 984.333 L940.244 984.333 L940.244 1005.69 Q940.244 1010.75 942.218 1013.3 Q944.191 1015.81 948.138 1015.81 Q952.88 1015.81 955.617 1012.79 Q958.386 1009.76 958.386 1004.54 L958.386 984.333 L964.243 984.333 L964.243 1019.98 L958.386 1019.98 L958.386 1014.51 Q956.254 1017.75 953.421 1019.34 Q950.62 1020.9 946.896 1020.9 Q940.753 1020.9 937.571 1017.08 Q934.388 1013.27 934.388 1005.91 M949.124 983.474 L949.124 983.474 Z" fill="#000000" fill-rule="evenodd" fill-opacity="1" /><path clip-path="url(#clip930)" d="M1006.8 1000.69 L1006.8 1003.56 L979.871 1003.56 Q980.253 1009.61 983.499 1012.79 Q986.777 1015.94 992.602 1015.94 Q995.976 1015.94 999.127 1015.11 Q1002.31 1014.28 1005.43 1012.63 L1005.43 1018.17 Q1002.28 1019.5 998.968 1020.2 Q995.658 1020.9 992.252 1020.9 Q983.722 1020.9 978.725 1015.94 Q973.76 1010.97 973.76 1002.51 Q973.76 993.754 978.47 988.63 Q983.213 983.474 991.233 983.474 Q998.427 983.474 1002.6 988.121 Q1006.8 992.736 1006.8 1000.69 M1000.94 998.974 Q1000.88 994.168 998.236 991.304 Q995.626 988.439 991.297 988.439 Q986.396 988.439 983.435 991.208 Q980.507 993.977 980.062 999.006 L1000.94 998.974 Z" fill="#000000" fill-rule="evenodd" fill-opacity="1" /><path clip-path="url(#clip930)" d="M1046.04 998.465 L1046.04 1019.98 L1040.19 1019.98 L1040.19 998.656 Q1040.19 993.595 1038.21 991.081 Q1036.24 988.566 1032.29 988.566 Q1027.55 988.566 1024.81 991.59 Q1022.08 994.614 1022.08 999.834 L1022.08 1019.98 L1016.19 1019.98 L1016.19 984.333 L1022.08 984.333 L1022.08 989.871 Q1024.18 986.657 1027.01 985.065 Q1029.87 983.474 1033.6 983.474 Q1039.74 983.474 1042.89 987.293 Q1046.04 991.081 1046.04 998.465 Z" fill="#000000" fill-rule="evenodd" fill-opacity="1" /><path clip-path="url(#clip930)" d="M1083.38 985.702 L1083.38 991.176 Q1080.89 989.808 1078.38 989.139 Q1075.9 988.439 1073.35 988.439 Q1067.65 988.439 1064.5 992.068 Q1061.35 995.664 1061.35 1002.19 Q1061.35 1008.71 1064.5 1012.34 Q1067.65 1015.94 1073.35 1015.94 Q1075.9 1015.94 1078.38 1015.27 Q1080.89 1014.57 1083.38 1013.2 L1083.38 1018.61 Q1080.93 1019.76 1078.28 1020.33 Q1075.67 1020.9 1072.71 1020.9 Q1064.66 1020.9 1059.92 1015.84 Q1055.18 1010.78 1055.18 1002.19 Q1055.18 993.468 1059.95 988.471 Q1064.76 983.474 1073.1 983.474 Q1075.8 983.474 1078.38 984.047 Q1080.96 984.588 1083.38 985.702 Z" fill="#000000" fill-rule="evenodd" fill-opacity="1" /><path clip-path="url(#clip930)" d="M1108.39 1023.29 Q1105.91 1029.66 1103.56 1031.6 Q1101.2 1033.54 1097.25 1033.54 L1092.58 1033.54 L1092.58 1028.64 L1096.01 1028.64 Q1098.43 1028.64 1099.77 1027.49 Q1101.11 1026.35 1102.73 1022.08 L1103.78 1019.41 L1089.36 984.333 L1095.57 984.333 L1106.71 1012.22 L1117.85 984.333 L1124.05 984.333 L1108.39 1023.29 Z" fill="#000000" fill-rule="evenodd" fill-opacity="1" /><path clip-path="url(#clip930)" d="M1166.67 988.439 Q1161.96 988.439 1159.22 992.131 Q1156.49 995.791 1156.49 1002.19 Q1156.49 1008.59 1159.19 1012.28 Q1161.93 1015.94 1166.67 1015.94 Q1171.35 1015.94 1174.09 1012.25 Q1176.83 1008.55 1176.83 1002.19 Q1176.83 995.855 1174.09 992.163 Q1171.35 988.439 1166.67 988.439 M1166.67 983.474 Q1174.31 983.474 1178.67 988.439 Q1183.03 993.404 1183.03 1002.19 Q1183.03 1010.94 1178.67 1015.94 Q1174.31 1020.9 1166.67 1020.9 Q1159 1020.9 1154.64 1015.94 Q1150.31 1010.94 1150.31 1002.19 Q1150.31 993.404 1154.64 988.439 Q1159 983.474 1166.67 983.474 Z" fill="#000000" fill-rule="evenodd" fill-opacity="1" /><path clip-path="url(#clip930)" d="M1210.79 970.456 L1210.79 975.326 L1205.18 975.326 Q1202.03 975.326 1200.79 976.599 Q1199.58 977.872 1199.58 981.182 L1199.58 984.333 L1209.23 984.333 L1209.23 988.885 L1199.58 988.885 L1199.58 1019.98 L1193.69 1019.98 L1193.69 988.885 L1188.09 988.885 L1188.09 984.333 L1193.69 984.333 L1193.69 981.851 Q1193.69 975.899 1196.46 973.193 Q1199.23 970.456 1205.25 970.456 L1210.79 970.456 Z" fill="#000000" fill-rule="evenodd" fill-opacity="1" /><path clip-path="url(#clip930)" d="M1242.2 974.212 L1242.2 984.333 L1254.26 984.333 L1254.26 988.885 L1242.2 988.885 L1242.2 1008.24 Q1242.2 1012.6 1243.38 1013.84 Q1244.59 1015.08 1248.25 1015.08 L1254.26 1015.08 L1254.26 1019.98 L1248.25 1019.98 Q1241.47 1019.98 1238.89 1017.47 Q1236.31 1014.92 1236.31 1008.24 L1236.31 988.885 L1232.02 988.885 L1232.02 984.333 L1236.31 984.333 L1236.31 974.212 L1242.2 974.212 Z" fill="#000000" fill-rule="evenodd" fill-opacity="1" /><path clip-path="url(#clip930)" d="M1278.17 1002.06 Q1271.07 1002.06 1268.33 1003.68 Q1265.6 1005.31 1265.6 1009.22 Q1265.6 1012.34 1267.63 1014.19 Q1269.7 1016 1273.23 1016 Q1278.1 1016 1281.03 1012.57 Q1283.99 1009.1 1283.99 1003.37 L1283.99 1002.06 L1278.17 1002.06 M1289.85 999.643 L1289.85 1019.98 L1283.99 1019.98 L1283.99 1014.57 Q1281.99 1017.82 1279 1019.38 Q1276 1020.9 1271.67 1020.9 Q1266.2 1020.9 1262.95 1017.85 Q1259.74 1014.76 1259.74 1009.61 Q1259.74 1003.59 1263.75 1000.53 Q1267.79 997.478 1275.78 997.478 L1283.99 997.478 L1283.99 996.905 Q1283.99 992.863 1281.32 990.667 Q1278.68 988.439 1273.87 988.439 Q1270.82 988.439 1267.92 989.171 Q1265.02 989.903 1262.35 991.367 L1262.35 985.956 Q1265.56 984.715 1268.59 984.11 Q1271.61 983.474 1274.48 983.474 Q1282.21 983.474 1286.03 987.484 Q1289.85 991.495 1289.85 999.643 Z" fill="#000000" fill-rule="evenodd" fill-opacity="1" /><path clip-path="url(#clip930)" d="M1322.57 989.808 Q1321.58 989.235 1320.4 988.98 Q1319.26 988.694 1317.86 988.694 Q1312.89 988.694 1310.22 991.94 Q1307.58 995.155 1307.58 1001.2 L1307.58 1019.98 L1301.69 1019.98 L1301.69 984.333 L1307.58 984.333 L1307.58 989.871 Q1309.42 986.625 1312.38 985.065 Q1315.34 983.474 1319.58 983.474 Q1320.18 983.474 1320.91 983.569 Q1321.65 983.633 1322.54 983.792 L1322.57 989.808 Z" fill="#000000" fill-rule="evenodd" fill-opacity="1" /><path clip-path="url(#clip930)" d="M1351.02 1001.74 Q1351.02 995.378 1348.38 991.877 Q1345.77 988.375 1341.03 988.375 Q1336.32 988.375 1333.68 991.877 Q1331.07 995.378 1331.07 1001.74 Q1331.07 1008.08 1333.68 1011.58 Q1336.32 1015.08 1341.03 1015.08 Q1345.77 1015.08 1348.38 1011.58 Q1351.02 1008.08 1351.02 1001.74 M1356.88 1015.56 Q1356.88 1024.66 1352.84 1029.08 Q1348.8 1033.54 1340.46 1033.54 Q1337.37 1033.54 1334.63 1033.06 Q1331.89 1032.62 1329.32 1031.66 L1329.32 1025.96 Q1331.89 1027.37 1334.41 1028.03 Q1336.92 1028.7 1339.53 1028.7 Q1345.29 1028.7 1348.16 1025.68 Q1351.02 1022.69 1351.02 1016.61 L1351.02 1013.71 Q1349.21 1016.86 1346.38 1018.42 Q1343.54 1019.98 1339.6 1019.98 Q1333.04 1019.98 1329.03 1014.98 Q1325.02 1009.99 1325.02 1001.74 Q1325.02 993.468 1329.03 988.471 Q1333.04 983.474 1339.6 983.474 Q1343.54 983.474 1346.38 985.033 Q1349.21 986.593 1351.02 989.744 L1351.02 984.333 L1356.88 984.333 L1356.88 1015.56 Z" fill="#000000" fill-rule="evenodd" fill-opacity="1" /><path clip-path="url(#clip930)" d="M1399.43 1000.69 L1399.43 1003.56 L1372.51 1003.56 Q1372.89 1009.61 1376.14 1012.79 Q1379.41 1015.94 1385.24 1015.94 Q1388.61 1015.94 1391.76 1015.11 Q1394.95 1014.28 1398.07 1012.63 L1398.07 1018.17 Q1394.91 1019.5 1391.6 1020.2 Q1388.29 1020.9 1384.89 1020.9 Q1376.36 1020.9 1371.36 1015.94 Q1366.4 1010.97 1366.4 1002.51 Q1366.4 993.754 1371.11 988.63 Q1375.85 983.474 1383.87 983.474 Q1391.06 983.474 1395.23 988.121 Q1399.43 992.736 1399.43 1000.69 M1393.58 998.974 Q1393.51 994.168 1390.87 991.304 Q1388.26 988.439 1383.93 988.439 Q1379.03 988.439 1376.07 991.208 Q1373.14 993.977 1372.7 999.006 L1393.58 998.974 Z" fill="#000000" fill-rule="evenodd" fill-opacity="1" /><path clip-path="url(#clip930)" d="M1414.84 974.212 L1414.84 984.333 L1426.9 984.333 L1426.9 988.885 L1414.84 988.885 L1414.84 1008.24 Q1414.84 1012.6 1416.02 1013.84 Q1417.23 1015.08 1420.89 1015.08 L1426.9 1015.08 L1426.9 1019.98 L1420.89 1019.98 Q1414.11 1019.98 1411.53 1017.47 Q1408.95 1014.92 1408.95 1008.24 L1408.95 988.885 L1404.65 988.885 L1404.65 984.333 L1408.95 984.333 L1408.95 974.212 L1414.84 974.212 Z" fill="#000000" fill-rule="evenodd" fill-opacity="1" /><path clip-path="url(#clip930)" d="M1473.37 970.456 L1473.37 975.326 L1467.77 975.326 Q1464.62 975.326 1463.38 976.599 Q1462.17 977.872 1462.17 981.182 L1462.17 984.333 L1471.81 984.333 L1471.81 988.885 L1462.17 988.885 L1462.17 1019.98 L1456.28 1019.98 L1456.28 988.885 L1450.68 988.885 L1450.68 984.333 L1456.28 984.333 L1456.28 981.851 Q1456.28 975.899 1459.05 973.193 Q1461.82 970.456 1467.83 970.456 L1473.37 970.456 Z" fill="#000000" fill-rule="evenodd" fill-opacity="1" /><path clip-path="url(#clip930)" d="M1478.27 984.333 L1484.13 984.333 L1484.13 1019.98 L1478.27 1019.98 L1478.27 984.333 M1478.27 970.456 L1484.13 970.456 L1484.13 977.872 L1478.27 977.872 L1478.27 970.456 Z" fill="#000000" fill-rule="evenodd" fill-opacity="1" /><path clip-path="url(#clip930)" d="M1517.04 989.808 Q1516.05 989.235 1514.88 988.98 Q1513.73 988.694 1512.33 988.694 Q1507.36 988.694 1504.69 991.94 Q1502.05 995.155 1502.05 1001.2 L1502.05 1019.98 L1496.16 1019.98 L1496.16 984.333 L1502.05 984.333 L1502.05 989.871 Q1503.9 986.625 1506.86 985.065 Q1509.82 983.474 1514.05 983.474 Q1514.65 983.474 1515.39 983.569 Q1516.12 983.633 1517.01 983.792 L1517.04 989.808 Z" fill="#000000" fill-rule="evenodd" fill-opacity="1" /><path clip-path="url(#clip930)" d="M1545.91 985.384 L1545.91 990.922 Q1543.43 989.649 1540.75 989.012 Q1538.08 988.375 1535.21 988.375 Q1530.85 988.375 1528.66 989.712 Q1526.49 991.049 1526.49 993.723 Q1526.49 995.76 1528.05 996.937 Q1529.61 998.083 1534.32 999.133 L1536.33 999.579 Q1542.57 1000.92 1545.18 1003.37 Q1547.82 1005.79 1547.82 1010.15 Q1547.82 1015.11 1543.87 1018.01 Q1539.96 1020.9 1533.08 1020.9 Q1530.22 1020.9 1527.1 1020.33 Q1524.01 1019.79 1520.57 1018.68 L1520.57 1012.63 Q1523.82 1014.32 1526.97 1015.18 Q1530.12 1016 1533.21 1016 Q1537.35 1016 1539.58 1014.6 Q1541.8 1013.17 1541.8 1010.59 Q1541.8 1008.2 1540.18 1006.93 Q1538.59 1005.66 1533.15 1004.48 L1531.11 1004 Q1525.67 1002.86 1523.25 1000.5 Q1520.83 998.115 1520.83 993.977 Q1520.83 988.948 1524.39 986.211 Q1527.96 983.474 1534.51 983.474 Q1537.76 983.474 1540.63 983.951 Q1543.49 984.429 1545.91 985.384 Z" fill="#000000" fill-rule="evenodd" fill-opacity="1" /><path clip-path="url(#clip930)" d="M1562.94 974.212 L1562.94 984.333 L1575 984.333 L1575 988.885 L1562.94 988.885 L1562.94 1008.24 Q1562.94 1012.6 1564.12 1013.84 Q1565.32 1015.08 1568.98 1015.08 L1575 1015.08 L1575 1019.98 L1568.98 1019.98 Q1562.21 1019.98 1559.63 1017.47 Q1557.05 1014.92 1557.05 1008.24 L1557.05 988.885 L1552.75 988.885 L1552.75 984.333 L1557.05 984.333 L1557.05 974.212 L1562.94 974.212 Z" fill="#000000" fill-rule="evenodd" fill-opacity="1" /><polyline clip-path="url(#clip932)" style="stroke:#000000; stroke-linecap:butt; stroke-linejoin:round; stroke-width:2; stroke-opacity:0.1; fill:none" points="
  241.889,831.252 1871.49,831.252 
  "/>
<polyline clip-path="url(#clip932)" style="stroke:#000000; stroke-linecap:butt; stroke-linejoin:round; stroke-width:2; stroke-opacity:0.1; fill:none" points="
  241.889,681.119 1871.49,681.119 
  "/>
<polyline clip-path="url(#clip932)" style="stroke:#000000; stroke-linecap:butt; stroke-linejoin:round; stroke-width:2; stroke-opacity:0.1; fill:none" points="
  241.889,530.987 1871.49,530.987 
  "/>
<polyline clip-path="url(#clip932)" style="stroke:#000000; stroke-linecap:butt; stroke-linejoin:round; stroke-width:2; stroke-opacity:0.1; fill:none" points="
  241.889,380.854 1871.49,380.854 
  "/>
<polyline clip-path="url(#clip932)" style="stroke:#000000; stroke-linecap:butt; stroke-linejoin:round; stroke-width:2; stroke-opacity:0.1; fill:none" points="
  241.889,230.721 1871.49,230.721 
  "/>
<polyline clip-path="url(#clip930)" style="stroke:#000000; stroke-linecap:butt; stroke-linejoin:round; stroke-width:4; stroke-opacity:1; fill:none" points="
  241.889,872.117 241.889,189.856 
  "/>
<polyline clip-path="url(#clip930)" style="stroke:#000000; stroke-linecap:butt; stroke-linejoin:round; stroke-width:4; stroke-opacity:1; fill:none" points="
  241.889,831.252 261.444,831.252 
  "/>
<polyline clip-path="url(#clip930)" style="stroke:#000000; stroke-linecap:butt; stroke-linejoin:round; stroke-width:4; stroke-opacity:1; fill:none" points="
  241.889,681.119 261.444,681.119 
  "/>
<polyline clip-path="url(#clip930)" style="stroke:#000000; stroke-linecap:butt; stroke-linejoin:round; stroke-width:4; stroke-opacity:1; fill:none" points="
  241.889,530.987 261.444,530.987 
  "/>
<polyline clip-path="url(#clip930)" style="stroke:#000000; stroke-linecap:butt; stroke-linejoin:round; stroke-width:4; stroke-opacity:1; fill:none" points="
  241.889,380.854 261.444,380.854 
  "/>
<polyline clip-path="url(#clip930)" style="stroke:#000000; stroke-linecap:butt; stroke-linejoin:round; stroke-width:4; stroke-opacity:1; fill:none" points="
  241.889,230.721 261.444,230.721 
  "/>
<path clip-path="url(#clip930)" d="M115.551 817.051 Q111.94 817.051 110.111 820.616 Q108.306 824.157 108.306 831.287 Q108.306 838.393 110.111 841.958 Q111.94 845.5 115.551 845.5 Q119.185 845.5 120.991 841.958 Q122.82 838.393 122.82 831.287 Q122.82 824.157 120.991 820.616 Q119.185 817.051 115.551 817.051 M115.551 813.347 Q121.361 813.347 124.417 817.954 Q127.496 822.537 127.496 831.287 Q127.496 840.014 124.417 844.62 Q121.361 849.203 115.551 849.203 Q109.741 849.203 106.662 844.62 Q103.607 840.014 103.607 831.287 Q103.607 822.537 106.662 817.954 Q109.741 813.347 115.551 813.347 Z" fill="#000000" fill-rule="evenodd" fill-opacity="1" /><path clip-path="url(#clip930)" d="M135.713 842.653 L140.597 842.653 L140.597 848.532 L135.713 848.532 L135.713 842.653 Z" fill="#000000" fill-rule="evenodd" fill-opacity="1" /><path clip-path="url(#clip930)" d="M160.782 817.051 Q157.171 817.051 155.343 820.616 Q153.537 824.157 153.537 831.287 Q153.537 838.393 155.343 841.958 Q157.171 845.5 160.782 845.5 Q164.417 845.5 166.222 841.958 Q168.051 838.393 168.051 831.287 Q168.051 824.157 166.222 820.616 Q164.417 817.051 160.782 817.051 M160.782 813.347 Q166.593 813.347 169.648 817.954 Q172.727 822.537 172.727 831.287 Q172.727 840.014 169.648 844.62 Q166.593 849.203 160.782 849.203 Q154.972 849.203 151.894 844.62 Q148.838 840.014 148.838 831.287 Q148.838 822.537 151.894 817.954 Q154.972 813.347 160.782 813.347 Z" fill="#000000" fill-rule="evenodd" fill-opacity="1" /><path clip-path="url(#clip930)" d="M190.944 817.051 Q187.333 817.051 185.504 820.616 Q183.699 824.157 183.699 831.287 Q183.699 838.393 185.504 841.958 Q187.333 845.5 190.944 845.5 Q194.579 845.5 196.384 841.958 Q198.213 838.393 198.213 831.287 Q198.213 824.157 196.384 820.616 Q194.579 817.051 190.944 817.051 M190.944 813.347 Q196.754 813.347 199.81 817.954 Q202.889 822.537 202.889 831.287 Q202.889 840.014 199.81 844.62 Q196.754 849.203 190.944 849.203 Q185.134 849.203 182.055 844.62 Q179 840.014 179 831.287 Q179 822.537 182.055 817.954 Q185.134 813.347 190.944 813.347 Z" fill="#000000" fill-rule="evenodd" fill-opacity="1" /><path clip-path="url(#clip930)" d="M116.547 666.918 Q112.935 666.918 111.107 670.483 Q109.301 674.025 109.301 681.154 Q109.301 688.261 111.107 691.825 Q112.935 695.367 116.547 695.367 Q120.181 695.367 121.986 691.825 Q123.815 688.261 123.815 681.154 Q123.815 674.025 121.986 670.483 Q120.181 666.918 116.547 666.918 M116.547 663.214 Q122.357 663.214 125.412 667.821 Q128.491 672.404 128.491 681.154 Q128.491 689.881 125.412 694.487 Q122.357 699.071 116.547 699.071 Q110.736 699.071 107.658 694.487 Q104.602 689.881 104.602 681.154 Q104.602 672.404 107.658 667.821 Q110.736 663.214 116.547 663.214 Z" fill="#000000" fill-rule="evenodd" fill-opacity="1" /><path clip-path="url(#clip930)" d="M136.708 692.52 L141.593 692.52 L141.593 698.399 L136.708 698.399 L136.708 692.52 Z" fill="#000000" fill-rule="evenodd" fill-opacity="1" /><path clip-path="url(#clip930)" d="M155.806 694.464 L172.125 694.464 L172.125 698.399 L150.181 698.399 L150.181 694.464 Q152.843 691.71 157.426 687.08 Q162.032 682.427 163.213 681.085 Q165.458 678.562 166.338 676.825 Q167.241 675.066 167.241 673.376 Q167.241 670.622 165.296 668.886 Q163.375 667.15 160.273 667.15 Q158.074 667.15 155.62 667.913 Q153.19 668.677 150.412 670.228 L150.412 665.506 Q153.236 664.372 155.69 663.793 Q158.144 663.214 160.181 663.214 Q165.551 663.214 168.745 665.9 Q171.94 668.585 171.94 673.075 Q171.94 675.205 171.13 677.126 Q170.343 679.025 168.236 681.617 Q167.657 682.288 164.556 685.506 Q161.454 688.7 155.806 694.464 Z" fill="#000000" fill-rule="evenodd" fill-opacity="1" /><path clip-path="url(#clip930)" d="M181.986 663.839 L200.342 663.839 L200.342 667.775 L186.268 667.775 L186.268 676.247 Q187.287 675.9 188.305 675.738 Q189.324 675.552 190.342 675.552 Q196.129 675.552 199.509 678.724 Q202.889 681.895 202.889 687.312 Q202.889 692.89 199.416 695.992 Q195.944 699.071 189.625 699.071 Q187.449 699.071 185.18 698.7 Q182.935 698.33 180.528 697.589 L180.528 692.89 Q182.611 694.024 184.833 694.58 Q187.055 695.136 189.532 695.136 Q193.537 695.136 195.875 693.029 Q198.213 690.923 198.213 687.312 Q198.213 683.7 195.875 681.594 Q193.537 679.487 189.532 679.487 Q187.657 679.487 185.782 679.904 Q183.93 680.321 181.986 681.2 L181.986 663.839 Z" fill="#000000" fill-rule="evenodd" fill-opacity="1" /><path clip-path="url(#clip930)" d="M115.551 516.785 Q111.94 516.785 110.111 520.35 Q108.306 523.892 108.306 531.021 Q108.306 538.128 110.111 541.693 Q111.94 545.234 115.551 545.234 Q119.185 545.234 120.991 541.693 Q122.82 538.128 122.82 531.021 Q122.82 523.892 120.991 520.35 Q119.185 516.785 115.551 516.785 M115.551 513.082 Q121.361 513.082 124.417 517.688 Q127.496 522.272 127.496 531.021 Q127.496 539.748 124.417 544.355 Q121.361 548.938 115.551 548.938 Q109.741 548.938 106.662 544.355 Q103.607 539.748 103.607 531.021 Q103.607 522.272 106.662 517.688 Q109.741 513.082 115.551 513.082 Z" fill="#000000" fill-rule="evenodd" fill-opacity="1" /><path clip-path="url(#clip930)" d="M135.713 542.387 L140.597 542.387 L140.597 548.267 L135.713 548.267 L135.713 542.387 Z" fill="#000000" fill-rule="evenodd" fill-opacity="1" /><path clip-path="url(#clip930)" d="M150.829 513.707 L169.185 513.707 L169.185 517.642 L155.111 517.642 L155.111 526.114 Q156.13 525.767 157.148 525.605 Q158.167 525.42 159.185 525.42 Q164.972 525.42 168.352 528.591 Q171.731 531.762 171.731 537.179 Q171.731 542.758 168.259 545.859 Q164.787 548.938 158.468 548.938 Q156.292 548.938 154.023 548.568 Q151.778 548.197 149.37 547.457 L149.37 542.758 Q151.454 543.892 153.676 544.447 Q155.898 545.003 158.375 545.003 Q162.38 545.003 164.718 542.896 Q167.056 540.79 167.056 537.179 Q167.056 533.568 164.718 531.461 Q162.38 529.355 158.375 529.355 Q156.5 529.355 154.625 529.771 Q152.773 530.188 150.829 531.068 L150.829 513.707 Z" fill="#000000" fill-rule="evenodd" fill-opacity="1" /><path clip-path="url(#clip930)" d="M190.944 516.785 Q187.333 516.785 185.504 520.35 Q183.699 523.892 183.699 531.021 Q183.699 538.128 185.504 541.693 Q187.333 545.234 190.944 545.234 Q194.579 545.234 196.384 541.693 Q198.213 538.128 198.213 531.021 Q198.213 523.892 196.384 520.35 Q194.579 516.785 190.944 516.785 M190.944 513.082 Q196.754 513.082 199.81 517.688 Q202.889 522.272 202.889 531.021 Q202.889 539.748 199.81 544.355 Q196.754 548.938 190.944 548.938 Q185.134 548.938 182.055 544.355 Q179 539.748 179 531.021 Q179 522.272 182.055 517.688 Q185.134 513.082 190.944 513.082 Z" fill="#000000" fill-rule="evenodd" fill-opacity="1" /><path clip-path="url(#clip930)" d="M116.547 366.653 Q112.935 366.653 111.107 370.218 Q109.301 373.759 109.301 380.889 Q109.301 387.995 111.107 391.56 Q112.935 395.102 116.547 395.102 Q120.181 395.102 121.986 391.56 Q123.815 387.995 123.815 380.889 Q123.815 373.759 121.986 370.218 Q120.181 366.653 116.547 366.653 M116.547 362.949 Q122.357 362.949 125.412 367.556 Q128.491 372.139 128.491 380.889 Q128.491 389.616 125.412 394.222 Q122.357 398.805 116.547 398.805 Q110.736 398.805 107.658 394.222 Q104.602 389.616 104.602 380.889 Q104.602 372.139 107.658 367.556 Q110.736 362.949 116.547 362.949 Z" fill="#000000" fill-rule="evenodd" fill-opacity="1" /><path clip-path="url(#clip930)" d="M136.708 392.254 L141.593 392.254 L141.593 398.134 L136.708 398.134 L136.708 392.254 Z" fill="#000000" fill-rule="evenodd" fill-opacity="1" /><path clip-path="url(#clip930)" d="M150.597 363.574 L172.819 363.574 L172.819 365.565 L160.273 398.134 L155.389 398.134 L167.194 367.509 L150.597 367.509 L150.597 363.574 Z" fill="#000000" fill-rule="evenodd" fill-opacity="1" /><path clip-path="url(#clip930)" d="M181.986 363.574 L200.342 363.574 L200.342 367.509 L186.268 367.509 L186.268 375.981 Q187.287 375.634 188.305 375.472 Q189.324 375.287 190.342 375.287 Q196.129 375.287 199.509 378.458 Q202.889 381.63 202.889 387.046 Q202.889 392.625 199.416 395.727 Q195.944 398.805 189.625 398.805 Q187.449 398.805 185.18 398.435 Q182.935 398.065 180.528 397.324 L180.528 392.625 Q182.611 393.759 184.833 394.315 Q187.055 394.87 189.532 394.87 Q193.537 394.87 195.875 392.764 Q198.213 390.657 198.213 387.046 Q198.213 383.435 195.875 381.329 Q193.537 379.222 189.532 379.222 Q187.657 379.222 185.782 379.639 Q183.93 380.055 181.986 380.935 L181.986 363.574 Z" fill="#000000" fill-rule="evenodd" fill-opacity="1" /><path clip-path="url(#clip930)" d="M106.361 244.066 L114 244.066 L114 217.701 L105.69 219.367 L105.69 215.108 L113.954 213.441 L118.63 213.441 L118.63 244.066 L126.269 244.066 L126.269 248.001 L106.361 248.001 L106.361 244.066 Z" fill="#000000" fill-rule="evenodd" fill-opacity="1" /><path clip-path="url(#clip930)" d="M135.713 242.122 L140.597 242.122 L140.597 248.001 L135.713 248.001 L135.713 242.122 Z" fill="#000000" fill-rule="evenodd" fill-opacity="1" /><path clip-path="url(#clip930)" d="M160.782 216.52 Q157.171 216.52 155.343 220.085 Q153.537 223.626 153.537 230.756 Q153.537 237.863 155.343 241.427 Q157.171 244.969 160.782 244.969 Q164.417 244.969 166.222 241.427 Q168.051 237.863 168.051 230.756 Q168.051 223.626 166.222 220.085 Q164.417 216.52 160.782 216.52 M160.782 212.816 Q166.593 212.816 169.648 217.423 Q172.727 222.006 172.727 230.756 Q172.727 239.483 169.648 244.089 Q166.593 248.673 160.782 248.673 Q154.972 248.673 151.894 244.089 Q148.838 239.483 148.838 230.756 Q148.838 222.006 151.894 217.423 Q154.972 212.816 160.782 212.816 Z" fill="#000000" fill-rule="evenodd" fill-opacity="1" /><path clip-path="url(#clip930)" d="M190.944 216.52 Q187.333 216.52 185.504 220.085 Q183.699 223.626 183.699 230.756 Q183.699 237.863 185.504 241.427 Q187.333 244.969 190.944 244.969 Q194.579 244.969 196.384 241.427 Q198.213 237.863 198.213 230.756 Q198.213 223.626 196.384 220.085 Q194.579 216.52 190.944 216.52 M190.944 212.816 Q196.754 212.816 199.81 217.423 Q202.889 222.006 202.889 230.756 Q202.889 239.483 199.81 244.089 Q196.754 248.673 190.944 248.673 Q185.134 248.673 182.055 244.089 Q179 239.483 179 230.756 Q179 222.006 182.055 217.423 Q185.134 212.816 190.944 212.816 Z" fill="#000000" fill-rule="evenodd" fill-opacity="1" /><path clip-path="url(#clip930)" d="M20.1773 797.853 Q19.6044 798.84 19.3498 800.017 Q19.0633 801.163 19.0633 802.564 Q19.0633 807.529 22.3098 810.203 Q25.5245 812.844 31.572 812.844 L50.3508 812.844 L50.3508 818.733 L14.7028 818.733 L14.7028 812.844 L20.241 812.844 Q16.9945 810.998 15.4349 808.038 Q13.8435 805.078 13.8435 800.845 Q13.8435 800.24 13.9389 799.508 Q14.0026 798.776 14.1617 797.885 L20.1773 797.853 Z" fill="#000000" fill-rule="evenodd" fill-opacity="1" /><path clip-path="url(#clip930)" d="M32.4313 775.509 Q32.4313 782.607 34.0546 785.344 Q35.6778 788.082 39.5927 788.082 Q42.7119 788.082 44.558 786.045 Q46.3722 783.976 46.3722 780.443 Q46.3722 775.573 42.9347 772.645 Q39.4654 769.685 33.7363 769.685 L32.4313 769.685 L32.4313 775.509 M30.0124 763.828 L50.3508 763.828 L50.3508 769.685 L44.9399 769.685 Q48.1864 771.69 49.746 774.682 Q51.2738 777.674 51.2738 782.002 Q51.2738 787.477 48.2183 790.723 Q45.1309 793.938 39.9747 793.938 Q33.9591 793.938 30.9036 789.928 Q27.848 785.886 27.848 777.897 L27.848 769.685 L27.2751 769.685 Q23.2329 769.685 21.0367 772.358 Q18.8087 775 18.8087 779.806 Q18.8087 782.862 19.5408 785.758 Q20.2728 788.655 21.7369 791.328 L16.3261 791.328 Q15.0848 788.114 14.48 785.09 Q13.8435 782.066 13.8435 779.202 Q13.8435 771.467 17.8539 767.648 Q21.8642 763.828 30.0124 763.828 Z" fill="#000000" fill-rule="evenodd" fill-opacity="1" /><path clip-path="url(#clip930)" d="M4.58136 745.973 L14.7028 745.973 L14.7028 733.91 L19.2543 733.91 L19.2543 745.973 L38.6061 745.973 Q42.9666 745.973 44.2079 744.795 Q45.4492 743.585 45.4492 739.925 L45.4492 733.91 L50.3508 733.91 L50.3508 739.925 Q50.3508 746.705 47.8363 749.283 Q45.29 751.861 38.6061 751.861 L19.2543 751.861 L19.2543 756.158 L14.7028 756.158 L14.7028 751.861 L4.58136 751.861 L4.58136 745.973 Z" fill="#000000" fill-rule="evenodd" fill-opacity="1" /><path clip-path="url(#clip930)" d="M14.7028 726.207 L14.7028 720.351 L50.3508 720.351 L50.3508 726.207 L14.7028 726.207 M0.825588 726.207 L0.825588 720.351 L8.24164 720.351 L8.24164 726.207 L0.825588 726.207 Z" fill="#000000" fill-rule="evenodd" fill-opacity="1" /><path clip-path="url(#clip930)" d="M18.8087 694.283 Q18.8087 698.994 22.5008 701.731 Q26.1611 704.468 32.5586 704.468 Q38.9562 704.468 42.6483 701.763 Q46.3086 699.025 46.3086 694.283 Q46.3086 689.604 42.6165 686.867 Q38.9243 684.13 32.5586 684.13 Q26.2248 684.13 22.5326 686.867 Q18.8087 689.604 18.8087 694.283 M13.8435 694.283 Q13.8435 686.644 18.8087 682.284 Q23.774 677.923 32.5586 677.923 Q41.3115 677.923 46.3086 682.284 Q51.2738 686.644 51.2738 694.283 Q51.2738 701.954 46.3086 706.314 Q41.3115 710.643 32.5586 710.643 Q23.774 710.643 18.8087 706.314 Q13.8435 701.954 13.8435 694.283 Z" fill="#000000" fill-rule="evenodd" fill-opacity="1" /><path clip-path="url(#clip930)" d="M18.8087 633.681 Q18.8087 638.392 22.5008 641.129 Q26.1611 643.867 32.5586 643.867 Q38.9562 643.867 42.6483 641.161 Q46.3086 638.424 46.3086 633.681 Q46.3086 629.003 42.6165 626.265 Q38.9243 623.528 32.5586 623.528 Q26.2248 623.528 22.5326 626.265 Q18.8087 629.003 18.8087 633.681 M13.8435 633.681 Q13.8435 626.043 18.8087 621.682 Q23.774 617.322 32.5586 617.322 Q41.3115 617.322 46.3086 621.682 Q51.2738 626.043 51.2738 633.681 Q51.2738 641.352 46.3086 645.713 Q41.3115 650.041 32.5586 650.041 Q23.774 650.041 18.8087 645.713 Q13.8435 641.352 13.8435 633.681 Z" fill="#000000" fill-rule="evenodd" fill-opacity="1" /><path clip-path="url(#clip930)" d="M0.825588 589.567 L5.69535 589.567 L5.69535 595.169 Q5.69535 598.32 6.9685 599.561 Q8.24164 600.771 11.5518 600.771 L14.7028 600.771 L14.7028 591.127 L19.2543 591.127 L19.2543 600.771 L50.3508 600.771 L50.3508 606.659 L19.2543 606.659 L19.2543 612.261 L14.7028 612.261 L14.7028 606.659 L12.2202 606.659 Q6.26827 606.659 3.56284 603.89 Q0.825588 601.121 0.825588 595.105 L0.825588 589.567 Z" fill="#000000" fill-rule="evenodd" fill-opacity="1" /><path clip-path="url(#clip930)" d="M20.1773 543.288 Q19.6044 544.275 19.3498 545.453 Q19.0633 546.599 19.0633 547.999 Q19.0633 552.964 22.3098 555.638 Q25.5245 558.28 31.572 558.28 L50.3508 558.28 L50.3508 564.168 L14.7028 564.168 L14.7028 558.28 L20.241 558.28 Q16.9945 556.434 15.4349 553.474 Q13.8435 550.514 13.8435 546.28 Q13.8435 545.676 13.9389 544.944 Q14.0026 544.211 14.1617 543.32 L20.1773 543.288 Z" fill="#000000" fill-rule="evenodd" fill-opacity="1" /><path clip-path="url(#clip930)" d="M31.0627 508.086 L33.9273 508.086 L33.9273 535.013 Q39.9747 534.631 43.1575 531.385 Q46.3086 528.106 46.3086 522.282 Q46.3086 518.908 45.481 515.757 Q44.6535 512.574 42.9984 509.455 L48.5366 509.455 Q49.8734 512.606 50.5736 515.916 Q51.2738 519.226 51.2738 522.632 Q51.2738 531.162 46.3086 536.159 Q41.3433 541.124 32.8769 541.124 Q24.1241 541.124 18.9997 536.414 Q13.8435 531.671 13.8435 523.65 Q13.8435 516.457 18.4904 512.287 Q23.1056 508.086 31.0627 508.086 M29.344 513.943 Q24.5378 514.006 21.6733 516.648 Q18.8087 519.258 18.8087 523.587 Q18.8087 528.488 21.5778 531.448 Q24.3469 534.376 29.3758 534.822 L29.344 513.943 Z" fill="#000000" fill-rule="evenodd" fill-opacity="1" /><path clip-path="url(#clip930)" d="M15.7532 475.748 L21.2913 475.748 Q20.0182 478.231 19.3816 480.905 Q18.7451 483.578 18.7451 486.443 Q18.7451 490.803 20.0819 492.999 Q21.4186 495.164 24.0922 495.164 Q26.1293 495.164 27.3069 493.604 Q28.4528 492.045 29.5031 487.334 L29.9487 485.329 Q31.2855 479.09 33.7363 476.48 Q36.1553 473.839 40.5158 473.839 Q45.481 473.839 48.3774 477.785 Q51.2738 481.7 51.2738 488.575 Q51.2738 491.44 50.7009 494.559 Q50.1598 497.646 49.0458 501.084 L42.9984 501.084 Q44.6853 497.837 45.5447 494.686 Q46.3722 491.535 46.3722 488.448 Q46.3722 484.31 44.9718 482.082 Q43.5395 479.854 40.9614 479.854 Q38.5742 479.854 37.3011 481.477 Q36.0279 483.069 34.8503 488.512 L34.3729 490.549 Q33.227 495.991 30.8717 498.41 Q28.4846 500.829 24.3469 500.829 Q19.318 500.829 16.5807 497.264 Q13.8435 493.7 13.8435 487.143 Q13.8435 483.896 14.3209 481.032 Q14.7983 478.167 15.7532 475.748 Z" fill="#000000" fill-rule="evenodd" fill-opacity="1" /><path clip-path="url(#clip930)" d="M45.0036 458.847 L63.9097 458.847 L63.9097 464.736 L14.7028 464.736 L14.7028 458.847 L20.1137 458.847 Q16.9308 457.001 15.4031 454.2 Q13.8435 451.368 13.8435 447.453 Q13.8435 440.96 18.9997 436.918 Q24.1559 432.843 32.5586 432.843 Q40.9614 432.843 46.1176 436.918 Q51.2738 440.96 51.2738 447.453 Q51.2738 451.368 49.746 454.2 Q48.1864 457.001 45.0036 458.847 M32.5586 438.923 Q26.0974 438.923 22.4372 441.596 Q18.7451 444.238 18.7451 448.885 Q18.7451 453.532 22.4372 456.206 Q26.0974 458.847 32.5586 458.847 Q39.0198 458.847 42.7119 456.206 Q46.3722 453.532 46.3722 448.885 Q46.3722 444.238 42.7119 441.596 Q39.0198 438.923 32.5586 438.923 Z" fill="#000000" fill-rule="evenodd" fill-opacity="1" /><path clip-path="url(#clip930)" d="M18.8087 409.322 Q18.8087 414.033 22.5008 416.77 Q26.1611 419.507 32.5586 419.507 Q38.9562 419.507 42.6483 416.802 Q46.3086 414.065 46.3086 409.322 Q46.3086 404.643 42.6165 401.906 Q38.9243 399.169 32.5586 399.169 Q26.2248 399.169 22.5326 401.906 Q18.8087 404.643 18.8087 409.322 M13.8435 409.322 Q13.8435 401.683 18.8087 397.323 Q23.774 392.962 32.5586 392.962 Q41.3115 392.962 46.3086 397.323 Q51.2738 401.683 51.2738 409.322 Q51.2738 416.993 46.3086 421.353 Q41.3115 425.682 32.5586 425.682 Q23.774 425.682 18.8087 421.353 Q13.8435 416.993 13.8435 409.322 Z" fill="#000000" fill-rule="evenodd" fill-opacity="1" /><path clip-path="url(#clip930)" d="M28.8347 353.622 L50.3508 353.622 L50.3508 359.479 L29.0257 359.479 Q23.9649 359.479 21.4505 361.452 Q18.936 363.425 18.936 367.372 Q18.936 372.115 21.9597 374.852 Q24.9834 377.589 30.2033 377.589 L50.3508 377.589 L50.3508 383.477 L14.7028 383.477 L14.7028 377.589 L20.241 377.589 Q17.0263 375.488 15.4349 372.656 Q13.8435 369.791 13.8435 366.067 Q13.8435 359.924 17.6629 356.773 Q21.4505 353.622 28.8347 353.622 Z" fill="#000000" fill-rule="evenodd" fill-opacity="1" /><path clip-path="url(#clip930)" d="M15.7532 319.216 L21.2913 319.216 Q20.0182 321.698 19.3816 324.372 Q18.7451 327.045 18.7451 329.91 Q18.7451 334.27 20.0819 336.467 Q21.4186 338.631 24.0922 338.631 Q26.1293 338.631 27.3069 337.071 Q28.4528 335.512 29.5031 330.801 L29.9487 328.796 Q31.2855 322.558 33.7363 319.948 Q36.1553 317.306 40.5158 317.306 Q45.481 317.306 48.3774 321.253 Q51.2738 325.168 51.2738 332.042 Q51.2738 334.907 50.7009 338.026 Q50.1598 341.114 49.0458 344.551 L42.9984 344.551 Q44.6853 341.305 45.5447 338.154 Q46.3722 335.003 46.3722 331.915 Q46.3722 327.777 44.9718 325.549 Q43.5395 323.321 40.9614 323.321 Q38.5742 323.321 37.3011 324.945 Q36.0279 326.536 34.8503 331.979 L34.3729 334.016 Q33.227 339.459 30.8717 341.878 Q28.4846 344.296 24.3469 344.296 Q19.318 344.296 16.5807 340.732 Q13.8435 337.167 13.8435 330.61 Q13.8435 327.364 14.3209 324.499 Q14.7983 321.635 15.7532 319.216 Z" fill="#000000" fill-rule="evenodd" fill-opacity="1" /><path clip-path="url(#clip930)" d="M31.0627 277.488 L33.9273 277.488 L33.9273 304.415 Q39.9747 304.033 43.1575 300.787 Q46.3086 297.509 46.3086 291.684 Q46.3086 288.31 45.481 285.159 Q44.6535 281.976 42.9984 278.857 L48.5366 278.857 Q49.8734 282.008 50.5736 285.318 Q51.2738 288.628 51.2738 292.034 Q51.2738 300.564 46.3086 305.561 Q41.3433 310.526 32.8769 310.526 Q24.1241 310.526 18.9997 305.816 Q13.8435 301.073 13.8435 293.053 Q13.8435 285.859 18.4904 281.69 Q23.1056 277.488 31.0627 277.488 M29.344 283.345 Q24.5378 283.408 21.6733 286.05 Q18.8087 288.66 18.8087 292.989 Q18.8087 297.89 21.5778 300.851 Q24.3469 303.779 29.3758 304.224 L29.344 283.345 Z" fill="#000000" fill-rule="evenodd" fill-opacity="1" /><path clip-path="url(#clip930)" d="M15.7532 245.151 L21.2913 245.151 Q20.0182 247.633 19.3816 250.307 Q18.7451 252.98 18.7451 255.845 Q18.7451 260.205 20.0819 262.402 Q21.4186 264.566 24.0922 264.566 Q26.1293 264.566 27.3069 263.006 Q28.4528 261.447 29.5031 256.736 L29.9487 254.731 Q31.2855 248.493 33.7363 245.883 Q36.1553 243.241 40.5158 243.241 Q45.481 243.241 48.3774 247.188 Q51.2738 251.103 51.2738 257.977 Q51.2738 260.842 50.7009 263.961 Q50.1598 267.049 49.0458 270.486 L42.9984 270.486 Q44.6853 267.24 45.5447 264.089 Q46.3722 260.938 46.3722 257.85 Q46.3722 253.712 44.9718 251.484 Q43.5395 249.256 40.9614 249.256 Q38.5742 249.256 37.3011 250.88 Q36.0279 252.471 34.8503 257.914 L34.3729 259.951 Q33.227 265.394 30.8717 267.813 Q28.4846 270.231 24.3469 270.231 Q19.318 270.231 16.5807 266.667 Q13.8435 263.102 13.8435 256.545 Q13.8435 253.299 14.3209 250.434 Q14.7983 247.57 15.7532 245.151 Z" fill="#000000" fill-rule="evenodd" fill-opacity="1" /><path clip-path="url(#clip932)" d="
M288.009 230.721 L384.094 230.721 L1248.86 230.721 L1537.11 230.721 L1633.2 230.721 L1729.28 230.721 L1825.37 230.721 L1825.37 831.252 L1729.28 831.252 L1633.2 831.252 
  L1537.11 831.252 L1248.86 831.252 L384.094 831.252 L288.009 831.252  Z
  " fill="#006d60" fill-rule="evenodd" fill-opacity="1"/>
<polyline clip-path="url(#clip932)" style="stroke:#000000; stroke-linecap:butt; stroke-linejoin:round; stroke-width:4; stroke-opacity:1; fill:none" points="
  288.009,230.721 384.094,230.721 1248.86,230.721 1537.11,230.721 1633.2,230.721 1729.28,230.721 1825.37,230.721 
  "/>
<path clip-path="url(#clip932)" d="
M288.009 230.721 L384.094 230.721 L1248.86 253.526 L1537.11 245.925 L1633.2 278.764 L1729.28 350.828 L1825.37 305.788 L1825.37 831.252 L1729.28 831.252 L1633.2 831.252 
  L1537.11 831.252 L1248.86 831.252 L384.094 831.252 L288.009 831.252  Z
  " fill="#008569" fill-rule="evenodd" fill-opacity="1"/>
<polyline clip-path="url(#clip932)" style="stroke:#000000; stroke-linecap:butt; stroke-linejoin:round; stroke-width:4; stroke-opacity:1; fill:none" points="
  288.009,230.721 384.094,230.721 1248.86,253.526 1537.11,245.925 1633.2,278.764 1729.28,350.828 1825.37,305.788 
  "/>
<path clip-path="url(#clip932)" d="
M288.009 245.925 L384.094 238.323 L1248.86 283.933 L1537.11 306.738 L1633.2 350.828 L1729.28 494.955 L1825.37 415.5 L1825.37 831.252 L1729.28 831.252 L1633.2 831.252 
  L1537.11 831.252 L1248.86 831.252 L384.094 831.252 L288.009 831.252  Z
  " fill="#009e73" fill-rule="evenodd" fill-opacity="1"/>
<polyline clip-path="url(#clip932)" style="stroke:#000000; stroke-linecap:butt; stroke-linejoin:round; stroke-width:4; stroke-opacity:1; fill:none" points="
  288.009,245.925 384.094,238.323 1248.86,283.933 1537.11,306.738 1633.2,350.828 1729.28,494.955 1825.37,415.5 
  "/>
<path clip-path="url(#clip932)" d="
M288.009 291.535 L384.094 283.933 L1248.86 382.754 L1537.11 359.949 L1633.2 470.934 L1729.28 615.061 L1825.37 519.438 L1825.37 831.252 L1729.28 831.252 L1633.2 831.252 
  L1537.11 831.252 L1248.86 831.252 L384.094 831.252 L288.009 831.252  Z
  " fill="#77c6b0" fill-rule="evenodd" fill-opacity="1"/>
<polyline clip-path="url(#clip932)" style="stroke:#000000; stroke-linecap:butt; stroke-linejoin:round; stroke-width:4; stroke-opacity:1; fill:none" points="
  288.009,291.535 384.094,283.933 1248.86,382.754 1537.11,359.949 1633.2,470.934 1729.28,615.061 1825.37,519.438 
  "/>
<path clip-path="url(#clip932)" d="
M288.009 390.356 L384.094 359.949 L1248.86 496.779 L1537.11 481.576 L1633.2 663.104 L1729.28 663.104 L1825.37 617.602 L1825.37 831.252 L1729.28 831.252 L1633.2 831.252 
  L1537.11 831.252 L1248.86 831.252 L384.094 831.252 L288.009 831.252  Z
  " fill="#eeeeee" fill-rule="evenodd" fill-opacity="1"/>
<polyline clip-path="url(#clip932)" style="stroke:#000000; stroke-linecap:butt; stroke-linejoin:round; stroke-width:4; stroke-opacity:1; fill:none" points="
  288.009,390.356 384.094,359.949 1248.86,496.779 1537.11,481.576 1633.2,663.104 1729.28,663.104 1825.37,617.602 
  "/>
<path clip-path="url(#clip932)" d="
M288.009 686.821 L384.094 664.016 L1248.86 747.634 L1537.11 755.236 L1633.2 831.252 L1729.28 831.252 L1825.37 761.96 L1825.37 831.252 L1729.28 831.252 L1633.2 831.252 
  L1537.11 831.252 L1248.86 831.252 L384.094 831.252 L288.009 831.252  Z
  " fill="#ddb3ca" fill-rule="evenodd" fill-opacity="1"/>
<polyline clip-path="url(#clip932)" style="stroke:#000000; stroke-linecap:butt; stroke-linejoin:round; stroke-width:4; stroke-opacity:1; fill:none" points="
  288.009,686.821 384.094,664.016 1248.86,747.634 1537.11,755.236 1633.2,831.252 1729.28,831.252 1825.37,761.96 
  "/>
<path clip-path="url(#clip932)" d="
M288.009 785.642 L384.094 770.439 L1248.86 823.65 L1537.11 823.65 L1633.2 831.252 L1729.28 831.252 L1825.37 790.832 L1825.37 831.252 L1729.28 831.252 L1633.2 831.252 
  L1537.11 831.252 L1248.86 831.252 L384.094 831.252 L288.009 831.252  Z
  " fill="#cc79a7" fill-rule="evenodd" fill-opacity="1"/>
<polyline clip-path="url(#clip932)" style="stroke:#000000; stroke-linecap:butt; stroke-linejoin:round; stroke-width:4; stroke-opacity:1; fill:none" points="
  288.009,785.642 384.094,770.439 1248.86,823.65 1537.11,823.65 1633.2,831.252 1729.28,831.252 1825.37,790.832 
  "/>
<path clip-path="url(#clip932)" d="
M288.009 816.049 L384.094 823.65 L1248.86 831.252 L1537.11 831.252 L1633.2 831.252 L1729.28 831.252 L1825.37 808.155 L1825.37 831.252 L1729.28 831.252 L1633.2 831.252 
  L1537.11 831.252 L1248.86 831.252 L384.094 831.252 L288.009 831.252  Z
  " fill="#b55585" fill-rule="evenodd" fill-opacity="1"/>
<polyline clip-path="url(#clip932)" style="stroke:#000000; stroke-linecap:butt; stroke-linejoin:round; stroke-width:4; stroke-opacity:1; fill:none" points="
  288.009,816.049 384.094,823.65 1248.86,831.252 1537.11,831.252 1633.2,831.252 1729.28,831.252 1825.37,808.155 
  "/>
<path clip-path="url(#clip932)" d="
M288.009 823.65 L384.094 831.252 L1248.86 831.252 L1537.11 831.252 L1633.2 831.252 L1729.28 831.252 L1825.37 825.478 L1825.37 831.252 L1729.28 831.252 L1633.2 831.252 
  L1537.11 831.252 L1248.86 831.252 L384.094 831.252 L288.009 831.252  Z
  " fill="#9e3264" fill-rule="evenodd" fill-opacity="1"/>
<polyline clip-path="url(#clip932)" style="stroke:#000000; stroke-linecap:butt; stroke-linejoin:round; stroke-width:4; stroke-opacity:1; fill:none" points="
  288.009,823.65 384.094,831.252 1248.86,831.252 1537.11,831.252 1633.2,831.252 1729.28,831.252 1825.37,825.478 
  "/>
<path clip-path="url(#clip930)" d="
M1948.52 833.387 L2552.76 833.387 L2552.76 168.107 L1948.52 168.107  Z
  " fill="#ffffff" fill-rule="evenodd" fill-opacity="1"/>
<polyline clip-path="url(#clip930)" style="stroke:#000000; stroke-linecap:butt; stroke-linejoin:round; stroke-width:4; stroke-opacity:1; fill:none" points="
  1948.52,833.387 2552.76,833.387 2552.76,168.107 1948.52,168.107 1948.52,833.387 
  "/>
<path clip-path="url(#clip930)" d="M2080.21 216.058 L2080.21 229.808 L2075.93 229.808 L2075.93 194.021 L2080.21 194.021 L2080.21 197.956 Q2081.55 195.641 2083.59 194.53 Q2085.65 193.396 2088.5 193.396 Q2093.22 193.396 2096.16 197.146 Q2099.12 200.896 2099.12 207.007 Q2099.12 213.118 2096.16 216.868 Q2093.22 220.618 2088.5 220.618 Q2085.65 220.618 2083.59 219.507 Q2081.55 218.373 2080.21 216.058 M2094.7 207.007 Q2094.7 202.308 2092.76 199.646 Q2090.84 196.961 2087.46 196.961 Q2084.08 196.961 2082.13 199.646 Q2080.21 202.308 2080.21 207.007 Q2080.21 211.706 2082.13 214.391 Q2084.08 217.053 2087.46 217.053 Q2090.84 217.053 2092.76 214.391 Q2094.7 211.706 2094.7 207.007 Z" fill="#000000" fill-rule="evenodd" fill-opacity="1" /><path clip-path="url(#clip930)" d="M2121.21 198.002 Q2120.49 197.586 2119.63 197.401 Q2118.8 197.192 2117.78 197.192 Q2114.17 197.192 2112.22 199.553 Q2110.3 201.891 2110.3 206.289 L2110.3 219.947 L2106.02 219.947 L2106.02 194.021 L2110.3 194.021 L2110.3 198.049 Q2111.65 195.688 2113.8 194.553 Q2115.95 193.396 2119.03 193.396 Q2119.47 193.396 2120 193.465 Q2120.53 193.512 2121.18 193.627 L2121.21 198.002 Z" fill="#000000" fill-rule="evenodd" fill-opacity="1" /><path clip-path="url(#clip930)" d="M2146.81 205.919 L2146.81 208.002 L2127.22 208.002 Q2127.5 212.4 2129.86 214.715 Q2132.25 217.007 2136.48 217.007 Q2138.94 217.007 2141.23 216.405 Q2143.54 215.803 2145.81 214.6 L2145.81 218.627 Q2143.52 219.6 2141.11 220.109 Q2138.71 220.618 2136.23 220.618 Q2130.03 220.618 2126.39 217.007 Q2122.78 213.396 2122.78 207.238 Q2122.78 200.873 2126.21 197.146 Q2129.65 193.396 2135.49 193.396 Q2140.72 193.396 2143.75 196.776 Q2146.81 200.132 2146.81 205.919 M2142.55 204.669 Q2142.5 201.174 2140.58 199.09 Q2138.68 197.007 2135.53 197.007 Q2131.97 197.007 2129.82 199.021 Q2127.69 201.035 2127.36 204.692 L2142.55 204.669 Z" fill="#000000" fill-rule="evenodd" fill-opacity="1" /><path clip-path="url(#clip930)" d="M2166.92 183.928 L2166.92 187.47 L2162.85 187.47 Q2160.56 187.47 2159.65 188.396 Q2158.78 189.322 2158.78 191.729 L2158.78 194.021 L2165.79 194.021 L2165.79 197.331 L2158.78 197.331 L2158.78 219.947 L2154.49 219.947 L2154.49 197.331 L2150.42 197.331 L2150.42 194.021 L2154.49 194.021 L2154.49 192.215 Q2154.49 187.887 2156.51 185.919 Q2158.52 183.928 2162.9 183.928 L2166.92 183.928 Z" fill="#000000" fill-rule="evenodd" fill-opacity="1" /><path clip-path="url(#clip930)" d="M2192.66 205.919 L2192.66 208.002 L2173.08 208.002 Q2173.36 212.4 2175.72 214.715 Q2178.1 217.007 2182.34 217.007 Q2184.79 217.007 2187.09 216.405 Q2189.4 215.803 2191.67 214.6 L2191.67 218.627 Q2189.38 219.6 2186.97 220.109 Q2184.56 220.618 2182.09 220.618 Q2175.88 220.618 2172.25 217.007 Q2168.64 213.396 2168.64 207.238 Q2168.64 200.873 2172.06 197.146 Q2175.51 193.396 2181.34 193.396 Q2186.58 193.396 2189.61 196.776 Q2192.66 200.132 2192.66 205.919 M2188.4 204.669 Q2188.36 201.174 2186.44 199.09 Q2184.54 197.007 2181.39 197.007 Q2177.83 197.007 2175.67 199.021 Q2173.54 201.035 2173.22 204.692 L2188.4 204.669 Z" fill="#000000" fill-rule="evenodd" fill-opacity="1" /><path clip-path="url(#clip930)" d="M2214.68 198.002 Q2213.96 197.586 2213.1 197.401 Q2212.27 197.192 2211.25 197.192 Q2207.64 197.192 2205.7 199.553 Q2203.77 201.891 2203.77 206.289 L2203.77 219.947 L2199.49 219.947 L2199.49 194.021 L2203.77 194.021 L2203.77 198.049 Q2205.12 195.688 2207.27 194.553 Q2209.42 193.396 2212.5 193.396 Q2212.94 193.396 2213.47 193.465 Q2214.01 193.512 2214.65 193.627 L2214.68 198.002 Z" fill="#000000" fill-rule="evenodd" fill-opacity="1" /><path clip-path="url(#clip930)" d="M2240.28 205.919 L2240.28 208.002 L2220.7 208.002 Q2220.97 212.4 2223.33 214.715 Q2225.72 217.007 2229.96 217.007 Q2232.41 217.007 2234.7 216.405 Q2237.02 215.803 2239.28 214.6 L2239.28 218.627 Q2236.99 219.6 2234.58 220.109 Q2232.18 220.618 2229.7 220.618 Q2223.5 220.618 2219.86 217.007 Q2216.25 213.396 2216.25 207.238 Q2216.25 200.873 2219.68 197.146 Q2223.13 193.396 2228.96 193.396 Q2234.19 193.396 2237.22 196.776 Q2240.28 200.132 2240.28 205.919 M2236.02 204.669 Q2235.97 201.174 2234.05 199.09 Q2232.15 197.007 2229.01 197.007 Q2225.44 197.007 2223.29 199.021 Q2221.16 201.035 2220.83 204.692 L2236.02 204.669 Z" fill="#000000" fill-rule="evenodd" fill-opacity="1" /><path clip-path="url(#clip930)" d="M2268.82 204.299 L2268.82 219.947 L2264.56 219.947 L2264.56 204.438 Q2264.56 200.757 2263.13 198.928 Q2261.69 197.1 2258.82 197.1 Q2255.37 197.1 2253.38 199.299 Q2251.39 201.498 2251.39 205.294 L2251.39 219.947 L2247.11 219.947 L2247.11 194.021 L2251.39 194.021 L2251.39 198.049 Q2252.92 195.711 2254.98 194.553 Q2257.06 193.396 2259.77 193.396 Q2264.24 193.396 2266.53 196.174 Q2268.82 198.928 2268.82 204.299 Z" fill="#000000" fill-rule="evenodd" fill-opacity="1" /><path clip-path="url(#clip930)" d="M2295.97 195.016 L2295.97 198.998 Q2294.17 198.002 2292.34 197.516 Q2290.53 197.007 2288.68 197.007 Q2284.54 197.007 2282.25 199.646 Q2279.95 202.262 2279.95 207.007 Q2279.95 211.752 2282.25 214.391 Q2284.54 217.007 2288.68 217.007 Q2290.53 217.007 2292.34 216.521 Q2294.17 216.012 2295.97 215.016 L2295.97 218.951 Q2294.19 219.785 2292.27 220.201 Q2290.37 220.618 2288.22 220.618 Q2282.36 220.618 2278.91 216.937 Q2275.46 213.257 2275.46 207.007 Q2275.46 200.664 2278.94 197.03 Q2282.43 193.396 2288.5 193.396 Q2290.46 193.396 2292.34 193.813 Q2294.21 194.206 2295.97 195.016 Z" fill="#000000" fill-rule="evenodd" fill-opacity="1" /><path clip-path="url(#clip930)" d="M2325.56 205.919 L2325.56 208.002 L2305.97 208.002 Q2306.25 212.4 2308.61 214.715 Q2311 217.007 2315.23 217.007 Q2317.69 217.007 2319.98 216.405 Q2322.29 215.803 2324.56 214.6 L2324.56 218.627 Q2322.27 219.6 2319.86 220.109 Q2317.45 220.618 2314.98 220.618 Q2308.77 220.618 2305.14 217.007 Q2301.53 213.396 2301.53 207.238 Q2301.53 200.873 2304.95 197.146 Q2308.4 193.396 2314.24 193.396 Q2319.47 193.396 2322.5 196.776 Q2325.56 200.132 2325.56 205.919 M2321.3 204.669 Q2321.25 201.174 2319.33 199.09 Q2317.43 197.007 2314.28 197.007 Q2310.72 197.007 2308.57 199.021 Q2306.44 201.035 2306.11 204.692 L2321.3 204.669 Z" fill="#000000" fill-rule="evenodd" fill-opacity="1" /><path clip-path="url(#clip930)" d="M2360.74 183.928 L2360.74 187.47 L2356.67 187.47 Q2354.38 187.47 2353.47 188.396 Q2352.59 189.322 2352.59 191.729 L2352.59 194.021 L2359.61 194.021 L2359.61 197.331 L2352.59 197.331 L2352.59 219.947 L2348.31 219.947 L2348.31 197.331 L2344.24 197.331 L2344.24 194.021 L2348.31 194.021 L2348.31 192.215 Q2348.31 187.887 2350.32 185.919 Q2352.34 183.928 2356.71 183.928 L2360.74 183.928 Z" fill="#000000" fill-rule="evenodd" fill-opacity="1" /><path clip-path="url(#clip930)" d="M2374.35 197.007 Q2370.93 197.007 2368.94 199.692 Q2366.95 202.354 2366.95 207.007 Q2366.95 211.66 2368.91 214.345 Q2370.9 217.007 2374.35 217.007 Q2377.76 217.007 2379.75 214.322 Q2381.74 211.637 2381.74 207.007 Q2381.74 202.401 2379.75 199.715 Q2377.76 197.007 2374.35 197.007 M2374.35 193.396 Q2379.91 193.396 2383.08 197.007 Q2386.25 200.618 2386.25 207.007 Q2386.25 213.373 2383.08 217.007 Q2379.91 220.618 2374.35 220.618 Q2368.77 220.618 2365.6 217.007 Q2362.45 213.373 2362.45 207.007 Q2362.45 200.618 2365.6 197.007 Q2368.77 193.396 2374.35 193.396 Z" fill="#000000" fill-rule="evenodd" fill-opacity="1" /><path clip-path="url(#clip930)" d="M2408.33 198.002 Q2407.62 197.586 2406.76 197.401 Q2405.93 197.192 2404.91 197.192 Q2401.3 197.192 2399.35 199.553 Q2397.43 201.891 2397.43 206.289 L2397.43 219.947 L2393.15 219.947 L2393.15 194.021 L2397.43 194.021 L2397.43 198.049 Q2398.77 195.688 2400.93 194.553 Q2403.08 193.396 2406.16 193.396 Q2406.6 193.396 2407.13 193.465 Q2407.66 193.512 2408.31 193.627 L2408.33 198.002 Z" fill="#000000" fill-rule="evenodd" fill-opacity="1" /><path clip-path="url(#clip930)" d="M2140.52 238.5 L2140.52 245.861 L2149.3 245.861 L2149.3 249.171 L2140.52 249.171 L2140.52 263.245 Q2140.52 266.416 2141.38 267.319 Q2142.26 268.222 2144.92 268.222 L2149.3 268.222 L2149.3 271.787 L2144.92 271.787 Q2139.99 271.787 2138.12 269.958 Q2136.24 268.106 2136.24 263.245 L2136.24 249.171 L2133.12 249.171 L2133.12 245.861 L2136.24 245.861 L2136.24 238.5 L2140.52 238.5 Z" fill="#000000" fill-rule="evenodd" fill-opacity="1" /><path clip-path="url(#clip930)" d="M2166.68 258.754 Q2161.52 258.754 2159.53 259.935 Q2157.54 261.115 2157.54 263.963 Q2157.54 266.231 2159.02 267.574 Q2160.52 268.893 2163.09 268.893 Q2166.63 268.893 2168.76 266.393 Q2170.92 263.87 2170.92 259.703 L2170.92 258.754 L2166.68 258.754 M2175.18 256.995 L2175.18 271.787 L2170.92 271.787 L2170.92 267.852 Q2169.46 270.213 2167.28 271.347 Q2165.11 272.458 2161.96 272.458 Q2157.98 272.458 2155.62 270.236 Q2153.28 267.99 2153.28 264.24 Q2153.28 259.866 2156.19 257.643 Q2159.13 255.421 2164.94 255.421 L2170.92 255.421 L2170.92 255.004 Q2170.92 252.065 2168.97 250.467 Q2167.05 248.847 2163.56 248.847 Q2161.33 248.847 2159.23 249.379 Q2157.12 249.912 2155.18 250.977 L2155.18 247.041 Q2157.51 246.139 2159.71 245.699 Q2161.91 245.236 2163.99 245.236 Q2169.62 245.236 2172.4 248.153 Q2175.18 251.069 2175.18 256.995 Z" fill="#000000" fill-rule="evenodd" fill-opacity="1" /><path clip-path="url(#clip930)" d="M2198.97 249.842 Q2198.25 249.426 2197.4 249.241 Q2196.56 249.032 2195.55 249.032 Q2191.93 249.032 2189.99 251.393 Q2188.07 253.731 2188.07 258.129 L2188.07 271.787 L2183.79 271.787 L2183.79 245.861 L2188.07 245.861 L2188.07 249.889 Q2189.41 247.528 2191.56 246.393 Q2193.72 245.236 2196.8 245.236 Q2197.24 245.236 2197.77 245.305 Q2198.3 245.352 2198.95 245.467 L2198.97 249.842 Z" fill="#000000" fill-rule="evenodd" fill-opacity="1" /><path clip-path="url(#clip930)" d="M2219.67 258.523 Q2219.67 253.893 2217.74 251.347 Q2215.85 248.801 2212.4 248.801 Q2208.97 248.801 2207.05 251.347 Q2205.15 253.893 2205.15 258.523 Q2205.15 263.129 2207.05 265.676 Q2208.97 268.222 2212.4 268.222 Q2215.85 268.222 2217.74 265.676 Q2219.67 263.129 2219.67 258.523 M2223.93 268.569 Q2223.93 275.189 2220.99 278.407 Q2218.05 281.648 2211.98 281.648 Q2209.74 281.648 2207.74 281.301 Q2205.75 280.977 2203.88 280.282 L2203.88 276.139 Q2205.75 277.157 2207.58 277.643 Q2209.41 278.129 2211.31 278.129 Q2215.5 278.129 2217.58 275.93 Q2219.67 273.754 2219.67 269.333 L2219.67 267.227 Q2218.35 269.518 2216.29 270.652 Q2214.23 271.787 2211.36 271.787 Q2206.59 271.787 2203.67 268.152 Q2200.75 264.518 2200.75 258.523 Q2200.75 252.504 2203.67 248.87 Q2206.59 245.236 2211.36 245.236 Q2214.23 245.236 2216.29 246.37 Q2218.35 247.504 2219.67 249.796 L2219.67 245.861 L2223.93 245.861 L2223.93 268.569 Z" fill="#000000" fill-rule="evenodd" fill-opacity="1" /><path clip-path="url(#clip930)" d="M2254.87 257.759 L2254.87 259.842 L2235.29 259.842 Q2235.57 264.24 2237.93 266.555 Q2240.31 268.847 2244.55 268.847 Q2247 268.847 2249.3 268.245 Q2251.61 267.643 2253.88 266.44 L2253.88 270.467 Q2251.59 271.44 2249.18 271.949 Q2246.77 272.458 2244.3 272.458 Q2238.09 272.458 2234.46 268.847 Q2230.85 265.236 2230.85 259.078 Q2230.85 252.713 2234.27 248.986 Q2237.72 245.236 2243.55 245.236 Q2248.79 245.236 2251.82 248.616 Q2254.87 251.972 2254.87 257.759 M2250.61 256.509 Q2250.57 253.014 2248.65 250.93 Q2246.75 248.847 2243.6 248.847 Q2240.04 248.847 2237.88 250.861 Q2235.75 252.875 2235.43 256.532 L2250.61 256.509 Z" fill="#000000" fill-rule="evenodd" fill-opacity="1" /><path clip-path="url(#clip930)" d="M2266.08 238.5 L2266.08 245.861 L2274.85 245.861 L2274.85 249.171 L2266.08 249.171 L2266.08 263.245 Q2266.08 266.416 2266.93 267.319 Q2267.81 268.222 2270.48 268.222 L2274.85 268.222 L2274.85 271.787 L2270.48 271.787 Q2265.55 271.787 2263.67 269.958 Q2261.8 268.106 2261.8 263.245 L2261.8 249.171 L2258.67 249.171 L2258.67 245.861 L2261.8 245.861 L2261.8 238.5 L2266.08 238.5 Z" fill="#000000" fill-rule="evenodd" fill-opacity="1" /><path clip-path="url(#clip930)" d="M2308.65 235.768 L2308.65 239.31 L2304.57 239.31 Q2302.28 239.31 2301.38 240.236 Q2300.5 241.162 2300.5 243.569 L2300.5 245.861 L2307.51 245.861 L2307.51 249.171 L2300.5 249.171 L2300.5 271.787 L2296.22 271.787 L2296.22 249.171 L2292.14 249.171 L2292.14 245.861 L2296.22 245.861 L2296.22 244.055 Q2296.22 239.727 2298.23 237.759 Q2300.24 235.768 2304.62 235.768 L2308.65 235.768 Z" fill="#000000" fill-rule="evenodd" fill-opacity="1" /><path clip-path="url(#clip930)" d="M2312.21 245.861 L2316.47 245.861 L2316.47 271.787 L2312.21 271.787 L2312.21 245.861 M2312.21 235.768 L2316.47 235.768 L2316.47 241.162 L2312.21 241.162 L2312.21 235.768 Z" fill="#000000" fill-rule="evenodd" fill-opacity="1" /><path clip-path="url(#clip930)" d="M2340.41 249.842 Q2339.69 249.426 2338.83 249.241 Q2338 249.032 2336.98 249.032 Q2333.37 249.032 2331.42 251.393 Q2329.5 253.731 2329.5 258.129 L2329.5 271.787 L2325.22 271.787 L2325.22 245.861 L2329.5 245.861 L2329.5 249.889 Q2330.85 247.528 2333 246.393 Q2335.15 245.236 2338.23 245.236 Q2338.67 245.236 2339.2 245.305 Q2339.73 245.352 2340.38 245.467 L2340.41 249.842 Z" fill="#000000" fill-rule="evenodd" fill-opacity="1" /><path clip-path="url(#clip930)" d="M2361.4 246.625 L2361.4 250.653 Q2359.6 249.727 2357.65 249.264 Q2355.71 248.801 2353.62 248.801 Q2350.45 248.801 2348.86 249.773 Q2347.28 250.745 2347.28 252.69 Q2347.28 254.171 2348.42 255.028 Q2349.55 255.861 2352.98 256.625 L2354.43 256.949 Q2358.97 257.921 2360.87 259.703 Q2362.79 261.463 2362.79 264.634 Q2362.79 268.245 2359.92 270.352 Q2357.07 272.458 2352.07 272.458 Q2349.99 272.458 2347.72 272.041 Q2345.48 271.648 2342.98 270.838 L2342.98 266.44 Q2345.34 267.666 2347.63 268.291 Q2349.92 268.893 2352.17 268.893 Q2355.17 268.893 2356.79 267.875 Q2358.42 266.833 2358.42 264.958 Q2358.42 263.222 2357.23 262.296 Q2356.08 261.37 2352.12 260.514 L2350.64 260.166 Q2346.68 259.333 2344.92 257.62 Q2343.16 255.884 2343.16 252.875 Q2343.16 249.217 2345.75 247.227 Q2348.35 245.236 2353.11 245.236 Q2355.48 245.236 2357.56 245.583 Q2359.64 245.93 2361.4 246.625 Z" fill="#000000" fill-rule="evenodd" fill-opacity="1" /><path clip-path="url(#clip930)" d="M2373.79 238.5 L2373.79 245.861 L2382.56 245.861 L2382.56 249.171 L2373.79 249.171 L2373.79 263.245 Q2373.79 266.416 2374.64 267.319 Q2375.52 268.222 2378.18 268.222 L2382.56 268.222 L2382.56 271.787 L2378.18 271.787 Q2373.25 271.787 2371.38 269.958 Q2369.5 268.106 2369.5 263.245 L2369.5 249.171 L2366.38 249.171 L2366.38 245.861 L2369.5 245.861 L2369.5 238.5 L2373.79 238.5 Z" fill="#000000" fill-rule="evenodd" fill-opacity="1" /><path clip-path="url(#clip930)" d="
M1974.19 313.259 L2128.25 313.259 L2128.25 264.875 L1974.19 264.875 L1974.19 313.259  Z
  " fill="#006d60" fill-rule="evenodd" fill-opacity="1"/>
<polyline clip-path="url(#clip930)" style="stroke:#000000; stroke-linecap:butt; stroke-linejoin:round; stroke-width:4; stroke-opacity:1; fill:none" points="
  1974.19,264.875 2128.25,264.875 
  "/>
<path clip-path="url(#clip930)" d="M2169.53 275.861 L2157.72 294.31 L2169.53 294.31 L2169.53 275.861 M2168.3 271.787 L2174.18 271.787 L2174.18 294.31 L2179.11 294.31 L2179.11 298.199 L2174.18 298.199 L2174.18 306.347 L2169.53 306.347 L2169.53 298.199 L2153.93 298.199 L2153.93 293.685 L2168.3 271.787 Z" fill="#000000" fill-rule="evenodd" fill-opacity="1" /><path clip-path="url(#clip930)" d="
M1974.19 373.739 L2128.25 373.739 L2128.25 325.355 L1974.19 325.355 L1974.19 373.739  Z
  " fill="#008569" fill-rule="evenodd" fill-opacity="1"/>
<polyline clip-path="url(#clip930)" style="stroke:#000000; stroke-linecap:butt; stroke-linejoin:round; stroke-width:4; stroke-opacity:1; fill:none" points="
  1974.19,325.355 2128.25,325.355 
  "/>
<path clip-path="url(#clip930)" d="M2169.55 348.193 Q2172.91 348.91 2174.78 351.179 Q2176.68 353.447 2176.68 356.78 Q2176.68 361.896 2173.16 364.697 Q2169.65 367.498 2163.16 367.498 Q2160.99 367.498 2158.67 367.058 Q2156.38 366.642 2153.93 365.785 L2153.93 361.271 Q2155.87 362.405 2158.19 362.984 Q2160.5 363.563 2163.03 363.563 Q2167.42 363.563 2169.72 361.827 Q2172.03 360.091 2172.03 356.78 Q2172.03 353.725 2169.88 352.012 Q2167.75 350.276 2163.93 350.276 L2159.9 350.276 L2159.9 346.433 L2164.11 346.433 Q2167.56 346.433 2169.39 345.068 Q2171.22 343.679 2171.22 341.086 Q2171.22 338.424 2169.32 337.012 Q2167.45 335.577 2163.93 335.577 Q2162.01 335.577 2159.81 335.994 Q2157.61 336.41 2154.97 337.29 L2154.97 333.123 Q2157.63 332.382 2159.95 332.012 Q2162.28 331.642 2164.34 331.642 Q2169.67 331.642 2172.77 334.072 Q2175.87 336.48 2175.87 340.6 Q2175.87 343.47 2174.23 345.461 Q2172.59 347.429 2169.55 348.193 Z" fill="#000000" fill-rule="evenodd" fill-opacity="1" /><path clip-path="url(#clip930)" d="
M1974.19 434.219 L2128.25 434.219 L2128.25 385.835 L1974.19 385.835 L1974.19 434.219  Z
  " fill="#009e73" fill-rule="evenodd" fill-opacity="1"/>
<polyline clip-path="url(#clip930)" style="stroke:#000000; stroke-linecap:butt; stroke-linejoin:round; stroke-width:4; stroke-opacity:1; fill:none" points="
  1974.19,385.835 2128.25,385.835 
  "/>
<path clip-path="url(#clip930)" d="M2159.55 423.372 L2175.87 423.372 L2175.87 427.307 L2153.93 427.307 L2153.93 423.372 Q2156.59 420.617 2161.17 415.987 Q2165.78 411.335 2166.96 409.992 Q2169.21 407.469 2170.09 405.733 Q2170.99 403.974 2170.99 402.284 Q2170.99 399.529 2169.04 397.793 Q2167.12 396.057 2164.02 396.057 Q2161.82 396.057 2159.37 396.821 Q2156.94 397.585 2154.16 399.136 L2154.16 394.413 Q2156.98 393.279 2159.44 392.7 Q2161.89 392.122 2163.93 392.122 Q2169.3 392.122 2172.49 394.807 Q2175.69 397.492 2175.69 401.983 Q2175.69 404.112 2174.88 406.034 Q2174.09 407.932 2171.98 410.524 Q2171.41 411.196 2168.3 414.413 Q2165.2 417.608 2159.55 423.372 Z" fill="#000000" fill-rule="evenodd" fill-opacity="1" /><path clip-path="url(#clip930)" d="
M1974.19 494.699 L2128.25 494.699 L2128.25 446.315 L1974.19 446.315 L1974.19 494.699  Z
  " fill="#77c6b0" fill-rule="evenodd" fill-opacity="1"/>
<polyline clip-path="url(#clip930)" style="stroke:#000000; stroke-linecap:butt; stroke-linejoin:round; stroke-width:4; stroke-opacity:1; fill:none" points="
  1974.19,446.315 2128.25,446.315 
  "/>
<path clip-path="url(#clip930)" d="M2154.6 483.852 L2162.24 483.852 L2162.24 457.486 L2153.93 459.153 L2153.93 454.893 L2162.19 453.227 L2166.87 453.227 L2166.87 483.852 L2174.51 483.852 L2174.51 487.787 L2154.6 487.787 L2154.6 483.852 Z" fill="#000000" fill-rule="evenodd" fill-opacity="1" /><path clip-path="url(#clip930)" d="
M1974.19 555.179 L2128.25 555.179 L2128.25 506.795 L1974.19 506.795 L1974.19 555.179  Z
  " fill="#eeeeee" fill-rule="evenodd" fill-opacity="1"/>
<polyline clip-path="url(#clip930)" style="stroke:#000000; stroke-linecap:butt; stroke-linejoin:round; stroke-width:4; stroke-opacity:1; fill:none" points="
  1974.19,506.795 2128.25,506.795 
  "/>
<path clip-path="url(#clip930)" d="M2165.87 516.785 Q2162.26 516.785 2160.43 520.35 Q2158.63 523.892 2158.63 531.021 Q2158.63 538.128 2160.43 541.693 Q2162.26 545.234 2165.87 545.234 Q2169.51 545.234 2171.31 541.693 Q2173.14 538.128 2173.14 531.021 Q2173.14 523.892 2171.31 520.35 Q2169.51 516.785 2165.87 516.785 M2165.87 513.082 Q2171.68 513.082 2174.74 517.688 Q2177.82 522.272 2177.82 531.021 Q2177.82 539.748 2174.74 544.355 Q2171.68 548.938 2165.87 548.938 Q2160.06 548.938 2156.98 544.355 Q2153.93 539.748 2153.93 531.021 Q2153.93 522.272 2156.98 517.688 Q2160.06 513.082 2165.87 513.082 Z" fill="#000000" fill-rule="evenodd" fill-opacity="1" /><path clip-path="url(#clip930)" d="
M1974.19 615.659 L2128.25 615.659 L2128.25 567.275 L1974.19 567.275 L1974.19 615.659  Z
  " fill="#ddb3ca" fill-rule="evenodd" fill-opacity="1"/>
<polyline clip-path="url(#clip930)" style="stroke:#000000; stroke-linecap:butt; stroke-linejoin:round; stroke-width:4; stroke-opacity:1; fill:none" points="
  1974.19,567.275 2128.25,567.275 
  "/>
<path clip-path="url(#clip930)" d="M2153.93 593.863 L2166.41 593.863 L2166.41 597.659 L2153.93 597.659 L2153.93 593.863 Z" fill="#000000" fill-rule="evenodd" fill-opacity="1" /><path clip-path="url(#clip930)" d="M2174.6 604.812 L2182.24 604.812 L2182.24 578.446 L2173.93 580.113 L2173.93 575.853 L2182.19 574.187 L2186.87 574.187 L2186.87 604.812 L2194.51 604.812 L2194.51 608.747 L2174.6 608.747 L2174.6 604.812 Z" fill="#000000" fill-rule="evenodd" fill-opacity="1" /><path clip-path="url(#clip930)" d="
M1974.19 676.139 L2128.25 676.139 L2128.25 627.755 L1974.19 627.755 L1974.19 676.139  Z
  " fill="#cc79a7" fill-rule="evenodd" fill-opacity="1"/>
<polyline clip-path="url(#clip930)" style="stroke:#000000; stroke-linecap:butt; stroke-linejoin:round; stroke-width:4; stroke-opacity:1; fill:none" points="
  1974.19,627.755 2128.25,627.755 
  "/>
<path clip-path="url(#clip930)" d="M2153.93 654.343 L2166.41 654.343 L2166.41 658.139 L2153.93 658.139 L2153.93 654.343 Z" fill="#000000" fill-rule="evenodd" fill-opacity="1" /><path clip-path="url(#clip930)" d="M2177.82 665.292 L2194.14 665.292 L2194.14 669.227 L2172.19 669.227 L2172.19 665.292 Q2174.85 662.537 2179.44 657.907 Q2184.04 653.255 2185.22 651.912 Q2187.47 649.389 2188.35 647.653 Q2189.25 645.894 2189.25 644.204 Q2189.25 641.449 2187.31 639.713 Q2185.39 637.977 2182.28 637.977 Q2180.09 637.977 2177.63 638.741 Q2175.2 639.505 2172.42 641.056 L2172.42 636.333 Q2175.25 635.199 2177.7 634.62 Q2180.16 634.042 2182.19 634.042 Q2187.56 634.042 2190.76 636.727 Q2193.95 639.412 2193.95 643.903 Q2193.95 646.032 2193.14 647.954 Q2192.35 649.852 2190.25 652.444 Q2189.67 653.116 2186.57 656.333 Q2183.47 659.528 2177.82 665.292 Z" fill="#000000" fill-rule="evenodd" fill-opacity="1" /><path clip-path="url(#clip930)" d="
M1974.19 736.619 L2128.25 736.619 L2128.25 688.235 L1974.19 688.235 L1974.19 736.619  Z
  " fill="#b55585" fill-rule="evenodd" fill-opacity="1"/>
<polyline clip-path="url(#clip930)" style="stroke:#000000; stroke-linecap:butt; stroke-linejoin:round; stroke-width:4; stroke-opacity:1; fill:none" points="
  1974.19,688.235 2128.25,688.235 
  "/>
<path clip-path="url(#clip930)" d="M2153.93 714.823 L2166.41 714.823 L2166.41 718.619 L2153.93 718.619 L2153.93 714.823 Z" fill="#000000" fill-rule="evenodd" fill-opacity="1" /><path clip-path="url(#clip930)" d="M2187.96 711.073 Q2191.31 711.79 2193.19 714.059 Q2195.09 716.327 2195.09 719.66 Q2195.09 724.776 2191.57 727.577 Q2188.05 730.378 2181.57 730.378 Q2179.39 730.378 2177.08 729.938 Q2174.78 729.522 2172.33 728.665 L2172.33 724.151 Q2174.28 725.285 2176.59 725.864 Q2178.91 726.443 2181.43 726.443 Q2185.83 726.443 2188.12 724.707 Q2190.43 722.971 2190.43 719.66 Q2190.43 716.605 2188.28 714.892 Q2186.15 713.156 2182.33 713.156 L2178.3 713.156 L2178.3 709.313 L2182.52 709.313 Q2185.97 709.313 2187.79 707.948 Q2189.62 706.559 2189.62 703.966 Q2189.62 701.304 2187.72 699.892 Q2185.85 698.457 2182.33 698.457 Q2180.41 698.457 2178.21 698.874 Q2176.01 699.29 2173.37 700.17 L2173.37 696.003 Q2176.03 695.262 2178.35 694.892 Q2180.69 694.522 2182.75 694.522 Q2188.07 694.522 2191.17 696.952 Q2194.28 699.36 2194.28 703.48 Q2194.28 706.35 2192.63 708.341 Q2190.99 710.309 2187.96 711.073 Z" fill="#000000" fill-rule="evenodd" fill-opacity="1" /><path clip-path="url(#clip930)" d="
M1974.19 797.099 L2128.25 797.099 L2128.25 748.715 L1974.19 748.715 L1974.19 797.099  Z
  " fill="#9e3264" fill-rule="evenodd" fill-opacity="1"/>
<polyline clip-path="url(#clip930)" style="stroke:#000000; stroke-linecap:butt; stroke-linejoin:round; stroke-width:4; stroke-opacity:1; fill:none" points="
  1974.19,748.715 2128.25,748.715 
  "/>
<path clip-path="url(#clip930)" d="M2153.93 775.303 L2166.41 775.303 L2166.41 779.099 L2153.93 779.099 L2153.93 775.303 Z" fill="#000000" fill-rule="evenodd" fill-opacity="1" /><path clip-path="url(#clip930)" d="M2186.64 759.701 L2174.83 778.15 L2186.64 778.15 L2186.64 759.701 M2185.41 755.627 L2191.29 755.627 L2191.29 778.15 L2196.22 778.15 L2196.22 782.039 L2191.29 782.039 L2191.29 790.187 L2186.64 790.187 L2186.64 782.039 L2171.03 782.039 L2171.03 777.525 L2185.41 755.627 Z" fill="#000000" fill-rule="evenodd" fill-opacity="1" /></svg>
