<?xml version="1.0" encoding="utf-8"?>
<svg xmlns="http://www.w3.org/2000/svg" xmlns:xlink="http://www.w3.org/1999/xlink" width="500" height="320" viewBox="0 0 2000 1280">
<defs>
  <clipPath id="clip650">
    <rect x="0" y="0" width="2000" height="1280"/>
  </clipPath>
</defs>
<path clip-path="url(#clip650)" d="
M0 1280 L2000 1280 L2000 0 L0 0  Z
  " fill="#ffffff" fill-rule="evenodd" fill-opacity="1"/>
<defs>
  <clipPath id="clip651">
    <rect x="400" y="0" width="1401" height="1280"/>
  </clipPath>
</defs>
<path clip-path="url(#clip650)" d="
M243.641 1109.66 L1358.41 1109.66 L1358.41 47.2441 L243.641 47.2441  Z
  " fill="#ffffff" fill-rule="evenodd" fill-opacity="1"/>
<defs>
  <clipPath id="clip652">
    <rect x="243" y="47" width="1116" height="1063"/>
  </clipPath>
</defs>
<polyline clip-path="url(#clip652)" style="stroke:#000000; stroke-linecap:butt; stroke-linejoin:round; stroke-width:2; stroke-opacity:0.1; fill:none" points="
  409.391,1109.66 409.391,47.2441 
  "/>
<polyline clip-path="url(#clip652)" style="stroke:#000000; stroke-linecap:butt; stroke-linejoin:round; stroke-width:2; stroke-opacity:0.1; fill:none" points="
  670.48,1109.66 670.48,47.2441 
  "/>
<polyline clip-path="url(#clip652)" style="stroke:#000000; stroke-linecap:butt; stroke-linejoin:round; stroke-width:2; stroke-opacity:0.1; fill:none" points="
  931.57,1109.66 931.57,47.2441 
  "/>
<polyline clip-path="url(#clip652)" style="stroke:#000000; stroke-linecap:butt; stroke-linejoin:round; stroke-width:2; stroke-opacity:0.1; fill:none" points="
  1192.66,1109.66 1192.66,47.2441 
  "/>
<polyline clip-path="url(#clip650)" style="stroke:#000000; stroke-linecap:butt; stroke-linejoin:round; stroke-width:4; stroke-opacity:1; fill:none" points="
  243.641,1109.66 1358.41,1109.66 
  "/>
<polyline clip-path="url(#clip650)" style="stroke:#000000; stroke-linecap:butt; stroke-linejoin:round; stroke-width:4; stroke-opacity:1; fill:none" points="
  409.391,1109.66 409.391,1096.91 
  "/>
<polyline clip-path="url(#clip650)" style="stroke:#000000; stroke-linecap:butt; stroke-linejoin:round; stroke-width:4; stroke-opacity:1; fill:none" points="
  670.48,1109.66 670.48,1096.91 
  "/>
<polyline clip-path="url(#clip650)" style="stroke:#000000; stroke-linecap:butt; stroke-linejoin:round; stroke-width:4; stroke-opacity:1; fill:none" points="
  931.57,1109.66 931.57,1096.91 
  "/>
<polyline clip-path="url(#clip650)" style="stroke:#000000; stroke-linecap:butt; stroke-linejoin:round; stroke-width:4; stroke-opacity:1; fill:none" points="
  1192.66,1109.66 1192.66,1096.91 
  "/>
<path clip-path="url(#clip650)" d="M404.044 1163.2 L420.363 1163.2 L420.363 1167.14 L398.419 1167.14 L398.419 1163.2 Q401.081 1160.45 405.664 1155.82 Q410.271 1151.16 411.451 1149.82 Q413.697 1147.3 414.576 1145.56 Q415.479 1143.8 415.479 1142.11 Q415.479 1139.36 413.535 1137.62 Q411.613 1135.89 408.512 1135.89 Q406.312 1135.89 403.859 1136.65 Q401.428 1137.41 398.65 1138.96 L398.65 1134.24 Q401.475 1133.11 403.928 1132.53 Q406.382 1131.95 408.419 1131.95 Q413.789 1131.95 416.984 1134.64 Q420.178 1137.32 420.178 1141.81 Q420.178 1143.94 419.368 1145.86 Q418.581 1147.76 416.474 1150.35 Q415.896 1151.02 412.794 1154.24 Q409.692 1157.44 404.044 1163.2 Z" fill="#000000" fill-rule="evenodd" fill-opacity="1" /><path clip-path="url(#clip650)" d="M674.728 1148.5 Q678.085 1149.22 679.96 1151.49 Q681.858 1153.76 681.858 1157.09 Q681.858 1162.2 678.339 1165.01 Q674.821 1167.81 668.339 1167.81 Q666.163 1167.81 663.848 1167.37 Q661.557 1166.95 659.103 1166.09 L659.103 1161.58 Q661.048 1162.71 663.362 1163.29 Q665.677 1163.87 668.2 1163.87 Q672.598 1163.87 674.89 1162.14 Q677.205 1160.4 677.205 1157.09 Q677.205 1154.03 675.052 1152.32 Q672.923 1150.58 669.103 1150.58 L665.075 1150.58 L665.075 1146.74 L669.288 1146.74 Q672.737 1146.74 674.566 1145.38 Q676.395 1143.99 676.395 1141.39 Q676.395 1138.73 674.497 1137.32 Q672.622 1135.89 669.103 1135.89 Q667.182 1135.89 664.983 1136.3 Q662.784 1136.72 660.145 1137.6 L660.145 1133.43 Q662.807 1132.69 665.122 1132.32 Q667.46 1131.95 669.52 1131.95 Q674.844 1131.95 677.946 1134.38 Q681.047 1136.79 681.047 1140.91 Q681.047 1143.78 679.404 1145.77 Q677.76 1147.74 674.728 1148.5 Z" fill="#000000" fill-rule="evenodd" fill-opacity="1" /><path clip-path="url(#clip650)" d="M934.579 1136.65 L922.773 1155.1 L934.579 1155.1 L934.579 1136.65 M933.352 1132.58 L939.232 1132.58 L939.232 1155.1 L944.162 1155.1 L944.162 1158.99 L939.232 1158.99 L939.232 1167.14 L934.579 1167.14 L934.579 1158.99 L918.977 1158.99 L918.977 1154.47 L933.352 1132.58 Z" fill="#000000" fill-rule="evenodd" fill-opacity="1" /><path clip-path="url(#clip650)" d="M1182.94 1132.58 L1201.29 1132.58 L1201.29 1136.51 L1187.22 1136.51 L1187.22 1144.98 Q1188.24 1144.64 1189.26 1144.47 Q1190.27 1144.29 1191.29 1144.29 Q1197.08 1144.29 1200.46 1147.46 Q1203.84 1150.63 1203.84 1156.05 Q1203.84 1161.63 1200.37 1164.73 Q1196.89 1167.81 1190.58 1167.81 Q1188.4 1167.81 1186.13 1167.44 Q1183.89 1167.07 1181.48 1166.32 L1181.48 1161.63 Q1183.56 1162.76 1185.78 1163.32 Q1188.01 1163.87 1190.48 1163.87 Q1194.49 1163.87 1196.83 1161.76 Q1199.16 1159.66 1199.16 1156.05 Q1199.16 1152.44 1196.83 1150.33 Q1194.49 1148.22 1190.48 1148.22 Q1188.61 1148.22 1186.73 1148.64 Q1184.88 1149.06 1182.94 1149.94 L1182.94 1132.58 Z" fill="#000000" fill-rule="evenodd" fill-opacity="1" /><path clip-path="url(#clip650)" d="M363.255 1214.25 L363.255 1219.72 Q360.773 1218.35 358.258 1217.69 Q355.776 1216.98 353.229 1216.98 Q347.532 1216.98 344.381 1220.61 Q341.23 1224.21 341.23 1230.73 Q341.23 1237.26 344.381 1240.89 Q347.532 1244.48 353.229 1244.48 Q355.776 1244.48 358.258 1243.82 Q360.773 1243.12 363.255 1241.75 L363.255 1247.16 Q360.805 1248.3 358.163 1248.88 Q355.553 1249.45 352.593 1249.45 Q344.54 1249.45 339.798 1244.39 Q335.055 1239.33 335.055 1230.73 Q335.055 1222.01 339.83 1217.02 Q344.636 1212.02 352.975 1212.02 Q355.68 1212.02 358.258 1212.59 Q360.836 1213.13 363.255 1214.25 Z" fill="#000000" fill-rule="evenodd" fill-opacity="1" /><path clip-path="url(#clip650)" d="M387.254 1216.98 Q382.543 1216.98 379.806 1220.68 Q377.069 1224.34 377.069 1230.73 Q377.069 1237.13 379.774 1240.82 Q382.512 1244.48 387.254 1244.48 Q391.933 1244.48 394.67 1240.79 Q397.407 1237.1 397.407 1230.73 Q397.407 1224.4 394.67 1220.71 Q391.933 1216.98 387.254 1216.98 M387.254 1212.02 Q394.893 1212.02 399.253 1216.98 Q403.614 1221.95 403.614 1230.73 Q403.614 1239.49 399.253 1244.48 Q394.893 1249.45 387.254 1249.45 Q379.583 1249.45 375.223 1244.48 Q370.894 1239.49 370.894 1230.73 Q370.894 1221.95 375.223 1216.98 Q379.583 1212.02 387.254 1212.02 Z" fill="#000000" fill-rule="evenodd" fill-opacity="1" /><path clip-path="url(#clip650)" d="M442.954 1227.01 L442.954 1248.53 L437.098 1248.53 L437.098 1227.2 Q437.098 1222.14 435.124 1219.63 Q433.151 1217.11 429.204 1217.11 Q424.462 1217.11 421.724 1220.14 Q418.987 1223.16 418.987 1228.38 L418.987 1248.53 L413.099 1248.53 L413.099 1212.88 L418.987 1212.88 L418.987 1218.42 Q421.088 1215.2 423.921 1213.61 Q426.785 1212.02 430.509 1212.02 Q436.652 1212.02 439.803 1215.84 Q442.954 1219.63 442.954 1227.01 Z" fill="#000000" fill-rule="evenodd" fill-opacity="1" /><path clip-path="url(#clip650)" d="M472.682 1199 L472.682 1203.87 L467.08 1203.87 Q463.929 1203.87 462.688 1205.14 Q461.478 1206.42 461.478 1209.73 L461.478 1212.88 L471.122 1212.88 L471.122 1217.43 L461.478 1217.43 L461.478 1248.53 L455.59 1248.53 L455.59 1217.43 L449.988 1217.43 L449.988 1212.88 L455.59 1212.88 L455.59 1210.4 Q455.59 1204.44 458.359 1201.74 Q461.128 1199 467.144 1199 L472.682 1199 Z" fill="#000000" fill-rule="evenodd" fill-opacity="1" /><path clip-path="url(#clip650)" d="M477.583 1212.88 L483.44 1212.88 L483.44 1248.53 L477.583 1248.53 L477.583 1212.88 M477.583 1199 L483.44 1199 L483.44 1206.42 L477.583 1206.42 L477.583 1199 Z" fill="#000000" fill-rule="evenodd" fill-opacity="1" /><path clip-path="url(#clip650)" d="M519.152 1218.29 L519.152 1199 L525.008 1199 L525.008 1248.53 L519.152 1248.53 L519.152 1243.18 Q517.305 1246.36 514.473 1247.92 Q511.672 1249.45 507.725 1249.45 Q501.264 1249.45 497.19 1244.29 Q493.148 1239.14 493.148 1230.73 Q493.148 1222.33 497.19 1217.18 Q501.264 1212.02 507.725 1212.02 Q511.672 1212.02 514.473 1213.58 Q517.305 1215.11 519.152 1218.29 M499.195 1230.73 Q499.195 1237.2 501.837 1240.89 Q504.51 1244.55 509.157 1244.55 Q513.804 1244.55 516.478 1240.89 Q519.152 1237.2 519.152 1230.73 Q519.152 1224.27 516.478 1220.61 Q513.804 1216.92 509.157 1216.92 Q504.51 1216.92 501.837 1220.61 Q499.195 1224.27 499.195 1230.73 Z" fill="#000000" fill-rule="evenodd" fill-opacity="1" /><path clip-path="url(#clip650)" d="M567.563 1229.24 L567.563 1232.1 L540.636 1232.1 Q541.018 1238.15 544.264 1241.33 Q547.543 1244.48 553.367 1244.48 Q556.741 1244.48 559.892 1243.66 Q563.075 1242.83 566.194 1241.17 L566.194 1246.71 Q563.043 1248.05 559.733 1248.75 Q556.423 1249.45 553.017 1249.45 Q544.487 1249.45 539.49 1244.48 Q534.525 1239.52 534.525 1231.05 Q534.525 1222.3 539.235 1217.18 Q543.978 1212.02 551.999 1212.02 Q559.192 1212.02 563.361 1216.67 Q567.563 1221.28 567.563 1229.24 M561.706 1227.52 Q561.643 1222.71 559.001 1219.85 Q556.391 1216.98 552.062 1216.98 Q547.161 1216.98 544.201 1219.75 Q541.272 1222.52 540.827 1227.55 L561.706 1227.52 Z" fill="#000000" fill-rule="evenodd" fill-opacity="1" /><path clip-path="url(#clip650)" d="M606.807 1227.01 L606.807 1248.53 L600.951 1248.53 L600.951 1227.2 Q600.951 1222.14 598.977 1219.63 Q597.004 1217.11 593.057 1217.11 Q588.315 1217.11 585.578 1220.14 Q582.84 1223.16 582.84 1228.38 L582.84 1248.53 L576.952 1248.53 L576.952 1212.88 L582.84 1212.88 L582.84 1218.42 Q584.941 1215.2 587.774 1213.61 Q590.638 1212.02 594.362 1212.02 Q600.505 1212.02 603.656 1215.84 Q606.807 1219.63 606.807 1227.01 Z" fill="#000000" fill-rule="evenodd" fill-opacity="1" /><path clip-path="url(#clip650)" d="M644.142 1214.25 L644.142 1219.72 Q641.66 1218.35 639.145 1217.69 Q636.662 1216.98 634.116 1216.98 Q628.419 1216.98 625.268 1220.61 Q622.117 1224.21 622.117 1230.73 Q622.117 1237.26 625.268 1240.89 Q628.419 1244.48 634.116 1244.48 Q636.662 1244.48 639.145 1243.82 Q641.66 1243.12 644.142 1241.75 L644.142 1247.16 Q641.691 1248.3 639.05 1248.88 Q636.44 1249.45 633.48 1249.45 Q625.427 1249.45 620.685 1244.39 Q615.942 1239.33 615.942 1230.73 Q615.942 1222.01 620.716 1217.02 Q625.522 1212.02 633.862 1212.02 Q636.567 1212.02 639.145 1212.59 Q641.723 1213.13 644.142 1214.25 Z" fill="#000000" fill-rule="evenodd" fill-opacity="1" /><path clip-path="url(#clip650)" d="M684.819 1229.24 L684.819 1232.1 L657.892 1232.1 Q658.274 1238.15 661.521 1241.33 Q664.799 1244.48 670.624 1244.48 Q673.997 1244.48 677.148 1243.66 Q680.331 1242.83 683.45 1241.17 L683.45 1246.71 Q680.299 1248.05 676.989 1248.75 Q673.679 1249.45 670.273 1249.45 Q661.743 1249.45 656.746 1244.48 Q651.781 1239.52 651.781 1231.05 Q651.781 1222.3 656.492 1217.18 Q661.234 1212.02 669.255 1212.02 Q676.448 1212.02 680.618 1216.67 Q684.819 1221.28 684.819 1229.24 M678.963 1227.52 Q678.899 1222.71 676.257 1219.85 Q673.647 1216.98 669.319 1216.98 Q664.417 1216.98 661.457 1219.75 Q658.529 1222.52 658.083 1227.55 L678.963 1227.52 Z" fill="#000000" fill-rule="evenodd" fill-opacity="1" /><path clip-path="url(#clip650)" d="M728.965 1216.98 Q724.255 1216.98 721.517 1220.68 Q718.78 1224.34 718.78 1230.73 Q718.78 1237.13 721.486 1240.82 Q724.223 1244.48 728.965 1244.48 Q733.644 1244.48 736.381 1240.79 Q739.119 1237.1 739.119 1230.73 Q739.119 1224.4 736.381 1220.71 Q733.644 1216.98 728.965 1216.98 M728.965 1212.02 Q736.604 1212.02 740.965 1216.98 Q745.325 1221.95 745.325 1230.73 Q745.325 1239.49 740.965 1244.48 Q736.604 1249.45 728.965 1249.45 Q721.295 1249.45 716.934 1244.48 Q712.605 1239.49 712.605 1230.73 Q712.605 1221.95 716.934 1216.98 Q721.295 1212.02 728.965 1212.02 Z" fill="#000000" fill-rule="evenodd" fill-opacity="1" /><path clip-path="url(#clip650)" d="M784.665 1227.01 L784.665 1248.53 L778.809 1248.53 L778.809 1227.2 Q778.809 1222.14 776.835 1219.63 Q774.862 1217.11 770.915 1217.11 Q766.173 1217.11 763.436 1220.14 Q760.698 1223.16 760.698 1228.38 L760.698 1248.53 L754.81 1248.53 L754.81 1212.88 L760.698 1212.88 L760.698 1218.42 Q762.799 1215.2 765.632 1213.61 Q768.496 1212.02 772.22 1212.02 Q778.363 1212.02 781.514 1215.84 Q784.665 1219.63 784.665 1227.01 Z" fill="#000000" fill-rule="evenodd" fill-opacity="1" /><path clip-path="url(#clip650)" d="M839.792 1213.93 L839.792 1219.47 Q837.31 1218.19 834.636 1217.56 Q831.962 1216.92 829.098 1216.92 Q824.737 1216.92 822.541 1218.26 Q820.377 1219.59 820.377 1222.27 Q820.377 1224.31 821.936 1225.48 Q823.496 1226.63 828.207 1227.68 L830.212 1228.12 Q836.45 1229.46 839.06 1231.91 Q841.702 1234.33 841.702 1238.69 Q841.702 1243.66 837.755 1246.55 Q833.84 1249.45 826.965 1249.45 Q824.101 1249.45 820.982 1248.88 Q817.894 1248.34 814.457 1247.22 L814.457 1241.17 Q817.703 1242.86 820.854 1243.72 Q824.005 1244.55 827.093 1244.55 Q831.23 1244.55 833.458 1243.15 Q835.686 1241.72 835.686 1239.14 Q835.686 1236.75 834.063 1235.48 Q832.472 1234.2 827.029 1233.03 L824.992 1232.55 Q819.549 1231.4 817.13 1229.05 Q814.711 1226.66 814.711 1222.52 Q814.711 1217.49 818.276 1214.76 Q821.841 1212.02 828.398 1212.02 Q831.644 1212.02 834.509 1212.5 Q837.373 1212.97 839.792 1213.93 Z" fill="#000000" fill-rule="evenodd" fill-opacity="1" /><path clip-path="url(#clip650)" d="M881.519 1229.24 L881.519 1232.1 L854.592 1232.1 Q854.974 1238.15 858.221 1241.33 Q861.499 1244.48 867.324 1244.48 Q870.698 1244.48 873.849 1243.66 Q877.032 1242.83 880.151 1241.17 L880.151 1246.71 Q877 1248.05 873.69 1248.75 Q870.379 1249.45 866.974 1249.45 Q858.444 1249.45 853.447 1244.48 Q848.481 1239.52 848.481 1231.05 Q848.481 1222.3 853.192 1217.18 Q857.934 1212.02 865.955 1212.02 Q873.148 1212.02 877.318 1216.67 Q881.519 1221.28 881.519 1229.24 M875.663 1227.52 Q875.599 1222.71 872.957 1219.85 Q870.348 1216.98 866.019 1216.98 Q861.117 1216.98 858.157 1219.75 Q855.229 1222.52 854.783 1227.55 L875.663 1227.52 Z" fill="#000000" fill-rule="evenodd" fill-opacity="1" /><path clip-path="url(#clip650)" d="M918.886 1219.72 Q921.082 1215.78 924.138 1213.9 Q927.193 1212.02 931.331 1212.02 Q936.901 1212.02 939.925 1215.93 Q942.948 1219.82 942.948 1227.01 L942.948 1248.53 L937.06 1248.53 L937.06 1227.2 Q937.06 1222.08 935.246 1219.59 Q933.432 1217.11 929.708 1217.11 Q925.156 1217.11 922.515 1220.14 Q919.873 1223.16 919.873 1228.38 L919.873 1248.53 L913.984 1248.53 L913.984 1227.2 Q913.984 1222.05 912.17 1219.59 Q910.356 1217.11 906.568 1217.11 Q902.081 1217.11 899.439 1220.17 Q896.797 1223.19 896.797 1228.38 L896.797 1248.53 L890.909 1248.53 L890.909 1212.88 L896.797 1212.88 L896.797 1218.42 Q898.802 1215.14 901.603 1213.58 Q904.404 1212.02 908.255 1212.02 Q912.138 1212.02 914.844 1213.99 Q917.581 1215.97 918.886 1219.72 Z" fill="#000000" fill-rule="evenodd" fill-opacity="1" /><path clip-path="url(#clip650)" d="M970.83 1230.61 Q963.732 1230.61 960.995 1232.23 Q958.258 1233.85 958.258 1237.77 Q958.258 1240.89 960.295 1242.73 Q962.364 1244.55 965.897 1244.55 Q970.767 1244.55 973.695 1241.11 Q976.655 1237.64 976.655 1231.91 L976.655 1230.61 L970.83 1230.61 M982.511 1228.19 L982.511 1248.53 L976.655 1248.53 L976.655 1243.12 Q974.65 1246.36 971.658 1247.92 Q968.666 1249.45 964.337 1249.45 Q958.863 1249.45 955.616 1246.39 Q952.402 1243.31 952.402 1238.15 Q952.402 1232.14 956.412 1229.08 Q960.454 1226.02 968.443 1226.02 L976.655 1226.02 L976.655 1225.45 Q976.655 1221.41 973.981 1219.21 Q971.339 1216.98 966.533 1216.98 Q963.478 1216.98 960.581 1217.72 Q957.685 1218.45 955.011 1219.91 L955.011 1214.5 Q958.226 1213.26 961.25 1212.66 Q964.274 1212.02 967.138 1212.02 Q974.872 1212.02 978.692 1216.03 Q982.511 1220.04 982.511 1228.19 Z" fill="#000000" fill-rule="evenodd" fill-opacity="1" /><path clip-path="url(#clip650)" d="M1024.21 1227.01 L1024.21 1248.53 L1018.35 1248.53 L1018.35 1227.2 Q1018.35 1222.14 1016.38 1219.63 Q1014.4 1217.11 1010.46 1217.11 Q1005.71 1217.11 1002.98 1220.14 Q1000.24 1223.16 1000.24 1228.38 L1000.24 1248.53 L994.352 1248.53 L994.352 1212.88 L1000.24 1212.88 L1000.24 1218.42 Q1002.34 1215.2 1005.17 1213.61 Q1008.04 1212.02 1011.76 1212.02 Q1017.9 1212.02 1021.06 1215.84 Q1024.21 1219.63 1024.21 1227.01 Z" fill="#000000" fill-rule="evenodd" fill-opacity="1" /><path clip-path="url(#clip650)" d="M1041.68 1202.76 L1041.68 1212.88 L1053.74 1212.88 L1053.74 1217.43 L1041.68 1217.43 L1041.68 1236.78 Q1041.68 1241.14 1042.86 1242.38 Q1044.07 1243.63 1047.73 1243.63 L1053.74 1243.63 L1053.74 1248.53 L1047.73 1248.53 Q1040.95 1248.53 1038.37 1246.01 Q1035.79 1243.47 1035.79 1236.78 L1035.79 1217.43 L1031.5 1217.43 L1031.5 1212.88 L1035.79 1212.88 L1035.79 1202.76 L1041.68 1202.76 Z" fill="#000000" fill-rule="evenodd" fill-opacity="1" /><path clip-path="url(#clip650)" d="M1061.45 1212.88 L1067.3 1212.88 L1067.3 1248.53 L1061.45 1248.53 L1061.45 1212.88 M1061.45 1199 L1067.3 1199 L1067.3 1206.42 L1061.45 1206.42 L1061.45 1199 Z" fill="#000000" fill-rule="evenodd" fill-opacity="1" /><path clip-path="url(#clip650)" d="M1105.21 1214.25 L1105.21 1219.72 Q1102.73 1218.35 1100.21 1217.69 Q1097.73 1216.98 1095.18 1216.98 Q1089.49 1216.98 1086.34 1220.61 Q1083.18 1224.21 1083.18 1230.73 Q1083.18 1237.26 1086.34 1240.89 Q1089.49 1244.48 1095.18 1244.48 Q1097.73 1244.48 1100.21 1243.82 Q1102.73 1243.12 1105.21 1241.75 L1105.21 1247.16 Q1102.76 1248.3 1100.12 1248.88 Q1097.51 1249.45 1094.55 1249.45 Q1086.5 1249.45 1081.75 1244.39 Q1077.01 1239.33 1077.01 1230.73 Q1077.01 1222.01 1081.78 1217.02 Q1086.59 1212.02 1094.93 1212.02 Q1097.64 1212.02 1100.21 1212.59 Q1102.79 1213.13 1105.21 1214.25 Z" fill="#000000" fill-rule="evenodd" fill-opacity="1" /><path clip-path="url(#clip650)" d="M1141.91 1202.76 L1141.91 1212.88 L1153.97 1212.88 L1153.97 1217.43 L1141.91 1217.43 L1141.91 1236.78 Q1141.91 1241.14 1143.09 1242.38 Q1144.3 1243.63 1147.96 1243.63 L1153.97 1243.63 L1153.97 1248.53 L1147.96 1248.53 Q1141.18 1248.53 1138.6 1246.01 Q1136.02 1243.47 1136.02 1236.78 L1136.02 1217.43 L1131.72 1217.43 L1131.72 1212.88 L1136.02 1212.88 L1136.02 1202.76 L1141.91 1202.76 Z" fill="#000000" fill-rule="evenodd" fill-opacity="1" /><path clip-path="url(#clip650)" d="M1177.87 1230.61 Q1170.78 1230.61 1168.04 1232.23 Q1165.3 1233.85 1165.3 1237.77 Q1165.3 1240.89 1167.34 1242.73 Q1169.41 1244.55 1172.94 1244.55 Q1177.81 1244.55 1180.74 1241.11 Q1183.7 1237.64 1183.7 1231.91 L1183.7 1230.61 L1177.87 1230.61 M1189.56 1228.19 L1189.56 1248.53 L1183.7 1248.53 L1183.7 1243.12 Q1181.69 1246.36 1178.7 1247.92 Q1175.71 1249.45 1171.38 1249.45 Q1165.91 1249.45 1162.66 1246.39 Q1159.45 1243.31 1159.45 1238.15 Q1159.45 1232.14 1163.46 1229.08 Q1167.5 1226.02 1175.49 1226.02 L1183.7 1226.02 L1183.7 1225.45 Q1183.7 1221.41 1181.03 1219.21 Q1178.38 1216.98 1173.58 1216.98 Q1170.52 1216.98 1167.63 1217.72 Q1164.73 1218.45 1162.06 1219.91 L1162.06 1214.5 Q1165.27 1213.26 1168.29 1212.66 Q1171.32 1212.02 1174.18 1212.02 Q1181.92 1212.02 1185.74 1216.03 Q1189.56 1220.04 1189.56 1228.19 Z" fill="#000000" fill-rule="evenodd" fill-opacity="1" /><path clip-path="url(#clip650)" d="M1224.34 1213.93 L1224.34 1219.47 Q1221.86 1218.19 1219.19 1217.56 Q1216.51 1216.92 1213.65 1216.92 Q1209.29 1216.92 1207.09 1218.26 Q1204.93 1219.59 1204.93 1222.27 Q1204.93 1224.31 1206.49 1225.48 Q1208.05 1226.63 1212.76 1227.68 L1214.76 1228.12 Q1221 1229.46 1223.61 1231.91 Q1226.25 1234.33 1226.25 1238.69 Q1226.25 1243.66 1222.31 1246.55 Q1218.39 1249.45 1211.52 1249.45 Q1208.65 1249.45 1205.53 1248.88 Q1202.45 1248.34 1199.01 1247.22 L1199.01 1241.17 Q1202.26 1242.86 1205.41 1243.72 Q1208.56 1244.55 1211.64 1244.55 Q1215.78 1244.55 1218.01 1243.15 Q1220.24 1241.72 1220.24 1239.14 Q1220.24 1236.75 1218.62 1235.48 Q1217.02 1234.2 1211.58 1233.03 L1209.54 1232.55 Q1204.1 1231.4 1201.68 1229.05 Q1199.26 1226.66 1199.26 1222.52 Q1199.26 1217.49 1202.83 1214.76 Q1206.39 1212.02 1212.95 1212.02 Q1216.2 1212.02 1219.06 1212.5 Q1221.93 1212.97 1224.34 1213.93 Z" fill="#000000" fill-rule="evenodd" fill-opacity="1" /><path clip-path="url(#clip650)" d="M1235.36 1199 L1241.25 1199 L1241.25 1228.25 L1258.72 1212.88 L1266.2 1212.88 L1247.29 1229.56 L1266.99 1248.53 L1259.36 1248.53 L1241.25 1231.12 L1241.25 1248.53 L1235.36 1248.53 L1235.36 1199 Z" fill="#000000" fill-rule="evenodd" fill-opacity="1" /><polyline clip-path="url(#clip652)" style="stroke:#000000; stroke-linecap:butt; stroke-linejoin:round; stroke-width:2; stroke-opacity:0.1; fill:none" points="
  243.641,1079.59 1358.41,1079.59 
  "/>
<polyline clip-path="url(#clip652)" style="stroke:#000000; stroke-linecap:butt; stroke-linejoin:round; stroke-width:2; stroke-opacity:0.1; fill:none" points="
  243.641,829.024 1358.41,829.024 
  "/>
<polyline clip-path="url(#clip652)" style="stroke:#000000; stroke-linecap:butt; stroke-linejoin:round; stroke-width:2; stroke-opacity:0.1; fill:none" points="
  243.641,578.454 1358.41,578.454 
  "/>
<polyline clip-path="url(#clip652)" style="stroke:#000000; stroke-linecap:butt; stroke-linejoin:round; stroke-width:2; stroke-opacity:0.1; fill:none" points="
  243.641,327.883 1358.41,327.883 
  "/>
<polyline clip-path="url(#clip652)" style="stroke:#000000; stroke-linecap:butt; stroke-linejoin:round; stroke-width:2; stroke-opacity:0.1; fill:none" points="
  243.641,77.3126 1358.41,77.3126 
  "/>
<polyline clip-path="url(#clip650)" style="stroke:#000000; stroke-linecap:butt; stroke-linejoin:round; stroke-width:4; stroke-opacity:1; fill:none" points="
  243.641,1109.66 243.641,47.2441 
  "/>
<polyline clip-path="url(#clip650)" style="stroke:#000000; stroke-linecap:butt; stroke-linejoin:round; stroke-width:4; stroke-opacity:1; fill:none" points="
  243.641,1079.59 257.018,1079.59 
  "/>
<polyline clip-path="url(#clip650)" style="stroke:#000000; stroke-linecap:butt; stroke-linejoin:round; stroke-width:4; stroke-opacity:1; fill:none" points="
  243.641,829.024 257.018,829.024 
  "/>
<polyline clip-path="url(#clip650)" style="stroke:#000000; stroke-linecap:butt; stroke-linejoin:round; stroke-width:4; stroke-opacity:1; fill:none" points="
  243.641,578.454 257.018,578.454 
  "/>
<polyline clip-path="url(#clip650)" style="stroke:#000000; stroke-linecap:butt; stroke-linejoin:round; stroke-width:4; stroke-opacity:1; fill:none" points="
  243.641,327.883 257.018,327.883 
  "/>
<polyline clip-path="url(#clip650)" style="stroke:#000000; stroke-linecap:butt; stroke-linejoin:round; stroke-width:4; stroke-opacity:1; fill:none" points="
  243.641,77.3126 257.018,77.3126 
  "/>
<path clip-path="url(#clip650)" d="M126.304 1065.39 Q122.693 1065.39 120.864 1068.96 Q119.058 1072.5 119.058 1079.63 Q119.058 1086.74 120.864 1090.3 Q122.693 1093.84 126.304 1093.84 Q129.938 1093.84 131.744 1090.3 Q133.572 1086.74 133.572 1079.63 Q133.572 1072.5 131.744 1068.96 Q129.938 1065.39 126.304 1065.39 M126.304 1061.69 Q132.114 1061.69 135.169 1066.3 Q138.248 1070.88 138.248 1079.63 Q138.248 1088.36 135.169 1092.96 Q132.114 1097.55 126.304 1097.55 Q120.494 1097.55 117.415 1092.96 Q114.359 1088.36 114.359 1079.63 Q114.359 1070.88 117.415 1066.3 Q120.494 1061.69 126.304 1061.69 Z" fill="#000000" fill-rule="evenodd" fill-opacity="1" /><path clip-path="url(#clip650)" d="M146.466 1090.99 L151.35 1090.99 L151.35 1096.87 L146.466 1096.87 L146.466 1090.99 Z" fill="#000000" fill-rule="evenodd" fill-opacity="1" /><path clip-path="url(#clip650)" d="M171.535 1065.39 Q167.924 1065.39 166.095 1068.96 Q164.29 1072.5 164.29 1079.63 Q164.29 1086.74 166.095 1090.3 Q167.924 1093.84 171.535 1093.84 Q175.169 1093.84 176.975 1090.3 Q178.803 1086.74 178.803 1079.63 Q178.803 1072.5 176.975 1068.96 Q175.169 1065.39 171.535 1065.39 M171.535 1061.69 Q177.345 1061.69 180.401 1066.3 Q183.479 1070.88 183.479 1079.63 Q183.479 1088.36 180.401 1092.96 Q177.345 1097.55 171.535 1097.55 Q165.725 1097.55 162.646 1092.96 Q159.591 1088.36 159.591 1079.63 Q159.591 1070.88 162.646 1066.3 Q165.725 1061.69 171.535 1061.69 Z" fill="#000000" fill-rule="evenodd" fill-opacity="1" /><path clip-path="url(#clip650)" d="M201.697 1065.39 Q198.086 1065.39 196.257 1068.96 Q194.452 1072.5 194.452 1079.63 Q194.452 1086.74 196.257 1090.3 Q198.086 1093.84 201.697 1093.84 Q205.331 1093.84 207.137 1090.3 Q208.965 1086.74 208.965 1079.63 Q208.965 1072.5 207.137 1068.96 Q205.331 1065.39 201.697 1065.39 M201.697 1061.69 Q207.507 1061.69 210.563 1066.3 Q213.641 1070.88 213.641 1079.63 Q213.641 1088.36 210.563 1092.96 Q207.507 1097.55 201.697 1097.55 Q195.887 1097.55 192.808 1092.96 Q189.752 1088.36 189.752 1079.63 Q189.752 1070.88 192.808 1066.3 Q195.887 1061.69 201.697 1061.69 Z" fill="#000000" fill-rule="evenodd" fill-opacity="1" /><path clip-path="url(#clip650)" d="M127.299 814.823 Q123.688 814.823 121.859 818.388 Q120.054 821.929 120.054 829.059 Q120.054 836.165 121.859 839.73 Q123.688 843.272 127.299 843.272 Q130.933 843.272 132.739 839.73 Q134.568 836.165 134.568 829.059 Q134.568 821.929 132.739 818.388 Q130.933 814.823 127.299 814.823 M127.299 811.119 Q133.109 811.119 136.165 815.726 Q139.243 820.309 139.243 829.059 Q139.243 837.786 136.165 842.392 Q133.109 846.975 127.299 846.975 Q121.489 846.975 118.41 842.392 Q115.355 837.786 115.355 829.059 Q115.355 820.309 118.41 815.726 Q121.489 811.119 127.299 811.119 Z" fill="#000000" fill-rule="evenodd" fill-opacity="1" /><path clip-path="url(#clip650)" d="M147.461 840.424 L152.345 840.424 L152.345 846.304 L147.461 846.304 L147.461 840.424 Z" fill="#000000" fill-rule="evenodd" fill-opacity="1" /><path clip-path="url(#clip650)" d="M166.558 842.369 L182.878 842.369 L182.878 846.304 L160.933 846.304 L160.933 842.369 Q163.595 839.614 168.179 834.985 Q172.785 830.332 173.966 828.989 Q176.211 826.466 177.091 824.73 Q177.993 822.971 177.993 821.281 Q177.993 818.526 176.049 816.79 Q174.128 815.054 171.026 815.054 Q168.827 815.054 166.373 815.818 Q163.942 816.582 161.165 818.133 L161.165 813.411 Q163.989 812.276 166.442 811.698 Q168.896 811.119 170.933 811.119 Q176.303 811.119 179.498 813.804 Q182.692 816.489 182.692 820.98 Q182.692 823.11 181.882 825.031 Q181.095 826.929 178.989 829.522 Q178.41 830.193 175.308 833.411 Q172.206 836.605 166.558 842.369 Z" fill="#000000" fill-rule="evenodd" fill-opacity="1" /><path clip-path="url(#clip650)" d="M192.739 811.744 L211.095 811.744 L211.095 815.679 L197.021 815.679 L197.021 824.151 Q198.039 823.804 199.058 823.642 Q200.076 823.457 201.095 823.457 Q206.882 823.457 210.262 826.628 Q213.641 829.8 213.641 835.216 Q213.641 840.795 210.169 843.897 Q206.697 846.975 200.377 846.975 Q198.202 846.975 195.933 846.605 Q193.688 846.235 191.28 845.494 L191.28 840.795 Q193.364 841.929 195.586 842.485 Q197.808 843.04 200.285 843.04 Q204.289 843.04 206.627 840.934 Q208.965 838.827 208.965 835.216 Q208.965 831.605 206.627 829.499 Q204.289 827.392 200.285 827.392 Q198.41 827.392 196.535 827.809 Q194.683 828.225 192.739 829.105 L192.739 811.744 Z" fill="#000000" fill-rule="evenodd" fill-opacity="1" /><path clip-path="url(#clip650)" d="M126.304 564.252 Q122.693 564.252 120.864 567.817 Q119.058 571.359 119.058 578.488 Q119.058 585.595 120.864 589.16 Q122.693 592.701 126.304 592.701 Q129.938 592.701 131.744 589.16 Q133.572 585.595 133.572 578.488 Q133.572 571.359 131.744 567.817 Q129.938 564.252 126.304 564.252 M126.304 560.549 Q132.114 560.549 135.169 565.155 Q138.248 569.738 138.248 578.488 Q138.248 587.215 135.169 591.822 Q132.114 596.405 126.304 596.405 Q120.494 596.405 117.415 591.822 Q114.359 587.215 114.359 578.488 Q114.359 569.738 117.415 565.155 Q120.494 560.549 126.304 560.549 Z" fill="#000000" fill-rule="evenodd" fill-opacity="1" /><path clip-path="url(#clip650)" d="M146.466 589.854 L151.35 589.854 L151.35 595.734 L146.466 595.734 L146.466 589.854 Z" fill="#000000" fill-rule="evenodd" fill-opacity="1" /><path clip-path="url(#clip650)" d="M161.581 561.174 L179.938 561.174 L179.938 565.109 L165.864 565.109 L165.864 573.581 Q166.882 573.234 167.901 573.072 Q168.919 572.886 169.938 572.886 Q175.725 572.886 179.104 576.058 Q182.484 579.229 182.484 584.646 Q182.484 590.224 179.012 593.326 Q175.54 596.405 169.22 596.405 Q167.044 596.405 164.776 596.034 Q162.53 595.664 160.123 594.923 L160.123 590.224 Q162.206 591.359 164.429 591.914 Q166.651 592.47 169.128 592.47 Q173.132 592.47 175.47 590.363 Q177.808 588.257 177.808 584.646 Q177.808 581.035 175.47 578.928 Q173.132 576.822 169.128 576.822 Q167.253 576.822 165.378 577.238 Q163.526 577.655 161.581 578.535 L161.581 561.174 Z" fill="#000000" fill-rule="evenodd" fill-opacity="1" /><path clip-path="url(#clip650)" d="M201.697 564.252 Q198.086 564.252 196.257 567.817 Q194.452 571.359 194.452 578.488 Q194.452 585.595 196.257 589.16 Q198.086 592.701 201.697 592.701 Q205.331 592.701 207.137 589.16 Q208.965 585.595 208.965 578.488 Q208.965 571.359 207.137 567.817 Q205.331 564.252 201.697 564.252 M201.697 560.549 Q207.507 560.549 210.563 565.155 Q213.641 569.738 213.641 578.488 Q213.641 587.215 210.563 591.822 Q207.507 596.405 201.697 596.405 Q195.887 596.405 192.808 591.822 Q189.752 587.215 189.752 578.488 Q189.752 569.738 192.808 565.155 Q195.887 560.549 201.697 560.549 Z" fill="#000000" fill-rule="evenodd" fill-opacity="1" /><path clip-path="url(#clip650)" d="M127.299 313.682 Q123.688 313.682 121.859 317.247 Q120.054 320.788 120.054 327.918 Q120.054 335.024 121.859 338.589 Q123.688 342.131 127.299 342.131 Q130.933 342.131 132.739 338.589 Q134.568 335.024 134.568 327.918 Q134.568 320.788 132.739 317.247 Q130.933 313.682 127.299 313.682 M127.299 309.978 Q133.109 309.978 136.165 314.585 Q139.243 319.168 139.243 327.918 Q139.243 336.645 136.165 341.251 Q133.109 345.834 127.299 345.834 Q121.489 345.834 118.41 341.251 Q115.355 336.645 115.355 327.918 Q115.355 319.168 118.41 314.585 Q121.489 309.978 127.299 309.978 Z" fill="#000000" fill-rule="evenodd" fill-opacity="1" /><path clip-path="url(#clip650)" d="M147.461 339.283 L152.345 339.283 L152.345 345.163 L147.461 345.163 L147.461 339.283 Z" fill="#000000" fill-rule="evenodd" fill-opacity="1" /><path clip-path="url(#clip650)" d="M161.35 310.603 L183.572 310.603 L183.572 312.594 L171.026 345.163 L166.141 345.163 L177.947 314.538 L161.35 314.538 L161.35 310.603 Z" fill="#000000" fill-rule="evenodd" fill-opacity="1" /><path clip-path="url(#clip650)" d="M192.739 310.603 L211.095 310.603 L211.095 314.538 L197.021 314.538 L197.021 323.01 Q198.039 322.663 199.058 322.501 Q200.076 322.316 201.095 322.316 Q206.882 322.316 210.262 325.487 Q213.641 328.659 213.641 334.075 Q213.641 339.654 210.169 342.756 Q206.697 345.834 200.377 345.834 Q198.202 345.834 195.933 345.464 Q193.688 345.094 191.28 344.353 L191.28 339.654 Q193.364 340.788 195.586 341.344 Q197.808 341.899 200.285 341.899 Q204.289 341.899 206.627 339.793 Q208.965 337.686 208.965 334.075 Q208.965 330.464 206.627 328.358 Q204.289 326.251 200.285 326.251 Q198.41 326.251 196.535 326.668 Q194.683 327.084 192.739 327.964 L192.739 310.603 Z" fill="#000000" fill-rule="evenodd" fill-opacity="1" /><path clip-path="url(#clip650)" d="M117.114 90.6574 L124.753 90.6574 L124.753 64.2918 L116.443 65.9584 L116.443 61.6992 L124.707 60.0326 L129.382 60.0326 L129.382 90.6574 L137.021 90.6574 L137.021 94.5926 L117.114 94.5926 L117.114 90.6574 Z" fill="#000000" fill-rule="evenodd" fill-opacity="1" /><path clip-path="url(#clip650)" d="M146.466 88.713 L151.35 88.713 L151.35 94.5926 L146.466 94.5926 L146.466 88.713 Z" fill="#000000" fill-rule="evenodd" fill-opacity="1" /><path clip-path="url(#clip650)" d="M171.535 63.1112 Q167.924 63.1112 166.095 66.676 Q164.29 70.2177 164.29 77.3473 Q164.29 84.4537 166.095 88.0185 Q167.924 91.5602 171.535 91.5602 Q175.169 91.5602 176.975 88.0185 Q178.803 84.4537 178.803 77.3473 Q178.803 70.2177 176.975 66.676 Q175.169 63.1112 171.535 63.1112 M171.535 59.4076 Q177.345 59.4076 180.401 64.014 Q183.479 68.5973 183.479 77.3473 Q183.479 86.0741 180.401 90.6805 Q177.345 95.2638 171.535 95.2638 Q165.725 95.2638 162.646 90.6805 Q159.591 86.0741 159.591 77.3473 Q159.591 68.5973 162.646 64.014 Q165.725 59.4076 171.535 59.4076 Z" fill="#000000" fill-rule="evenodd" fill-opacity="1" /><path clip-path="url(#clip650)" d="M201.697 63.1112 Q198.086 63.1112 196.257 66.676 Q194.452 70.2177 194.452 77.3473 Q194.452 84.4537 196.257 88.0185 Q198.086 91.5602 201.697 91.5602 Q205.331 91.5602 207.137 88.0185 Q208.965 84.4537 208.965 77.3473 Q208.965 70.2177 207.137 66.676 Q205.331 63.1112 201.697 63.1112 M201.697 59.4076 Q207.507 59.4076 210.563 64.014 Q213.641 68.5973 213.641 77.3473 Q213.641 86.0741 210.563 90.6805 Q207.507 95.2638 201.697 95.2638 Q195.887 95.2638 192.808 90.6805 Q189.752 86.0741 189.752 77.3473 Q189.752 68.5973 192.808 64.014 Q195.887 59.4076 201.697 59.4076 Z" fill="#000000" fill-rule="evenodd" fill-opacity="1" /><path clip-path="url(#clip650)" d="M39.9299 845.32 Q39.357 846.307 39.1024 847.484 Q38.8159 848.63 38.8159 850.031 Q38.8159 854.996 42.0624 857.669 Q45.2771 860.311 51.3245 860.311 L70.1034 860.311 L70.1034 866.199 L34.4554 866.199 L34.4554 860.311 L39.9936 860.311 Q36.7471 858.465 35.1875 855.505 Q33.596 852.545 33.596 848.312 Q33.596 847.707 33.6915 846.975 Q33.7552 846.243 33.9143 845.352 L39.9299 845.32 Z" fill="#000000" fill-rule="evenodd" fill-opacity="1" /><path clip-path="url(#clip650)" d="M52.1839 822.976 Q52.1839 830.074 53.8071 832.811 Q55.4304 835.549 59.3453 835.549 Q62.4645 835.549 64.3106 833.512 Q66.1248 831.443 66.1248 827.91 Q66.1248 823.04 62.6873 820.112 Q59.218 817.152 53.4889 817.152 L52.1839 817.152 L52.1839 822.976 M49.7649 811.295 L70.1034 811.295 L70.1034 817.152 L64.6925 817.152 Q67.939 819.157 69.4986 822.149 Q71.0264 825.141 71.0264 829.469 Q71.0264 834.944 67.9708 838.19 Q64.8835 841.405 59.7273 841.405 Q53.7117 841.405 50.6561 837.395 Q47.6006 833.352 47.6006 825.363 L47.6006 817.152 L47.0277 817.152 Q42.9854 817.152 40.7893 819.825 Q38.5613 822.467 38.5613 827.273 Q38.5613 830.329 39.2933 833.225 Q40.0254 836.121 41.4895 838.795 L36.0787 838.795 Q34.8373 835.58 34.2326 832.557 Q33.596 829.533 33.596 826.668 Q33.596 818.934 37.6064 815.115 Q41.6168 811.295 49.7649 811.295 Z" fill="#000000" fill-rule="evenodd" fill-opacity="1" /><path clip-path="url(#clip650)" d="M24.3339 793.439 L34.4554 793.439 L34.4554 781.376 L39.0069 781.376 L39.0069 793.439 L58.3586 793.439 Q62.7191 793.439 63.9605 792.262 Q65.2018 791.052 65.2018 787.392 L65.2018 781.376 L70.1034 781.376 L70.1034 787.392 Q70.1034 794.171 67.5889 796.75 Q65.0426 799.328 58.3586 799.328 L39.0069 799.328 L39.0069 803.625 L34.4554 803.625 L34.4554 799.328 L24.3339 799.328 L24.3339 793.439 Z" fill="#000000" fill-rule="evenodd" fill-opacity="1" /><path clip-path="url(#clip650)" d="M34.4554 773.674 L34.4554 767.817 L70.1034 767.817 L70.1034 773.674 L34.4554 773.674 M20.5782 773.674 L20.5782 767.817 L27.9942 767.817 L27.9942 773.674 L20.5782 773.674 Z" fill="#000000" fill-rule="evenodd" fill-opacity="1" /><path clip-path="url(#clip650)" d="M38.5613 741.75 Q38.5613 746.46 42.2534 749.198 Q45.9137 751.935 52.3112 751.935 Q58.7087 751.935 62.4009 749.23 Q66.0611 746.492 66.0611 741.75 Q66.0611 737.071 62.369 734.334 Q58.6769 731.597 52.3112 731.597 Q45.9773 731.597 42.2852 734.334 Q38.5613 737.071 38.5613 741.75 M33.596 741.75 Q33.596 734.111 38.5613 729.751 Q43.5265 725.39 52.3112 725.39 Q61.0641 725.39 66.0611 729.751 Q71.0264 734.111 71.0264 741.75 Q71.0264 749.421 66.0611 753.781 Q61.0641 758.11 52.3112 758.11 Q43.5265 758.11 38.5613 753.781 Q33.596 749.421 33.596 741.75 Z" fill="#000000" fill-rule="evenodd" fill-opacity="1" /><path clip-path="url(#clip650)" d="M38.5613 681.148 Q38.5613 685.859 42.2534 688.596 Q45.9137 691.333 52.3112 691.333 Q58.7087 691.333 62.4009 688.628 Q66.0611 685.891 66.0611 681.148 Q66.0611 676.47 62.369 673.732 Q58.6769 670.995 52.3112 670.995 Q45.9773 670.995 42.2852 673.732 Q38.5613 676.47 38.5613 681.148 M33.596 681.148 Q33.596 673.509 38.5613 669.149 Q43.5265 664.788 52.3112 664.788 Q61.0641 664.788 66.0611 669.149 Q71.0264 673.509 71.0264 681.148 Q71.0264 688.819 66.0611 693.18 Q61.0641 697.508 52.3112 697.508 Q43.5265 697.508 38.5613 693.18 Q33.596 688.819 33.596 681.148 Z" fill="#000000" fill-rule="evenodd" fill-opacity="1" /><path clip-path="url(#clip650)" d="M20.5782 637.034 L25.4479 637.034 L25.4479 642.636 Q25.4479 645.787 26.7211 647.028 Q27.9942 648.238 31.3044 648.238 L34.4554 648.238 L34.4554 638.594 L39.0069 638.594 L39.0069 648.238 L70.1034 648.238 L70.1034 654.126 L39.0069 654.126 L39.0069 659.728 L34.4554 659.728 L34.4554 654.126 L31.9728 654.126 Q26.0208 654.126 23.3154 651.357 Q20.5782 648.588 20.5782 642.572 L20.5782 637.034 Z" fill="#000000" fill-rule="evenodd" fill-opacity="1" /><path clip-path="url(#clip650)" d="M39.9299 590.755 Q39.357 591.742 39.1024 592.92 Q38.8159 594.065 38.8159 595.466 Q38.8159 600.431 42.0624 603.105 Q45.2771 605.747 51.3245 605.747 L70.1034 605.747 L70.1034 611.635 L34.4554 611.635 L34.4554 605.747 L39.9936 605.747 Q36.7471 603.9 35.1875 600.94 Q33.596 597.98 33.596 593.747 Q33.596 593.142 33.6915 592.41 Q33.7552 591.678 33.9143 590.787 L39.9299 590.755 Z" fill="#000000" fill-rule="evenodd" fill-opacity="1" /><path clip-path="url(#clip650)" d="M50.8153 555.553 L53.6798 555.553 L53.6798 582.48 Q59.7273 582.098 62.9101 578.851 Q66.0611 575.573 66.0611 569.748 Q66.0611 566.375 65.2336 563.224 Q64.4061 560.041 62.751 556.922 L68.2891 556.922 Q69.6259 560.073 70.3262 563.383 Q71.0264 566.693 71.0264 570.099 Q71.0264 578.629 66.0611 583.626 Q61.0959 588.591 52.6295 588.591 Q43.8766 588.591 38.7523 583.88 Q33.596 579.138 33.596 571.117 Q33.596 563.924 38.243 559.754 Q42.8581 555.553 50.8153 555.553 M49.0965 561.409 Q44.2904 561.473 41.4258 564.115 Q38.5613 566.725 38.5613 571.053 Q38.5613 575.955 41.3304 578.915 Q44.0994 581.843 49.1284 582.289 L49.0965 561.409 Z" fill="#000000" fill-rule="evenodd" fill-opacity="1" /><path clip-path="url(#clip650)" d="M35.5057 523.215 L41.0439 523.215 Q39.7708 525.698 39.1342 528.371 Q38.4976 531.045 38.4976 533.91 Q38.4976 538.27 39.8344 540.466 Q41.1712 542.631 43.8448 542.631 Q45.8818 542.631 47.0595 541.071 Q48.2053 539.511 49.2557 534.801 L49.7013 532.796 Q51.0381 526.557 53.4889 523.947 Q55.9078 521.305 60.2683 521.305 Q65.2336 521.305 68.13 525.252 Q71.0264 529.167 71.0264 536.042 Q71.0264 538.907 70.4535 542.026 Q69.9124 545.113 68.7984 548.551 L62.751 548.551 Q64.4379 545.304 65.2972 542.153 Q66.1248 539.002 66.1248 535.915 Q66.1248 531.777 64.7243 529.549 Q63.2921 527.321 60.7139 527.321 Q58.3268 527.321 57.0537 528.944 Q55.7805 530.536 54.6029 535.978 L54.1254 538.015 Q52.9796 543.458 50.6243 545.877 Q48.2372 548.296 44.0994 548.296 Q39.0705 548.296 36.3333 544.731 Q33.596 541.166 33.596 534.61 Q33.596 531.363 34.0735 528.499 Q34.5509 525.634 35.5057 523.215 Z" fill="#000000" fill-rule="evenodd" fill-opacity="1" /><path clip-path="url(#clip650)" d="M64.7562 506.314 L83.6623 506.314 L83.6623 512.202 L34.4554 512.202 L34.4554 506.314 L39.8663 506.314 Q36.6834 504.468 35.1556 501.667 Q33.596 498.834 33.596 494.92 Q33.596 488.427 38.7523 484.384 Q43.9085 480.31 52.3112 480.31 Q60.7139 480.31 65.8702 484.384 Q71.0264 488.427 71.0264 494.92 Q71.0264 498.834 69.4986 501.667 Q67.939 504.468 64.7562 506.314 M52.3112 486.39 Q45.85 486.39 42.1897 489.063 Q38.4976 491.705 38.4976 496.352 Q38.4976 500.999 42.1897 503.672 Q45.85 506.314 52.3112 506.314 Q58.7724 506.314 62.4645 503.672 Q66.1248 500.999 66.1248 496.352 Q66.1248 491.705 62.4645 489.063 Q58.7724 486.39 52.3112 486.39 Z" fill="#000000" fill-rule="evenodd" fill-opacity="1" /><path clip-path="url(#clip650)" d="M38.5613 456.789 Q38.5613 461.5 42.2534 464.237 Q45.9137 466.974 52.3112 466.974 Q58.7087 466.974 62.4009 464.269 Q66.0611 461.531 66.0611 456.789 Q66.0611 452.11 62.369 449.373 Q58.6769 446.636 52.3112 446.636 Q45.9773 446.636 42.2852 449.373 Q38.5613 452.11 38.5613 456.789 M33.596 456.789 Q33.596 449.15 38.5613 444.79 Q43.5265 440.429 52.3112 440.429 Q61.0641 440.429 66.0611 444.79 Q71.0264 449.15 71.0264 456.789 Q71.0264 464.46 66.0611 468.82 Q61.0641 473.149 52.3112 473.149 Q43.5265 473.149 38.5613 468.82 Q33.596 464.46 33.596 456.789 Z" fill="#000000" fill-rule="evenodd" fill-opacity="1" /><path clip-path="url(#clip650)" d="M48.5873 401.089 L70.1034 401.089 L70.1034 406.946 L48.7782 406.946 Q43.7175 406.946 41.203 408.919 Q38.6886 410.892 38.6886 414.839 Q38.6886 419.581 41.7123 422.319 Q44.736 425.056 49.9559 425.056 L70.1034 425.056 L70.1034 430.944 L34.4554 430.944 L34.4554 425.056 L39.9936 425.056 Q36.7789 422.955 35.1875 420.123 Q33.596 417.258 33.596 413.534 Q33.596 407.391 37.4155 404.24 Q41.203 401.089 48.5873 401.089 Z" fill="#000000" fill-rule="evenodd" fill-opacity="1" /><path clip-path="url(#clip650)" d="M35.5057 366.682 L41.0439 366.682 Q39.7708 369.165 39.1342 371.839 Q38.4976 374.512 38.4976 377.377 Q38.4976 381.737 39.8344 383.933 Q41.1712 386.098 43.8448 386.098 Q45.8818 386.098 47.0595 384.538 Q48.2053 382.979 49.2557 378.268 L49.7013 376.263 Q51.0381 370.024 53.4889 367.414 Q55.9078 364.773 60.2683 364.773 Q65.2336 364.773 68.13 368.719 Q71.0264 372.634 71.0264 379.509 Q71.0264 382.374 70.4535 385.493 Q69.9124 388.58 68.7984 392.018 L62.751 392.018 Q64.4379 388.771 65.2972 385.62 Q66.1248 382.469 66.1248 379.382 Q66.1248 375.244 64.7243 373.016 Q63.2921 370.788 60.7139 370.788 Q58.3268 370.788 57.0537 372.412 Q55.7805 374.003 54.6029 379.446 L54.1254 381.483 Q52.9796 386.925 50.6243 389.344 Q48.2372 391.763 44.0994 391.763 Q39.0705 391.763 36.3333 388.199 Q33.596 384.634 33.596 378.077 Q33.596 374.831 34.0735 371.966 Q34.5509 369.101 35.5057 366.682 Z" fill="#000000" fill-rule="evenodd" fill-opacity="1" /><path clip-path="url(#clip650)" d="M50.8153 324.955 L53.6798 324.955 L53.6798 351.882 Q59.7273 351.5 62.9101 348.254 Q66.0611 344.975 66.0611 339.151 Q66.0611 335.777 65.2336 332.626 Q64.4061 329.443 62.751 326.324 L68.2891 326.324 Q69.6259 329.475 70.3262 332.785 Q71.0264 336.095 71.0264 339.501 Q71.0264 348.031 66.0611 353.028 Q61.0959 357.993 52.6295 357.993 Q43.8766 357.993 38.7523 353.283 Q33.596 348.54 33.596 340.519 Q33.596 333.326 38.243 329.157 Q42.8581 324.955 50.8153 324.955 M49.0965 330.812 Q44.2904 330.875 41.4258 333.517 Q38.5613 336.127 38.5613 340.456 Q38.5613 345.357 41.3304 348.317 Q44.0994 351.246 49.1284 351.691 L49.0965 330.812 Z" fill="#000000" fill-rule="evenodd" fill-opacity="1" /><path clip-path="url(#clip650)" d="M35.5057 292.617 L41.0439 292.617 Q39.7708 295.1 39.1342 297.774 Q38.4976 300.447 38.4976 303.312 Q38.4976 307.672 39.8344 309.868 Q41.1712 312.033 43.8448 312.033 Q45.8818 312.033 47.0595 310.473 Q48.2053 308.914 49.2557 304.203 L49.7013 302.198 Q51.0381 295.959 53.4889 293.349 Q55.9078 290.708 60.2683 290.708 Q65.2336 290.708 68.13 294.654 Q71.0264 298.569 71.0264 305.444 Q71.0264 308.309 70.4535 311.428 Q69.9124 314.515 68.7984 317.953 L62.751 317.953 Q64.4379 314.706 65.2972 311.555 Q66.1248 308.404 66.1248 305.317 Q66.1248 301.179 64.7243 298.951 Q63.2921 296.723 60.7139 296.723 Q58.3268 296.723 57.0537 298.347 Q55.7805 299.938 54.6029 305.381 L54.1254 307.418 Q52.9796 312.86 50.6243 315.279 Q48.2372 317.698 44.0994 317.698 Q39.0705 317.698 36.3333 314.134 Q33.596 310.569 33.596 304.012 Q33.596 300.766 34.0735 297.901 Q34.5509 295.036 35.5057 292.617 Z" fill="#000000" fill-rule="evenodd" fill-opacity="1" /><path clip-path="url(#clip652)" d="
M304.955 77.3126 L304.955 1079.59 L513.827 1079.59 L513.827 77.3126 L304.955 77.3126 L304.955 77.3126  Z
  " fill="#006d60" fill-rule="evenodd" fill-opacity="1"/>
<polyline clip-path="url(#clip652)" style="stroke:#000000; stroke-linecap:butt; stroke-linejoin:round; stroke-width:4; stroke-opacity:1; fill:none" points="
  304.955,77.3126 304.955,1079.59 513.827,1079.59 513.827,77.3126 304.955,77.3126 
  "/>
<path clip-path="url(#clip652)" d="
M566.045 77.3126 L566.045 1079.59 L774.916 1079.59 L774.916 77.3126 L566.045 77.3126 L566.045 77.3126  Z
  " fill="#006d60" fill-rule="evenodd" fill-opacity="1"/>
<polyline clip-path="url(#clip652)" style="stroke:#000000; stroke-linecap:butt; stroke-linejoin:round; stroke-width:4; stroke-opacity:1; fill:none" points="
  566.045,77.3126 566.045,1079.59 774.916,1079.59 774.916,77.3126 566.045,77.3126 
  "/>
<path clip-path="url(#clip652)" d="
M827.134 77.3126 L827.134 1079.59 L1036.01 1079.59 L1036.01 77.3126 L827.134 77.3126 L827.134 77.3126  Z
  " fill="#006d60" fill-rule="evenodd" fill-opacity="1"/>
<polyline clip-path="url(#clip652)" style="stroke:#000000; stroke-linecap:butt; stroke-linejoin:round; stroke-width:4; stroke-opacity:1; fill:none" points="
  827.134,77.3126 827.134,1079.59 1036.01,1079.59 1036.01,77.3126 827.134,77.3126 
  "/>
<path clip-path="url(#clip652)" d="
M1088.22 77.3126 L1088.22 1079.59 L1297.09 1079.59 L1297.09 77.3126 L1088.22 77.3126 L1088.22 77.3126  Z
  " fill="#006d60" fill-rule="evenodd" fill-opacity="1"/>
<polyline clip-path="url(#clip652)" style="stroke:#000000; stroke-linecap:butt; stroke-linejoin:round; stroke-width:4; stroke-opacity:1; fill:none" points="
  1088.22,77.3126 1088.22,1079.59 1297.09,1079.59 1297.09,77.3126 1088.22,77.3126 
  "/>
<path clip-path="url(#clip652)" d="
M304.955 327.883 L304.955 1079.59 L513.827 1079.59 L513.827 327.883 L304.955 327.883 L304.955 327.883  Z
  " fill="#008569" fill-rule="evenodd" fill-opacity="1"/>
<polyline clip-path="url(#clip652)" style="stroke:#000000; stroke-linecap:butt; stroke-linejoin:round; stroke-width:4; stroke-opacity:1; fill:none" points="
  304.955,327.883 304.955,1079.59 513.827,1079.59 513.827,327.883 304.955,327.883 
  "/>
<path clip-path="url(#clip652)" d="
M566.045 119.074 L566.045 1079.59 L774.916 1079.59 L774.916 119.074 L566.045 119.074 L566.045 119.074  Z
  " fill="#008569" fill-rule="evenodd" fill-opacity="1"/>
<polyline clip-path="url(#clip652)" style="stroke:#000000; stroke-linecap:butt; stroke-linejoin:round; stroke-width:4; stroke-opacity:1; fill:none" points="
  566.045,119.074 566.045,1079.59 774.916,1079.59 774.916,119.074 566.045,119.074 
  "/>
<path clip-path="url(#clip652)" d="
M827.134 110.282 L827.134 1079.59 L1036.01 1079.59 L1036.01 110.282 L827.134 110.282 L827.134 110.282  Z
  " fill="#008569" fill-rule="evenodd" fill-opacity="1"/>
<polyline clip-path="url(#clip652)" style="stroke:#000000; stroke-linecap:butt; stroke-linejoin:round; stroke-width:4; stroke-opacity:1; fill:none" points="
  827.134,110.282 827.134,1079.59 1036.01,1079.59 1036.01,110.282 827.134,110.282 
  "/>
<path clip-path="url(#clip652)" d="
M1088.22 136.77 L1088.22 1079.59 L1297.09 1079.59 L1297.09 136.77 L1088.22 136.77 L1088.22 136.77  Z
  " fill="#008569" fill-rule="evenodd" fill-opacity="1"/>
<polyline clip-path="url(#clip652)" style="stroke:#000000; stroke-linecap:butt; stroke-linejoin:round; stroke-width:4; stroke-opacity:1; fill:none" points="
  1088.22,136.77 1088.22,1079.59 1297.09,1079.59 1297.09,136.77 1088.22,136.77 
  "/>
<path clip-path="url(#clip652)" d="
M304.955 327.883 L304.955 1079.59 L513.827 1079.59 L513.827 327.883 L304.955 327.883 L304.955 327.883  Z
  " fill="#009e73" fill-rule="evenodd" fill-opacity="1"/>
<polyline clip-path="url(#clip652)" style="stroke:#000000; stroke-linecap:butt; stroke-linejoin:round; stroke-width:4; stroke-opacity:1; fill:none" points="
  304.955,327.883 304.955,1079.59 513.827,1079.59 513.827,327.883 304.955,327.883 
  "/>
<path clip-path="url(#clip652)" d="
M566.045 244.36 L566.045 1079.59 L774.916 1079.59 L774.916 244.36 L566.045 244.36 L566.045 244.36  Z
  " fill="#009e73" fill-rule="evenodd" fill-opacity="1"/>
<polyline clip-path="url(#clip652)" style="stroke:#000000; stroke-linecap:butt; stroke-linejoin:round; stroke-width:4; stroke-opacity:1; fill:none" points="
  566.045,244.36 566.045,1079.59 774.916,1079.59 774.916,244.36 566.045,244.36 
  "/>
<path clip-path="url(#clip652)" d="
M827.134 202.598 L827.134 1079.59 L1036.01 1079.59 L1036.01 202.598 L827.134 202.598 L827.134 202.598  Z
  " fill="#009e73" fill-rule="evenodd" fill-opacity="1"/>
<polyline clip-path="url(#clip652)" style="stroke:#000000; stroke-linecap:butt; stroke-linejoin:round; stroke-width:4; stroke-opacity:1; fill:none" points="
  827.134,202.598 827.134,1079.59 1036.01,1079.59 1036.01,202.598 827.134,202.598 
  "/>
<path clip-path="url(#clip652)" d="
M1088.22 230.203 L1088.22 1079.59 L1297.09 1079.59 L1297.09 230.203 L1088.22 230.203 L1088.22 230.203  Z
  " fill="#009e73" fill-rule="evenodd" fill-opacity="1"/>
<polyline clip-path="url(#clip652)" style="stroke:#000000; stroke-linecap:butt; stroke-linejoin:round; stroke-width:4; stroke-opacity:1; fill:none" points="
  1088.22,230.203 1088.22,1079.59 1297.09,1079.59 1297.09,230.203 1088.22,230.203 
  "/>
<path clip-path="url(#clip652)" d="
M304.955 327.883 L304.955 1079.59 L513.827 1079.59 L513.827 327.883 L304.955 327.883 L304.955 327.883  Z
  " fill="#77c6b0" fill-rule="evenodd" fill-opacity="1"/>
<polyline clip-path="url(#clip652)" style="stroke:#000000; stroke-linecap:butt; stroke-linejoin:round; stroke-width:4; stroke-opacity:1; fill:none" points="
  304.955,327.883 304.955,1079.59 513.827,1079.59 513.827,327.883 304.955,327.883 
  "/>
<path clip-path="url(#clip652)" d="
M566.045 411.407 L566.045 1079.59 L774.916 1079.59 L774.916 411.407 L566.045 411.407 L566.045 411.407  Z
  " fill="#77c6b0" fill-rule="evenodd" fill-opacity="1"/>
<polyline clip-path="url(#clip652)" style="stroke:#000000; stroke-linecap:butt; stroke-linejoin:round; stroke-width:4; stroke-opacity:1; fill:none" points="
  566.045,411.407 566.045,1079.59 774.916,1079.59 774.916,411.407 566.045,411.407 
  "/>
<path clip-path="url(#clip652)" d="
M827.134 354.259 L827.134 1079.59 L1036.01 1079.59 L1036.01 354.259 L827.134 354.259 L827.134 354.259  Z
  " fill="#77c6b0" fill-rule="evenodd" fill-opacity="1"/>
<polyline clip-path="url(#clip652)" style="stroke:#000000; stroke-linecap:butt; stroke-linejoin:round; stroke-width:4; stroke-opacity:1; fill:none" points="
  827.134,354.259 827.134,1079.59 1036.01,1079.59 1036.01,354.259 827.134,354.259 
  "/>
<path clip-path="url(#clip652)" d="
M1088.22 332.13 L1088.22 1079.59 L1297.09 1079.59 L1297.09 332.13 L1088.22 332.13 L1088.22 332.13  Z
  " fill="#77c6b0" fill-rule="evenodd" fill-opacity="1"/>
<polyline clip-path="url(#clip652)" style="stroke:#000000; stroke-linecap:butt; stroke-linejoin:round; stroke-width:4; stroke-opacity:1; fill:none" points="
  1088.22,332.13 1088.22,1079.59 1297.09,1079.59 1297.09,332.13 1088.22,332.13 
  "/>
<path clip-path="url(#clip652)" d="
M304.955 327.883 L304.955 1079.59 L513.827 1079.59 L513.827 327.883 L304.955 327.883 L304.955 327.883  Z
  " fill="#eeeeee" fill-rule="evenodd" fill-opacity="1"/>
<polyline clip-path="url(#clip652)" style="stroke:#000000; stroke-linecap:butt; stroke-linejoin:round; stroke-width:4; stroke-opacity:1; fill:none" points="
  304.955,327.883 304.955,1079.59 513.827,1079.59 513.827,327.883 304.955,327.883 
  "/>
<path clip-path="url(#clip652)" d="
M566.045 494.93 L566.045 1079.59 L774.916 1079.59 L774.916 494.93 L566.045 494.93 L566.045 494.93  Z
  " fill="#eeeeee" fill-rule="evenodd" fill-opacity="1"/>
<polyline clip-path="url(#clip652)" style="stroke:#000000; stroke-linecap:butt; stroke-linejoin:round; stroke-width:4; stroke-opacity:1; fill:none" points="
  566.045,494.93 566.045,1079.59 774.916,1079.59 774.916,494.93 566.045,494.93 
  "/>
<path clip-path="url(#clip652)" d="
M827.134 604.829 L827.134 1079.59 L1036.01 1079.59 L1036.01 604.829 L827.134 604.829 L827.134 604.829  Z
  " fill="#eeeeee" fill-rule="evenodd" fill-opacity="1"/>
<polyline clip-path="url(#clip652)" style="stroke:#000000; stroke-linecap:butt; stroke-linejoin:round; stroke-width:4; stroke-opacity:1; fill:none" points="
  827.134,604.829 827.134,1079.59 1036.01,1079.59 1036.01,604.829 827.134,604.829 
  "/>
<path clip-path="url(#clip652)" d="
M1088.22 502.008 L1088.22 1079.59 L1297.09 1079.59 L1297.09 502.008 L1088.22 502.008 L1088.22 502.008  Z
  " fill="#eeeeee" fill-rule="evenodd" fill-opacity="1"/>
<polyline clip-path="url(#clip652)" style="stroke:#000000; stroke-linecap:butt; stroke-linejoin:round; stroke-width:4; stroke-opacity:1; fill:none" points="
  1088.22,502.008 1088.22,1079.59 1297.09,1079.59 1297.09,502.008 1088.22,502.008 
  "/>
<path clip-path="url(#clip652)" d="
M304.955 829.024 L304.955 1079.59 L513.827 1079.59 L513.827 829.024 L304.955 829.024 L304.955 829.024  Z
  " fill="#ddb3ca" fill-rule="evenodd" fill-opacity="1"/>
<polyline clip-path="url(#clip652)" style="stroke:#000000; stroke-linecap:butt; stroke-linejoin:round; stroke-width:4; stroke-opacity:1; fill:none" points="
  304.955,829.024 304.955,1079.59 513.827,1079.59 513.827,829.024 304.955,829.024 
  "/>
<path clip-path="url(#clip652)" d="
M566.045 996.071 L566.045 1079.59 L774.916 1079.59 L774.916 996.071 L566.045 996.071 L566.045 996.071  Z
  " fill="#ddb3ca" fill-rule="evenodd" fill-opacity="1"/>
<polyline clip-path="url(#clip652)" style="stroke:#000000; stroke-linecap:butt; stroke-linejoin:round; stroke-width:4; stroke-opacity:1; fill:none" points="
  566.045,996.071 566.045,1079.59 774.916,1079.59 774.916,996.071 566.045,996.071 
  "/>
<path clip-path="url(#clip652)" d="
M827.134 927.933 L827.134 1079.59 L1036.01 1079.59 L1036.01 927.933 L827.134 927.933 L827.134 927.933  Z
  " fill="#ddb3ca" fill-rule="evenodd" fill-opacity="1"/>
<polyline clip-path="url(#clip652)" style="stroke:#000000; stroke-linecap:butt; stroke-linejoin:round; stroke-width:4; stroke-opacity:1; fill:none" points="
  827.134,927.933 827.134,1079.59 1036.01,1079.59 1036.01,927.933 827.134,927.933 
  "/>
<path clip-path="url(#clip652)" d="
M1088.22 913.963 L1088.22 1079.59 L1297.09 1079.59 L1297.09 913.963 L1088.22 913.963 L1088.22 913.963  Z
  " fill="#ddb3ca" fill-rule="evenodd" fill-opacity="1"/>
<polyline clip-path="url(#clip652)" style="stroke:#000000; stroke-linecap:butt; stroke-linejoin:round; stroke-width:4; stroke-opacity:1; fill:none" points="
  1088.22,913.963 1088.22,1079.59 1297.09,1079.59 1297.09,913.963 1088.22,913.963 
  "/>
<path clip-path="url(#clip652)" d="
M304.955 829.024 L304.955 1079.59 L513.827 1079.59 L513.827 829.024 L304.955 829.024 L304.955 829.024  Z
  " fill="#cc79a7" fill-rule="evenodd" fill-opacity="1"/>
<polyline clip-path="url(#clip652)" style="stroke:#000000; stroke-linecap:butt; stroke-linejoin:round; stroke-width:4; stroke-opacity:1; fill:none" points="
  304.955,829.024 304.955,1079.59 513.827,1079.59 513.827,829.024 304.955,829.024 
  "/>
<path clip-path="url(#clip652)" d="
M566.045 1037.83 L566.045 1079.59 L774.916 1079.59 L774.916 1037.83 L566.045 1037.83 L566.045 1037.83  Z
  " fill="#cc79a7" fill-rule="evenodd" fill-opacity="1"/>
<polyline clip-path="url(#clip652)" style="stroke:#000000; stroke-linecap:butt; stroke-linejoin:round; stroke-width:4; stroke-opacity:1; fill:none" points="
  566.045,1037.83 566.045,1079.59 774.916,1079.59 774.916,1037.83 566.045,1037.83 
  "/>
<path clip-path="url(#clip652)" d="
M827.134 1026.84 L827.134 1079.59 L1036.01 1079.59 L1036.01 1026.84 L827.134 1026.84 L827.134 1026.84  Z
  " fill="#cc79a7" fill-rule="evenodd" fill-opacity="1"/>
<polyline clip-path="url(#clip652)" style="stroke:#000000; stroke-linecap:butt; stroke-linejoin:round; stroke-width:4; stroke-opacity:1; fill:none" points="
  827.134,1026.84 827.134,1079.59 1036.01,1079.59 1036.01,1026.84 827.134,1026.84 
  "/>
<path clip-path="url(#clip652)" d="
M1088.22 1028.63 L1088.22 1079.59 L1297.09 1079.59 L1297.09 1028.63 L1088.22 1028.63 L1088.22 1028.63  Z
  " fill="#cc79a7" fill-rule="evenodd" fill-opacity="1"/>
<polyline clip-path="url(#clip652)" style="stroke:#000000; stroke-linecap:butt; stroke-linejoin:round; stroke-width:4; stroke-opacity:1; fill:none" points="
  1088.22,1028.63 1088.22,1079.59 1297.09,1079.59 1297.09,1028.63 1088.22,1028.63 
  "/>
<path clip-path="url(#clip652)" d="
M304.955 829.024 L304.955 1079.59 L513.827 1079.59 L513.827 829.024 L304.955 829.024 L304.955 829.024  Z
  " fill="#b55585" fill-rule="evenodd" fill-opacity="1"/>
<polyline clip-path="url(#clip652)" style="stroke:#000000; stroke-linecap:butt; stroke-linejoin:round; stroke-width:4; stroke-opacity:1; fill:none" points="
  304.955,829.024 304.955,1079.59 513.827,1079.59 513.827,829.024 304.955,829.024 
  "/>
<path clip-path="url(#clip652)" d="
M566.045 1079.59 L566.045 1079.59 L774.916 1079.59 L774.916 1079.59 L566.045 1079.59 L566.045 1079.59  Z
  " fill="#b55585" fill-rule="evenodd" fill-opacity="1"/>
<polyline clip-path="url(#clip652)" style="stroke:#000000; stroke-linecap:butt; stroke-linejoin:round; stroke-width:4; stroke-opacity:1; fill:none" points="
  566.045,1079.59 566.045,1079.59 774.916,1079.59 566.045,1079.59 
  "/>
<path clip-path="url(#clip652)" d="
M827.134 1066.41 L827.134 1079.59 L1036.01 1079.59 L1036.01 1066.41 L827.134 1066.41 L827.134 1066.41  Z
  " fill="#b55585" fill-rule="evenodd" fill-opacity="1"/>
<polyline clip-path="url(#clip652)" style="stroke:#000000; stroke-linecap:butt; stroke-linejoin:round; stroke-width:4; stroke-opacity:1; fill:none" points="
  827.134,1066.41 827.134,1079.59 1036.01,1079.59 1036.01,1066.41 827.134,1066.41 
  "/>
<path clip-path="url(#clip652)" d="
M1088.22 1062.61 L1088.22 1079.59 L1297.09 1079.59 L1297.09 1062.61 L1088.22 1062.61 L1088.22 1062.61  Z
  " fill="#b55585" fill-rule="evenodd" fill-opacity="1"/>
<polyline clip-path="url(#clip652)" style="stroke:#000000; stroke-linecap:butt; stroke-linejoin:round; stroke-width:4; stroke-opacity:1; fill:none" points="
  1088.22,1062.61 1088.22,1079.59 1297.09,1079.59 1297.09,1062.61 1088.22,1062.61 
  "/>
<path clip-path="url(#clip652)" d="
M304.955 829.024 L304.955 1079.59 L513.827 1079.59 L513.827 829.024 L304.955 829.024 L304.955 829.024  Z
  " fill="#9e3264" fill-rule="evenodd" fill-opacity="1"/>
<polyline clip-path="url(#clip652)" style="stroke:#000000; stroke-linecap:butt; stroke-linejoin:round; stroke-width:4; stroke-opacity:1; fill:none" points="
  304.955,829.024 304.955,1079.59 513.827,1079.59 513.827,829.024 304.955,829.024 
  "/>
<path clip-path="url(#clip652)" d="
M566.045 1079.59 L566.045 1079.59 L774.916 1079.59 L774.916 1079.59 L566.045 1079.59 L566.045 1079.59  Z
  " fill="#9e3264" fill-rule="evenodd" fill-opacity="1"/>
<polyline clip-path="url(#clip652)" style="stroke:#000000; stroke-linecap:butt; stroke-linejoin:round; stroke-width:4; stroke-opacity:1; fill:none" points="
  566.045,1079.59 566.045,1079.59 774.916,1079.59 566.045,1079.59 
  "/>
<path clip-path="url(#clip652)" d="
M827.134 1079.59 L827.134 1079.59 L1036.01 1079.59 L1036.01 1079.59 L827.134 1079.59 L827.134 1079.59  Z
  " fill="#9e3264" fill-rule="evenodd" fill-opacity="1"/>
<polyline clip-path="url(#clip652)" style="stroke:#000000; stroke-linecap:butt; stroke-linejoin:round; stroke-width:4; stroke-opacity:1; fill:none" points="
  827.134,1079.59 827.134,1079.59 1036.01,1079.59 827.134,1079.59 
  "/>
<path clip-path="url(#clip652)" d="
M1088.22 1075.35 L1088.22 1079.59 L1297.09 1079.59 L1297.09 1075.35 L1088.22 1075.35 L1088.22 1075.35  Z
  " fill="#9e3264" fill-rule="evenodd" fill-opacity="1"/>
<polyline clip-path="url(#clip652)" style="stroke:#000000; stroke-linecap:butt; stroke-linejoin:round; stroke-width:4; stroke-opacity:1; fill:none" points="
  1088.22,1075.35 1088.22,1079.59 1297.09,1079.59 1297.09,1075.35 1088.22,1075.35 
  "/>
<path clip-path="url(#clip650)" d="
M1415.38 880.854 L1952.76 880.854 L1952.76 215.574 L1415.38 215.574  Z
  " fill="#ffffff" fill-rule="evenodd" fill-opacity="1"/>
<polyline clip-path="url(#clip650)" style="stroke:#000000; stroke-linecap:butt; stroke-linejoin:round; stroke-width:4; stroke-opacity:1; fill:none" points="
  1415.38,880.854 1952.76,880.854 1952.76,215.574 1415.38,215.574 1415.38,880.854 
  "/>
<path clip-path="url(#clip650)" d="M1511.58 263.525 L1511.58 277.275 L1507.3 277.275 L1507.3 241.488 L1511.58 241.488 L1511.58 245.423 Q1512.93 243.108 1514.96 241.997 Q1517.02 240.863 1519.87 240.863 Q1524.59 240.863 1527.53 244.613 Q1530.49 248.363 1530.49 254.474 Q1530.49 260.585 1527.53 264.335 Q1524.59 268.085 1519.87 268.085 Q1517.02 268.085 1514.96 266.974 Q1512.93 265.84 1511.58 263.525 M1526.07 254.474 Q1526.07 249.775 1524.13 247.113 Q1522.21 244.428 1518.83 244.428 Q1515.45 244.428 1513.5 247.113 Q1511.58 249.775 1511.58 254.474 Q1511.58 259.173 1513.5 261.858 Q1515.45 264.52 1518.83 264.52 Q1522.21 264.52 1524.13 261.858 Q1526.07 259.173 1526.07 254.474 Z" fill="#000000" fill-rule="evenodd" fill-opacity="1" /><path clip-path="url(#clip650)" d="M1552.58 245.469 Q1551.86 245.053 1551 244.867 Q1550.17 244.659 1549.15 244.659 Q1545.54 244.659 1543.6 247.02 Q1541.68 249.358 1541.68 253.756 L1541.68 267.414 L1537.39 267.414 L1537.39 241.488 L1541.68 241.488 L1541.68 245.516 Q1543.02 243.154 1545.17 242.02 Q1547.32 240.863 1550.4 240.863 Q1550.84 240.863 1551.37 240.932 Q1551.91 240.979 1552.55 241.094 L1552.58 245.469 Z" fill="#000000" fill-rule="evenodd" fill-opacity="1" /><path clip-path="url(#clip650)" d="M1578.18 253.386 L1578.18 255.469 L1558.6 255.469 Q1558.87 259.867 1561.24 262.182 Q1563.62 264.474 1567.86 264.474 Q1570.31 264.474 1572.6 263.872 Q1574.92 263.27 1577.18 262.066 L1577.18 266.094 Q1574.89 267.066 1572.49 267.576 Q1570.08 268.085 1567.6 268.085 Q1561.4 268.085 1557.76 264.474 Q1554.15 260.863 1554.15 254.705 Q1554.15 248.34 1557.58 244.613 Q1561.03 240.863 1566.86 240.863 Q1572.09 240.863 1575.12 244.242 Q1578.18 247.599 1578.18 253.386 M1573.92 252.136 Q1573.87 248.641 1571.95 246.557 Q1570.05 244.474 1566.91 244.474 Q1563.34 244.474 1561.19 246.488 Q1559.06 248.502 1558.74 252.159 L1573.92 252.136 Z" fill="#000000" fill-rule="evenodd" fill-opacity="1" /><path clip-path="url(#clip650)" d="M1598.3 231.395 L1598.3 234.937 L1594.22 234.937 Q1591.93 234.937 1591.03 235.863 Q1590.15 236.789 1590.15 239.196 L1590.15 241.488 L1597.16 241.488 L1597.16 244.798 L1590.15 244.798 L1590.15 267.414 L1585.86 267.414 L1585.86 244.798 L1581.79 244.798 L1581.79 241.488 L1585.86 241.488 L1585.86 239.682 Q1585.86 235.354 1587.88 233.386 Q1589.89 231.395 1594.27 231.395 L1598.3 231.395 Z" fill="#000000" fill-rule="evenodd" fill-opacity="1" /><path clip-path="url(#clip650)" d="M1624.04 253.386 L1624.04 255.469 L1604.45 255.469 Q1604.73 259.867 1607.09 262.182 Q1609.48 264.474 1613.71 264.474 Q1616.17 264.474 1618.46 263.872 Q1620.77 263.27 1623.04 262.066 L1623.04 266.094 Q1620.75 267.066 1618.34 267.576 Q1615.93 268.085 1613.46 268.085 Q1607.25 268.085 1603.62 264.474 Q1600.01 260.863 1600.01 254.705 Q1600.01 248.34 1603.43 244.613 Q1606.88 240.863 1612.72 240.863 Q1617.95 240.863 1620.98 244.242 Q1624.04 247.599 1624.04 253.386 M1619.78 252.136 Q1619.73 248.641 1617.81 246.557 Q1615.91 244.474 1612.76 244.474 Q1609.2 244.474 1607.05 246.488 Q1604.92 248.502 1604.59 252.159 L1619.78 252.136 Z" fill="#000000" fill-rule="evenodd" fill-opacity="1" /><path clip-path="url(#clip650)" d="M1646.05 245.469 Q1645.33 245.053 1644.48 244.867 Q1643.64 244.659 1642.62 244.659 Q1639.01 244.659 1637.07 247.02 Q1635.15 249.358 1635.15 253.756 L1635.15 267.414 L1630.86 267.414 L1630.86 241.488 L1635.15 241.488 L1635.15 245.516 Q1636.49 243.154 1638.64 242.02 Q1640.8 240.863 1643.87 240.863 Q1644.31 240.863 1644.85 240.932 Q1645.38 240.979 1646.03 241.094 L1646.05 245.469 Z" fill="#000000" fill-rule="evenodd" fill-opacity="1" /><path clip-path="url(#clip650)" d="M1671.65 253.386 L1671.65 255.469 L1652.07 255.469 Q1652.35 259.867 1654.71 262.182 Q1657.09 264.474 1661.33 264.474 Q1663.78 264.474 1666.07 263.872 Q1668.39 263.27 1670.66 262.066 L1670.66 266.094 Q1668.36 267.066 1665.96 267.576 Q1663.55 268.085 1661.07 268.085 Q1654.87 268.085 1651.24 264.474 Q1647.62 260.863 1647.62 254.705 Q1647.62 248.34 1651.05 244.613 Q1654.5 240.863 1660.33 240.863 Q1665.56 240.863 1668.6 244.242 Q1671.65 247.599 1671.65 253.386 M1667.39 252.136 Q1667.35 248.641 1665.42 246.557 Q1663.53 244.474 1660.38 244.474 Q1656.81 244.474 1654.66 246.488 Q1652.53 248.502 1652.21 252.159 L1667.39 252.136 Z" fill="#000000" fill-rule="evenodd" fill-opacity="1" /><path clip-path="url(#clip650)" d="M1700.19 251.766 L1700.19 267.414 L1695.93 267.414 L1695.93 251.904 Q1695.93 248.224 1694.5 246.395 Q1693.06 244.566 1690.19 244.566 Q1686.74 244.566 1684.75 246.766 Q1682.76 248.965 1682.76 252.761 L1682.76 267.414 L1678.48 267.414 L1678.48 241.488 L1682.76 241.488 L1682.76 245.516 Q1684.29 243.178 1686.35 242.02 Q1688.43 240.863 1691.14 240.863 Q1695.61 240.863 1697.9 243.641 Q1700.19 246.395 1700.19 251.766 Z" fill="#000000" fill-rule="evenodd" fill-opacity="1" /><path clip-path="url(#clip650)" d="M1727.35 242.483 L1727.35 246.465 Q1725.54 245.469 1723.71 244.983 Q1721.91 244.474 1720.05 244.474 Q1715.91 244.474 1713.62 247.113 Q1711.33 249.728 1711.33 254.474 Q1711.33 259.219 1713.62 261.858 Q1715.91 264.474 1720.05 264.474 Q1721.91 264.474 1723.71 263.988 Q1725.54 263.478 1727.35 262.483 L1727.35 266.418 Q1725.56 267.252 1723.64 267.668 Q1721.74 268.085 1719.59 268.085 Q1713.73 268.085 1710.29 264.404 Q1706.84 260.724 1706.84 254.474 Q1706.84 248.131 1710.31 244.497 Q1713.8 240.863 1719.87 240.863 Q1721.84 240.863 1723.71 241.279 Q1725.59 241.673 1727.35 242.483 Z" fill="#000000" fill-rule="evenodd" fill-opacity="1" /><path clip-path="url(#clip650)" d="M1756.93 253.386 L1756.93 255.469 L1737.35 255.469 Q1737.62 259.867 1739.98 262.182 Q1742.37 264.474 1746.6 264.474 Q1749.06 264.474 1751.35 263.872 Q1753.67 263.27 1755.93 262.066 L1755.93 266.094 Q1753.64 267.066 1751.23 267.576 Q1748.83 268.085 1746.35 268.085 Q1740.15 268.085 1736.51 264.474 Q1732.9 260.863 1732.9 254.705 Q1732.9 248.34 1736.33 244.613 Q1739.78 240.863 1745.61 240.863 Q1750.84 240.863 1753.87 244.242 Q1756.93 247.599 1756.93 253.386 M1752.67 252.136 Q1752.62 248.641 1750.7 246.557 Q1748.8 244.474 1745.66 244.474 Q1742.09 244.474 1739.94 246.488 Q1737.81 248.502 1737.48 252.159 L1752.67 252.136 Z" fill="#000000" fill-rule="evenodd" fill-opacity="1" /><path clip-path="url(#clip650)" d="M1792.11 231.395 L1792.11 234.937 L1788.04 234.937 Q1785.75 234.937 1784.85 235.863 Q1783.97 236.789 1783.97 239.196 L1783.97 241.488 L1790.98 241.488 L1790.98 244.798 L1783.97 244.798 L1783.97 267.414 L1779.68 267.414 L1779.68 244.798 L1775.61 244.798 L1775.61 241.488 L1779.68 241.488 L1779.68 239.682 Q1779.68 235.354 1781.7 233.386 Q1783.71 231.395 1788.09 231.395 L1792.11 231.395 Z" fill="#000000" fill-rule="evenodd" fill-opacity="1" /><path clip-path="url(#clip650)" d="M1805.72 244.474 Q1802.3 244.474 1800.31 247.159 Q1798.32 249.821 1798.32 254.474 Q1798.32 259.127 1800.29 261.812 Q1802.28 264.474 1805.72 264.474 Q1809.13 264.474 1811.12 261.789 Q1813.11 259.103 1813.11 254.474 Q1813.11 249.867 1811.12 247.182 Q1809.13 244.474 1805.72 244.474 M1805.72 240.863 Q1811.28 240.863 1814.45 244.474 Q1817.62 248.085 1817.62 254.474 Q1817.62 260.84 1814.45 264.474 Q1811.28 268.085 1805.72 268.085 Q1800.15 268.085 1796.97 264.474 Q1793.83 260.84 1793.83 254.474 Q1793.83 248.085 1796.97 244.474 Q1800.15 240.863 1805.72 240.863 Z" fill="#000000" fill-rule="evenodd" fill-opacity="1" /><path clip-path="url(#clip650)" d="M1839.71 245.469 Q1838.99 245.053 1838.13 244.867 Q1837.3 244.659 1836.28 244.659 Q1832.67 244.659 1830.72 247.02 Q1828.8 249.358 1828.8 253.756 L1828.8 267.414 L1824.52 267.414 L1824.52 241.488 L1828.8 241.488 L1828.8 245.516 Q1830.15 243.154 1832.3 242.02 Q1834.45 240.863 1837.53 240.863 Q1837.97 240.863 1838.5 240.932 Q1839.03 240.979 1839.68 241.094 L1839.71 245.469 Z" fill="#000000" fill-rule="evenodd" fill-opacity="1" /><path clip-path="url(#clip650)" d="M1571.9 285.967 L1571.9 293.328 L1580.67 293.328 L1580.67 296.638 L1571.9 296.638 L1571.9 310.712 Q1571.9 313.883 1572.75 314.786 Q1573.63 315.689 1576.29 315.689 L1580.67 315.689 L1580.67 319.254 L1576.29 319.254 Q1571.36 319.254 1569.49 317.425 Q1567.61 315.573 1567.61 310.712 L1567.61 296.638 L1564.49 296.638 L1564.49 293.328 L1567.61 293.328 L1567.61 285.967 L1571.9 285.967 Z" fill="#000000" fill-rule="evenodd" fill-opacity="1" /><path clip-path="url(#clip650)" d="M1598.05 306.221 Q1592.89 306.221 1590.9 307.402 Q1588.91 308.582 1588.91 311.43 Q1588.91 313.698 1590.39 315.041 Q1591.9 316.36 1594.46 316.36 Q1598.01 316.36 1600.14 313.86 Q1602.29 311.337 1602.29 307.17 L1602.29 306.221 L1598.05 306.221 M1606.55 304.462 L1606.55 319.254 L1602.29 319.254 L1602.29 315.318 Q1600.83 317.68 1598.65 318.814 Q1596.48 319.925 1593.33 319.925 Q1589.35 319.925 1586.99 317.703 Q1584.65 315.457 1584.65 311.707 Q1584.65 307.332 1587.57 305.11 Q1590.51 302.888 1596.32 302.888 L1602.29 302.888 L1602.29 302.471 Q1602.29 299.531 1600.34 297.934 Q1598.42 296.314 1594.93 296.314 Q1592.71 296.314 1590.6 296.846 Q1588.49 297.379 1586.55 298.443 L1586.55 294.508 Q1588.89 293.606 1591.08 293.166 Q1593.28 292.703 1595.37 292.703 Q1600.99 292.703 1603.77 295.619 Q1606.55 298.536 1606.55 304.462 Z" fill="#000000" fill-rule="evenodd" fill-opacity="1" /><path clip-path="url(#clip650)" d="M1630.34 297.309 Q1629.63 296.893 1628.77 296.707 Q1627.94 296.499 1626.92 296.499 Q1623.31 296.499 1621.36 298.86 Q1619.44 301.198 1619.44 305.596 L1619.44 319.254 L1615.16 319.254 L1615.16 293.328 L1619.44 293.328 L1619.44 297.356 Q1620.78 294.994 1622.94 293.86 Q1625.09 292.703 1628.17 292.703 Q1628.61 292.703 1629.14 292.772 Q1629.67 292.819 1630.32 292.934 L1630.34 297.309 Z" fill="#000000" fill-rule="evenodd" fill-opacity="1" /><path clip-path="url(#clip650)" d="M1651.04 305.99 Q1651.04 301.36 1649.12 298.814 Q1647.22 296.268 1643.77 296.268 Q1640.34 296.268 1638.42 298.814 Q1636.52 301.36 1636.52 305.99 Q1636.52 310.596 1638.42 313.142 Q1640.34 315.689 1643.77 315.689 Q1647.22 315.689 1649.12 313.142 Q1651.04 310.596 1651.04 305.99 M1655.3 316.036 Q1655.3 322.656 1652.36 325.874 Q1649.42 329.115 1643.35 329.115 Q1641.11 329.115 1639.12 328.767 Q1637.13 328.443 1635.25 327.749 L1635.25 323.605 Q1637.13 324.624 1638.95 325.11 Q1640.78 325.596 1642.68 325.596 Q1646.87 325.596 1648.95 323.397 Q1651.04 321.221 1651.04 316.8 L1651.04 314.693 Q1649.72 316.985 1647.66 318.119 Q1645.6 319.254 1642.73 319.254 Q1637.96 319.254 1635.04 315.619 Q1632.13 311.985 1632.13 305.99 Q1632.13 299.971 1635.04 296.337 Q1637.96 292.703 1642.73 292.703 Q1645.6 292.703 1647.66 293.837 Q1649.72 294.971 1651.04 297.263 L1651.04 293.328 L1655.3 293.328 L1655.3 316.036 Z" fill="#000000" fill-rule="evenodd" fill-opacity="1" /><path clip-path="url(#clip650)" d="M1686.25 305.226 L1686.25 307.309 L1666.66 307.309 Q1666.94 311.707 1669.3 314.022 Q1671.69 316.314 1675.92 316.314 Q1678.38 316.314 1680.67 315.712 Q1682.98 315.11 1685.25 313.906 L1685.25 317.934 Q1682.96 318.906 1680.55 319.416 Q1678.14 319.925 1675.67 319.925 Q1669.46 319.925 1665.83 316.314 Q1662.22 312.703 1662.22 306.545 Q1662.22 300.18 1665.64 296.453 Q1669.09 292.703 1674.93 292.703 Q1680.16 292.703 1683.19 296.082 Q1686.25 299.439 1686.25 305.226 M1681.99 303.976 Q1681.94 300.481 1680.02 298.397 Q1678.12 296.314 1674.97 296.314 Q1671.41 296.314 1669.26 298.328 Q1667.13 300.342 1666.8 303.999 L1681.99 303.976 Z" fill="#000000" fill-rule="evenodd" fill-opacity="1" /><path clip-path="url(#clip650)" d="M1697.45 285.967 L1697.45 293.328 L1706.22 293.328 L1706.22 296.638 L1697.45 296.638 L1697.45 310.712 Q1697.45 313.883 1698.31 314.786 Q1699.19 315.689 1701.85 315.689 L1706.22 315.689 L1706.22 319.254 L1701.85 319.254 Q1696.92 319.254 1695.04 317.425 Q1693.17 315.573 1693.17 310.712 L1693.17 296.638 L1690.04 296.638 L1690.04 293.328 L1693.17 293.328 L1693.17 285.967 L1697.45 285.967 Z" fill="#000000" fill-rule="evenodd" fill-opacity="1" /><path clip-path="url(#clip650)" d="M1740.02 283.235 L1740.02 286.777 L1735.95 286.777 Q1733.65 286.777 1732.75 287.703 Q1731.87 288.629 1731.87 291.036 L1731.87 293.328 L1738.88 293.328 L1738.88 296.638 L1731.87 296.638 L1731.87 319.254 L1727.59 319.254 L1727.59 296.638 L1723.51 296.638 L1723.51 293.328 L1727.59 293.328 L1727.59 291.522 Q1727.59 287.194 1729.6 285.226 Q1731.62 283.235 1735.99 283.235 L1740.02 283.235 Z" fill="#000000" fill-rule="evenodd" fill-opacity="1" /><path clip-path="url(#clip650)" d="M1743.58 293.328 L1747.84 293.328 L1747.84 319.254 L1743.58 319.254 L1743.58 293.328 M1743.58 283.235 L1747.84 283.235 L1747.84 288.629 L1743.58 288.629 L1743.58 283.235 Z" fill="#000000" fill-rule="evenodd" fill-opacity="1" /><path clip-path="url(#clip650)" d="M1771.78 297.309 Q1771.06 296.893 1770.2 296.707 Q1769.37 296.499 1768.35 296.499 Q1764.74 296.499 1762.8 298.86 Q1760.88 301.198 1760.88 305.596 L1760.88 319.254 L1756.59 319.254 L1756.59 293.328 L1760.88 293.328 L1760.88 297.356 Q1762.22 294.994 1764.37 293.86 Q1766.52 292.703 1769.6 292.703 Q1770.04 292.703 1770.57 292.772 Q1771.11 292.819 1771.76 292.934 L1771.78 297.309 Z" fill="#000000" fill-rule="evenodd" fill-opacity="1" /><path clip-path="url(#clip650)" d="M1792.77 294.092 L1792.77 298.119 Q1790.97 297.194 1789.02 296.731 Q1787.08 296.268 1785 296.268 Q1781.82 296.268 1780.23 297.24 Q1778.65 298.212 1778.65 300.156 Q1778.65 301.638 1779.79 302.494 Q1780.92 303.328 1784.35 304.092 L1785.81 304.416 Q1790.34 305.388 1792.24 307.17 Q1794.16 308.93 1794.16 312.101 Q1794.16 315.712 1791.29 317.818 Q1788.44 319.925 1783.44 319.925 Q1781.36 319.925 1779.09 319.508 Q1776.85 319.115 1774.35 318.304 L1774.35 313.906 Q1776.71 315.133 1779 315.758 Q1781.29 316.36 1783.54 316.36 Q1786.55 316.36 1788.17 315.342 Q1789.79 314.3 1789.79 312.425 Q1789.79 310.689 1788.61 309.763 Q1787.45 308.837 1783.49 307.98 L1782.01 307.633 Q1778.05 306.8 1776.29 305.087 Q1774.53 303.351 1774.53 300.342 Q1774.53 296.684 1777.13 294.694 Q1779.72 292.703 1784.49 292.703 Q1786.85 292.703 1788.93 293.05 Q1791.01 293.397 1792.77 294.092 Z" fill="#000000" fill-rule="evenodd" fill-opacity="1" /><path clip-path="url(#clip650)" d="M1805.16 285.967 L1805.16 293.328 L1813.93 293.328 L1813.93 296.638 L1805.16 296.638 L1805.16 310.712 Q1805.16 313.883 1806.01 314.786 Q1806.89 315.689 1809.56 315.689 L1813.93 315.689 L1813.93 319.254 L1809.56 319.254 Q1804.63 319.254 1802.75 317.425 Q1800.88 315.573 1800.88 310.712 L1800.88 296.638 L1797.75 296.638 L1797.75 293.328 L1800.88 293.328 L1800.88 285.967 L1805.16 285.967 Z" fill="#000000" fill-rule="evenodd" fill-opacity="1" /><path clip-path="url(#clip650)" d="
M1434.37 360.726 L1548.31 360.726 L1548.31 312.342 L1434.37 312.342 L1434.37 360.726  Z
  " fill="#006d60" fill-rule="evenodd" fill-opacity="1"/>
<polyline clip-path="url(#clip650)" style="stroke:#000000; stroke-linecap:butt; stroke-linejoin:round; stroke-width:4; stroke-opacity:1; fill:none" points="
  1434.37,360.726 1548.31,360.726 1548.31,312.342 1434.37,312.342 1434.37,360.726 
  "/>
<path clip-path="url(#clip650)" d="M1582.9 323.328 L1571.1 341.777 L1582.9 341.777 L1582.9 323.328 M1581.68 319.254 L1587.56 319.254 L1587.56 341.777 L1592.49 341.777 L1592.49 345.665 L1587.56 345.665 L1587.56 353.814 L1582.9 353.814 L1582.9 345.665 L1567.3 345.665 L1567.3 341.152 L1581.68 319.254 Z" fill="#000000" fill-rule="evenodd" fill-opacity="1" /><path clip-path="url(#clip650)" d="
M1434.37 421.206 L1548.31 421.206 L1548.31 372.822 L1434.37 372.822 L1434.37 421.206  Z
  " fill="#008569" fill-rule="evenodd" fill-opacity="1"/>
<polyline clip-path="url(#clip650)" style="stroke:#000000; stroke-linecap:butt; stroke-linejoin:round; stroke-width:4; stroke-opacity:1; fill:none" points="
  1434.37,421.206 1548.31,421.206 1548.31,372.822 1434.37,372.822 1434.37,421.206 
  "/>
<path clip-path="url(#clip650)" d="M1582.93 395.659 Q1586.28 396.377 1588.16 398.646 Q1590.06 400.914 1590.06 404.247 Q1590.06 409.363 1586.54 412.164 Q1583.02 414.965 1576.54 414.965 Q1574.36 414.965 1572.05 414.525 Q1569.75 414.108 1567.3 413.252 L1567.3 408.738 Q1569.25 409.872 1571.56 410.451 Q1573.87 411.03 1576.4 411.03 Q1580.8 411.03 1583.09 409.294 Q1585.4 407.557 1585.4 404.247 Q1585.4 401.192 1583.25 399.479 Q1581.12 397.743 1577.3 397.743 L1573.27 397.743 L1573.27 393.9 L1577.49 393.9 Q1580.93 393.9 1582.76 392.534 Q1584.59 391.146 1584.59 388.553 Q1584.59 385.891 1582.69 384.479 Q1580.82 383.044 1577.3 383.044 Q1575.38 383.044 1573.18 383.46 Q1570.98 383.877 1568.34 384.757 L1568.34 380.59 Q1571 379.849 1573.32 379.479 Q1575.66 379.109 1577.72 379.109 Q1583.04 379.109 1586.14 381.539 Q1589.24 383.947 1589.24 388.067 Q1589.24 390.937 1587.6 392.928 Q1585.96 394.896 1582.93 395.659 Z" fill="#000000" fill-rule="evenodd" fill-opacity="1" /><path clip-path="url(#clip650)" d="
M1434.37 481.686 L1548.31 481.686 L1548.31 433.302 L1434.37 433.302 L1434.37 481.686  Z
  " fill="#009e73" fill-rule="evenodd" fill-opacity="1"/>
<polyline clip-path="url(#clip650)" style="stroke:#000000; stroke-linecap:butt; stroke-linejoin:round; stroke-width:4; stroke-opacity:1; fill:none" points="
  1434.37,481.686 1548.31,481.686 1548.31,433.302 1434.37,433.302 1434.37,481.686 
  "/>
<path clip-path="url(#clip650)" d="M1572.93 470.838 L1589.24 470.838 L1589.24 474.774 L1567.3 474.774 L1567.3 470.838 Q1569.96 468.084 1574.55 463.454 Q1579.15 458.801 1580.33 457.459 Q1582.58 454.936 1583.46 453.2 Q1584.36 451.44 1584.36 449.751 Q1584.36 446.996 1582.42 445.26 Q1580.49 443.524 1577.39 443.524 Q1575.19 443.524 1572.74 444.288 Q1570.31 445.052 1567.53 446.602 L1567.53 441.88 Q1570.36 440.746 1572.81 440.167 Q1575.26 439.589 1577.3 439.589 Q1582.67 439.589 1585.87 442.274 Q1589.06 444.959 1589.06 449.45 Q1589.06 451.579 1588.25 453.501 Q1587.46 455.399 1585.36 457.991 Q1584.78 458.663 1581.68 461.88 Q1578.57 465.075 1572.93 470.838 Z" fill="#000000" fill-rule="evenodd" fill-opacity="1" /><path clip-path="url(#clip650)" d="
M1434.37 542.166 L1548.31 542.166 L1548.31 493.782 L1434.37 493.782 L1434.37 542.166  Z
  " fill="#77c6b0" fill-rule="evenodd" fill-opacity="1"/>
<polyline clip-path="url(#clip650)" style="stroke:#000000; stroke-linecap:butt; stroke-linejoin:round; stroke-width:4; stroke-opacity:1; fill:none" points="
  1434.37,542.166 1548.31,542.166 1548.31,493.782 1434.37,493.782 1434.37,542.166 
  "/>
<path clip-path="url(#clip650)" d="M1567.97 531.318 L1575.61 531.318 L1575.61 504.953 L1567.3 506.619 L1567.3 502.36 L1575.56 500.694 L1580.24 500.694 L1580.24 531.318 L1587.88 531.318 L1587.88 535.254 L1567.97 535.254 L1567.97 531.318 Z" fill="#000000" fill-rule="evenodd" fill-opacity="1" /><path clip-path="url(#clip650)" d="
M1434.37 602.646 L1548.31 602.646 L1548.31 554.262 L1434.37 554.262 L1434.37 602.646  Z
  " fill="#eeeeee" fill-rule="evenodd" fill-opacity="1"/>
<polyline clip-path="url(#clip650)" style="stroke:#000000; stroke-linecap:butt; stroke-linejoin:round; stroke-width:4; stroke-opacity:1; fill:none" points="
  1434.37,602.646 1548.31,602.646 1548.31,554.262 1434.37,554.262 1434.37,602.646 
  "/>
<path clip-path="url(#clip650)" d="M1579.24 564.252 Q1575.63 564.252 1573.81 567.817 Q1572 571.359 1572 578.488 Q1572 585.595 1573.81 589.16 Q1575.63 592.701 1579.24 592.701 Q1582.88 592.701 1584.68 589.16 Q1586.51 585.595 1586.51 578.488 Q1586.51 571.359 1584.68 567.817 Q1582.88 564.252 1579.24 564.252 M1579.24 560.549 Q1585.06 560.549 1588.11 565.155 Q1591.19 569.738 1591.19 578.488 Q1591.19 587.215 1588.11 591.822 Q1585.06 596.405 1579.24 596.405 Q1573.43 596.405 1570.36 591.822 Q1567.3 587.215 1567.3 578.488 Q1567.3 569.738 1570.36 565.155 Q1573.43 560.549 1579.24 560.549 Z" fill="#000000" fill-rule="evenodd" fill-opacity="1" /><path clip-path="url(#clip650)" d="
M1434.37 663.126 L1548.31 663.126 L1548.31 614.742 L1434.37 614.742 L1434.37 663.126  Z
  " fill="#ddb3ca" fill-rule="evenodd" fill-opacity="1"/>
<polyline clip-path="url(#clip650)" style="stroke:#000000; stroke-linecap:butt; stroke-linejoin:round; stroke-width:4; stroke-opacity:1; fill:none" points="
  1434.37,663.126 1548.31,663.126 1548.31,614.742 1434.37,614.742 1434.37,663.126 
  "/>
<path clip-path="url(#clip650)" d="M1567.3 641.329 L1579.78 641.329 L1579.78 645.126 L1567.3 645.126 L1567.3 641.329 Z" fill="#000000" fill-rule="evenodd" fill-opacity="1" /><path clip-path="url(#clip650)" d="M1587.97 652.278 L1595.61 652.278 L1595.61 625.913 L1587.3 627.579 L1587.3 623.32 L1595.56 621.654 L1600.24 621.654 L1600.24 652.278 L1607.88 652.278 L1607.88 656.214 L1587.97 656.214 L1587.97 652.278 Z" fill="#000000" fill-rule="evenodd" fill-opacity="1" /><path clip-path="url(#clip650)" d="
M1434.37 723.606 L1548.31 723.606 L1548.31 675.222 L1434.37 675.222 L1434.37 723.606  Z
  " fill="#cc79a7" fill-rule="evenodd" fill-opacity="1"/>
<polyline clip-path="url(#clip650)" style="stroke:#000000; stroke-linecap:butt; stroke-linejoin:round; stroke-width:4; stroke-opacity:1; fill:none" points="
  1434.37,723.606 1548.31,723.606 1548.31,675.222 1434.37,675.222 1434.37,723.606 
  "/>
<path clip-path="url(#clip650)" d="M1567.3 701.809 L1579.78 701.809 L1579.78 705.606 L1567.3 705.606 L1567.3 701.809 Z" fill="#000000" fill-rule="evenodd" fill-opacity="1" /><path clip-path="url(#clip650)" d="M1591.19 712.758 L1607.51 712.758 L1607.51 716.694 L1585.56 716.694 L1585.56 712.758 Q1588.23 710.004 1592.81 705.374 Q1597.42 700.721 1598.6 699.379 Q1600.84 696.856 1601.72 695.12 Q1602.62 693.36 1602.62 691.671 Q1602.62 688.916 1600.68 687.18 Q1598.76 685.444 1595.66 685.444 Q1593.46 685.444 1591 686.208 Q1588.57 686.972 1585.8 688.522 L1585.8 683.8 Q1588.62 682.666 1591.07 682.087 Q1593.53 681.509 1595.56 681.509 Q1600.93 681.509 1604.13 684.194 Q1607.32 686.879 1607.32 691.37 Q1607.32 693.499 1606.51 695.421 Q1605.73 697.319 1603.62 699.911 Q1603.04 700.583 1599.94 703.8 Q1596.84 706.995 1591.19 712.758 Z" fill="#000000" fill-rule="evenodd" fill-opacity="1" /><path clip-path="url(#clip650)" d="
M1434.37 784.086 L1548.31 784.086 L1548.31 735.702 L1434.37 735.702 L1434.37 784.086  Z
  " fill="#b55585" fill-rule="evenodd" fill-opacity="1"/>
<polyline clip-path="url(#clip650)" style="stroke:#000000; stroke-linecap:butt; stroke-linejoin:round; stroke-width:4; stroke-opacity:1; fill:none" points="
  1434.37,784.086 1548.31,784.086 1548.31,735.702 1434.37,735.702 1434.37,784.086 
  "/>
<path clip-path="url(#clip650)" d="M1567.3 762.289 L1579.78 762.289 L1579.78 766.086 L1567.3 766.086 L1567.3 762.289 Z" fill="#000000" fill-rule="evenodd" fill-opacity="1" /><path clip-path="url(#clip650)" d="M1601.33 758.539 Q1604.68 759.257 1606.56 761.526 Q1608.46 763.794 1608.46 767.127 Q1608.46 772.243 1604.94 775.044 Q1601.42 777.845 1594.94 777.845 Q1592.76 777.845 1590.45 777.405 Q1588.16 776.988 1585.7 776.132 L1585.7 771.618 Q1587.65 772.752 1589.96 773.331 Q1592.28 773.91 1594.8 773.91 Q1599.2 773.91 1601.49 772.174 Q1603.81 770.437 1603.81 767.127 Q1603.81 764.072 1601.65 762.359 Q1599.52 760.623 1595.7 760.623 L1591.68 760.623 L1591.68 756.78 L1595.89 756.78 Q1599.34 756.78 1601.17 755.414 Q1602.99 754.026 1602.99 751.433 Q1602.99 748.771 1601.1 747.359 Q1599.22 745.924 1595.7 745.924 Q1593.78 745.924 1591.58 746.34 Q1589.38 746.757 1586.74 747.637 L1586.74 743.47 Q1589.41 742.729 1591.72 742.359 Q1594.06 741.989 1596.12 741.989 Q1601.44 741.989 1604.55 744.419 Q1607.65 746.827 1607.65 750.947 Q1607.65 753.817 1606 755.808 Q1604.36 757.776 1601.33 758.539 Z" fill="#000000" fill-rule="evenodd" fill-opacity="1" /><path clip-path="url(#clip650)" d="
M1434.37 844.566 L1548.31 844.566 L1548.31 796.182 L1434.37 796.182 L1434.37 844.566  Z
  " fill="#9e3264" fill-rule="evenodd" fill-opacity="1"/>
<polyline clip-path="url(#clip650)" style="stroke:#000000; stroke-linecap:butt; stroke-linejoin:round; stroke-width:4; stroke-opacity:1; fill:none" points="
  1434.37,844.566 1548.31,844.566 1548.31,796.182 1434.37,796.182 1434.37,844.566 
  "/>
<path clip-path="url(#clip650)" d="M1567.3 822.769 L1579.78 822.769 L1579.78 826.566 L1567.3 826.566 L1567.3 822.769 Z" fill="#000000" fill-rule="evenodd" fill-opacity="1" /><path clip-path="url(#clip650)" d="M1600.01 807.168 L1588.2 825.617 L1600.01 825.617 L1600.01 807.168 M1598.78 803.094 L1604.66 803.094 L1604.66 825.617 L1609.59 825.617 L1609.59 829.505 L1604.66 829.505 L1604.66 837.654 L1600.01 837.654 L1600.01 829.505 L1584.41 829.505 L1584.41 824.992 L1598.78 803.094 Z" fill="#000000" fill-rule="evenodd" fill-opacity="1" /></svg>
