<?xml version="1.0" encoding="utf-8"?>
<svg xmlns="http://www.w3.org/2000/svg" xmlns:xlink="http://www.w3.org/1999/xlink" width="650" height="290" viewBox="0 0 2600 1160">
<defs>
  <clipPath id="clip950">
    <rect x="0" y="0" width="2600" height="1160"/>
  </clipPath>
</defs>
<path clip-path="url(#clip950)" d="
M0 1160 L2600 1160 L2600 0 L0 0  Z
  " fill="#ffffff" fill-rule="evenodd" fill-opacity="1"/>
<defs>
  <clipPath id="clip951">
    <rect x="520" y="0" width="1821" height="1160"/>
  </clipPath>
</defs>
<path clip-path="url(#clip950)" d="
M235.824 872.308 L1870.61 872.308 L1870.61 189.666 L235.824 189.666  Z
  " fill="#ffffff" fill-rule="evenodd" fill-opacity="1"/>
<defs>
  <clipPath id="clip952">
    <rect x="235" y="189" width="1636" height="684"/>
  </clipPath>
</defs>
<polyline clip-path="url(#clip952)" style="stroke:#000000; stroke-linecap:butt; stroke-linejoin:round; stroke-width:2; stroke-opacity:0.1; fill:none" points="
  378.482,872.308 378.482,189.666 
  "/>
<polyline clip-path="url(#clip952)" style="stroke:#000000; stroke-linecap:butt; stroke-linejoin:round; stroke-width:2; stroke-opacity:0.1; fill:none" points="
  860.437,872.308 860.437,189.666 
  "/>
<polyline clip-path="url(#clip952)" style="stroke:#000000; stroke-linecap:butt; stroke-linejoin:round; stroke-width:2; stroke-opacity:0.1; fill:none" points="
  1342.39,872.308 1342.39,189.666 
  "/>
<polyline clip-path="url(#clip952)" style="stroke:#000000; stroke-linecap:butt; stroke-linejoin:round; stroke-width:2; stroke-opacity:0.1; fill:none" points="
  1824.35,872.308 1824.35,189.666 
  "/>
<polyline clip-path="url(#clip950)" style="stroke:#000000; stroke-linecap:butt; stroke-linejoin:round; stroke-width:4; stroke-opacity:1; fill:none" points="
  235.824,872.308 1870.61,872.308 
  "/>
<polyline clip-path="url(#clip950)" style="stroke:#000000; stroke-linecap:butt; stroke-linejoin:round; stroke-width:4; stroke-opacity:1; fill:none" points="
  378.482,872.308 378.482,864.116 
  "/>
<polyline clip-path="url(#clip950)" style="stroke:#000000; stroke-linecap:butt; stroke-linejoin:round; stroke-width:4; stroke-opacity:1; fill:none" points="
  860.437,872.308 860.437,864.116 
  "/>
<polyline clip-path="url(#clip950)" style="stroke:#000000; stroke-linecap:butt; stroke-linejoin:round; stroke-width:4; stroke-opacity:1; fill:none" points="
  1342.39,872.308 1342.39,864.116 
  "/>
<polyline clip-path="url(#clip950)" style="stroke:#000000; stroke-linecap:butt; stroke-linejoin:round; stroke-width:4; stroke-opacity:1; fill:none" points="
  1824.35,872.308 1824.35,864.116 
  "/>
<path clip-path="url(#clip950)" d="M325.508 917.751 L355.184 917.751 L355.184 921.686 L325.508 921.686 L325.508 917.751 Z" fill="#000000" fill-rule="evenodd" fill-opacity="1" /><path clip-path="url(#clip950)" d="M375.276 903.098 Q371.665 903.098 369.837 906.663 Q368.031 910.205 368.031 917.334 Q368.031 924.441 369.837 928.006 Q371.665 931.547 375.276 931.547 Q378.911 931.547 380.716 928.006 Q382.545 924.441 382.545 917.334 Q382.545 910.205 380.716 906.663 Q378.911 903.098 375.276 903.098 M375.276 899.395 Q381.087 899.395 384.142 904.001 Q387.221 908.584 387.221 917.334 Q387.221 926.061 384.142 930.668 Q381.087 935.251 375.276 935.251 Q369.466 935.251 366.388 930.668 Q363.332 926.061 363.332 917.334 Q363.332 908.584 366.388 904.001 Q369.466 899.395 375.276 899.395 Z" fill="#000000" fill-rule="evenodd" fill-opacity="1" /><path clip-path="url(#clip950)" d="M395.438 928.7 L400.323 928.7 L400.323 934.58 L395.438 934.58 L395.438 928.7 Z" fill="#000000" fill-rule="evenodd" fill-opacity="1" /><path clip-path="url(#clip950)" d="M410.554 900.02 L428.91 900.02 L428.91 903.955 L414.836 903.955 L414.836 912.427 Q415.855 912.08 416.873 911.918 Q417.892 911.732 418.91 911.732 Q424.697 911.732 428.077 914.904 Q431.457 918.075 431.457 923.492 Q431.457 929.07 427.984 932.172 Q424.512 935.251 418.193 935.251 Q416.017 935.251 413.748 934.881 Q411.503 934.51 409.096 933.769 L409.096 929.07 Q411.179 930.205 413.401 930.76 Q415.623 931.316 418.1 931.316 Q422.105 931.316 424.443 929.209 Q426.781 927.103 426.781 923.492 Q426.781 919.881 424.443 917.774 Q422.105 915.668 418.1 915.668 Q416.225 915.668 414.35 916.084 Q412.498 916.501 410.554 917.381 L410.554 900.02 Z" fill="#000000" fill-rule="evenodd" fill-opacity="1" /><path clip-path="url(#clip950)" d="M837.821 903.098 Q834.21 903.098 832.381 906.663 Q830.576 910.205 830.576 917.334 Q830.576 924.441 832.381 928.006 Q834.21 931.547 837.821 931.547 Q841.455 931.547 843.261 928.006 Q845.09 924.441 845.09 917.334 Q845.09 910.205 843.261 906.663 Q841.455 903.098 837.821 903.098 M837.821 899.395 Q843.631 899.395 846.687 904.001 Q849.765 908.584 849.765 917.334 Q849.765 926.061 846.687 930.668 Q843.631 935.251 837.821 935.251 Q832.011 935.251 828.932 930.668 Q825.877 926.061 825.877 917.334 Q825.877 908.584 828.932 904.001 Q832.011 899.395 837.821 899.395 Z" fill="#000000" fill-rule="evenodd" fill-opacity="1" /><path clip-path="url(#clip950)" d="M857.983 928.7 L862.867 928.7 L862.867 934.58 L857.983 934.58 L857.983 928.7 Z" fill="#000000" fill-rule="evenodd" fill-opacity="1" /><path clip-path="url(#clip950)" d="M883.052 903.098 Q879.441 903.098 877.613 906.663 Q875.807 910.205 875.807 917.334 Q875.807 924.441 877.613 928.006 Q879.441 931.547 883.052 931.547 Q886.687 931.547 888.492 928.006 Q890.321 924.441 890.321 917.334 Q890.321 910.205 888.492 906.663 Q886.687 903.098 883.052 903.098 M883.052 899.395 Q888.862 899.395 891.918 904.001 Q894.997 908.584 894.997 917.334 Q894.997 926.061 891.918 930.668 Q888.862 935.251 883.052 935.251 Q877.242 935.251 874.163 930.668 Q871.108 926.061 871.108 917.334 Q871.108 908.584 874.163 904.001 Q877.242 899.395 883.052 899.395 Z" fill="#000000" fill-rule="evenodd" fill-opacity="1" /><path clip-path="url(#clip950)" d="M1320.27 903.098 Q1316.66 903.098 1314.83 906.663 Q1313.03 910.205 1313.03 917.334 Q1313.03 924.441 1314.83 928.006 Q1316.66 931.547 1320.27 931.547 Q1323.91 931.547 1325.71 928.006 Q1327.54 924.441 1327.54 917.334 Q1327.54 910.205 1325.71 906.663 Q1323.91 903.098 1320.27 903.098 M1320.27 899.395 Q1326.08 899.395 1329.14 904.001 Q1332.22 908.584 1332.22 917.334 Q1332.22 926.061 1329.14 930.668 Q1326.08 935.251 1320.27 935.251 Q1314.46 935.251 1311.38 930.668 Q1308.33 926.061 1308.33 917.334 Q1308.33 908.584 1311.38 904.001 Q1314.46 899.395 1320.27 899.395 Z" fill="#000000" fill-rule="evenodd" fill-opacity="1" /><path clip-path="url(#clip950)" d="M1340.44 928.7 L1345.32 928.7 L1345.32 934.58 L1340.44 934.58 L1340.44 928.7 Z" fill="#000000" fill-rule="evenodd" fill-opacity="1" /><path clip-path="url(#clip950)" d="M1355.55 900.02 L1373.91 900.02 L1373.91 903.955 L1359.83 903.955 L1359.83 912.427 Q1360.85 912.08 1361.87 911.918 Q1362.89 911.732 1363.91 911.732 Q1369.69 911.732 1373.07 914.904 Q1376.45 918.075 1376.45 923.492 Q1376.45 929.07 1372.98 932.172 Q1369.51 935.251 1363.19 935.251 Q1361.01 935.251 1358.75 934.881 Q1356.5 934.51 1354.09 933.769 L1354.09 929.07 Q1356.18 930.205 1358.4 930.76 Q1360.62 931.316 1363.1 931.316 Q1367.1 931.316 1369.44 929.209 Q1371.78 927.103 1371.78 923.492 Q1371.78 919.881 1369.44 917.774 Q1367.1 915.668 1363.1 915.668 Q1361.22 915.668 1359.35 916.084 Q1357.5 916.501 1355.55 917.381 L1355.55 900.02 Z" fill="#000000" fill-rule="evenodd" fill-opacity="1" /><path clip-path="url(#clip950)" d="M1791.5 930.644 L1799.14 930.644 L1799.14 904.279 L1790.83 905.945 L1790.83 901.686 L1799.09 900.02 L1803.77 900.02 L1803.77 930.644 L1811.41 930.644 L1811.41 934.58 L1791.5 934.58 L1791.5 930.644 Z" fill="#000000" fill-rule="evenodd" fill-opacity="1" /><path clip-path="url(#clip950)" d="M1820.85 928.7 L1825.73 928.7 L1825.73 934.58 L1820.85 934.58 L1820.85 928.7 Z" fill="#000000" fill-rule="evenodd" fill-opacity="1" /><path clip-path="url(#clip950)" d="M1845.92 903.098 Q1842.31 903.098 1840.48 906.663 Q1838.67 910.205 1838.67 917.334 Q1838.67 924.441 1840.48 928.006 Q1842.31 931.547 1845.92 931.547 Q1849.55 931.547 1851.36 928.006 Q1853.19 924.441 1853.19 917.334 Q1853.19 910.205 1851.36 906.663 Q1849.55 903.098 1845.92 903.098 M1845.92 899.395 Q1851.73 899.395 1854.78 904.001 Q1857.86 908.584 1857.86 917.334 Q1857.86 926.061 1854.78 930.668 Q1851.73 935.251 1845.92 935.251 Q1840.11 935.251 1837.03 930.668 Q1833.97 926.061 1833.97 917.334 Q1833.97 908.584 1837.03 904.001 Q1840.11 899.395 1845.92 899.395 Z" fill="#000000" fill-rule="evenodd" fill-opacity="1" /><path clip-path="url(#clip950)" d="M555.786 989.998 Q554.8 989.425 553.622 989.171 Q552.476 988.884 551.076 988.884 Q546.11 988.884 543.437 992.131 Q540.795 995.345 540.795 1001.39 L540.795 1020.17 L534.907 1020.17 L534.907 984.524 L540.795 984.524 L540.795 990.062 Q542.641 986.815 545.601 985.256 Q548.561 983.664 552.794 983.664 Q553.399 983.664 554.131 983.76 Q554.863 983.823 555.754 983.983 L555.786 989.998 Z" fill="#000000" fill-rule="evenodd" fill-opacity="1" /><path clip-path="url(#clip950)" d="M590.989 1000.88 L590.989 1003.75 L564.062 1003.75 Q564.444 1009.8 567.69 1012.98 Q570.968 1016.13 576.793 1016.13 Q580.167 1016.13 583.318 1015.3 Q586.501 1014.47 589.62 1012.82 L589.62 1018.36 Q586.469 1019.69 583.159 1020.39 Q579.849 1021.09 576.443 1021.09 Q567.913 1021.09 562.916 1016.13 Q557.951 1011.16 557.951 1002.7 Q557.951 993.945 562.661 988.82 Q567.404 983.664 575.424 983.664 Q582.618 983.664 586.787 988.311 Q590.989 992.926 590.989 1000.88 M585.132 999.165 Q585.068 994.359 582.427 991.494 Q579.817 988.63 575.488 988.63 Q570.586 988.63 567.626 991.399 Q564.698 994.168 564.253 999.197 L585.132 999.165 Z" fill="#000000" fill-rule="evenodd" fill-opacity="1" /><path clip-path="url(#clip950)" d="M600.601 970.646 L606.457 970.646 L606.457 1020.17 L600.601 1020.17 L600.601 970.646 Z" fill="#000000" fill-rule="evenodd" fill-opacity="1" /><path clip-path="url(#clip950)" d="M634.912 1002.25 Q627.814 1002.25 625.077 1003.88 Q622.34 1005.5 622.34 1009.41 Q622.34 1012.53 624.377 1014.38 Q626.446 1016.19 629.978 1016.19 Q634.848 1016.19 637.776 1012.76 Q640.737 1009.29 640.737 1003.56 L640.737 1002.25 L634.912 1002.25 M646.593 999.833 L646.593 1020.17 L640.737 1020.17 L640.737 1014.76 Q638.731 1018.01 635.739 1019.57 Q632.748 1021.09 628.419 1021.09 Q622.944 1021.09 619.698 1018.04 Q616.483 1014.95 616.483 1009.8 Q616.483 1003.78 620.494 1000.72 Q624.536 997.669 632.525 997.669 L640.737 997.669 L640.737 997.096 Q640.737 993.054 638.063 990.858 Q635.421 988.63 630.615 988.63 Q627.56 988.63 624.663 989.362 Q621.767 990.094 619.093 991.558 L619.093 986.147 Q622.308 984.906 625.332 984.301 Q628.355 983.664 631.22 983.664 Q638.954 983.664 642.774 987.675 Q646.593 991.685 646.593 999.833 Z" fill="#000000" fill-rule="evenodd" fill-opacity="1" /><path clip-path="url(#clip950)" d="M664.449 974.402 L664.449 984.524 L676.512 984.524 L676.512 989.075 L664.449 989.075 L664.449 1008.43 Q664.449 1012.79 665.626 1014.03 Q666.836 1015.27 670.496 1015.27 L676.512 1015.27 L676.512 1020.17 L670.496 1020.17 Q663.717 1020.17 661.139 1017.66 Q658.561 1015.11 658.561 1008.43 L658.561 989.075 L654.264 989.075 L654.264 984.524 L658.561 984.524 L658.561 974.402 L664.449 974.402 Z" fill="#000000" fill-rule="evenodd" fill-opacity="1" /><path clip-path="url(#clip950)" d="M684.214 984.524 L690.071 984.524 L690.071 1020.17 L684.214 1020.17 L684.214 984.524 M684.214 970.646 L690.071 970.646 L690.071 978.062 L684.214 978.062 L684.214 970.646 Z" fill="#000000" fill-rule="evenodd" fill-opacity="1" /><path clip-path="url(#clip950)" d="M698.123 984.524 L704.33 984.524 L715.47 1014.44 L726.61 984.524 L732.816 984.524 L719.449 1020.17 L711.491 1020.17 L698.123 984.524 Z" fill="#000000" fill-rule="evenodd" fill-opacity="1" /><path clip-path="url(#clip950)" d="M771.393 1000.88 L771.393 1003.75 L744.466 1003.75 Q744.848 1009.8 748.094 1012.98 Q751.373 1016.13 757.197 1016.13 Q760.571 1016.13 763.722 1015.3 Q766.905 1014.47 770.024 1012.82 L770.024 1018.36 Q766.873 1019.69 763.563 1020.39 Q760.253 1021.09 756.847 1021.09 Q748.317 1021.09 743.32 1016.13 Q738.355 1011.16 738.355 1002.7 Q738.355 993.945 743.065 988.82 Q747.808 983.664 755.829 983.664 Q763.022 983.664 767.191 988.311 Q771.393 992.926 771.393 1000.88 M765.536 999.165 Q765.473 994.359 762.831 991.494 Q760.221 988.63 755.892 988.63 Q750.991 988.63 748.031 991.399 Q745.102 994.168 744.657 999.197 L765.536 999.165 Z" fill="#000000" fill-rule="evenodd" fill-opacity="1" /><path clip-path="url(#clip950)" d="M819.772 970.646 L819.772 975.516 L814.17 975.516 Q811.019 975.516 809.778 976.789 Q808.568 978.062 808.568 981.373 L808.568 984.524 L818.212 984.524 L818.212 989.075 L808.568 989.075 L808.568 1020.17 L802.68 1020.17 L802.68 989.075 L797.078 989.075 L797.078 984.524 L802.68 984.524 L802.68 982.041 Q802.68 976.089 805.449 973.384 Q808.218 970.646 814.234 970.646 L819.772 970.646 Z" fill="#000000" fill-rule="evenodd" fill-opacity="1" /><path clip-path="url(#clip950)" d="M845.33 989.998 Q844.344 989.425 843.166 989.171 Q842.02 988.884 840.62 988.884 Q835.654 988.884 832.981 992.131 Q830.339 995.345 830.339 1001.39 L830.339 1020.17 L824.451 1020.17 L824.451 984.524 L830.339 984.524 L830.339 990.062 Q832.185 986.815 835.145 985.256 Q838.105 983.664 842.338 983.664 Q842.943 983.664 843.675 983.76 Q844.407 983.823 845.299 983.983 L845.33 989.998 Z" fill="#000000" fill-rule="evenodd" fill-opacity="1" /><path clip-path="url(#clip950)" d="M880.533 1000.88 L880.533 1003.75 L853.606 1003.75 Q853.988 1009.8 857.234 1012.98 Q860.513 1016.13 866.337 1016.13 Q869.711 1016.13 872.862 1015.3 Q876.045 1014.47 879.164 1012.82 L879.164 1018.36 Q876.013 1019.69 872.703 1020.39 Q869.393 1021.09 865.987 1021.09 Q857.457 1021.09 852.46 1016.13 Q847.495 1011.16 847.495 1002.7 Q847.495 993.945 852.205 988.82 Q856.948 983.664 864.969 983.664 Q872.162 983.664 876.331 988.311 Q880.533 992.926 880.533 1000.88 M874.676 999.165 Q874.613 994.359 871.971 991.494 Q869.361 988.63 865.032 988.63 Q860.131 988.63 857.171 991.399 Q854.242 994.168 853.797 999.197 L874.676 999.165 Z" fill="#000000" fill-rule="evenodd" fill-opacity="1" /><path clip-path="url(#clip950)" d="M893.646 1002.38 Q893.646 1008.84 896.288 1012.53 Q898.961 1016.19 903.608 1016.19 Q908.255 1016.19 910.929 1012.53 Q913.603 1008.84 913.603 1002.38 Q913.603 995.918 910.929 992.258 Q908.255 988.566 903.608 988.566 Q898.961 988.566 896.288 992.258 Q893.646 995.918 893.646 1002.38 M913.603 1014.82 Q911.757 1018.01 908.924 1019.57 Q906.123 1021.09 902.176 1021.09 Q895.715 1021.09 891.641 1015.94 Q887.599 1010.78 887.599 1002.38 Q887.599 993.977 891.641 988.82 Q895.715 983.664 902.176 983.664 Q906.123 983.664 908.924 985.224 Q911.757 986.752 913.603 989.934 L913.603 984.524 L919.459 984.524 L919.459 1033.73 L913.603 1033.73 L913.603 1014.82 Z" fill="#000000" fill-rule="evenodd" fill-opacity="1" /><path clip-path="url(#clip950)" d="M930.917 1006.1 L930.917 984.524 L936.774 984.524 L936.774 1005.88 Q936.774 1010.94 938.747 1013.49 Q940.72 1016 944.667 1016 Q949.41 1016 952.147 1012.98 Q954.916 1009.95 954.916 1004.73 L954.916 984.524 L960.772 984.524 L960.772 1020.17 L954.916 1020.17 L954.916 1014.7 Q952.783 1017.94 949.951 1019.54 Q947.15 1021.09 943.426 1021.09 Q937.283 1021.09 934.1 1017.28 Q930.917 1013.46 930.917 1006.1 M945.654 983.664 L945.654 983.664 Z" fill="#000000" fill-rule="evenodd" fill-opacity="1" /><path clip-path="url(#clip950)" d="M1003.33 1000.88 L1003.33 1003.75 L976.4 1003.75 Q976.782 1009.8 980.029 1012.98 Q983.307 1016.13 989.132 1016.13 Q992.505 1016.13 995.657 1015.3 Q998.839 1014.47 1001.96 1012.82 L1001.96 1018.36 Q998.808 1019.69 995.497 1020.39 Q992.187 1021.09 988.782 1021.09 Q980.252 1021.09 975.254 1016.13 Q970.289 1011.16 970.289 1002.7 Q970.289 993.945 975 988.82 Q979.742 983.664 987.763 983.664 Q994.956 983.664 999.126 988.311 Q1003.33 992.926 1003.33 1000.88 M997.471 999.165 Q997.407 994.359 994.765 991.494 Q992.155 988.63 987.827 988.63 Q982.925 988.63 979.965 991.399 Q977.037 994.168 976.591 999.197 L997.471 999.165 Z" fill="#000000" fill-rule="evenodd" fill-opacity="1" /><path clip-path="url(#clip950)" d="M1042.57 998.655 L1042.57 1020.17 L1036.72 1020.17 L1036.72 998.846 Q1036.72 993.786 1034.74 991.271 Q1032.77 988.757 1028.82 988.757 Q1024.08 988.757 1021.34 991.781 Q1018.6 994.804 1018.6 1000.02 L1018.6 1020.17 L1012.72 1020.17 L1012.72 984.524 L1018.6 984.524 L1018.6 990.062 Q1020.71 986.847 1023.54 985.256 Q1026.4 983.664 1030.13 983.664 Q1036.27 983.664 1039.42 987.484 Q1042.57 991.271 1042.57 998.655 Z" fill="#000000" fill-rule="evenodd" fill-opacity="1" /><path clip-path="url(#clip950)" d="M1079.91 985.892 L1079.91 991.367 Q1077.42 989.998 1074.91 989.33 Q1072.43 988.63 1069.88 988.63 Q1064.18 988.63 1061.03 992.258 Q1057.88 995.855 1057.88 1002.38 Q1057.88 1008.9 1061.03 1012.53 Q1064.18 1016.13 1069.88 1016.13 Q1072.43 1016.13 1074.91 1015.46 Q1077.42 1014.76 1079.91 1013.39 L1079.91 1018.8 Q1077.46 1019.95 1074.81 1020.52 Q1072.2 1021.09 1069.24 1021.09 Q1061.19 1021.09 1056.45 1016.03 Q1051.71 1010.97 1051.71 1002.38 Q1051.71 993.658 1056.48 988.661 Q1061.29 983.664 1069.63 983.664 Q1072.33 983.664 1074.91 984.237 Q1077.49 984.778 1079.91 985.892 Z" fill="#000000" fill-rule="evenodd" fill-opacity="1" /><path clip-path="url(#clip950)" d="M1104.92 1023.48 Q1102.44 1029.85 1100.09 1031.79 Q1097.73 1033.73 1093.78 1033.73 L1089.11 1033.73 L1089.11 1028.83 L1092.54 1028.83 Q1094.96 1028.83 1096.3 1027.68 Q1097.64 1026.54 1099.26 1022.27 L1100.31 1019.6 L1085.89 984.524 L1092.1 984.524 L1103.24 1012.41 L1114.38 984.524 L1120.58 984.524 L1104.92 1023.48 Z" fill="#000000" fill-rule="evenodd" fill-opacity="1" /><path clip-path="url(#clip950)" d="M1163.2 988.63 Q1158.49 988.63 1155.75 992.322 Q1153.02 995.982 1153.02 1002.38 Q1153.02 1008.78 1155.72 1012.47 Q1158.46 1016.13 1163.2 1016.13 Q1167.88 1016.13 1170.62 1012.44 Q1173.36 1008.75 1173.36 1002.38 Q1173.36 996.046 1170.62 992.353 Q1167.88 988.63 1163.2 988.63 M1163.2 983.664 Q1170.84 983.664 1175.2 988.63 Q1179.56 993.595 1179.56 1002.38 Q1179.56 1011.13 1175.2 1016.13 Q1170.84 1021.09 1163.2 1021.09 Q1155.53 1021.09 1151.17 1016.13 Q1146.84 1011.13 1146.84 1002.38 Q1146.84 993.595 1151.17 988.63 Q1155.53 983.664 1163.2 983.664 Z" fill="#000000" fill-rule="evenodd" fill-opacity="1" /><path clip-path="url(#clip950)" d="M1207.32 970.646 L1207.32 975.516 L1201.71 975.516 Q1198.56 975.516 1197.32 976.789 Q1196.11 978.062 1196.11 981.373 L1196.11 984.524 L1205.76 984.524 L1205.76 989.075 L1196.11 989.075 L1196.11 1020.17 L1190.22 1020.17 L1190.22 989.075 L1184.62 989.075 L1184.62 984.524 L1190.22 984.524 L1190.22 982.041 Q1190.22 976.089 1192.99 973.384 Q1195.76 970.646 1201.78 970.646 L1207.32 970.646 Z" fill="#000000" fill-rule="evenodd" fill-opacity="1" /><path clip-path="url(#clip950)" d="M1238.73 974.402 L1238.73 984.524 L1250.79 984.524 L1250.79 989.075 L1238.73 989.075 L1238.73 1008.43 Q1238.73 1012.79 1239.91 1014.03 Q1241.12 1015.27 1244.78 1015.27 L1250.79 1015.27 L1250.79 1020.17 L1244.78 1020.17 Q1238 1020.17 1235.42 1017.66 Q1232.84 1015.11 1232.84 1008.43 L1232.84 989.075 L1228.55 989.075 L1228.55 984.524 L1232.84 984.524 L1232.84 974.402 L1238.73 974.402 Z" fill="#000000" fill-rule="evenodd" fill-opacity="1" /><path clip-path="url(#clip950)" d="M1274.7 1002.25 Q1267.6 1002.25 1264.86 1003.88 Q1262.12 1005.5 1262.12 1009.41 Q1262.12 1012.53 1264.16 1014.38 Q1266.23 1016.19 1269.76 1016.19 Q1274.63 1016.19 1277.56 1012.76 Q1280.52 1009.29 1280.52 1003.56 L1280.52 1002.25 L1274.7 1002.25 M1286.38 999.833 L1286.38 1020.17 L1280.52 1020.17 L1280.52 1014.76 Q1278.52 1018.01 1275.52 1019.57 Q1272.53 1021.09 1268.2 1021.09 Q1262.73 1021.09 1259.48 1018.04 Q1256.27 1014.95 1256.27 1009.8 Q1256.27 1003.78 1260.28 1000.72 Q1264.32 997.669 1272.31 997.669 L1280.52 997.669 L1280.52 997.096 Q1280.52 993.054 1277.85 990.858 Q1275.21 988.63 1270.4 988.63 Q1267.34 988.63 1264.45 989.362 Q1261.55 990.094 1258.88 991.558 L1258.88 986.147 Q1262.09 984.906 1265.12 984.301 Q1268.14 983.664 1271.01 983.664 Q1278.74 983.664 1282.56 987.675 Q1286.38 991.685 1286.38 999.833 Z" fill="#000000" fill-rule="evenodd" fill-opacity="1" /><path clip-path="url(#clip950)" d="M1319.1 989.998 Q1318.11 989.425 1316.93 989.171 Q1315.79 988.884 1314.39 988.884 Q1309.42 988.884 1306.75 992.131 Q1304.11 995.345 1304.11 1001.39 L1304.11 1020.17 L1298.22 1020.17 L1298.22 984.524 L1304.11 984.524 L1304.11 990.062 Q1305.95 986.815 1308.91 985.256 Q1311.87 983.664 1316.11 983.664 Q1316.71 983.664 1317.44 983.76 Q1318.18 983.823 1319.07 983.983 L1319.1 989.998 Z" fill="#000000" fill-rule="evenodd" fill-opacity="1" /><path clip-path="url(#clip950)" d="M1347.55 1001.93 Q1347.55 995.568 1344.91 992.067 Q1342.3 988.566 1337.56 988.566 Q1332.85 988.566 1330.21 992.067 Q1327.6 995.568 1327.6 1001.93 Q1327.6 1008.27 1330.21 1011.77 Q1332.85 1015.27 1337.56 1015.27 Q1342.3 1015.27 1344.91 1011.77 Q1347.55 1008.27 1347.55 1001.93 M1353.41 1015.75 Q1353.41 1024.85 1349.37 1029.27 Q1345.32 1033.73 1336.99 1033.73 Q1333.9 1033.73 1331.16 1033.25 Q1328.42 1032.81 1325.85 1031.85 L1325.85 1026.16 Q1328.42 1027.56 1330.94 1028.22 Q1333.45 1028.89 1336.06 1028.89 Q1341.82 1028.89 1344.69 1025.87 Q1347.55 1022.88 1347.55 1016.8 L1347.55 1013.9 Q1345.74 1017.05 1342.91 1018.61 Q1340.07 1020.17 1336.13 1020.17 Q1329.57 1020.17 1325.56 1015.17 Q1321.55 1010.18 1321.55 1001.93 Q1321.55 993.658 1325.56 988.661 Q1329.57 983.664 1336.13 983.664 Q1340.07 983.664 1342.91 985.224 Q1345.74 986.783 1347.55 989.934 L1347.55 984.524 L1353.41 984.524 L1353.41 1015.75 Z" fill="#000000" fill-rule="evenodd" fill-opacity="1" /><path clip-path="url(#clip950)" d="M1395.96 1000.88 L1395.96 1003.75 L1369.04 1003.75 Q1369.42 1009.8 1372.67 1012.98 Q1375.94 1016.13 1381.77 1016.13 Q1385.14 1016.13 1388.29 1015.3 Q1391.48 1014.47 1394.6 1012.82 L1394.6 1018.36 Q1391.44 1019.69 1388.13 1020.39 Q1384.82 1021.09 1381.42 1021.09 Q1372.89 1021.09 1367.89 1016.13 Q1362.93 1011.16 1362.93 1002.7 Q1362.93 993.945 1367.64 988.82 Q1372.38 983.664 1380.4 983.664 Q1387.59 983.664 1391.76 988.311 Q1395.96 992.926 1395.96 1000.88 M1390.11 999.165 Q1390.04 994.359 1387.4 991.494 Q1384.79 988.63 1380.46 988.63 Q1375.56 988.63 1372.6 991.399 Q1369.67 994.168 1369.23 999.197 L1390.11 999.165 Z" fill="#000000" fill-rule="evenodd" fill-opacity="1" /><path clip-path="url(#clip950)" d="M1411.37 974.402 L1411.37 984.524 L1423.43 984.524 L1423.43 989.075 L1411.37 989.075 L1411.37 1008.43 Q1411.37 1012.79 1412.55 1014.03 Q1413.76 1015.27 1417.42 1015.27 L1423.43 1015.27 L1423.43 1020.17 L1417.42 1020.17 Q1410.64 1020.17 1408.06 1017.66 Q1405.48 1015.11 1405.48 1008.43 L1405.48 989.075 L1401.18 989.075 L1401.18 984.524 L1405.48 984.524 L1405.48 974.402 L1411.37 974.402 Z" fill="#000000" fill-rule="evenodd" fill-opacity="1" /><path clip-path="url(#clip950)" d="M1469.9 970.646 L1469.9 975.516 L1464.3 975.516 Q1461.15 975.516 1459.91 976.789 Q1458.7 978.062 1458.7 981.373 L1458.7 984.524 L1468.34 984.524 L1468.34 989.075 L1458.7 989.075 L1458.7 1020.17 L1452.81 1020.17 L1452.81 989.075 L1447.21 989.075 L1447.21 984.524 L1452.81 984.524 L1452.81 982.041 Q1452.81 976.089 1455.58 973.384 Q1458.35 970.646 1464.36 970.646 L1469.9 970.646 Z" fill="#000000" fill-rule="evenodd" fill-opacity="1" /><path clip-path="url(#clip950)" d="M1474.8 984.524 L1480.66 984.524 L1480.66 1020.17 L1474.8 1020.17 L1474.8 984.524 M1474.8 970.646 L1480.66 970.646 L1480.66 978.062 L1474.8 978.062 L1474.8 970.646 Z" fill="#000000" fill-rule="evenodd" fill-opacity="1" /><path clip-path="url(#clip950)" d="M1513.57 989.998 Q1512.58 989.425 1511.41 989.171 Q1510.26 988.884 1508.86 988.884 Q1503.89 988.884 1501.22 992.131 Q1498.58 995.345 1498.58 1001.39 L1498.58 1020.17 L1492.69 1020.17 L1492.69 984.524 L1498.58 984.524 L1498.58 990.062 Q1500.43 986.815 1503.39 985.256 Q1506.35 983.664 1510.58 983.664 Q1511.18 983.664 1511.92 983.76 Q1512.65 983.823 1513.54 983.983 L1513.57 989.998 Z" fill="#000000" fill-rule="evenodd" fill-opacity="1" /><path clip-path="url(#clip950)" d="M1542.44 985.574 L1542.44 991.112 Q1539.96 989.839 1537.28 989.202 Q1534.61 988.566 1531.74 988.566 Q1527.38 988.566 1525.19 989.903 Q1523.02 991.239 1523.02 993.913 Q1523.02 995.95 1524.58 997.128 Q1526.14 998.274 1530.85 999.324 L1532.86 999.769 Q1539.1 1001.11 1541.71 1003.56 Q1544.35 1005.98 1544.35 1010.34 Q1544.35 1015.3 1540.4 1018.2 Q1536.49 1021.09 1529.61 1021.09 Q1526.75 1021.09 1523.63 1020.52 Q1520.54 1019.98 1517.1 1018.87 L1517.1 1012.82 Q1520.35 1014.51 1523.5 1015.37 Q1526.65 1016.19 1529.74 1016.19 Q1533.88 1016.19 1536.11 1014.79 Q1538.33 1013.36 1538.33 1010.78 Q1538.33 1008.4 1536.71 1007.12 Q1535.12 1005.85 1529.68 1004.67 L1527.64 1004.19 Q1522.2 1003.05 1519.78 1000.69 Q1517.36 998.305 1517.36 994.168 Q1517.36 989.139 1520.92 986.402 Q1524.49 983.664 1531.04 983.664 Q1534.29 983.664 1537.16 984.142 Q1540.02 984.619 1542.44 985.574 Z" fill="#000000" fill-rule="evenodd" fill-opacity="1" /><path clip-path="url(#clip950)" d="M1559.47 974.402 L1559.47 984.524 L1571.53 984.524 L1571.53 989.075 L1559.47 989.075 L1559.47 1008.43 Q1559.47 1012.79 1560.64 1014.03 Q1561.85 1015.27 1565.51 1015.27 L1571.53 1015.27 L1571.53 1020.17 L1565.51 1020.17 Q1558.74 1020.17 1556.16 1017.66 Q1553.58 1015.11 1553.58 1008.43 L1553.58 989.075 L1549.28 989.075 L1549.28 984.524 L1553.58 984.524 L1553.58 974.402 L1559.47 974.402 Z" fill="#000000" fill-rule="evenodd" fill-opacity="1" /><polyline clip-path="url(#clip952)" style="stroke:#000000; stroke-linecap:butt; stroke-linejoin:round; stroke-width:2; stroke-opacity:0.1; fill:none" points="
  235.824,832.208 1870.61,832.208 
  "/>
<polyline clip-path="url(#clip952)" style="stroke:#000000; stroke-linecap:butt; stroke-linejoin:round; stroke-width:2; stroke-opacity:0.1; fill:none" points="
  235.824,681.597 1870.61,681.597 
  "/>
<polyline clip-path="url(#clip952)" style="stroke:#000000; stroke-linecap:butt; stroke-linejoin:round; stroke-width:2; stroke-opacity:0.1; fill:none" points="
  235.824,530.987 1870.61,530.987 
  "/>
<polyline clip-path="url(#clip952)" style="stroke:#000000; stroke-linecap:butt; stroke-linejoin:round; stroke-width:2; stroke-opacity:0.1; fill:none" points="
  235.824,380.376 1870.61,380.376 
  "/>
<polyline clip-path="url(#clip952)" style="stroke:#000000; stroke-linecap:butt; stroke-linejoin:round; stroke-width:2; stroke-opacity:0.1; fill:none" points="
  235.824,229.765 1870.61,229.765 
  "/>
<polyline clip-path="url(#clip950)" style="stroke:#000000; stroke-linecap:butt; stroke-linejoin:round; stroke-width:4; stroke-opacity:1; fill:none" points="
  235.824,872.308 235.824,189.666 
  "/>
<polyline clip-path="url(#clip950)" style="stroke:#000000; stroke-linecap:butt; stroke-linejoin:round; stroke-width:4; stroke-opacity:1; fill:none" points="
  235.824,832.208 255.441,832.208 
  "/>
<polyline clip-path="url(#clip950)" style="stroke:#000000; stroke-linecap:butt; stroke-linejoin:round; stroke-width:4; stroke-opacity:1; fill:none" points="
  235.824,681.597 255.441,681.597 
  "/>
<polyline clip-path="url(#clip950)" style="stroke:#000000; stroke-linecap:butt; stroke-linejoin:round; stroke-width:4; stroke-opacity:1; fill:none" points="
  235.824,530.987 255.441,530.987 
  "/>
<polyline clip-path="url(#clip950)" style="stroke:#000000; stroke-linecap:butt; stroke-linejoin:round; stroke-width:4; stroke-opacity:1; fill:none" points="
  235.824,380.376 255.441,380.376 
  "/>
<polyline clip-path="url(#clip950)" style="stroke:#000000; stroke-linecap:butt; stroke-linejoin:round; stroke-width:4; stroke-opacity:1; fill:none" points="
  235.824,229.765 255.441,229.765 
  "/>
<path clip-path="url(#clip950)" d="M109.486 818.007 Q105.875 818.007 104.047 821.572 Q102.241 825.113 102.241 832.243 Q102.241 839.349 104.047 842.914 Q105.875 846.456 109.486 846.456 Q113.121 846.456 114.926 842.914 Q116.755 839.349 116.755 832.243 Q116.755 825.113 114.926 821.572 Q113.121 818.007 109.486 818.007 M109.486 814.303 Q115.297 814.303 118.352 818.91 Q121.431 823.493 121.431 832.243 Q121.431 840.97 118.352 845.576 Q115.297 850.159 109.486 850.159 Q103.676 850.159 100.598 845.576 Q97.542 840.97 97.542 832.243 Q97.542 823.493 100.598 818.91 Q103.676 814.303 109.486 814.303 Z" fill="#000000" fill-rule="evenodd" fill-opacity="1" /><path clip-path="url(#clip950)" d="M129.648 843.609 L134.533 843.609 L134.533 849.488 L129.648 849.488 L129.648 843.609 Z" fill="#000000" fill-rule="evenodd" fill-opacity="1" /><path clip-path="url(#clip950)" d="M154.718 818.007 Q151.107 818.007 149.278 821.572 Q147.472 825.113 147.472 832.243 Q147.472 839.349 149.278 842.914 Q151.107 846.456 154.718 846.456 Q158.352 846.456 160.157 842.914 Q161.986 839.349 161.986 832.243 Q161.986 825.113 160.157 821.572 Q158.352 818.007 154.718 818.007 M154.718 814.303 Q160.528 814.303 163.583 818.91 Q166.662 823.493 166.662 832.243 Q166.662 840.97 163.583 845.576 Q160.528 850.159 154.718 850.159 Q148.907 850.159 145.829 845.576 Q142.773 840.97 142.773 832.243 Q142.773 823.493 145.829 818.91 Q148.907 814.303 154.718 814.303 Z" fill="#000000" fill-rule="evenodd" fill-opacity="1" /><path clip-path="url(#clip950)" d="M184.879 818.007 Q181.268 818.007 179.44 821.572 Q177.634 825.113 177.634 832.243 Q177.634 839.349 179.44 842.914 Q181.268 846.456 184.879 846.456 Q188.514 846.456 190.319 842.914 Q192.148 839.349 192.148 832.243 Q192.148 825.113 190.319 821.572 Q188.514 818.007 184.879 818.007 M184.879 814.303 Q190.69 814.303 193.745 818.91 Q196.824 823.493 196.824 832.243 Q196.824 840.97 193.745 845.576 Q190.69 850.159 184.879 850.159 Q179.069 850.159 175.991 845.576 Q172.935 840.97 172.935 832.243 Q172.935 823.493 175.991 818.91 Q179.069 814.303 184.879 814.303 Z" fill="#000000" fill-rule="evenodd" fill-opacity="1" /><path clip-path="url(#clip950)" d="M110.482 667.396 Q106.871 667.396 105.042 670.961 Q103.236 674.503 103.236 681.632 Q103.236 688.739 105.042 692.303 Q106.871 695.845 110.482 695.845 Q114.116 695.845 115.922 692.303 Q117.75 688.739 117.75 681.632 Q117.75 674.503 115.922 670.961 Q114.116 667.396 110.482 667.396 M110.482 663.692 Q116.292 663.692 119.347 668.299 Q122.426 672.882 122.426 681.632 Q122.426 690.359 119.347 694.965 Q116.292 699.549 110.482 699.549 Q104.672 699.549 101.593 694.965 Q98.5374 690.359 98.5374 681.632 Q98.5374 672.882 101.593 668.299 Q104.672 663.692 110.482 663.692 Z" fill="#000000" fill-rule="evenodd" fill-opacity="1" /><path clip-path="url(#clip950)" d="M130.644 692.998 L135.528 692.998 L135.528 698.877 L130.644 698.877 L130.644 692.998 Z" fill="#000000" fill-rule="evenodd" fill-opacity="1" /><path clip-path="url(#clip950)" d="M149.741 694.942 L166.06 694.942 L166.06 698.877 L144.116 698.877 L144.116 694.942 Q146.778 692.188 151.361 687.558 Q155.968 682.905 157.148 681.563 Q159.394 679.04 160.273 677.304 Q161.176 675.544 161.176 673.854 Q161.176 671.1 159.231 669.364 Q157.31 667.628 154.208 667.628 Q152.009 667.628 149.556 668.392 Q147.125 669.155 144.347 670.706 L144.347 665.984 Q147.171 664.85 149.625 664.271 Q152.079 663.692 154.116 663.692 Q159.486 663.692 162.681 666.378 Q165.875 669.063 165.875 673.554 Q165.875 675.683 165.065 677.604 Q164.278 679.503 162.171 682.095 Q161.593 682.766 158.491 685.984 Q155.389 689.178 149.741 694.942 Z" fill="#000000" fill-rule="evenodd" fill-opacity="1" /><path clip-path="url(#clip950)" d="M175.921 664.317 L194.278 664.317 L194.278 668.253 L180.204 668.253 L180.204 676.725 Q181.222 676.378 182.241 676.216 Q183.259 676.03 184.278 676.03 Q190.065 676.03 193.444 679.202 Q196.824 682.373 196.824 687.79 Q196.824 693.368 193.352 696.47 Q189.879 699.549 183.56 699.549 Q181.384 699.549 179.116 699.178 Q176.87 698.808 174.463 698.067 L174.463 693.368 Q176.546 694.502 178.768 695.058 Q180.991 695.614 183.467 695.614 Q187.472 695.614 189.81 693.507 Q192.148 691.401 192.148 687.79 Q192.148 684.178 189.81 682.072 Q187.472 679.966 183.467 679.966 Q181.592 679.966 179.717 680.382 Q177.866 680.799 175.921 681.678 L175.921 664.317 Z" fill="#000000" fill-rule="evenodd" fill-opacity="1" /><path clip-path="url(#clip950)" d="M109.486 516.785 Q105.875 516.785 104.047 520.35 Q102.241 523.892 102.241 531.021 Q102.241 538.128 104.047 541.693 Q105.875 545.234 109.486 545.234 Q113.121 545.234 114.926 541.693 Q116.755 538.128 116.755 531.021 Q116.755 523.892 114.926 520.35 Q113.121 516.785 109.486 516.785 M109.486 513.082 Q115.297 513.082 118.352 517.688 Q121.431 522.272 121.431 531.021 Q121.431 539.748 118.352 544.355 Q115.297 548.938 109.486 548.938 Q103.676 548.938 100.598 544.355 Q97.542 539.748 97.542 531.021 Q97.542 522.272 100.598 517.688 Q103.676 513.082 109.486 513.082 Z" fill="#000000" fill-rule="evenodd" fill-opacity="1" /><path clip-path="url(#clip950)" d="M129.648 542.387 L134.533 542.387 L134.533 548.267 L129.648 548.267 L129.648 542.387 Z" fill="#000000" fill-rule="evenodd" fill-opacity="1" /><path clip-path="url(#clip950)" d="M144.764 513.707 L163.12 513.707 L163.12 517.642 L149.046 517.642 L149.046 526.114 Q150.065 525.767 151.083 525.605 Q152.102 525.42 153.12 525.42 Q158.907 525.42 162.287 528.591 Q165.667 531.762 165.667 537.179 Q165.667 542.758 162.194 545.859 Q158.722 548.938 152.403 548.938 Q150.227 548.938 147.958 548.568 Q145.713 548.197 143.306 547.457 L143.306 542.758 Q145.389 543.892 147.611 544.447 Q149.833 545.003 152.31 545.003 Q156.315 545.003 158.653 542.896 Q160.991 540.79 160.991 537.179 Q160.991 533.568 158.653 531.461 Q156.315 529.355 152.31 529.355 Q150.435 529.355 148.56 529.771 Q146.708 530.188 144.764 531.068 L144.764 513.707 Z" fill="#000000" fill-rule="evenodd" fill-opacity="1" /><path clip-path="url(#clip950)" d="M184.879 516.785 Q181.268 516.785 179.44 520.35 Q177.634 523.892 177.634 531.021 Q177.634 538.128 179.44 541.693 Q181.268 545.234 184.879 545.234 Q188.514 545.234 190.319 541.693 Q192.148 538.128 192.148 531.021 Q192.148 523.892 190.319 520.35 Q188.514 516.785 184.879 516.785 M184.879 513.082 Q190.69 513.082 193.745 517.688 Q196.824 522.272 196.824 531.021 Q196.824 539.748 193.745 544.355 Q190.69 548.938 184.879 548.938 Q179.069 548.938 175.991 544.355 Q172.935 539.748 172.935 531.021 Q172.935 522.272 175.991 517.688 Q179.069 513.082 184.879 513.082 Z" fill="#000000" fill-rule="evenodd" fill-opacity="1" /><path clip-path="url(#clip950)" d="M110.482 366.175 Q106.871 366.175 105.042 369.739 Q103.236 373.281 103.236 380.411 Q103.236 387.517 105.042 391.082 Q106.871 394.624 110.482 394.624 Q114.116 394.624 115.922 391.082 Q117.75 387.517 117.75 380.411 Q117.75 373.281 115.922 369.739 Q114.116 366.175 110.482 366.175 M110.482 362.471 Q116.292 362.471 119.347 367.077 Q122.426 371.661 122.426 380.411 Q122.426 389.138 119.347 393.744 Q116.292 398.327 110.482 398.327 Q104.672 398.327 101.593 393.744 Q98.5374 389.138 98.5374 380.411 Q98.5374 371.661 101.593 367.077 Q104.672 362.471 110.482 362.471 Z" fill="#000000" fill-rule="evenodd" fill-opacity="1" /><path clip-path="url(#clip950)" d="M130.644 391.776 L135.528 391.776 L135.528 397.656 L130.644 397.656 L130.644 391.776 Z" fill="#000000" fill-rule="evenodd" fill-opacity="1" /><path clip-path="url(#clip950)" d="M144.532 363.096 L166.755 363.096 L166.755 365.087 L154.208 397.656 L149.324 397.656 L161.13 367.031 L144.532 367.031 L144.532 363.096 Z" fill="#000000" fill-rule="evenodd" fill-opacity="1" /><path clip-path="url(#clip950)" d="M175.921 363.096 L194.278 363.096 L194.278 367.031 L180.204 367.031 L180.204 375.503 Q181.222 375.156 182.241 374.994 Q183.259 374.809 184.278 374.809 Q190.065 374.809 193.444 377.98 Q196.824 381.151 196.824 386.568 Q196.824 392.147 193.352 395.249 Q189.879 398.327 183.56 398.327 Q181.384 398.327 179.116 397.957 Q176.87 397.587 174.463 396.846 L174.463 392.147 Q176.546 393.281 178.768 393.837 Q180.991 394.392 183.467 394.392 Q187.472 394.392 189.81 392.286 Q192.148 390.179 192.148 386.568 Q192.148 382.957 189.81 380.851 Q187.472 378.744 183.467 378.744 Q181.592 378.744 179.717 379.161 Q177.866 379.577 175.921 380.457 L175.921 363.096 Z" fill="#000000" fill-rule="evenodd" fill-opacity="1" /><path clip-path="url(#clip950)" d="M100.297 243.11 L107.935 243.11 L107.935 216.745 L99.6253 218.411 L99.6253 214.152 L107.889 212.485 L112.565 212.485 L112.565 243.11 L120.204 243.11 L120.204 247.045 L100.297 247.045 L100.297 243.11 Z" fill="#000000" fill-rule="evenodd" fill-opacity="1" /><path clip-path="url(#clip950)" d="M129.648 241.166 L134.533 241.166 L134.533 247.045 L129.648 247.045 L129.648 241.166 Z" fill="#000000" fill-rule="evenodd" fill-opacity="1" /><path clip-path="url(#clip950)" d="M154.718 215.564 Q151.107 215.564 149.278 219.129 Q147.472 222.67 147.472 229.8 Q147.472 236.906 149.278 240.471 Q151.107 244.013 154.718 244.013 Q158.352 244.013 160.157 240.471 Q161.986 236.906 161.986 229.8 Q161.986 222.67 160.157 219.129 Q158.352 215.564 154.718 215.564 M154.718 211.86 Q160.528 211.86 163.583 216.467 Q166.662 221.05 166.662 229.8 Q166.662 238.527 163.583 243.133 Q160.528 247.717 154.718 247.717 Q148.907 247.717 145.829 243.133 Q142.773 238.527 142.773 229.8 Q142.773 221.05 145.829 216.467 Q148.907 211.86 154.718 211.86 Z" fill="#000000" fill-rule="evenodd" fill-opacity="1" /><path clip-path="url(#clip950)" d="M184.879 215.564 Q181.268 215.564 179.44 219.129 Q177.634 222.67 177.634 229.8 Q177.634 236.906 179.44 240.471 Q181.268 244.013 184.879 244.013 Q188.514 244.013 190.319 240.471 Q192.148 236.906 192.148 229.8 Q192.148 222.67 190.319 219.129 Q188.514 215.564 184.879 215.564 M184.879 211.86 Q190.69 211.86 193.745 216.467 Q196.824 221.05 196.824 229.8 Q196.824 238.527 193.745 243.133 Q190.69 247.717 184.879 247.717 Q179.069 247.717 175.991 243.133 Q172.935 238.527 172.935 229.8 Q172.935 221.05 175.991 216.467 Q179.069 211.86 184.879 211.86 Z" fill="#000000" fill-rule="evenodd" fill-opacity="1" /><path clip-path="url(#clip950)" d="M14.1126 797.853 Q13.5396 798.84 13.285 800.017 Q12.9986 801.163 12.9986 802.564 Q12.9986 807.529 16.2451 810.203 Q19.4597 812.844 25.5072 812.844 L44.286 812.844 L44.286 818.733 L8.63805 818.733 L8.63805 812.844 L14.1762 812.844 Q10.9297 810.998 9.3701 808.038 Q7.77868 805.078 7.77868 800.845 Q7.77868 800.24 7.87416 799.508 Q7.93782 798.776 8.09696 797.885 L14.1126 797.853 Z" fill="#000000" fill-rule="evenodd" fill-opacity="1" /><path clip-path="url(#clip950)" d="M26.3665 775.509 Q26.3665 782.607 27.9898 785.344 Q29.613 788.082 33.528 788.082 Q36.6472 788.082 38.4932 786.045 Q40.3074 783.976 40.3074 780.443 Q40.3074 775.573 36.87 772.645 Q33.4006 769.685 27.6715 769.685 L26.3665 769.685 L26.3665 775.509 M23.9476 763.828 L44.286 763.828 L44.286 769.685 L38.8752 769.685 Q42.1217 771.69 43.6813 774.682 Q45.209 777.674 45.209 782.002 Q45.209 787.477 42.1535 790.723 Q39.0661 793.938 33.9099 793.938 Q27.8943 793.938 24.8388 789.928 Q21.7832 785.886 21.7832 777.897 L21.7832 769.685 L21.2103 769.685 Q17.1681 769.685 14.9719 772.358 Q12.7439 775 12.7439 779.806 Q12.7439 782.862 13.476 785.758 Q14.208 788.655 15.6722 791.328 L10.2613 791.328 Q9.01999 788.114 8.41525 785.09 Q7.77868 782.066 7.77868 779.202 Q7.77868 771.467 11.7891 767.648 Q15.7995 763.828 23.9476 763.828 Z" fill="#000000" fill-rule="evenodd" fill-opacity="1" /><path clip-path="url(#clip950)" d="M-1.48343 745.973 L8.63805 745.973 L8.63805 733.91 L13.1895 733.91 L13.1895 745.973 L32.5413 745.973 Q36.9018 745.973 38.1431 744.795 Q39.3844 743.585 39.3844 739.925 L39.3844 733.91 L44.286 733.91 L44.286 739.925 Q44.286 746.705 41.7715 749.283 Q39.2253 751.861 32.5413 751.861 L13.1895 751.861 L13.1895 756.158 L8.63805 756.158 L8.63805 751.861 L-1.48343 751.861 L-1.48343 745.973 Z" fill="#000000" fill-rule="evenodd" fill-opacity="1" /><path clip-path="url(#clip950)" d="M8.63805 726.207 L8.63805 720.351 L44.286 720.351 L44.286 726.207 L8.63805 726.207 M-5.23919 726.207 L-5.23919 720.351 L2.17685 720.351 L2.17685 726.207 L-5.23919 726.207 Z" fill="#000000" fill-rule="evenodd" fill-opacity="1" /><path clip-path="url(#clip950)" d="M12.7439 694.283 Q12.7439 698.994 16.436 701.731 Q20.0963 704.468 26.4939 704.468 Q32.8914 704.468 36.5835 701.763 Q40.2438 699.025 40.2438 694.283 Q40.2438 689.604 36.5517 686.867 Q32.8596 684.13 26.4939 684.13 Q20.16 684.13 16.4679 686.867 Q12.7439 689.604 12.7439 694.283 M7.77868 694.283 Q7.77868 686.644 12.7439 682.284 Q17.7092 677.923 26.4939 677.923 Q35.2467 677.923 40.2438 682.284 Q45.209 686.644 45.209 694.283 Q45.209 701.954 40.2438 706.314 Q35.2467 710.643 26.4939 710.643 Q17.7092 710.643 12.7439 706.314 Q7.77868 701.954 7.77868 694.283 Z" fill="#000000" fill-rule="evenodd" fill-opacity="1" /><path clip-path="url(#clip950)" d="M12.7439 633.681 Q12.7439 638.392 16.436 641.129 Q20.0963 643.867 26.4939 643.867 Q32.8914 643.867 36.5835 641.161 Q40.2438 638.424 40.2438 633.681 Q40.2438 629.003 36.5517 626.265 Q32.8596 623.528 26.4939 623.528 Q20.16 623.528 16.4679 626.265 Q12.7439 629.003 12.7439 633.681 M7.77868 633.681 Q7.77868 626.043 12.7439 621.682 Q17.7092 617.322 26.4939 617.322 Q35.2467 617.322 40.2438 621.682 Q45.209 626.043 45.209 633.681 Q45.209 641.352 40.2438 645.713 Q35.2467 650.041 26.4939 650.041 Q17.7092 650.041 12.7439 645.713 Q7.77868 641.352 7.77868 633.681 Z" fill="#000000" fill-rule="evenodd" fill-opacity="1" /><path clip-path="url(#clip950)" d="M-5.23919 589.567 L-0.369428 589.567 L-0.369428 595.169 Q-0.369428 598.32 0.903713 599.561 Q2.17685 600.771 5.48702 600.771 L8.63805 600.771 L8.63805 591.127 L13.1895 591.127 L13.1895 600.771 L44.286 600.771 L44.286 606.659 L13.1895 606.659 L13.1895 612.261 L8.63805 612.261 L8.63805 606.659 L6.15542 606.659 Q0.203485 606.659 -2.50194 603.89 Q-5.23919 601.121 -5.23919 595.105 L-5.23919 589.567 Z" fill="#000000" fill-rule="evenodd" fill-opacity="1" /><path clip-path="url(#clip950)" d="M14.1126 543.288 Q13.5396 544.275 13.285 545.453 Q12.9986 546.599 12.9986 547.999 Q12.9986 552.964 16.2451 555.638 Q19.4597 558.28 25.5072 558.28 L44.286 558.28 L44.286 564.168 L8.63805 564.168 L8.63805 558.28 L14.1762 558.28 Q10.9297 556.434 9.3701 553.474 Q7.77868 550.514 7.77868 546.28 Q7.77868 545.676 7.87416 544.944 Q7.93782 544.211 8.09696 543.32 L14.1126 543.288 Z" fill="#000000" fill-rule="evenodd" fill-opacity="1" /><path clip-path="url(#clip950)" d="M24.9979 508.086 L27.8625 508.086 L27.8625 535.013 Q33.9099 534.631 37.0928 531.385 Q40.2438 528.106 40.2438 522.282 Q40.2438 518.908 39.4162 515.757 Q38.5887 512.574 36.9336 509.455 L42.4718 509.455 Q43.8086 512.606 44.5088 515.916 Q45.209 519.226 45.209 522.632 Q45.209 531.162 40.2438 536.159 Q35.2785 541.124 26.8121 541.124 Q18.0593 541.124 12.9349 536.414 Q7.77868 531.671 7.77868 523.65 Q7.77868 516.457 12.4256 512.287 Q17.0408 508.086 24.9979 508.086 M23.2792 513.943 Q18.4731 514.006 15.6085 516.648 Q12.7439 519.258 12.7439 523.587 Q12.7439 528.488 15.513 531.448 Q18.2821 534.376 23.311 534.822 L23.2792 513.943 Z" fill="#000000" fill-rule="evenodd" fill-opacity="1" /><path clip-path="url(#clip950)" d="M9.68839 475.748 L15.2266 475.748 Q13.9534 478.231 13.3168 480.905 Q12.6803 483.578 12.6803 486.443 Q12.6803 490.803 14.0171 492.999 Q15.3539 495.164 18.0275 495.164 Q20.0645 495.164 21.2421 493.604 Q22.388 492.045 23.4383 487.334 L23.8839 485.329 Q25.2207 479.09 27.6715 476.48 Q30.0905 473.839 34.451 473.839 Q39.4162 473.839 42.3126 477.785 Q45.209 481.7 45.209 488.575 Q45.209 491.44 44.6361 494.559 Q44.095 497.646 42.981 501.084 L36.9336 501.084 Q38.6205 497.837 39.4799 494.686 Q40.3074 491.535 40.3074 488.448 Q40.3074 484.31 38.907 482.082 Q37.4747 479.854 34.8966 479.854 Q32.5094 479.854 31.2363 481.477 Q29.9632 483.069 28.7855 488.512 L28.3081 490.549 Q27.1623 495.991 24.8069 498.41 Q22.4198 500.829 18.2821 500.829 Q13.2532 500.829 10.5159 497.264 Q7.77868 493.7 7.77868 487.143 Q7.77868 483.896 8.2561 481.032 Q8.73353 478.167 9.68839 475.748 Z" fill="#000000" fill-rule="evenodd" fill-opacity="1" /><path clip-path="url(#clip950)" d="M38.9388 458.847 L57.845 458.847 L57.845 464.736 L8.63805 464.736 L8.63805 458.847 L14.0489 458.847 Q10.866 457.001 9.33827 454.2 Q7.77868 451.368 7.77868 447.453 Q7.77868 440.96 12.9349 436.918 Q18.0911 432.843 26.4939 432.843 Q34.8966 432.843 40.0528 436.918 Q45.209 440.96 45.209 447.453 Q45.209 451.368 43.6813 454.2 Q42.1217 457.001 38.9388 458.847 M26.4939 438.923 Q20.0327 438.923 16.3724 441.596 Q12.6803 444.238 12.6803 448.885 Q12.6803 453.532 16.3724 456.206 Q20.0327 458.847 26.4939 458.847 Q32.955 458.847 36.6472 456.206 Q40.3074 453.532 40.3074 448.885 Q40.3074 444.238 36.6472 441.596 Q32.955 438.923 26.4939 438.923 Z" fill="#000000" fill-rule="evenodd" fill-opacity="1" /><path clip-path="url(#clip950)" d="M12.7439 409.322 Q12.7439 414.033 16.436 416.77 Q20.0963 419.507 26.4939 419.507 Q32.8914 419.507 36.5835 416.802 Q40.2438 414.065 40.2438 409.322 Q40.2438 404.643 36.5517 401.906 Q32.8596 399.169 26.4939 399.169 Q20.16 399.169 16.4679 401.906 Q12.7439 404.643 12.7439 409.322 M7.77868 409.322 Q7.77868 401.683 12.7439 397.323 Q17.7092 392.962 26.4939 392.962 Q35.2467 392.962 40.2438 397.323 Q45.209 401.683 45.209 409.322 Q45.209 416.993 40.2438 421.353 Q35.2467 425.682 26.4939 425.682 Q17.7092 425.682 12.7439 421.353 Q7.77868 416.993 7.77868 409.322 Z" fill="#000000" fill-rule="evenodd" fill-opacity="1" /><path clip-path="url(#clip950)" d="M22.7699 353.622 L44.286 353.622 L44.286 359.479 L22.9609 359.479 Q17.9001 359.479 15.3857 361.452 Q12.8712 363.425 12.8712 367.372 Q12.8712 372.115 15.895 374.852 Q18.9187 377.589 24.1385 377.589 L44.286 377.589 L44.286 383.477 L8.63805 383.477 L8.63805 377.589 L14.1762 377.589 Q10.9615 375.488 9.3701 372.656 Q7.77868 369.791 7.77868 366.067 Q7.77868 359.924 11.5981 356.773 Q15.3857 353.622 22.7699 353.622 Z" fill="#000000" fill-rule="evenodd" fill-opacity="1" /><path clip-path="url(#clip950)" d="M9.68839 319.216 L15.2266 319.216 Q13.9534 321.698 13.3168 324.372 Q12.6803 327.045 12.6803 329.91 Q12.6803 334.27 14.0171 336.467 Q15.3539 338.631 18.0275 338.631 Q20.0645 338.631 21.2421 337.071 Q22.388 335.512 23.4383 330.801 L23.8839 328.796 Q25.2207 322.558 27.6715 319.948 Q30.0905 317.306 34.451 317.306 Q39.4162 317.306 42.3126 321.253 Q45.209 325.168 45.209 332.042 Q45.209 334.907 44.6361 338.026 Q44.095 341.114 42.981 344.551 L36.9336 344.551 Q38.6205 341.305 39.4799 338.154 Q40.3074 335.003 40.3074 331.915 Q40.3074 327.777 38.907 325.549 Q37.4747 323.321 34.8966 323.321 Q32.5094 323.321 31.2363 324.945 Q29.9632 326.536 28.7855 331.979 L28.3081 334.016 Q27.1623 339.459 24.8069 341.878 Q22.4198 344.296 18.2821 344.296 Q13.2532 344.296 10.5159 340.732 Q7.77868 337.167 7.77868 330.61 Q7.77868 327.364 8.2561 324.499 Q8.73353 321.635 9.68839 319.216 Z" fill="#000000" fill-rule="evenodd" fill-opacity="1" /><path clip-path="url(#clip950)" d="M24.9979 277.488 L27.8625 277.488 L27.8625 304.415 Q33.9099 304.033 37.0928 300.787 Q40.2438 297.509 40.2438 291.684 Q40.2438 288.31 39.4162 285.159 Q38.5887 281.976 36.9336 278.857 L42.4718 278.857 Q43.8086 282.008 44.5088 285.318 Q45.209 288.628 45.209 292.034 Q45.209 300.564 40.2438 305.561 Q35.2785 310.526 26.8121 310.526 Q18.0593 310.526 12.9349 305.816 Q7.77868 301.073 7.77868 293.053 Q7.77868 285.859 12.4256 281.69 Q17.0408 277.488 24.9979 277.488 M23.2792 283.345 Q18.4731 283.408 15.6085 286.05 Q12.7439 288.66 12.7439 292.989 Q12.7439 297.89 15.513 300.851 Q18.2821 303.779 23.311 304.224 L23.2792 283.345 Z" fill="#000000" fill-rule="evenodd" fill-opacity="1" /><path clip-path="url(#clip950)" d="M9.68839 245.151 L15.2266 245.151 Q13.9534 247.633 13.3168 250.307 Q12.6803 252.98 12.6803 255.845 Q12.6803 260.205 14.0171 262.402 Q15.3539 264.566 18.0275 264.566 Q20.0645 264.566 21.2421 263.006 Q22.388 261.447 23.4383 256.736 L23.8839 254.731 Q25.2207 248.493 27.6715 245.883 Q30.0905 243.241 34.451 243.241 Q39.4162 243.241 42.3126 247.188 Q45.209 251.103 45.209 257.977 Q45.209 260.842 44.6361 263.961 Q44.095 267.049 42.981 270.486 L36.9336 270.486 Q38.6205 267.24 39.4799 264.089 Q40.3074 260.938 40.3074 257.85 Q40.3074 253.712 38.907 251.484 Q37.4747 249.256 34.8966 249.256 Q32.5094 249.256 31.2363 250.88 Q29.9632 252.471 28.7855 257.914 L28.3081 259.951 Q27.1623 265.394 24.8069 267.813 Q22.4198 270.231 18.2821 270.231 Q13.2532 270.231 10.5159 266.667 Q7.77868 263.102 7.77868 256.545 Q7.77868 253.299 8.2561 250.434 Q8.73353 247.57 9.68839 245.151 Z" fill="#000000" fill-rule="evenodd" fill-opacity="1" /><path clip-path="url(#clip952)" d="
M282.091 229.765 L378.482 229.765 L1246 229.765 L1535.17 229.765 L1631.56 229.765 L1727.95 229.765 L1824.35 229.765 L1824.35 832.208 L1727.95 832.208 L1631.56 832.208 
  L1535.17 832.208 L1246 832.208 L378.482 832.208 L282.091 832.208  Z
  " fill="#006d60" fill-rule="evenodd" fill-opacity="1"/>
<polyline clip-path="url(#clip952)" style="stroke:#000000; stroke-linecap:butt; stroke-linejoin:round; stroke-width:4; stroke-opacity:1; fill:none" points="
  282.091,229.765 378.482,229.765 1246,229.765 1535.17,229.765 1631.56,229.765 1727.95,229.765 1824.35,229.765 
  "/>
<path clip-path="url(#clip952)" d="
M282.091 229.765 L378.482 229.765 L1246 252.643 L1535.17 245.017 L1631.56 277.961 L1727.95 350.254 L1824.35 305.071 L1824.35 832.208 L1727.95 832.208 L1631.56 832.208 
  L1535.17 832.208 L1246 832.208 L378.482 832.208 L282.091 832.208  Z
  " fill="#008569" fill-rule="evenodd" fill-opacity="1"/>
<polyline clip-path="url(#clip952)" style="stroke:#000000; stroke-linecap:butt; stroke-linejoin:round; stroke-width:4; stroke-opacity:1; fill:none" points="
  282.091,229.765 378.482,229.765 1246,252.643 1535.17,245.017 1631.56,277.961 1727.95,350.254 1824.35,305.071 
  "/>
<path clip-path="url(#clip952)" d="
M282.091 245.017 L378.482 237.391 L1246 283.146 L1535.17 306.024 L1631.56 350.254 L1727.95 494.84 L1824.35 415.132 L1824.35 832.208 L1727.95 832.208 L1631.56 832.208 
  L1535.17 832.208 L1246 832.208 L378.482 832.208 L282.091 832.208  Z
  " fill="#009e73" fill-rule="evenodd" fill-opacity="1"/>
<polyline clip-path="url(#clip952)" style="stroke:#000000; stroke-linecap:butt; stroke-linejoin:round; stroke-width:4; stroke-opacity:1; fill:none" points="
  282.091,245.017 378.482,237.391 1246,283.146 1535.17,306.024 1631.56,350.254 1727.95,494.84 1824.35,415.132 
  "/>
<path clip-path="url(#clip952)" d="
M282.091 290.772 L378.482 283.146 L1246 382.282 L1535.17 359.405 L1631.56 470.742 L1727.95 615.329 L1824.35 519.401 L1824.35 832.208 L1727.95 832.208 L1631.56 832.208 
  L1535.17 832.208 L1246 832.208 L378.482 832.208 L282.091 832.208  Z
  " fill="#77c6b0" fill-rule="evenodd" fill-opacity="1"/>
<polyline clip-path="url(#clip952)" style="stroke:#000000; stroke-linecap:butt; stroke-linejoin:round; stroke-width:4; stroke-opacity:1; fill:none" points="
  282.091,290.772 378.482,283.146 1246,382.282 1535.17,359.405 1631.56,470.742 1727.95,615.329 1824.35,519.401 
  "/>
<path clip-path="url(#clip952)" d="
M282.091 389.908 L378.482 359.405 L1246 496.67 L1535.17 481.419 L1631.56 663.524 L1727.95 663.524 L1824.35 617.878 L1824.35 832.208 L1727.95 832.208 L1631.56 832.208 
  L1535.17 832.208 L1246 832.208 L378.482 832.208 L282.091 832.208  Z
  " fill="#eeeeee" fill-rule="evenodd" fill-opacity="1"/>
<polyline clip-path="url(#clip952)" style="stroke:#000000; stroke-linecap:butt; stroke-linejoin:round; stroke-width:4; stroke-opacity:1; fill:none" points="
  282.091,389.908 378.482,359.405 1246,496.67 1535.17,481.419 1631.56,663.524 1727.95,663.524 1824.35,617.878 
  "/>
<path clip-path="url(#clip952)" d="
M282.091 687.317 L378.482 664.439 L1246 748.324 L1535.17 755.95 L1631.56 832.208 L1727.95 832.208 L1824.35 762.696 L1824.35 832.208 L1727.95 832.208 L1631.56 832.208 
  L1535.17 832.208 L1246 832.208 L378.482 832.208 L282.091 832.208  Z
  " fill="#ddb3ca" fill-rule="evenodd" fill-opacity="1"/>
<polyline clip-path="url(#clip952)" style="stroke:#000000; stroke-linecap:butt; stroke-linejoin:round; stroke-width:4; stroke-opacity:1; fill:none" points="
  282.091,687.317 378.482,664.439 1246,748.324 1535.17,755.95 1631.56,832.208 1727.95,832.208 1824.35,762.696 
  "/>
<path clip-path="url(#clip952)" d="
M282.091 786.453 L378.482 771.201 L1246 824.582 L1535.17 824.582 L1631.56 832.208 L1727.95 832.208 L1824.35 791.659 L1824.35 832.208 L1727.95 832.208 L1631.56 832.208 
  L1535.17 832.208 L1246 832.208 L378.482 832.208 L282.091 832.208  Z
  " fill="#cc79a7" fill-rule="evenodd" fill-opacity="1"/>
<polyline clip-path="url(#clip952)" style="stroke:#000000; stroke-linecap:butt; stroke-linejoin:round; stroke-width:4; stroke-opacity:1; fill:none" points="
  282.091,786.453 378.482,771.201 1246,824.582 1535.17,824.582 1631.56,832.208 1727.95,832.208 1824.35,791.659 
  "/>
<path clip-path="url(#clip952)" d="
M282.091 816.956 L378.482 824.582 L1246 832.208 L1535.17 832.208 L1631.56 832.208 L1727.95 832.208 L1824.35 809.037 L1824.35 832.208 L1727.95 832.208 L1631.56 832.208 
  L1535.17 832.208 L1246 832.208 L378.482 832.208 L282.091 832.208  Z
  " fill="#b55585" fill-rule="evenodd" fill-opacity="1"/>
<polyline clip-path="url(#clip952)" style="stroke:#000000; stroke-linecap:butt; stroke-linejoin:round; stroke-width:4; stroke-opacity:1; fill:none" points="
  282.091,816.956 378.482,824.582 1246,832.208 1535.17,832.208 1631.56,832.208 1727.95,832.208 1824.35,809.037 
  "/>
<path clip-path="url(#clip952)" d="
M282.091 824.582 L378.482 832.208 L1246 832.208 L1535.17 832.208 L1631.56 832.208 L1727.95 832.208 L1824.35 826.415 L1824.35 832.208 L1727.95 832.208 L1631.56 832.208 
  L1535.17 832.208 L1246 832.208 L378.482 832.208 L282.091 832.208  Z
  " fill="#9e3264" fill-rule="evenodd" fill-opacity="1"/>
<polyline clip-path="url(#clip952)" style="stroke:#000000; stroke-linecap:butt; stroke-linejoin:round; stroke-width:4; stroke-opacity:1; fill:none" points="
  282.091,824.582 378.482,832.208 1246,832.208 1535.17,832.208 1631.56,832.208 1727.95,832.208 1824.35,826.415 
  "/>
<path clip-path="url(#clip950)" d="
M1947.84 833.387 L2552.76 833.387 L2552.76 168.107 L1947.84 168.107  Z
  " fill="#ffffff" fill-rule="evenodd" fill-opacity="1"/>
<polyline clip-path="url(#clip950)" style="stroke:#000000; stroke-linecap:butt; stroke-linejoin:round; stroke-width:4; stroke-opacity:1; fill:none" points="
  1947.84,833.387 2552.76,833.387 2552.76,168.107 1947.84,168.107 1947.84,833.387 
  "/>
<path clip-path="url(#clip950)" d="M2080.08 216.058 L2080.08 229.808 L2075.79 229.808 L2075.79 194.021 L2080.08 194.021 L2080.08 197.956 Q2081.42 195.641 2083.46 194.53 Q2085.52 193.396 2088.36 193.396 Q2093.09 193.396 2096.02 197.146 Q2098.99 200.896 2098.99 207.007 Q2098.99 213.118 2096.02 216.868 Q2093.09 220.618 2088.36 220.618 Q2085.52 220.618 2083.46 219.507 Q2081.42 218.373 2080.08 216.058 M2094.57 207.007 Q2094.57 202.308 2092.62 199.646 Q2090.7 196.961 2087.32 196.961 Q2083.94 196.961 2082 199.646 Q2080.08 202.308 2080.08 207.007 Q2080.08 211.706 2082 214.391 Q2083.94 217.053 2087.32 217.053 Q2090.7 217.053 2092.62 214.391 Q2094.57 211.706 2094.57 207.007 Z" fill="#000000" fill-rule="evenodd" fill-opacity="1" /><path clip-path="url(#clip950)" d="M2121.07 198.002 Q2120.35 197.586 2119.5 197.401 Q2118.66 197.192 2117.65 197.192 Q2114.03 197.192 2112.09 199.553 Q2110.17 201.891 2110.17 206.289 L2110.17 219.947 L2105.89 219.947 L2105.89 194.021 L2110.17 194.021 L2110.17 198.049 Q2111.51 195.688 2113.66 194.553 Q2115.82 193.396 2118.9 193.396 Q2119.33 193.396 2119.87 193.465 Q2120.4 193.512 2121.05 193.627 L2121.07 198.002 Z" fill="#000000" fill-rule="evenodd" fill-opacity="1" /><path clip-path="url(#clip950)" d="M2146.67 205.919 L2146.67 208.002 L2127.09 208.002 Q2127.37 212.4 2129.73 214.715 Q2132.11 217.007 2136.35 217.007 Q2138.8 217.007 2141.09 216.405 Q2143.41 215.803 2145.68 214.6 L2145.68 218.627 Q2143.39 219.6 2140.98 220.109 Q2138.57 220.618 2136.09 220.618 Q2129.89 220.618 2126.26 217.007 Q2122.65 213.396 2122.65 207.238 Q2122.65 200.873 2126.07 197.146 Q2129.52 193.396 2135.35 193.396 Q2140.58 193.396 2143.62 196.776 Q2146.67 200.132 2146.67 205.919 M2142.41 204.669 Q2142.37 201.174 2140.45 199.09 Q2138.55 197.007 2135.4 197.007 Q2131.83 197.007 2129.68 199.021 Q2127.55 201.035 2127.23 204.692 L2142.41 204.669 Z" fill="#000000" fill-rule="evenodd" fill-opacity="1" /><path clip-path="url(#clip950)" d="M2166.79 183.928 L2166.79 187.47 L2162.71 187.47 Q2160.42 187.47 2159.52 188.396 Q2158.64 189.322 2158.64 191.729 L2158.64 194.021 L2165.65 194.021 L2165.65 197.331 L2158.64 197.331 L2158.64 219.947 L2154.36 219.947 L2154.36 197.331 L2150.28 197.331 L2150.28 194.021 L2154.36 194.021 L2154.36 192.215 Q2154.36 187.887 2156.37 185.919 Q2158.39 183.928 2162.76 183.928 L2166.79 183.928 Z" fill="#000000" fill-rule="evenodd" fill-opacity="1" /><path clip-path="url(#clip950)" d="M2192.53 205.919 L2192.53 208.002 L2172.95 208.002 Q2173.22 212.4 2175.58 214.715 Q2177.97 217.007 2182.21 217.007 Q2184.66 217.007 2186.95 216.405 Q2189.27 215.803 2191.53 214.6 L2191.53 218.627 Q2189.24 219.6 2186.83 220.109 Q2184.43 220.618 2181.95 220.618 Q2175.75 220.618 2172.11 217.007 Q2168.5 213.396 2168.5 207.238 Q2168.5 200.873 2171.93 197.146 Q2175.38 193.396 2181.21 193.396 Q2186.44 193.396 2189.47 196.776 Q2192.53 200.132 2192.53 205.919 M2188.27 204.669 Q2188.22 201.174 2186.3 199.09 Q2184.4 197.007 2181.26 197.007 Q2177.69 197.007 2175.54 199.021 Q2173.41 201.035 2173.08 204.692 L2188.27 204.669 Z" fill="#000000" fill-rule="evenodd" fill-opacity="1" /><path clip-path="url(#clip950)" d="M2214.54 198.002 Q2213.83 197.586 2212.97 197.401 Q2212.14 197.192 2211.12 197.192 Q2207.51 197.192 2205.56 199.553 Q2203.64 201.891 2203.64 206.289 L2203.64 219.947 L2199.36 219.947 L2199.36 194.021 L2203.64 194.021 L2203.64 198.049 Q2204.98 195.688 2207.14 194.553 Q2209.29 193.396 2212.37 193.396 Q2212.81 193.396 2213.34 193.465 Q2213.87 193.512 2214.52 193.627 L2214.54 198.002 Z" fill="#000000" fill-rule="evenodd" fill-opacity="1" /><path clip-path="url(#clip950)" d="M2240.14 205.919 L2240.14 208.002 L2220.56 208.002 Q2220.84 212.4 2223.2 214.715 Q2225.58 217.007 2229.82 217.007 Q2232.27 217.007 2234.57 216.405 Q2236.88 215.803 2239.15 214.6 L2239.15 218.627 Q2236.86 219.6 2234.45 220.109 Q2232.04 220.618 2229.57 220.618 Q2223.36 220.618 2219.73 217.007 Q2216.12 213.396 2216.12 207.238 Q2216.12 200.873 2219.54 197.146 Q2222.99 193.396 2228.83 193.396 Q2234.06 193.396 2237.09 196.776 Q2240.14 200.132 2240.14 205.919 M2235.89 204.669 Q2235.84 201.174 2233.92 199.09 Q2232.02 197.007 2228.87 197.007 Q2225.31 197.007 2223.15 199.021 Q2221.02 201.035 2220.7 204.692 L2235.89 204.669 Z" fill="#000000" fill-rule="evenodd" fill-opacity="1" /><path clip-path="url(#clip950)" d="M2268.69 204.299 L2268.69 219.947 L2264.43 219.947 L2264.43 204.438 Q2264.43 200.757 2262.99 198.928 Q2261.56 197.1 2258.69 197.1 Q2255.24 197.1 2253.25 199.299 Q2251.26 201.498 2251.26 205.294 L2251.26 219.947 L2246.97 219.947 L2246.97 194.021 L2251.26 194.021 L2251.26 198.049 Q2252.78 195.711 2254.84 194.553 Q2256.93 193.396 2259.64 193.396 Q2264.1 193.396 2266.39 196.174 Q2268.69 198.928 2268.69 204.299 Z" fill="#000000" fill-rule="evenodd" fill-opacity="1" /><path clip-path="url(#clip950)" d="M2295.84 195.016 L2295.84 198.998 Q2294.03 198.002 2292.2 197.516 Q2290.4 197.007 2288.55 197.007 Q2284.4 197.007 2282.11 199.646 Q2279.82 202.262 2279.82 207.007 Q2279.82 211.752 2282.11 214.391 Q2284.4 217.007 2288.55 217.007 Q2290.4 217.007 2292.2 216.521 Q2294.03 216.012 2295.84 215.016 L2295.84 218.951 Q2294.06 219.785 2292.13 220.201 Q2290.24 220.618 2288.08 220.618 Q2282.23 220.618 2278.78 216.937 Q2275.33 213.257 2275.33 207.007 Q2275.33 200.664 2278.8 197.03 Q2282.3 193.396 2288.36 193.396 Q2290.33 193.396 2292.2 193.813 Q2294.08 194.206 2295.84 195.016 Z" fill="#000000" fill-rule="evenodd" fill-opacity="1" /><path clip-path="url(#clip950)" d="M2325.42 205.919 L2325.42 208.002 L2305.84 208.002 Q2306.12 212.4 2308.48 214.715 Q2310.86 217.007 2315.1 217.007 Q2317.55 217.007 2319.84 216.405 Q2322.16 215.803 2324.43 214.6 L2324.43 218.627 Q2322.13 219.6 2319.73 220.109 Q2317.32 220.618 2314.84 220.618 Q2308.64 220.618 2305.01 217.007 Q2301.39 213.396 2301.39 207.238 Q2301.39 200.873 2304.82 197.146 Q2308.27 193.396 2314.1 193.396 Q2319.33 193.396 2322.37 196.776 Q2325.42 200.132 2325.42 205.919 M2321.16 204.669 Q2321.12 201.174 2319.2 199.09 Q2317.3 197.007 2314.15 197.007 Q2310.58 197.007 2308.43 199.021 Q2306.3 201.035 2305.98 204.692 L2321.16 204.669 Z" fill="#000000" fill-rule="evenodd" fill-opacity="1" /><path clip-path="url(#clip950)" d="M2360.61 183.928 L2360.61 187.47 L2356.53 187.47 Q2354.24 187.47 2353.34 188.396 Q2352.46 189.322 2352.46 191.729 L2352.46 194.021 L2359.47 194.021 L2359.47 197.331 L2352.46 197.331 L2352.46 219.947 L2348.18 219.947 L2348.18 197.331 L2344.1 197.331 L2344.1 194.021 L2348.18 194.021 L2348.18 192.215 Q2348.18 187.887 2350.19 185.919 Q2352.2 183.928 2356.58 183.928 L2360.61 183.928 Z" fill="#000000" fill-rule="evenodd" fill-opacity="1" /><path clip-path="url(#clip950)" d="M2374.22 197.007 Q2370.79 197.007 2368.8 199.692 Q2366.81 202.354 2366.81 207.007 Q2366.81 211.66 2368.78 214.345 Q2370.77 217.007 2374.22 217.007 Q2377.62 217.007 2379.61 214.322 Q2381.6 211.637 2381.6 207.007 Q2381.6 202.401 2379.61 199.715 Q2377.62 197.007 2374.22 197.007 M2374.22 193.396 Q2379.77 193.396 2382.94 197.007 Q2386.12 200.618 2386.12 207.007 Q2386.12 213.373 2382.94 217.007 Q2379.77 220.618 2374.22 220.618 Q2368.64 220.618 2365.47 217.007 Q2362.32 213.373 2362.32 207.007 Q2362.32 200.618 2365.47 197.007 Q2368.64 193.396 2374.22 193.396 Z" fill="#000000" fill-rule="evenodd" fill-opacity="1" /><path clip-path="url(#clip950)" d="M2408.2 198.002 Q2407.48 197.586 2406.63 197.401 Q2405.79 197.192 2404.77 197.192 Q2401.16 197.192 2399.22 199.553 Q2397.3 201.891 2397.3 206.289 L2397.3 219.947 L2393.01 219.947 L2393.01 194.021 L2397.3 194.021 L2397.3 198.049 Q2398.64 195.688 2400.79 194.553 Q2402.94 193.396 2406.02 193.396 Q2406.46 193.396 2407 193.465 Q2407.53 193.512 2408.18 193.627 L2408.2 198.002 Z" fill="#000000" fill-rule="evenodd" fill-opacity="1" /><path clip-path="url(#clip950)" d="M2140.39 238.5 L2140.39 245.861 L2149.16 245.861 L2149.16 249.171 L2140.39 249.171 L2140.39 263.245 Q2140.39 266.416 2141.24 267.319 Q2142.12 268.222 2144.79 268.222 L2149.16 268.222 L2149.16 271.787 L2144.79 271.787 Q2139.86 271.787 2137.98 269.958 Q2136.11 268.106 2136.11 263.245 L2136.11 249.171 L2132.98 249.171 L2132.98 245.861 L2136.11 245.861 L2136.11 238.5 L2140.39 238.5 Z" fill="#000000" fill-rule="evenodd" fill-opacity="1" /><path clip-path="url(#clip950)" d="M2166.55 258.754 Q2161.38 258.754 2159.39 259.935 Q2157.4 261.115 2157.4 263.963 Q2157.4 266.231 2158.88 267.574 Q2160.39 268.893 2162.96 268.893 Q2166.5 268.893 2168.63 266.393 Q2170.78 263.87 2170.78 259.703 L2170.78 258.754 L2166.55 258.754 M2175.04 256.995 L2175.04 271.787 L2170.78 271.787 L2170.78 267.852 Q2169.32 270.213 2167.15 271.347 Q2164.97 272.458 2161.82 272.458 Q2157.84 272.458 2155.48 270.236 Q2153.14 267.99 2153.14 264.24 Q2153.14 259.866 2156.06 257.643 Q2159 255.421 2164.81 255.421 L2170.78 255.421 L2170.78 255.004 Q2170.78 252.065 2168.84 250.467 Q2166.92 248.847 2163.42 248.847 Q2161.2 248.847 2159.09 249.379 Q2156.99 249.912 2155.04 250.977 L2155.04 247.041 Q2157.38 246.139 2159.58 245.699 Q2161.78 245.236 2163.86 245.236 Q2169.49 245.236 2172.26 248.153 Q2175.04 251.069 2175.04 256.995 Z" fill="#000000" fill-rule="evenodd" fill-opacity="1" /><path clip-path="url(#clip950)" d="M2198.84 249.842 Q2198.12 249.426 2197.26 249.241 Q2196.43 249.032 2195.41 249.032 Q2191.8 249.032 2189.86 251.393 Q2187.93 253.731 2187.93 258.129 L2187.93 271.787 L2183.65 271.787 L2183.65 245.861 L2187.93 245.861 L2187.93 249.889 Q2189.28 247.528 2191.43 246.393 Q2193.58 245.236 2196.66 245.236 Q2197.1 245.236 2197.63 245.305 Q2198.17 245.352 2198.81 245.467 L2198.84 249.842 Z" fill="#000000" fill-rule="evenodd" fill-opacity="1" /><path clip-path="url(#clip950)" d="M2219.53 258.523 Q2219.53 253.893 2217.61 251.347 Q2215.71 248.801 2212.26 248.801 Q2208.84 248.801 2206.92 251.347 Q2205.02 253.893 2205.02 258.523 Q2205.02 263.129 2206.92 265.676 Q2208.84 268.222 2212.26 268.222 Q2215.71 268.222 2217.61 265.676 Q2219.53 263.129 2219.53 258.523 M2223.79 268.569 Q2223.79 275.189 2220.85 278.407 Q2217.91 281.648 2211.85 281.648 Q2209.6 281.648 2207.61 281.301 Q2205.62 280.977 2203.74 280.282 L2203.74 276.139 Q2205.62 277.157 2207.45 277.643 Q2209.28 278.129 2211.17 278.129 Q2215.36 278.129 2217.45 275.93 Q2219.53 273.754 2219.53 269.333 L2219.53 267.227 Q2218.21 269.518 2216.15 270.652 Q2214.09 271.787 2211.22 271.787 Q2206.45 271.787 2203.54 268.152 Q2200.62 264.518 2200.62 258.523 Q2200.62 252.504 2203.54 248.87 Q2206.45 245.236 2211.22 245.236 Q2214.09 245.236 2216.15 246.37 Q2218.21 247.504 2219.53 249.796 L2219.53 245.861 L2223.79 245.861 L2223.79 268.569 Z" fill="#000000" fill-rule="evenodd" fill-opacity="1" /><path clip-path="url(#clip950)" d="M2254.74 257.759 L2254.74 259.842 L2235.16 259.842 Q2235.43 264.24 2237.79 266.555 Q2240.18 268.847 2244.42 268.847 Q2246.87 268.847 2249.16 268.245 Q2251.48 267.643 2253.74 266.44 L2253.74 270.467 Q2251.45 271.44 2249.04 271.949 Q2246.64 272.458 2244.16 272.458 Q2237.96 272.458 2234.32 268.847 Q2230.71 265.236 2230.71 259.078 Q2230.71 252.713 2234.14 248.986 Q2237.59 245.236 2243.42 245.236 Q2248.65 245.236 2251.68 248.616 Q2254.74 251.972 2254.74 257.759 M2250.48 256.509 Q2250.43 253.014 2248.51 250.93 Q2246.61 248.847 2243.47 248.847 Q2239.9 248.847 2237.75 250.861 Q2235.62 252.875 2235.29 256.532 L2250.48 256.509 Z" fill="#000000" fill-rule="evenodd" fill-opacity="1" /><path clip-path="url(#clip950)" d="M2265.94 238.5 L2265.94 245.861 L2274.72 245.861 L2274.72 249.171 L2265.94 249.171 L2265.94 263.245 Q2265.94 266.416 2266.8 267.319 Q2267.68 268.222 2270.34 268.222 L2274.72 268.222 L2274.72 271.787 L2270.34 271.787 Q2265.41 271.787 2263.54 269.958 Q2261.66 268.106 2261.66 263.245 L2261.66 249.171 L2258.54 249.171 L2258.54 245.861 L2261.66 245.861 L2261.66 238.5 L2265.94 238.5 Z" fill="#000000" fill-rule="evenodd" fill-opacity="1" /><path clip-path="url(#clip950)" d="M2308.51 235.768 L2308.51 239.31 L2304.44 239.31 Q2302.15 239.31 2301.24 240.236 Q2300.36 241.162 2300.36 243.569 L2300.36 245.861 L2307.38 245.861 L2307.38 249.171 L2300.36 249.171 L2300.36 271.787 L2296.08 271.787 L2296.08 249.171 L2292.01 249.171 L2292.01 245.861 L2296.08 245.861 L2296.08 244.055 Q2296.08 239.727 2298.1 237.759 Q2300.11 235.768 2304.48 235.768 L2308.51 235.768 Z" fill="#000000" fill-rule="evenodd" fill-opacity="1" /><path clip-path="url(#clip950)" d="M2312.08 245.861 L2316.34 245.861 L2316.34 271.787 L2312.08 271.787 L2312.08 245.861 M2312.08 235.768 L2316.34 235.768 L2316.34 241.162 L2312.08 241.162 L2312.08 235.768 Z" fill="#000000" fill-rule="evenodd" fill-opacity="1" /><path clip-path="url(#clip950)" d="M2340.27 249.842 Q2339.55 249.426 2338.7 249.241 Q2337.86 249.032 2336.85 249.032 Q2333.23 249.032 2331.29 251.393 Q2329.37 253.731 2329.37 258.129 L2329.37 271.787 L2325.09 271.787 L2325.09 245.861 L2329.37 245.861 L2329.37 249.889 Q2330.71 247.528 2332.86 246.393 Q2335.02 245.236 2338.1 245.236 Q2338.54 245.236 2339.07 245.305 Q2339.6 245.352 2340.25 245.467 L2340.27 249.842 Z" fill="#000000" fill-rule="evenodd" fill-opacity="1" /><path clip-path="url(#clip950)" d="M2361.27 246.625 L2361.27 250.653 Q2359.46 249.727 2357.52 249.264 Q2355.57 248.801 2353.49 248.801 Q2350.32 248.801 2348.72 249.773 Q2347.15 250.745 2347.15 252.69 Q2347.15 254.171 2348.28 255.028 Q2349.41 255.861 2352.84 256.625 L2354.3 256.949 Q2358.84 257.921 2360.73 259.703 Q2362.66 261.463 2362.66 264.634 Q2362.66 268.245 2359.79 270.352 Q2356.94 272.458 2351.94 272.458 Q2349.85 272.458 2347.59 272.041 Q2345.34 271.648 2342.84 270.838 L2342.84 266.44 Q2345.2 267.666 2347.49 268.291 Q2349.79 268.893 2352.03 268.893 Q2355.04 268.893 2356.66 267.875 Q2358.28 266.833 2358.28 264.958 Q2358.28 263.222 2357.1 262.296 Q2355.94 261.37 2351.98 260.514 L2350.5 260.166 Q2346.54 259.333 2344.79 257.62 Q2343.03 255.884 2343.03 252.875 Q2343.03 249.217 2345.62 247.227 Q2348.21 245.236 2352.98 245.236 Q2355.34 245.236 2357.42 245.583 Q2359.51 245.93 2361.27 246.625 Z" fill="#000000" fill-rule="evenodd" fill-opacity="1" /><path clip-path="url(#clip950)" d="M2373.65 238.5 L2373.65 245.861 L2382.42 245.861 L2382.42 249.171 L2373.65 249.171 L2373.65 263.245 Q2373.65 266.416 2374.51 267.319 Q2375.39 268.222 2378.05 268.222 L2382.42 268.222 L2382.42 271.787 L2378.05 271.787 Q2373.12 271.787 2371.24 269.958 Q2369.37 268.106 2369.37 263.245 L2369.37 249.171 L2366.24 249.171 L2366.24 245.861 L2369.37 245.861 L2369.37 238.5 L2373.65 238.5 Z" fill="#000000" fill-rule="evenodd" fill-opacity="1" /><path clip-path="url(#clip950)" d="
M1973.59 313.259 L2128.05 313.259 L2128.05 264.875 L1973.59 264.875 L1973.59 313.259  Z
  " fill="#006d60" fill-rule="evenodd" fill-opacity="1"/>
<polyline clip-path="url(#clip950)" style="stroke:#000000; stroke-linecap:butt; stroke-linejoin:round; stroke-width:4; stroke-opacity:1; fill:none" points="
  1973.59,264.875 2128.05,264.875 
  "/>
<path clip-path="url(#clip950)" d="M2169.4 275.861 L2157.59 294.31 L2169.4 294.31 L2169.4 275.861 M2168.17 271.787 L2174.05 271.787 L2174.05 294.31 L2178.98 294.31 L2178.98 298.199 L2174.05 298.199 L2174.05 306.347 L2169.4 306.347 L2169.4 298.199 L2153.79 298.199 L2153.79 293.685 L2168.17 271.787 Z" fill="#000000" fill-rule="evenodd" fill-opacity="1" /><path clip-path="url(#clip950)" d="
M1973.59 373.739 L2128.05 373.739 L2128.05 325.355 L1973.59 325.355 L1973.59 373.739  Z
  " fill="#008569" fill-rule="evenodd" fill-opacity="1"/>
<polyline clip-path="url(#clip950)" style="stroke:#000000; stroke-linecap:butt; stroke-linejoin:round; stroke-width:4; stroke-opacity:1; fill:none" points="
  1973.59,325.355 2128.05,325.355 
  "/>
<path clip-path="url(#clip950)" d="M2169.42 348.193 Q2172.77 348.91 2174.65 351.179 Q2176.55 353.447 2176.55 356.78 Q2176.55 361.896 2173.03 364.697 Q2169.51 367.498 2163.03 367.498 Q2160.85 367.498 2158.54 367.058 Q2156.25 366.642 2153.79 365.785 L2153.79 361.271 Q2155.74 362.405 2158.05 362.984 Q2160.37 363.563 2162.89 363.563 Q2167.29 363.563 2169.58 361.827 Q2171.9 360.091 2171.9 356.78 Q2171.9 353.725 2169.74 352.012 Q2167.61 350.276 2163.79 350.276 L2159.77 350.276 L2159.77 346.433 L2163.98 346.433 Q2167.43 346.433 2169.26 345.068 Q2171.09 343.679 2171.09 341.086 Q2171.09 338.424 2169.19 337.012 Q2167.31 335.577 2163.79 335.577 Q2161.87 335.577 2159.67 335.994 Q2157.47 336.41 2154.84 337.29 L2154.84 333.123 Q2157.5 332.382 2159.81 332.012 Q2162.15 331.642 2164.21 331.642 Q2169.53 331.642 2172.64 334.072 Q2175.74 336.48 2175.74 340.6 Q2175.74 343.47 2174.09 345.461 Q2172.45 347.429 2169.42 348.193 Z" fill="#000000" fill-rule="evenodd" fill-opacity="1" /><path clip-path="url(#clip950)" d="
M1973.59 434.219 L2128.05 434.219 L2128.05 385.835 L1973.59 385.835 L1973.59 434.219  Z
  " fill="#009e73" fill-rule="evenodd" fill-opacity="1"/>
<polyline clip-path="url(#clip950)" style="stroke:#000000; stroke-linecap:butt; stroke-linejoin:round; stroke-width:4; stroke-opacity:1; fill:none" points="
  1973.59,385.835 2128.05,385.835 
  "/>
<path clip-path="url(#clip950)" d="M2159.42 423.372 L2175.74 423.372 L2175.74 427.307 L2153.79 427.307 L2153.79 423.372 Q2156.46 420.617 2161.04 415.987 Q2165.65 411.335 2166.83 409.992 Q2169.07 407.469 2169.95 405.733 Q2170.85 403.974 2170.85 402.284 Q2170.85 399.529 2168.91 397.793 Q2166.99 396.057 2163.89 396.057 Q2161.69 396.057 2159.23 396.821 Q2156.8 397.585 2154.03 399.136 L2154.03 394.413 Q2156.85 393.279 2159.3 392.7 Q2161.76 392.122 2163.79 392.122 Q2169.16 392.122 2172.36 394.807 Q2175.55 397.492 2175.55 401.983 Q2175.55 404.112 2174.74 406.034 Q2173.96 407.932 2171.85 410.524 Q2171.27 411.196 2168.17 414.413 Q2165.07 417.608 2159.42 423.372 Z" fill="#000000" fill-rule="evenodd" fill-opacity="1" /><path clip-path="url(#clip950)" d="
M1973.59 494.699 L2128.05 494.699 L2128.05 446.315 L1973.59 446.315 L1973.59 494.699  Z
  " fill="#77c6b0" fill-rule="evenodd" fill-opacity="1"/>
<polyline clip-path="url(#clip950)" style="stroke:#000000; stroke-linecap:butt; stroke-linejoin:round; stroke-width:4; stroke-opacity:1; fill:none" points="
  1973.59,446.315 2128.05,446.315 
  "/>
<path clip-path="url(#clip950)" d="M2154.46 483.852 L2162.1 483.852 L2162.1 457.486 L2153.79 459.153 L2153.79 454.893 L2162.06 453.227 L2166.73 453.227 L2166.73 483.852 L2174.37 483.852 L2174.37 487.787 L2154.46 487.787 L2154.46 483.852 Z" fill="#000000" fill-rule="evenodd" fill-opacity="1" /><path clip-path="url(#clip950)" d="
M1973.59 555.179 L2128.05 555.179 L2128.05 506.795 L1973.59 506.795 L1973.59 555.179  Z
  " fill="#eeeeee" fill-rule="evenodd" fill-opacity="1"/>
<polyline clip-path="url(#clip950)" style="stroke:#000000; stroke-linecap:butt; stroke-linejoin:round; stroke-width:4; stroke-opacity:1; fill:none" points="
  1973.59,506.795 2128.05,506.795 
  "/>
<path clip-path="url(#clip950)" d="M2165.74 516.785 Q2162.13 516.785 2160.3 520.35 Q2158.49 523.892 2158.49 531.021 Q2158.49 538.128 2160.3 541.693 Q2162.13 545.234 2165.74 545.234 Q2169.37 545.234 2171.18 541.693 Q2173.01 538.128 2173.01 531.021 Q2173.01 523.892 2171.18 520.35 Q2169.37 516.785 2165.74 516.785 M2165.74 513.082 Q2171.55 513.082 2174.6 517.688 Q2177.68 522.272 2177.68 531.021 Q2177.68 539.748 2174.6 544.355 Q2171.55 548.938 2165.74 548.938 Q2159.93 548.938 2156.85 544.355 Q2153.79 539.748 2153.79 531.021 Q2153.79 522.272 2156.85 517.688 Q2159.93 513.082 2165.74 513.082 Z" fill="#000000" fill-rule="evenodd" fill-opacity="1" /><path clip-path="url(#clip950)" d="
M1973.59 615.659 L2128.05 615.659 L2128.05 567.275 L1973.59 567.275 L1973.59 615.659  Z
  " fill="#ddb3ca" fill-rule="evenodd" fill-opacity="1"/>
<polyline clip-path="url(#clip950)" style="stroke:#000000; stroke-linecap:butt; stroke-linejoin:round; stroke-width:4; stroke-opacity:1; fill:none" points="
  1973.59,567.275 2128.05,567.275 
  "/>
<path clip-path="url(#clip950)" d="M2153.79 593.863 L2166.27 593.863 L2166.27 597.659 L2153.79 597.659 L2153.79 593.863 Z" fill="#000000" fill-rule="evenodd" fill-opacity="1" /><path clip-path="url(#clip950)" d="M2174.46 604.812 L2182.1 604.812 L2182.1 578.446 L2173.79 580.113 L2173.79 575.853 L2182.06 574.187 L2186.73 574.187 L2186.73 604.812 L2194.37 604.812 L2194.37 608.747 L2174.46 608.747 L2174.46 604.812 Z" fill="#000000" fill-rule="evenodd" fill-opacity="1" /><path clip-path="url(#clip950)" d="
M1973.59 676.139 L2128.05 676.139 L2128.05 627.755 L1973.59 627.755 L1973.59 676.139  Z
  " fill="#cc79a7" fill-rule="evenodd" fill-opacity="1"/>
<polyline clip-path="url(#clip950)" style="stroke:#000000; stroke-linecap:butt; stroke-linejoin:round; stroke-width:4; stroke-opacity:1; fill:none" points="
  1973.59,627.755 2128.05,627.755 
  "/>
<path clip-path="url(#clip950)" d="M2153.79 654.343 L2166.27 654.343 L2166.27 658.139 L2153.79 658.139 L2153.79 654.343 Z" fill="#000000" fill-rule="evenodd" fill-opacity="1" /><path clip-path="url(#clip950)" d="M2177.68 665.292 L2194 665.292 L2194 669.227 L2172.06 669.227 L2172.06 665.292 Q2174.72 662.537 2179.3 657.907 Q2183.91 653.255 2185.09 651.912 Q2187.34 649.389 2188.21 647.653 Q2189.12 645.894 2189.12 644.204 Q2189.12 641.449 2187.17 639.713 Q2185.25 637.977 2182.15 637.977 Q2179.95 637.977 2177.5 638.741 Q2175.07 639.505 2172.29 641.056 L2172.29 636.333 Q2175.11 635.199 2177.57 634.62 Q2180.02 634.042 2182.06 634.042 Q2187.43 634.042 2190.62 636.727 Q2193.82 639.412 2193.82 643.903 Q2193.82 646.032 2193.01 647.954 Q2192.22 649.852 2190.11 652.444 Q2189.53 653.116 2186.43 656.333 Q2183.33 659.528 2177.68 665.292 Z" fill="#000000" fill-rule="evenodd" fill-opacity="1" /><path clip-path="url(#clip950)" d="
M1973.59 736.619 L2128.05 736.619 L2128.05 688.235 L1973.59 688.235 L1973.59 736.619  Z
  " fill="#b55585" fill-rule="evenodd" fill-opacity="1"/>
<polyline clip-path="url(#clip950)" style="stroke:#000000; stroke-linecap:butt; stroke-linejoin:round; stroke-width:4; stroke-opacity:1; fill:none" points="
  1973.59,688.235 2128.05,688.235 
  "/>
<path clip-path="url(#clip950)" d="M2153.79 714.823 L2166.27 714.823 L2166.27 718.619 L2153.79 718.619 L2153.79 714.823 Z" fill="#000000" fill-rule="evenodd" fill-opacity="1" /><path clip-path="url(#clip950)" d="M2187.82 711.073 Q2191.18 711.79 2193.05 714.059 Q2194.95 716.327 2194.95 719.66 Q2194.95 724.776 2191.43 727.577 Q2187.91 730.378 2181.43 730.378 Q2179.26 730.378 2176.94 729.938 Q2174.65 729.522 2172.2 728.665 L2172.2 724.151 Q2174.14 725.285 2176.46 725.864 Q2178.77 726.443 2181.29 726.443 Q2185.69 726.443 2187.98 724.707 Q2190.3 722.971 2190.3 719.66 Q2190.3 716.605 2188.15 714.892 Q2186.02 713.156 2182.2 713.156 L2178.17 713.156 L2178.17 709.313 L2182.38 709.313 Q2185.83 709.313 2187.66 707.948 Q2189.49 706.559 2189.49 703.966 Q2189.49 701.304 2187.59 699.892 Q2185.71 698.457 2182.2 698.457 Q2180.27 698.457 2178.08 698.874 Q2175.88 699.29 2173.24 700.17 L2173.24 696.003 Q2175.9 695.262 2178.21 694.892 Q2180.55 694.522 2182.61 694.522 Q2187.94 694.522 2191.04 696.952 Q2194.14 699.36 2194.14 703.48 Q2194.14 706.35 2192.5 708.341 Q2190.85 710.309 2187.82 711.073 Z" fill="#000000" fill-rule="evenodd" fill-opacity="1" /><path clip-path="url(#clip950)" d="
M1973.59 797.099 L2128.05 797.099 L2128.05 748.715 L1973.59 748.715 L1973.59 797.099  Z
  " fill="#9e3264" fill-rule="evenodd" fill-opacity="1"/>
<polyline clip-path="url(#clip950)" style="stroke:#000000; stroke-linecap:butt; stroke-linejoin:round; stroke-width:4; stroke-opacity:1; fill:none" points="
  1973.59,748.715 2128.05,748.715 
  "/>
<path clip-path="url(#clip950)" d="M2153.79 775.303 L2166.27 775.303 L2166.27 779.099 L2153.79 779.099 L2153.79 775.303 Z" fill="#000000" fill-rule="evenodd" fill-opacity="1" /><path clip-path="url(#clip950)" d="M2186.5 759.701 L2174.7 778.15 L2186.5 778.15 L2186.5 759.701 M2185.27 755.627 L2191.15 755.627 L2191.15 778.15 L2196.08 778.15 L2196.08 782.039 L2191.15 782.039 L2191.15 790.187 L2186.5 790.187 L2186.5 782.039 L2170.9 782.039 L2170.9 777.525 L2185.27 755.627 Z" fill="#000000" fill-rule="evenodd" fill-opacity="1" /></svg>
